<svg preserveAspectRatio="none" width="100%" height="100%" overflow="visible" style="display: block;" viewBox="0 0 35.8337 35.8333" fill="none" xmlns="http://www.w3.org/2000/svg">
<g id="icon-color">
<path d="M27.9167 0C31.0219 0 33.9832 1.85611 35.2262 4.79818C36.3881 7.54847 35.7435 9.91179 34.4678 11.8685C33.2527 13.7321 31.3754 15.354 29.974 16.6829C29.4181 17.2097 28.6799 17.5 27.9167 17.5C27.1534 17.5 26.4152 17.2098 25.8594 16.6829L25.8561 16.6797C24.4619 15.3498 22.584 13.7278 21.3688 11.8685C20.0914 9.91355 19.4438 7.55183 20.6071 4.79818C21.8501 1.85609 24.8114 5.80619e-05 27.9167 0ZM27.9167 2.5C25.7741 2.50006 23.746 3.79301 22.9102 5.77148C22.1512 7.56812 22.5137 9.04853 23.4619 10.4997C24.4717 12.045 26.0321 13.3937 27.5781 14.8682C27.6646 14.9501 27.7866 15 27.9167 15C28.0467 15 28.167 14.95 28.2536 14.8682C29.8008 13.401 31.3648 12.0493 32.373 10.5029C33.3206 9.04959 33.6812 7.56588 32.9232 5.77148C32.0873 3.79297 30.0593 2.5 27.9167 2.5Z" fill="var(--fill-0, white)"/>
<path d="M27.9313 6.25L28.1022 6.25814C28.9426 6.34354 29.598 7.05376 29.598 7.91667C29.598 8.77957 28.9426 9.48979 28.1022 9.5752L27.9313 9.58333H27.9167C26.9962 9.58333 26.25 8.83714 26.25 7.91667C26.25 6.99619 26.9962 6.25 27.9167 6.25H27.9313Z" fill="var(--fill-0, white)"/>
<path d="M10 29.5833C10 27.5123 8.32107 25.8333 6.25 25.8333C4.17893 25.8333 2.5 27.5123 2.5 29.5833C2.5 31.6544 4.17893 33.3333 6.25 33.3333C8.32107 33.3333 10 31.6544 10 29.5833ZM12.5 29.5833C12.5 33.0351 9.70178 35.8333 6.25 35.8333C2.79822 35.8333 0 33.0351 0 29.5833C0 26.1316 2.79822 23.3333 6.25 23.3333C9.70178 23.3333 12.5 26.1316 12.5 29.5833Z" fill="var(--fill-0, white)"/>
<path d="M23.3333 24.5833C23.3333 22.6861 21.469 20.8333 18.75 20.8333H13.75C10.0257 20.8333 6.66667 18.2089 6.66667 14.5833C6.66667 10.9577 10.0257 8.33333 13.75 8.33333H16.25C16.9404 8.33333 17.5 8.89298 17.5 9.58333C17.5 10.2737 16.9404 10.8333 16.25 10.8333H13.75C11.031 10.8333 9.16667 12.6861 9.16667 14.5833C9.16667 16.4806 11.031 18.3333 13.75 18.3333H18.75C22.4743 18.3333 25.8333 20.9577 25.8333 24.5833C25.8333 28.2089 22.4743 30.8333 18.75 30.8333H16.25C15.5596 30.8333 15 30.2737 15 29.5833C15 28.893 15.5596 28.3333 16.25 28.3333H18.75C21.469 28.3333 23.3333 26.4806 23.3333 24.5833Z" fill="var(--fill-0, white)"/>
</g>
</svg>
