<svg preserveAspectRatio="none" width="100%" height="100%" overflow="visible" style="display: block;" viewBox="0 0 19.8 21.8004" fill="none" xmlns="http://www.w3.org/2000/svg">
<g id="icon-color">
<path d="M12.4996 9.90039C12.4996 8.46458 11.3362 7.30021 9.90039 7.3C8.46445 7.3 7.3 8.46445 7.3 9.90039C7.30021 11.3362 8.46458 12.4996 9.90039 12.4996C11.336 12.4994 12.4994 11.336 12.4996 9.90039ZM14.2996 9.90039C14.2994 12.3301 12.3301 14.2994 9.90039 14.2996C7.47047 14.2996 5.50021 12.3303 5.5 9.90039C5.5 7.47034 7.47034 5.5 9.90039 5.5C12.3303 5.50021 14.2996 7.47047 14.2996 9.90039Z" fill="var(--fill-0, #0284C7)"/>
<path d="M18 9.82617C18 5.44151 14.2846 1.8 9.9 1.8C5.51536 1.8 1.8 5.4415 1.8 9.82617C1.80011 12.0457 2.73033 13.9544 4.16836 15.627C5.60874 17.3021 7.5268 18.7006 9.42305 19.8762C9.56849 19.9567 9.73242 20.0004 9.9 20.0004C10.0672 20.0004 10.2306 19.9563 10.3758 19.8762C12.2731 18.7137 14.1935 17.3115 15.634 15.6305C17.0717 13.9526 17.9999 12.0376 18 9.82617ZM19.8 9.82617C19.7999 12.5851 18.6299 14.8994 17.0004 16.8012C15.3783 18.6942 13.2696 20.2171 11.2969 21.4242L11.2828 21.4324L11.2699 21.4406C10.8521 21.6765 10.3797 21.8004 9.9 21.8004C9.42026 21.8004 8.94786 21.6765 8.53008 21.4406L8.49961 21.4219C6.53464 20.2055 4.42588 18.6874 2.80312 16.8C1.17217 14.903 0.000114438 12.5941 0 9.82617C0 4.42526 4.54353 0 9.9 0C15.2565 1.18174e-07 19.8 4.42526 19.8 9.82617Z" fill="var(--fill-0, #0284C7)"/>
</g>
</svg>
