<svg preserveAspectRatio="none" width="100%" height="100%" overflow="visible" style="display: block;" viewBox="0 0 40 40" fill="none" xmlns="http://www.w3.org/2000/svg">
<g id="Paths">
<path id="Vector" d="M0 10C0 4.47715 4.47715 0 10 0H30C35.5229 0 40 4.47715 40 10V30C40 35.5229 35.5229 40 30 40H10C4.47715 40 0 35.5229 0 30V10Z" fill="#003D8F"/>
<path id="Vector_2" d="M32.287 4.09278L32.006 4.26135L30.8184 5.12992C30.8184 5.12992 29.7889 5.81562 28.0146 5.92991C26.2413 6.04515 21.7204 5.41563 21.7204 5.41563C21.7204 5.41563 19.2032 5.07277 16.628 5.58705C14.0537 6.10229 14.2823 7.64704 14.2252 7.87561C14.168 8.10513 12.5823 11.0603 12.2385 11.4032C11.8957 11.7461 12.1071 9.70798 12.1071 9.70798C12.1071 9.70798 11.909 7.98609 10.3909 8.21847C9.07855 8.41846 7.87284 8.78989 7.87284 8.78989C7.87284 8.78989 7.47284 9.30608 7.64427 9.70607C7.8157 10.1061 7.98713 10.1632 7.98713 10.1632L7.92998 11.8842C8.01094 12.228 8.38808 12.8537 8.38808 12.8537L9.36045 12.7394C9.36045 12.7394 10.0052 13.4099 9.77473 13.6984C9.28616 14.3099 8.44522 16.1146 8.44522 16.1146C8.44522 16.1146 8.30712 16.9289 8.53569 17.387C8.76522 17.8441 8.96902 19.0651 9.67664 20.1165C10.0414 20.6231 13.3661 24.4688 13.6528 24.8126C13.9385 25.1555 20.8623 28.7031 20.8623 28.7031C20.8623 28.7031 22.8908 29.6916 25.6118 32.6516C27.0689 34.2373 28.4756 35.8421 28.4756 35.8421C28.4756 35.8421 29.2708 36.363 28.987 35.5126C28.4156 33.7964 25.6689 29.905 25.6689 29.905L23.4946 27.3307C23.4946 27.3307 22.2927 26.0145 20.8051 25.7279C19.7994 25.5355 18.688 24.0688 18.688 24.0688L16.628 21.8374C16.628 21.8374 15.9414 19.7193 14.1671 19.2051C13.4023 18.9822 13.2957 18.4613 13.2957 18.4613C13.2957 18.4613 13.3661 15.8289 13.5947 14.7984C13.8233 13.7689 15.4261 11.308 17.3147 10.7365C19.2032 10.1642 21.8918 10.3365 21.8918 10.3365C21.8918 10.3365 26.2413 10.2785 29.1013 8.27561C31.9631 6.27276 32.565 5.09468 32.565 5.09468C32.565 5.09468 33.0574 3.62421 32.287 4.09183V4.09278Z" fill="#FCC210"/>
<path id="Vector_3" d="M19.5948 12.7575C19.5948 12.7575 18.8262 17.5327 18.9472 20.2631C19.0157 21.8012 18.2395 21.8298 17.9967 20.6279C17.6729 19.0288 17.49 13.8022 17.7338 12.6765C17.9967 11.4632 19.6348 10.7346 19.5948 12.7575V12.7575ZM20.95 13.1832C20.95 13.1832 20.3233 17.1889 20.4852 20.1831C20.6471 23.1764 20.971 23.884 21.0719 24.1479C21.1729 24.4107 21.7386 24.8964 21.7595 23.804C21.7795 22.7107 22.2243 18.3822 22.69 15.6708C23.1547 12.9603 23.0138 13.0413 23.0138 12.2327C23.0138 11.4232 21.4014 10.6003 21.1119 12.0498C21.031 12.4546 20.95 13.1832 20.95 13.1832ZM24.7938 11.4232L24.7128 11.6451C24.7128 11.6451 24.349 13.466 24.2271 14.2355C24.1052 15.0051 23.0138 20.7888 23.7624 24.6936C23.9852 26.2516 24.1462 26.8174 24.1462 26.8174C24.1462 26.8174 24.9557 28.3354 25.0166 26.7374C25.0776 25.1393 24.7128 22.7926 25.6233 18.5241C26.5338 14.2555 26.7766 12.6575 26.7766 11.9489C26.7766 11.2403 26.089 9.80415 24.7938 11.4232V11.4232ZM28.5566 10.3508C28.9823 9.64224 30.4385 9.09653 30.6614 10.6137C30.8833 12.1308 29.1252 19.2326 29.0423 19.7174C28.8604 20.7888 27.7195 27.2602 28.0109 30.4192C28.0719 32.1583 27.1204 31.0459 27.0204 30.3583C26.8585 29.7926 26.4528 24.5926 26.9185 21.2955C27.3833 17.9974 27.909 15.1651 27.97 14.7403C28.0309 14.3155 28.1928 12.5756 28.1928 11.9079C28.1928 11.2413 28.5566 10.3508 28.5566 10.3508V10.3508Z" fill="#FCC210"/>
</g>
</svg>
