<svg preserveAspectRatio="none" width="100%" height="100%" overflow="visible" style="display: block;" viewBox="0 0 20.5 21.5009" fill="none" xmlns="http://www.w3.org/2000/svg">
<g id="icon-color">
<path d="M18 8.75C18 6.84209 17.9983 5.49093 17.8525 4.4668C17.7105 3.46882 17.4445 2.89209 16.9941 2.4668C16.5378 2.03592 15.9095 1.77744 14.832 1.64063C13.737 1.5016 12.2958 1.5 10.2793 1.5H9.22071C7.20421 1.5 5.76302 1.5016 4.66797 1.64063C3.59047 1.77744 2.96221 2.03592 2.50586 2.4668C2.05555 2.89209 1.78953 3.46882 1.64746 4.4668C1.5017 5.49093 1.5 6.84209 1.5 8.75V12.75C1.5 14.6579 1.5017 16.0091 1.64746 17.0332C1.78953 18.0312 2.05555 18.6079 2.50586 19.0332C2.96221 19.4641 3.59047 19.7226 4.66797 19.8594C5.48926 19.9636 6.50516 19.9911 7.8125 19.998L9.22071 20H10.75C11.1642 20 11.5 20.3358 11.5 20.75C11.5 21.1642 11.1642 21.5 10.75 21.5H9.25C9.24478 21.5 9.23958 21.4991 9.23438 21.499L9.22071 21.5L7.81641 21.498C6.48874 21.4912 5.38725 21.463 4.47852 21.3477C3.24979 21.1916 2.25961 20.8644 1.47559 20.124C0.685468 19.3778 0.330181 18.4255 0.162111 17.2451C-0.00221767 16.0908 1.45509e-06 14.6132 1.54135e-06 12.75V8.75C1.62758e-06 6.8868 -0.0022178 5.40924 0.162111 4.25488C0.330181 3.07447 0.685468 2.1222 1.47559 1.37598C2.25961 0.635613 3.24979 0.308399 4.47852 0.152344C5.69011 -0.00149991 7.24422 4.7219e-07 9.22071 5.53786e-07H10.2793C12.2558 6.35381e-07 13.8099 -0.00149998 15.0215 0.152344C16.2502 0.308399 17.2404 0.635613 18.0244 1.37598C18.8145 2.1222 19.1698 3.07447 19.3379 4.25488C19.5022 5.40924 19.5 6.8868 19.5 8.75C19.5 9.16422 19.1642 9.5 18.75 9.5C18.3358 9.5 18 9.16422 18 8.75Z" fill="#0284C7"/>
<path d="M13.75 5C14.1642 5 14.5 5.33579 14.5 5.75C14.5 6.16421 14.1642 6.5 13.75 6.5H5.75C5.33579 6.5 5 6.16421 5 5.75C5 5.33579 5.33579 5 5.75 5H13.75Z" fill="#0284C7"/>
<path d="M10.75 10C11.1642 10 11.5 10.3358 11.5 10.75C11.5 11.1642 11.1642 11.5 10.75 11.5H5.75C5.33579 11.5 5 11.1642 5 10.75C5 10.3358 5.33579 10 5.75 10H10.75Z" fill="#0284C7"/>
<path d="M19 14.7451C19 13.5063 17.9938 12.5 16.75 12.5C15.5062 12.5 14.5 13.5063 14.5 14.7451C14.5 15.9839 15.5062 16.9902 16.75 16.9902C17.9938 16.9902 19 15.9839 19 14.7451ZM17.8887 18.3135C17.5294 18.4277 17.147 18.4902 16.75 18.4902C16.4001 18.4902 16.0616 18.4411 15.7402 18.3516L15.3789 19.6152L16.3232 19.2383C16.5628 19.1426 16.8266 19.1305 17.0723 19.2022L17.1768 19.2383L18.2002 19.6465L17.8887 18.3135ZM20.5 14.7451C20.5 15.8551 20.0156 16.8505 19.2481 17.5361L19.9033 20.3379C19.9046 20.3433 19.9061 20.3491 19.9072 20.3545C20.0639 21.099 19.3269 21.712 18.625 21.4316L16.749 20.6836L14.8936 21.4238C14.1743 21.7109 13.4275 21.062 13.6211 20.3066L14.3809 17.6484C13.5382 16.9619 13 15.9166 13 14.7451C13 12.6756 14.6801 11 16.75 11C18.8199 11 20.5 12.6756 20.5 14.7451Z" fill="#0284C7"/>
</g>
</svg>
