<svg preserveAspectRatio="none" width="100%" height="100%" overflow="visible" style="display: block;" viewBox="0 0 40 40" fill="none" xmlns="http://www.w3.org/2000/svg">
<g id="Paths">
<path id="Vector" d="M0 10C0 4.47715 4.47715 0 10 0H30C35.5229 0 40 4.47715 40 10V30C40 35.5229 35.5229 40 30 40H10C4.47715 40 0 35.5229 0 30V10Z" fill="#E20177"/>
<path id="Union" d="M21.0283 6.17165C28.6584 6.17181 34.8437 12.3579 34.8437 19.9881C34.8435 27.618 28.6582 33.8033 21.0283 33.8035C19.7236 33.8035 18.4611 33.6219 17.2646 33.284C18.1019 33.4598 18.9698 33.5525 19.8593 33.5525C26.798 33.5525 32.4228 27.9277 32.4228 20.989C32.4226 14.0505 26.7979 8.42558 19.8593 8.42555C12.9208 8.42555 7.29606 14.0505 7.29587 20.989C7.29587 21.2179 7.30233 21.4457 7.31442 21.6716C7.24736 21.1198 7.2119 20.558 7.21188 19.9881C7.21188 12.3578 13.3981 6.17165 21.0283 6.17165ZM12.0556 29.3377C11.7917 30.7399 11.2639 31.7634 10.3593 32.3699C8.83736 33.4105 6.9414 33.5029 5.19431 33.0896C5.19426 32.9275 5.15626 32.7632 5.15622 32.5974C5.15622 31.9532 5.30692 31.3465 5.60837 30.7781C6.46292 30.9499 7.40234 31.0661 8.17184 30.5506C8.70002 30.108 8.94461 29.4726 9.07712 28.8064L10.8789 19.5359H9.48337C9.48337 18.7076 9.5216 18.0579 9.89841 17.1863H14.3095L12.0556 29.3377ZM21.6728 17.0291C22.289 16.9927 22.9056 17.1741 23.4131 17.5379C23.8841 17.9743 24.1375 18.5564 24.1738 19.1746C24.5363 18.5563 25.044 18.0471 25.6601 17.6834C26.2763 17.2833 27.0015 17.0652 27.7627 17.0652C28.4513 17.0289 29.1399 17.247 29.6836 17.6834C30.5786 18.5067 30.4233 20.1974 30.1914 21.284L28.959 28.1951C27.9761 28.336 26.9687 28.3467 25.9863 28.1951L27.1465 21.5388C27.1827 21.2479 27.2187 20.9206 27.2187 20.6297C27.2918 20.0431 26.8974 19.5222 26.2763 19.6111C25.2454 19.6111 24.5969 20.6578 24.2461 21.5027C23.9924 22.121 23.8118 22.7758 23.7031 23.4304L22.8691 28.2683C21.8862 28.4092 20.8788 28.42 19.8965 28.2683L21.0566 21.6121C21.1442 20.9092 21.3188 19.522 20.1865 19.6843C19.0378 19.6844 18.4714 20.8772 18.1201 21.7937C17.8664 22.521 17.6497 23.2849 17.541 24.0486L16.7793 28.2683C15.7964 28.4092 14.789 28.42 13.8066 28.2683L14.9306 21.9392C15.0756 21.0663 15.1842 20.266 15.2929 19.575C15.3654 19.0657 15.4023 18.52 15.4023 17.9744C15.4023 17.7231 15.4274 17.4567 15.3662 17.2107C16.2293 17.0775 17.1972 17.003 18.0478 17.2468C18.2572 17.8773 18.1201 18.5311 18.1201 19.1746C18.4463 18.5563 18.9542 18.011 19.5703 17.6472C20.1865 17.2471 20.9479 16.9927 21.6728 17.0291ZM13.5097 12.4324C14.0108 12.4324 14.535 12.4832 15.0175 12.6218C15.0175 13.5735 14.8256 14.4898 14.5273 15.3894C13.9976 15.5226 13.4513 15.5789 12.9062 15.5789C12.4184 15.5789 11.9081 15.5629 11.4365 15.4275C11.3566 14.4634 11.5881 13.5283 11.8886 12.6218C12.4191 12.4885 12.9641 12.4324 13.5097 12.4324Z" fill="white"/>
</g>
</svg>
