<svg preserveAspectRatio="none" width="100%" height="100%" overflow="visible" style="display: block;" viewBox="0 0 40 40" fill="none" xmlns="http://www.w3.org/2000/svg">
<g id="Paths">
<path id="Vector" d="M40 20C40 31.0457 31.0457 40 20 40C8.95431 40 0 31.0457 0 20C0 8.95431 8.95431 0 20 0C31.0457 0 40 8.95431 40 20Z" fill="#D0006F"/>
<path id="Vector_2" d="M21.0275 33.3499C21.0275 31.9816 21.0275 30.6139 21.0275 29.2466C21.0221 29.0608 20.9915 28.8767 20.9365 28.6992C20.932 28.6838 20.9289 28.668 20.9274 28.6519C20.8772 28.1765 20.861 27.698 20.8788 27.2201C20.9043 27.0424 21.1378 26.6074 21.0002 26.4318C20.9398 26.3547 17.0791 27.836 16.6453 27.9475C16.5212 27.9875 16.4115 28.0634 16.3298 28.1655C16.3224 28.1748 16.3174 28.1858 16.3153 28.1975C16.3132 28.2092 16.314 28.2213 16.3177 28.2326C16.4527 28.4507 16.3177 28.6214 16.2115 28.7861C16.1053 28.9508 15.9566 29.0911 15.8626 29.2543C15.7686 29.4174 15.6457 29.5516 15.5441 29.7117C15.3711 29.977 15.1557 30.2149 14.9601 30.4634C14.8857 30.5595 14.816 30.6586 14.7416 30.7547C14.694 30.8216 14.6379 30.8821 14.5748 30.9346C14.5226 30.9588 14.4641 30.9652 14.4079 30.9529C14.3958 30.9529 14.3837 30.8812 14.3806 30.8431C14.385 30.6197 14.4467 30.4012 14.5596 30.2088C14.7113 29.8733 14.8782 29.5424 15.048 29.2146C15.1481 29.0168 15.2181 28.805 15.2559 28.5864C15.2771 28.4735 15.2847 28.3607 15.3014 28.2494C15.319 28.1619 15.3573 28.08 15.413 28.0105C15.4687 27.941 15.5402 27.8859 15.6214 27.8499C17.2921 27.0149 19.1122 26.5632 20.8166 25.8143C20.9313 25.7716 21.0176 25.6645 21.0351 25.5428C21.5907 23.885 21.0351 21.2156 21.0351 19.4664C21.0292 18.9161 20.4251 18.4213 20.0916 18.024C19.8253 17.7025 19.3891 17.4475 18.96 17.4552C18.5142 17.4552 18.0522 17.5538 17.6115 17.5055C17.3565 17.477 17.0983 17.5388 16.844 17.507C16.618 17.4384 16.3889 17.3988 16.1645 17.3103C15.5249 17.0532 14.8517 16.8896 14.2138 16.6318C12.5307 16.0061 12.3894 14.1605 12.4193 12.6261C12.5938 10.7962 13.8816 9.43006 15.2589 8.34899C16.0187 7.75542 18.2698 6.15513 17.5311 4.90747C17.4187 4.77173 17.2921 4.64853 17.1534 4.53999C17.0221 4.43407 16.8253 4.42636 16.6863 4.52169C16.2968 4.75402 15.6095 4.72279 15.2361 4.46375C15.0223 4.34434 14.8003 4.24704 14.5581 4.20453C14.0761 4.11985 13.5569 4.48384 13.24 4.80836C12.9464 5.09947 12.6418 5.4544 12.2631 5.63786C12.1114 5.71715 12.028 5.66531 12.0007 5.49605C11.99 5.20143 12.106 4.88502 12.2055 4.61166C12.3515 4.20389 12.4558 3.80457 12.7151 3.4467C12.9927 3.03652 13.4129 2.84592 13.8452 2.68429C14.2427 2.5555 14.6643 2.56173 15.0587 2.42659C15.4384 2.26942 15.8626 2.09774 16.2721 2.05301C16.3662 2.05301 16.4527 1.98592 16.5558 2.00269C17.1707 2.10199 17.6022 2.35119 18.0302 2.7895C18.8895 3.67905 19.285 5.05043 18.91 6.24931C18.5038 8.12199 17.3027 8.71173 15.9142 9.77622C15.4203 10.1218 15.1349 10.7038 14.8721 11.2248C14.5187 12.0174 13.7017 14.1392 15.1815 14.3354C15.333 14.347 15.4851 14.347 15.6366 14.3354C15.6803 13.5173 15.7572 12.7726 16.1235 12.0192C16.4282 11.4344 16.9178 10.9605 17.4796 10.6225C18.8521 9.77185 19.9203 9.90612 21.3491 10.1178C23.1173 10.3797 24.8586 11.0835 26.3668 12.0269C27.1169 12.496 27.8046 13.0759 28.5587 13.5318C29.4848 14.1016 30.2193 15.0753 30.9947 15.8191C31.066 15.8877 31.1601 15.9289 31.2147 16.0264C31.2616 16.1089 31.3017 16.1951 31.3345 16.2841C31.431 16.5719 31.5814 16.8384 31.7774 17.0694C32.1494 17.5283 32.5521 18.0098 32.6936 18.5958C32.8224 18.945 32.8209 19.3566 32.7952 19.7257C32.7805 19.9908 32.7124 20.2502 32.595 20.4881C32.5793 20.5242 32.5605 20.5589 32.5389 20.5918C32.4931 20.638 32.4556 20.6043 32.4449 20.5536C32.413 20.4134 32.3751 20.2731 32.3554 20.1343C32.2374 19.5823 31.9816 19.0338 31.738 18.5287C31.6753 18.3817 31.5642 18.2608 31.4233 18.1864C31.2825 18.112 31.1204 18.0885 30.9644 18.12C30.9477 18.12 30.9189 18.1749 30.925 18.1917C30.9887 18.335 31.0569 18.4768 31.1252 18.6171C31.32 19.0202 31.4838 19.4377 31.6151 19.8659C31.7198 20.1968 31.7881 20.5399 31.8836 20.8754C31.8912 20.9028 31.8715 20.9364 31.8639 20.9684C31.8351 20.9577 31.7956 20.9562 31.779 20.9364C31.7259 20.8769 31.6819 20.8083 31.6273 20.7442C31.6273 20.7209 31.5556 20.718 31.5772 20.7686C31.8276 21.4752 31.5572 22.2571 31.7683 22.9293C31.7759 22.9858 31.7391 23.0436 31.6849 23.0604C31.6242 23.0696 31.6364 23.0177 31.6167 22.9842C31.5624 22.8869 31.5283 22.7795 31.5165 22.6686C31.4884 22.4952 31.4504 22.3237 31.4028 22.1547C31.3618 21.9946 31.3087 21.8375 31.2678 21.6774C31.193 21.3625 31.0978 21.0528 30.9826 20.7503C30.884 20.5003 30.7793 20.2578 30.661 20.0184C30.4365 19.6059 30.1496 19.2418 29.8086 18.919C29.7818 18.8871 29.7518 18.8579 29.7191 18.8321C29.6698 18.8087 29.6035 18.8437 29.5947 18.8977C29.5947 19.0502 29.5947 19.2026 29.5947 19.3551C29.6016 19.3878 29.6016 19.4216 29.5947 19.4542C29.5856 19.4741 29.5325 19.4939 29.5204 19.4847C29.4134 19.3966 29.3515 19.2327 29.2989 19.1096C29.2007 18.8397 29.0519 18.5913 28.8605 18.3777C28.6666 18.1356 28.4417 17.9202 28.1916 17.7373C27.9009 17.5576 27.6749 17.3254 27.327 17.2524C27.1689 17.213 26.995 17.255 26.8719 17.3622C26.7261 17.4825 26.4231 17.4848 26.2804 17.3561C26.0195 17.1746 25.8905 17.1777 25.5568 17.2326C25.185 17.3124 24.8354 17.4738 24.5329 17.7053C24.2962 17.8643 24.0273 17.9685 23.7457 18.0102C23.5819 18.0362 23.4181 18.0285 23.2588 18.059C22.8649 18.1347 22.5084 18.1173 22.1666 18.3548C21.864 18.5204 21.7455 18.9278 21.9846 19.1965C22.9378 20.5958 24.1183 21.864 25.1549 23.2038C25.3718 23.4796 25.6135 23.7348 25.8769 23.9662C25.9567 24.0225 26.2776 24.2688 26.2424 24.3962C26.226 24.4473 26.1949 24.4924 26.1529 24.5258C24.6 25.1125 23.2878 25.3662 22.0134 26.0521C21.5701 26.2921 21.8379 26.6496 21.7829 27.0433C21.7829 27.3909 21.7707 27.7401 21.7829 28.0878C21.7829 28.2402 21.7177 28.376 21.7252 28.5254C21.7511 28.6768 21.7511 28.8315 21.7252 28.9828C20.979 31.5473 21.6122 34.7675 21.5311 37.4105C21.5311 37.5798 21.5402 37.5752 21.6282 37.8024C21.7033 38.0012 21.8941 38.2576 21.8251 38.479C21.7977 38.5669 21.7144 38.6887 21.61 38.6898C21.475 38.6898 21.34 38.6898 21.205 38.6898C21.07 38.6898 20.9729 38.7493 20.8455 38.7462C20.3222 38.7356 19.7973 38.7462 19.274 38.7462C19.1849 38.7433 19.0959 38.7567 19.0116 38.7859C18.8909 38.8317 18.5135 38.7381 18.6081 38.548C18.6889 38.4354 18.8145 38.3577 18.9509 38.3361C19.2543 38.2659 19.5577 38.1622 19.8686 38.1012C20.1832 38.037 20.545 38.0051 20.8394 37.8725C21.0192 37.7749 21.0184 37.5937 21.0184 37.4166L21.0275 33.3499ZM21.7374 25.3721C21.7374 25.4239 21.7192 25.4529 21.8087 25.4178C22.8649 24.9931 23.9685 24.6887 24.9925 24.1842C25.0881 24.1385 25.1124 24.0622 25.0593 23.986C24.9364 23.8076 24.8166 23.6261 24.6831 23.4554C23.8119 22.3329 22.8063 21.3205 21.9452 20.1923C21.9043 20.1357 21.851 20.1731 21.839 20.2289C21.7609 21.9495 21.7374 23.652 21.7374 25.3721Z" fill="white"/>
</g>
</svg>
