<svg preserveAspectRatio="none" width="100%" height="100%" overflow="visible" style="display: block;" viewBox="0 0 242.667 504.526" fill="none" xmlns="http://www.w3.org/2000/svg">
<path id="Flattened" fill-rule="evenodd" clip-rule="evenodd" d="M1.23717 36.7258C1.23717 16.4427 17.6799 0 37.963 0H204.684C224.967 0 241.41 16.4427 241.41 36.7258V157.042C242.104 157.042 242.667 157.605 242.667 158.299V216.896C242.667 217.591 242.104 218.153 241.41 218.153V467.8C241.41 488.083 224.967 504.526 204.684 504.526H37.963C17.6799 504.526 1.23717 488.083 1.23717 467.8V217.885C0.552744 217.873 0.0014204 217.315 0.0014204 216.628V181.274C0.0014204 180.587 0.552744 180.029 1.23717 180.017V168.495C0.552087 168.484 0 167.925 0 167.238V131.481C0 130.793 0.552087 130.234 1.23717 130.224V112.738C0.552087 112.728 0 112.169 0 111.481V95.019C0 94.3314 0.552087 93.7727 1.23717 93.7621V36.7258ZM37.963 6.90882C21.4955 6.90882 8.14599 20.2584 8.14599 36.7258V467.8C8.14599 484.267 21.4955 497.617 37.963 497.617H204.684C221.151 497.617 234.501 484.267 234.501 467.8V36.7258C234.501 20.2584 221.151 6.90882 204.684 6.90882H37.963Z" fill="black"/>
</svg>
