<svg preserveAspectRatio="none" width="100%" height="100%" overflow="visible" style="display: block;" viewBox="0 0 32.501 32.501" fill="none" xmlns="http://www.w3.org/2000/svg">
<path id="icon-color" d="M27.8743 0.00431085C28.7419 0.0164751 29.5134 0.00776609 30.1676 0.261472C31.117 0.62968 31.8713 1.38405 32.2395 2.33341C32.4932 2.98762 32.4845 3.75907 32.4967 4.62671C32.5232 6.5219 32.4747 8.66914 30.9212 10.5919C30.2709 11.3966 29.3949 12.0007 28.763 12.4685C28.0643 12.9857 27.5856 13.3854 27.2932 13.8682C26.9442 14.4449 27.0543 15.0301 27.3697 16.3227L29.5019 25.0645C29.7457 26.0636 29.8063 27.0091 29.5507 27.9307C29.2947 28.854 28.759 29.6176 28.055 30.3217C27.6501 30.7266 26.9904 31.2235 26.1279 31.1257C25.2668 31.0279 24.7235 30.3971 24.3994 29.8806L18.7044 20.8067L16.7252 22.3822C15.5141 23.345 15.2532 23.5912 15.1139 23.8878C14.9023 24.3384 14.827 25.0014 14.8518 25.893C14.8639 26.3235 14.8963 26.7622 14.93 27.2195C14.9626 27.6631 14.997 28.1357 15.0032 28.5753C15.0131 29.2959 14.7361 30.1696 14.331 30.8604C13.9549 31.5015 13.1979 32.4327 12.0084 32.4978C11.0425 32.5504 10.4596 31.9437 10.1757 31.5082C9.93606 31.1406 9.74113 30.6136 9.69721 30.5138L7.64317 25.8458C7.51469 25.5538 7.44025 25.3888 7.37787 25.2712C7.32322 25.1683 7.30869 25.1614 7.32416 25.1768C7.33964 25.1923 7.33268 25.1778 7.22976 25.1231C7.11224 25.0608 6.94725 24.9863 6.65522 24.8578L1.98725 22.8038C1.88742 22.7599 1.3604 22.5649 0.992781 22.3253C0.557332 22.0414 -0.0493664 21.4585 0.00319801 20.4926C0.068285 19.3031 0.999497 18.5461 1.64057 18.17C2.33138 17.7649 3.20505 17.4879 3.92572 17.4978C4.36535 17.504 4.83787 17.5384 5.28152 17.571C5.73883 17.6047 6.1775 17.6371 6.60802 17.6492C7.49961 17.674 8.16256 17.5987 8.61322 17.3871C8.90979 17.2478 9.15602 16.9869 10.1188 15.7758L11.6927 13.795L2.62039 8.10164C2.10395 7.77751 1.47308 7.2342 1.37527 6.37313C1.27747 5.51055 1.77444 4.85091 2.1793 4.44604C2.88341 3.74198 3.64701 3.20632 4.57026 2.95027C5.49187 2.69474 6.4374 2.75533 7.43647 2.9991L16.1783 5.13126C17.4709 5.44665 18.0562 5.55684 18.6328 5.20776C19.1156 4.91544 19.5153 4.4367 20.0325 3.73804C20.5003 3.10608 21.1044 2.23007 21.9091 1.57983C23.8319 0.0262578 25.9791 -0.0222423 27.8743 0.00431085ZM27.8401 2.50431C25.9565 2.4779 24.6448 2.58346 23.4798 3.52482C22.9848 3.92498 22.5979 4.47548 22.0426 5.22567C21.5363 5.90963 20.879 6.76993 19.9267 7.34643C18.3123 8.32345 16.6285 7.81572 15.5859 7.56128L6.84402 5.42749C6.10145 5.2463 5.61591 5.25484 5.2392 5.35913C4.90063 5.453 4.54199 5.6587 4.09662 6.07527L14.2057 12.4213C14.5069 12.6104 14.7138 12.9187 14.7737 13.2693C14.8336 13.6198 14.7411 13.9788 14.5198 14.2572L12.0768 17.3318C11.2675 18.3499 10.6279 19.2046 9.67768 19.6511C8.66816 20.1254 7.50361 20.1745 6.53803 20.1475C6.04004 20.1336 5.54222 20.0973 5.0976 20.0645C4.63929 20.0308 4.24344 20.0027 3.89154 19.9978C3.83835 19.9971 3.69837 20.0109 3.49278 20.0727C3.2966 20.1317 3.0896 20.2195 2.90684 20.3266C2.85541 20.3567 2.81038 20.3901 2.7685 20.4194L2.77013 20.421C2.83531 20.4477 2.91557 20.4813 2.99311 20.5154L7.6627 22.5694C8.1376 22.7783 8.68216 22.9997 9.09174 23.4093C9.50132 23.8188 9.72266 24.3634 9.93158 24.8383L11.9856 29.5079L12.08 29.7309C12.1092 29.6891 12.1443 29.6455 12.1744 29.5942C12.2815 29.4114 12.3693 29.2044 12.4283 29.0082C12.4901 28.8026 12.5039 28.6627 12.5032 28.6095C12.4983 28.2576 12.4702 27.8617 12.4365 27.4034C12.4037 26.9588 12.3674 26.461 12.3535 25.963C12.3265 24.9974 12.3756 23.8328 12.8499 22.8233C13.2964 21.8731 14.1511 21.2335 15.1692 20.4242L18.2438 17.9812L18.3512 17.9031C18.6113 17.7381 18.9251 17.6749 19.2317 17.7273C19.5823 17.7872 19.8906 17.9941 20.0797 18.2953L26.4241 28.4027C26.8406 27.9574 27.048 27.6004 27.1419 27.2618C27.2462 26.8851 27.2547 26.3996 27.0735 25.657L24.9397 16.9151C24.6853 15.8725 24.1776 14.1887 25.1546 12.5743C25.7311 11.622 26.5914 10.9647 27.2753 10.4584C28.0255 9.90309 28.576 9.51624 28.9762 9.02124C29.9175 7.85619 30.0231 6.54451 29.9967 4.66089C29.9815 3.57651 29.9589 3.3682 29.9088 3.23836C29.7946 2.94392 29.5571 2.70639 29.2626 2.5922C29.1328 2.54209 28.9245 2.51952 27.8401 2.50431Z" fill="white" fill-opacity="0.5"/>
</svg>
