<svg preserveAspectRatio="none" width="100%" height="100%" overflow="visible" style="display: block;" viewBox="0 0 19.5 21.5" fill="none" xmlns="http://www.w3.org/2000/svg">
<path id="icon-color" d="M18 15.9023C17.9999 15.4129 17.7695 14.9519 17.3779 14.6582C16.5719 14.0537 16.2078 13.2674 16.0371 12.4814C15.8761 11.7402 15.8763 10.9167 15.8428 10.2803C15.6721 7.0399 12.9949 4.5 9.75 4.5C6.50512 4.5 3.82785 7.0399 3.65723 10.2803C3.62373 10.9167 3.62387 11.7402 3.46289 12.4814C3.2922 13.2674 2.9281 14.0537 2.12207 14.6582C1.73051 14.9519 1.5001 15.4129 1.5 15.9023C1.5 16.5173 1.9763 16.9999 2.5498 17H16.9502C17.5237 16.9999 18 16.5173 18 15.9023ZM7.63086 18.5C7.93999 19.3734 8.77067 20 9.75 20C10.7293 20 11.56 19.3734 11.8691 18.5H7.63086ZM10.5 1.875C10.5 1.77175 10.48 1.72084 10.4688 1.69922C10.4581 1.67898 10.4397 1.65531 10.3994 1.62891C10.3014 1.565 10.0948 1.5 9.75 1.5C9.40521 1.5 9.19858 1.565 9.10059 1.62891C9.06026 1.65531 9.0419 1.67898 9.03125 1.69922C9.01996 1.72084 9 1.77175 9 1.875C9 2.10723 9.10258 2.42222 9.29102 2.67578C9.48507 2.93686 9.66309 3 9.75 3C9.83691 3 10.0149 2.93686 10.209 2.67578C10.3974 2.42222 10.5 2.10723 10.5 1.875ZM12 1.875C12 2.33951 11.8571 2.81924 11.627 3.23438C14.7802 4.03593 17.1622 6.81045 17.3408 10.2012C17.3808 10.9607 17.376 11.5786 17.5029 12.1631C17.6202 12.7029 17.8372 13.1271 18.2783 13.458C19.0475 14.035 19.4999 14.9408 19.5 15.9023C19.5 17.2836 18.4129 18.4999 16.9502 18.5H13.4248C13.0773 20.2117 11.5642 21.5 9.75 21.5C7.93579 21.5 6.42266 20.2117 6.0752 18.5H2.5498C1.08709 18.4999 0 17.2836 0 15.9023C0.000100861 14.9408 0.452477 14.035 1.22168 13.458C1.66284 13.1271 1.87982 12.7029 1.99707 12.1631C2.124 11.5786 2.1192 10.9607 2.15918 10.2012C2.3378 6.81078 4.71924 4.03624 7.87207 3.23438C7.64209 2.81933 7.5 2.33935 7.5 1.875C7.5 1.22084 7.78454 0.697278 8.27832 0.374023C8.72343 0.0826419 9.26698 0 9.75 0C10.233 0 10.7766 0.0826419 11.2217 0.374023C11.7155 0.697278 12 1.22084 12 1.875Z" fill="#0284C7"/>
</svg>
