<svg preserveAspectRatio="none" width="100%" height="100%" overflow="visible" style="display: block;" viewBox="0 0 40 40" fill="none" xmlns="http://www.w3.org/2000/svg">
<g id="Paths">
<path id="Vector" d="M0 10C0 4.47715 4.47715 0 10 0H30C35.5229 0 40 4.47715 40 10V30C40 35.5229 35.5229 40 30 40H10C4.47715 40 0 35.5229 0 30V10Z" fill="#004289"/>
<path id="Vector_2" d="M30 0C34.1972 0 37.7895 2.58615 39.2727 6.25156C38.7565 6.04519 37.6164 5.97535 35.0621 6.00742C30.2758 6.0683 20.8259 7.46866 19.1688 7.83398C17.6653 8.15361 13.8597 8.70641 11.6574 9.00273L10.823 9.35586C10.0253 9.47763 9.53444 10.1477 10.0867 11.4262C10.639 12.7046 11.621 12.7653 12.4801 12.4609C13.3397 12.1564 18.9233 11 22.1141 10.5738C25.4276 10.0868 30.398 9.41684 31.4414 9.4168C30.03 9.96476 25.8573 11.3652 23.4027 12.2176C20.7641 13.009 17.2663 14.1048 14.7504 15.0789C11.6208 16.2965 9.41162 17.3315 8.2457 17.6359C7.32527 17.8186 6.58911 18.5494 7.20273 19.5844C7.81627 20.5584 7.93908 21.1063 9.47305 20.802C11.3753 20.4367 18.9229 18.7927 22.298 18.8535C20.9478 19.158 15.9162 20.9236 14.198 21.5324C12.4799 22.1412 9.71864 23.3587 7.87773 23.9676C6.03688 24.4546 5.42296 25.0027 5.72969 26.5246C6.03651 28.0467 6.77303 28.1687 8.85938 28.1078C12.3571 28.0469 16.8368 27.9859 18.6777 27.9859C17.3278 28.5339 13.2165 29.6298 11.1301 30.1777C9.04377 30.7257 4.13472 31.8214 2.53906 32.2477C1.73764 32.4923 1.01341 32.8445 0.545703 33.2656C0.192261 32.2422 0 31.1436 0 30V10C0 4.47715 4.47715 0 10 0H30Z" fill="#FF8C00"/>
<path id="Vector_3" d="M35.0621 6.00744C37.6164 5.97537 38.7565 6.04521 39.2727 6.25158C39.6014 7.06412 39.8266 7.92942 39.9316 8.83166C39.8882 8.95322 39.8222 9.08559 39.7258 9.23439C39.1121 10.0867 38.1301 10.4521 36.6574 11C33.9572 12.035 22.1145 15.2007 20.5188 15.9922C22.9733 15.8704 26.5323 15.2616 30.0914 15.0789C32.4846 15.018 32.7917 15.5053 32.9758 16.6012C33.2212 17.636 33.2823 18.1838 31.6871 18.7926C30.0916 19.4014 28.2506 20.0713 24.5074 21.1672C19.2915 22.6893 16.1617 23.359 12.2957 25.0637C14.4434 25.3072 17.9413 24.9419 20.7641 25.0637C24.9982 25.1855 25.1823 25.6727 25.3664 26.9512C25.4278 28.1687 25.6118 28.5341 23.8324 29.3863C22.0529 30.1169 18.9233 30.9691 17.2051 31.3344C15.4255 31.6997 8.79803 33.1608 7.50938 33.4653C6.34345 33.7697 5.3616 35.0482 3.58203 35.6571C2.94976 35.8727 2.43202 35.9864 1.99805 35.9981C1.38102 35.1762 0.88779 34.2562 0.545703 33.2656C1.01342 32.8445 1.73765 32.4923 2.53906 32.2477C4.13473 31.8215 9.04377 30.7257 11.1301 30.1778C13.2165 29.6298 17.3278 28.5339 18.6777 27.986C16.8368 27.986 12.3571 28.047 8.85938 28.1078C6.77303 28.1687 6.03651 28.0467 5.72969 26.5246C5.42297 25.0027 6.03689 24.4546 7.87773 23.9676C9.71865 23.3588 12.4799 22.1413 14.198 21.5324C15.9162 20.9236 20.9478 19.158 22.298 18.8535C18.9229 18.7927 11.3753 20.4367 9.47305 20.802C7.93907 21.1063 7.81628 20.5584 7.20273 19.5844C6.58911 18.5494 7.32527 17.8186 8.2457 17.636C9.41163 17.3315 11.6208 16.2966 14.7504 15.0789C17.2663 14.1048 20.7641 13.0091 23.4027 12.2176C25.8573 11.3653 30.03 9.96477 31.4414 9.41682C30.398 9.41686 25.4276 10.0868 22.1141 10.5738C18.9233 11 13.3397 12.1565 12.4801 12.461C11.621 12.7654 10.639 12.7046 10.0867 11.4262C9.53444 10.1477 10.0253 9.47765 10.823 9.35588L11.6574 9.00275C13.8597 8.70643 17.6653 8.15363 19.1688 7.834C20.8259 7.46868 30.2758 6.06832 35.0621 6.00744Z" fill="white"/>
</g>
</svg>
