<svg preserveAspectRatio="none" width="100%" height="100%" overflow="visible" style="display: block;" viewBox="0 0 35.0003 35" fill="none" xmlns="http://www.w3.org/2000/svg">
<path id="icon-color" fill-rule="evenodd" clip-rule="evenodd" d="M17.5 2.5C9.21573 2.5 2.5 9.21573 2.5 17.5C2.5 19.2532 2.80077 20.9361 3.35354 22.5H6.875C7.7038 22.5 8.49866 22.1708 9.08471 21.5847C9.67076 20.9987 10 20.2038 10 19.375V15.625C10 14.1332 10.5926 12.7024 11.6475 11.6475C12.7024 10.5927 14.1332 10 15.625 10C16.4538 10 17.2487 9.67078 17.8347 9.08473C18.4208 8.49868 18.75 7.70382 18.75 6.87502V2.55134C18.3378 2.51734 17.9209 2.5 17.5 2.5ZM17.5 32.5C11.9479 32.5 7.10032 29.4835 4.50674 25H6.875C8.36684 25 9.79758 24.4074 10.8525 23.3525C11.9074 22.2976 12.5 20.8669 12.5 19.375V15.625C12.5 14.7962 12.8292 14.0014 13.4153 13.4153C14.0013 12.8293 14.7962 12.5 15.625 12.5C17.1168 12.5 18.5476 11.9074 19.6025 10.8525C20.6574 9.7976 21.25 8.36686 21.25 6.87502V2.97257C27.0487 4.46505 31.4904 9.33783 32.3492 15.3651C31.4913 15.1285 30.603 15.005 29.7069 15V15H29.7H24.375C22.8832 15 21.4524 15.5926 20.3975 16.6475C19.3426 17.7024 18.75 19.1332 18.75 20.625C18.75 22.1168 19.3426 23.5476 20.3975 24.6025C21.4524 25.6574 22.8832 26.25 24.375 26.25C24.8723 26.25 25.3492 26.4475 25.7008 26.7992C26.0525 27.1508 26.25 27.6277 26.25 28.125V29.6849C23.7872 31.4565 20.7655 32.5 17.5 32.5ZM28.7017 27.4763C30.9515 24.952 32.3608 21.6622 32.4902 18.0463C31.6034 17.6918 30.6559 17.5057 29.6964 17.5H24.375C23.5462 17.5 22.7513 17.8292 22.1653 18.4153C21.5792 19.0013 21.25 19.7962 21.25 20.625C21.25 21.4538 21.5792 22.2487 22.1653 22.8347C22.7513 23.4208 23.5462 23.75 24.375 23.75C25.5353 23.75 26.6481 24.2109 27.4686 25.0314C28.1346 25.6974 28.5637 26.556 28.7017 27.4763ZM34.999 17.3078C34.9997 17.3718 35 17.4358 35 17.5C35 27.165 27.165 35 17.5 35C7.83502 35 0 27.165 0 17.5C0 7.83502 7.83502 0 17.5 0C18.3437 0 19.1734 0.0596996 19.9852 0.175105L20 0.175018C20.1372 0.175018 20.2692 0.197124 20.3928 0.237968C28.5717 1.59846 34.8328 8.63117 34.9967 17.1569C35.0005 17.2069 35.0013 17.2573 34.999 17.3078Z" fill="var(--fill-0, white)" fill-opacity="0.5"/>
</svg>
