<svg preserveAspectRatio="none" width="100%" height="100%" overflow="visible" style="display: block;" viewBox="0 0 16.1445 19.1667" fill="none" xmlns="http://www.w3.org/2000/svg">
<path id="icon-color" d="M15.8061 14.9366C15.5162 15.6063 15.1732 16.2227 14.7756 16.7894C14.2338 17.5619 13.7901 18.0967 13.4482 18.3936C12.9182 18.8811 12.3503 19.1307 11.7422 19.1449C11.3056 19.1449 10.7791 19.0207 10.1663 18.7687C9.55145 18.5179 8.98641 18.3936 8.46975 18.3936C7.9279 18.3936 7.34676 18.5179 6.72517 18.7687C6.10262 19.0207 5.60111 19.152 5.21767 19.165C4.63452 19.1899 4.05327 18.9331 3.47308 18.3936C3.10278 18.0706 2.6396 17.517 2.08473 16.7326C1.48939 15.8949 0.999949 14.9236 0.616509 13.8163C0.205858 12.6201 0 11.4619 0 10.3406C0 9.05609 0.277553 7.94824 0.833488 7.01987C1.2704 6.27417 1.85166 5.68594 2.57914 5.25411C3.30662 4.82228 4.09267 4.60223 4.93917 4.58815C5.40235 4.58815 6.00975 4.73142 6.76456 5.01299C7.51725 5.29552 8.00054 5.43879 8.21243 5.43879C8.37085 5.43879 8.90773 5.27126 9.81789 4.93728C10.6786 4.62754 11.405 4.4993 12.0001 4.54981C13.6127 4.67995 14.8241 5.31563 15.6298 6.46086C14.1876 7.33469 13.4742 8.5586 13.4884 10.1287C13.5014 11.3516 13.9451 12.3693 14.817 13.1774C15.2122 13.5524 15.6535 13.8423 16.1445 14.0481C16.038 14.3569 15.9256 14.6527 15.8061 14.9366V14.9366ZM12.1078 0.383442C12.1078 1.34199 11.7576 2.23699 11.0595 3.06539C10.2172 4.0502 9.1983 4.61926 8.09341 4.52947C8.07933 4.41447 8.07117 4.29344 8.07117 4.16626C8.07117 3.24605 8.47176 2.26124 9.18316 1.45603C9.53832 1.04834 9.99003 0.709348 10.5378 0.438929C11.0844 0.172544 11.6014 0.0252273 12.0876 0C12.1018 0.128143 12.1078 0.256295 12.1078 0.38343V0.383442Z" fill="white"/>
</svg>
