<svg preserveAspectRatio="none" width="100%" height="100%" overflow="visible" style="display: block;" viewBox="0 0 40 40" fill="none" xmlns="http://www.w3.org/2000/svg">
<g id="Paths">
<circle id="Ellipse" cx="20" cy="20" r="20" fill="url(#paint0_linear_0_243)"/>
<path id="Union" d="M21.1453 13.8926H30.7137L29.8055 15.0547H36.7996L30.4676 23.2197H34.9939L34.6248 25.5195H25.5965H25.5955H19.532C19.5515 25.6191 19.5623 25.7219 19.5623 25.8271C19.5623 26.7079 18.8485 27.4219 17.9764 27.4219C17.0957 27.4216 16.3826 26.7078 16.3826 25.8271C16.3827 24.9464 17.0958 24.2336 17.9764 24.2334C18.3505 24.2334 18.6957 24.3645 18.9676 24.584L25.0848 16.4199L20.7332 16.4121L19.6238 23.2109H17.158L18.1619 16.9941L13.9344 25.5195H11.8728L11.406 19.2568L8.26151 25.5195H6.16483L4.7996 14.4736H7.60136L8.05936 20.4189L10.8601 14.4736H13.2732L13.6961 20.4189L16.3387 14.4736H18.5701L18.8406 12.7998H21.324L21.1453 13.8926ZM23.6053 22.9912H27.5057L31.7615 17.3535H28.0096L23.6053 22.9912Z" fill="var(--fill-0, white)"/>
</g>
<defs>
<linearGradient id="paint0_linear_0_243" x1="20" y1="0" x2="20" y2="40" gradientUnits="userSpaceOnUse">
<stop stop-color="#C7007F"/>
<stop offset="1" stop-color="#430388"/>
</linearGradient>
</defs>
</svg>
