<svg preserveAspectRatio="none" width="100%" height="100%" overflow="visible" style="display: block;" viewBox="0 0 38.7587 26.9937" fill="none" xmlns="http://www.w3.org/2000/svg">
<g id="Paths">
<path id="Vector" d="M22.9492 1.05747C21.9692 0.226524 21.1872 0 19.8837 0H0L13.0274 25.5962C13.5288 26.5809 14.1851 26.9937 15.1139 26.9937H32.0885C32.8769 26.9937 33.347 26.5846 33.6665 25.8688L35.9933 20.6553L38.7587 14.4594L22.9492 1.05747Z" fill="#DF173B"/>
<path id="Vector_2" d="M17.2537 7.89239C17.2537 7.89239 17.9074 6.45477 18.469 5.95942C18.6439 5.83222 18.7878 5.66709 18.8898 5.47639C18.9919 5.2857 19.0495 5.07439 19.0583 4.85829C19.0593 4.72503 19.0282 4.59348 18.9675 4.47483C18.9069 4.35618 18.8184 4.25394 18.7098 4.17678C18.7098 4.17678 17.7437 3.50025 17.0923 4.82118C17.0923 4.82118 14.0482 11.6862 13.3271 18.4464C13.3271 18.4464 13.251 18.6672 13.1835 18.0647C13.1835 18.0647 12.2733 12.5006 12.2378 12.2984C12.2023 12.0961 12.1879 11.5957 11.7106 11.5872C11.7106 11.5872 11.1553 11.5242 10.8876 12.38L9.60585 16.3128C9.60585 16.3128 9.38327 16.8088 9.81056 16.9586C9.81056 16.9586 10.2895 17.1894 10.5458 16.5215L11.1396 14.9363C11.2577 14.6101 11.3663 14.6483 11.3663 14.6483C11.4519 14.6599 11.5107 14.9912 11.5107 14.9912C11.5107 14.9912 12.6968 22.453 12.7088 22.5228C12.7208 22.5926 12.8191 23.1824 13.3251 23.1465C13.6764 23.1216 13.777 22.6977 13.8269 22.3552C13.8767 22.0127 14.3041 18.3807 15.1688 14.4422C15.734 11.8562 16.514 9.26196 17.2537 7.89239ZM16.6858 14.5217C16.4739 14.6034 16.2905 14.7451 16.1581 14.9295C16.0256 15.1139 15.9499 15.3329 15.9402 15.5598L15.73 18.8692C15.7059 19.5242 16.5157 18.9936 16.5157 18.9936C16.6186 18.9156 16.7047 18.8178 16.769 18.7058C16.8332 18.5939 16.8743 18.4702 16.8897 18.342L16.9649 17.5104L17.2152 15.2645C17.2824 14.3205 16.6963 14.521 16.6963 14.521L16.6858 14.5217ZM18.1467 14.7076C18.1467 14.7076 18.0325 16.4319 18.0205 16.8105C18.0205 16.8105 17.8064 18.2735 18.561 17.9586C18.7667 17.8601 18.9381 17.7021 19.0532 17.5051C19.1683 17.3081 19.2216 17.0812 19.2064 16.8535L19.2459 15.6184C19.2427 15.3513 19.3029 15.0873 19.4216 14.8481C19.5403 14.6089 19.7141 14.4012 19.9287 14.2422C19.9287 14.2422 20.6767 13.8361 20.411 13.3747C20.411 13.3747 20.2362 13.0022 19.7907 13.2421C19.6249 13.337 19.4471 13.4091 19.2621 13.4562L18.7328 13.5608C18.7328 13.5608 18.1628 13.6401 18.1583 14.7209L18.1467 14.7076ZM17.4109 12.7965C17.8583 12.3834 17.6948 12.0702 17.6948 12.0702C17.483 11.5732 16.8749 12.1601 16.8749 12.1601C16.3577 12.5852 16.5782 12.9545 16.5782 12.9545C16.8537 13.3551 17.4214 12.7958 17.4214 12.7958L17.4109 12.7965ZM25.4991 14.6169C25.6848 14.5516 25.847 14.4329 25.9653 14.2755C26.0836 14.1182 26.1527 13.9294 26.1638 13.7329C26.1638 13.7329 26.3476 11.0962 26.3554 11.0074C26.3632 10.9186 26.476 10.2185 25.9986 10.3583C25.8283 10.4065 25.6758 10.5034 25.5599 10.6371C25.4439 10.7708 25.3695 10.9354 25.3458 11.1108L25.082 13.7143L25.02 14.2342C25.02 14.2342 24.9404 14.8048 25.4991 14.6169ZM26.587 9.04533C26.587 9.04533 27.073 8.58006 26.8155 8.28406C26.8155 8.28406 26.5709 7.97302 25.9905 8.45204C25.9905 8.45204 25.4743 8.94064 25.8338 9.22941C25.8235 9.23367 26.1712 9.50562 26.5835 9.04558L26.587 9.04533ZM33.2709 11.7775C33.1363 11.5716 32.8104 11.457 32.2684 11.732C31.7265 12.0071 31.4554 12.1675 31.4345 12.1726C31.4137 12.1776 30.7339 12.6001 30.7394 11.6322L30.803 9.34303C30.803 9.34303 30.8323 8.51114 30.1858 8.557C30.1858 8.557 29.832 8.54679 29.3216 9.06676C29.1921 9.20834 29.0376 9.32467 28.8657 9.40983C28.7171 9.45863 28.5573 9.46135 28.4072 9.41764C28.2321 9.37297 28.0472 9.38608 27.8802 9.45502C27.6825 9.54571 27.5187 9.69672 27.4122 9.88636C27.3057 10.076 27.2621 10.2945 27.2877 10.5105L27.1848 12.5446C27.1437 12.8564 27.1435 13.1722 27.1843 13.4839C27.1843 13.4839 27.2735 13.7954 27.8292 13.5653C27.8292 13.5653 28.3036 13.3834 28.3012 12.5537C28.3012 12.5537 28.3239 10.9313 28.516 10.6034C28.6547 10.2968 28.866 10.0285 29.1315 9.82177C29.1315 9.82177 29.6677 9.51538 29.6928 9.96911L29.6238 11.8349C29.6238 11.8349 29.4914 12.7553 29.9129 12.8737C29.9129 12.8737 29.9586 12.8705 29.8584 12.9517C29.8584 12.9517 27.279 14.2717 23.9855 16.4263C24.0831 14.4666 24.2917 11.7329 24.2917 11.7329C24.3203 11.2895 23.7827 11.3276 23.7827 11.3276C23.2557 11.365 23.2243 11.9675 23.1981 12.2448C23.1718 12.5221 22.9333 14.7353 22.9333 14.7353C22.8247 15.7423 22.2274 15.7353 22.2274 15.7353C21.6489 15.8434 21.8886 14.2445 21.8886 14.2445C22.0031 13.6678 22.0212 13.1757 22.4412 12.7752C22.8612 12.3746 22.859 11.8945 22.5277 11.9039C21.9776 11.9147 21.4608 12.5446 21.4608 12.5446C20.5557 13.5728 20.7241 15.8984 20.7241 15.8984C20.7141 16.0892 20.7606 16.2787 20.8577 16.4433C20.9548 16.6079 21.0982 16.7402 21.27 16.8237C21.9083 17.0609 22.7234 16.5052 22.7234 16.5052C22.914 16.354 22.8996 16.5492 22.8996 16.5492L22.8993 17.1424C20.283 18.8778 17.8227 20.8375 15.5463 22.9995C15.5463 22.9995 14.4972 23.8896 14.9396 24.402C15.382 24.9144 15.9971 24.3764 16.2231 24.1274C16.2231 24.1274 18.5028 21.4197 22.8691 18.2604L22.8601 20.1749C22.858 21.0402 22.758 23.7132 22.758 23.7132C22.7063 24.7762 22.8889 24.961 22.9504 25.0308C23.0716 25.164 23.2376 25.2479 23.4167 25.2665C23.5958 25.285 23.7755 25.237 23.9215 25.1314C24.4622 24.74 24.1188 23.8816 23.9983 23.477C23.9112 23.1229 23.8584 22.7612 23.8405 22.397C23.8403 21.8462 23.8906 18.1244 23.8906 18.1244C23.8803 17.9803 23.8902 17.7713 23.8974 17.5236C25.7471 16.2447 27.6801 15.0908 29.6835 14.0694C29.6835 14.0694 30.626 13.6176 31.4332 13.2991C31.4332 13.2991 31.6996 13.1707 32.0399 13.0406C32.4977 12.874 33.069 12.6145 33.2446 12.3514C33.3041 12.2685 33.338 12.1699 33.3421 12.068C33.3461 11.966 33.3202 11.8651 33.2674 11.7777L33.2709 11.7775Z" fill="white"/>
</g>
</svg>
