<svg preserveAspectRatio="none" width="100%" height="100%" overflow="visible" style="display: block;" viewBox="0 0 40 28.4749" fill="none" xmlns="http://www.w3.org/2000/svg">
<g id="Paths">
<path id="Vector" d="M16.7511 18.3806C17.1883 18.3408 17.5062 18.4203 18.0427 18.4799L24.7392 11.8629C23.6662 10.9687 22.2752 10.4322 20.7849 10.4322C17.3075 10.4322 14.5057 13.2539 14.5057 16.6915C14.5057 17.6453 14.7044 18.5395 15.082 19.3542C15.539 18.8773 16.2543 18.4203 16.7511 18.3806Z" fill="#002D62"/>
<path id="Vector_2" d="M23.5668 22.2355L18.162 19.5926C17.6652 19.4535 17.1883 19.4138 16.7313 19.4138C16.1948 19.3939 15.7179 19.4734 15.1813 19.5728C16.2345 21.5996 18.3408 22.9906 20.8048 22.9906C22.9508 22.9906 24.8783 21.8778 25.9911 20.1888L20.6458 19.8907L23.5668 22.2355Z" fill="#002D62"/>
<path id="Vector_3" d="M26.3885 28.455H28.0179L40 0H38.311L26.3885 28.455Z" fill="#002D62"/>
<path id="Vector_4" d="M20.8048 23.4873C17.0691 23.4873 14.0089 20.4471 14.0089 16.6915C14.0089 12.9757 17.0691 9.91555 20.8048 9.91555C24.5405 9.91555 27.5609 12.9558 27.5609 16.6915C27.5609 20.4272 24.5405 23.4873 20.8048 23.4873ZM36.2047 0.437158L36.1649 0.278192L36.0656 0.158967L35.9265 0.0794834L35.7675 0.0198708L35.5688 0H26.5673L26.3885 0.0397417L26.2096 0.0993542L26.0109 0.198708L25.8321 0.337804L25.4943 0.635867L25.1764 0.973671L0.158967 27.4814L0.0596125 27.6602L0 27.8192L0.0198708 27.9781L0.0794834 28.1371L0.198708 28.2762L0.357675 28.3954L0.536513 28.455L0.735221 28.4749H23.6662L23.8847 28.455L24.0835 28.3954L24.2822 28.2961L24.4809 28.1769L24.6597 28.0378L24.8187 27.8589L24.9578 27.6801L25.0373 27.4814L36.1451 0.973671L36.2047 0.774963L36.2245 0.596125L36.2047 0.437158Z" fill="#002D62"/>
<path id="Vector_5" d="M24.9777 12.0417L20.3676 18.8773L26.15 19.9304C26.7263 18.9568 27.0442 17.8837 27.0442 16.6716C27.0442 14.8634 26.2295 13.1942 24.9777 12.0417Z" fill="#002D62"/>
</g>
</svg>
