<svg preserveAspectRatio="none" width="100%" height="100%" overflow="visible" style="display: block;" viewBox="0 0 40 34.5833" fill="none" xmlns="http://www.w3.org/2000/svg">
<g id="Paths">
<path id="Vector" d="M30.7962 16.9312C30.7962 17.1067 28.3297 17.2712 24.8087 17.4094C24.1868 17.0567 23.715 16.7021 23.3695 16.3967C27.6397 16.5476 30.7962 16.734 30.7962 16.9312Z" fill="#747F8A"/>
<path id="Vector_2" d="M28.2668 10.9867C28.2668 11.1331 26.1995 11.2704 23.2439 11.3885C23.6676 11.1413 24.1039 10.8922 24.5621 10.6421C26.7949 10.7449 28.2668 10.864 28.2668 10.9867Z" fill="#747F8A"/>
<path id="Vector_3" d="M6.24467 23.7754C4.87644 23.7917 3.6764 23.7981 2.7391 23.7981C1.38996 23.7981 0.297192 23.3826 0.297192 22.8672C0.297192 22.3544 1.38996 21.939 2.7391 21.939C3.93368 21.939 5.55192 21.9517 7.40835 21.9753C6.69014 23.0117 6.34922 23.6345 6.3174 23.6736C6.29649 23.7036 6.27013 23.739 6.24467 23.7754Z" fill="#747F8A"/>
<path id="Vector_4" d="M6.98167 25.0204C7.43259 25.565 7.86533 26.0231 8.44444 26.5241C8.44444 26.5241 8.66263 26.8359 9.32538 26.5686C9.99995 26.2941 10.5718 25.9204 11.2164 25.0558C13.0982 25.0877 15.0938 25.1295 17.0584 25.174C17.2202 25.4095 17.5484 25.8968 17.953 26.4977C12.4764 26.6395 6.53256 26.7241 3.48791 26.7241C2.21968 26.7241 1.19055 26.3304 1.19055 25.8486C1.19055 25.364 2.21968 24.9731 3.48791 24.9731C4.41521 24.9731 5.6098 24.9795 6.97712 24.9949C6.97621 25.0077 6.98167 25.0204 6.98167 25.0204Z" fill="#747F8A"/>
<path id="Vector_5" d="M4.86315 29.5876C3.73766 29.5876 2.82581 29.2412 2.82581 28.8139C2.82581 28.3857 3.73766 28.0384 4.86315 28.0384C7.84053 28.0384 13.9444 28.1293 19.1718 28.2775C19.4237 28.6384 19.6755 28.9975 19.9146 29.3276C14.5326 29.4857 7.98144 29.5876 4.86315 29.5876Z" fill="#747F8A"/>
<path id="Vector_6" d="M22.2249 32.0712C17.8347 32.2639 10.2863 32.393 7.14979 32.393C6.26703 32.393 5.54973 32.1176 5.54973 31.7839C5.54973 31.4475 6.26703 31.1739 7.14979 31.1739C10.1499 31.1739 17.1956 31.2921 21.6421 31.4694C21.843 31.6848 22.0394 31.8876 22.2249 32.0712Z" fill="#747F8A"/>
<path id="Vector_7" d="M10.7715 33.7178C13.3616 33.7178 21.2464 33.9132 21.2464 34.1496C21.2464 34.3896 13.3607 34.5833 10.7715 34.5833C10.2669 34.5833 9.85871 34.3896 9.85871 34.1496C9.85871 33.9132 10.2669 33.7178 10.7715 33.7178Z" fill="#747F8A"/>
<path id="Vector_8" d="M10.8001 17.7748C7.54 17.8303 4.61899 17.8612 2.73893 17.8612C1.3907 17.8612 0.297021 17.4457 0.297021 16.9312C0.297021 16.4175 1.3907 16.0002 2.73893 16.0002C4.92264 16.0002 8.51095 16.042 12.4011 16.1157C11.8229 16.6875 11.2883 17.2439 10.8001 17.7748Z" fill="#747F8A"/>
<path id="Vector_9" d="M26.7906 13.6167C28.7006 13.7203 29.9025 13.834 29.9025 13.9522C29.9025 14.0822 28.4479 14.2067 26.1969 14.3176C26.6778 13.9558 26.7833 13.6403 26.7906 13.6167Z" fill="#747F8A"/>
<path id="Vector_10" d="M3.48839 14.8262C2.21925 14.8262 1.19012 14.4353 1.19012 13.9517C1.19012 13.4689 2.21925 13.0762 3.48839 13.0762C6.09121 13.0762 10.8123 13.1398 15.5479 13.2444C14.967 13.7344 14.416 14.2189 13.896 14.6944C9.73952 14.778 5.78847 14.8262 3.48839 14.8262Z" fill="#747F8A"/>
<path id="Vector_11" d="M17.6415 11.5636C12.7995 11.6863 7.55389 11.7618 4.86289 11.7618C3.73739 11.7618 2.82645 11.4154 2.82645 10.9872C2.82645 10.559 3.73739 10.2108 4.86289 10.2108C7.83299 10.2108 13.9223 10.3035 19.1425 10.4508C18.8825 10.6399 18.6206 10.829 18.3552 11.0272C18.1134 11.2072 17.8752 11.3845 17.6415 11.5636Z" fill="#747F8A"/>
<path id="Vector_12" d="M7.1494 8.62526C6.26664 8.62526 5.54934 8.35343 5.54934 8.01614C5.54934 7.67977 6.26664 7.40612 7.1494 7.40612C10.4795 7.40612 18.7853 7.5534 23.0036 7.76341C22.7345 7.93978 22.4654 8.12251 22.1936 8.30615C17.797 8.49616 10.2795 8.62526 7.1494 8.62526Z" fill="#747F8A"/>
<path id="Vector_13" d="M2.48736 20.8462C1.11458 20.8462 0 20.4234 0 19.8988C0 19.3779 1.11458 18.9534 2.48736 18.9534C4.20833 18.9534 6.78388 18.9788 9.69671 19.0234C9.14941 19.667 8.67394 20.2634 8.26666 20.798C5.94748 20.8289 3.92014 20.8462 2.48736 20.8462Z" fill="#747F8A"/>
<path id="Vector_14" d="M9.85909 5.64967C9.85909 5.41057 10.2673 5.21693 10.7719 5.21693C13.361 5.21693 21.2468 5.41057 21.2468 5.64967C21.2468 5.88695 13.3619 6.08151 10.7719 6.08151C10.2673 6.08151 9.85909 5.88695 9.85909 5.64967Z" fill="#747F8A"/>
<path id="Vector_15" d="M31.0546 19.199C31.0727 19.6708 31.07 20.139 31.0464 20.5981C26.4589 20.7799 22.1088 21.0563 22.1088 21.3672C22.1088 21.6727 26.3617 21.9463 30.8964 22.1272C30.8164 22.6509 30.7136 23.1646 30.5882 23.6682C26.118 23.8509 21.9697 24.12 21.9697 24.4228C21.9697 24.7146 25.8426 24.9773 30.1309 25.1601C29.9345 25.7074 29.7118 26.2392 29.4618 26.7483C25.7789 26.9256 22.7352 27.162 22.7352 27.4202C22.7352 27.6611 25.3944 27.8838 28.7463 28.0556C28.5581 28.362 28.3617 28.662 28.1563 28.9457C27.9381 29.2548 27.7008 29.5611 27.4499 29.8621C25.3544 30.0212 23.9161 30.2021 23.9161 30.3957C23.9161 30.5621 24.9462 30.7175 26.5335 30.8566C25.6671 31.7139 24.6434 32.5149 23.437 33.214C23.437 33.214 22.0161 31.9903 20.8433 30.5612C19.7978 29.2866 17.5795 25.9265 17.0577 25.1746C16.535 24.4228 16.1913 24.2028 15.5804 24.421C14.7613 24.711 13.8094 24.8564 13.5167 24.8564C13.2239 24.8564 13.063 24.7428 13.5539 24.5482C14.043 24.351 15.9767 23.4382 16.9286 21.5518C17.9977 19.4271 17.0577 16.4934 17.0577 16.4934C16.6986 18.0616 15.8822 18.6471 15.8822 18.6471C16.1458 17.1907 15.8586 15.8707 15.1394 14.9443L14.7385 16.788C14.7385 16.788 14.4876 16.7752 13.8667 17.2971C13.2467 17.8198 13.0757 18.5817 13.0757 18.5817C13.5639 18.778 14.1512 18.288 14.1512 18.288C13.4012 21.0945 12.3257 23.3791 11.5411 24.5873C10.7575 25.7956 10.1111 26.251 9.32561 26.5701C8.66286 26.8356 8.44466 26.5238 8.44466 26.5238C7.86555 26.0237 7.43281 25.5655 6.98189 25.021C6.98189 25.021 6.94552 24.9573 7.06734 24.9592C7.39008 24.9637 7.96465 24.4119 8.09011 24.1828C8.23375 23.92 8.21829 23.7191 8.14647 23.7055C8.07556 23.6937 7.95283 23.9019 7.33008 24.2946C6.71097 24.6864 6.42641 24.4146 6.22004 24.1964C6.06004 24.0228 6.21732 23.8082 6.31732 23.6737C6.41187 23.5537 9.68744 17.4453 18.355 11.0278C29.7136 2.61746 36.9675 0.34647 37.383 0.182828C37.6575 0.0746423 38.1057 -0.0680894 38.2075 0.0364598C38.3203 0.154646 38.3757 0.249193 38.3603 0.386471C38.3457 0.522839 38.273 0.592844 37.7475 0.82467C33.3874 2.74565 28.2972 5.94758 25.4053 7.81128C21.8488 9.54407 18.4532 12.0187 18.3296 12.0778C18.0559 12.2478 18.2577 12.4951 18.4232 12.3914C24.4289 8.39676 31.47 5.67575 39.2512 3.44658C39.623 3.34112 39.8267 3.34112 39.8885 3.42294C39.9585 3.51385 39.9885 3.61749 39.9994 3.73204C40.0094 3.87478 39.8912 3.95023 39.5721 4.07478C31.2127 7.18035 25.0516 10.065 21.0887 12.7315C21.0887 12.7315 20.6787 12.9787 20.6733 13.2651C20.6715 13.3742 20.8933 13.3869 20.8933 13.3869C22.877 13.4224 25.5289 13.5388 26.7908 13.6124C26.7908 13.6124 26.6108 14.2515 25.4025 14.7661C24.4698 15.1643 23.6061 15.1006 22.7515 15.1079C22.5615 15.1043 22.4006 15.2961 22.5524 15.5006C22.6288 15.6025 24.447 18.5298 31.0546 19.199Z" fill="#5C0632"/>
</g>
</svg>
