<svg preserveAspectRatio="none" width="100%" height="100%" overflow="visible" style="display: block;" viewBox="0 0 40 40" fill="none" xmlns="http://www.w3.org/2000/svg">
<g id="Paths">
<path id="Vector" d="M0 9.6C0 4.29807 4.29807 0 9.6 0H30.4C35.7019 0 40 4.29807 40 9.6V30.4C40 35.7019 35.7019 40 30.4 40H9.6C4.29807 40 0 35.7019 0 30.4V9.6Z" fill="#00205B"/>
<path id="Vector_2" d="M11.8839 16.8003H15.0678V33.861C15.0678 36.5138 13.1315 38.2941 10.4466 38.2941H9.2V35.2972H10.1037C11.1965 35.2972 11.8839 34.7963 11.8839 33.6107V16.8003ZM11.8839 10.4H15.0678V13.5845H11.8839V10.4Z" fill="white"/>
<path id="Vector_3" d="M20.307 23.2934C20.3689 20.89 21.7741 19.6104 23.648 19.6104C25.5218 19.6104 26.8949 20.89 26.9873 23.2934H20.307ZM30.1716 25.9145V23.2934C30.1716 19.2042 27.1423 16.6131 23.6483 16.6131C20.587 16.6131 17.1231 18.61 17.1231 24.761C17.1231 31.2538 20.8997 32.8152 24.1473 32.8152C26.2686 32.8152 28.2985 32.0645 29.8583 30.2545L27.5503 28.2889C26.6123 29.2557 25.302 29.818 24.0845 29.818C21.8989 29.818 20.3072 28.5061 20.3072 25.9145H30.1716Z" fill="white"/>
<path id="Vector_4" d="M32.6959 11.9923H35.8799V16.8004H38.1883V19.2354H35.8799V28.4437C35.8799 29.3187 36.2226 29.6305 37.0009 29.6305H38.1883V32.6274H36.5345C34.3172 32.6274 32.6959 31.2201 32.6959 28.7249V19.2354H31.1012V16.8004H32.6959V11.9923Z" fill="white"/>
</g>
</svg>
