<svg preserveAspectRatio="none" width="100%" height="100%" overflow="visible" style="display: block;" viewBox="0 0 40 40" fill="none" xmlns="http://www.w3.org/2000/svg">
<g id="Paths">
<path id="Vector" d="M40 20C40 31.0457 31.0457 40 20 40C8.95431 40 0 31.0457 0 20C0 8.95431 8.95431 0 20 0C31.0457 0 40 8.95431 40 20Z" fill="var(--fill-0, white)"/>
<path id="Vector_2" d="M1.37622 23.2324C1.80607 25.7985 2.7369 28.1577 4.04756 30.225C8.94392 28.8619 13.249 26.2809 14.7802 20.5288C16.4641 14.1976 14.5421 7.56327 9.94379 4.04752C3.68286 8.01184 0.0720063 15.4668 1.37622 23.2324ZM38.7988 16.9453C40.5354 27.2781 33.5666 37.0636 23.2311 38.7989C21.5358 39.086 19.8093 39.1408 18.0992 38.9618C12.7077 38.3979 7.84878 35.5325 4.72288 31.2249L35.4448 22.4168C35.8857 22.289 35.7717 21.8656 35.4072 21.8906L22.5271 22.7902C24.3413 21.0386 25.722 18.8898 25.5555 15.9191C25.2158 11.1066 20.3181 6.41062 11.2092 3.32082C13.0033 2.36831 14.9393 1.7117 16.9427 1.37633C18.6818 1.08562 20.4058 1.03799 22.0747 1.21338C30.3428 2.07906 37.3542 8.34643 38.7988 16.9453" fill="var(--fill-0, #C70A0C)"/>
</g>
</svg>
