<svg preserveAspectRatio="none" width="100%" height="100%" overflow="visible" style="display: block;" viewBox="0 0 39.9994 29.9993" fill="none" xmlns="http://www.w3.org/2000/svg">
<g id="Paths">
<path id="Union" d="M22.5964 16.8741L24.8835 17.8068L25.818 18.1671L30.5964 20.1359C31.4439 20.9093 32.1028 21.866 32.5221 22.9327C32.5276 22.9718 32.5459 23.0084 32.5739 23.0363C32.5739 23.0879 32.5739 23.0881 32.6257 23.1398C32.6773 23.2429 32.6776 23.3472 32.7292 23.4503C32.782 23.583 32.8168 23.7225 32.8327 23.8644C32.9536 24.4264 32.9711 25.0061 32.8844 25.5743C32.8334 26.1029 32.6749 26.6157 32.4186 27.0812C31.8798 28.2151 30.9412 29.1115 29.7819 29.5988C28.6225 30.086 27.3234 30.1303 26.1335 29.7228H26.0817C26.043 29.7227 26.0042 29.6934 25.9655 29.6788L25.9069 29.6671C25.9006 29.6646 25.8942 29.6612 25.8893 29.6564C25.8845 29.6515 25.8811 29.6451 25.8786 29.6388C25.8761 29.6325 25.8745 29.626 25.8747 29.6193C25.6148 29.516 25.3552 29.411 25.153 29.3077C23.296 28.3286 21.8835 26.6792 21.2048 24.6964L22.7106 24.9562L23.2819 25.0597V24.2823L22.7009 23.92L20.6755 22.5734L20.6237 22.5216L20.6755 22.1075L20.987 19.7755L21.0387 19.5675L21.5055 16.4083L22.5964 16.8741ZM18.9098 19.5675L18.9616 19.7755L19.2731 22.1075L19.3249 22.5216L19.2731 22.5734L17.2477 23.92L16.7839 24.2823V25.0597L17.3561 24.9562L18.8444 24.6915C18.1657 26.6743 16.7541 28.3247 14.8971 29.3038C14.6949 29.4071 14.4345 29.5111 14.1745 29.6144C14.1746 29.6211 14.1731 29.6276 14.1706 29.6339C14.168 29.6402 14.1647 29.6467 14.1598 29.6515C14.1551 29.6562 14.1494 29.6597 14.1432 29.6622C14.1369 29.6648 14.1296 29.6663 14.1227 29.6661C14.071 29.6662 14.0192 29.7179 13.9675 29.7179H13.9157C12.7258 30.1254 11.4266 30.0811 10.2673 29.5939C9.10799 29.1066 8.1693 28.2102 7.63054 27.0763C7.37448 26.6124 7.21577 26.1013 7.16374 25.5743C7.07709 25.0061 7.09462 24.4264 7.2155 23.8644C7.23134 23.7225 7.26619 23.583 7.31902 23.4503C7.37063 23.3472 7.37084 23.2429 7.42253 23.1398C7.47428 23.0882 7.47429 23.0879 7.47429 23.0363C7.50228 23.0084 7.52054 22.9718 7.52605 22.9327C7.94541 21.866 8.60429 20.9093 9.45183 20.1359L14.1266 18.1671L15.0612 17.8068L17.3483 16.8741L18.4391 16.4083L18.9098 19.5675ZM3.37663 0.000122407C4.70301 0.0544365 6.01534 0.296383 7.27312 0.719849C7.32487 0.719855 7.37664 0.771607 7.42839 0.771607C7.52949 0.823232 7.68621 0.875255 7.78972 0.92688C11.5978 2.32301 15.1846 4.2592 18.4382 6.67688C18.623 6.77919 18.797 6.90016 18.9577 7.03723C18.906 7.19195 18.9058 7.34804 18.8542 7.45129C18.8542 7.55207 18.8025 7.70839 18.8024 7.81165C18.5513 9.07383 18.43 10.3589 18.4411 11.6456V12.5734L15.9489 14.2833L15.1178 14.9044L9.03386 19.2189C7.35211 19.0686 5.73965 18.4785 4.35905 17.5089C2.54576 16.2455 1.25397 14.3685 0.723312 12.2267V12.1232C0.243841 10.1031 0.00099899 8.03409 0.000655795 5.95813C-0.0076343 4.86648 0.0627098 3.77528 0.20964 2.69348C0.250718 2.63271 0.268254 2.55934 0.260421 2.48645C0.375059 1.78769 0.736943 1.15244 1.27995 0.696411C1.8229 0.240467 2.51166 -0.00620667 3.22136 0.000122407H3.37663ZM36.778 0.000122407C37.4877 -0.00630461 38.1764 0.240544 38.7194 0.696411C39.2625 1.15244 39.6243 1.78765 39.7389 2.48645C39.7311 2.55937 39.7496 2.6327 39.7907 2.69348C39.9376 3.77529 40.007 4.86647 39.9987 5.95813C39.9984 8.03409 39.7565 10.1031 39.277 12.1232V12.2267C38.7464 14.3685 37.4545 16.2455 35.6413 17.5089C34.2608 18.4785 32.6481 19.0685 30.9665 19.2189L24.8815 14.9044L24.0514 14.2833L21.5583 12.5734V11.6456C21.5693 10.3589 21.4491 9.07383 21.1979 7.81165C21.1978 7.70839 21.1462 7.55207 21.1462 7.45129C21.0945 7.34804 21.0944 7.19201 21.0426 7.03723C21.2033 6.90019 21.3773 6.77916 21.5622 6.67688C24.8158 4.25919 28.4025 2.323 32.2106 0.92688C32.3141 0.875255 32.4708 0.823232 32.5719 0.771607C32.6236 0.771416 32.6756 0.719849 32.7272 0.719849C33.9848 0.29647 35.2965 0.0544549 36.6227 0.000122407H36.778Z" fill="#BED600"/>
</g>
</svg>
