<svg preserveAspectRatio="none" width="100%" height="100%" overflow="visible" style="display: block;" viewBox="0 0 34 34" fill="none" xmlns="http://www.w3.org/2000/svg">
<g id="Flight Passport">
<g clip-path="url(#clip0_0_26)">
<path d="M0 8.5C0 3.80558 3.80558 0 8.5 0H25.5C30.1944 0 34 3.80558 34 8.5V25.5C34 30.1944 30.1944 34 25.5 34H8.5C3.80558 34 0 30.1944 0 25.5V8.5Z" fill="var(--fill-0, #009CE2)"/>
<g id="Curves 1" clip-path="url(#clip1_0_26)">
<g id="Vector" filter="url(#filter0_di_0_26)">
<path d="M17.6109 37.1069C17.6168 34.8437 17.6605 32.4558 17.6605 32.4558C17.6605 32.4162 17.6858 32.3823 17.7242 32.3731C19.4164 31.967 23.6469 31.0719 25.4214 30.6775C29.5879 29.4809 32.58 25.3315 33.3254 22.443C34.0708 19.5546 34.8064 11.3699 31.1987 7.38563C29.6194 5.64141 26.8666 4.24705 23.7404 4.94303C16.7995 6.48828 12.7885 7.34604 10.6381 7.79502C9.38914 8.05578 8.48726 9.15652 8.48726 10.4324L8.48726 16.3371C8.48726 16.6768 8.80163 16.9292 9.13327 16.8558L22.8937 13.8113C26.5998 13.0182 26.9943 21.6307 23.342 22.4275L8.91684 25.6387C8.67386 25.6928 8.50103 25.9083 8.50103 26.1572L8.50103 32.1477L8.48853 37.8214C8.48784 38.1338 8.75558 38.3793 9.06677 38.3517L17.126 37.636C17.4001 37.6117 17.6102 37.3821 17.6109 37.1069Z" fill="url(#paint0_linear_0_26)"/>
</g>
</g>
<g id="Subtract">
</g>
<path id="Vector 6" d="M0 -3.65343V39.3612" stroke="var(--stroke-0, #FF0000)" stroke-width="0.0664062"/>
</g>
</g>
<defs>
<filter id="filter0_di_0_26" x="7.19234" y="4.49461" width="27.0452" height="35.1873" filterUnits="userSpaceOnUse" color-interpolation-filters="sRGB">
<feFlood flood-opacity="0" result="BackgroundImageFix"/>
<feColorMatrix in="SourceAlpha" type="matrix" values="0 0 0 0 0 0 0 0 0 0 0 0 0 0 0 0 0 0 127 0" result="hardAlpha"/>
<feOffset dx="-0.498047" dy="0.53125"/>
<feGaussianBlur stdDeviation="0.398438"/>
<feComposite in2="hardAlpha" operator="out"/>
<feColorMatrix type="matrix" values="0 0 0 0 0.0196078 0 0 0 0 0.235294 0 0 0 0 0.329412 0 0 0 0.16 0"/>
<feBlend mode="normal" in2="BackgroundImageFix" result="effect1_dropShadow_0_26"/>
<feBlend mode="normal" in="SourceGraphic" in2="effect1_dropShadow_0_26" result="shape"/>
<feColorMatrix in="SourceAlpha" type="matrix" values="0 0 0 0 0 0 0 0 0 0 0 0 0 0 0 0 0 0 127 0" result="hardAlpha"/>
<feOffset dx="-0.630859" dy="-0.265625"/>
<feGaussianBlur stdDeviation="0.0664062"/>
<feComposite in2="hardAlpha" operator="arithmetic" k2="-1" k3="1"/>
<feColorMatrix type="matrix" values="0 0 0 0 1 0 0 0 0 1 0 0 0 0 1 0 0 0 1 0"/>
<feBlend mode="normal" in2="shape" result="effect2_innerShadow_0_26"/>
</filter>
<linearGradient id="paint0_linear_0_26" x1="25.9958" y1="9.45718" x2="12.0242" y2="37.4422" gradientUnits="userSpaceOnUse">
<stop stop-color="white"/>
<stop offset="0.476715" stop-color="#C9E9FD"/>
<stop offset="1" stop-color="#8ACFF9"/>
</linearGradient>
<clipPath id="clip0_0_26">
<path d="M0 8.5C0 3.80558 3.80558 0 8.5 0H25.5C30.1944 0 34 3.80558 34 8.5V25.5C34 30.1944 30.1944 34 25.5 34H8.5C3.80558 34 0 30.1944 0 25.5V8.5Z" fill="white"/>
</clipPath>
<clipPath id="clip1_0_26">
<rect width="34" height="34" fill="white"/>
</clipPath>
</defs>
</svg>
