<svg preserveAspectRatio="none" width="100%" height="100%" overflow="visible" style="display: block;" viewBox="0 0 40 40" fill="none" xmlns="http://www.w3.org/2000/svg">
<g id="Paths">
<path id="Vector" fill-rule="evenodd" clip-rule="evenodd" d="M20 0C8.94012 0 0 8.93995 0 20C0 31.06 8.94012 40 20 40C31.06 40 40 31.06 40 20C40 8.93995 31.06 0 20 0ZM1.2001 20C1.2001 30.3799 9.62008 38.7999 20 38.7999C30.3799 38.7999 38.7999 30.3799 38.7999 20C38.7999 9.62001 30.3799 1.19991 20 1.19991C9.62008 1.19991 1.2001 9.62001 1.2001 20ZM27.755 16.023C27.603 16.023 27.475 16.0269 27.403 16.0349C27.319 16.1869 27.195 16.3909 27.011 16.6749C29.8746 16.6749 32.4744 16.9108 35.3499 17.4267L34.5381 18.2107C31.9424 17.7507 29.7867 17.5668 27.0391 17.5668C26.6392 17.5668 26.5552 17.5668 26.4592 17.5708C26.3632 17.7147 26.1472 17.9947 25.9313 18.2547C26.1752 18.2387 26.6472 18.2307 27.299 18.2307C29.5587 18.2307 31.6704 18.3986 33.9622 18.7666L33.1502 19.5545C31.4064 19.2825 29.2747 19.1266 27.363 19.1266C26.6831 19.1266 25.9112 19.1506 25.2193 19.1905C25.1022 19.3256 24.8432 19.6072 24.6688 19.7968C24.6109 19.8597 24.5624 19.9125 24.5314 19.9464C25.4473 19.8505 26.4552 19.8064 27.655 19.8064C29.3628 19.8064 30.9946 19.9185 32.5383 20.1464L31.7264 20.9263C30.6266 20.7904 29.2907 20.7104 28.111 20.7104C25.0674 20.7104 22.6677 21.3702 20.188 22.886C22.5517 25.4217 26.4232 27.0255 30.1746 27.0255H30.5266L29.2148 28.2935C23.8035 27.2775 18.1083 24.8978 13.297 21.6382C8.66956 18.5146 7.0498 17.5908 3.43831 15.995L3.41432 15.0671L5.85798 16.115L6.68987 15.455L14.6687 19.1106L14.1488 19.5265L10.0534 17.7468L9.64943 18.0627L11.7772 19.2506C13.573 20.2505 14.9407 20.6984 16.2046 20.6984C18.9682 20.6984 21.4479 18.7386 23.0476 15.2951C24.2515 15.1391 25.5353 15.0671 27.0791 15.0671C30.2466 15.0671 33.3222 15.371 36.8057 16.023L35.9578 16.8428C33.7902 16.3909 30.1066 16.023 27.755 16.023Z" fill="#05164C"/>
</g>
</svg>
