<svg preserveAspectRatio="none" width="100%" height="100%" overflow="visible" style="display: block;" viewBox="0 0 21.0995 21.0995" fill="none" xmlns="http://www.w3.org/2000/svg">
<path id="icon-color" d="M9.7998 0C15.2122 0 19.5996 4.38742 19.5996 9.7998C19.5996 12.1532 18.7702 14.3125 17.3877 16.002L17.2734 16.1416L20.8652 19.7344C21.1777 20.0468 21.1777 20.5528 20.8652 20.8652C20.5528 21.1777 20.0468 21.1777 19.7344 20.8652L16.1416 17.2734L16.002 17.3877C14.3125 18.7702 12.1532 19.5996 9.7998 19.5996C4.38742 19.5996 0 15.2122 0 9.7998C0 4.38742 4.38742 0 9.7998 0ZM9.7998 1.59961C5.27107 1.59961 1.59961 5.27107 1.59961 9.7998C1.59961 14.3286 5.27107 18 9.7998 18C14.3286 18 18 14.3286 18 9.7998C18 5.27107 14.3286 1.59961 9.7998 1.59961Z" fill="var(--fill-0, #0284C7)"/>
</svg>
