<svg preserveAspectRatio="none" width="100%" height="100%" overflow="visible" style="display: block;" viewBox="0 0 21.4997 17.4995" fill="none" xmlns="http://www.w3.org/2000/svg">
<path id="icon-color" d="M20.7497 15.9995C21.1639 15.9995 21.4997 16.3353 21.4997 16.7495C21.4997 17.1637 21.1639 17.4995 20.7497 17.4995H4.74973C4.33551 17.4995 3.99973 17.1637 3.99973 16.7495C3.99973 16.3353 4.33551 15.9995 4.74973 15.9995H20.7497ZM1.71555 0.320771C2.1932 -0.0296133 2.72585 -0.0292286 3.11301 0.0287786C3.46893 0.0821098 3.88188 0.220751 4.0632 0.26999C4.3025 0.334969 4.52808 0.395796 4.71457 0.464325C4.91401 0.537647 5.11899 0.63691 5.30637 0.805146C5.70313 1.16145 5.85974 1.65639 5.94211 2.01218C5.98592 2.20141 6.01646 2.39115 6.04172 2.55124C6.06856 2.72141 6.08803 2.85104 6.11203 2.96433C6.24404 3.58734 6.35522 3.73887 6.4216 3.79636C6.49074 3.85606 6.65843 3.9417 7.29172 3.99069C9.42328 4.15559 11.573 4.30734 13.7136 4.48776C17.1094 4.77398 19.9182 7.40296 20.446 10.7856L20.49 11.1157V11.1216C20.6226 12.4165 19.3852 13.2825 18.2663 12.9809H18.2654L12.9655 11.5425C12.9015 11.5251 12.8326 11.5349 12.7751 11.5727L10.4431 13.1108C10.4294 13.1198 10.4153 13.1291 10.4011 13.1372C9.76184 13.501 9.00336 13.5937 8.2927 13.4008L5.96945 12.771C5.08476 12.5307 4.71969 11.4334 5.35226 10.7241L6.24875 9.71726L3.97922 9.10202C3.07252 8.85581 2.31999 8.65289 1.7468 8.41257C1.15417 8.16406 0.649573 7.83436 0.321992 7.27487C-0.00626007 6.71406 -0.0436965 6.11525 0.0348822 5.48093C0.11072 4.86911 0.309537 4.12266 0.546601 3.22604L0.841523 2.11179C0.94001 1.73929 1.02869 1.39579 1.13547 1.12448C1.24823 0.838005 1.41344 0.542415 1.71555 0.320771ZM2.89035 1.51218C2.67884 1.48054 2.6196 1.51704 2.60226 1.52976C2.62119 1.51587 2.59313 1.51884 2.53195 1.67429C2.46479 1.84494 2.39944 2.08717 2.29172 2.4946L1.9968 3.60983C1.7488 4.5478 1.58354 5.17842 1.52316 5.6655C1.46571 6.12948 1.52014 6.35178 1.61691 6.51706C1.71462 6.68393 1.88616 6.84397 2.32687 7.02878C2.78692 7.22168 3.42488 7.39664 4.3718 7.65378L7.49875 8.50339C8.18985 8.69106 8.42262 9.53578 7.95871 10.0561L6.73703 11.4243L8.68527 11.9536C9.01194 12.0423 9.35508 11.9991 9.64328 11.8403L11.9489 10.3208C12.3646 10.0466 12.878 9.96355 13.3591 10.0942L18.656 11.5327C18.7443 11.5565 18.8397 11.5348 18.9109 11.478C18.9595 11.4391 18.9898 11.3918 18.9978 11.3344V11.2729C18.6821 8.44701 16.3748 6.2178 13.5876 5.98288C11.4529 5.80296 9.32159 5.65183 7.17551 5.48581C6.5438 5.43693 5.91653 5.34258 5.44113 4.9321C4.96307 4.51919 4.77878 3.90993 4.64426 3.27487C4.60998 3.11305 4.58383 2.93397 4.56027 2.78464C4.5351 2.62509 4.51073 2.48302 4.48019 2.35104C4.41381 2.06428 4.34188 1.95587 4.30344 1.92136C4.30304 1.92102 4.30263 1.92021 4.30148 1.9194C4.29987 1.91827 4.29561 1.91634 4.28879 1.91257C4.27434 1.90459 4.24704 1.89093 4.19699 1.87253C4.086 1.83175 3.93382 1.78997 3.66965 1.71823C3.32741 1.62529 3.13342 1.5486 2.89035 1.51218Z" fill="#0284C7"/>
</svg>
