<svg preserveAspectRatio="none" width="100%" height="100%" overflow="visible" style="display: block;" viewBox="0 0 24.8554 40" fill="none" xmlns="http://www.w3.org/2000/svg">
<g id="Paths">
<path id="Vector" fill-rule="evenodd" clip-rule="evenodd" d="M2.85892 16.3725L7.29581 15.1037C7.29581 15.1037 7.24827 14.807 7.08921 14.6614C6.93008 14.5157 6.64395 14.4256 6.64395 14.4256L0.477151 12.1831C0.477151 12.1831 0.281385 12.1172 0.138318 12.1965C-0.00468505 12.2757 0.000346165 12.4818 0.000346165 12.4818V15.3529C0.000346165 15.3529 -0.0150055 15.6278 0.382655 16.2439C0.780379 16.86 1.72238 16.7031 1.72238 16.7031L2.85892 16.3725ZM20.5217 9.44511L24.649 7.13008C24.649 7.13008 24.7111 6.73008 24.5521 6.58445C24.3929 6.43883 24.2036 6.39394 24.2036 6.39394L6.37884 0.0256678C6.37884 0.0256678 6.18307 -0.0402029 6.04001 0.0391002C5.897 0.118339 5.90204 0.324411 5.90204 0.324411V2.79992C5.90204 2.79992 5.89958 3.37351 6.29724 3.98966C6.69497 4.60575 7.34026 4.76526 7.34026 4.76526L20.5217 9.44511ZM20.5217 16.6509L24.649 14.5102C24.649 14.5102 24.7369 13.9681 24.5779 13.8225C24.4187 13.6769 24.2036 13.5997 24.2036 13.5997L0.476829 4.97133C0.476829 4.97133 0.281063 4.90546 0.137995 4.98476C-0.00500758 5.06407 2.36508e-05 5.2702 2.36508e-05 5.2702V7.74565C2.36508e-05 7.74565 -0.00242746 8.31924 0.395233 8.93539C0.792957 9.55154 1.43824 9.71105 1.43824 9.71105L20.5217 16.6509Z" fill="#ED1651"/>
<path id="Vector_2" fill-rule="evenodd" clip-rule="evenodd" d="M24.2035 6.39375C24.2035 6.39375 24.4444 6.43037 24.6488 6.62946C24.8531 6.82856 24.8554 7.07177 24.8554 7.07177V10.3494C24.8554 10.3494 24.8456 10.7972 24.6621 11.1999C24.4786 11.6026 24.21 11.6979 24.21 11.6979L23.6509 11.9012L5.8378 18.3791C5.8378 18.3791 5.75214 18.4056 5.64074 18.4056C5.52928 18.4056 5.44362 18.3791 5.44362 18.3791L0.48058 16.5742C0.48058 16.5742 0.357444 16.5455 0.182771 16.2715C-0.0139632 15.9641 0.000227464 15.3538 0.000227464 15.3538C0.000227464 15.3538 0.0310598 15.6668 0.207669 15.8153C0.384278 15.9639 0.855084 15.8009 0.855084 15.8009L23.651 7.51084C23.651 7.51084 24.5562 7.14119 24.5562 6.7656C24.5562 6.50618 24.2036 6.39485 24.2036 6.39485L24.2035 6.39375ZM24.2035 13.5995C24.2035 13.5995 24.4444 13.6361 24.6488 13.8352C24.8531 14.0343 24.8554 14.2775 24.8554 14.2775V17.5552C24.8554 17.5552 24.8456 18.0029 24.6621 18.4057C24.4786 18.8084 24.21 18.9036 24.21 18.9036L23.6509 19.1069L5.8378 25.5849V21.1935L23.6509 14.7155C23.6509 14.7155 24.5561 14.3459 24.5561 13.9703C24.5561 13.7109 24.2035 13.5995 24.2035 13.5995V13.5995ZM15.3608 25.1359C15.5313 25.3066 15.5313 25.6822 15.5313 25.6822V28.1332C15.5313 28.1332 15.5215 28.581 15.338 28.9837C15.1545 29.3864 14.8859 29.4816 14.8859 29.4816L14.3268 29.6851L5.83761 32.7723V28.3809L14.3268 25.2936C14.3268 25.2936 15.1903 24.9653 15.3608 25.136V25.1359ZM9.88452 34.301C10.055 34.4717 10.055 34.8473 10.055 34.8473V37.2983C10.055 37.2983 10.0452 37.7461 9.86175 38.1488C9.67824 38.5515 9.40958 38.6467 9.40958 38.6467L8.85054 38.8501L5.83761 40V35.6086L8.85054 34.4587C8.85054 34.4587 9.71404 34.1304 9.88452 34.301V34.301Z" fill="#2A0088"/>
</g>
</svg>
