<svg preserveAspectRatio="none" width="100%" height="100%" overflow="visible" style="display: block;" viewBox="0 0 40 22.8658" fill="none" xmlns="http://www.w3.org/2000/svg">
<g id="Paths">
<path id="Vector" fill-rule="evenodd" clip-rule="evenodd" d="M20.7922 3.8147e-07H31.996C36.4159 3.8147e-07 40 3.65512 40 8.16676C40 12.6765 36.4159 16.3326 31.996 16.3326H27.1938V22.8658H20.7922V3.8147e-07ZM27.1938 6.53227H31.996C32.879 6.53227 33.5974 7.26387 33.5974 8.16676C33.5974 9.06777 32.879 9.79936 31.996 9.79936H27.1938V6.53322V6.53227Z" fill="var(--fill-0, #ED1C24)"/>
<path id="Vector_2" fill-rule="evenodd" clip-rule="evenodd" d="M4.78516 22.8658V6.53227H0V0H20.7931V22.8658L19.5703 18.7072V18.7829H12.3888L11.1868 22.8658H4.78516ZM14.3091 12.2497H17.6708L15.989 6.53322L14.3091 12.2497Z" fill="var(--fill-0, #BFD730)"/>
<path id="Vector_3" fill-rule="evenodd" clip-rule="evenodd" d="M4.78513 22.8658H11.1868V6.53227H15.988V3.8147e-07H11.1877L4.78513 22.8658Z" fill="var(--fill-0, #46A41A)"/>
<path id="Vector_4" fill-rule="evenodd" clip-rule="evenodd" d="M20.7922 22.8658H27.1938L20.7922 3.8147e-07V22.8658Z" fill="var(--fill-0, #BA141A)"/>
</g>
</svg>
