<svg preserveAspectRatio="none" width="100%" height="100%" overflow="visible" style="display: block;" viewBox="0 0 364 756.789" fill="none" xmlns="http://www.w3.org/2000/svg">
<path id="Flattened" fill-rule="evenodd" clip-rule="evenodd" d="M1.85575 55.0888C1.85575 24.6641 26.5198 0 56.9445 0H307.026C337.45 0 362.114 24.6641 362.114 55.0888V235.563C363.156 235.563 364 236.407 364 237.449V325.345C364 326.386 363.156 327.23 362.114 327.23V701.7C362.114 732.125 337.45 756.789 307.026 756.789H56.9445C26.5198 756.789 1.85575 732.125 1.85575 701.7V326.827C0.829116 326.81 0.0021306 325.973 0.0021306 324.942V271.911C0.0021306 270.881 0.829116 270.043 1.85575 270.026V252.742C0.82813 252.726 0 251.888 0 250.857V197.221C0 196.19 0.82813 195.352 1.85575 195.336V169.108C0.82813 169.092 0 168.254 0 167.222V142.529C0 141.497 0.82813 140.659 1.85575 140.643V55.0888ZM56.9445 10.3632C32.2433 10.3632 12.219 30.3875 12.219 55.0888V701.7C12.219 726.401 32.2433 746.425 56.9445 746.425H307.026C331.727 746.425 351.751 726.401 351.751 701.7V55.0888C351.751 30.3875 331.727 10.3632 307.026 10.3632H56.9445Z" fill="black"/>
</svg>
