<svg preserveAspectRatio="none" width="100%" height="100%" overflow="visible" style="display: block;" viewBox="0 0 24.7221 24.2144" fill="none" xmlns="http://www.w3.org/2000/svg">
<g id="Frame 2043683398">
<path id="Vector" d="M22.0434 10.0627C22.9862 10.2685 24.1039 10.759 24.2434 11.963C24.2825 12.3018 24.1438 12.6026 24.0135 12.8103C23.8796 13.0236 23.711 13.2066 23.5839 13.3338C23.5047 13.4157 23.3707 13.5423 23.2311 13.6604C23.1053 13.7667 22.924 13.9109 22.7615 13.9835C21.2572 14.6556 19.5633 14.7667 18.0431 14.8433C17.7953 14.8558 17.4509 14.8527 17.202 14.8598C16.9556 14.8669 16.7432 14.8848 16.5729 14.9213C16.5702 14.9249 16.567 14.9289 16.564 14.933C16.5443 14.9602 16.5233 14.9927 16.5011 15.029C16.4902 15.0469 16.4802 15.0647 16.4694 15.0829L16.4362 15.1381L16.4335 15.1423C16.3115 15.3371 16.1724 15.5656 16.0212 15.7769C15.904 15.9558 15.7824 16.1293 15.6628 16.2968C15.506 16.5166 15.3687 16.7363 15.205 16.9839C15.0547 17.2112 14.8879 17.4488 14.6933 17.6751C14.4873 17.9985 14.2931 18.2891 14.1001 18.5998L14.0953 18.6074C13.8109 19.0473 13.5083 19.5264 13.1873 19.9836L12.8599 20.4311L12.8523 20.4414L12.8434 20.4518C12.6702 20.6534 12.5448 20.8477 12.4256 21.0422C12.3131 21.2258 12.1861 21.4459 12.0327 21.6326C11.8674 21.8337 11.6611 22.0128 11.3712 22.1394C11.0891 22.2626 10.7538 22.3249 10.345 22.3383C10.3107 22.3395 10.1053 22.3544 9.95901 22.3528C9.87609 22.3519 9.77482 22.3473 9.67589 22.328C9.5905 22.3113 9.43464 22.2709 9.30577 22.1512L9.29748 22.1429C9.28763 22.1333 9.27667 22.1233 9.26641 22.1132L9.19943 22.0476L9.16352 21.9606C9.00626 21.5906 9.04703 21.208 9.21185 20.8847C9.24092 20.7621 9.26658 20.689 9.31889 20.5705C9.47747 20.1308 9.66386 19.5877 9.81607 19.137C10.1429 17.914 10.545 16.7012 10.9416 15.5172C11.0111 15.3098 11.1084 15.0983 11.1723 14.9455C11.1891 14.9052 11.2022 14.8654 11.2165 14.8281C10.8505 14.819 10.3665 14.8112 9.86924 14.8025C9.03723 14.788 8.17319 14.776 7.76933 14.7714C7.47573 15.0646 7.20924 15.3904 6.93033 15.7403C6.61683 16.1335 6.28264 16.5598 5.89384 16.9411C5.78139 17.0513 5.64474 17.0956 5.56998 17.1158C5.48202 17.1396 5.3921 17.1515 5.31448 17.1572C5.16694 17.1682 4.99528 17.1619 4.87047 17.1344C4.86409 17.1333 4.85898 17.133 4.85597 17.1324C4.83885 17.1289 4.82117 17.1258 4.80556 17.122C4.77392 17.1144 4.73787 17.1047 4.70474 17.0958C4.67108 17.0867 4.63706 17.0772 4.60945 17.0695C4.58028 17.0615 4.56089 17.0564 4.55075 17.0537L4.2331 16.968L4.20341 16.64C4.16788 16.2454 4.27159 15.855 4.39262 15.549C4.44919 15.333 4.59481 14.9246 4.73029 14.5636C4.78896 14.4072 4.85036 14.2498 4.90638 14.1058C4.73713 14.0566 4.54489 13.9874 4.38502 13.8855C4.22609 13.7841 3.92165 13.53 4.00039 13.1155C4.03455 12.9359 4.13463 12.7943 4.23863 12.6895C4.34359 12.5838 4.47733 12.4904 4.62878 12.4043C4.65974 12.3867 4.69306 12.3698 4.72684 12.3532C4.44541 11.7649 4.07332 10.9865 3.89267 10.4874C3.71053 10.1762 3.83534 9.84819 3.95551 9.67737C4.08741 9.49001 4.33447 9.29681 4.64466 9.29206C5.00256 9.28661 5.28556 9.4163 5.5099 9.57172C5.71316 9.71253 5.90962 9.90854 6.04092 10.0268C6.11721 10.0872 6.20947 10.1716 6.27432 10.2326C6.37362 10.326 6.45054 10.4008 6.49322 10.439C6.69496 10.6199 6.89841 10.8187 7.08984 11.0025C7.24006 11.1468 7.38721 11.2813 7.52971 11.4065C7.75751 11.3963 8.10885 11.355 8.50406 11.2953C8.95306 11.2274 9.49573 11.1334 9.76083 11.095C10.094 11.0468 10.5804 10.9857 10.9838 10.9259C10.923 10.7877 10.8611 10.649 10.816 10.5495C10.3491 9.52077 9.85177 8.50154 9.3617 7.46697C9.32594 7.41043 9.29166 7.3497 9.26917 7.30677C9.24117 7.25334 9.19437 7.15921 9.18354 7.13828L9.17457 7.1224L9.16766 7.10582L8.41429 5.32632L8.29483 5.05908C8.245 4.94825 8.18785 4.81955 8.13324 4.69034C8.079 4.56198 8.02476 4.42695 7.98201 4.30295C7.94309 4.19003 7.89954 4.04687 7.88879 3.91694L7.87774 3.78988L7.93299 3.67525C7.95393 3.63127 8.00598 3.5121 8.09733 3.41423C8.2092 3.29448 8.34092 3.23779 8.45848 3.205H8.45986C8.87913 3.08969 9.34615 3.03135 9.84231 3.19671C10.276 3.3125 10.5577 3.51668 10.7849 3.76226C10.8905 3.87641 10.9841 3.99867 11.0666 4.10753C11.1525 4.22075 11.2318 4.32588 11.3249 4.43346L11.8884 5.07427L11.8967 5.08394C11.9446 5.14037 12.2249 5.46569 12.4608 5.7434C12.5839 5.88828 12.7058 6.03235 12.7985 6.1446C12.8445 6.20035 12.8848 6.25138 12.9159 6.29099C12.9311 6.31039 12.9467 6.33046 12.9601 6.349C12.9641 6.35464 12.9693 6.36132 12.9746 6.36902C13.2215 6.69651 13.6446 7.1025 13.9938 7.48217L14.2928 7.79636C14.5904 8.12417 14.8897 8.49242 15.1366 8.79211L15.2202 8.88257C15.3598 9.02267 15.4979 9.19621 15.6193 9.35075C15.7479 9.51434 15.8607 9.6606 15.9701 9.78441L15.9729 9.78717C16.0527 9.87911 16.1318 9.99017 16.1925 10.0758C16.9667 9.97666 18.273 9.88973 18.8641 9.89282H18.8807C19.0195 9.89855 19.2095 9.88849 19.3965 9.88522C19.9623 9.86959 21.0565 9.84736 22.0434 10.0627Z" fill="#4E9BE0" stroke="white" stroke-width="0.94428"/>
<path id="Vector_2" d="M19.4097 10.3586C20.5456 10.3272 23.573 10.2809 23.7743 12.018C23.8163 12.381 23.4805 12.7714 23.2446 13.0067C23.1098 13.1461 22.7568 13.4694 22.569 13.5533C21.1563 14.1844 19.5481 14.2959 18.0193 14.3729C17.5182 14.3982 16.8531 14.3543 16.3778 14.4827C16.2427 14.5192 16.1056 14.7742 16.0334 14.8924L15.9296 14.8261C16.0708 14.5736 16.1485 14.4992 16.3633 14.3135C16.9114 14.2257 17.4915 14.2791 18.0466 14.219C18.5217 14.1676 18.9989 14.1285 19.4752 14.0903C19.7382 14.0524 20.0726 14.0684 20.3272 14.0074C20.9812 13.851 22.0644 13.6854 22.618 13.3314C23.2145 12.95 24.1289 11.976 23.3199 11.3472C22.5551 10.7527 21.6157 10.6047 20.6691 10.5439C20.3021 10.519 19.9345 10.5186 19.5712 10.4591C19.4638 10.4415 19.4666 10.4422 19.4097 10.3586Z" fill="#092C4A"/>
<path id="Vector_3" d="M7.44898 14.1882C7.58738 14.1557 7.77117 14.1575 7.91489 14.159C8.99925 14.1706 10.0836 14.1754 11.168 14.1791C11.3187 14.1796 11.892 14.1761 11.9863 14.2486C12.006 14.6242 11.5735 15.5329 11.4515 15.9433C11.2384 16.6605 11.0183 17.3809 10.729 18.071C10.6525 18.2534 10.6678 18.7338 10.5481 18.9061C10.4141 19.0416 10.4493 19.2659 10.3449 19.3351L10.267 19.2781C10.5905 18.0644 10.9901 16.8582 11.3892 15.6667C11.5138 15.2947 11.7198 14.9646 11.7801 14.5692C11.7861 14.5298 11.8544 14.4334 11.8752 14.3827C11.8358 14.3533 8.02018 14.2985 7.57812 14.2961C6.82482 14.999 6.2915 15.8886 5.56337 16.6027C5.46259 16.7015 5.10456 16.702 4.97215 16.6729L5.00615 16.6027C5.04091 16.5756 5.33359 16.544 5.45869 16.5024C5.65155 16.3185 5.90254 15.971 6.08857 15.7526C6.53511 15.2285 6.96994 14.6835 7.44898 14.1882Z" fill="#184E72"/>
<path id="Vector_4" d="M9.91367 7.1837C10.4317 8.39146 11.0992 9.50925 11.5902 10.731C11.6702 10.9301 11.7879 11.1689 11.8835 11.3626C11.3883 11.6043 8.03187 12.0031 7.342 12.0606C6.8093 11.6003 6.10325 10.9631 5.7248 10.3773C5.81902 10.4428 6.08232 10.7042 6.1782 10.7901C6.56602 11.1378 6.95756 11.5516 7.3537 11.8811C7.8686 11.9083 9.26833 11.6423 9.82822 11.5614C10.2954 11.4938 11.1978 11.3914 11.6104 11.2963L11.627 11.2625C11.5676 11.0593 11.3424 10.5672 11.2458 10.3542C10.7737 9.31393 10.2684 8.27846 9.77832 7.24352C9.86019 7.18534 9.83009 7.19117 9.91367 7.1837Z" fill="#092C4A"/>
<path id="Vector_5" d="M4.31803 10.2784L4.38835 10.2807C4.52963 10.4417 5.33904 12.1755 5.53059 12.5193C5.51911 12.5929 5.50851 12.6665 5.4988 12.7404C5.25951 12.811 4.52226 12.9887 4.58691 13.304C4.7838 13.5398 5.54292 13.5339 5.62574 13.7075C5.70101 13.8652 5.45055 14.4693 5.38791 14.6397C5.20398 15.1605 4.96975 15.6673 4.84029 16.2046C4.77353 16.1298 4.84077 15.8153 4.83852 15.7072C4.90289 15.4067 5.42633 14.0528 5.55368 13.7605C5.07624 13.7041 3.82195 13.4076 4.86239 12.8161C5.00659 12.7341 5.20819 12.6615 5.36558 12.6006C5.07887 11.9883 4.52641 10.8788 4.31803 10.2784Z" fill="#092C4A"/>
<path id="Vector_6" d="M12.4852 20.1443C11.6927 21.0672 11.8159 21.8176 10.3299 21.8663C10.1671 21.8716 9.75081 21.92 9.62748 21.8054C9.61752 21.7956 9.60755 21.7859 9.59762 21.7762C9.72042 21.7215 10.0601 21.7648 10.2157 21.7457C10.8503 21.6674 11.2554 21.6858 11.6252 21.0967C11.801 20.8167 12.0337 20.5059 12.2162 20.2367C12.239 20.2681 12.2397 20.266 12.273 20.2868C12.3775 20.2783 12.3923 20.2319 12.4852 20.1443Z" fill="#092C4A"/>
<path id="Vector_7" d="M15.6264 15.5183C15.5146 15.6891 15.3972 15.8559 15.2786 16.0222C14.9519 16.4799 14.6821 16.9759 14.3095 17.4001C14.2348 17.4101 14.2005 17.4233 14.1356 17.3877C14.2122 17.1991 15.2284 15.7215 15.3823 15.5508C15.4502 15.5816 15.5533 15.5405 15.6264 15.5183Z" fill="#073D67"/>
<path id="Vector_8" d="M15.9828 10.5834C16.6389 10.4737 18.2122 10.3608 18.8622 10.3642C18.8368 10.3959 18.7796 10.4611 18.7444 10.4695C18.3528 10.5638 16.2029 10.7936 15.9828 10.5834Z" fill="#184E72"/>
<path id="Vector_9" d="M8.35963 3.87842C8.61892 4.07853 9.21395 5.83931 9.45028 6.23163C9.52856 6.3616 9.65322 6.63407 9.74183 6.78681L9.6028 6.92166L8.84857 5.14071C8.73227 4.86911 8.38154 4.14449 8.35963 3.87842Z" fill="#092C4A"/>
<path id="Vector_10" d="M13.6989 18.3508C13.3141 18.9461 12.9148 19.5817 12.485 20.1442C12.3921 20.2317 12.3773 20.2782 12.2728 20.2866C12.2395 20.2659 12.2388 20.268 12.216 20.2366C12.3188 19.974 12.8061 19.387 12.9871 19.1341C13.1426 18.917 13.2617 18.7239 13.4025 18.4954C13.5431 18.4931 13.5946 18.4379 13.6989 18.3508Z" fill="#184E72"/>
<path id="Vector_11" d="M11.5377 5.39173C11.6592 5.53453 12.568 6.58816 12.5925 6.64955C12.5624 6.63647 12.5675 6.64106 12.5325 6.63993L12.5539 6.74711L12.5323 6.76758C12.2595 6.64414 11.3665 5.4858 11.1685 5.21376L11.1213 5.08789L11.1456 5.07919C11.2374 5.12019 11.3886 5.29519 11.5183 5.37939L11.5377 5.39173Z" fill="#2673B7"/>
<path id="Vector_12" d="M9.72105 3.65275C10.3932 3.83217 10.5478 4.25726 10.9679 4.74259C11.1558 4.95963 11.3457 5.1767 11.5378 5.39019L11.5184 5.37785C11.3887 5.29365 11.2375 5.11865 11.1457 5.07766L11.1214 5.08635L11.1686 5.21222C10.7447 4.76721 10.2933 4.08217 9.77076 3.78956L9.72105 3.65275Z" fill="#4E9BE0"/>
<path id="Vector_13" d="M10.3448 19.3351C10.4492 19.2659 10.414 19.0416 10.548 18.9061C10.4546 19.3195 9.97331 20.7812 9.6952 21.0433L9.65589 21.0528C9.687 20.9085 9.70272 20.8649 9.76327 20.73C9.92456 20.2828 10.1137 19.7318 10.2668 19.2782L10.3448 19.3351Z" fill="#073D67"/>
<path id="Vector_14" d="M10.2666 19.2797L10.3445 19.3367C10.2459 19.5679 9.94546 20.6507 9.76301 20.7316C9.9243 20.2844 10.1134 19.7334 10.2666 19.2797Z" fill="#C4A79E"/>
<path id="Vector_15" d="M13.6615 7.81871C14.0328 8.18584 14.4411 8.69283 14.7813 9.1055L14.7289 9.24777C14.5212 9.03492 13.5028 7.8499 13.4394 7.64613C13.5099 7.66595 13.6029 7.7647 13.6615 7.81871Z" fill="#184E72"/>
<path id="Vector_16" d="M14.1355 17.3883C14.2004 17.4239 14.2347 17.4107 14.3094 17.4007C14.1084 17.7168 13.896 18.0347 13.6993 18.3514C13.595 18.4385 13.5435 18.4938 13.4029 18.496C13.6227 18.13 13.8888 17.7371 14.1355 17.3883Z" fill="#092C4A"/>
<path id="Vector_17" d="M8.58549 3.66029C8.96788 3.55512 9.33885 3.5176 9.72055 3.65272L9.77027 3.78953C9.52658 3.78187 8.74083 3.80111 8.58549 3.66029Z" fill="#4E9BE0"/>
<path id="Vector_18" d="M14.7811 9.10475L14.8856 9.21656C15.1202 9.45199 15.3736 9.82296 15.6155 10.0967C15.3415 10.0537 15.0049 9.64274 14.8314 9.41856L14.7287 9.24702L14.7811 9.10475Z" fill="#798D9C"/>
<path id="Vector_19" d="M15.9292 14.8254L16.033 14.8917C15.9019 15.1012 15.7703 15.3187 15.6259 15.5186C15.5528 15.5408 15.4497 15.5819 15.3818 15.5511C15.56 15.2981 15.739 15.0689 15.9292 14.8254Z" fill="#092C4A"/>
<path id="Vector_20" d="M9.74158 6.78638C9.78526 6.88045 9.8911 7.09416 9.9141 7.18433C9.83052 7.1918 9.86063 7.18596 9.77875 7.24414C9.72802 7.17501 9.64546 7.00408 9.60254 6.92123L9.74158 6.78638Z" fill="#184E72"/>
<path id="Vector_21" d="M7.75672 12.8696C7.93314 12.8731 8.0919 12.8551 8.22397 12.9741C8.3328 13.2902 7.81563 13.2979 7.62525 13.3006C7.26847 13.3019 5.0619 13.5442 5.0859 13.1352C5.28506 12.855 7.36448 12.782 7.75672 12.8696Z" fill="#184E72"/>
<path id="Vector_22" d="M7.75731 12.8693C7.93373 12.8728 8.09248 12.8548 8.22455 12.9738C8.33338 13.2899 7.81622 13.2976 7.62584 13.3002C7.78288 13.1102 7.79895 13.1103 7.75731 12.8693Z" fill="#2673B7"/>
<path id="Vector_23" d="M21.5532 11.2509C21.8136 11.4444 21.7115 11.4468 21.8426 11.5868C21.9374 11.629 21.9498 11.6398 21.9929 11.7526C22.0139 11.8088 22.034 11.8655 22.0532 11.9223C22.1386 12.1371 22.1567 12.2209 22.1083 12.4503C21.901 12.9023 21.5543 13.1742 21.0776 13.3075C20.9706 13.3496 20.9189 13.3749 20.8096 13.3444L20.786 13.3021C20.8056 13.147 21.141 12.8679 21.2711 12.7428C21.3953 12.5593 21.5944 12.3476 21.6997 12.1641C21.5701 12.0547 21.3579 11.8195 21.3406 11.6454C21.319 11.6061 21.2304 11.5067 21.1963 11.4667C21.434 11.509 21.4493 11.4583 21.5532 11.2509Z" fill="#073D67"/>
<path id="Vector_24" d="M21.2715 12.7429C21.2581 13.078 21.0388 13.0592 21.0061 13.2428C21.0305 13.2662 21.0508 13.2873 21.078 13.3077C20.9709 13.3497 20.9192 13.375 20.81 13.3445L20.7863 13.3023C20.806 13.1471 21.1413 12.868 21.2715 12.7429Z" fill="#184E72"/>
<path id="Vector_25" d="M21.5532 11.2509C21.8136 11.4444 21.7115 11.4468 21.8426 11.5868L21.8294 11.5851C21.5833 11.5522 21.5657 11.4766 21.3406 11.6454C21.319 11.6061 21.2304 11.5067 21.1963 11.4667C21.434 11.509 21.4493 11.4583 21.5532 11.2509Z" fill="#184E72"/>
<path id="Vector_26" d="M22.0538 11.9217C22.1392 12.1365 22.1572 12.2202 22.1088 12.4496C21.9161 12.1972 21.9877 12.2705 21.7201 12.1788C21.8069 12.0998 21.9438 12.0164 22.0538 11.9217Z" fill="#184E72"/>
<path id="Vector_27" d="M21.1964 11.4657C21.0591 11.3825 20.7305 11.2194 20.7163 11.0548L20.7756 11.0216C21.0272 11.0036 21.3346 11.13 21.5533 11.2499C21.4493 11.4573 21.434 11.508 21.1964 11.4657Z" fill="#092C4A"/>
<path id="Vector_28" d="M10.9552 19.587C10.9833 19.4995 11.0017 19.4485 11.0864 19.4061L11.1297 19.4214C11.1553 19.5235 11.1372 19.5159 11.098 19.6333C11.0508 19.776 10.9644 19.9062 10.8869 20.0358C10.885 19.8659 10.8713 19.7394 10.9552 19.587Z" fill="#94CEF6"/>
<path id="Vector_29" d="M12.511 9.58044C12.59 9.663 12.582 9.71041 12.6805 9.80321C12.7739 9.89127 12.9051 9.94181 12.9537 10.038L12.93 10.068C12.678 9.98808 12.4191 9.89551 12.511 9.58044Z" fill="#94CEF6"/>
<path id="Vector_30" d="M11.8277 13.112C11.8375 13.1511 11.8329 13.1348 11.8181 13.183C11.7389 13.2111 11.5564 13.1744 11.4631 13.162C11.4487 13.1337 11.4563 13.1354 11.4594 13.0936C11.5532 13.0554 11.7146 13.096 11.8277 13.112Z" fill="#94CEF6"/>
<path id="Vector_31" d="M22.7536 11.6592C22.7718 11.6927 22.7682 11.7177 22.7687 11.7559C22.6932 11.8157 22.6874 11.7974 22.573 11.8073C22.5462 11.7453 22.544 11.7375 22.5591 11.672C22.641 11.6332 22.6492 11.6504 22.7536 11.6592Z" fill="#94CEF6"/>
</g>
</svg>
