<svg preserveAspectRatio="none" width="100%" height="100%" overflow="visible" style="display: block;" viewBox="0 0 16.25 16.25" fill="none" xmlns="http://www.w3.org/2000/svg">
<path id="icon-color" fill-rule="evenodd" clip-rule="evenodd" d="M5.34932 0.0937447C5.53321 0.207706 5.64509 0.408661 5.64509 0.625001C5.64509 4.07435 6.50023 6.53789 8.10618 8.14383C9.71212 9.74977 12.1757 10.6049 15.625 10.6049C15.8413 10.6049 16.0423 10.7168 16.1563 10.9007C16.2702 11.0846 16.281 11.3143 16.1847 11.5081C14.7887 14.3173 11.8887 16.25 8.53617 16.25C3.82177 16.25 0 12.4283 0 7.71383C0 4.36131 1.93275 1.46136 4.74195 0.0653043C4.93568 -0.0309741 5.16543 -0.0202161 5.34932 0.0937447ZM4.42262 1.69896C2.50602 3.01228 1.25 5.21681 1.25 7.71383C1.25 11.7379 4.51213 15 8.53617 15C11.0332 15 13.2378 13.744 14.551 11.8274C11.4236 11.6629 8.95302 10.7584 7.22229 9.02771C5.49157 7.29699 4.58709 4.82642 4.42262 1.69896Z" fill="#A8A29E"/>
</svg>
