<svg preserveAspectRatio="none" width="100%" height="100%" overflow="visible" style="display: block;" viewBox="0 0 13.883 13.883" fill="none" xmlns="http://www.w3.org/2000/svg">
<g id="Paths">
<path id="Vector" fill-rule="evenodd" clip-rule="evenodd" d="M6.94148 0C3.10288 0 0 3.10282 0 6.94146C0 10.7801 3.10288 13.883 6.94148 13.883C10.7801 13.883 13.883 10.7801 13.883 6.94146C13.883 3.10282 10.7801 0 6.94148 0ZM0.416523 6.94146C0.416523 10.5441 3.33888 13.4664 6.94148 13.4664C10.5441 13.4664 13.4664 10.5441 13.4664 6.94146C13.4664 3.33885 10.5441 0.416459 6.94148 0.416459C3.33888 0.416459 0.416523 3.33885 0.416523 6.94146ZM9.63303 5.56115C9.58026 5.56115 9.53586 5.56253 9.51088 5.5653C9.48172 5.61806 9.43869 5.68885 9.37482 5.78742C10.3687 5.78742 11.271 5.86931 12.269 6.04837L11.9873 6.32044C11.0864 6.16082 10.3382 6.09698 9.38455 6.09698C9.24576 6.09698 9.2166 6.09698 9.1833 6.09835C9.14996 6.14831 9.07499 6.24548 9.00006 6.33572C9.08472 6.33017 9.24853 6.3274 9.47477 6.3274C10.2591 6.3274 10.992 6.38568 11.7874 6.51341L11.5056 6.78686C10.9004 6.69247 10.1605 6.63833 9.49697 6.63833C9.261 6.63833 8.99311 6.64666 8.75296 6.66053C8.71232 6.70742 8.62242 6.80516 8.5619 6.87095C8.54181 6.89279 8.52495 6.91112 8.51422 6.92288C8.83207 6.88958 9.18189 6.8743 9.59832 6.8743C10.1911 6.8743 10.7574 6.91318 11.2932 6.9923L11.0114 7.26297C10.6297 7.21579 10.166 7.18804 9.75657 7.18804C8.70023 7.18804 7.86735 7.41705 7.00671 7.94315C7.82709 8.82321 9.17079 9.37984 10.4728 9.37984H10.595L10.1397 9.81994C8.26157 9.46731 6.28491 8.64138 4.61503 7.51004C3.00898 6.42594 2.4468 6.10531 1.19335 5.55146L1.18502 5.22939L2.03315 5.59309L2.32188 5.36404L5.09114 6.63278L4.91068 6.77713L3.48927 6.15944L3.34907 6.26908L4.08756 6.68136C4.71082 7.02841 5.18553 7.18386 5.62419 7.18386C6.58336 7.18386 7.444 6.50368 7.99922 5.30854C8.41705 5.25437 8.86263 5.22939 9.39843 5.22939C10.4978 5.22939 11.5653 5.33489 12.7743 5.56115L12.48 5.8457C11.7277 5.68885 10.4492 5.56115 9.63303 5.56115Z" fill="#05164C"/>
</g>
</svg>
