<svg preserveAspectRatio="none" width="100%" height="100%" overflow="visible" style="display: block;" viewBox="0 0 20.8045 20.8045" fill="none" xmlns="http://www.w3.org/2000/svg">
<g id="Paths">
<path id="Vector" d="M20.8045 10.4023C20.8045 16.1473 16.1473 20.8045 10.4023 20.8045C4.65725 20.8045 0 16.1473 0 10.4023C0 4.65725 4.65725 0 10.4023 0C16.1473 0 20.8045 4.65725 20.8045 10.4023Z" fill="white"/>
<path id="Vector_2" d="M0.715792 12.0835C0.939361 13.4181 1.4235 14.6452 2.10519 15.7204C4.65185 15.0115 6.89097 13.6691 7.6874 10.6773C8.56321 7.38435 7.56354 3.93376 5.1719 2.10517C1.91551 4.16706 0.0374514 8.04446 0.715792 12.0835ZM20.1798 8.81348C21.083 14.1877 17.4584 19.2773 12.0828 20.1798C11.2011 20.3291 10.3031 20.3576 9.41363 20.2646C6.60944 19.9713 4.08226 18.4809 2.45643 16.2405L18.4353 11.6593C18.6646 11.5928 18.6053 11.3726 18.4157 11.3856L11.7166 11.8535C12.6602 10.9424 13.3784 9.82484 13.2917 8.27972C13.1151 5.77668 10.5677 3.33425 5.83007 1.7272C6.76317 1.23179 7.77014 0.890279 8.8121 0.715846C9.71666 0.564645 10.6133 0.539874 11.4814 0.631093C15.7817 1.08135 19.4284 4.34109 20.1798 8.81348" fill="#C70A0C"/>
</g>
</svg>
