<svg width="100" height="100" viewBox="0 0 100 100" fill="none" xmlns="http://www.w3.org/2000/svg">
<path d="M0 25C0 11.1929 11.1929 0 25 0H75C88.8072 0 100 11.1929 100 25V75C100 88.8072 88.8072 100 75 100H25C11.1929 100 0 88.8072 0 75V25Z" fill="#5341F9"/>
<path fill-rule="evenodd" clip-rule="evenodd" d="M33.944 35.6943C21.0029 35.6943 10.4751 46.2362 10.4751 59.1925C10.4751 72.149 21.0029 82.6909 33.944 82.6909C35.6353 82.6909 37.2846 82.509 38.8746 82.1671V64.7309C37.564 65.9025 35.8356 66.6168 33.944 66.6168C29.8556 66.6168 26.5291 63.2862 26.5291 59.1925C26.5291 55.099 29.8556 51.7684 33.944 51.7684C35.8356 51.7684 37.564 52.4828 38.8746 53.654V36.2181C37.2846 35.8762 35.6353 35.6943 33.944 35.6943Z" fill="white"/>
<path fill-rule="evenodd" clip-rule="evenodd" d="M66.056 17.3096C53.121 17.3096 42.5966 27.8416 42.5869 40.7909V79.8006L54.6294 73.4075L58.6535 71.2716L58.6435 40.7909C58.6525 36.7044 61.9735 33.3834 66.056 33.3834C70.1444 33.3834 73.471 36.7141 73.471 40.8078C73.471 44.9016 70.1444 48.2319 66.056 48.2319C66.0425 48.2319 66.0304 48.2303 66.0169 48.2303L62.3138 48.2313L62.2891 64.3034C63.5447 64.3038 64.8004 64.305 66.056 64.305C69.4355 64.305 73.0385 63.6669 76.0447 62.0678C84.0041 58.3034 89.525 50.1897 89.525 40.8078C89.525 27.8504 78.9972 17.3096 66.056 17.3096Z" fill="white"/>
</svg>
