<svg width="100" height="100" viewBox="0 0 100 100" fill="none" xmlns="http://www.w3.org/2000/svg">
<path d="M59.325 85.988C58.0722 83.3006 56.8918 80.7599 55.4163 78.3649C52.5056 73.6378 48.4226 70.1241 43.2772 67.9215C38.1371 65.7205 32.254 65.8165 26.5667 65.9102C26.0248 65.9194 25.4855 65.9278 24.9517 65.9356C18.6071 66.02 11.5329 65.5046 7.95417 58.3227C7.07156 56.5503 6.49211 54.6896 5.93142 52.89C5.12125 50.2882 4.35403 47.8304 2.79538 46.0578C1.96107 45.1097 0.984547 44.5249 0 44.1763V64.5335C0.0938941 64.7054 0.193139 64.8778 0.287033 65.0478C1.75715 67.6599 3.27557 70.36 5.0998 72.077C9.87498 76.5728 16.4181 76.569 23.267 76.1531C28.9677 75.8041 38.51 75.2209 43.9505 82.0228C47.7653 86.7926 48.6184 93.8156 49.0449 100H67.7835C66.3644 98.3473 64.9104 96.433 63.4054 93.961C61.8253 91.3624 60.5537 88.6306 59.325 85.988Z" fill="#EFA20F"/>
<path d="M23.5835 81.3552C16.2061 81.8071 7.81202 81.7917 1.52379 75.8714C0.981887 75.3614 0.477519 74.8052 0 74.2236V83.0422C0.716278 83.7284 1.46205 84.3594 2.25881 84.9043C5.2366 86.9374 9.45112 87.6498 14.7897 87.0228C15.5113 86.9374 16.2947 86.8031 17.1209 86.6593C20.9089 86.0061 26.0972 85.1094 29.7644 89.1092C32.7771 92.3926 32.2057 96.5751 31.2184 99.9985H43.8164C43.4301 94.6536 42.6816 88.7836 39.8782 85.2791C36.4175 80.9509 29.9308 80.9682 23.5835 81.3552Z" fill="#8AB4C5"/>
<path d="M25.9228 92.6352C24.2971 90.8628 21.8478 91.1366 18.0089 91.7995C17.1477 91.949 16.2598 92.1025 15.3987 92.2038C9.13994 92.9389 3.96502 92.0779 0 89.6475V99.9997H25.7511C26.8054 96.7972 27.3822 94.223 25.9228 92.6352Z" fill="#C1DAE1"/>
<path d="M78.273 16.2997L77.4574 16.4283C74.5628 16.8814 71.8318 17.3094 69.5461 18.5876C67.2042 19.8999 65.3343 22.0389 64.4195 24.4565C62.7804 28.7961 64.1137 34.258 67.7354 38.0497C69.9996 40.4188 72.5588 42.4431 75.2684 44.5851C77.1543 46.0756 79.1046 47.6164 80.9476 49.2855C84.1614 52.201 86.3559 55.7436 88.4779 59.1713C89.4678 60.7691 90.4014 62.2798 91.4342 63.7322C93.5563 66.7177 96.5287 68.9349 100 70.1754V0H93.3872C92.9365 3.92289 91.5684 7.48885 89.3498 10.4607C87.0266 13.571 83.4049 15.4806 78.273 16.2997Z" fill="#192947"/>
<path d="M28.3723 35.0837C27.7472 34.1154 27.1034 33.1141 26.5212 32.0733C23.7581 27.1338 24.0397 21.6241 24.2651 17.1972L24.2865 16.7605C24.3804 15.0359 24.4878 13.0805 23.6025 12.2913C23.4227 12.129 23.192 12.0645 22.9452 12.0645C22.4247 12.0645 21.8292 12.353 21.4509 12.6601C21.0512 12.9857 20.6971 13.3909 20.4047 13.864C19.5006 15.3196 19.1197 17.2222 18.7173 19.2365C18.5912 19.8669 18.4651 20.4924 18.3256 21.1032L18.1861 21.7098C17.4537 24.8856 16.7643 27.8851 16.547 30.9455C16.3806 33.2833 16.5738 35.3572 17.1264 37.1091C17.6442 38.7576 18.6582 40.2962 20.1418 41.6835L20.1445 41.684C21.4644 42.9183 23.0471 43.9377 24.8472 44.7139C27.1302 45.6982 30.0999 46.49 31.2857 44.6709C31.6613 44.0961 31.782 43.3847 31.68 42.3648C31.4279 39.826 29.9443 37.5226 28.3723 35.0837Z" fill="#192947"/>
<path d="M87.1818 66.754C86.0524 65.1643 85.0303 63.5125 84.043 61.9147C82.0203 58.6524 80.1156 55.5717 77.4463 53.1489C75.7321 51.5984 73.9374 50.1798 72.0353 48.6769C69.3044 46.5175 66.4795 44.2841 63.9631 41.6523C58.9062 36.3593 57.1706 28.885 59.5421 22.6124C60.8834 19.0649 63.6009 15.94 66.9972 14.038C70.0984 12.302 73.4303 11.7806 76.6496 11.2766L77.4517 11.1502C81.1753 10.5557 83.6997 9.30948 85.1698 7.34067C86.7204 5.26562 87.7076 2.76737 88.1154 0H66.7102C65.7793 2.03547 64.5479 3.88497 63.0349 5.46145C60.9719 7.60871 58.6138 8.93838 56.3309 10.2241C55.5851 10.6451 54.8125 11.0808 54.0774 11.5316C48.8971 14.7156 45.694 19.7811 45.2943 25.4281C45.0636 28.6875 45.6538 32.1927 47.0514 35.8474C48.9964 40.9375 53.5462 44.5738 58.1658 47.7453L58.2275 47.7877C63.6895 51.5381 69.3419 55.4139 73.8139 60.7391C76.282 63.6795 77.9104 67.0369 79.4825 70.2857C80.7031 72.8029 81.854 75.1801 83.3482 77.313C86.9028 82.3836 92.7725 85.9788 99.9997 87.5664V75.6404C94.7765 74.2145 90.2857 71.1195 87.1818 66.754Z" fill="#192947"/>
<path d="M35.6556 47.522C34.6738 49.0255 32.6859 50.9897 29.0079 50.9911C27.3125 50.9911 25.2602 50.5754 22.7814 49.506C20.426 48.4912 18.3416 47.1418 16.579 45.4956C14.4329 43.4876 12.9413 41.1936 12.1526 38.6781C11.4014 36.2976 11.1305 33.5731 11.3424 30.5789C11.5919 27.114 12.3592 23.7736 13.1023 20.5434L13.2418 19.9397C13.3705 19.3766 13.4859 18.7994 13.6013 18.2172C14.0573 15.9457 14.5724 13.3721 15.9754 11.1136C16.5737 10.15 17.3087 9.31089 18.1565 8.62021C20.933 6.35907 24.6834 6.26947 27.0764 8.40425C29.8315 10.864 29.6276 14.584 29.4962 17.0465L29.4721 17.4647C29.2709 21.4208 29.0428 25.903 31.0736 29.532C31.5753 30.4298 32.1467 31.32 32.7557 32.2624C34.5101 34.9815 36.4926 38.0619 36.8709 41.8528C37.0909 44.0738 36.6938 45.9288 35.6556 47.522ZM79.0777 80.3077C77.3446 77.8332 76.0462 75.1533 74.7907 72.5618C73.2884 69.4649 71.8719 66.5383 69.8197 64.0959C65.8064 59.3145 60.6905 55.8063 55.2768 52.0899L55.2151 52.0478C49.898 48.3987 44.6373 44.1362 42.1826 37.713C40.5113 33.3426 39.8085 29.0852 40.0928 25.0622C40.6133 17.7171 44.7151 11.1668 51.3494 7.09193C52.1649 6.5896 52.9805 6.12891 53.7719 5.68409C55.8134 4.53344 57.7422 3.4457 59.274 1.85133C59.8186 1.28441 60.3095 0.662627 60.7575 0.00292969H0V38.7778C2.64781 39.3153 4.96031 40.6234 6.70943 42.613C9.00313 45.2191 9.97154 48.3298 10.9078 51.3381C11.4336 53.015 11.9272 54.599 12.6221 55.9963C14.6555 60.0758 18.5052 60.8109 24.8819 60.7204C25.4158 60.7134 25.947 60.7034 26.4808 60.6961C32.7181 60.5966 39.1673 60.4872 45.3294 63.1265C51.4862 65.7613 56.3741 69.9684 59.8589 75.6295C61.4899 78.284 62.7937 81.082 64.0546 83.7873C65.2779 86.4158 66.4315 88.8979 67.8613 91.2513C70.2355 95.1519 72.4461 97.4613 74.788 99.9071C74.8176 99.9369 74.8444 99.9679 74.8765 99.9993H100V92.8885C90.9807 91.1634 83.5765 86.7255 79.0777 80.3077Z" fill="#8AB4C5"/>
</svg>
