<svg width="100" height="100" viewBox="0 0 100 100" fill="none" xmlns="http://www.w3.org/2000/svg">
<path fill-rule="evenodd" clip-rule="evenodd" d="M49.4917 96.27C38.6104 96.27 28.5426 92.5402 20.6104 86.391C27.5256 94.6571 38.0002 99.9998 49.6951 99.9998C61.6951 99.9998 72.3731 94.4555 79.2883 85.7861C71.2544 92.3386 60.8815 96.27 49.4917 96.27Z" fill="#ABAAB1"/>
<path fill-rule="evenodd" clip-rule="evenodd" d="M49.6948 86.8953C32.8134 86.8953 18.0677 77.7219 10.3389 64.0122C15.9321 80.3428 31.3897 92.0364 49.7965 92.0364C68.5084 92.0364 84.3728 79.8388 89.5592 62.9033C82.0338 77.2178 66.9829 86.8953 49.6948 86.8953Z" fill="#ABAAB1"/>
<path fill-rule="evenodd" clip-rule="evenodd" d="M8 41.6331C8 18.6492 26.8136 0 50 0C73.1864 0 92 18.6492 92 41.6331C92 64.6169 73.1864 83.2661 50 83.2661C26.8136 83.2661 8 64.6169 8 41.6331Z" fill="#DAA228"/>
<path fill-rule="evenodd" clip-rule="evenodd" d="M86.9153 41.633C86.9153 21.3709 70.339 4.93945 49.8983 4.93945C29.4576 4.93945 12.8813 21.3709 12.8813 41.633C12.8813 61.8951 29.4576 78.3265 49.8983 78.3265C70.4407 78.3265 86.9153 61.8951 86.9153 41.633Z" fill="#B32630"/>
<path fill-rule="evenodd" clip-rule="evenodd" d="M42.9832 44.8587C43.0849 44.6571 43.0849 44.5563 42.8815 44.5563L12.8815 41.9354C12.6782 41.9354 12.6782 41.9354 12.8815 41.8345L42.8815 39.2136C43.0849 39.2136 43.1866 39.012 42.9832 38.9112L34.0341 26.6128C33.9324 26.4112 33.9324 26.4112 34.1358 26.512L46.6443 35.3829C46.8477 35.4837 46.9493 35.3829 46.9493 35.2821L49.7968 5.34262C49.7968 5.141 49.7968 5.141 49.8985 5.34262L52.6443 35.0805C52.6443 35.2821 52.8476 35.3829 52.9493 35.1813L65.1527 26.512C65.3561 26.4112 65.3561 26.4112 65.2544 26.6128L56.3053 38.9112C56.2036 39.1128 56.3053 39.2136 56.407 39.2136L86.7121 41.8345C86.9154 41.8345 86.9154 41.8345 86.7121 41.9354L56.407 44.5563C56.2036 44.5563 56.1019 44.7579 56.3053 44.8587L65.2544 57.1571C65.3561 57.3587 65.3561 57.3587 65.1527 57.2579L52.9493 48.5886C52.746 48.4878 52.6443 48.5886 52.6443 48.6894L49.7968 78.4273C49.7968 78.6289 49.7968 78.6289 49.6951 78.4273L46.9493 48.5886C46.9493 48.387 46.746 48.2862 46.6443 48.4878L34.1358 57.2579C33.9324 57.3587 33.9324 57.3587 34.0341 57.1571L42.9832 44.8587Z" fill="white"/>
</svg>
