<svg width="100" height="100" viewBox="0 0 100 100" fill="none" xmlns="http://www.w3.org/2000/svg">
<path d="M50.9281 46.9993C50.3227 46.4025 50.068 45.8518 50.3401 45.1376C50.6167 44.4212 50.1071 43.8768 51.1088 42.9057C52.1126 41.9388 54.0048 40.6715 54.6319 40.0967C55.2656 39.5195 56.6505 38.5441 56.6505 38.5441C56.6505 38.5441 56.7223 38.5564 57.0011 37.8429C57.2733 37.1287 57.4627 36.9328 57.9679 36.6411C58.473 36.3491 61.7741 34.7967 61.7741 34.7967C61.7741 34.7967 60.5416 33.2007 61.3451 31.2061C61.3451 31.2061 64.0452 32.2926 64.57 35.291C64.718 36.1598 64.3391 37.9235 62.3163 38.6334C62.3163 38.6334 64.1149 39.6416 65.3952 37.9606C65.3952 37.9606 70.2096 39.8833 69.5085 46.481C68.8095 53.0744 67.0806 56.8916 63.8427 58.0739C63.8427 58.0739 68.7572 55.9705 71.8819 58.0493C71.8819 58.0493 67.1829 57.5944 64.4328 60.3139C63.4747 61.2633 62.5427 60.7404 61.1295 61.0259C59.7142 61.3092 54.78 65.2415 56.4676 68.597C56.4676 68.597 54.2901 66.5828 56.093 62.4978C56.4719 61.6486 57.5171 60.0025 57.8023 58.3716C58.0832 56.7428 59.8709 53.9295 61.1208 52.3944C62.3729 50.8614 62.8911 49.1979 62.3707 47.4254C62.3707 47.4254 67.2613 46.7677 65.7872 41.7682C65.7872 41.7682 65.4039 44.4683 63.577 45.3088C61.7218 46.1624 60.0822 45.3397 60.0822 45.3397C60.0822 45.3397 59.2917 46.6288 58.5492 46.9532C57.8111 47.2822 57.1927 47.3624 56.5917 47.7893C55.982 48.2183 54.8388 48.6146 53.6956 48.5275C52.8725 48.4603 52.5481 48.1226 52.9749 47.4345C52.9749 47.4345 51.9602 48.0202 50.928 46.9968" fill="#231F20"/>
<path d="M65.9112 34.9944C65.9112 34.9944 65.6281 32.7276 64.0103 31.9872C64.0103 31.9872 64.2715 30.5065 64.657 30.0405C64.657 30.0405 66.9128 31.432 67.1937 34.156C67.1937 34.156 70.4599 35.4255 71.4812 36.523C72.5024 37.6204 76.104 38.2605 76.104 38.2605C76.104 38.2605 75.7491 39.4189 75.1785 39.6237C75.1785 39.6237 77.1666 41.2741 77.515 41.8686L76.5416 42.2321C76.5416 42.2321 79.4486 43.8175 80.3283 45.7293C80.3283 45.7293 79.4486 46.413 78.1421 46.1039C78.1421 46.1039 79.5444 47.5781 79.6663 48.2096C79.6663 48.2096 78.7975 48.8169 77.3822 48.265C77.3822 48.265 79.3288 50.1355 80.1606 50.5884C80.1606 50.5884 78.484 51.0569 77.5564 50.7366C77.5564 50.7366 80.6179 52.7333 81.2145 54.5166C81.2145 54.5166 79.9886 54.6037 77.9483 53.7067C77.9483 53.7067 77.221 55.2591 79.3963 57.5542C79.3963 57.5542 77.8416 57.7369 76.9837 57.0512L76.117 56.3588C76.117 56.3588 72.9248 56.402 73.1361 52.1671C73.3516 47.9254 73.1274 37.5018 65.9112 34.9955" fill="#231F20"/>
<path d="M75.8972 57.6181C75.5248 57.3262 75.5771 59.0117 74.1792 59.2207C72.7747 59.43 68.3305 59.7108 64.9902 61.4831C61.6478 63.2577 59.6489 66.8768 59.7773 69.1849C74.1117 71.7347 83.244 67.1707 83.244 67.1707C80.9337 66.5327 80.0039 63.1577 80.0039 63.1577C80.0039 63.1577 78.3817 64.6274 77.4345 63.5452C76.4873 62.4586 76.2957 61.0607 77.8417 60.7908C80.6572 60.2988 86.151 58.1604 86.1009 49.1238C86.0965 48.2812 86.5821 47.2229 88.3567 46.6197C90.1292 46.0185 96.9033 43.7107 98.3971 42.5283L98.4711 39.4819C98.4711 39.4819 94.4928 42.7481 89.2233 44.2549C83.9604 45.7618 80.4046 47.8826 81.7394 51.0966L80.999 51.4231C80.999 51.4231 82.4645 52.9844 82.7737 54.2561C83.0828 55.5342 82.828 55.2599 82.828 55.2599C82.828 55.2599 81.3495 56.3725 79.5857 55.6017C79.5857 55.6017 80.326 57.8685 81.0468 58.0732C81.0468 58.0732 78.8367 59.8958 75.8971 57.6183" fill="#EF2E31"/>
<path d="M99.0631 43.4805C97.8241 44.4843 93.5889 46.174 88.1582 47.7309L88.0059 48.6236C88.0059 48.6236 95.6684 46.8533 98.6712 45.7058" fill="#0FAB4B"/>
<path d="M87.9851 49.6106C90.5807 49.0792 97.1697 47.8077 98.5372 46.9062C98.5372 46.9062 98.3499 48.8529 95.9503 49.5759C93.5464 50.2922 87.5039 51.0543 87.5039 51.0543" fill="#0FAB4B"/>
<path d="M87.4864 52.0426C87.4864 52.0426 95.8566 51.3893 98.4761 49.8716C98.4761 49.8716 97.0019 52.6631 94.9899 52.9157C92.9714 53.1681 86.979 53.63 86.979 53.63" fill="#0FAB4B"/>
<path d="M86.8706 54.6822C91.0797 54.8933 96.1162 54.2601 97.5773 52.8423C97.5773 52.8423 96.1423 56.2544 92.924 56.4416C89.7122 56.6372 86.4155 55.9738 86.4155 55.9738" fill="#0FAB4B"/>
<path d="M86.0913 56.9858C87.9247 57.3124 93.1333 58.3163 95.3739 57.1816C95.3739 57.1816 94.9732 59.4788 91.707 59.5115C88.4408 59.5423 85.229 57.9785 85.229 57.9785" fill="#0FAB4B"/>
<path d="M84.6942 58.8784C85.8178 59.3815 89.1602 61.5044 92.8772 60.6356C92.8772 60.6356 91.0807 63.5229 89.1863 63.1114C87.2832 62.6954 83.1221 60.0477 83.1221 60.0477" fill="#0FAB4B"/>
<path d="M82.4096 60.6851C83.5375 61.5734 86.1047 63.4026 88.6263 64.156C88.6263 64.156 88.4542 66.4183 86.0111 65.2186C83.5702 64.0232 81.5908 61.4581 81.5908 61.4581" fill="#0FAB4B"/>
<path d="M81.0173 62.1172C81.8077 63.2517 83.5563 65.3922 85.1088 66.0498C85.1088 66.0498 82.6003 66.5219 81.7555 64.8456C80.9128 63.1689 80.6123 62.2784 80.6123 62.2784" fill="#0FAB4B"/>
<path d="M93.4293 41.0323C91.2562 42.1754 86.6421 43.4166 86.6421 43.4166C86.6421 43.4166 88.7259 41.4939 89.9127 39.4884C91.095 37.4873 91.6895 36.6751 92.2317 36.6185C92.7695 36.5629 93.144 36.1697 93.2028 37.5547C93.2639 38.9396 93.4293 41.0323 93.4293 41.0323" fill="#FCD006"/>
<path d="M48.5325 46.9993C49.14 46.4025 49.3947 45.8518 49.1182 45.1376C48.8439 44.4212 49.3512 43.8768 48.3518 42.9057C47.3501 41.9388 45.4557 40.6715 44.8242 40.0967C44.1928 39.5195 42.8123 38.5441 42.8123 38.5441C42.8123 38.5441 42.7426 38.5564 42.4617 37.8429C42.1851 37.1287 41.9979 36.9328 41.4905 36.6411C40.9875 36.3491 37.6843 34.7967 37.6843 34.7967C37.6843 34.7967 38.9254 33.2007 38.1198 31.2061C38.1198 31.2061 35.4154 32.2926 34.8928 35.291C34.7381 36.1598 35.1279 37.9235 37.1421 38.6334C37.1421 38.6334 35.3522 39.6416 34.0653 37.9606C34.0653 37.9606 29.2531 39.8833 29.9542 46.481C30.6467 53.0744 32.3821 56.8916 35.6179 58.0739C35.6179 58.0739 30.7011 55.9705 27.5786 58.0493C27.5786 58.0493 32.2776 57.5944 35.0278 60.3139C35.9837 61.2633 36.92 60.7404 38.3375 61.0259C39.7507 61.3092 44.6827 65.2415 42.9952 68.597C42.9952 68.597 45.1748 66.5828 43.3675 62.4978C42.9886 61.6486 41.9434 60.0025 41.6582 58.3716C41.3751 56.7428 39.5917 53.9295 38.3397 52.3944C37.0876 50.8614 36.5629 49.1979 37.092 47.4254C37.092 47.4254 32.1992 46.7677 33.6777 41.7682C33.6777 41.7682 34.0566 44.4683 35.8878 45.3088C37.7409 46.1624 39.3762 45.3397 39.3762 45.3397C39.3762 45.3397 40.1709 46.6288 40.9113 46.9532C41.6495 47.2822 42.27 47.3624 42.8732 47.7893C43.4764 48.2183 44.6261 48.6146 45.7649 48.5275C46.588 48.4603 46.9168 48.1226 46.49 47.4345C46.49 47.4345 47.5025 48.0202 48.5325 46.9968" fill="#231F20"/>
<path d="M33.5497 34.9944C33.5497 34.9944 33.8393 32.7276 35.4506 31.9872C35.4506 31.9872 35.1871 30.5065 34.8039 30.0405C34.8039 30.0405 32.5502 31.432 32.2671 34.156C32.2671 34.156 29.0009 35.4255 27.984 36.523C26.9628 37.6204 23.3613 38.2605 23.3613 38.2605C23.3613 38.2605 23.7118 39.4189 24.2823 39.6237C24.2823 39.6237 22.2965 41.2741 21.9437 41.8686L22.9192 42.2321C22.9192 42.2321 20.0101 43.8175 19.1326 45.7293C19.1326 45.7293 20.0101 46.413 21.3231 46.1039C21.3231 46.1039 19.91 47.5781 19.7945 48.2096C19.7945 48.2096 20.659 48.8169 22.0787 48.265C22.0787 48.265 20.1342 50.1355 19.3024 50.5884C19.3024 50.5884 20.9769 51.0569 21.9045 50.7366C21.9045 50.7366 18.8452 52.7333 18.2485 54.5166C18.2485 54.5166 19.4723 54.6037 21.5148 53.7067C21.5148 53.7067 22.242 55.2591 20.0667 57.5542C20.0667 57.5542 21.6149 57.7369 22.4794 57.0512L23.3438 56.3588C23.3438 56.3588 26.5338 56.402 26.3226 52.1671C26.1136 47.9254 26.3335 37.5018 33.5497 34.9955" fill="#231F20"/>
<path d="M23.567 57.6181C23.9416 57.3262 23.885 59.0117 25.2851 59.2207C26.6852 59.43 31.1316 59.7108 34.4719 61.4831C37.8143 63.2577 39.8132 66.8768 39.6891 69.1849C25.3548 71.7347 16.2137 67.1707 16.2137 67.1707C18.5305 66.5327 19.4581 63.1577 19.4581 63.1577C19.4581 63.1577 21.0738 64.6274 22.0232 63.5452C22.9748 62.4586 23.1642 61.0607 21.616 60.7908C18.8005 60.2988 13.3133 58.1604 13.3634 49.1238C13.3699 48.2812 12.88 47.2229 11.1053 46.6197C9.33069 46.0185 2.56526 43.7107 1.06716 42.5283L0.98877 39.4819C0.98877 39.4819 4.97138 42.7481 10.2343 44.2549C15.5017 45.7618 19.0553 47.8826 17.7249 51.0966L18.4674 51.4231C18.4674 51.4231 16.9932 52.9844 16.684 54.2561C16.3792 55.5342 16.6318 55.2599 16.6318 55.2599C16.6318 55.2599 18.119 56.3725 19.8784 55.6017C19.8784 55.6017 19.1337 57.8685 18.4173 58.0732C18.4173 58.0732 20.6318 59.8958 23.567 57.6183" fill="#EF2E31"/>
<path d="M0.400879 43.4805C1.63769 44.4843 5.87288 46.174 11.2992 47.7309L11.4538 48.6236C11.4538 48.6236 3.79121 46.8533 0.788469 45.7058" fill="#0FAB4B"/>
<path d="M11.4759 49.6106C8.88469 49.0792 2.29346 47.8077 0.923828 46.9062C0.923828 46.9062 1.11327 48.8529 3.51067 49.5759C5.91025 50.2922 11.9571 51.0543 11.9571 51.0543" fill="#0FAB4B"/>
<path d="M11.9778 52.0426C11.9778 52.0426 3.60317 51.3893 0.98584 49.8716C0.98584 49.8716 2.45782 52.6631 4.47416 52.9157C6.48833 53.1681 12.4808 53.63 12.4808 53.63" fill="#0FAB4B"/>
<path d="M12.5907 54.6822C8.38382 54.8933 3.34514 54.2601 1.88623 52.8423C1.88623 52.8423 3.31466 56.2544 6.53297 56.4416C9.7491 56.6372 13.0458 55.9738 13.0458 55.9738" fill="#0FAB4B"/>
<path d="M13.3758 56.9858C11.5337 57.3124 6.33167 58.3163 4.08887 57.1816C4.08887 57.1816 4.48735 59.4788 7.75357 59.5115C11.0176 59.5423 14.2294 57.9785 14.2294 57.9785" fill="#0FAB4B"/>
<path d="M14.7669 58.8784C13.639 59.3815 10.2988 61.5044 6.58398 60.6356C6.58398 60.6356 8.38041 63.5229 10.277 63.1114C12.1692 62.6954 16.3347 60.0477 16.3347 60.0477" fill="#0FAB4B"/>
<path d="M17.0541 60.6851C15.9153 61.5734 13.3633 63.4026 10.8374 64.156C10.8374 64.156 11.0094 66.4183 13.4482 65.2186C15.8957 64.0232 17.8663 61.4581 17.8663 61.4581" fill="#0FAB4B"/>
<path d="M18.4404 62.1172C17.6522 63.2517 15.9037 65.3922 14.3555 66.0498C14.3555 66.0498 16.8596 66.5219 17.7066 64.8456C18.5493 63.1689 18.8476 62.2784 18.8476 62.2784" fill="#0FAB4B"/>
<path d="M6.03223 41.0323C8.20535 42.1754 12.8151 43.4166 12.8151 43.4166C12.8151 43.4166 10.7399 41.4939 9.55538 39.4884C8.36648 37.4873 7.76985 36.6751 7.23419 36.6185C6.692 36.5629 6.32183 36.1697 6.26304 37.5547C6.19989 38.9396 6.03223 41.0323 6.03223 41.0323" fill="#FCD006"/>
</svg>
