<svg width="100" height="100" viewBox="0 0 100 100" fill="none" xmlns="http://www.w3.org/2000/svg">
<path d="M0 19.043C0 8.52583 8.52583 0 19.043 0H80.957C91.4742 0 100 8.52583 100 19.043V80.957C100 91.4742 91.4742 100 80.957 100H19.043C8.52583 100 0 91.4742 0 80.957V19.043Z" fill="#1F7B29"/>
<path d="M95.5078 50C95.5078 75.1063 75.1551 95.459 50.0488 95.459C24.9425 95.459 4.58984 75.1063 4.58984 50C4.58984 24.8937 24.9425 4.54102 50.0488 4.54102C75.1551 4.54102 95.5078 24.8937 95.5078 50Z" fill="white"/>
<path d="M55.0293 37.6953L15.6738 59.2773H70.459L85.7422 41.3574L72.7051 50.0977L50.6027 50.4593C48.754 50.4896 47.7331 48.3257 48.9319 46.9181L56.7871 37.6953H55.0293Z" fill="#1F7B29"/>
</svg>
