<svg width="100" height="100" viewBox="0 0 100 100" fill="none" xmlns="http://www.w3.org/2000/svg">
<path d="M100 50C100 77.6142 77.6142 100 50 100C22.3858 100 0 77.6142 0 50C0 22.3858 22.3858 0 50 0C77.6142 0 100 22.3858 100 50Z" fill="#D0006F"/>
<path d="M52.5687 83.3748C52.5687 79.9541 52.5687 76.5347 52.5687 73.1166C52.5553 72.6521 52.4788 72.1917 52.3412 71.748C52.33 71.7095 52.3224 71.6699 52.3184 71.6299C52.193 70.4411 52.1524 69.2449 52.1971 68.0504C52.2608 67.6061 52.8444 66.5184 52.5005 66.0795C52.3495 65.8869 42.6976 69.5901 41.6132 69.8687C41.3029 69.9689 41.0286 70.1584 40.8245 70.4138C40.806 70.4371 40.7935 70.4645 40.7882 70.4938C40.7829 70.5231 40.7849 70.5533 40.7941 70.5816C41.1316 71.1267 40.7941 71.5536 40.5287 71.9653C40.2632 72.377 39.8916 72.7277 39.6565 73.1356C39.4214 73.5435 39.1142 73.879 38.8601 74.2792C38.4278 74.9425 37.8894 75.5372 37.4002 76.1586C37.2144 76.3987 37.0399 76.6465 36.8541 76.8867C36.7349 77.054 36.5947 77.2052 36.437 77.3365C36.3066 77.397 36.1601 77.413 36.0198 77.3822C35.9895 77.3822 35.9592 77.2031 35.9516 77.1078C35.9626 76.5493 36.1167 76.0031 36.399 75.522C36.7783 74.6833 37.1954 73.8561 37.6201 73.0365C37.8702 72.542 38.0454 72.0126 38.1396 71.466C38.1927 71.1839 38.2117 70.9018 38.2534 70.6235C38.2976 70.4048 38.3933 70.2 38.5326 70.0262C38.6718 69.8524 38.8504 69.7148 39.0535 69.6247C43.2302 67.5374 47.7804 66.4079 52.0416 64.5356C52.3282 64.4291 52.5439 64.1611 52.5877 63.8571C53.9766 59.7125 52.5877 53.0389 52.5877 48.6661C52.573 47.2903 51.0628 46.0533 50.229 45.0599C49.5634 44.2561 48.4727 43.6186 47.4 43.638C46.2854 43.638 45.1305 43.8846 44.0288 43.7638C43.3911 43.6926 42.7457 43.8469 42.11 43.7676C41.545 43.5961 40.9724 43.497 40.4111 43.2759C38.8121 42.6329 37.1293 42.2239 35.5344 41.5795C31.3267 40.0153 30.9735 35.4012 31.0483 31.5653C31.4845 26.9904 34.704 23.5751 38.1472 20.8725C40.0467 19.3886 45.6745 15.3878 43.8278 12.2687C43.5467 11.9293 43.2302 11.6213 42.8836 11.35C42.5554 11.0852 42.0634 11.0659 41.7156 11.3042C40.7421 11.885 39.0238 11.807 38.0903 11.1594C37.5558 10.8608 37.0008 10.6176 36.3953 10.5113C35.1904 10.2996 33.8922 11.2096 33.0999 12.0209C32.3661 12.7487 31.6045 13.636 30.6578 14.0946C30.2785 14.2929 30.07 14.1633 30.0017 13.7401C29.975 13.0036 30.2649 12.2126 30.5137 11.5291C30.8787 10.5097 31.1395 9.51143 31.7878 8.61674C32.4818 7.5913 33.5322 7.11479 34.613 6.71071C35.6067 6.38876 36.6606 6.40433 37.6467 6.06648C38.5959 5.67356 39.6565 5.24435 40.6804 5.13253C40.9155 5.13253 41.1316 4.9648 41.3895 5.00673C42.9267 5.25497 44.0055 5.87797 45.0755 6.97375C47.2239 9.19761 48.2126 12.6261 47.2749 15.6233C46.2594 20.305 43.2568 21.7793 39.7854 24.4405C38.5509 25.3045 37.8371 26.7596 37.1802 28.062C36.2968 30.0435 34.2543 35.348 37.9538 35.8386C38.3325 35.8675 38.7128 35.8675 39.0915 35.8386C39.2009 33.7933 39.3931 31.9316 40.3087 30.0481C41.0705 28.5859 42.2946 27.4011 43.6989 26.5562C47.1303 24.4296 49.8008 24.7653 53.3727 25.2944C57.7933 25.9493 62.1466 27.7087 65.917 30.0671C67.7923 31.2401 69.5116 32.6896 71.3967 33.8296C73.712 35.2539 75.5483 37.6882 77.4869 39.5477C77.6651 39.7192 77.9002 39.8222 78.0367 40.0661C78.1541 40.2722 78.2543 40.4877 78.3363 40.7104C78.5776 41.4297 78.9535 42.0961 79.4436 42.6736C80.3735 43.8208 81.3802 45.0246 81.734 46.4894C82.056 47.3625 82.0524 48.3915 81.9881 49.3141C81.9512 49.977 81.7809 50.6254 81.4876 51.2202C81.4483 51.3105 81.4014 51.3972 81.3472 51.4794C81.2327 51.5949 81.1391 51.5106 81.1121 51.3841C81.0325 51.0334 80.9377 50.6827 80.8884 50.3358C80.5936 48.9558 79.9539 47.5844 79.345 46.3217C79.1883 45.9541 78.9105 45.652 78.5583 45.4659C78.2062 45.2799 77.8011 45.2213 77.411 45.3001C77.3693 45.3001 77.2972 45.4373 77.3124 45.4792C77.4717 45.8376 77.6423 46.1921 77.813 46.5428C78.2999 47.5505 78.7094 48.5943 79.0378 49.6649C79.2995 50.4921 79.4701 51.3498 79.709 52.1884C79.728 52.2571 79.6787 52.3409 79.6597 52.421C79.5877 52.3943 79.4891 52.3905 79.4474 52.3409C79.3147 52.1922 79.2047 52.0207 79.0682 51.8606C79.0682 51.8023 78.8891 51.795 78.943 51.9216C79.569 53.688 78.893 55.6428 79.4208 57.3233C79.4397 57.4645 79.3477 57.6091 79.2123 57.6511C79.0606 57.674 79.0909 57.5444 79.0416 57.4605C78.906 57.2172 78.8208 56.9487 78.7914 56.6714C78.7209 56.2381 78.626 55.8092 78.5069 55.3867C78.4046 54.9865 78.2718 54.5938 78.1694 54.1936C77.9825 53.4061 77.7444 52.6319 77.4565 51.8758C77.21 51.2507 76.9484 50.6446 76.6526 50.0461C76.0913 49.0147 75.374 48.1044 74.5214 47.2976C74.4544 47.2176 74.3795 47.1448 74.2977 47.0803C74.1746 47.0218 74.0089 47.1092 73.9867 47.2442C73.9867 47.6254 73.9867 48.0066 73.9867 48.3878C74.004 48.4695 74.004 48.5539 73.9867 48.6356C73.964 48.6852 73.8312 48.7347 73.8009 48.7118C73.5334 48.4916 73.3788 48.0817 73.2472 47.7741C73.0018 47.0993 72.6297 46.4781 72.1513 45.9443C71.6665 45.3389 71.1042 44.8005 70.479 44.3432C69.7522 43.8941 69.1873 43.3135 68.3175 43.131C67.9222 43.0325 67.4876 43.1374 67.1798 43.4055C66.8152 43.7063 66.0577 43.7121 65.7009 43.3902C65.0486 42.9366 64.7263 42.9442 63.892 43.0815C62.9626 43.2809 62.0885 43.6844 61.3324 44.2632C60.7406 44.6607 60.0683 44.9211 59.3642 45.0256C58.9547 45.0904 58.5451 45.0713 58.147 45.1476C57.1623 45.3367 56.2711 45.2932 55.4166 45.8871C54.6599 46.3009 54.3638 47.3196 54.9616 47.9914C57.3446 51.4896 60.2956 54.66 62.8871 58.0094C63.4295 58.6989 64.0338 59.337 64.6922 59.9154C64.8917 60.0562 65.6941 60.672 65.6061 60.9904C65.5651 61.1183 65.4872 61.2311 65.3824 61.3145C61.4999 62.7812 58.2196 63.4155 55.0336 65.1303C53.9253 65.7303 54.5948 66.6239 54.4572 67.6082C54.4572 68.4773 54.4269 69.3503 54.4572 70.2194C54.4572 70.6006 54.2941 70.9399 54.3131 71.3135C54.3778 71.6919 54.3778 72.0787 54.3131 72.4571C52.4476 78.8682 54.0306 86.9187 53.8277 93.5263C53.8277 93.9494 53.8505 93.938 54.0704 94.506C54.2583 95.0029 54.7353 95.6441 54.5628 96.1974C54.4943 96.4172 54.286 96.7218 54.0249 96.7246C53.6874 96.7246 53.3499 96.7246 53.0124 96.7246C52.6749 96.7246 52.4322 96.8732 52.1137 96.8656C50.8054 96.8389 49.4933 96.8656 48.185 96.8656C47.9621 96.8581 47.7398 96.8917 47.529 96.9647C47.2274 97.0793 46.2838 96.8454 46.5203 96.37C46.7223 96.0884 47.0361 95.8944 47.3773 95.8402C48.1357 95.6648 48.8941 95.4056 49.6715 95.2531C50.4581 95.0925 51.3624 95.0128 52.0985 94.6813C52.5481 94.4373 52.546 93.9843 52.546 93.5415L52.5687 83.3748ZM54.3434 63.4302C54.3434 63.5598 54.2979 63.6322 54.5217 63.5445C57.1622 62.4827 59.9214 61.7218 62.4814 60.4606C62.7203 60.3462 62.7809 60.1556 62.6482 59.965C62.3411 59.519 62.0415 59.0654 61.7078 58.6384C59.5298 55.8323 57.0157 53.3011 54.863 50.4806C54.7607 50.3392 54.6275 50.4328 54.5975 50.5721C54.4023 54.8737 54.3434 59.1299 54.3434 63.4302Z" fill="white"/>
</svg>
