<svg width="100" height="100" viewBox="0 0 100 100" fill="none" xmlns="http://www.w3.org/2000/svg">
<circle cx="50" cy="50" r="50" fill="#EB1B2A"/>
<path fill-rule="evenodd" clip-rule="evenodd" d="M24.7829 12.2773C25.7304 12.2773 47.2846 23.7329 53.338 29.3151C55.8575 32.6631 54.2873 42.1396 56.4918 44.7756C57.6629 45.2116 58.7989 44.2062 60.1193 43.9867C64.3575 43.2751 68.266 46.9005 69.4282 49.3498C68.3046 50.4058 62.6438 49.0347 61.5411 51.7156C60.5944 55.66 67.5118 57.8356 69.1135 62.2845C70.2069 69.5885 66.3326 83.8427 63.434 88C63.2233 88 63.0131 88 62.8033 88C60.3677 84.0796 59.8549 78.8738 59.0171 73.1698C58.9118 71.4356 58.8064 69.6996 58.7006 67.9636C54.2842 64.8089 49.4802 59.1311 47.8153 57.3947C45.6091 58.6311 41.3869 62.8307 39.77 61.1813C39.2571 59.8965 33.3393 50.8067 34.8793 49.5071C37.8242 49.4013 40.7695 49.2964 43.7131 49.1911C43.8722 49.0867 44.0282 48.9818 44.1878 48.8787C43.4504 44.3013 42.2424 39.7262 41.9793 35.1516C40.2958 33.8369 38.6131 32.5218 36.93 31.2071C33.162 28.2173 22.6113 19.0742 24.1526 12.7485C24.3629 12.592 24.7829 12.2773 24.7829 12.2773Z" fill="#FBFBFA"/>
</svg>
