<svg width="100" height="100" viewBox="0 0 100 100" fill="none" xmlns="http://www.w3.org/2000/svg">
<path d="M46.4865 0.267942C40.0711 0.706611 33.2433 2.56061 27.4822 5.44788C24.5377 6.90567 21.2659 9.02866 18.3499 11.3496C16.4581 12.8499 12.5178 16.7844 10.9673 18.7233C5.86055 25.1063 2.40412 32.4376 0.867698 40.0946C0.0853341 44.0149 0 45.0055 0 50.0015C0 53.7238 0.0568894 55.0117 0.256002 56.3703C1.66429 65.8953 4.86485 73.4248 10.6827 80.9259C12.2475 82.9357 16.5577 87.2664 18.5633 88.8515C23.613 92.8144 28.4069 95.3902 34.3528 97.3433C46.9274 101.49 60.7113 100.457 72.5319 94.5127C80.0853 90.7197 86.7283 84.8746 91.4793 77.8829C95.4765 71.9953 97.98 65.867 99.2745 58.8472C99.8719 55.5637 100 54.0351 100 50.0015C100 45.1188 99.6159 42.0052 98.5064 37.6177C96.1166 28.22 90.6685 19.3036 83.3855 12.8782C73.115 3.80614 60.0711 -0.652118 46.4865 0.267942ZM55.32 3.72123C61.451 4.42877 67.4253 6.36781 72.8021 9.36828C84.7936 16.0626 93.4138 27.8946 95.9317 41.156C96.4295 43.8026 96.4864 43.477 95.4196 43.6752C92.4892 44.2271 87.8235 47.0294 79.5305 53.2568C76.7508 55.3357 73.9723 57.4162 71.1949 59.4982C65.1635 64.0272 63.1578 65.2302 59.9714 66.3058C58.7339 66.7304 58.2076 66.8294 57.0412 66.8719C55.7753 66.9285 55.5476 66.9002 54.9786 66.603C54.0826 66.136 53.7695 65.5416 53.7838 64.296C53.798 63.0789 53.9544 62.5411 55.2347 59.484C56.4439 56.5969 56.5861 56.0307 56.515 54.7712C56.4581 53.5823 56.0455 52.9595 55.0214 52.4641C53.481 51.6793 51.3942 52.233 49.8577 52.7331C42.0198 55.2382 36.2304 56.2996 30.2702 56.2996C24.808 56.2996 20.8677 55.4646 16.7852 53.4266C14.6657 52.3792 13.0014 51.1904 11.1095 49.3647C8.59178 46.9304 6.99861 44.6942 5.3201 41.2409L4.43818 39.4151L4.60885 38.5517C4.83641 37.4478 5.78944 34.5323 6.47225 32.8056C11.0811 21.3558 20.1991 12.0433 31.5504 7.18868C36.6288 5.02323 41.3513 3.93349 47.6528 3.45224C48.9473 3.35318 53.5562 3.52299 55.32 3.72123ZM4.90739 53.9783C7.80929 56.2853 11.1663 58.1111 14.6655 59.2575C18.5631 60.5454 21.849 61.1115 25.4053 61.1115C30.6115 61.1115 35.263 59.951 44.5232 56.3277C46.7139 55.4787 49.2459 54.5445 50.142 54.2473C52.9017 53.3557 54.6087 53.4265 54.9928 54.4313C55.2203 55.0256 54.8362 56.3277 53.6841 58.7479C52.1336 62.0598 51.8064 63.1211 51.7921 65.0036C51.778 66.801 52.0056 67.4803 52.9017 68.3721C54.0824 69.5467 55.5901 69.9429 58.4636 69.8439C61.7068 69.7307 64.0112 69.0232 68.6057 66.7727C72.7024 64.763 75.6186 63.0647 81.9344 59.0168C87.2687 55.5776 89.3029 54.4454 91.5361 53.667C92.802 53.2284 95.0781 53.0584 96.0737 53.3274L96.6854 53.4831C96.5121 55.133 96.3505 56.796 96.0169 58.4224C95.9457 58.7762 95.9316 58.7762 94.4949 58.7338C91.4223 58.6347 89.2885 59.4414 82.6456 63.2202C74.1109 68.0748 67.5247 70.7638 61.5218 71.8112C59.6726 72.1367 56.6285 72.1367 55.4052 71.8254C52.6315 71.0894 50.9814 69.5326 50.3413 67.0417C49.8576 65.1877 50.2844 63.2911 51.9344 59.8944C53.3995 56.8798 53.4992 56.4834 52.9586 55.8042C52.6741 55.4363 52.6173 55.422 51.6499 55.4786C50.3413 55.5493 49.8434 55.7616 43.172 58.9886C37.3825 61.7908 35.4337 62.626 32.7879 63.4184C29.3454 64.4517 26.7709 64.8479 23.3995 64.8338C19.1606 64.8196 15.3483 63.9987 11.1663 62.2155C8.4352 61.0549 4.19613 58.6772 3.92591 58.1536C3.81213 57.9412 3.45644 55.4504 3.27168 53.4689C3.18621 52.5914 3.18621 52.5631 3.44235 52.7754C3.58457 52.9028 4.2388 53.4406 4.90739 53.9783ZM51.337 58.2809C50.5688 59.5972 49.4167 61.9749 49.0183 63.0647C47.3825 67.4803 48.0368 71.2309 50.8106 73.2832C53.741 75.4343 58.9471 75.958 65.5049 74.7551C69.317 74.0474 72.2473 73.1983 79.4877 70.6789C84.5801 68.8957 87.1549 68.1031 89.189 67.6927C90.5119 67.4237 92.8873 67.3531 93.115 67.5795C93.2857 67.7493 92.29 70.0987 91.2373 71.981C90.7395 72.8868 90.6115 73.0142 90.3555 72.9434C89.5447 72.7029 88.0795 72.5755 87.0552 72.6463C84.4948 72.8444 81.9487 73.3398 73.6841 75.2645C69.2459 76.2978 65.32 77.0478 63.0865 77.3026C59.2175 77.7554 55.7323 77.5149 53.1008 76.6233C51.3227 76.0289 50.3128 75.4202 49.1463 74.2738C46.5148 71.6697 46.1308 67.5228 48.1364 63.1071C49.0325 61.1399 49.2317 60.4039 49.0183 59.9934C48.6201 59.2576 47.3683 59.9085 44.8078 62.173C42.8021 63.9563 39.8719 66.3481 38.3925 67.4237C36.2872 68.9523 33.0724 70.9479 31.4081 71.7403C28.7197 73.0425 25.1492 74.0191 21.5504 74.4295C18.2928 74.8116 12.8449 74.571 10.3982 73.9484C9.72957 73.7786 9.70113 73.7503 9.0041 72.5047C8.60587 71.7971 8.0084 70.6365 7.66706 69.9146C6.95581 68.4004 6.85625 68.4711 8.97565 68.8958C16.97 70.5374 22.7025 70.7497 27.738 69.575C32.7737 68.4145 38.0226 65.7395 43.6556 61.4654C46.9841 58.9462 49.0041 57.6299 50.3982 57.0638C51.5772 56.5735 52.0545 57.0255 51.337 58.2809ZM46.8988 63.3335C45.6755 66.2066 45.3909 67.2115 45.1776 69.292C44.9358 71.6414 45.3909 73.8492 46.4721 75.5192C49.7722 80.6003 58.748 82.2844 74.1109 80.7135C78.748 80.2323 80.9529 80.1331 82.4322 80.3455C83.684 80.5295 84.7083 80.8691 84.7083 81.0814C84.7083 81.2655 82.4181 83.629 81.5502 84.3509L80.8818 84.9027L79.132 84.6905C76.6712 84.3791 72.6882 84.181 68.8476 84.181C59.9572 84.1668 55.903 83.6572 52.034 82.0722C49.9571 81.2089 48.5348 80.303 47.1549 78.9442C45.8035 77.5856 45.1776 76.6374 44.5375 74.9389L44.0966 73.7786V70.5233C44.0966 67.5086 44.0824 67.2681 43.8406 67.2256C43.3853 67.1407 42.6883 67.8482 41.3797 69.6882C38.0652 74.4012 35.7751 77.0336 33.0013 79.3406C29.0041 82.6667 24.7794 84.4639 20.4409 84.7046L18.8193 84.7895L16.9131 82.8931C15.8605 81.8598 15.007 80.954 15.007 80.9116C15.007 80.8691 15.5618 80.7842 16.2587 80.7276C21.465 80.3171 26.97 78.6612 31.3085 76.1846C34.8221 74.1748 36.6286 72.618 40.3981 68.4004C44.6087 63.6874 47.1691 61.2105 47.4822 61.5218C47.5531 61.5927 47.3256 62.3145 46.8988 63.3335ZM42.9301 70.1978C42.731 71.5565 42.8163 74.9532 43.0867 76.2411C43.9259 80.2181 46.0453 82.9355 50.1706 85.2991C53.6983 87.3229 57.5959 88.5826 65.6471 90.3375C69.5162 91.1725 70.7679 91.498 70.7679 91.6538C70.7679 91.7104 70.1706 92.0217 69.445 92.3472C57.7239 97.6263 44.7367 97.98 32.859 93.3521C30.953 92.602 26.529 90.4507 26.529 90.2808C26.529 90.2242 27.2118 89.7147 28.0653 89.1627C31.7922 86.7143 34.6371 83.9262 36.9842 80.4163C37.4962 79.6662 39.0042 76.8921 40.3412 74.2597C41.6784 71.613 42.8305 69.4618 42.9016 69.4618C42.987 69.4618 43.0013 69.7591 42.9301 70.1978Z" fill="#D7000F"/>
<path d="M21.0953 19.983C19.3599 20.2519 18.8194 20.3935 19.0043 20.535C19.0327 20.5633 19.5732 20.818 20.1849 21.1152C20.9957 21.5114 21.6216 21.9644 22.4467 22.7428C23.5561 23.8043 23.8549 24.2006 27.0271 29.0833C28.1792 30.8384 29.6444 32.4519 30.8676 33.2727C32.6885 34.504 36.0171 35.7212 41.2375 37.0656C43.0299 37.5186 44.8506 38.0563 45.2915 38.2546C46.4154 38.7781 47.8663 40.2359 47.8663 40.8728C47.8663 40.9577 47.4965 41.0143 46.97 41.0143C45.8463 41.0143 44.8791 41.2973 43.9545 41.8777C43.5704 42.1324 42.9872 42.3731 42.6884 42.4155C41.8776 42.5429 41.9061 42.7834 42.7738 43.0807C43.1864 43.2081 43.7552 43.4628 44.0256 43.6327C44.7511 44.0856 46.3727 44.6376 47.724 44.8923C49.9715 45.3168 52.0056 45.1187 54.0113 44.2696C54.5803 44.029 55.4196 43.7884 55.8606 43.7459C56.5575 43.6752 56.7852 43.7176 57.4396 44.0573L58.2076 44.4393L58.9331 44.0714C60.0996 43.4771 59.7865 43.1656 57.1977 42.3731C55.3485 41.7928 54.7084 41.3682 54.9644 40.887C55.0497 40.7455 55.4338 40.3776 55.8321 40.0945C56.2304 39.7972 57.4679 38.5376 58.5917 37.2779C61.0953 34.4757 63.7979 31.8715 65.3343 30.7817C66.6572 29.8335 69.0327 28.6022 70.2417 28.22C70.9245 28.0078 71.394 27.9795 72.9445 28.0219C75.1209 28.1068 76.2874 28.3615 77.8094 29.1258L78.862 29.6495L79.4737 29.3523C80.2845 28.9561 81.8492 27.3991 82.3327 26.4792C82.5462 26.083 82.8449 25.262 83.0013 24.6535C83.2858 23.5636 83.3855 21.6247 83.172 21.6247C83.1009 21.6247 82.3187 22.1059 81.4224 22.7145C77.5534 25.2903 74.4381 26.2245 68.9189 26.4368C65.505 26.5641 64.1963 26.7764 62.0625 27.5123C57.8662 28.9701 54.2958 31.6875 51.522 35.5372C51.0811 36.1316 50.5263 36.9807 50.2845 37.3912C49.7582 38.3112 49.9573 38.3395 47.0413 36.91C42.4751 34.6455 39.5874 32.1971 34.4808 26.2953C33.101 24.696 31.5078 22.9409 30.9247 22.389C29.7155 21.2284 28.0512 20.1104 27.1266 19.8415C26.1736 19.5442 23.3855 19.6151 21.0953 19.983Z" fill="#D7000F"/>
</svg>
