<svg width="100" height="100" viewBox="0 0 100 100" fill="none" xmlns="http://www.w3.org/2000/svg">
<path fill-rule="evenodd" clip-rule="evenodd" d="M26.078 40.9249L37.1702 37.7532C37.1702 37.7532 37.0513 37.0117 36.6537 36.6477C36.2559 36.2836 35.5405 36.0585 35.5405 36.0585L20.1235 30.4529C20.1235 30.4529 19.6341 30.2883 19.2765 30.4865C18.9189 30.6845 18.9315 31.1995 18.9315 31.1995V38.3762C18.9315 38.3762 18.8931 39.0633 19.8873 40.6035C20.8816 42.1434 23.2366 41.7512 23.2366 41.7512L26.078 40.9249ZM70.235 23.6091L80.5532 17.8224C80.5532 17.8224 80.7085 16.8226 80.3108 16.4585C79.913 16.0945 79.4396 15.9824 79.4396 15.9824L34.8778 0.0641594C34.8778 0.0641594 34.3883 -0.100492 34.0307 0.0977353C33.6732 0.295801 33.6857 0.8109 33.6857 0.8109V6.99871C33.6857 6.99871 33.6796 8.43246 34.6738 9.97259C35.6681 11.5126 37.2813 11.9113 37.2813 11.9113L70.235 23.6091ZM70.235 41.6206L80.5532 36.2698C80.5532 36.2698 80.773 34.9148 80.3753 34.5508C79.9775 34.1868 79.4396 33.994 79.4396 33.994L20.1227 12.4264C20.1227 12.4264 19.6333 12.2617 19.2756 12.46C18.9181 12.6582 18.9307 13.1734 18.9307 13.1734V19.3611C18.9307 19.3611 18.9246 20.7948 19.9187 22.335C20.9131 23.8751 22.5263 24.2738 22.5263 24.2738L70.235 41.6206Z" fill="#ED1651"/>
<path fill-rule="evenodd" clip-rule="evenodd" d="M79.5088 15.9976C79.5088 15.9976 80.1111 16.0891 80.6219 16.5867C81.1328 17.0844 81.1384 17.6923 81.1384 17.6923V25.8852C81.1384 25.8852 81.1139 27.0045 80.6553 28.0111C80.1965 29.0177 79.5249 29.2558 79.5249 29.2558L78.1273 29.764L33.5945 45.9563C33.5945 45.9563 33.3803 46.0225 33.1019 46.0225C32.8232 46.0225 32.6091 45.9563 32.6091 45.9563L20.2014 41.4447C20.2014 41.4447 19.8936 41.373 19.4569 40.6881C18.9651 39.9197 19.0006 38.3943 19.0006 38.3943C19.0006 38.3943 19.0776 39.1765 19.5192 39.5478C19.9607 39.9191 21.1377 39.5117 21.1377 39.5117L78.1276 18.7898C78.1276 18.7898 80.3905 17.8659 80.3905 16.927C80.3905 16.2786 79.5089 16.0003 79.5089 16.0003L79.5088 15.9976ZM79.5088 34.0091C79.5088 34.0091 80.1111 34.1006 80.6219 34.5983C81.1328 35.0959 81.1384 35.7039 81.1384 35.7039V43.8967C81.1384 43.8967 81.1139 45.016 80.6553 46.0226C80.1965 47.0293 79.5249 47.2674 79.5249 47.2674L78.1273 47.7755L33.5945 63.9678V52.9911L78.1273 36.7988C78.1273 36.7988 80.3902 35.8748 80.3902 34.936C80.3902 34.2875 79.5088 34.0091 79.5088 34.0091ZM57.402 62.8456C57.8282 63.2722 57.8282 64.2112 57.8282 64.2112V70.3377C57.8282 70.3377 57.8037 71.457 57.3451 72.4636C56.8863 73.4703 56.2147 73.7082 56.2147 73.7082L54.8171 74.2167L33.594 81.9337V70.9569L54.8171 63.2398C54.8171 63.2398 56.9758 62.419 57.402 62.8456ZM43.7113 85.7547C44.1375 86.1813 44.1375 87.1203 44.1375 87.1203V93.2468C44.1375 93.2468 44.113 94.3661 43.6544 95.3727C43.1956 96.3794 42.524 96.6173 42.524 96.6173L41.1263 97.1256L33.594 100V89.0233L41.1263 86.1489C41.1263 86.1489 43.2851 85.3281 43.7113 85.7547Z" fill="#2A0088"/>
</svg>
