<svg width="100" height="100" viewBox="0 0 100 100" fill="none" xmlns="http://www.w3.org/2000/svg">
<path d="M8.19142 14.4972C2.75901 19.5205 0 25.9043 0 33.4773C0 39.7469 1.8552 45.6835 5.50851 51.1255C8.61954 55.7111 14.1756 61.6097 22.4812 69.1447L35.382 81.2463C37.7509 82.9968 41.0808 82.6543 43.0026 80.5137C45.0005 78.2875 44.8863 74.7769 42.6981 72.6363C36.0004 66.5854 37.0279 67.4798 30.3396 61.4194C23.3755 55.1784 18.5044 49.9077 15.8405 45.7692C13.3289 41.8495 12.054 37.8441 12.054 33.8483C12.054 29.1485 13.6524 25.4191 16.9346 22.4507C20.293 19.4158 24.2222 17.9412 28.9506 17.9412C33.679 17.9412 37.9127 19.1589 41.566 21.5659C43.8588 23.1452 46.1992 25.3715 48.5777 28.2161C48.5587 28.2161 48.5491 28.2161 48.5301 28.2161C49.1866 29.0724 50.3377 30.7944 50.7754 33.268C51.3557 36.5027 50.3663 39.0714 49.9286 40.0609C51.7934 40.0609 54.4001 39.1856 56.5027 36.8927C58.6243 34.5809 61.2501 25.8757 55.5038 19.1399C55.5038 19.1399 55.4942 19.1304 55.4847 19.1209C54.0101 17.4084 52.545 15.3724 48.0734 12.3946C42.622 8.8174 35.9814 7.00977 28.3322 7.00977C20.6831 7.00977 13.5858 9.53094 8.20093 14.4972" fill="white"/>
<path d="M8.19142 14.4972C2.75901 19.5205 0 25.9043 0 33.4773C0 39.7469 1.8552 45.6835 5.50851 51.1255C8.61954 55.7111 14.1756 61.6097 22.4812 69.1447L35.382 81.2463C37.7509 82.9968 41.0808 82.6543 43.0026 80.5137C45.0005 78.2875 44.8863 74.7769 42.6981 72.6363C36.0004 66.5854 37.0279 67.4798 30.3396 61.4194C23.3755 55.1784 18.5044 49.9077 15.8405 45.7692C13.3289 41.8495 12.054 37.8441 12.054 33.8483C12.054 29.1485 13.6524 25.4191 16.9346 22.4507C20.293 19.4158 24.2222 17.9412 28.9506 17.9412C33.679 17.9412 37.9127 19.1589 41.566 21.5659C43.8588 23.1452 46.1992 25.3715 48.5777 28.2161C48.5587 28.2161 48.5491 28.2161 48.5301 28.2161C49.1866 29.0724 50.3377 30.7944 50.7754 33.268C51.3557 36.5027 50.3663 39.0714 49.9286 40.0609C51.7934 40.0609 54.4001 39.1856 56.5027 36.8927C58.6243 34.5809 61.2501 25.8757 55.5038 19.1399C55.5038 19.1399 55.4942 19.1304 55.4847 19.1209C54.0101 17.4084 52.545 15.3724 48.0734 12.3946C42.622 8.8174 35.9814 7.00977 28.3322 7.00977C20.6831 7.00977 13.5858 9.53094 8.20093 14.4972" fill="url(#paint0_linear_2099_3008)"/>
<path d="M8.19142 14.4972C2.75901 19.5205 0 25.9043 0 33.4773C0 36.2173 0.352012 38.9002 1.05604 41.4974C1.29388 38.6243 2.14061 33.7817 5.42289 29.0914C13.1767 17.9792 27.3999 17.9221 28.9411 17.9412C33.6505 17.9412 37.9031 19.1589 41.5565 21.5659C43.8493 23.1452 46.1897 25.3715 48.5682 28.2161C48.5491 28.2161 48.5396 28.2161 48.5206 28.2161C49.177 29.0724 50.3282 30.7944 50.7659 33.268C51.3462 36.5027 50.3568 39.0714 49.9191 40.0609C51.7838 40.0609 54.3906 39.1856 56.4932 36.8927C58.6148 34.5809 61.2406 25.8757 55.4942 19.1399C55.4942 19.1399 55.4847 19.1304 55.4752 19.1209C54.0006 17.4084 52.5354 15.3724 48.0639 12.3946C42.6125 8.8174 35.9718 7.00977 28.3227 7.00977C20.6736 7.00977 13.5763 9.53094 8.19142 14.4972Z" fill="white"/>
<path d="M8.19142 14.4972C2.75901 19.5205 0 25.9043 0 33.4773C0 36.2173 0.352012 38.9002 1.05604 41.4974C1.29388 38.6243 2.14061 33.7817 5.42289 29.0914C13.1767 17.9792 27.3999 17.9221 28.9411 17.9412C33.6505 17.9412 37.9031 19.1589 41.5565 21.5659C43.8493 23.1452 46.1897 25.3715 48.5682 28.2161C48.5491 28.2161 48.5396 28.2161 48.5206 28.2161C49.177 29.0724 50.3282 30.7944 50.7659 33.268C51.3462 36.5027 50.3568 39.0714 49.9191 40.0609C51.7838 40.0609 54.3906 39.1856 56.4932 36.8927C58.6148 34.5809 61.2406 25.8757 55.4942 19.1399C55.4942 19.1399 55.4847 19.1304 55.4752 19.1209C54.0006 17.4084 52.5354 15.3724 48.0639 12.3946C42.6125 8.8174 35.9718 7.00977 28.3227 7.00977C20.6736 7.00977 13.5763 9.53094 8.19142 14.4972Z" fill="url(#paint1_linear_2099_3008)"/>
<path d="M71.6392 7C63.9901 7 57.3494 8.80763 51.898 12.3848C49.0417 14.3006 46.7126 16.5308 44.4772 19.1206C44.4772 19.1206 44.4677 19.1397 44.4582 19.1397C38.7213 25.8755 41.3471 34.5806 43.4592 36.8925C45.5618 39.1853 48.1686 40.0606 50.0333 40.0606C48.3096 36.1636 48.8407 31.5955 51.4318 28.2159C53.8008 25.3807 56.1507 23.1545 58.434 21.5752C62.0873 19.1682 66.3305 17.9504 71.0493 17.9504C75.7682 17.9504 79.7069 19.4251 83.0653 22.46C86.3476 25.4283 87.9459 29.1482 87.9459 33.8576C87.9459 37.8534 86.6711 41.8682 84.1594 45.7784C81.4955 49.9265 76.6245 55.1876 69.6603 61.4287L46.38 84.6044C45.3359 85.6483 44.7341 87.0729 44.7341 88.5526C44.7341 91.6256 47.2267 94.1087 50.2901 94.1087C51.781 94.1087 53.2063 93.4949 54.2574 92.4438L77.5188 69.1444C85.8243 61.5999 91.3709 55.7109 94.4915 51.1252C98.1448 45.6833 100 39.7466 100 33.477C100 25.9135 97.241 19.5297 91.8086 14.4969C86.4237 9.52117 79.6594 7.00951 71.6773 7.00951H71.6487" fill="url(#paint2_linear_2099_3008)"/>
<defs>
<linearGradient id="paint0_linear_2099_3008" x1="-0.927103" y1="43.1745" x2="55.9663" y2="43.1745" gradientUnits="userSpaceOnUse">
<stop stop-color="#88171A"/>
<stop offset="0.45" stop-color="#DA1F28"/>
<stop offset="1" stop-color="#F1564C"/>
</linearGradient>
<linearGradient id="paint1_linear_2099_3008" x1="-0.926953" y1="22.0781" x2="55.9572" y2="22.0781" gradientUnits="userSpaceOnUse">
<stop stop-color="#F1564C"/>
<stop offset="0.55" stop-color="#DA1F28"/>
<stop offset="1" stop-color="#88171A"/>
</linearGradient>
<linearGradient id="paint2_linear_2099_3008" x1="64.2077" y1="21.4986" x2="86.8775" y2="67.0168" gradientUnits="userSpaceOnUse">
<stop stop-color="#EA2026"/>
<stop offset="0.13" stop-color="#EA2026"/>
<stop offset="0.27" stop-color="#A12F3F"/>
<stop offset="0.57" stop-color="#055075"/>
<stop offset="1" stop-color="#055075"/>
</linearGradient>
</defs>
</svg>
