<svg width="100" height="100" viewBox="0 0 100 100" fill="none" xmlns="http://www.w3.org/2000/svg">
<path d="M80.0234 57.2266C87.8359 56.4453 94.0859 56.4453 94.0859 56.4453C94.0859 56.4453 87.8359 56.4453 80.6094 55.4688C82.9531 48.2422 82.5625 41.2109 79.4375 35.9375C86.4687 29.8828 92.9141 25.1953 92.9141 25.1953C92.9141 25.1953 86.4687 29.8828 78.6562 34.5703C75.5312 30.0781 70.4531 27.3438 64.3984 26.5625C66.1562 19.7266 68.5 11.9141 71.0391 3.71094L69.2812 0C65.375 9.57031 61.4687 18.75 57.7578 26.5625C50.9219 27.1484 43.6953 30.0781 37.4453 34.375C33.3437 29.6875 30.4141 25.1953 30.4141 25.1953C30.4141 25.1953 33.1484 29.6875 35.6875 35.5469C28.8516 40.8203 23.3828 47.6563 20.4531 55.2734C12.4453 56.0547 6 56.25 6 56.25C6 56.25 12.4453 56.4453 19.6719 57.4219C17.5234 64.4531 17.9141 71.0938 21.0391 76.1719C13.8125 82.4219 7.36719 87.1094 7.36719 87.1094C7.36719 87.1094 14.0078 82.4219 22.0156 77.7344C25.5313 82.4219 31 85.3516 37.6406 85.7422C35.6875 93.3594 33.5391 100 33.5391 100C33.5391 100 35.8828 93.5547 39.5937 85.9375C47.2109 85.9375 55.0234 83.0078 62.0547 78.3203C66.1562 82.8125 69.2812 87.1094 69.2812 87.1094C69.2812 87.1094 66.5469 82.6172 64.0078 76.9531C71.2344 72.0703 77.0937 65.0391 80.0234 57.2266ZM76.7031 54.8828C74.75 54.4922 72.6016 54.1016 70.8437 53.7109C71.625 50.3906 71.4297 47.0703 70.2578 44.3359C72.2109 42.3828 74.3594 40.4297 76.5078 38.4766C78.6562 43.1641 78.8516 48.8281 76.7031 54.8828ZM63.2266 30.4688C68.3047 31.0547 72.6016 33.2031 75.1406 36.7188C72.7969 38.0859 70.2578 39.4531 67.7187 40.8203C66.1562 39.0625 64.0078 37.8906 61.6641 37.3047C62.0547 35.1563 62.6406 33.0078 63.2266 30.4688ZM61.2734 39.8438C62.8359 40.2344 64.2031 41.0156 65.375 41.9922C63.6172 42.7734 62.0547 43.5547 60.4922 43.9453C60.6875 42.7734 60.8828 41.4063 61.2734 39.8438ZM81 33.9844C81 33.9844 69.0859 42.5781 62.4453 50.1953C61.8594 49.6094 61.2734 49.2188 60.8828 48.6328C60.6875 48.2422 60.4922 47.4609 60.4922 46.2891C69.2812 42.1875 81 33.9844 81 33.9844ZM64.0078 51.3672C65.1797 49.8047 66.5469 48.0469 68.1094 46.4844C68.6953 48.4375 68.6953 50.7813 68.3047 53.125C66.7422 52.5391 65.1797 51.9531 64.0078 51.3672ZM65.7656 59.5703C64.3984 61.9141 62.6406 63.8672 60.6875 65.8203C60.4922 64.2578 60.2969 62.8906 60.2969 61.3281C62.0547 60.7422 63.8125 60.1563 65.7656 59.5703ZM59.7109 56.25C57.7578 61.3281 52.0938 65.625 46.8203 65.625C41.7422 65.625 39.0078 61.5234 40.9609 56.25C42.9141 51.1719 48.5781 46.875 53.8516 46.875C58.9297 46.875 61.6641 51.1719 59.7109 56.25ZM50.5312 68.5547C51.7031 69.1406 52.875 69.7266 53.8516 70.7031C51.7031 71.875 49.3594 72.6563 47.2109 73.0469C48.3828 71.4844 49.3594 69.9219 50.5312 68.5547ZM48.9687 43.9453C47.9922 43.5547 47.0156 42.9688 46.2344 42.3828C47.7969 41.4063 49.5547 40.8203 51.3125 40.2344C50.3359 41.6016 49.75 42.7734 48.9687 43.9453ZM56 30.8594C54.8281 33.2031 53.8516 35.3516 52.875 37.3047C49.9453 37.8906 46.8203 39.0625 44.0859 40.8203C42.9141 39.8438 41.5469 38.6719 40.375 37.5C45.2578 33.9844 50.5312 31.6406 56 30.8594ZM47.4062 46.2891C46.625 47.2656 45.8437 48.2422 45.2578 48.6328C44.4766 49.2188 43.5 49.8047 42.5234 50.1953C41.3516 42.5781 36.0781 33.9844 36.0781 33.9844C36.0781 33.9844 41.3516 42.3828 47.4062 46.2891ZM34.9062 52.9297C36.0781 50.7813 37.6406 48.8281 39.3984 47.2656C39.5937 48.6328 39.7891 50 39.7891 51.3672C38.4219 51.9531 36.6641 52.5391 34.9062 52.9297ZM36.0781 61.5234C35.1016 62.8906 33.7344 64.4531 32.3672 65.8203C31.9766 64.0625 31.7813 62.1094 32.1719 59.9609C33.7344 60.5469 34.9063 60.9375 36.0781 61.5234ZM37.4453 39.4531C38.0312 41.0156 38.6172 42.7734 39.0078 44.3359C35.8828 47.0703 33.3437 50.1953 31.7812 53.7109C29.6328 54.1016 27.4844 54.4922 25.3359 54.8828C27.875 49.0234 32.1719 43.75 37.4453 39.4531ZM23.7734 58.2031C25.7266 58.5938 27.875 58.9844 29.6328 59.375C29.0469 62.5 29.2422 65.4297 30.2188 67.9687C28.2656 69.9219 26.1172 71.875 23.9688 73.8281C22.0156 69.5312 22.0156 64.0625 23.7734 58.2031ZM19.2812 78.7109C19.2812 78.7109 31 70.1172 37.8359 62.5C38.4219 62.8906 39.0078 63.4766 39.3984 64.0625C39.7891 64.6484 39.9844 65.4297 40.1797 66.4063C31.3906 70.5078 19.2812 78.7109 19.2812 78.7109ZM38.8125 82.2266C33.1484 82.0313 28.4609 79.6875 25.7266 75.9766C28.2656 74.6094 30.6094 73.2422 33.1484 71.875C34.9063 73.6328 37.25 75 40.1797 75.5859C39.5937 77.7344 39.2031 80.0781 38.8125 82.2266ZM40.375 73.0469C38.4219 72.6563 36.8594 71.875 35.4922 70.7031C37.25 69.9219 39.0078 69.1406 40.5703 68.5547C40.5703 69.9219 40.375 71.4844 40.375 73.0469ZM41.9375 82.2266C43.1094 80.0781 44.2812 77.9297 45.4531 75.9766C48.9687 75.5859 52.6797 74.4141 56 72.4609C57.1719 73.4375 58.5391 74.6094 59.7109 75.7812C54.2422 79.4922 47.9922 81.8359 41.9375 82.2266ZM52.4844 66.4063C53.2656 65.625 54.2422 64.8437 55.0234 64.0625C55.8047 63.4766 56.7812 62.8906 57.7578 62.5C58.9297 70.1172 64.2031 78.7109 64.2031 78.7109C64.2031 78.7109 58.3437 70.5078 52.4844 66.4063ZM62.8359 73.4375C62.25 71.875 61.6641 70.1172 61.2734 68.5547C64.3984 65.8203 67.1328 62.5 68.8906 58.7891C71.0391 58.3984 73.1875 58.0078 75.3359 57.6172C72.7969 63.8672 68.3047 69.3359 62.8359 73.4375Z" fill="#0668AA"/>
</svg>
