<svg width="100" height="100" viewBox="0 0 100 100" fill="none" xmlns="http://www.w3.org/2000/svg">
<path d="M34.8431 0.131196C35.5781 -0.132222 36.397 0.00816134 37.0023 0.501313C38.1997 1.47705 37.697 3.26218 37.6527 4.60483C37.6082 5.9543 37.6329 7.85747 37.9124 10.0453C38.4748 14.4456 40.044 19.8334 43.973 24.2474C48.2929 29.0999 50.6007 34.8252 51.8421 39.5003C61.2719 40.8555 69.2744 46.1955 74.0638 53.6117C75.2645 54.0488 76.5406 54.7122 77.6722 55.724C80.1991 55.523 82.7988 55.1936 85.3245 55.4974C87.3816 55.7448 92.9215 56.4117 97.5687 61.6439C98.337 62.5092 98.3147 63.8183 97.5179 64.6576C96.7223 65.4955 95.4188 65.5866 94.515 64.8675L94.512 64.8656C93.5977 64.1575 92.5815 63.5653 91.5482 63.0521C89.6649 62.1169 87.2613 61.2957 84.8245 61.3929C82.3732 61.4905 80.2217 62.4549 78.2318 63.7503C78.7328 66.1714 78.9368 68.6895 78.8031 71.265C77.9315 88.038 63.137 100.884 45.7591 99.9525C34.4909 99.3524 24.904 93.1045 19.7904 84.2132C19.7531 84.2125 19.7154 84.2131 19.6781 84.2122C17.2997 84.1557 14.7423 83.6407 12.8167 82.1566C11.9726 82.0022 10.4841 81.6626 8.8304 80.9369C6.38312 79.8629 3.31826 77.812 1.99349 74.0199C1.74925 73.3205 1.86861 72.5451 2.31185 71.9515C3.0934 70.905 4.30483 71.0637 5.44857 71.1175C7.91509 71.2318 10.3829 71.3554 12.8529 71.3372C13.4723 71.3075 14.5375 71.2471 15.8704 71.099C15.8111 70.0438 15.807 68.9758 15.8626 67.8978C16.2397 60.6845 19.1903 54.1982 23.8128 49.221C22.9591 47.7029 22.2445 45.7504 22.3167 43.5091C22.3314 43.0527 22.4847 42.6232 22.7415 42.2699C20.8462 39.5833 19.1334 36.3777 18.7376 33.3812C18.6481 32.7031 18.8754 32.0422 19.3197 31.5667C18.8475 30.4269 18.5022 29.2014 18.4564 27.974C18.4172 26.9184 19.156 25.9571 20.1829 25.7201C19.4101 23.5808 18.8869 21.2688 19.0033 19.0443C19.0496 18.159 19.6165 17.3848 20.4466 17.0736C21.597 16.6423 22.5463 17.312 23.3079 18.1087C22.7256 14.7962 22.2623 11.0598 22.5482 8.46811C22.6705 7.35904 23.5948 6.51143 24.7103 6.48471C25.4371 6.46734 26.0991 6.80204 26.5208 7.34213C26.479 5.96452 26.5903 4.60582 26.9076 3.30698C27.1501 2.31408 28.0369 1.61288 29.0589 1.60678C30.0809 1.60075 30.9764 2.29077 31.2308 3.28061L31.9554 6.1019C32.2974 4.47332 32.5797 2.50972 33.5667 1.12729C33.72 0.912626 34.1224 0.389533 34.8431 0.131196Z" fill="white"/>
<path d="M17.413 67.8885C16.5858 83.9547 29.3807 97.7057 45.9949 98.5921C62.6091 99.4843 76.7535 87.1796 77.5865 71.1134C78.4196 55.0414 65.6186 41.302 49.0044 40.4098C48.4417 40.3798 47.8784 40.3642 47.3149 40.3631C31.4399 40.3631 18.2225 52.3705 17.413 67.8885Z" fill="url(#paint0_linear_2099_3020)"/>
<path d="M52.4276 52.4217C52.8161 54.1776 53.5527 55.5207 54.7521 55.8524C57.0688 56.6193 59.1406 55.7117 61.2991 54.8222C64.5606 53.4841 68.3999 53.2833 71.8234 54.1221C73.4975 54.5322 75.6087 55.3443 77.2292 56.9794C78.1805 56.9037 79.132 56.8289 80.0843 56.7663C81.768 56.6555 83.4949 56.5005 85.1767 56.7053C87.1816 56.9494 92.3203 57.5751 96.658 62.4511C97.0076 62.8442 96.9982 63.4395 96.6363 63.8213C96.2508 64.2279 95.6473 64.2088 95.2238 63.8807C94.9808 63.694 93.7998 62.8155 92.085 61.9644C87.4246 59.6509 82.2557 59.581 77.8314 62.5242C75.0165 64.5127 71.733 66.4491 69.5137 69.1102C68.7566 70.0181 67.4217 71.6188 65.0726 73.3503C62.3505 75.3568 58.2899 77.5291 52.146 79.1543C47.6686 80.332 42.0006 80.8564 37.497 81.09C33.5584 81.2943 30.46 81.2788 29.7159 81.2713C28.6557 81.5949 27.5905 81.895 26.5104 82.1464C24.5695 82.5982 22.0142 83.0531 19.7079 82.9983C17.5206 82.9464 15.0384 82.4924 13.3284 81.0086C11.9486 80.7396 10.6068 80.3896 9.31304 79.8225C7.01961 78.8171 4.30473 76.963 3.13984 73.6191C2.90772 72.9528 3.44033 72.2402 4.14511 72.2742L4.15079 72.2744C5.48546 72.3373 6.82017 72.3993 8.15511 72.4564C9.73558 72.524 11.3236 72.6278 12.9056 72.5525C13.9266 72.5039 16.1592 72.3759 18.8233 71.9065C22.4045 71.2756 26.6439 70.0477 29.7789 67.6692C32.7406 65.4216 34.1447 63.6226 34.8087 62.4489C35.2946 61.5901 35.3878 61.065 35.4064 60.9159C35.321 60.3821 35.1404 59.8625 34.8989 59.38C34.4445 58.4723 33.6074 57.3991 32.0374 56.7324C30.0398 55.8844 27.9999 54.5 27.5555 52.0166C27.1399 51.6326 26.4 50.8931 25.6628 49.8675C24.58 48.3609 23.4478 46.1542 23.5308 43.5491C23.5471 43.0405 23.958 42.6124 24.4617 42.5717C24.3356 42.4055 24.2107 42.238 24.0872 42.0691C22.0848 39.3327 20.3175 36.1065 19.9367 33.2229C19.8604 32.6451 20.311 32.1093 20.8869 32.0787C20.2218 30.7367 19.7225 29.3031 19.6713 27.9299C19.6543 27.4749 19.9429 27.0646 20.3768 26.9267C21.2003 26.6652 21.638 27.5141 22.0436 28.0658C22.3451 28.4758 22.7674 29.0242 23.2833 29.6276C21.6683 26.6259 20.0269 22.6829 20.2111 19.1091C20.2357 18.6331 20.5888 18.2386 21.0592 18.1616C21.5294 18.0848 21.9895 18.3459 22.1646 18.7888C22.3466 19.2449 22.5656 19.6879 22.7875 20.1253C23.6837 21.8916 25.5882 25.1544 28.7454 28.407C28.481 27.9236 28.2138 27.414 27.9475 26.88C25.6743 22.321 23.445 15.9206 23.7521 8.67211C23.7742 8.15225 24.1865 7.73364 24.706 7.70376C25.2253 7.67389 25.6827 8.04216 25.7645 8.55577L25.7652 8.56013C25.885 9.27229 26.0642 9.97638 26.2555 10.672C27.0938 13.72 29.1873 19.5463 33.8093 24.9001C33.2247 23.8547 32.62 22.7188 32.0291 21.5225C30.6617 18.754 29.3558 15.6371 28.5491 12.5513C27.7461 9.47934 27.4135 6.34857 28.0871 3.59702C28.2045 3.11754 28.6504 2.7925 29.1428 2.82752C29.9097 2.88206 30.0507 3.60141 30.142 4.21714C30.1906 4.54459 30.2716 5.03268 30.4 5.66007C30.657 6.91503 31.1033 8.72606 31.8581 10.9228C32.344 12.337 32.9576 13.9104 33.7305 15.5979C32.9481 11.8495 32.8298 7.60973 34.2943 3.39497C34.4648 2.90427 34.9789 2.6221 35.4844 2.74175C36.0605 2.87811 36.2994 3.43132 36.2425 3.97321C36.2164 4.22276 36.1591 4.86734 36.1478 5.80862C36.1328 7.06469 36.1998 8.84426 36.5294 10.9199C37.1889 15.0746 38.8931 20.3755 43.0574 25.0577C47.5403 30.0914 49.7958 36.1346 50.9348 40.8776C51.5056 43.255 51.7999 45.322 51.9517 46.798C52.144 48.6676 52.02 50.5798 52.4276 52.4217Z" fill="black"/>
<path d="M7.39404 75.1537C7.39404 75.1537 14.6961 75.5437 17.5488 74.843C20.4084 74.1423 24.8578 73.1741 26.5816 72.1646C26.5816 72.1646 21.666 78.7226 14.8979 78.3602C8.12981 78.003 7.39404 75.1537 7.39404 75.1537" fill="#009450"/>
<path d="M41.396 64.6097C41.396 64.6097 45.4958 62.38 52.7666 62.9461C54.8887 63.1117 57.136 68.0786 63.0135 68.6516C65.4748 68.8897 66.8924 68.6032 66.8924 68.6032C66.8924 68.6032 62.1786 73.9187 58.2162 74.1258C54.0555 74.3381 49.0964 73.8876 43.7407 68.3047C42.4884 66.9948 41.396 64.6097 41.396 64.6097" fill="white"/>
<path d="M57.9439 75.4039L54.8427 74.9311C49.0846 74.0534 45.4217 71.5558 43.1985 69.3074C42.0827 68.179 41.3246 67.1079 40.8475 66.3259C40.3851 65.568 40.21 64.502 39.1402 64.502C37.0279 64.8218 34.6413 66.1941 32.7253 67.5828C30.8079 68.9724 29.1479 70.5371 28.5311 71.4286C27.7439 72.5629 26.3557 73.9335 25.1127 75.0553C23.9237 76.1282 22.6727 77.1201 21.418 78.1142C29.5298 80.4361 38.989 80.2087 47.268 78.8549C49.9215 78.4209 52.5872 77.821 55.0729 76.7731L57.9439 75.4039Z" fill="#20407E"/>
<path d="M32.2302 78.6104C32.1502 78.5983 34.9228 77.7216 36.4205 75.0794C36.4205 75.0794 38.6974 77.9235 41.4335 78.6173C41.47 78.6242 35.6969 79.1782 32.2302 78.6104ZM65.8758 59.171C62.6718 61.4318 58.9355 62.0824 58.9355 62.0824C58.9355 62.0824 63.8442 61.8925 65.641 61.0711C70.5931 58.8189 76.9124 57.9474 76.9124 57.9474C76.0671 57.1017 74.0302 56.6565 74.0302 56.6565C74.0916 57.0566 74.2259 57.2431 74.0242 57.6514C73.7719 58.1621 73.1967 58.4916 72.6247 58.453C71.8365 58.421 71.1951 57.7415 71.2263 56.9498C71.2384 56.8032 71.3845 56.5184 71.3237 56.5184C70.5583 56.5046 69.0711 56.9188 65.8741 59.171" fill="white"/>
<path d="M79.0363 59.1958C79.0363 59.1958 71.3915 63.2394 68.1214 66.9964C68.0953 67.031 67.5248 67.1725 66.0776 67.0931C64.6235 67.0206 61.9291 67.257 59.8244 66.1612C57.7197 65.0773 55.8794 63.2273 55.8794 63.2273C55.8794 63.2273 59.2104 63.6829 62.5188 63.4637C64.9853 63.2946 69.2503 61.6447 69.4034 61.5774C72.9744 59.8343 79.0363 59.1958 79.0363 59.1958" fill="#E4292F"/>
<path d="M31.0566 25.9727C31.0566 25.9727 38.3831 34.4602 42.1889 37.1093C49.3727 42.1141 49.5084 48.3045 49.3727 50.8501C49.3727 50.8501 44.2119 43.3429 41.7088 40.6575C39.1989 37.9739 33.0204 31.7938 31.0566 25.9727" fill="white"/>
<path d="M36.1239 64.584C36.1239 64.584 39.3383 61.4603 36.5031 57.2235C36.4787 57.182 38.1555 57.7533 39.768 57.8931C39.8114 57.9 39.8428 57.1337 39.848 57.0302C36.3013 55.9947 31.2639 54.174 30.3681 51.9632C30.3681 51.9632 36.2161 54.7521 40.0324 55.0386L40.3333 54.0894C36.5413 53.1506 28.6374 50.8138 27.0476 47.2328C27.0476 47.2328 35.3063 51.6957 40.836 52.3532C40.8795 52.3532 41.2413 51.3971 41.2413 51.3971C37.6998 50.3876 30.1594 46.6978 26.5327 40.4625C26.5327 40.4625 35.4107 47.7505 42.1249 49.6938C42.1127 49.6869 42.8172 48.7446 42.8241 48.7308C38.9035 46.6788 29.5332 42.6422 27.4964 35.9892C27.4581 35.8597 36.1534 44.1039 38.1173 43.6966C38.1173 43.6966 28.3852 35.7752 27.4842 31.1362C27.4842 31.1362 43.8365 47.238 45.4628 48.2562C46.2543 48.7618 47.3536 50.9105 47.3536 50.9105C47.3536 50.9105 50.9542 59.7379 57.2804 61.8641C57.4109 61.9056 49.0165 60.7424 45.5428 61.6329C41.7683 62.5941 36.1239 64.584 36.1239 64.584" fill="#009450"/>
<defs>
<linearGradient id="paint0_linear_2099_3020" x1="85.2329" y1="42.3024" x2="82.202" y2="100.483" gradientUnits="userSpaceOnUse">
<stop stop-color="#FFE0A9"/>
<stop offset="1" stop-color="#C7822A"/>
</linearGradient>
</defs>
</svg>
