<svg width="100" height="100" viewBox="0 0 100 100" fill="none" xmlns="http://www.w3.org/2000/svg">
<path d="M24.688 39.5078H8.90231C7.8709 39.5079 7.00524 40.3678 7.00513 41.4006V64.4272C7.00524 65.4599 7.8709 66.3198 8.90231 66.3199H11.3237C12.3552 66.3198 13.2208 65.46 13.2209 64.4272V56.0144H21.2341C22.2655 56.0142 23.1311 55.1544 23.1313 54.1216V51.7063C23.1311 50.6736 22.2655 49.8137 21.2341 49.8135H13.2209V45.7086H24.6879C25.7193 45.7085 26.585 44.8486 26.5851 43.8158V41.4006C26.585 40.3679 25.7194 39.508 24.688 39.5078Z" fill="#0094D9"/>
<path d="M44.9953 60.1512H34.0448V41.4006C34.0447 40.3679 33.1792 39.508 32.1478 39.5078H29.7263C28.6949 39.5079 27.8292 40.3678 27.8291 41.4006V64.4272C27.8292 65.4599 28.6949 66.3198 29.7263 66.3199H44.9953C46.0268 66.3198 46.8924 65.46 46.8926 64.4272V62.0438C46.8924 61.0111 46.0267 60.1513 44.9953 60.1512Z" fill="#0094D9"/>
<path d="M64.7029 40.5444C64.3855 39.9207 63.7114 39.5079 63.0104 39.5078H60.008C59.4102 39.508 58.8271 39.8038 58.4748 40.2856L53.0633 47.6923L47.6254 40.2826C47.2731 39.8025 46.6912 39.508 46.0949 39.5079H43.0926C42.3917 39.5082 41.7179 39.9212 41.4009 40.5449C41.0839 41.1686 41.1482 41.9549 41.5623 42.5192L49.944 53.9356V64.4275C49.9442 65.4602 50.8098 66.3201 51.8412 66.3202H54.2618C55.2932 66.3201 56.1589 65.4602 56.159 64.4275V53.9356L64.5409 42.5192C64.9549 41.9548 65.0194 41.1685 64.7029 40.5444Z" fill="#0094D9"/>
<path d="M56.8617 80.5487C56.9029 80.508 56.9287 80.4542 56.9348 80.3966C56.9408 80.3391 56.9267 80.2812 56.8949 80.2327C56.8631 80.1843 56.8155 80.1483 56.7601 80.1309C56.7048 80.1135 56.6451 80.1157 56.5912 80.1372C47.1304 83.8122 36.8121 84.7053 26.8583 82.7107C16.9045 80.7161 7.73216 75.9174 0.427497 68.8829C0.382509 68.8397 0.323079 68.8147 0.260677 68.8126C0.198275 68.8106 0.13733 68.8317 0.0896179 68.8719C0.041906 68.9121 0.0108119 68.9685 0.0023373 69.0302C-0.00613726 69.0919 0.00860795 69.1545 0.0437307 69.206C4.12875 75.2229 9.41005 80.3378 15.5597 84.2328C21.7093 88.1279 28.5959 90.7201 35.7918 91.8484C36.7499 91.9907 38.096 92.2252 38.6121 92.0176C46.9469 88.6652 52.6948 84.5549 56.8617 80.5487Z" fill="#0094D9"/>
<path d="M96.5997 47.7546C97.851 42.4042 99.5787 35.5989 99.9417 23.5303C100.136 17.079 99.7957 10.5558 99.6451 8.10901C99.6384 8.00231 99.6043 7.89912 99.5463 7.80927C99.4882 7.71942 99.4081 7.6459 99.3134 7.59571C99.2188 7.54553 99.1129 7.52036 99.0058 7.5226C98.8986 7.52484 98.7938 7.55441 98.7014 7.6085L62.1402 28.8003C62.0354 28.861 61.9504 28.9507 61.8954 29.0585C61.8405 29.1663 61.818 29.2877 61.8305 29.408C61.8431 29.5282 61.8902 29.6424 61.9663 29.7365C62.0423 29.8307 62.144 29.901 62.2591 29.9389L73.1161 33.5109C73.28 33.5635 73.4276 33.6572 73.5449 33.7829C73.6622 33.9087 73.7451 34.0624 73.7859 34.2293C74.5187 37.4993 74.8877 40.8401 74.8862 44.1909C74.9007 55.999 70.9469 67.4712 63.6568 76.7736C58.6017 83.2414 52.1177 88.4569 44.7101 92.0136C44.655 92.0395 44.6103 92.0834 44.5836 92.138C44.5568 92.1926 44.5496 92.2547 44.5629 92.314C44.5763 92.3733 44.6096 92.4263 44.6573 92.4642C44.7049 92.5021 44.7641 92.5227 44.825 92.5225C70.9945 92.1784 90.5312 73.7014 96.5997 47.7546Z" fill="#224099"/>
</svg>
