<svg width="100" height="100" viewBox="0 0 100 100" fill="none" xmlns="http://www.w3.org/2000/svg">
<path d="M100 50C100 77.6142 77.6142 100 50 100C22.3858 100 0 77.6142 0 50C0 22.3858 22.3858 0 50 0C77.6142 0 100 22.3858 100 50Z" fill="#F9DA53"/>
<path d="M19.7972 27.1899C21.7528 29.6671 24.1289 31.8067 26.7836 33.5115C30.7122 36.0495 35.2356 37.5807 39.8452 38.2792C43.0553 38.7684 46.3229 38.8688 49.5589 38.6084C50.2606 38.5481 50.9617 38.4723 51.657 38.3582C49.2828 39.601 46.7623 40.5633 44.1626 41.2138C39.3956 42.4022 34.3797 42.5532 29.5433 41.703C25.6609 41.0037 21.2776 39.4967 19.5789 35.5921C18.4097 32.9678 18.7165 29.7934 19.7972 27.1899Z" fill="#06A7E0"/>
<path d="M8.6458 39.1293C13.3536 42.2332 18.3798 44.4851 23.9708 45.4372C29.3346 46.3509 34.8287 46.2342 40.2133 45.5584C45.9607 44.8372 51.6084 43.4629 57.1407 41.7665C55.2214 43.2057 53.1985 44.5016 51.1412 45.7327C46.4052 48.5332 41.3855 50.8892 36.1143 52.4897C32.2407 53.6534 28.2149 54.3811 24.1632 54.3837C19.9645 54.3583 14.828 53.8443 11.804 50.5646C9.11033 47.6623 8.04316 43.0161 8.6458 39.1293ZM46.9942 52.0231C48.909 50.8549 50.7803 49.6095 52.5563 48.2371C49.8258 52.3238 46.6521 56.1487 42.8816 59.3186C39.7788 61.8975 36.1339 64.2355 32.1325 65.088C28.4796 65.7989 24.0292 65.2648 21.723 62.0193C20.8392 60.7836 20.3772 59.2959 20.1711 57.8036C22.218 58.5306 24.3939 58.8669 26.5633 58.8572C31.29 58.8786 35.9434 57.4587 40.2327 55.5701C42.5609 54.5366 44.8158 53.3417 46.9942 52.0231Z" fill="#06A7E0"/>
<path d="M76.0644 33.3912C77.5236 33.5661 78.9913 33.8389 80.339 34.4454C81.576 35.016 82.7476 35.9782 82.8745 37.426C82.9445 38.0811 82.7935 38.733 82.5907 39.3524C81.738 38.5535 80.6209 38.1044 79.5038 37.8193C78.6284 37.6062 77.731 37.4986 76.8323 37.4636C75.7677 38.7641 74.07 39.5688 72.3788 39.3945C71.4807 39.3077 70.63 38.8846 69.9924 38.2509C69.8103 38.0766 69.6379 37.8919 69.4649 37.7085C70.9358 38.2878 72.6846 38.1543 74.0052 37.2666C71.7056 36.9342 69.3787 36.8357 67.0571 36.8079C62.5404 36.7924 58.0831 37.2477 53.6196 37.877C55.8214 36.666 58.1897 35.7841 60.5878 35.0474C65.6034 33.5807 70.8436 32.856 76.0644 33.3912ZM69.4196 43.605C73.9987 41.7823 78.9602 40.7229 83.9035 41.1032C85.6251 41.2484 87.3487 41.5659 88.9505 42.2294C90.4824 42.8873 91.7179 44.0754 91.5047 45.8593C91.3596 46.9556 90.849 47.9775 90.181 48.8483C90.0708 48.2224 89.8064 47.5965 89.3237 47.1675C87.7988 45.7338 85.0495 46.3111 83.2555 46.7314C79.1244 47.6911 75.1438 49.5815 71.4354 51.5879C65.2476 55.5537 59.1861 59.7996 53.6157 64.6049C50.9075 66.9463 48.0242 69.4803 46.0955 72.5359C46.794 70.2104 47.6 67.9108 48.6355 65.7122C49.2951 64.3761 49.9968 63.0206 51.0595 61.9553C48.7176 63.6455 46.5554 65.6494 44.5727 67.7501C40.9172 71.5368 37.6025 75.6646 34.6006 79.9869C35.3075 77.9814 36.0527 75.9863 36.9417 74.0535C38.9536 69.6719 41.7476 65.685 44.9447 62.0895C49.1774 57.2842 54.0951 52.9055 59.3172 49.1911C62.4617 46.9608 65.8383 45.0422 69.4196 43.605Z" fill="#039482"/>
</svg>
