<svg width="100" height="100" viewBox="0 0 100 100" fill="none" xmlns="http://www.w3.org/2000/svg">
<path d="M0 25C0 11.1929 11.1929 0 25 0H75C88.8072 0 100 11.1929 100 25V75C100 88.8072 88.8072 100 75 100H25C11.1929 100 0 88.8072 0 75V25Z" fill="#0C1A49"/>
<path d="M7.44995 72.3201L18.63 45.2201C18.63 45.2201 63.37 37.7601 92.43 27.5801C92.43 27.6001 33.53 63.0001 7.44995 72.3201Z" fill="white"/>
<path d="M13.6899 72.3201C13.6899 72.3201 42.1499 59.9001 54.1699 51.8801L80.23 51.0801C80.25 51.0801 61.8099 67.1001 13.6899 72.3201Z" fill="#00ACED"/>
</svg>
