<svg width="100" height="100" viewBox="0 0 100 100" fill="none" xmlns="http://www.w3.org/2000/svg">
<path d="M76.5803 19.7697C77.0461 19.6635 77.8496 19.5336 78.3862 19.739C81.0495 20.7589 88.4977 24.606 88.4977 24.606L96.8248 19.0791C96.8248 19.0791 98.4547 18.2278 99.001 18.9517C99.5473 19.6756 98.2816 21.0095 98.2816 21.0095L90.683 27.5016C90.683 27.5016 92.3401 35.7194 92.5905 38.5603C92.6409 39.1326 92.2956 39.8697 92.0657 40.2885C91.9856 40.4345 91.7811 40.4208 91.712 40.2693L87.2456 30.4745L84.6506 32.0543L84.8284 33.0163C84.8701 33.2414 84.7809 33.4708 84.5981 33.6088L82.2007 35.4181C82.0727 35.5147 81.9116 35.5565 81.7528 35.5343L79.4604 35.2138L77.0068 36.7379C76.7796 36.879 76.6722 37.1525 76.7424 37.4104L77.4117 39.8671C77.4552 40.0267 77.4314 40.1972 77.3458 40.3388L76.7935 41.2523C76.7292 41.3587 76.571 41.3462 76.5241 41.231L74.8712 37.1623L71.4118 34.4569C71.3138 34.3803 71.3452 34.2247 71.4652 34.192L72.4951 33.9115C72.6547 33.868 72.8252 33.8918 72.9668 33.9774L75.1457 35.2948C75.3745 35.4331 75.667 35.4047 75.865 35.225L78.0035 33.2834L78.324 30.991C78.3462 30.8322 78.4306 30.6887 78.5586 30.5921L80.956 28.7828C81.1388 28.6449 81.3838 28.622 81.589 28.7238L82.4653 29.1587L84.6962 27.0963L76.5018 20.1151C76.375 20.0071 76.4179 19.8067 76.5803 19.7697Z" fill="black"/>
<path d="M70.7959 42.399C71.841 41.7843 74.1157 40.0014 73.1935 38.3417C71.7355 36.8835 70.3121 37.8179 68.9986 38.6802L68.9516 38.7111C52.3135 49.6293 31.1152 61.688 -1.22415e-06 71.6741L-1.17134e-06 73.5236C16.7433 68.6907 36.8118 63.9223 70.7959 42.399Z" fill="black"/>
<path d="M61.8971 38.4314C59.3671 40.0319 56.731 41.6496 53.972 43.2748L48.0449 26.5373L39.2686 51.3207C35.8803 53.0346 32.324 54.7382 28.5806 56.4214L42.1673 18.0542L54.6812 18.0542L61.8971 38.4314Z" fill="#BD1F32"/>
<path d="M27.6679 84.0808L18.7864 84.0808L23.5762 70.5542C26.8121 69.4099 30.2283 68.1096 33.8593 66.5961L27.6679 84.0808Z" fill="#133C8C"/>
<path d="M78.0624 84.0808L68.4222 84.0808L58.0346 54.7471C60.6102 53.3061 63.2737 51.7624 66.0315 50.1064L78.0624 84.0808Z" fill="#133C8C"/>
</svg>
