<svg width="100" height="100" viewBox="0 0 100 100" fill="none" xmlns="http://www.w3.org/2000/svg">
<path d="M0 50C0 22.3858 22.3858 0 50 0C77.6142 0 100 22.3858 100 50C100 77.6142 77.6142 100 50 100C22.3858 100 0 77.6142 0 50Z" fill="#001B94"/>
<path fill-rule="evenodd" clip-rule="evenodd" d="M66.2335 43.2085C66.2335 44.5141 65.1779 45.5752 63.8779 45.5752C62.5779 45.5752 61.5224 44.5197 61.5224 43.2085C61.5224 41.8974 62.5779 40.8419 63.8779 40.8419C65.1779 40.8419 66.2335 41.903 66.2335 43.2085ZM59.1613 36.1141C59.1613 37.4197 58.1057 38.4808 56.8057 38.4808C55.5057 38.4808 54.4502 37.4197 54.4502 36.1141C54.4502 34.8086 55.5057 33.7474 56.8057 33.7474C58.1057 33.7474 59.1613 34.8086 59.1613 36.1141ZM66.2335 36.1141C66.2335 37.4197 65.1779 38.4808 63.8779 38.4808C62.5779 38.4808 61.5224 37.4197 61.5224 36.1141C61.5224 34.8086 62.5779 33.7474 63.8779 33.7474C65.1779 33.7474 66.2335 34.8086 66.2335 36.1141ZM52.0891 36.1141C52.0891 37.4197 51.0335 38.4808 49.7335 38.4808C48.4335 38.4808 47.3779 37.4197 47.3779 36.1141C47.3779 34.8086 48.4335 33.7474 49.7335 33.7474C51.0335 33.7474 52.0891 34.8086 52.0891 36.1141ZM70.2613 28.5308C71.1835 29.453 71.1835 30.953 70.2613 31.8752C69.3391 32.7974 67.8502 32.7974 66.9279 31.8752C66.0057 30.953 66.0057 29.453 66.9279 28.5308C67.8502 27.6085 69.3446 27.6085 70.2613 28.5308ZM76.1557 23.803C77.0779 24.7252 77.0779 26.2252 76.1557 27.1474C75.2335 28.0697 73.7446 28.0697 72.8224 27.1474C71.9002 26.2252 71.9002 24.7252 72.8224 23.803C73.7446 22.8808 75.2391 22.8808 76.1557 23.803ZM43.8335 36.1141C43.8335 37.4197 42.7779 38.4808 41.4779 38.4808C40.1779 38.4808 39.1224 37.4197 39.1224 36.1141C39.1224 34.8086 40.1779 33.7474 41.4779 33.7474C42.7779 33.7474 43.8335 34.8086 43.8335 36.1141ZM36.7613 36.1141C36.7613 37.4197 35.7057 38.4808 34.4057 38.4808C33.1057 38.4808 32.0502 37.4197 32.0502 36.1141C32.0502 34.8086 33.1057 33.7474 34.4057 33.7474C35.7057 33.7474 36.7613 34.8086 36.7613 36.1141ZM63.8779 47.9363C65.1779 47.9363 66.2335 48.9974 66.2335 50.303C66.2335 51.6085 65.1779 52.6697 63.8779 52.6697C62.5779 52.6697 61.5224 51.6085 61.5224 50.303C61.5224 48.9974 62.5779 47.9363 63.8779 47.9363ZM37.9391 71.5808C37.9391 72.8863 36.8835 73.9474 35.5835 73.9474C34.2835 73.9474 33.2279 72.8863 33.2279 71.5808C33.2279 70.2752 34.2835 69.2141 35.5835 69.2141C36.8835 69.2141 37.9391 70.2697 37.9391 71.5808ZM30.8668 64.4863C30.8668 65.7919 29.8113 66.853 28.5113 66.853C27.2113 66.853 26.1557 65.7919 26.1557 64.4863C26.1557 63.1808 27.2113 62.1197 28.5113 62.1197C29.8113 62.1197 30.8668 63.1808 30.8668 64.4863ZM37.9391 64.4863C37.9391 65.7919 36.8835 66.853 35.5835 66.853C34.2835 66.853 33.2279 65.7919 33.2279 64.4863C33.2279 63.1808 34.2835 62.1197 35.5835 62.1197C36.8835 62.1197 37.9391 63.1808 37.9391 64.4863ZM23.7946 64.4863C23.7946 65.7919 22.739 66.853 21.439 66.853C20.139 66.853 19.0835 65.7919 19.0835 64.4863C19.0835 63.1808 20.139 62.1197 21.439 62.1197C22.739 62.1197 23.7946 63.1808 23.7946 64.4863ZM35.5835 76.3085C36.8835 76.3085 37.9391 77.3697 37.9391 78.6752C37.9391 79.9808 36.8835 81.0419 35.5835 81.0419C34.2835 81.0419 33.2279 79.9808 33.2279 78.6752C33.2279 77.3697 34.2835 76.3085 35.5835 76.3085ZM63.8779 55.0308C65.1779 55.0308 66.2335 56.0919 66.2335 57.3974C66.2335 58.703 65.1779 59.7641 63.8779 59.7641C62.5779 59.7641 61.5224 58.7085 61.5224 57.3974C61.5224 56.0863 62.5779 55.0308 63.8779 55.0308ZM63.8779 63.3086C65.1779 63.3086 66.2335 64.3641 66.2335 65.6752C66.2335 66.9863 65.1779 68.0419 63.8779 68.0419C62.5779 68.0419 61.5224 66.9808 61.5224 65.6752C61.5224 64.3697 62.5779 63.3086 63.8779 63.3086ZM48.5502 53.8474C48.5502 55.153 47.4946 56.2141 46.1946 56.2141C44.8946 56.2141 43.8391 55.1585 43.8391 53.8474C43.8391 52.5363 44.8946 51.4808 46.1946 51.4808C47.4946 51.4808 48.5502 52.5419 48.5502 53.8474ZM52.5779 46.2641C53.5002 47.1863 53.5002 48.6863 52.5779 49.6085C51.6557 50.5308 50.1668 50.5308 49.2446 49.6085C48.3224 48.6863 48.3224 47.1863 49.2446 46.2641C50.1668 45.3419 51.6557 45.3419 52.5779 46.2641ZM58.4724 41.5363C59.3946 42.4585 59.3946 43.9586 58.4724 44.8808C57.5502 45.803 56.0613 45.803 55.139 44.8808C54.2168 43.9586 54.2168 42.4585 55.139 41.5363C56.0613 40.6141 57.5502 40.6141 58.4724 41.5363ZM43.1446 56.903C44.0668 57.8252 44.0668 59.3252 43.1446 60.2474C42.2224 61.1697 40.7279 61.1697 39.8113 60.2474C38.8891 59.3252 38.8891 57.8252 39.8113 56.903C40.7335 55.9808 42.2224 55.9808 43.1446 56.903Z" fill="white"/>
</svg>
