<svg width="100" height="100" viewBox="0 0 100 100" fill="none" xmlns="http://www.w3.org/2000/svg">
<path d="M100 50C100 77.6142 77.6142 100 50 100C22.3858 100 0 77.6142 0 50C0 22.3858 22.3858 0 50 0C77.6142 0 100 22.3858 100 50Z" fill="#C4D92E"/>
<path d="M77.8229 44.6209C80.7771 46.5908 82.4436 50.5656 81.0993 55.825C78.5197 66.148 70.3902 75.0178 65.5547 78.6311C56.8053 85.3422 45.1439 87.2642 38.9075 86.6284C32.0003 85.9258 26.3141 82.6217 23.0942 78.7559C28.6382 82.7219 35.1853 81.1526 41.1416 78.8895C48.4581 76.1109 52.6941 72.0143 56.4032 66.1393C61.0181 58.83 61.323 50.6686 64.5341 46.9407C68.5655 42.2576 74.034 42.1646 77.8229 44.6209ZM73.9149 25.1291C72.4632 31.248 66.34 35.7366 60.2415 35.1573C54.1458 34.5767 50.3758 29.1474 51.8304 23.0299C53.2792 16.9111 59.401 12.4196 65.4995 13.0002C71.598 13.5809 75.3666 19.0102 73.9149 25.1291Z" fill="white"/>
<path d="M19.4927 47.2721C18.3183 43.804 20.2055 39.7422 23.7128 38.1976C27.2186 36.6515 31.0119 38.2069 32.1877 41.67C33.3622 45.1367 31.4735 49.1999 27.9662 50.746C24.4604 52.292 20.6686 50.7355 19.4927 47.2721ZM29.6778 66.61C28.7327 63.9041 26.127 63.0534 23.9973 63.2682C20.3405 63.6399 18.1731 67.2749 18.9948 70.5586C19.8165 73.8307 21.3335 76.6412 23.0987 78.7592C28.6427 82.7209 35.1913 81.1806 41.2869 78.8376C34.0038 77.7779 30.7317 69.6223 29.6778 66.61Z" fill="#6DB327"/>
</svg>
