<svg width="100" height="100" viewBox="0 0 100 100" fill="none" xmlns="http://www.w3.org/2000/svg">
<path d="M0 25C0 11.1929 11.1929 0 25 0H75C88.8072 0 100 11.1929 100 25V75C100 88.8072 88.8072 100 75 100H25C11.1929 100 0 88.8072 0 75V25Z" fill="#FF5700"/>
<path d="M40.0703 56.5635C48.2306 56.7461 48.2535 60.578 47.6152 62.3115L47.3643 62.9727L42.7139 75.7012H35.9443L36.4912 74.2412C34.1889 75.8151 30.4727 75.6777 30.4727 75.6777C25.5267 75.6776 24.615 73.1008 24.8428 71.2305C25.2987 67.4668 28.832 65.4595 33.2314 64.9805C33.2519 64.9782 36.2917 64.6365 37.9502 64.25C40.7831 63.5468 40.5738 61.6938 40.5713 61.6729C40.4131 60.4062 38.5067 60.4849 38.4746 60.4863C35.3934 60.4863 34.4286 62.9427 34.417 62.9727H27.6689C30.997 57.1561 36.6282 56.495 40.0703 56.5635ZM52.6074 75.6777H45.6777L52.7441 56.7227H59.6514L52.6074 75.6777ZM68.2217 60.2354C69.3614 58.8667 71.5276 56.7227 75.2432 56.7227H76.7021L74.6279 62.4023H72.0059C71.3672 62.4024 67.6747 62.6543 65.9424 66.6914L62.5684 75.6777H55.6387L62.7051 56.7227H69.6123L68.2217 60.2354ZM34.2344 68.4014C33.2542 68.6066 32.4786 69.063 32.3418 70.249C32.205 71.3211 33.0265 71.6631 33.6191 71.6631C37.5396 71.6629 38.4512 68.8574 38.4512 68.8574L38.9531 67.5117L34.2344 68.4014ZM63.4121 50.7236L52.9717 56.2891L55.2061 50.7012L63.4121 50.7236ZM26.7871 39.5264C24.635 44.7069 20.6353 45.4796 18.2598 45.7031C18.2598 45.7031 14.8482 46.1698 10.8281 45.7432L12.6357 41.1719C13.8133 41.2328 15.782 41.3546 16.8174 41.0703C19.81 40.3217 20.6485 37.518 20.6553 37.4951L25.9141 24.4922H32.7969L26.7871 39.5264ZM61.4854 39.5264C59.3332 44.7072 55.3335 45.4796 52.958 45.7031C52.9232 45.7078 49.5064 46.1676 45.5068 45.7432L47.3135 41.1719C48.5114 41.2328 50.461 41.3547 51.5371 41.0703C54.5251 40.3227 55.3647 37.5263 55.374 37.4951L60.6328 24.4922H67.4961L61.4854 39.5264ZM71.9824 38.7754C71.7184 39.71 71.2319 41.3144 73.1807 41.3145C74.8455 41.3145 75.9418 41.1519 77.1396 38.1045L82.1748 24.4922V24.5127H89.0176L83.1699 40.3193C81.3019 45.337 75.1712 45.8652 73.2217 45.8652H69.668C67.4954 45.8652 63.0898 44.7477 65.0186 39.4248L70.5615 24.4922H77.3633L71.9824 38.7754ZM48.7354 29.0029H40.9795L39.335 33.167H47.1309L45.5068 37.3936H37.751L36.248 41.1719H44.9385L43.1719 45.7236H27.9443L35.8623 24.4922H50.502L48.7354 29.0029Z" fill="white"/>
</svg>
