<svg width="100" height="100" viewBox="0 0 100 100" fill="none" xmlns="http://www.w3.org/2000/svg">
<circle cx="50" cy="50" r="50" fill="url(#paint0_linear_2099_3111)"/>
<path d="M71.7566 36.964C77.7467 34.7635 74.0598 31.4858 74.0598 31.4858C74.0598 31.4858 76.7908 34.7542 72.3028 34.652C72.3028 34.652 74.1781 35.6548 71.7566 36.964Z" fill="white"/>
<path d="M72.0115 37.0659C76.4722 35.9889 78.3293 31.1328 81.5883 30C81.3152 30.1021 80.7508 29.74 76.2901 32.0613C75.4344 32.4977 74.6333 31.8849 74.3966 31.662C74.8791 32.1541 77.4736 35.0511 72.0115 37.0659Z" fill="white"/>
<path d="M26.3303 45.7565L26.9675 42.5903H14.341L11 59.6377H14.8872L16.1071 53.426H23.8177L24.464 50.2598H16.7079L17.5909 45.7565H26.3303Z" fill="white"/>
<path d="M33.3218 49.7492H35.3063L34.2776 55.0324C34.1957 55.4688 34.1593 55.8495 34.1593 56.1745C34.1593 57.3073 34.5234 58.2079 35.2608 58.8486C35.9891 59.4985 36.9632 59.8235 38.1739 59.8235C39.4757 59.8235 40.5408 59.5635 41.3693 59.0436L40.823 56.3416C40.3133 56.648 39.8126 56.8059 39.321 56.8059C38.4106 56.8059 37.9646 56.388 37.9646 55.5431C37.9646 55.3203 37.9828 55.1345 38.0101 55.0046L39.0388 49.7492H42.225L42.7985 46.8244H39.6032L40.2222 43.6304H36.4989L35.8799 46.8244H33.8953L33.3218 49.7492Z" fill="white"/>
<path d="M32.7025 44.6966C33.8777 44.2001 34.4358 42.8259 33.949 41.6272C33.4622 40.4286 32.1149 39.8594 30.9397 40.3559C29.7645 40.8524 29.2064 42.2266 29.6932 43.4252C30.18 44.6239 31.5273 45.1931 32.7025 44.6966Z" fill="white"/>
<path d="M85.2026 38.7651L85.5121 37.2052H81.98L79.4219 50.3065H83.1452L84.3833 43.9741C84.62 42.7763 85.0751 41.8849 85.7579 41.3185C86.4316 40.7521 87.3328 40.4643 88.4707 40.4643C88.5982 40.4643 88.8804 40.4829 89.3265 40.5107L89.991 37.001C88.22 37.0321 86.4454 37.4158 85.2026 38.7651Z" fill="white"/>
<path d="M77.8104 37.1404C75.8878 40.3722 73.9063 43.5248 71.7566 46.509L68.5704 33.2778H64.747L55.6344 47.6325C54.1166 46.7037 52.337 46.3419 50.5728 46.3419C48.6429 46.3419 47.0953 46.7504 45.9027 47.5582C44.7193 48.366 44.1276 49.4988 44.1276 50.9473C44.1276 52.3732 44.9936 53.4755 46.3306 53.9371C47.6441 54.4039 49.0839 54.4606 50.3726 54.9863C51.1933 55.3211 50.978 56.2608 50.2997 56.6297C49.8901 56.8526 49.2528 56.9547 48.4153 56.9547C46.8839 56.9547 45.2392 56.5696 43.9546 55.7105L42.5253 58.4589C43.0807 58.8674 43.8545 59.1924 44.8558 59.4431C45.8481 59.6938 46.9041 59.8238 48.0148 59.8238C49.9265 59.8238 51.4832 59.4245 52.6848 58.626C54.2672 57.5745 55.2794 54.9069 53.841 53.315C52.8854 52.2574 51.424 52.002 50.0903 51.7272C49.4292 51.5909 47.7052 51.4571 47.7052 50.483C47.7052 49.3407 49.3844 49.1924 50.1905 49.1924C51.5831 49.1924 52.7517 49.5803 53.9502 50.2788V50.288H53.9593H58.065L60.2407 46.639H68.0242L68.8162 50.288H68.8253C67.1175 52.3508 65.2918 54.299 63.3086 56.1005C59.8949 59.1504 55.9973 61.7249 51.5924 63.0828C48.6954 63.9541 45.7827 64.1691 42.7711 64.1321C40.5164 64.0624 38.3077 63.7874 36.426 63.0643C34.6365 62.3765 33.0313 61.27 32.0108 59.6102C30.4763 57.1356 30.2947 53.972 30.4906 51.1423C30.5819 49.5582 30.8343 47.9795 31.1551 46.4255H29.0795C28.3564 47.7162 27.8492 49.1526 27.4318 50.5666C26.3701 54.2285 26.1831 58.3339 27.805 61.8665C28.6512 63.7802 30.061 65.4387 31.7468 66.6669C34.1012 68.3858 36.9621 69.3096 39.8307 69.6938C44.2988 70.3318 49.0022 69.9968 53.2766 68.5053C58.4004 66.7633 62.9072 63.5226 66.6041 59.6102C70.178 55.7993 73.081 51.4024 75.3889 46.7226C76.9092 43.6399 78.302 40.3623 79.3125 37.1033H77.8104V37.1404ZM62.025 43.6678L65.9668 37.094L67.3779 43.6678H62.025Z" fill="white"/>
<defs>
<linearGradient id="paint0_linear_2099_3111" x1="0" y1="0" x2="100" y2="100" gradientUnits="userSpaceOnUse">
<stop stop-color="#230D58"/>
<stop offset="0.4975" stop-color="#5B1645"/>
<stop offset="1" stop-color="#A4032D"/>
</linearGradient>
</defs>
</svg>
