<svg width="100" height="100" viewBox="0 0 100 100" fill="none" xmlns="http://www.w3.org/2000/svg">
<path d="M37.7929 64.6472L1.82684 59.1545C1.27561 56.1968 1 53.0982 1 49.9994C1 22.3941 22.9104 0 49.9193 0C61.4947 0 72.1054 4.08447 80.5112 10.9858C75.1372 13.6618 71.4163 16.197 67.4199 23.9434C63.0106 32.5349 50.3328 55.6335 37.7929 64.6472Z" fill="#F7A82A"/>
<path d="M98.8392 50.0007C98.8392 77.6061 76.9289 100 49.9201 100C32.4191 100 16.9854 90.5634 8.30396 76.3384L55.0185 67.3243C55.0185 67.3243 64.8023 67.3243 70.5901 49.1557C74.8618 35.7753 80.3738 20.1418 82.9921 13.0996C92.776 22.2545 98.8392 35.3528 98.8392 50.0007Z" fill="#F7A82A"/>
</svg>
