<svg width="100" height="100" viewBox="0 0 100 100" fill="none" xmlns="http://www.w3.org/2000/svg">
<path d="M100 92C100 96.4183 96.4183 100 92 100H8C3.58172 100 0 96.4183 0 92V72.3975L100 26.8252V92Z" fill="#0A3371"/>
<path d="M100 26.8252L0 72.3975V8C0 3.58172 3.58172 0 8 0H92C96.4183 0 100 3.58172 100 8V26.8252Z" fill="#F78C2A"/>
<path d="M79.898 39.5941C82.3175 38.4779 83.3512 35.5982 82.2046 33.1678C81.1381 30.8003 78.1069 29.7123 75.7783 30.8612L61.5028 37.5002L30.0913 19.2711L24.2528 22.0002L47.0028 45.5002L29.3166 55.065L19.641 49.6297L15.2528 51.7502L24.2528 61.2502L26.106 73.7992L30.5028 71.7502L32.0028 60.2502L50.5028 53.0002L54.4337 85.5205L60.2528 82.7502L66.0028 45.5002L79.898 39.5941Z" fill="white"/>
</svg>
