<svg width="100" height="100" viewBox="0 0 100 100" fill="none" xmlns="http://www.w3.org/2000/svg">
<path d="M27.6066 28.9934C27.6066 46.0667 46.3666 58.28 35.9332 74.8134C28.4132 86.7334 12.5999 72.0667 21.7666 62.8334C23.0599 61.5334 25.1866 59.8933 27.1666 59.7333C26.6199 58.2133 22.8399 47.96 22.5866 46.8733C15.0066 47.04 -4.08011 65.1667 12.2132 86.02C15.1066 89.72 21.0732 93.0867 27.5999 93.0867C54.2799 93.0867 50.6066 60.6067 72.5066 60.6067C81.2332 60.6067 85.6732 72.46 76.4266 78.6934C71.2799 81.6734 67.6466 78.0134 65.0932 76.3L55.9399 86.1133C59.6199 91.6067 78.8799 100.513 91.0399 83.72C97.6666 74.5667 96.1999 62.5134 88.6732 53.1667C78.7999 40.9 57.3266 51.0067 44.7666 38C37.5799 30.56 42.0532 19.8467 50.4932 19.8467C55.3199 19.8467 60.5999 25.3467 59.1999 31.3867C59.0399 32.08 58.8399 32.3867 58.7732 33.14C61.0932 33.72 70.1732 36.1933 71.8532 36.1933C78.8866 0.633348 29.8266 -5.57999 27.6066 29V28.9934Z" fill="#009846"/>
</svg>
