<svg width="103" height="100" viewBox="0 0 103 100" fill="none" xmlns="http://www.w3.org/2000/svg">
<path d="M0.942871 53.9085L23.9713 35.2965L28.3877 35.9274L52.6779 17L59.6179 26.7792L68.1353 35.2965L74.7599 36.2429L80.1227 43.8139L92.4255 35.612L100.943 46.3375" stroke="#9F781C" stroke-width="3"/>
<path d="M33.5753 57.3799L33.0777 62.4234C32.4257 62.0942 31.9139 61.8825 31.5423 61.7884C31.1707 61.6943 30.6307 61.6464 29.9213 61.6464H23.7121C22.6716 61.6464 21.9905 61.7574 21.6706 61.9785C21.3507 62.1995 21.0873 62.7405 20.8813 63.5994L17.8454 76.6256C17.708 77.1938 17.6393 77.5861 17.6393 77.8016C17.6393 78.3576 17.9018 78.7188 18.4277 78.8825C18.7024 78.9587 19.2001 78.9964 19.9198 78.9964H25.8891C27.3981 78.9841 28.5995 78.6869 29.4914 78.1055L27.5872 83.2629H15.5301C13.7463 83.2243 12.6484 83.1838 12.2364 83.1396C11.8243 83.0954 11.3897 82.9656 10.9324 82.7511C10.1892 82.3973 9.60028 81.8536 9.16564 81.1207C8.73099 80.3878 8.51367 79.5721 8.51367 78.6746C8.51367 78.1948 8.63974 77.4111 8.89093 76.3236L12.0821 62.6906C12.5732 60.6171 13.5234 59.1636 14.9298 58.3291C15.627 57.9124 16.2733 57.6527 16.8679 57.552C17.4625 57.4514 18.6121 57.394 20.3159 57.3808H33.5753V57.3799Z" fill="#E21F1C"/>
<path d="M48.7741 71.5424L56.1668 57.3779H68.6548C68.1976 58.1362 67.8598 58.7938 67.6425 59.3498C67.4252 59.9058 67.1909 60.7215 66.9388 61.7959L62.7184 79.8468C62.5698 80.4668 62.4955 81.1488 62.4955 81.8949C62.4955 82.2994 62.5698 82.7548 62.7184 83.26H52.2211C52.667 82.5271 53.002 81.8761 53.2249 81.3069C53.4479 80.7386 53.685 79.9164 53.9371 78.842L57.6767 62.8392L47.0242 83.2609H40.6428L39.4424 62.9154L35.4967 79.8477C35.3368 80.5053 35.2568 81.1874 35.2568 81.8958C35.2568 82.3126 35.3358 82.7679 35.4967 83.2609H30.1455C30.5914 82.528 30.9264 81.877 31.1484 81.3078C31.3714 80.7396 31.6084 79.9173 31.8606 78.843L36.08 60.7921C36.2286 60.173 36.303 59.49 36.303 58.744C36.303 58.3272 36.2286 57.8718 36.08 57.3789H47.933L48.7741 71.5424Z" fill="#E21F1C"/>
<path d="M89.5297 57.3789L93.6297 78.9954C93.8461 80.1958 94.0672 81.0811 94.2901 81.6493C94.5121 82.2185 94.8471 82.7557 95.293 83.2609H84.2472C84.6245 82.4904 84.8136 81.813 84.8136 81.2316C84.8136 80.638 84.7279 79.8731 84.5567 78.938L84.059 76.2454H73.0631L70.4044 80.5684C69.9011 81.3906 69.6499 82.0727 69.6499 82.6165C69.6499 82.7557 69.6725 82.9702 69.7186 83.2609H63.4229C64.3382 82.4264 65.3214 81.2072 66.3732 79.6012L79.0324 58.838C78.7125 58.4213 78.435 58.1268 78.2008 57.9565C77.9665 57.7853 77.6034 57.5934 77.1113 57.3779H89.5297V57.3789ZM83.3036 72.2255L81.4851 62.3086L75.4819 72.2255H83.3036Z" fill="#E21F1C"/>
</svg>
