<svg width="100" height="100" viewBox="0 0 100 100" fill="none" xmlns="http://www.w3.org/2000/svg">
<path d="M87.9521 17.4468C90.9919 20.9874 93.5447 24.9582 95.5068 29.2553H33.5715C31.0115 29.2553 28.9362 31.3307 28.9362 33.8907C28.9362 35.7416 29.7431 37.4918 31.0987 38.7521C36.6091 43.875 50.7447 58.1599 50.7447 69.8936C50.7447 88.7234 24.2553 89.5745 24.2553 89.5745C24.2553 89.5745 35.6383 97.234 47.3404 97.234C59.7872 97.234 74.6809 93.7791 74.6809 78.5106C74.6809 67.234 67.2458 59.8724 58.1915 51.2766C52.9814 46.3303 46.6266 39.8711 42.5486 35.6759C40.9827 34.0649 42.1279 31.383 44.3746 31.383H96.4191C98.729 37.137 100 43.4201 100 50C100 77.6142 77.6142 100 50 100C22.3858 100 0 77.6142 0 50C0 37.567 4.53801 26.1941 12.0479 17.4468H87.9521Z" fill="#6A1731"/>
<path d="M77.5943 8.29787C80.5723 10.2724 83.3266 12.5571 85.811 15.1064H14.189C16.6734 12.5571 19.4277 10.2724 22.4057 8.29787H77.5943Z" fill="#6A1731"/>
<path d="M50 0C58.5713 0 66.6388 2.15702 73.6895 5.95745H26.3105C33.3612 2.15702 41.4287 0 50 0Z" fill="#6A1731"/>
</svg>
