<svg width="100" height="100" viewBox="0 0 100 100" fill="none" xmlns="http://www.w3.org/2000/svg">
<path d="M98.9199 27.146H99.0864C94.8971 30.6195 90.3267 33.6062 85.6131 36.3155C77.8019 40.7445 69.3858 44.2609 60.5294 45.9162C49.0246 48.0494 37.5162 50.1628 26.0114 52.2923C23.4811 52.7307 21.2889 54.3323 19.7213 56.3169C17.1229 59.6311 14.5174 62.9399 11.91 66.247C9.23292 69.7133 5.24229 72.1452 0.913452 72.8539C5.14745 66.9753 9.39934 61.111 13.6387 55.2361C17.5488 49.6474 23.5974 45.6371 30.224 44.0677C49.6921 39.2771 69.1656 34.5063 88.6356 29.7229C92.0643 28.8693 95.5109 28.0783 98.9199 27.146Z" fill="#004595"/>
<path d="M27.7705 55.0301C39.1035 53.1726 50.4365 51.3115 61.7677 49.4521C56.9092 53.4195 51.4548 56.6979 45.5655 58.8865C42.3604 60.0693 39.0087 60.8603 35.6068 61.1949C29.6638 61.8249 23.7208 62.4583 17.7778 63.09C19.1862 61.3578 20.5748 59.6094 21.9921 57.8843C23.4363 56.2004 25.598 55.2842 27.7705 55.0301V55.0301Z" fill="#FFED00"/>
<path d="M15.2117 66.3168C22.5058 65.6457 29.7998 64.9854 37.0975 64.3608C32.3928 68.4588 26.525 71.4294 20.2599 72.02C16.2639 72.2562 12.259 72.3564 8.25586 72.4513C10.9974 70.9481 13.2253 68.6968 15.2117 66.3168V66.3168Z" fill="#E53138"/>
</svg>
