<svg width="101" height="100" viewBox="0 0 101 100" fill="none" xmlns="http://www.w3.org/2000/svg">
<path fill-rule="evenodd" clip-rule="evenodd" d="M44.2899 12C53.7971 12 63.0145 12 72.5218 12C75.1884 27.9768 78.1449 44.1843 81.0435 60.161C74.7246 60.161 68.4058 61.1416 62.087 62.1221C54.029 63.564 45.7971 65.2944 37.7391 67.7169C29.6812 69.9086 21.4493 72.5618 13.6232 75.4457C9.50726 77.1183 5.56523 78.618 1.68117 80.2906C15.8261 57.5079 30.2029 34.7828 44.2899 12ZM54.4928 32.0719C49.6232 41.3004 44.7536 50.7019 39.8841 59.9303C45.7391 59.9303 51.5942 59.9303 57.3913 59.9303C56.4058 50.7019 55.4203 41.3004 54.7247 32.0719H54.4928ZM86.3768 59.4689C87.8261 60.9109 89.2754 62.1221 90.7826 63.3333C90.029 65.2944 89.1015 67.1977 88.3478 68.9281C92.2319 66.5056 96.116 63.8524 100.058 61.1992C95.4203 60.6801 91.0145 60.161 86.3768 59.4689ZM73.2754 61.3723C75.942 61.1416 78.3768 60.9109 81.0435 60.9109C81.2754 62.1221 81.5073 63.1026 81.5073 64.0831C76.1739 64.833 70.5507 65.7558 65.2174 67.2554C53.0435 70.1393 41.1015 74.2921 29.6812 78.9064C22.3768 82.0786 15.0725 85.1933 8.28987 88.827C8.05798 88.827 8.05798 89.0577 7.8261 89.0577C5.15943 88.827 2.72465 89.0577 0.0579834 88.827C6.14494 85.6547 12.2319 82.5401 18.3189 79.5985C25.8551 76.1955 33.1594 73.0809 40.9275 70.1393C47.7681 67.4861 55.0145 65.0637 62.087 63.3333C65.6812 62.5835 69.6232 61.8914 73.2754 61.3723ZM78.1449 65.2944C79.3623 65.0637 80.5797 65.0637 81.7971 65.0637C82.029 66.5056 82.2609 68.236 82.7826 69.6779C78.1449 70.4277 73.7971 71.1198 69.3913 72.1004C64.058 73.3116 58.6667 74.7536 53.5652 76.4839C50.6667 76.4839 47.7102 76.4839 45.0435 76.4839C50.6667 73.6 56.7536 71.1775 62.7826 69.2165C67.8841 67.4285 72.9855 65.9865 78.1449 65.2944ZM73.2754 72.0427C76.4638 71.2929 79.5942 70.8315 82.7826 70.6007C84 76.6569 84.9855 82.7131 85.971 89C77.4493 89 68.9276 89 60.1739 89C59.942 84.6165 59.4203 80.5213 58.9565 76.4262C63.7681 74.6959 68.4058 73.2539 73.2754 72.0427ZM20.9275 89C22.6087 87.7888 24.3478 86.8082 26.2609 85.8277C25.5073 86.8082 25.0435 87.7888 24.5797 89C23.3623 88.7693 22.1449 89 20.9275 89Z" fill="#CD171A"/>
</svg>
