<svg width="100" height="100" viewBox="0 0 100 100" fill="none" xmlns="http://www.w3.org/2000/svg">
<path d="M54.9337 0.247683C27.4573 -2.4769 2.97235 17.5886 0.247691 45.0642C-2.47697 72.5436 17.5892 97.0277 45.0656 99.7523C72.5458 102.477 97.027 82.4114 99.7517 54.9321C102.48 27.4564 82.4139 2.97226 54.9337 0.247683ZM53.9773 9.91533C64.1902 10.9273 73.1352 15.6759 79.5892 22.6708C75.2853 20.5356 61.9252 31.623 59.8715 33.4727L13.9266 32.0604C21.1664 17.5108 36.8471 8.21755 53.9773 9.91533ZM9.91563 46.0243C10.3049 42.1024 11.2464 38.3659 12.6514 34.8888L44.5689 46.0762C44.5689 46.0762 31.3459 62.2903 25.8484 68.807L12.4512 64.6034C10.2196 58.8799 9.26688 52.5559 9.91563 46.0243ZM13.2853 66.5903L25.3294 72.2433L29.6667 84.7801C22.4454 80.5542 16.718 74.1672 13.2853 66.5903ZM46.0258 90.0847C40.8174 89.5694 35.9389 88.0792 31.5535 85.8217L28.7696 72.0543C35.8277 67.2686 53.336 55.8143 53.336 55.8143L61.1282 88.7242C56.3609 90.0958 51.2601 90.6037 46.0258 90.0847ZM90.0875 53.9757C88.5194 69.7819 78.0137 82.5411 64.0753 87.7494L67.4709 41.9134C69.5246 40.0636 81.9542 27.9309 80.2712 23.4307C87.3702 31.5192 91.2329 42.4175 90.0875 53.9757Z" fill="#939598"/>
</svg>
