<svg width="100" height="100" viewBox="0 0 100 100" fill="none" xmlns="http://www.w3.org/2000/svg">
<circle cx="50" cy="50" r="50" fill="#071A7A"/>
<path d="M30 25.6846C36.3023 28.1956 41.3701 32.9578 44.0947 38.917L44.0986 38.9209C46.3788 43.8429 50.5231 47.8063 55.6758 50H44.7422C42.4245 49.0246 40.4198 47.5143 38.8906 45.627L38.8877 45.623C35.9077 42.017 32.5152 34.6025 30 25.6846ZM30 14C45.246 15.4076 56.9724 22.0579 63.0449 33.6816C66.718 40.7211 72.7001 46.4601 80.0342 49.999H66.166C60.2111 46.2259 55.4205 40.8913 52.4404 34.6006L52.4375 34.5996C48.2109 25.5027 40.9066 19.077 30.3623 15.0156L30 14Z" fill="white"/>
<path d="M80.0342 50.001C72.7001 53.5401 66.718 59.2812 63.0449 66.3193V66.3213C56.9724 77.9439 45.246 84.5941 30 86L30.3623 84.9883C40.9066 80.9248 48.2109 74.4988 52.4375 65.4033L52.4404 65.3984C55.4205 59.1111 60.2111 53.7759 66.166 50.001H80.0342ZM55.6758 50.001C50.5231 52.1964 46.3787 56.156 44.0986 61.0762L44.0947 61.083C41.3701 67.0421 36.3023 71.8045 30 74.3154C32.5152 65.3996 35.9077 57.9812 38.8877 54.3789L38.8906 54.373C40.4198 52.4875 42.4246 50.9762 44.7422 50.001H55.6758Z" fill="#8AA5D1"/>
</svg>
