<svg width="100" height="100" viewBox="0 0 100 100" fill="none" xmlns="http://www.w3.org/2000/svg">
<g clip-path="url(#clip0_2099_2720)">
<path d="M0.00390625 36.6836H5.86133V47.2246H16.6875V36.6836H22.5449V63.3086H16.6875V52.625H5.86133V63.3086H0.00390625V36.6836Z" fill="#E31E32"/>
<path d="M25.916 50.168V50.082C25.916 42.3125 32.0293 35.9688 40.457 35.9688C48.8848 35.9688 54.9414 42.2539 54.9414 50.0234V50.1094C54.9414 57.8789 48.8281 64.2227 40.4004 64.2227C31.9434 64.1934 25.916 57.9102 25.916 50.168ZM48.6543 50.168V50.082C48.6543 45.3965 45.2266 41.5117 40.3984 41.5117C35.5703 41.5117 32.1992 45.3398 32.1992 50.0254V50.1113C32.1992 54.7969 35.627 58.6816 40.4551 58.6816C45.2852 58.6523 48.6543 54.8242 48.6543 50.168Z" fill="#E31E32"/>
<path d="M58.082 36.7695H68.9668C75.3379 36.7695 79.166 40.541 79.166 45.9688V46.0547C79.166 52.2246 74.3672 55.4258 68.3965 55.4258H63.9395V63.4238H58.084V36.7695H58.082ZM68.5957 50.1953C71.5391 50.1953 73.2519 48.4531 73.2519 46.168V46.082C73.2519 43.4531 71.4238 42.0547 68.5098 42.0547H63.9668V50.1953H68.5957Z" fill="#E31E32"/>
<path d="M95.7861 35.7909L81.0918 53.2988L85.3154 56.8437L100.01 39.3357L95.7861 35.7909Z" fill="#E31E32"/>
<path d="M78.623 64.1934C76.5957 64.1934 74.9375 62.5645 74.9375 60.5371C74.9375 58.5098 76.5664 56.8516 78.5938 56.8516C80.6211 56.8516 82.2793 58.4805 82.2793 60.5078C82.2793 62.5371 80.6504 64.1934 78.623 64.1934Z" fill="#E31E32"/>
</g>
<defs>
<clipPath id="clip0_2099_2720">
<rect width="100" height="100" fill="white"/>
</clipPath>
</defs>
</svg>
