<svg width="100" height="100" viewBox="0 0 100 100" fill="none" xmlns="http://www.w3.org/2000/svg">
<path d="M0 0H12.5943C16.826 0 20.8306 1.91403 23.4884 5.20691L51.5714 40H29.9807C26.0961 40 22.4996 37.9511 20.5186 34.6097L0 0Z" fill="black"/>
<path d="M0 0H12.5943C16.826 0 20.8306 1.91403 23.4884 5.20691L51.5714 40H29.9807C26.0961 40 22.4996 37.9511 20.5186 34.6097L0 0Z" fill="url(#paint0_linear_2099_2729)"/>
<path d="M52.7403 41.4478C48.9001 41.5405 45.184 41.9494 42.153 42.3079C32.3146 43.4716 29.7798 49.5084 32.3882 54.6302L53.4755 90.1992C57.0774 96.2746 63.6165 99.9998 70.6794 99.9998H100L52.7403 41.4478Z" fill="url(#paint1_linear_2099_2729)"/>
<path d="M52.7403 41.4478C48.9001 41.5405 45.184 41.9494 42.153 42.3079C32.3146 43.4716 29.7798 49.5084 32.3882 54.6302L53.4755 90.1992C57.0774 96.2746 63.6165 99.9998 70.6794 99.9998H100L52.7403 41.4478Z" fill="url(#paint2_linear_2099_2729)"/>
<path d="M60.2589 50.7632L65.7914 57.6175C58.0808 56.8168 42.5587 62.8736 42.1511 71.0981L42.1356 71.072C40.7143 60.7143 50.3937 52.8714 60.2589 50.7632Z" fill="url(#paint3_linear_2099_2729)"/>
<path d="M74.2859 50.0858C70.891 42.6684 61.4936 41.2367 52.7403 41.4481C51.2614 41.4838 49.8009 41.5664 48.3909 41.675C46.1395 41.8483 44.0167 42.0878 42.153 42.3083C40.2012 42.5391 38.5368 42.9618 37.143 43.5311C34.9879 44.4113 33.4797 45.642 32.556 47.0562C31.0661 49.3374 31.0974 52.096 32.3882 54.6306L42.1357 71.0721C40.7144 60.7144 50.3938 52.8715 60.259 50.7633C64.9829 49.7538 69.958 49.6203 74.2859 50.0858Z" fill="#C4C4C4"/>
<path d="M74.2859 50.0858C70.891 42.6684 61.4936 41.2367 52.7403 41.4481C51.2614 41.4838 49.8009 41.5664 48.3909 41.675C46.1395 41.8483 44.0167 42.0878 42.153 42.3083C40.2012 42.5391 38.5368 42.9618 37.143 43.5311C34.9879 44.4113 33.4797 45.642 32.556 47.0562C31.0661 49.3374 31.0974 52.096 32.3882 54.6306L42.1357 71.0721C40.7144 60.7144 50.3938 52.8715 60.259 50.7633C64.9829 49.7538 69.958 49.6203 74.2859 50.0858Z" fill="url(#paint4_linear_2099_2729)"/>
<defs>
<linearGradient id="paint0_linear_2099_2729" x1="25.8111" y1="0.750026" x2="25.8111" y2="39.5119" gradientUnits="userSpaceOnUse">
<stop stop-color="#00D9FF"/>
<stop offset="1" stop-color="#0E518A"/>
</linearGradient>
<linearGradient id="paint1_linear_2099_2729" x1="41.4303" y1="56.5477" x2="73.2364" y2="55.9653" gradientUnits="userSpaceOnUse">
<stop stop-color="#E6EAEF"/>
<stop offset="1" stop-color="#95AAB1"/>
</linearGradient>
<linearGradient id="paint2_linear_2099_2729" x1="31.4698" y1="70.7178" x2="99.9485" y2="70.7178" gradientUnits="userSpaceOnUse">
<stop stop-color="#F12E1F"/>
<stop offset="1" stop-color="#9F1E1C"/>
</linearGradient>
<linearGradient id="paint3_linear_2099_2729" x1="75.9622" y1="36.9243" x2="41.4122" y2="68.6425" gradientUnits="userSpaceOnUse">
<stop stop-color="#F12E1F"/>
<stop offset="1" stop-color="#9F1E1C"/>
</linearGradient>
<linearGradient id="paint4_linear_2099_2729" x1="41.4303" y1="56.3682" x2="73.2361" y2="55.7789" gradientUnits="userSpaceOnUse">
<stop stop-color="#E6EAEF"/>
<stop offset="1" stop-color="#95AAB1"/>
</linearGradient>
</defs>
</svg>
