<svg width="100" height="100" viewBox="0 0 100 100" fill="none" xmlns="http://www.w3.org/2000/svg">
<path d="M51.7561 70.241C51.7561 67.1842 53.345 66.6059 56.3554 68.2582C61.8746 71.315 67.6446 74.4544 67.6446 74.4544C67.8118 72.7195 69.317 71.315 72.662 71.9759C75.756 72.7195 79.1846 73.463 79.1846 73.463C79.1846 73.463 77.3448 69.3322 76.5086 67.5146C75.0034 64.21 76.425 62.5577 77.9302 62.1446C77.9302 62.1446 75.8396 60.7401 74.418 59.8313C71.4912 57.7659 72.1602 55.7831 75.0034 54.5439C78.9337 52.8916 83.8675 50.7435 83.8675 50.7435C82.2786 49.8348 80.4389 47.3563 82.5295 44.3821C84.5365 41.4905 87.5469 37.4424 87.5469 37.4424C87.5469 37.4424 82.195 37.4424 78.6828 37.4424C75.4215 37.3597 74.6689 34.8812 74.6689 33.0637C74.6689 33.0637 69.4006 36.6988 65.6376 39.2599C62.4599 41.3253 59.6167 39.3425 60.1185 35.7074C60.8711 30.0895 61.5401 23.8107 61.5401 23.8107C59.6167 25.1325 56.2718 25.0499 54.7666 21.9105C52.5924 17.2014 50.0001 11.7487 50.0001 11.7487C50.0001 11.7487 47.4914 17.2014 45.3172 21.9105C43.8956 25.0499 40.467 25.1325 38.5437 23.8107C38.5437 23.8107 39.2127 30.0895 39.9653 35.7074C40.467 39.3425 37.5402 41.3253 34.4461 39.2599C30.6831 36.7814 25.4148 33.0637 25.4148 33.0637C25.4148 34.8812 24.6622 37.4424 21.4845 37.4424C17.8887 37.4424 12.6205 37.4424 12.6205 37.4424C12.6205 37.4424 15.6309 41.4905 17.7215 44.3821C19.7285 47.2737 17.8887 49.8348 16.3835 50.7435C16.3835 50.7435 21.2337 52.8916 25.164 54.5439C28.0908 55.7831 28.7598 57.7659 25.7493 59.8313C24.4114 60.8227 22.2372 62.1446 22.2372 62.1446C23.7424 62.6403 25.164 64.21 23.6587 67.5146C22.8225 69.3322 20.9828 73.463 20.9828 73.463C20.9828 73.463 24.4114 72.7195 27.5054 71.9759C30.7667 71.2324 32.3556 72.7195 32.5228 74.4544C32.5228 74.4544 38.2092 71.315 43.7283 68.2582C46.7388 66.6059 48.3276 67.1842 48.3276 70.241V77.8417C48.3276 82.2203 47.4914 87.012 45.8189 89.5731C24.6622 87.2599 7.18497 70.5714 7.18497 48.5955C7.18497 25.9587 26.3347 7.53529 50.0001 7.53529C73.6654 7.53529 92.8152 25.9587 92.8152 48.5955C92.8152 69.8279 76.1741 87.0947 54.7666 89.4079V94.9432C79.8535 92.7126 99.505 72.8021 99.505 48.5955C99.505 22.9019 77.3449 2 50.0001 2C22.6553 2 0.495117 22.8193 0.495117 48.5955C0.495117 71.2324 17.6379 90.0688 40.467 94.2823C44.3137 95.0258 46.7388 95.6041 48.7457 98C51.1708 93.6213 51.7561 84.2857 51.7561 78.9983V70.241V70.241Z" fill="#E82C2A"/>
</svg>
