<svg width="100" height="101" viewBox="0 0 100 101" fill="none" xmlns="http://www.w3.org/2000/svg">
<path fill-rule="evenodd" clip-rule="evenodd" d="M57.3916 66.0996H70.2481V74.033H74.8095V77.3247H57.3916V66.0996Z" fill="#98017E"/>
<path fill-rule="evenodd" clip-rule="evenodd" d="M39.7012 59.0771H57.9492V73.6379H50.6098V77.3252H39.7012V59.0771Z" fill="#C53296"/>
<path fill-rule="evenodd" clip-rule="evenodd" d="M63.7023 89.3075H59.1396V85.1417H52.3955V82.1665H63.7023V89.3075Z" fill="#8FADCB"/>
<path fill-rule="evenodd" clip-rule="evenodd" d="M66.8761 82.1664H50.6099V73.6377H57.9493V77.325H66.8761V82.1664Z" fill="#66C3B7"/>
<path fill-rule="evenodd" clip-rule="evenodd" d="M44.2627 85.1416H59.1399V100.019H44.2627V85.1416Z" fill="#FF4D00"/>
<path fill-rule="evenodd" clip-rule="evenodd" d="M83.7363 72.6453H70.2393V66.0996H57.9492V63.1244H67.0745V52.0161H83.7363V72.6453Z" fill="#F9A518"/>
<path fill-rule="evenodd" clip-rule="evenodd" d="M74.8095 74.033H70.2393V66.0996H57.9492V77.3247H74.8095V74.033Z" fill="#98017E"/>
<path fill-rule="evenodd" clip-rule="evenodd" d="M74.8094 72.6455H70.248V74.0333H74.8094V72.6455ZM74.8094 77.3249H66.876V78.3799H74.8094V77.3249Z" fill="#FF0000"/>
<path fill-rule="evenodd" clip-rule="evenodd" d="M83.7364 75.1196H74.8096V72.6455H83.7364V75.1196Z" fill="#8FADCB"/>
<path fill-rule="evenodd" clip-rule="evenodd" d="M86.9414 60.4482H83.7363V70.1688H86.9414V60.4482Z" fill="#C4D4DA"/>
<path fill-rule="evenodd" clip-rule="evenodd" d="M89.7056 62.5644V46.9475H88.5413V42.9286H89.7056V38.6128H70.3159L70.3184 52.0162H83.7363V60.4483H86.9413V62.5644H89.7056Z" fill="#0480B7"/>
<path fill-rule="evenodd" clip-rule="evenodd" d="M57.9492 48.0596V63.1246H67.0745V52.0162H70.3184V48.0596H57.9492Z" fill="#0F499E"/>
<path fill-rule="evenodd" clip-rule="evenodd" d="M57.9489 35.6821H36.266V48.0978H35.1357V59.0768H57.9489V35.6821Z" fill="#CCEBDD"/>
<path fill-rule="evenodd" clip-rule="evenodd" d="M36.2661 48.0978H21.061V42.0156H21.9665V35.6821H36.2661V48.0978Z" fill="#357579"/>
<path fill-rule="evenodd" clip-rule="evenodd" d="M21.9667 42.0157H0V33.9736H21.9667V42.0157Z" fill="#FFB300"/>
<path fill-rule="evenodd" clip-rule="evenodd" d="M7.67334 9.02783H41.4379V35.6821H21.9666V33.9735H7.67334V9.02783Z" fill="#4EBDD7"/>
<path fill-rule="evenodd" clip-rule="evenodd" d="M51.9497 7.29688H36.3667V9.02812H41.438V35.6824H57.9491V26.294H67.5328V14.5936H51.9497V7.29688Z" fill="#4F53A2"/>
<path fill-rule="evenodd" clip-rule="evenodd" d="M36.3665 0H24.6177V14.4697H36.3665V0Z" fill="#4DAC26"/>
<path fill-rule="evenodd" clip-rule="evenodd" d="M51.9497 0.617676H60.5299V14.5932H51.9497V0.617676Z" fill="#CCE968"/>
<path fill-rule="evenodd" clip-rule="evenodd" d="M57.9492 48.0597H70.3184V33.1448H67.5329V26.2939H57.9492V48.0597Z" fill="#B3E0AC"/>
<path fill-rule="evenodd" clip-rule="evenodd" d="M67.5327 14.5933H79.5302V33.1446H67.5327V14.5933Z" fill="#8DD2C4"/>
<path fill-rule="evenodd" clip-rule="evenodd" d="M62.3511 8.66162H67.5329V13.0415H62.3511V8.66162Z" fill="#4F53A2"/>
<path fill-rule="evenodd" clip-rule="evenodd" d="M95.5531 46.9475H88.5415V42.9287H95.5531V46.9475Z" fill="#F90033"/>
<path fill-rule="evenodd" clip-rule="evenodd" d="M89.7056 42.9285H98.375V37.2852H89.7056V42.9285Z" fill="#96D38C"/>
<path fill-rule="evenodd" clip-rule="evenodd" d="M84.2661 38.6129H89.7054V37.2854H98.3747V38.6129H99.9999V35.0625H90.2517V33.1812H84.2661V38.6129Z" fill="#8DC3D5"/>
<path fill-rule="evenodd" clip-rule="evenodd" d="M100 35.0625H90.252V29.8462H100V35.0625Z" fill="#FFD900"/>
<path fill-rule="evenodd" clip-rule="evenodd" d="M86.4038 18.0464H79.5303V33.1447H70.3184V38.6128H84.2662V33.1811H86.4038V18.0464Z" fill="#FFFF1A"/>
<path fill-rule="evenodd" clip-rule="evenodd" d="M86.4038 20.8677H94.0999V24.6303H92.3894V29.846H90.2518V33.181H86.4038V20.8677Z" fill="#F64F95"/>
<path fill-rule="evenodd" clip-rule="evenodd" d="M92.3892 24.6304H99.23V29.8461H92.3892V24.6304Z" fill="#73147A"/>
</svg>
