<svg width="100" height="100" viewBox="0 0 100 100" fill="none" xmlns="http://www.w3.org/2000/svg">
<path fill-rule="evenodd" clip-rule="evenodd" d="M100 50.0001C100 28.942 77.6138 11.8721 50.0001 11.8721C22.3862 11.8721 0 28.942 0 50.0001C0 71.0581 22.3862 88.1281 50 88.1281C77.6138 88.1281 100 71.0582 100 50.0001ZM26.3634 19.9187C26.3634 19.9187 35.2351 24.0289 41.6317 31.2283C41.6317 31.2283 54.5839 45.0722 57.0663 46.3375C57.0663 46.3375 51.8684 49.9779 30.1185 29.3304C30.1185 29.3304 16.7666 40.0111 16.1266 48.868H97.3623L97.4474 51.639H15.9712C15.9712 51.639 16.6075 59.3896 29.0049 70.9434C29.0049 70.9434 47.1513 54.9611 57.1476 53.4554L57.7063 53.3778C57.7063 53.3778 51.0692 58.9974 46.6667 63.9845C46.6667 63.9845 34.3581 76.7962 25.4052 79.8817C25.4052 79.8817 -7.6211 65.7973 6.04888 37.0811C6.04888 37.0811 10.8139 27.0773 26.3634 19.9187ZM97.2993 47.662C97.2993 47.662 91.6352 9.80407 41.0395 14.9132L42.9708 15.3867C50.0702 16.5003 54.7946 21.3726 54.7946 21.3726C57.4694 23.4148 66.7628 33.326 66.7628 33.326C81.8757 50.7881 97.2993 47.662 97.2993 47.662ZM97.536 52.8006C97.536 52.8006 91.8794 89.8448 41.2763 84.8429L43.2112 84.3804C50.3108 83.289 55.0314 78.524 55.0314 78.524C57.7062 76.5188 67.0033 66.8221 67.0033 66.8221C82.1124 49.7448 97.536 52.8006 97.536 52.8006Z" fill="#D71920"/>
</svg>
