<svg width="100" height="100" viewBox="0 0 100 100" fill="none" xmlns="http://www.w3.org/2000/svg">
<path d="M100 50C100 77.6 77.6286 100 50 100C22.4 100 0 77.6 0 50C0 22.4 22.4 0 50 0C77.6286 0 100 22.4 100 50Z" fill="#E32526"/>
<path d="M35.9143 40C37.0572 39.8 37.8857 40.4857 37.8 41.5143C37.7143 42.5714 36.7143 43.5714 35.6 43.7714C34.4857 43.9714 33.6286 43.2857 33.7143 42.2286C33.8286 41.2286 34.8 40.2 35.9143 40ZM23.7714 47.4857C24.7429 43.8286 25.9429 40.1143 27.1143 37.3429C24.7429 40.4286 22.2286 44.3714 19.9429 48.3143C21.2572 48 22.5429 47.7429 23.7714 47.4857ZM43.8857 44.6572C44.7714 44.4857 46.7429 45.6857 45.8 46.8C44.8286 47.9429 43.7143 47.7143 41.9714 48.4286C40.9714 48.8286 40.2286 49.7143 39.1429 51.2857C37.7714 53.3143 37.1429 55.2857 37.0286 56.7714C37.0286 57.2 36.9714 57.4286 36.7429 57.5714C34.4286 59.0857 33.7429 57.9429 33.8 56.5714C33.8286 56.2572 33.9429 55.7429 34.1429 55.0857C32.3714 57.7429 30.8 59.0857 29.7714 59.2857C28.4 59.5429 27.6286 58.5714 27.7714 56.8C27.8286 56 28.0857 55.0572 28.5429 53.8572C29.2642 52.075 30.1487 50.3759 30.9429 48.6286C29.8857 48.8286 28.4286 49.1429 26.6857 49.5429C26.6572 49.6 26.6286 49.6286 26.6286 49.6286C25.8857 53.0857 25.8286 54.4 25.4286 57.4C25.2572 58.7143 25.5143 60.1429 23.9429 60.3429C22.3714 60.5714 21.8572 58.9429 21.8286 57.5714C21.8 56.1714 22.0572 54.4857 23.0572 50.3714C21.4286 50.8 19.6857 51.2572 18 51.8C17.9714 51.8286 17.9714 51.8572 17.9714 51.8572C15.1429 57.0572 12.3429 63.4857 11.8572 65.5429C11.4857 67.2 10.7429 67.7143 9.62858 67.2286C8.51429 66.7429 7.88572 65.6286 8.28572 64.4C9.02858 62.1714 11.2286 57.1714 13.2 53.5714C13.1714 53.5714 13.2 53.5143 13.2572 53.4286C11.8 54 10.4572 54.6 9.28572 55.2572C8.51429 55.6857 7.54287 55.2857 7.34287 54.4286C7.20001 53.8 6.91429 52.6 8.42858 51.9429C10.7143 50.9429 13.1714 50.1143 15.6 49.4C20.8 40.6286 27.2857 31.6 29.1429 31.7714C29.9429 31.8286 29.8286 32.7143 30.5429 33.5143C31.2572 34.3143 31.3429 34.7714 30.5143 36.8572C28.8 41.1429 28.9143 40.1429 27.2857 46.8286C30.3143 46.3143 32.9429 46.0286 33.2 46C34.0286 45.8857 35.4857 46.4572 34.7143 48.0857C33.6889 49.8801 32.6531 51.6898 31.8572 53.6C31.7838 53.754 31.0605 55.4137 31.6572 55.3143C31.8857 55.2857 32.2286 55.0286 32.6286 54.6C33.0286 54.1429 34.3714 53.0286 36.7714 48.9714L37.4 47.6572C37.6 47.2572 37.8857 46.5714 37.9429 46.2572C38 45.8 38.0286 45.6572 38.4286 45.4286C39.0572 45.0286 40.2 44.6857 40.8857 45.1143C41.5143 45.5143 41.3429 46.2857 40.8286 47.1714C42.8857 44.8286 43.4 44.7429 43.8857 44.6572ZM84.9429 51.4857C86.1143 50.0286 87.9429 46.7143 88.0572 45.8C88.1143 45.3714 88 45.2286 87.6572 45.2572C87.2572 45.3143 86.3429 46.0572 85.4857 47.1143C84.2286 48.6286 82.5143 51.7143 82.3714 52.7143C82.3143 53.1143 82.4857 53.4 82.7714 53.3714C83.2572 53.3143 84.0572 52.6 84.9429 51.4857ZM92 49.0857C92.5143 48.2857 93.6 48.5429 93.3143 49.2857C93.0572 49.9429 92.6 50.9714 91.3714 52.4C89.8857 54.2286 88.5143 55.1143 87.2857 55.2857C86.2857 55.4286 85.5714 55 85.4 54.1143L85.3429 53.9429C85.3429 53.7714 85.2572 53.7143 85.1714 53.7143C85.0857 53.7143 85 53.8 84.8572 53.9429C83.6 55.2572 82.6572 56.0857 81.4857 56.2572C79.7429 56.4857 78.7429 55.1429 79 53.1714C78.5429 53.8571 78.0572 54.5143 77.6286 55C76.2857 56.5143 75.1714 57.4571 74.1429 57.6C72.7429 57.7714 72.0286 56.8 72.2572 55.0572C72.3714 54.2572 72.6572 53.3143 73.1714 52.1429C73.6857 50.9714 74.5143 49.3429 75.2857 48.0286C75.8857 46.9429 76.4857 45.7143 76.5714 45.3143C76.6286 45 76.6857 44.9143 76.9429 44.7429C77.2572 44.5143 77.9143 44.2286 78.2857 44.2C79.2572 44.1143 80.5714 44.8286 79.7143 46.3143L79.4 46.8857C79.3429 47 78.7714 48.0572 78.4286 48.6572C77.8 49.6286 77 51.0857 76.5143 52.0857C76.2 52.6857 76.0572 53.1143 76 53.4571C75.9714 53.6857 76.0286 53.8 76.2 53.7714C76.4286 53.7429 76.8 53.5143 77.2286 53.0857C77.6572 52.6286 77.9429 52.3143 78.9143 51.0286L79.2572 50.5714C79.5429 50.2 81.7714 47.2857 82.4572 46.5714C84.2572 44.4286 86.2857 42.8857 87.6 42.7429C88.4572 42.6286 89.1429 43.0286 89.4857 43.8C89.7143 44.4572 89.7714 44.4857 90.3429 44.7429C91.2572 45.1143 91.5714 45.4286 91.4857 45.8857C91.4572 46.2286 91.3143 46.4857 90.7429 47.4C90.3429 48.1143 89.8857 48.9143 89.5429 49.5429C88.8572 50.8857 88.4857 51.8 89.1429 52.0572C89.4 52.1429 89.8572 51.9143 90.4286 51.2857C91.0572 50.5429 91.5143 49.8572 92 49.0857ZM80.1714 42.3143C81.2857 42.1143 82.2857 41.0857 82.3714 40.0572C82.4572 39 81.6 38.3429 80.4857 38.5429C79.3429 38.7429 78.3714 39.7714 78.2857 40.8C78.2 41.8286 79.0572 42.5143 80.1714 42.3143ZM63.0572 37.3429C60.7143 40.4286 58.2 44.3429 55.9143 48.2572C57.2572 47.9429 58.5429 47.6857 59.7429 47.4572C60.7143 43.8286 61.8857 40.1143 63.0572 37.3429ZM63.6286 46.8286C64.3143 46.7429 66.4857 46.4572 66.4 47.4C66.2572 48.8857 65.7143 48.8572 63.7429 49.2857C63.3714 49.3714 62.9714 49.4572 62.5714 49.5429C62.5429 49.6286 62.5143 49.7143 62.4857 49.7143C61.7429 53.1714 61.6857 54.4857 61.2857 57.4857C61.1143 58.8 61.3714 60.2286 59.8 60.4286C58.2286 60.6572 57.6857 59.0286 57.6857 57.6572C57.6857 55.2 58.9143 50.4286 58.9429 50.4C57.3429 50.8 55.6286 51.2572 53.9143 51.8C51.8857 55.2572 48.1714 63.5714 47.7143 65.6572C47.3429 67.3143 46.6 67.8286 45.4857 67.3429C44.3714 66.8572 43.7714 65.7714 44.1429 64.5143C45.1714 61.0857 49.0857 53.6286 49.1429 53.4857C47.6857 54.0572 46.3429 54.6857 45.2 55.3429C44.4857 55.7429 43.5714 55.3714 43.3714 54.4857C43.2286 53.8572 42.9429 52.6572 44.3714 52C46.6286 50.9714 49.0857 50.1143 51.5429 49.4C56.7429 40.6572 63.2 31.6572 65.0572 31.8286C65.8572 31.8857 65.7429 32.7714 66.4572 33.5714C67.1714 34.3429 67.2572 34.8286 66.4286 36.9143C64.7143 41.2 64.8572 40.2 63.2 46.8857C63.3143 46.8572 63.4857 46.8286 63.6286 46.8286ZM66.1143 58.9429C67.4 58.8 71.1714 58 71.2 53.8572C71.2 52.2572 69.6857 51.4286 69.3143 50.3143C69.0857 49.6286 69.1429 48.2 70.2286 47.7714C71.5714 47.2572 71.8572 48.1143 72.3143 48.7714C72.5143 49.0286 73.1143 48.9714 73.3429 48.7714C73.6286 48.4572 74.0572 48 74.2572 47.2286C74.4286 46.5143 73.6572 45.3429 71.4857 45.4C70.7143 45.4286 69.6286 45.5429 68.1143 47C67.4 47.6572 65.1714 50.7429 66.8286 53.3714C67.2857 54.0857 68.3429 54.9714 67.6572 55.6286C66.5714 56.6857 64.7143 55.0572 64.3714 54.5714C64.2 54.3429 63.7429 54.0857 63.4572 54.5429C63.2857 54.8 62.4572 56.2857 62.5714 56.8286C62.8857 58.5714 65.1143 59.0572 66.1143 58.9429Z" fill="white"/>
</svg>
