<svg width="100" height="100" viewBox="0 0 100 100" fill="none" xmlns="http://www.w3.org/2000/svg">
<path d="M13.8866 75.1443V70.9853H50.9177V71.0777H51.6583C52.3064 71.0777 52.9544 70.3383 52.9544 69.5989C52.9544 68.8596 52.399 68.0278 51.6583 68.0278H13.8866V63.8688H51.5658C52.399 63.8688 52.9544 63.1294 52.9544 62.39C52.9544 61.5582 52.399 60.8188 51.5658 60.8188H0V56.6598H39.4381C40.2713 56.6598 40.9193 55.9205 40.9193 55.2735C40.9193 54.5341 40.4564 53.7023 39.5307 53.7023H0V49.5433H39.5307C40.3639 49.5433 40.9193 48.804 40.9193 47.9722C40.9193 47.3252 40.2713 46.4934 39.5307 46.4934H0L4.62888 42.242H27.5881C28.4213 42.242 28.9768 41.4102 28.9768 40.7632C28.9768 40.1163 28.3288 39.2845 27.5881 39.2845H7.96168L12.498 35.1255H27.4956C28.2362 35.1255 28.8842 34.3861 28.8842 33.6467C28.8842 32.815 28.1436 32.168 27.403 32.168H15.8308L32.6799 17.0108C33.2354 16.4562 33.0502 15.9017 32.7725 15.532L31.8467 14.6078C31.569 14.3305 31.6616 13.6836 32.4022 13.5912C32.4948 13.4987 33.328 13.3139 33.8834 13.3139C36.2904 12.7594 45.8259 10.9109 54.8986 11.0033C62.9528 11.0033 72.0254 12.2973 77.3023 13.776C79.3391 14.3305 80.9129 15.7169 81.5609 17.0108C81.8387 17.6577 81.9312 17.8426 82.1164 18.2123C82.3941 18.6744 81.9312 19.0441 81.3758 18.9516C78.8762 18.4895 72.9512 17.7502 66.193 18.4895C65.6376 18.4895 65.7301 19.2289 66.193 19.3213C69.3407 20.2456 72.2106 22.1864 73.5067 23.4803C73.6918 23.6652 73.877 23.7576 73.9696 23.6652C74.1222 23.589 74.3013 23.4932 74.5077 23.3829C76.3044 22.422 80.166 20.357 86.5601 20.5228C95.355 20.9849 100.169 28.1938 99.9839 34.4785C100.076 34.9407 99.7987 36.0497 98.4101 35.4028C90.9113 32.168 77.6727 29.3953 64.8044 32.4453C64.7581 32.4453 64.6886 32.4684 64.6192 32.4915C64.5498 32.5146 64.4803 32.5377 64.4341 32.5377C59.8977 33.5543 58.972 37.2512 58.972 39.4693V67.4732C58.972 71.4474 57.3982 75.1443 57.3982 75.1443H13.8866Z" fill="#003263"/>
<path d="M27.6807 89.4697V85.2183H49.4365C49.4365 85.2183 44.3447 89.3772 36.4756 89.4697H27.6807Z" fill="#003263"/>
<path d="M27.6807 82.2608V78.1018H55.9169C55.5466 78.9336 54.0654 81.0593 52.8618 82.2608H27.6807Z" fill="#003263"/>
<path d="M72.5809 35.5876C71.6551 35.1255 70.6368 34.6633 69.063 34.6633C65.9153 34.6633 62.3974 37.2512 62.5825 41.1329V63.499C62.5825 67.3808 66.0079 70.9852 70.3591 70.9852H81.7461C86.7453 70.9852 87.7637 66.6414 87.7637 65.3475V55.9204C87.7637 55.8827 87.7634 55.8436 87.7632 55.8032C87.7586 55.052 87.7513 53.8777 89.2449 53.7023C90.3558 53.6099 91.3742 53.425 92.0222 53.2402C93.1332 52.8705 93.3183 51.7614 93.1331 51.1145C91.5593 45.3843 88.5969 39.192 87.023 36.1421C86.5601 35.2179 85.1715 34.4785 83.6902 35.4951C83.4125 35.68 79.1539 38.7299 79.1539 38.7299C78.3914 38.3624 77.6811 38.0173 77.0125 37.6924C75.3271 36.8734 73.9066 36.1831 72.5809 35.5876Z" fill="#003263"/>
</svg>
