<svg width="100" height="100" viewBox="0 0 100 100" fill="none" xmlns="http://www.w3.org/2000/svg">
<path d="M100 50C100 77.6142 77.6142 100 50 100C22.3858 100 0 77.6142 0 50C0 22.3858 22.3858 0 50 0C77.6142 0 100 22.3858 100 50Z" fill="#0F1E3D"/>
<path d="M70.9316 72.2246C64.7934 73.5299 60.9006 65.3968 60.8906 65.376L60.7207 64.9814H67.6006L70.9316 72.2246ZM49.042 28C52.6167 30.8361 52.1131 36.2859 49.874 40.4365L49.8398 40.5127H99.1006C99.4449 42.3051 99.6935 44.1314 99.8408 45.9863H52.3008L49.8291 40.5361L42.5293 56.9209H93.1816C91.8912 62.3193 83.8905 62.3942 83.8574 62.3945H40.0898L38.8115 65.2646C38.8071 65.2739 34.9131 73.5317 28.7705 72.2256C28.7705 72.2256 28.7702 72.2249 49.042 28ZM30.4199 62.3125H16.082C16.0146 62.3119 8.23852 62.2265 6.98145 56.9736H32.8428L30.4199 62.3125ZM99.9844 48.7705C99.9942 49.1791 100 49.589 100 50C100 51.4296 99.9389 52.845 99.8213 54.2441H56.0215L53.5391 48.7705H99.9844ZM34.3379 54.1934H0.174805C0.0599964 52.8107 0 51.4123 0 50C0 49.5798 0.0053197 49.1609 0.015625 48.7432H36.7617L34.3379 54.1934ZM38.0303 45.8516H0.170898C0.319447 44.043 0.563487 42.2616 0.899414 40.5127H40.4561L38.0303 45.8516Z" fill="white"/>
</svg>
