<svg width="100" height="100" viewBox="0 0 100 100" fill="none" xmlns="http://www.w3.org/2000/svg">
<path d="M47.3645 54.9439C33.3084 57.3364 14.3178 59.1308 0.11215 63.4673C-0.0373832 63.4673 -0.0373832 63.6168 0.11215 63.6168C34.6542 62.5701 72.0374 62.7196 99.8505 63.6168L100 63.4673C99.4019 60.1776 96.7103 56.4393 89.0841 56.4393H84.5981L84.4486 56.5888C85.6449 59.729 82.2056 61.8224 79.9626 59.8785C79.0654 59.1308 78.0187 57.0374 80.5608 55.3925C82.3551 54.0467 85.1963 52.2523 86.8411 51.2056C92.8224 47.4673 91.9252 42.0841 84 41.486C65.0094 39.9907 31.215 38.0467 17.757 37C17.4579 37 17.3084 37.1495 17.458 37.2991C28.5234 43.2804 38.5421 43.8785 49.6075 47.9159C56.1869 50.4579 54.8411 53.7477 47.3645 54.9439Z" fill="#007AC2"/>
</svg>
