<svg width="100" height="100" viewBox="0 0 100 100" fill="none" xmlns="http://www.w3.org/2000/svg">
<path d="M0 25C0 11.1929 11.1929 0 25 0H75C88.8072 0 100 11.1929 100 25V75C100 88.8072 88.8072 100 75 100H25C11.1929 100 0 88.8072 0 75V25Z" fill="#09426A"/>
<path d="M38.8961 99.9902H32.3267C31.7968 99.4003 31.3268 98.7703 30.9169 98.1004C29.547 95.8606 27.8472 93.7308 26.1274 91.5711C22.4877 87.0115 18.7681 82.342 17.8982 76.3226C17.7282 75.1027 17.5482 73.9028 17.3682 72.7229C16.2784 65.5137 15.2985 58.9743 16.6883 53.2549C16.6683 55.3447 16.7783 57.2545 16.9283 58.7843C17.0383 59.8142 17.2683 60.8241 17.5682 62.124C18.0282 64.1138 18.6381 66.7735 19.1781 71.1831C19.628 74.8627 21.0979 77.5825 23.2677 80.5022C24.1476 81.692 25.0775 82.8519 25.8374 84.1018C25.9774 84.7317 26.1474 85.3517 26.4073 85.9616C27.4372 88.4314 29.547 92.431 32.2368 93.3409C32.7267 93.5009 33.2467 93.6108 33.6466 93.9408C34.0866 94.3008 34.2965 94.8707 34.6165 95.3407C35.1665 96.1506 36.2164 96.9205 37.1863 97.6604C37.3662 97.9204 37.5362 98.1804 37.7162 98.4404C38.0862 98.9903 38.4861 99.5103 38.8961 100V99.9902Z" fill="#B1D78A"/>
<path d="M99.99 23.6674V29.8668C99.41 29.2468 98.8401 28.6169 98.2801 27.987C95.1904 24.5573 92.7107 23.2674 89.611 22.1876C89.601 22.1776 89.591 22.1576 89.571 22.1376C89.561 22.1176 89.551 22.1076 89.531 22.0876C88.6211 20.8677 87.8612 19.9678 87.3412 19.5378C84.0715 16.8281 71.7128 13.2884 64.3535 12.4285C64.9135 12.3085 65.4734 12.1886 66.0333 12.0586C70.1729 11.1287 74.1725 10.2387 78.9421 12.1386C84.7815 14.4683 94.6805 19.4878 99.98 23.6774L99.99 23.6674Z" fill="#B1D78A"/>
<path d="M25.0374 79.0523C20.7479 71.4131 17.8982 62.544 22.6277 54.4048C24.5275 48.0354 25.1274 41.1061 30.0969 36.1666C33.9066 31.877 38.1361 27.1975 43.7356 25.5077C47.6352 21.898 51.9747 17.7084 57.5942 17.5485C60.9539 16.1786 64.2335 15.3787 67.8332 15.8686C77.6522 13.1289 68.9531 16.9585 73.4726 17.8284C77.0522 17.1985 80.4819 18.1084 84.0415 18.4384C84.3715 18.4784 84.9415 18.5984 84.8915 19.0583C83.0416 21.3881 88.6811 21.1081 90.001 21.988C85.9614 15.6087 71.5028 13.1489 62.7137 12.039C55.8644 11.719 48.6151 15.0387 40.4359 18.1784C32.2467 21.3281 28.1971 29.8772 22.4577 35.5467C12.8287 45.7256 17.1082 73.7528 26.1673 84.0118C25.8074 82.362 25.6774 80.6722 25.0374 79.0723V79.0523Z" fill="#47A7C5"/>
<path d="M99.9903 30.0668C96.5807 25.8972 92.5511 22.9775 88.2715 21.9976C89.5814 22.3875 89.8213 22.9275 90.1813 23.7374C92.3311 28.1869 98.5505 29.7268 100 34.8363V30.0668H99.9903Z" fill="#0F7BB6"/>
<path d="M99.9897 44.3958V49.6852C97.02 41.706 91.5706 34.2968 84.7812 29.2673C88.2709 28.3474 92.0605 30.7171 94.2103 33.4269C95.2402 34.8167 95.0002 36.5566 96.6601 37.5465C97.7799 38.3664 98.4099 39.3463 98.0699 40.6762C98.1799 42.066 99.5198 43.1159 99.9897 44.4058V44.3958Z" fill="#7EA9C8"/>
<path d="M29.3668 58.8542C29.7568 54.3146 30.1768 49.3551 33.3564 45.8155C34.9663 44.1356 35.7762 42.4358 35.5362 40.276C35.7062 39.3961 36.5761 38.8462 36.5061 37.9062C33.2864 40.186 29.9468 44.3856 27.637 47.9252C24.7973 54.7046 25.9572 63.6237 28.7269 70.033C29.9468 67.2333 28.7769 62.3338 29.3568 58.8442L29.3668 58.8542Z" fill="#7EA9C8"/>
<path d="M40.1562 34.927C39.8962 35.087 38.9762 35.587 38.7562 35.287C38.7362 35.257 38.7162 35.217 38.6962 35.167C38.6562 35.037 38.6562 34.877 38.6762 34.737C38.8262 33.677 39.5662 33.257 40.4562 32.827C40.5562 32.777 40.6562 32.737 40.7562 32.687C41.0762 32.537 41.3962 32.387 41.7062 32.207C41.7362 32.187 41.7662 32.167 41.8062 32.147C41.9262 32.077 42.0662 31.987 42.1062 32.027C42.1562 32.067 42.0862 32.227 42.0262 32.317C41.9462 32.437 41.8562 32.567 41.7762 32.687C41.6562 32.857 41.5462 33.027 41.4362 33.197C41.2562 33.467 41.0762 33.747 40.9062 34.017C40.8662 34.077 40.8362 34.147 40.7962 34.207C40.6362 34.487 40.4962 34.737 40.1762 34.927H40.1562Z" fill="#7EA9C8"/>
<path d="M74.9222 48.3652C69.9627 45.5255 61.7835 46.6654 59.1238 50.465C58.5638 50.465 58.8838 47.5853 57.9139 47.4953C56.2441 46.0955 51.1146 48.2753 49.8747 46.8554C50.4547 42.0659 63.6833 34.2467 68.2429 36.2665C69.7827 36.6264 71.2726 41.186 72.7724 41.066C72.3125 35.9965 74.2623 39.3661 76.2621 41.8459C77.072 42.8258 80.8516 45.0956 79.5018 42.7158C78.9718 41.9059 78.3319 40.0961 78.8418 39.7761C81.5615 38.9462 85.6711 50.405 82.9214 51.8249C81.3316 52.5848 77.9419 49.9651 74.9122 48.3452L74.9222 48.3652ZM49.6247 55.9445C50.5246 55.6345 52.2045 55.0846 53.0844 54.8846C53.9243 54.4646 56.614 55.1546 55.8541 54.1947C55.2642 54.1147 52.3845 52.8448 51.5745 53.3148C50.9946 53.7047 47.5749 53.8847 48.3249 55.4845C48.4349 55.7945 48.7148 56.2645 49.6247 55.9445ZM69.8027 54.1647C70.3027 54.9746 73.5024 53.3947 74.0423 54.4546C74.8322 56.2245 77.302 58.6642 79.7517 58.4842C81.2116 58.4342 81.0116 58.0143 80.9816 57.8843C80.2417 57.5043 79.0218 57.8143 77.6319 56.5644C75.4622 54.8546 75.6521 52.7948 72.6024 52.8348C71.0926 52.9948 69.6427 53.4647 69.7927 54.1647H69.8027ZM79.7717 56.0045C79.5717 56.8144 84.3613 56.5344 84.0213 55.6345C83.9713 55.1646 83.2914 55.2246 82.7414 55.3146C81.7915 55.6445 80.1217 55.3345 79.7717 56.0045ZM50.9446 76.1825C51.9845 75.5325 53.4344 73.8627 52.5244 72.5928C51.8145 71.9929 50.9746 73.3327 50.0647 73.8327C48.5248 75.0426 48.7648 77.9023 50.9446 76.1825ZM68.0929 77.3323C72.4824 77.0624 73.3724 74.3926 69.8327 71.9529C69.0328 71.223 62.7934 72.3129 61.9635 73.0028C60.1537 74.0627 59.3638 74.9926 57.9039 75.9625C57.6539 77.4423 69.1228 77.2124 68.1029 77.3323H68.0929ZM60.3837 52.7248C58.5338 53.1948 59.7537 59.2842 56.704 57.8243C55.6041 57.4643 54.8742 57.3843 53.4444 58.1843C52.3145 58.9742 50.7346 59.4141 49.7647 59.4641C49.5147 59.4941 49.3748 59.4441 49.2148 60.0541C49.0648 60.664 48.7148 61.324 48.3549 61.3839C46.955 61.274 46.1451 59.1142 44.4753 60.534C43.0154 61.164 41.0856 70.1931 42.3855 70.973C43.0354 71.203 44.0953 68.0333 45.1552 68.4732C47.5449 74.3127 42.0655 84.2717 49.6547 88.8712C52.8144 91.031 55.4842 95.6105 57.284 93.3008C57.6439 92.4108 57.8439 91.4409 58.9438 90.571C60.0437 89.6911 60.3037 88.9212 60.0237 88.4112C58.5338 87.1114 57.284 88.9612 54.5142 88.2613C52.5344 87.9413 49.5447 87.1314 49.2848 85.6815C49.1048 84.6716 49.8847 83.6717 50.0547 82.8518C50.6946 81.7519 50.2147 78.0923 48.5748 80.372C48.2849 80.782 47.5449 81.162 47.5549 80.1221C47.5349 78.2523 47.9449 76.1525 47.5449 74.3926C47.085 72.7028 49.4048 71.8329 50.4747 71.223C50.9446 70.933 51.4246 70.633 51.4546 69.8531C51.4746 68.4632 52.7644 66.5334 52.9944 65.3535C53.0444 64.9836 53.2644 64.6736 53.8543 64.5536C54.4443 64.4336 54.6942 64.4736 54.5242 64.9836C52.4844 69.7931 58.3339 67.0034 60.5136 66.8834C62.5534 67.2634 63.0034 67.8933 65.0532 68.3332C67.403 68.8732 65.4732 66.5234 66.1331 65.8035C66.603 65.5935 67.083 66.2535 67.453 67.1434C69.8427 74.5826 75.0422 66.8034 72.7224 80.812C72.3525 81.3319 71.9225 80.912 72.2525 80.432C72.2925 80.0421 72.5524 78.0523 71.8725 78.0023C70.6026 78.6622 68.8528 78.5122 67.203 78.6322C64.3833 78.9422 58.8638 79.0522 56.0741 78.5122C55.6441 78.1823 52.9944 79.7721 54.3643 80.502C54.7342 80.572 56.2941 80.692 57.044 80.792C59.5037 81.8519 64.7332 79.4721 64.8532 83.2218C63.9933 85.7215 74.7222 89.8711 73.9623 85.6315C72.6224 82.0819 77.332 84.5216 78.7318 83.2118C79.4318 82.1719 79.5118 81.9919 80.7916 81.092C84.4413 78.8522 81.7415 72.3928 82.7314 68.6332C82.7014 65.6235 87.491 62.8638 85.2912 60.724C84.6512 60.0341 80.4617 58.8342 81.8715 59.9141C85.4711 62.0539 82.9614 62.9438 80.6816 60.844C79.8117 60.454 80.6516 61.5839 80.2617 61.8139C79.1818 62.4038 78.2519 60.734 77.342 60.0041C74.8122 58.2443 74.4423 57.6143 70.3227 58.1643C67.143 58.6842 67.003 59.7541 65.8131 57.7143C62.6934 57.6243 62.2635 53.1048 60.3537 52.7248H60.3837ZM75.0522 80.862C73.8423 80.832 75.4022 77.8223 74.9722 76.2825C75.0522 74.4126 74.3223 73.6327 74.5822 72.5428C76.2821 70.803 77.332 82.0219 75.0522 80.852V80.862ZM49.9547 61.054C50.3447 61.234 54.2443 60.1041 54.3243 59.5941C54.7442 59.2242 55.0842 59.8041 55.5841 59.9941C56.554 61.4739 52.8044 62.1439 51.5045 62.4138C49.8147 62.7538 48.0849 61.4539 49.9647 61.054H49.9547ZM68.2129 60.1441C69.7727 59.8241 72.7724 60.784 74.1723 59.4641C74.3623 59.3042 74.4823 59.3941 74.6722 59.8041C74.6522 61.7339 67.363 62.8138 67.203 60.824C67.143 59.9641 67.6729 60.1441 68.2129 60.1541V60.1441Z" fill="white"/>
</svg>
