<svg width="100" height="100" viewBox="0 0 100 100" fill="none" xmlns="http://www.w3.org/2000/svg">
<path d="M39.6938 73.4451L39.6903 73.4551L54.0623 63.0668L53.4752 61.2696L43.1288 68.7475L44.8725 63.4122L43.3337 62.3004L40.2859 71.6331C36.6266 68.7649 34.2683 64.3237 34.2683 59.3408C34.2683 58.1997 34.3952 57.0844 34.6315 56.0109L33.0472 54.8678C32.6574 56.3272 32.4601 57.8308 32.4601 59.3408C32.4601 65.1318 35.3155 70.2698 39.6938 73.4451ZM49.2313 63.2263L38.8829 55.7485H44.5238L45.1104 53.9493L35.2346 53.9513C37.2756 48.4371 42.3484 44.3726 48.4329 43.7713L49.039 41.9219C41.6769 42.3195 35.5149 47.2518 33.322 53.9513H33.319L47.6934 64.3361L49.2313 63.2263ZM39.6409 40.091H39.7448C39.6708 39.3057 39.4 38.841 38.9024 38.6551C37.1167 37.9857 36.1544 36.5215 36.1544 34.8824C36.1544 33.0132 37.3545 31.8527 38.8619 31.8527C41.0014 31.8527 41.7773 34.3317 44.222 34.3317C45.0999 34.3317 45.8168 33.8198 45.8168 33.3815V33.123H45.3602C42.2914 33.123 41.8193 30.0536 38.8614 30.0536C36.3393 30.0536 34.3443 32.0381 34.3443 34.8819C34.3443 37.7486 36.5706 40.091 39.6409 40.091ZM11.3262 60.1226H22.3376V60.0261C21.2304 59.6932 20.349 59.1549 19.4307 58.3239H11.3267C7.2037 58.3239 5.9891 57.9412 3.9466 55.748H31.9135C32.0341 55.1416 32.1858 54.5417 32.3682 53.9508H0L1.25508 55.4289C4.53167 59.2931 5.76027 60.1226 11.3262 60.1226ZM45.1838 32.1032C46.7491 32.1032 47.7149 30.8075 47.7149 29.6083C47.7149 28.3896 47.1528 27.8936 46.5708 27.8936C46.3266 27.894 46.0924 27.9903 45.9192 28.1615C45.746 28.3328 45.6478 28.5652 45.646 28.8081C45.646 29.3523 46.1376 29.7186 46.5078 29.7186C46.0332 30.4372 45.3162 30.6828 44.3909 30.6147C44.5014 30.4606 44.5611 30.2762 44.5618 30.0869C44.5618 29.566 44.1281 29.1749 43.6449 29.1749C43.1868 29.1749 42.7306 29.6028 42.7306 30.1465C42.7306 31.1738 43.6964 32.1032 45.1838 32.1032ZM36.1574 71.4457H22.8942C19.2439 71.4457 17.8729 71.1425 16.1876 69.5502H13.6894C16.3675 72.559 17.8479 73.2444 22.8942 73.2444H37.9871C37.3367 72.6868 36.7254 72.0862 36.1574 71.4457ZM30.0539 68.8698V68.7733C28.9467 68.4404 28.0639 67.9021 27.147 67.0711H19.041C15.3887 67.0711 14.0197 66.7694 12.3324 65.1756H9.83677C12.5108 68.1844 13.9932 68.8698 19.041 68.8698H30.0539ZM26.1987 64.4952V64.3988C25.0921 64.0673 24.2092 63.5275 23.2924 62.698H15.1863C11.534 62.698 10.163 62.3963 8.47777 60.803H5.9821C8.65764 63.8118 10.138 64.4957 15.1863 64.4957L26.1987 64.4952ZM53.692 34.7C52.7912 34.7 51.8799 35.7934 51.5416 37.3888C52.1002 37.4285 52.6558 37.4857 53.1984 37.5697C53.5581 36.1791 54.1802 35.5375 54.7038 35.4445C54.5169 35.0221 54.1677 34.7 53.692 34.7ZM49.9998 41.8951L44.5088 58.7021L46.0457 59.8139L49.9978 47.7145L51.7425 53.0498H53.6426L50.5948 43.7151C56.7643 43.9447 62.0344 47.716 64.3977 53.0498H66.3527C63.8096 46.5306 57.4408 41.8951 49.9998 41.8951ZM59.7976 42.8016V40.9572C57.1145 39.4265 53.5332 38.2973 49.9998 38.2973C46.4634 38.2973 42.8835 39.4265 40.1995 40.9572V42.8011C43.0758 41.1133 46.4249 40.0964 49.9993 40.0964C53.5736 40.0964 56.9212 41.1133 59.7976 42.8016ZM41.0843 39.2928C41.5481 39.0773 42.0196 38.8786 42.4978 38.6969C42.2629 37.9976 41.8208 37.2084 40.9924 37.2084C40.5802 37.2084 40.2579 37.5379 40.118 37.9221C40.5007 38.0573 40.8175 38.3863 41.0843 39.2928ZM42.0731 72.8478L40.4917 73.9874C43.3217 75.8166 46.6249 76.7886 49.9998 76.7855C53.8454 76.7855 57.4043 75.5445 60.2982 73.4491L60.3082 73.4541L54.8192 56.647H52.9176L56.8712 68.745L52.3076 65.4504L50.7707 66.5602L58.7498 72.3269C56.1656 74.0624 53.1183 74.9888 50.0003 74.9868C47.1099 74.9868 44.4044 74.2046 42.0741 72.8478H42.0731ZM46.8031 37.5677C47.3534 37.4859 47.9068 37.4262 48.4619 37.3888C48.1236 35.7934 47.2138 34.699 46.3135 34.699C45.8373 34.699 45.4866 35.0221 45.2992 35.4445C45.8233 35.5375 46.4469 36.1791 46.8031 37.5677ZM43.53 35.9003C43.1178 35.9003 42.7191 36.188 42.5587 36.612C42.9519 36.6696 43.4756 36.9852 43.8613 38.2322C44.3684 38.0806 44.8811 37.9478 45.3981 37.8341C45.0284 36.5996 44.3589 35.9003 43.53 35.9003ZM86.3081 69.5497H83.8089C82.1251 71.1416 80.7541 71.4447 77.1038 71.4447H63.8421C63.2736 72.0852 62.6618 72.6863 62.0109 73.2439H77.1038C82.1521 73.2439 83.6325 72.558 86.3081 69.5497ZM48.9146 53.9503L48.328 55.7475H61.1156L56.5539 59.0456L57.1405 60.8427L65.1321 55.0691C65.5198 56.4259 65.7297 57.8582 65.7297 59.3398C65.7297 63.9738 63.6922 68.1432 60.4636 71.0098L61.0681 72.8597C65.0122 69.658 67.5384 64.7874 67.5384 59.3398C67.5384 57.4586 67.2351 55.6491 66.678 53.9503L66.68 53.9483L48.9146 53.9503ZM96.0519 55.7475C94.0089 57.9407 92.7963 58.3229 88.6733 58.3229H80.5673C79.651 59.1539 78.7676 59.6922 77.6609 60.0257V60.1221H88.6733C94.2382 60.1221 95.4663 59.2926 98.7449 55.4284L100 53.9503H67.6298C67.8112 54.5358 67.9631 55.1391 68.0865 55.7475H96.0519ZM48.2151 28.6853L50.0023 27.3931L51.7879 28.6868L51.1074 26.5969L52.8946 25.3047H50.6862L50.0017 23.2148L49.3203 25.3047H47.1099L48.8986 26.5969L48.2151 28.6853ZM90.1612 65.1751H87.6651C85.9803 66.7689 84.6088 67.0701 80.957 67.0701H72.85C71.9336 67.9016 71.0523 68.4399 69.9436 68.7729V68.8693H80.9565C86.0043 68.8693 87.4872 68.1834 90.1612 65.1751ZM94.0154 60.8025H91.5197C89.833 62.3958 88.4635 62.6975 84.8112 62.6975H76.7051C75.7883 63.527 74.9054 64.0668 73.7983 64.3983V64.4947H84.8112C89.8595 64.4947 91.3399 63.8113 94.0154 60.8025ZM59.8845 37.9216C59.7471 37.5374 59.4228 37.2079 59.0086 37.2079C58.1817 37.2079 57.7396 37.9986 57.5067 38.7019C57.9864 38.8823 58.457 39.0806 58.9187 39.2943C59.185 38.3863 59.5038 38.0568 59.8845 37.9216ZM48.8646 34.5375C49.3632 35.109 49.658 35.5514 49.9773 36.2611C49.9873 36.271 49.9923 36.2859 50.0023 36.2959C50.0122 36.2859 50.0172 36.271 50.0272 36.2611C50.3465 35.5514 50.6403 35.1095 51.1394 34.5375C50.9506 34.0415 50.3815 33.1404 50.0023 32.7741C49.6235 33.1404 49.0539 34.0415 48.8656 34.5375H48.8646ZM54.1887 33.123V33.381C54.1887 33.8193 54.9057 34.3312 55.7835 34.3312C58.2282 34.3312 59.0041 31.8517 61.1436 31.8517C62.649 31.8517 63.8526 33.0127 63.8526 34.8814C63.8526 36.521 62.8868 37.9847 61.1031 38.6546C60.6045 38.8405 60.3347 39.3052 60.2587 40.091H60.3646C63.4334 40.091 65.6612 37.7481 65.6612 34.8814C65.6612 32.0376 63.6662 30.0531 61.1441 30.0531C58.1862 30.0531 57.7141 33.123 54.6453 33.123H54.1887ZM52.2886 29.6073C52.2886 30.8065 53.2559 32.1022 54.8197 32.1022C56.3086 32.1022 57.2749 31.1728 57.2749 30.1455C57.2749 29.6023 56.8182 29.1744 56.3601 29.1744C56.1172 29.175 55.8845 29.2713 55.7127 29.442C55.5409 29.6128 55.444 29.8443 55.4433 30.0859C55.4433 30.2926 55.5102 30.4591 55.6141 30.6137C54.6873 30.6823 53.9703 30.4368 53.4977 29.7181C53.8644 29.7181 54.3595 29.3518 54.3595 28.8081C54.3578 28.5646 54.2594 28.3317 54.0856 28.1602C53.9119 27.9887 53.677 27.8925 53.4322 27.8926C52.8527 27.8926 52.2886 28.3886 52.2886 29.6073ZM50.0023 28.9184C49.6188 28.9187 49.2512 29.0702 48.9799 29.3397C48.7087 29.6093 48.556 29.9748 48.5553 30.3562C48.5553 30.738 48.7078 31.1041 48.9791 31.374C49.2505 31.6439 49.6185 31.7955 50.0023 31.7955C50.386 31.7955 50.754 31.6439 51.0254 31.374C51.2967 31.1041 51.4492 30.738 51.4492 30.3562C51.4489 29.9747 51.2963 29.6089 51.025 29.3393C50.7537 29.0697 50.3858 28.9183 50.0023 28.9184ZM57.4458 36.612C57.2869 36.1875 56.8867 35.9003 56.4765 35.9003C55.6461 35.9003 54.9781 36.5996 54.6064 37.8356C55.1237 37.9487 55.6364 38.082 56.1432 38.2352C56.5295 36.9852 57.0546 36.6696 57.4458 36.612Z" fill="#EC1C24"/>
</svg>
