<svg width="100" height="100" viewBox="0 0 100 100" fill="none" xmlns="http://www.w3.org/2000/svg">
<path d="M11.9567 57.2167L10.9319 56.2894L20.0091 51.0188L24.4917 54.0788C27.0854 55.8502 29.9889 55.8918 32.6001 54.923L87.9419 34.3284C90.4242 33.3788 92.9197 33.938 94.4814 35.2557L97.446 34.6867C97.7734 34.6239 98.1074 34.5825 98.4392 34.6144C99.3409 34.7011 99.7052 35.0329 99.9472 35.4509C100.083 35.7216 99.947 36.1796 99.6646 36.2886L30.1348 63.1246C27.0657 64.3092 23.5867 63.5685 21.2663 61.2365L15.3729 55.3134L11.9567 57.2167Z" fill="#E10601"/>
<path d="M28.1186 11.0072C37.5337 7.93746 47.7477 8.40065 56.8498 12.3153L57.0645 12.4083C66.1392 16.373 73.4624 23.5081 77.6608 32.4829L75.8042 33.3514C71.817 24.8281 64.8621 18.0519 56.244 14.2866L56.0401 14.1982C47.3958 10.4804 37.6955 10.0405 28.754 12.9558L28.5429 13.0253C19.6134 15.9934 12.0737 22.1124 7.33102 30.2338L7.2195 30.426C2.48395 38.643 0.930561 48.313 2.85427 57.5998L2.90002 57.8172C4.86047 67.0154 10.1043 75.1879 17.6549 80.8035C25.2649 86.4632 34.6884 89.1314 44.1359 88.3017C53.5835 87.4719 62.3975 83.2018 68.9045 76.3022C75.4115 69.4026 79.1585 60.3538 79.4339 50.8738L81.4827 50.9334C81.1927 60.9155 77.2473 70.4435 70.3957 77.7085C63.5441 84.9736 54.2633 89.4698 44.3153 90.3435C34.3674 91.2173 24.4448 88.4077 16.4317 82.4482C8.48119 76.5352 2.9596 67.9299 0.895319 58.2445L0.847184 58.0156C-1.17841 48.2369 0.457288 38.0548 5.44365 29.4026L5.56108 29.2001C10.555 20.6486 18.4939 14.2056 27.8963 11.0803L28.1186 11.0072Z" fill="#E10601"/>
</svg>
