<svg width="100" height="100" viewBox="0 0 100 100" fill="none" xmlns="http://www.w3.org/2000/svg">
<path d="M72.7221 54.2503L69.3523 58.3946C67.2758 60.7896 65.4719 61.5282 61.6258 61.5282C48.6529 61.5282 12.9407 61.5309 4.86458 61.5282H0L5.1584 56.3519C7.18804 54.4707 8.72797 53.7515 13.1546 53.7515C13.1546 53.7515 58.9438 53.7463 60.5921 53.7463C63.4026 53.7463 63.5946 53.6477 65.2274 51.9672L74.6493 40.8558C76.3592 38.7913 78.2645 38 81.3399 38H99.9882L96.6768 42.2532C94.6989 44.5833 92.2562 45.2805 89.3543 45.2805C89.3543 45.2805 79.9952 45.2805 79.6212 45.2805C79.0593 45.2805 78.7849 45.4152 78.473 45.77C78.2921 45.9757 76.3735 48.3347 76.3735 48.3347H88.9773L86.4532 51.3933C84.746 53.2144 82.9039 54.2495 79.9785 54.2495H72.7221V54.2503Z" fill="#0B1560"/>
</svg>
