<svg width="100" height="100" viewBox="0 0 100 100" fill="none" xmlns="http://www.w3.org/2000/svg">
<path fill-rule="evenodd" clip-rule="evenodd" d="M8.11423 46.6413C8.11423 51.2695 5.30926 52.0298 3.59675 52.3767C2.3788 52.6277 1.14609 52.8861 0.00195312 53.078C0.00195312 47.2392 0.00195312 41.4004 0.00195312 35.5617C0.00195312 30.9335 2.80693 30.1732 4.51944 29.8262C5.73738 29.5753 6.9701 29.3169 8.11423 29.125C8.11423 34.9638 8.11423 40.8025 8.11423 46.6413Z" fill="#00683E"/>
<path fill-rule="evenodd" clip-rule="evenodd" d="M10.9556 35.7684V29.125H60.921C59.9836 30.3503 59.2012 31.6052 58.3449 32.7788C57.1565 34.4028 55.7171 35.7684 52.6168 35.7684H38.8946V53.0854H30.7824V35.7684H10.9482H10.9556Z" fill="#00683E"/>
<path fill-rule="evenodd" clip-rule="evenodd" d="M62.0431 32.3876C63.9549 29.7524 65.6083 29.125 68.2878 29.125C73.0489 29.125 77.81 29.125 82.5711 29.125C88.3803 37.1118 94.1895 45.0986 99.9988 53.0854H94.0641C91.392 53.0854 89.7385 52.4579 87.8193 49.8227L73.4918 30.1215L56.7948 53.0854H46.9922L62.0431 32.3876Z" fill="#00683E"/>
<path fill-rule="evenodd" clip-rule="evenodd" d="M12.2105 62.6665L10.4906 66.3499H13.9377L12.2178 62.6665H12.2105ZM9.75241 67.9222L8.56399 70.4614H6.32739L12.2031 58.5107L18.0788 70.4614H15.8422L14.6537 67.9222H9.74503H9.75241Z" fill="#00683E"/>
<path fill-rule="evenodd" clip-rule="evenodd" d="M64.9291 62.6665L63.2093 66.3499H66.6564L64.9365 62.6665H64.9291ZM62.4785 67.9222L61.2901 70.4614H59.0535L64.9291 58.5107L70.8048 70.4614H68.5682L67.3798 67.9222H62.4711H62.4785Z" fill="#00683E"/>
<path d="M24.7664 58.9243H22.5298V70.4616H24.7664V58.9243Z" fill="#00683E"/>
<path fill-rule="evenodd" clip-rule="evenodd" d="M76.5476 70.4542H78.6218V65.2576L82.9768 58.9243H80.6221L77.6695 63.3089L74.5988 58.9243H72.2441L76.5476 65.2576V70.4542Z" fill="#00683E"/>
<path fill-rule="evenodd" clip-rule="evenodd" d="M30.7086 70.4542H32.672V65.9589H33.7793L37.1526 70.4542H39.5294L35.9347 65.671C37.3224 65.1322 38.2894 63.8847 38.2894 62.4453C38.2894 60.504 36.5326 58.9243 34.3698 58.9243H30.7012V70.4616L30.7086 70.4542ZM32.672 60.6516H34.3772C35.3368 60.6516 36.1192 61.4562 36.1192 62.4379C36.1192 63.427 35.3368 64.2242 34.3772 64.2242H32.672V60.6442V60.6516Z" fill="#00683E"/>
<path fill-rule="evenodd" clip-rule="evenodd" d="M47.1471 66.0622L44.261 58.9243H42.0317L46.8888 70.8749L50.1735 63.1834L53.3476 70.8749L58.2046 58.9243H56.0788L53.1926 66.0622L50.1735 58.6143L47.1471 66.0622Z" fill="#00683E"/>
<path fill-rule="evenodd" clip-rule="evenodd" d="M93.0749 59.8911V62.076C91.9234 61.0131 90.8678 60.4964 89.9009 60.4964C88.7641 60.4964 88.181 61.0426 88.181 61.8989C88.181 62.6592 89.052 63.2718 91.0819 64.0026C92.8682 64.6374 93.6507 65.8701 93.6507 67.2135C93.6507 69.1844 92.0046 70.6607 89.6056 70.6607C88.336 70.6607 87.1476 70.3359 86.033 69.4723V67.339C87.214 68.3724 88.3877 68.9039 89.5539 68.9039C90.8457 68.9039 91.6946 68.2839 91.6946 67.4424C91.6946 66.468 90.794 66.0989 89.1332 65.4051C87.1328 64.571 86.1806 63.5523 86.1806 62.0982C86.1806 59.9723 87.7824 58.7617 89.8492 58.7617C91.0819 58.7617 92.1522 59.1013 93.0675 59.8985L93.0749 59.8911Z" fill="#00683E"/>
<path fill-rule="evenodd" clip-rule="evenodd" d="M64.2502 47.3793C66.162 44.7441 67.8154 44.1167 70.4949 44.1167H76.4296L69.9118 53.0778H60.1091L64.2575 47.3793H64.2502Z" fill="#BF1E0C"/>
</svg>
