<svg width="100" height="100" viewBox="0 0 100 100" fill="none" xmlns="http://www.w3.org/2000/svg">
<path d="M78.5412 29.1465C66.7167 29.1465 57.082 38.7665 57.082 50.5727C57.082 62.3789 66.7167 71.9989 78.5412 71.9989C90.3655 71.9989 100 62.3789 100 50.5727C99.9273 38.7665 90.3655 29.1465 78.5412 29.1465ZM78.5412 60.4841C73.067 60.4841 68.5416 56.0385 68.5416 50.4999C68.5416 45.0338 72.994 40.5155 78.5412 40.5155C84.0155 40.5155 88.5408 44.9611 88.5408 50.4999C88.4679 56.0385 84.0155 60.4841 78.5412 60.4841Z" fill="#84BCE3"/>
<path d="M56.4944 67.9178C52.1152 72.1448 46.1299 74.7686 39.5608 74.7686C26.1307 74.7686 15.2551 63.9096 15.2551 50.5C15.2551 37.0903 26.1307 26.2315 39.5608 26.2315C46.1299 26.2315 52.1152 28.8552 56.4944 33.0821C59.7062 29.0009 64.0124 25.8672 68.9759 24.1181C61.7499 16.1015 51.2392 11 39.5608 11C17.7367 11 0 28.7094 0 50.5C0 72.2906 17.7367 90 39.5608 90C51.2392 90 61.6767 84.8985 68.9759 76.8819C64.0124 75.1329 59.7062 71.999 56.4944 67.9178Z" fill="#4B4F54"/>
</svg>
