<svg width="100" height="100" viewBox="0 0 100 100" fill="none" xmlns="http://www.w3.org/2000/svg">
<path d="M0 24C0 10.7452 10.7452 0 24 0H76C89.2548 0 100 10.7452 100 24V76C100 89.2548 89.2548 100 76 100H24C10.7452 100 0 89.2548 0 76V24Z" fill="#00205B"/>
<path d="M29.7096 42.0008H37.6695V84.6524C37.6695 91.2845 32.8286 95.7352 26.1165 95.7352H23V88.2431H25.2593C27.9913 88.2431 29.7096 86.9907 29.7096 84.0268V42.0008ZM29.7096 26H37.6695V33.9613H29.7096V26Z" fill="white"/>
<path d="M50.7675 58.234C50.9222 52.2254 54.4353 49.0264 59.12 49.0264C63.8044 49.0264 67.2371 52.2254 67.4683 58.234H50.7675ZM75.4289 64.7868V58.234C75.4289 48.0109 67.8557 41.5332 59.1208 41.5332C51.4675 41.5332 42.8076 46.5256 42.8076 61.9029C42.8076 78.1349 52.2493 82.0386 60.3681 82.0386C65.6714 82.0386 70.7463 80.1616 74.6457 75.6366L68.8758 70.7228C66.5307 73.1397 63.2549 74.5454 60.2113 74.5454C54.7473 74.5454 50.7678 71.2656 50.7678 64.7868H75.4289Z" fill="white"/>
<path d="M81.7398 29.9805H89.6997V42.0008H95.4707V48.0884H89.6997V71.109C89.6997 73.2965 90.5565 74.0761 92.5021 74.0761H95.4707V81.5683H91.3362C85.7928 81.5683 81.7398 78.0502 81.7398 71.8122V48.0884H77.7529V42.0008H81.7398V29.9805Z" fill="white"/>
</svg>
