<svg width="100" height="100" viewBox="0 0 100 100" fill="none" xmlns="http://www.w3.org/2000/svg">
<path d="M0 24C0 10.7452 10.7452 0 24 0H76C89.2548 0 100 10.7452 100 24V76C100 89.2548 89.2548 100 76 100H24C10.7452 100 0 89.2548 0 76V24Z" fill="#0135AD"/>
<path d="M88.7212 49.8856C86.1577 52.4863 80.6221 54.7428 77.9101 55.7754C74.1949 57.2287 72.5602 57.7259 70.4797 58.4143C68.1392 59.2175 63.4209 60.6708 63.4209 60.6708C73.1918 63.654 80.0648 64.5719 80.0648 64.5719C80.0648 64.5719 83.2599 63.5392 88.3497 60.7473C91.0989 59.294 92.4364 58.3378 93.4023 57.42C93.7738 57.0757 94.6655 56.1196 94.9255 54.8575C94.9255 54.781 94.9998 54.5133 94.9998 54.2838C94.9998 54.2838 94.9998 54.1308 94.9998 53.9778C94.9998 53.8249 94.9627 53.7101 94.9627 53.7101C94.9627 53.7101 94.9255 53.4042 94.8512 53.2129C94.7769 53.0217 94.4797 52.3715 93.9596 51.9508C93.6252 51.6831 93.0308 50.9564 90.9131 50.1915C90.2073 49.9238 89.0184 49.6943 89.0184 49.6943L88.7212 49.8856Z" fill="url(#paint0_linear_2099_2617)"/>
<path d="M94.9629 54.6532C94.9629 54.6532 94.963 54.3772 94.889 54.1406C94.852 53.904 94.7411 53.7069 94.5932 53.5097C94.4453 53.2337 94.1865 52.9577 93.8906 52.6028C93.6318 52.3662 93.373 52.1296 93.0402 51.893C91.7091 50.9861 90.0081 50.4341 88.4921 50.237C86.1626 49.9215 83.4634 49.9609 83.2045 49.9609C82.3541 49.9609 76.7337 50.0004 75.3286 50.0398C68.9317 50.1975 61.1298 50.1975 59.0961 50.1975C37.9827 50.3158 28.7757 49.8032 18.5333 47.6345C9.84388 45.7813 5 44.0463 5 44.0463C12.691 43.7703 57.4691 41.7988 65.6409 41.5622C71.0024 41.4045 74.774 41.365 77.843 41.5622C79.396 41.6411 80.8381 41.7988 82.6869 42.1142C84.3138 42.4297 85.7929 42.9028 86.6803 43.2577C88.4921 43.9675 90.0451 45.0321 90.7846 46.0967C90.7846 46.0967 91.0065 46.3333 91.3023 46.767C91.6351 47.2796 92.0418 47.9105 92.1897 48.1471C93.299 49.9215 93.8167 51.065 94.0016 51.4593C94.1864 51.8536 94.3713 52.2873 94.5562 52.7211C94.7041 53.1548 94.7781 53.3914 94.852 53.5491C94.9629 53.9829 94.9999 54.3772 94.9999 54.4955L94.9629 54.6532Z" fill="#EF101B"/>
<defs>
<linearGradient id="paint0_linear_2099_2617" x1="85.4754" y1="46.715" x2="73.5798" y2="66.7294" gradientUnits="userSpaceOnUse">
<stop stop-color="#2E5C99"/>
<stop offset="0.600962" stop-color="white"/>
</linearGradient>
</defs>
</svg>
