<svg width="100" height="100" viewBox="0 0 100 100" fill="none" xmlns="http://www.w3.org/2000/svg">
<path d="M100 50C100 77.6142 77.6142 100 50 100C22.3858 100 0 77.6142 0 50C0 22.3858 22.3858 0 50 0C77.6142 0 100 22.3858 100 50Z" fill="#ED1C24"/>
<path d="M97.668 40.9838C97.668 40.9838 72.8616 58.6512 72.1717 58.9662C71.2269 59.4011 69.3821 59.5811 68.6022 59.3111C68.3023 59.2061 66.6075 58.1713 64.8228 57.0165C61.7033 54.9918 61.5383 54.9168 60.4884 54.8568C59.6336 54.7968 59.2736 54.8718 58.6737 55.2017C58.2538 55.4417 54.6093 57.9913 50.5599 60.9009C46.5105 63.8105 42.7611 66.4051 42.2361 66.66C40.3464 67.6199 39.9415 67.6499 26.8784 67.6499C15.1051 67.6499 14.8652 67.6499 15.1951 67.3199C24.5625 60.5934 31.4465 55.5869 39.2703 49.7125L2.31201 49.6675L8.95603 44.7483C8.95603 44.7483 41.6408 44.7033 57.9838 44.7033C59.8735 44.9432 60.6084 45.4382 64.4479 49.1876C66.4126 51.0923 68.2423 52.7721 68.5572 52.9221C69.2921 53.297 70.6569 53.282 71.5418 52.8771C72.4867 52.4421 84.14 43.8484 84.14 43.8484L79.2357 40.9238L97.668 40.9838Z" fill="white"/>
</svg>
