<svg width="100" height="100" viewBox="0 0 100 100" fill="none" xmlns="http://www.w3.org/2000/svg">
<path d="M100 15.4775L16.4658 100.001H0V83.958L82.9756 0H100V15.4775Z" fill="#FFEA00"/>
<path fill-rule="evenodd" clip-rule="evenodd" d="M27.0756 18.6427H15.2324V71.002H20.3149V48.9459C23.1517 48.9459 26.0168 49.0688 28.8455 48.8026L48.6043 85.0508H54.4061L34.076 47.7946C39.4924 46.1205 44.7205 42.1482 44.7205 33.0271C44.7205 18.1153 28.6099 18.6427 27.0756 18.6427ZM20.4108 45.3977H26.3084C26.3084 45.3977 39.1585 45.6891 39.1585 34.1779C39.3983 21.6634 28.6099 22.095 26.4043 22.095H20.4108V45.3977Z" fill="#231512"/>
<path fill-rule="evenodd" clip-rule="evenodd" d="M63.0764 67.7885C69.2663 67.741 78.8237 67.6677 79.1571 56.8094C79.4841 45.8291 69.3844 45.5034 67.715 45.4495C67.6713 45.4481 67.6334 45.4469 67.6016 45.4457H58.5394V67.7895H62.9506L63.0764 67.7885ZM58.5873 21.9032C58.5873 21.9032 58.5394 21.9511 58.5394 22.095V41.9934H66.1152C69.04 41.9934 77.1433 41.1304 77.2871 31.3969C77.4789 21.6634 67.0742 21.9032 67.0742 21.9032H58.5873ZM83.0409 31.1092C83.4245 40.8427 74.65 43.4798 74.65 43.4798C74.65 43.4798 85.9178 44.5347 84.9588 57.8163C84.0478 71.1459 69.5195 71.002 69.5195 71.002H53.0253V18.4988H66.6426C75.2733 18.4988 82.6573 21.3757 83.0409 31.1092Z" fill="#231512"/>
</svg>
