<svg width="100" height="100" viewBox="0 0 100 100" fill="none" xmlns="http://www.w3.org/2000/svg">
<path d="M86.6412 67.4272C76.3169 77.579 65.919 87.6561 55.5294 97.7409C53.4479 99.7656 50.9577 100.359 48.1713 99.801C41.3724 98.4431 35.9891 92.4367 34.0885 85.9401C30.3872 73.3112 26.6948 60.6794 22.9194 48.0711C22.0548 45.1853 23.9173 42.6055 26.2151 42.083C27.1715 41.8664 28.0568 41.9853 28.9481 42.3683C47.7212 50.462 66.5485 58.4295 85.3147 66.5394C85.7531 66.7296 86.2653 66.8244 86.6412 67.4211V67.4272Z" fill="#10ADE4"/>
<path d="M32.7539 32.3589C34.572 31.3051 36.2716 30.3135 37.9742 29.3278C44.7582 25.4031 51.5566 21.5052 58.3106 17.5331C59.8563 16.6217 61.3933 16.3219 63.1105 16.7316C65.6303 17.3342 67.7891 18.4861 69.3938 20.6C76.2013 29.5595 83.0295 38.5042 89.8518 47.4548C90.4233 48.2029 90.9594 48.9779 91.2376 49.8863C92.4801 53.9524 87.4609 54.002 84.9275 53.057C81.9754 51.9555 79.0471 50.7918 76.1156 49.6368C62.098 44.1152 48.0804 38.5903 34.0656 33.0597C33.6659 32.9024 33.2188 32.834 32.7539 32.3589Z" fill="#525254"/>
<path d="M49.6429 10.5627C40.6133 15.3378 31.535 20.0205 22.4693 24.7266C19.4254 26.3058 16.1889 24.958 15.1881 21.6271C13.4411 15.8233 11.7414 10.0045 10.0418 4.18584C9.51174 2.36899 10.0684 1.22601 11.8332 0.5343C13.5891 -0.154444 15.4279 -0.14255 17.2046 0.371027C27.5588 3.35537 37.8159 6.71155 48.1062 9.90659C48.562 10.0491 49.0446 10.1233 49.6429 10.5627Z" fill="#10ADE4"/>
</svg>
