<svg width="100" height="100" viewBox="0 0 100 100" fill="none" xmlns="http://www.w3.org/2000/svg">
<path d="M49.194 76.7286C37.9198 76.7286 28.0291 69.7734 24.1402 59.3219V59.3124L52.2322 23.4144H52.2389C65.6352 24.9382 75.9466 36.3339 75.9466 49.9826C75.9466 64.7251 63.9338 76.7285 49.1914 76.7285L49.194 76.7286ZM59.5308 12L0 88.0775H73.5066L100 12H59.5308Z" fill="#00A64F"/>
<path d="M71.1161 62.2487C69.1623 61.1829 67.1431 60.2668 65.0677 59.5095C66.068 56.6396 66.6383 53.5827 66.685 50.4135H74.3133C74.2455 54.7045 73.0887 58.7337 71.1161 62.2487ZM62.1603 71.4942C61.4031 70.4659 60.5525 69.5311 59.6083 68.7271C61.8145 66.2498 63.5627 63.4172 64.778 60.3135C66.7973 61.0614 68.7885 61.9495 70.6955 62.9965C68.5734 66.4648 65.6379 69.4002 62.1603 71.4942V71.4942ZM51.5779 74.9812C54.4012 73.5041 56.9253 71.6158 59.038 69.3722C59.9168 70.12 60.7114 70.98 61.4031 71.9242C58.4397 73.5696 55.121 74.654 51.5779 74.9812ZM54.9153 66.8481C56.1493 67.3529 57.3085 68.0166 58.3649 68.8299C56.1587 71.1577 53.5131 73.1209 50.5216 74.5699C52.2698 72.1393 53.7374 69.5498 54.9153 66.8481V66.8481ZM49.6148 65.7449C51.1667 65.7917 52.6811 66.0628 54.1114 66.5489C52.9148 69.288 51.4097 71.9056 49.6148 74.3642V65.7449ZM48.7547 74.3455C46.9692 71.8962 45.4734 69.288 44.2768 66.5582C45.7071 66.0628 47.2123 65.7917 48.7547 65.7449V74.3455ZM40.0326 68.8393C41.089 68.026 42.2482 67.3622 43.4728 66.8481C44.6601 69.5498 46.1185 72.1393 47.8572 74.5699C44.8751 73.1209 42.2389 71.1577 40.0326 68.8393V68.8393ZM36.985 71.9523C37.6862 70.9987 38.4808 70.1387 39.3595 69.3815C41.4723 71.6157 43.9777 73.5041 46.7916 74.9718C43.2859 74.654 39.9672 73.5883 36.985 71.9523ZM33.6197 60.3228C34.835 63.4265 36.5925 66.2684 38.78 68.7364C37.8451 69.5591 36.9851 70.4846 36.2372 71.5316C32.769 69.4376 29.8242 66.5396 27.6927 63.0152C29.5998 61.9682 31.5911 61.0707 33.6197 60.3228V60.3228ZM32.5632 50.4135H40.014C40.0344 52.8161 40.248 55.1625 40.6591 57.4716C38.4436 57.8922 36.2653 58.4812 34.1432 59.2198C33.1617 56.4526 32.6102 53.4892 32.5634 50.4135H32.5632ZM41.5098 42.617C43.903 43.0283 46.3242 43.2527 48.7548 43.2807V49.5535H40.8648C40.8919 47.2164 41.1077 44.898 41.51 42.617H41.5098ZM43.978 34.2034C45.5111 34.7362 47.1191 35.0354 48.755 35.0821V42.4113C46.3712 42.3923 44.006 42.1682 41.6689 41.7755C42.1926 39.1954 42.9683 36.662 43.978 34.2033V34.2034ZM54.4295 34.2312C55.4392 36.6618 56.2057 39.1952 56.7199 41.7753C54.3828 42.168 51.9989 42.3923 49.615 42.4111V35.0912C51.279 35.0539 52.9057 34.7547 54.4295 34.2312V34.2312ZM58.9074 31.8286C61.0295 34.2312 62.7309 36.9796 63.9088 39.9524C61.8522 40.6629 59.7207 41.2331 57.5706 41.6351C57.0374 38.9989 56.2618 36.4187 55.2428 33.932C56.5516 33.3991 57.7856 32.6887 58.9074 31.8286V31.8286ZM51.5502 24.9762C55.1119 25.3034 58.4587 26.3972 61.4315 28.0425C60.721 29.0147 59.8983 29.8935 59.0009 30.6507C56.8788 28.3978 54.3734 26.4626 51.5502 24.9762ZM70.677 36.9609C68.7606 38.0079 66.7601 38.9054 64.7034 39.6533C63.4975 36.587 61.7587 33.7638 59.5805 31.2864C60.5434 30.4638 61.4128 29.5196 62.1794 28.4819C65.657 30.5853 68.5736 33.4927 70.677 36.9609V36.9609ZM58.3838 49.5532C58.3635 47.16 58.122 44.7949 57.7204 42.4859C59.9267 42.0652 62.0954 41.4949 64.2176 40.747C65.2272 43.5422 65.7881 46.515 65.8349 49.5532H58.3838ZM57.7387 57.4714C58.141 55.1623 58.3648 52.8065 58.3838 50.4133H65.8345C65.7871 53.4889 65.2363 56.4337 64.2547 59.2008C62.1233 58.4716 59.945 57.892 57.7389 57.4714H57.7387ZM57.5706 58.3127C59.7394 58.7147 61.8895 59.2943 63.9742 60.0141C62.7963 63.0337 61.0856 65.7915 58.9448 68.194C57.8136 67.3153 56.5703 66.5954 55.2428 66.0532C56.2711 63.5572 57.0471 60.977 57.5706 58.3127ZM49.6151 57.5275C51.999 57.5648 54.3827 57.7799 56.7292 58.1725C56.2055 60.7713 55.4391 63.3048 54.4388 65.754C52.9057 65.2212 51.279 64.922 49.615 64.8846L49.6151 57.5275ZM43.1459 66.0626C41.8185 66.6142 40.5845 67.3246 39.4534 68.2033C37.3126 65.7914 35.6018 63.0337 34.4239 60.0235C36.5086 59.3037 38.64 58.7334 40.8088 58.3127C41.342 60.9864 42.127 63.5665 43.1459 66.0626V66.0626ZM41.6596 58.1818C43.9967 57.7892 46.3712 57.5649 48.755 57.5368V64.8846C47.1004 64.9314 45.4738 65.2305 43.95 65.7634C42.9404 63.3234 42.1737 60.7807 41.6596 58.1818V58.1818ZM57.5239 50.4133C57.4967 52.7504 57.2811 55.0781 56.8883 57.3311C54.4857 56.9291 52.0645 56.6954 49.6152 56.6767V50.4133H57.5239ZM49.6151 43.2804C52.0457 43.2526 54.4855 43.028 56.8788 42.6167C57.2715 44.8884 57.4955 47.2161 57.524 49.5532H49.6152L49.6151 43.2804ZM40.8649 50.4133H48.755V56.6767C46.3151 56.7046 43.8938 56.9385 41.51 57.3405C41.0989 55.0781 40.8839 52.7597 40.8649 50.4133V50.4133ZM74.3135 49.5532H66.6852C66.6377 46.4028 66.0591 43.3459 65.0212 40.4572C67.1153 39.6906 69.1438 38.7745 71.107 37.7088C73.0889 41.2238 74.2481 45.2716 74.3135 49.5532V49.5532ZM52.2419 23.415L51.6436 24.1722L51.1667 24.7892L51.0452 24.9388L50.6341 25.4623C53.5602 26.93 56.1497 28.8651 58.3373 31.1929C57.2715 31.9875 56.1216 32.6512 54.9063 33.1467C53.7471 30.4824 52.3075 27.921 50.5874 25.5091L50.0359 26.2289C51.6438 28.5099 52.9993 30.9312 54.0931 33.4365C52.6721 33.9227 51.1577 34.1938 49.6152 34.2312V26.7714L48.7551 27.8651V34.2221C47.2687 34.1753 45.7917 33.9135 44.3987 33.4368C44.3648 33.4368 42.3608 36.045 42.3608 36.045C41.7251 37.8773 41.2016 39.7376 40.8276 41.6353C40.0143 41.4951 39.2103 41.2988 38.397 41.1025L37.8177 41.8503C38.7618 42.0934 39.7154 42.2991 40.6691 42.4861C40.2579 44.8045 40.0334 47.1603 40.0144 49.5535H32.5544L32.5951 48.5251L31.1181 50.4135H31.7068C31.7611 53.592 32.333 56.6489 33.3522 59.5095C31.2675 60.2855 29.2389 61.1923 27.2851 62.258C26.4998 60.8651 25.8454 59.3787 25.3312 57.8175L24.7425 58.5653L24.144 59.3226C28.033 69.7741 37.9237 76.7293 49.1979 76.7293C63.9497 76.7293 75.9531 64.726 75.9531 49.9835C75.9531 36.3348 65.651 24.9391 52.2454 23.4153" fill="#F0451C"/>
<path d="M49.2126 33.0156L51.3253 44.8601L56.9998 42.1771L54.3169 47.8516L62.8239 49.9736L54.3169 52.0958L56.9062 57.6581L51.3253 55.1059L49.1751 66.8476L47.0811 55.1059L41.5001 57.6674L44.071 52.0958L35.5732 49.9736L44.071 47.8516L41.4161 42.1771L47.0811 44.832L49.2126 33.0156Z" fill="#00A64F"/>
</svg>
