<svg width="100" height="100" viewBox="0 0 100 100" fill="none" xmlns="http://www.w3.org/2000/svg">
<path d="M11.5127 40.7038C45.7517 28.0205 99.98 32.9375 100 32.9394C55.538 63.0756 0 68 0 68C0 68 9.9858 64.9627 26.4916 56.8954C26.4916 56.8954 51.0755 45.1548 52.1892 41.1377C52.8755 34.5503 11.5127 40.7038 11.5127 40.7038Z" fill="#194497"/>
<path d="M47.5737 41.8242C47.7765 38.1306 11.1602 41.8242 11.1602 41.8242C11.1602 41.8242 29.4363 42.0277 28.7766 47.6147C28.7766 47.6147 30.3611 52.1953 0.928533 67.2512L0.227539 67.6088C0.25795 67.5969 42.9988 50.8447 47.3226 42.4395C47.4063 42.2943 47.5737 41.968 47.5737 41.8242Z" fill="#109A40"/>
<path d="M9.853 50.7623C10.2929 52.8908 14.0895 53.8913 18.3352 52.9965C22.5795 52.1005 25.6647 49.6484 25.2264 47.5183C24.7865 45.3899 20.99 44.3895 16.7443 45.2841C12.5 46.1803 9.4147 48.6323 9.853 50.7623Z" fill="#E41C25"/>
<path d="M43.5352 51.2559L44.498 51.4609L43.6895 52.0293L43.7939 53.0186L43.0117 52.416L42.1143 52.8232L42.4375 51.8828L41.7773 51.1445L42.7617 51.166L43.252 50.3037L43.5352 51.2559ZM57.2617 46.4609L58.2236 46.666L57.416 47.2344L57.5205 48.2236L56.7373 47.6211L55.8389 48.0283L56.1621 47.0879L55.5039 46.3496L56.4863 46.3711L56.9775 45.5088L57.2617 46.4609ZM68.0791 42.7803L68.9756 43.082L68.1426 43.5361L68.1348 44.4922L67.4521 43.8311L66.5498 44.1201L66.96 43.2568L66.4102 42.4785L67.3477 42.6084L67.9102 41.8379L68.0791 42.7803ZM76.6719 39.6006L77.5996 39.7891L76.8281 40.3428L76.9385 41.2939L76.1787 40.7227L75.3193 41.123L75.6201 40.2158L74.9795 39.5127L75.9258 39.5234L76.3896 38.6895L76.6719 39.6006ZM59.4609 39.2744L60.3613 39.5713L59.5293 40.0283L59.5283 40.9863L58.8418 40.3281L57.9414 40.623L58.3477 39.7588L57.792 38.9844L58.7295 39.1074L59.2881 38.332L59.4609 39.2744ZM48.9775 35.2461L49.9385 35.4492L49.1309 36.0176L49.2354 37.0068L48.4521 36.4062L47.5547 36.8125L47.8779 35.873L47.2178 35.1338L48.2021 35.1562L48.6924 34.293L48.9775 35.2461ZM87.2256 34.5664L88.1221 34.8672L87.2891 35.3223L87.2812 36.2783L86.5986 35.6172L85.6963 35.9053L86.1074 35.043L85.5576 34.2646L86.4951 34.3945L87.0566 33.624L87.2256 34.5664ZM74.7969 34.2676L75.6934 34.5713L74.8613 35.0234L74.8535 35.9814L74.1699 35.3184L73.2686 35.6094L73.6787 34.7461L73.1299 33.9678L74.0674 34.0977L74.6289 33.3271L74.7969 34.2676ZM63.2354 34.2646L64.1621 34.4521L63.3916 35.0068L63.502 35.9561L62.7432 35.3867L61.8838 35.7861L62.1846 34.8789L61.543 34.1768L62.4883 34.1855L62.9521 33.3516L63.2354 34.2646Z" fill="white"/>
</svg>
