<svg width="100" height="100" viewBox="0 0 100 100" fill="none" xmlns="http://www.w3.org/2000/svg">
<path d="M0 25C0 11.1929 11.1929 0 25 0H75C88.8072 0 100 11.1929 100 25V75C100 88.8072 88.8072 100 75 100H25C11.1929 100 0 88.8072 0 75V25Z" fill="#BFD730"/>
<path d="M15.8223 61.3179H19.816V44.5599H15.8223V61.3179ZM15.8223 42.9937H19.816V39H15.8223V42.9937Z" fill="#11175E"/>
<path d="M25.6109 61.3174H21.6172V44.5593H25.5326V47.6917C26.7856 45.8906 28.5866 44.2461 31.0142 44.2461C31.4841 44.2461 31.719 44.2461 31.9539 44.3244V48.0832C31.6407 48.0049 31.0142 48.0049 30.7793 48.0049C28.9782 48.0049 25.6892 49.7277 25.6892 53.095V61.3174H25.6109Z" fill="#11175E"/>
<path d="M32.9717 61.3179V39H40.1761C42.0555 39 48.4768 39 48.4768 44.4816C48.4768 48.2404 45.5794 49.2584 44.0132 49.7283C45.736 50.1981 48.9466 51.0595 48.9466 55.2099C48.9466 58.5771 46.3624 61.3179 40.6459 61.3179H32.9717ZM37.2003 48.0838H40.1761C44.0132 48.0838 44.3264 45.8128 44.3264 45.0298C44.3264 42.2106 41.429 42.2106 40.5676 42.2106H37.2786V48.0838H37.2003ZM37.2003 58.029H39.8628C42.6819 58.029 44.718 57.0893 44.718 54.74C44.718 53.1738 43.8566 51.3727 40.1761 51.3727H37.2786V58.029H37.2003Z" fill="#11175E"/>
<path d="M60.3015 61.3174L59.8317 59.5163C58.8137 60.3777 57.2475 61.6306 54.7416 61.6306C51.7659 61.6306 49.5732 59.6729 49.5732 57.0104C49.5732 55.2876 50.1997 53.2516 53.8802 51.9986L58.7353 50.3542C59.4401 50.1192 59.4401 50.1192 59.4401 49.6494V48.9446C59.4401 47.5351 58.1872 47.1435 56.621 47.1435C53.9585 47.1435 51.531 48.788 50.5913 49.4145V45.9689C51.6876 45.3424 53.7236 44.2461 57.2475 44.2461C62.4942 44.2461 63.5122 46.8303 63.5122 50.0409V61.3957H60.3015V61.3174ZM55.9162 54.1913C54.1935 54.8177 53.6453 55.6008 53.6453 56.7755C53.6453 58.4199 55.1331 58.8115 55.8379 58.8115C56.4644 58.8115 57.874 58.5766 59.5184 56.9321V52.7817C59.2835 52.9383 59.2052 53.0166 58.5004 53.2516L55.9162 54.1913Z" fill="#11175E"/>
<path d="M10.7322 61.3181L10.2623 59.5954C9.24431 60.4568 7.67814 61.7097 5.17227 61.7097C2.19655 61.7097 0.00390625 59.752 0.00390625 57.0895C0.00390625 55.3667 0.630375 53.3307 4.31088 52.0777L9.166 50.4333C9.87078 50.1983 9.94909 50.1983 9.94909 49.7285V49.0237C9.94909 47.6142 8.69616 47.2226 7.05168 47.2226C4.38919 47.2226 1.96162 48.8671 1.02192 49.4936V46.048C2.11824 45.4215 4.15426 44.3252 7.67814 44.3252C12.9248 44.3252 13.9428 46.9094 13.9428 50.12V61.4748H10.7322V61.3181ZM6.3469 54.1921C4.62411 54.8185 4.07595 55.6016 4.07595 56.7763C4.07595 58.4207 5.56381 58.8123 6.26859 58.8123C6.89506 58.8123 8.30461 58.5773 9.94909 56.9329V52.7825C9.71416 52.9391 9.63586 53.0174 8.93108 53.2524L6.3469 54.1921Z" fill="#11175E"/>
<path d="M65.0781 39H69.0719V61.3179H65.0781V39Z" fill="#11175E"/>
<path d="M72.5957 47.6139H70.0898V44.5599H72.5957V39H76.5894V44.5599H79.6435V47.6139H76.5894V56.3062C76.5894 57.5591 76.7461 58.6554 78.6255 58.6554C79.0953 58.6554 79.4869 58.5771 79.8001 58.4988V61.5529C79.2519 61.6312 78.7038 61.7095 77.9207 61.7095C73.4571 61.7095 72.5957 59.4385 72.5957 56.5411V47.6139Z" fill="#11175E"/>
<path d="M81.21 39H85.2037V42.9937H81.21V39ZM81.21 44.5599H85.2037V61.3962H81.21V44.5599Z" fill="#11175E"/>
<path d="M99.6904 49.1014C98.9073 48.3966 97.5761 47.3786 95.3051 47.3786C91.8595 47.3786 90.45 50.276 90.45 53.0168C90.45 54.1915 90.7632 58.655 95.1485 58.655C97.4194 58.655 98.9073 57.637 100.004 56.854V60.3778C99.2205 60.7694 97.4194 61.7091 94.522 61.7091C88.8055 61.7091 86.3779 57.4021 86.3779 52.9385C86.3779 48.24 88.9621 44.168 94.6786 44.168C97.4194 44.168 98.9073 45.0294 99.6121 45.4209V49.1014H99.6904Z" fill="#11175E"/>
</svg>
