<svg width="100" height="100" viewBox="0 0 100 100" fill="none" xmlns="http://www.w3.org/2000/svg">
<path d="M0 25C0 11.1929 11.1929 0 25 0H75C88.8072 0 100 11.1929 100 25V75C100 88.8072 88.8072 100 75 100H25C11.1929 100 0 88.8072 0 75V25Z" fill="#120B7C"/>
<path d="M94.208 9C95.3925 10.4204 96.423 11.9734 97.2725 13.6348C93.1636 14.6826 89.0899 15.8274 85.1553 17.3486C69.5159 23.4473 60.4505 34.9703 57.7412 51.4561C57.6558 52.041 57.6632 52.5867 57.3496 53.083C56.8312 45.9906 58.2326 39.4401 61.1328 32.96C60.4662 33.1694 59.9755 33.3406 59.4541 33.4609C52.4512 35.521 44.9894 33.6703 37.832 34.2363C33.8144 34.5875 30.2897 36.2874 27.502 39.3906C27.0555 39.8728 26.7238 40.468 26.4854 41.0762C26.6378 41.1127 26.7495 41.1788 26.873 41.168C31.8498 40.7582 36.1489 42.4857 40.0479 45.3799C43.6437 48.0001 46.4425 51.3759 48.9961 55.1016C48.7929 55.0962 48.6671 55.1032 48.5908 55.085C42.8776 52.2441 37.0184 52.4003 31.1699 54.4062C24.1169 56.8218 18.3694 61.1439 13.3496 66.5439C9.05797 71.0703 5.45571 76.1414 0.499023 79.9922C0.214743 78.5895 0.0465091 77.1442 0.0078125 75.667C5.29689 70.3526 9.37084 63.7994 15.2549 59.0879C21.2564 54.2106 28.0864 51.5363 35.8262 51.2158C37.8468 51.1656 39.9095 51.2898 41.9375 51.3652L41.9561 51.2891C38.4582 48.6088 34.804 46.2199 30.4512 45.0557C26.2217 43.8806 22.0873 44.3676 18.123 46.207C16.6422 46.9166 15.1996 47.8034 13.6992 48.5947C13.4596 48.7418 13.2089 48.7655 12.9854 48.833C12.9326 48.5352 12.7567 48.2481 12.8125 48.0137C13.2548 45.8253 14.3765 44.2051 16.5059 43.3623C17.634 42.9345 18.6991 42.4112 19.8271 41.9834C21.0498 41.4975 21.9887 40.6548 22.8857 39.6387C24.4529 37.8806 26.0227 36.126 27.8135 34.626C30.9014 32.0037 34.6518 30.8907 38.6426 30.8213C45.8129 30.6994 53.2611 32.1587 60.0654 29.1777C62.4981 28.0789 64.6999 26.5964 66.4961 24.5674C73.8941 16.1387 83.2144 11.0503 94.208 9Z" fill="white"/>
</svg>
