<svg width="100" height="100" viewBox="0 0 100 100" fill="none" xmlns="http://www.w3.org/2000/svg">
<path fill-rule="evenodd" clip-rule="evenodd" d="M8.09674 36.2047C10.5085 36.054 12.4814 37.7638 12.9176 39.9998V69.6525C12.8649 78.0553 19.6301 84.8285 28.0605 84.8223C36.309 84.8285 43.0679 78.0553 43.2017 69.6525V48.2724C43.0447 31.9806 56.2255 18.7767 72.4593 18.6232C83.9258 18.5412 93.3096 10.7128 95.8632 0C89.973 4.48724 82.4773 7.32265 74.5232 7.24416C72.9454 7.32265 73.1122 7.41452 71.768 7.24416H72.1114C49.3185 7.24416 31.267 25.4642 31.1564 48.2733V68.2736V67.932C31.1448 68.089 31.1448 68.0961 31.1564 68.2736C31.1448 70.3063 29.3663 72.0901 27.0286 72.0669C24.9798 72.0892 23.196 70.3045 23.2415 68.2736C23.1978 68.0988 23.1978 68.089 23.2415 67.932V40.3441C23.1978 37.5604 21.0724 35.4234 18.4251 35.5162C18.6499 33.9384 19.9842 32.7512 21.5254 32.7566C22.1016 32.7521 22.5833 32.8707 22.9026 33.1035C23.5706 33.2578 24.3189 33.3729 24.9674 33.4469C29.2816 33.3729 32.6717 29.9756 32.5388 25.8594C32.6717 25.697 32.6691 25.6087 32.5388 25.5178C30.9316 27.7128 28.1845 29.1702 24.9674 29.3102C24.566 29.0248 23.7874 29.031 23.2433 28.965C19.6908 29.031 16.8295 31.8914 16.7055 35.517H5V36.2056H8.44548H8.09585L8.09674 36.2047ZM72.4593 32.4132C63.6935 32.3329 56.5734 39.4691 56.626 48.2733V47.9316V72.7582C56.5635 84.9935 46.8202 94.8331 34.5992 94.8269C26.1242 94.8331 18.6954 89.9017 14.9823 82.7575C18.3181 85.9461 22.9017 88.0117 28.0605 87.9288C38.0643 88.0135 46.2521 79.8097 46.3029 69.6543V48.2741C46.2646 33.7653 58.0049 22.009 72.4593 22.0687H71.7689C79.5375 22.0081 86.5596 18.8302 91.7309 13.7908C90.9166 24.1237 82.2731 32.3338 71.7689 32.4141H72.4593V32.4132ZM68.6722 55.5156C68.5563 53.1922 70.3098 51.4333 72.4566 51.3798C74.6498 51.4324 76.4025 53.1922 76.241 55.5156C76.4033 55.8385 76.3195 56.2925 76.241 56.5511C76.0278 57.3539 75.2474 58.0344 74.1816 57.9336C73.2683 58.0344 72.4218 57.1835 72.4575 56.2095C72.4218 55.8769 72.47 55.6298 72.4575 55.5156V55.174C72.2203 56.0829 72.0597 56.9017 72.1123 57.5858C72.0597 61.553 75.1386 64.6355 78.9979 64.4812C81.6871 64.6355 84.0613 63.0104 85.195 60.6941C86.1359 58.9317 86.7086 56.8187 86.5676 54.4855C86.7077 47.1468 80.6881 41.112 73.1505 41.0362C65.8154 41.112 59.7932 47.1468 59.7245 54.4855V72.76C59.7245 86.7015 48.522 97.9236 34.5992 97.9334C32.7529 97.9236 30.8487 97.7006 29.0943 97.2431H28.7509C32.2543 98.9047 36.3429 99.8885 40.7998 100C56.0275 99.8912 68.484 87.4097 68.3297 72.0714V55.174L68.6731 55.5156" fill="#ED1C24"/>
</svg>
