<svg width="100" height="100" viewBox="0 0 100 100" fill="none" xmlns="http://www.w3.org/2000/svg">
<path d="M0 25C0 11.1929 11.1929 0 25 0H75C88.8072 0 100 11.1929 100 25V75C100 88.8072 88.8072 100 75 100H25C11.1929 100 0 88.8072 0 75V25Z" fill="#D9252A"/>
<path d="M48.5134 13.7187C51.0502 13.4372 52.0574 16.1958 52.8825 20.1796C53.8214 24.7669 53.6912 31.2186 55.9245 35.1718C57.1266 36.7782 59.3962 37.3553 62.1394 37.3505C65.3851 37.3339 69.214 36.5037 72.6589 35.4911C76.9621 34.2184 80.7178 33.0639 83.0935 33.2792C84.4815 33.404 85.8124 34.2761 85.7897 35.7802C85.2794 38.2665 80.9619 41.1647 75.4167 44.5097C68.4343 48.6995 59.5975 52.4635 56.0056 56.748C55.3845 57.5735 55.0217 58.4771 54.8747 59.4374C53.8718 63.6438 57.3099 69.1497 61.2409 73.621C65.0199 77.8886 68.5238 81.5389 68.3747 83.9306C67.9679 85.2245 66.4687 85.7364 65.238 85.6962C62.0989 85.5898 57.4442 82.618 52.3063 78.8564C45.8622 74.1343 39.7903 67.7066 34.9323 65.7265C34.482 65.5799 34.0413 65.4919 33.6052 65.4824C30.0203 65.3712 26.8761 69.6608 24.8845 73.8554C23.0637 77.7209 21.7313 81.0631 20.1784 80.7675C18.0949 80.3231 18.106 76.8014 18.1628 75.2675C18.2719 73.1312 18.7323 70.5664 19.3464 67.7558C20.5129 62.4802 22.6939 56.7338 23.7419 52.0615C23.9956 51.0063 24.1969 50.0052 24.3083 49.0683C24.8108 44.6396 21.5601 42.5961 18.5349 41.832C15.8963 41.1885 13.7033 40.8804 14.3288 38.832C15.4434 36.2653 18.4733 35.3301 20.9558 34.6679C24.6776 33.7095 28.5131 33.439 32.2888 32.7685C33.8062 32.4988 35.286 32.1649 36.654 31.6894C41.0251 29.7762 43.313 24.8183 44.4138 20.416C45.0183 18.0029 45.441 14.1439 48.5134 13.7187ZM76.321 13.0712C80.508 12.5153 84.427 15.264 85.072 19.5673C85.7785 24.3155 81.3307 28.3022 76.8591 28.7919C76.8403 28.7942 76.8261 28.7871 76.8073 28.787C76.7979 28.787 76.7859 28.7938 76.7741 28.7939C73.2604 28.8909 69.7793 27.2066 69.0183 23.5585C68.5631 21.3632 68.7574 19.0068 69.8669 17.0243C71.0808 14.8549 73.9216 13.3906 76.321 13.0712Z" fill="white"/>
</svg>
