<svg width="100" height="100" viewBox="0 0 100 100" fill="none" xmlns="http://www.w3.org/2000/svg">
<path fill-rule="evenodd" clip-rule="evenodd" d="M54.5729 8.45796C57.0829 8.67796 57.9029 10.548 60.5229 10.508C65.2429 10.098 67.3729 16.488 68.0729 20.008C68.5729 22.018 66.9229 26.508 69.2729 26.928C75.7729 25.768 81.6329 27.028 88.1929 28.898C92.4629 32.178 99.0129 34.878 96.5929 41.188C95.6629 44.178 95.1329 48.378 92.4129 50.118C89.1929 52.498 88.4329 56.848 84.9029 58.968C83.5229 59.828 81.9229 60.038 80.3229 60.038C79.6429 60.368 80.3629 61.878 80.8829 62.778C82.9229 66.368 85.0829 71.488 83.4529 75.638C83.1629 76.428 82.3429 76.928 81.9229 77.648C81.5329 78.528 81.6429 79.668 81.0029 80.558C78.4529 83.788 73.2129 85.378 69.2329 86.378C64.6429 84.358 58.5929 84.798 54.3729 81.868C47.8429 89.228 32.2729 93.088 24.9229 84.858C16.8929 79.678 21.4329 76.988 23.1529 70.398C20.2229 69.598 19.1629 64.278 16.4829 62.448C10.0629 58.888 4.27288 54.188 2.90288 46.558C2.55288 39.208 7.59288 30.948 15.3229 30.908C15.9329 31.098 16.5329 31.088 17.0929 30.748C19.1829 29.638 23.5029 32.858 25.6129 32.958C28.2629 32.498 28.4029 28.388 28.9029 26.198C29.0429 23.748 30.3429 21.878 30.8329 19.398C31.6929 14.088 34.3829 12.628 39.2329 12.028C42.1329 9.24796 45.6229 8.51796 49.5629 9.11796C51.0929 9.17796 53.1429 8.29796 54.5829 8.45796H54.5729Z" fill="#DE5365"/>
<path d="M57.9427 10.258C54.2227 7.59798 50.8327 10.268 46.7727 9.47798C43.8727 9.07798 41.6927 10.938 39.5027 12.548C37.8927 13.408 36.0927 12.798 34.5227 13.778C31.4227 16.188 27.6027 29.958 28.6127 33.848C29.4327 35.448 31.6227 35.208 31.3427 38.358C36.4827 48.608 51.1027 41.628 56.7727 36.508C69.4327 30.198 69.0827 15.348 57.8927 10.328L57.9327 10.248L57.9427 10.258Z" fill="url(#paint0_radial_2099_2546)"/>
<path d="M59.7127 11.3679C55.9027 8.92794 53.4127 10.7179 49.6627 10.5479C46.0927 9.83794 42.9327 11.2179 40.3027 13.5779C34.4427 14.2779 32.1927 16.0979 31.0227 23.8579C30.8227 25.3379 31.8227 26.7679 31.6227 28.4879C30.7827 35.7779 32.7927 34.1379 34.3127 37.0879C37.1627 42.6179 36.8827 44.2979 35.4827 44.0079C37.0527 45.9279 38.5327 48.4279 37.3327 49.9879C49.8627 52.2979 57.5127 44.1179 61.6427 34.1779C68.4027 27.1279 69.5027 14.5679 59.7127 11.3579V11.3679Z" fill="url(#paint1_radial_2099_2546)"/>
<path d="M31.5427 64.0076C26.5927 69.3876 20.0927 74.2676 23.0627 81.4576C26.3627 88.1776 34.6727 90.3076 40.9827 88.2576C47.1327 86.8676 54.6427 85.0576 55.4827 76.7476C56.7427 71.5476 57.0027 53.6876 48.0527 55.7776C40.7227 56.1276 33.3627 57.2076 30.9727 65.3176" fill="url(#paint2_radial_2099_2546)"/>
<path fill-rule="evenodd" clip-rule="evenodd" d="M77.5827 55.448C76.6627 54.588 75.5427 52.788 74.7727 51.798C73.6427 50.318 74.3727 48.278 72.7227 47.418C71.4727 46.768 70.7927 48.318 68.0227 46.558C59.3027 52.868 66.7027 43.358 66.1327 41.028C65.0927 37.958 62.7227 37.058 65.1727 30.458C63.6127 31.478 63.4827 33.518 61.5527 34.428C60.6727 34.918 59.9827 35.168 59.3827 35.908C57.7827 38.928 55.1427 40.508 51.6327 40.048C44.6127 44.338 44.7127 41.648 39.4227 39.228C38.0127 39.428 40.2227 40.168 39.1027 41.398C37.0127 43.688 34.2027 38.978 34.0427 39.018C33.7627 39.098 34.0827 39.918 34.0427 40.288C34.0027 41.068 33.2827 41.558 33.2027 42.378C33.0127 44.018 33.6827 44.308 33.6427 45.948C33.9027 49.448 32.6827 51.698 31.6327 54.998C30.9127 57.988 33.9627 59.588 30.3127 65.158C29.1027 67.038 23.6027 69.628 23.9627 71.838C25.5327 71.548 26.3727 69.788 27.4927 68.678C30.1027 65.968 37.2927 63.148 41.5127 62.938C45.9327 62.738 41.7127 67.688 42.9227 68.678C44.0927 69.618 41.7127 72.238 43.0827 71.588C44.4927 70.888 46.4127 64.378 47.1827 62.778C47.7027 61.708 54.6527 45.288 54.8227 70.108C54.8227 72.488 56.2227 73.628 55.5827 75.878C55.2627 76.948 51.2027 82.928 57.9127 82.268C58.8027 77.098 54.9827 73.418 56.9527 70.878C57.9927 69.528 61.7327 69.278 61.6527 67.518C61.4127 61.288 66.1127 65.348 67.1927 63.088C69.0027 59.358 68.2327 62.148 68.0727 60.508C67.9127 58.788 69.3927 58.788 68.7127 57.148C70.3227 57.518 70.7627 55.918 72.0927 55.548C76.7127 54.428 77.9027 57.268 79.4827 59.358C80.0027 58.578 78.7627 56.618 77.5927 55.548V55.428L77.5827 55.448Z" fill="url(#paint3_radial_2099_2546)"/>
<path fill-rule="evenodd" clip-rule="evenodd" d="M37.4931 62.1683C35.4131 60.4683 41.1831 55.6983 40.9131 54.6283C40.4731 54.4183 38.5831 54.8283 38.0231 54.6283C37.4631 54.4183 41.2731 52.8683 41.7231 52.6183C42.1631 52.4183 38.9931 51.5183 37.8231 51.3483C36.6531 51.1883 34.2831 51.5583 34.4831 51.0683C37.0431 48.7083 36.8331 50.1983 34.4031 47.6683C33.6931 46.0483 43.6131 47.9383 43.7631 48.3183C44.1231 48.5683 44.4031 47.7483 44.6831 47.8683C46.2631 48.8783 45.8131 46.9983 44.8431 46.1483C43.4331 44.8983 41.4331 42.1783 44.4431 42.3783C44.7231 42.2583 45.2831 41.4383 46.0431 41.7683C49.2231 43.8783 47.7831 42.0283 50.1031 42.3383C54.0531 45.5683 55.2131 41.7083 56.8131 38.8983C57.2131 38.4883 58.1731 37.7083 58.0131 38.0383C57.6431 38.6083 55.4431 44.6083 58.2931 43.3583C62.1031 41.5583 54.1731 46.3483 55.4731 48.1083C56.1031 48.9383 59.2931 47.9083 59.6531 48.8083C59.4931 49.1383 57.1131 50.7383 57.1131 51.0183C58.4231 52.3883 62.9331 51.6383 64.3431 52.9483C66.0831 55.4083 56.6731 50.9083 55.3031 53.1483C54.9831 53.7983 56.3431 54.2083 56.6231 54.4983C58.3431 56.0983 57.2331 56.5583 55.8231 55.5983C54.6031 55.1683 53.5231 53.4883 52.2131 53.0983C50.7231 53.0583 48.8831 54.3183 48.0731 55.5183C45.4031 57.0083 40.7031 63.0783 37.5031 62.1583H37.4631L37.4931 62.1683Z" fill="white"/>
<path fill-rule="evenodd" clip-rule="evenodd" d="M47.9431 40.3677C47.3031 38.8377 48.9631 35.4177 51.3231 35.5777C55.1931 37.5577 51.0631 43.9677 47.9131 40.3677H47.9531H47.9431ZM40.4231 43.8977C40.8631 43.8177 41.4631 43.2477 41.5931 42.7977C41.7131 42.1777 42.9131 42.1377 42.9531 41.8977C42.9931 41.6477 41.7531 38.4577 41.0731 38.1677C40.2331 37.7977 39.9831 38.3677 39.2631 38.3377C38.7031 38.2977 38.1731 38.0477 37.8131 38.7077C35.7031 40.8777 37.6131 44.1977 40.4631 43.9077M58.3431 46.4377C58.1431 46.6877 57.6631 46.8477 57.3831 46.5577C58.3431 45.4077 59.1131 44.9577 60.2731 44.0577C60.6731 43.6077 60.3531 41.6777 60.5531 41.0277C60.7531 40.3777 62.7231 39.0177 63.5731 39.4677C65.8431 40.3577 65.2231 43.1877 64.5331 44.8777C63.6531 46.3377 61.4331 44.9177 60.1931 45.4477C59.7931 45.6977 58.6631 46.0277 58.3431 46.3977V46.4377ZM49.6731 49.1377C49.7231 48.3177 50.1031 46.7777 49.5131 46.1877C49.3931 46.9877 48.9731 48.7977 49.6731 49.1777V49.1377ZM31.9931 51.7577C33.0031 50.2477 34.1231 49.7477 35.4431 49.4977C35.4431 49.3377 35.0831 49.1677 34.9231 49.1677C32.3631 48.7877 31.9831 44.7677 29.1031 45.8077C25.2131 47.3777 28.1231 56.1077 31.9531 51.7477H31.9931V51.7577ZM73.4931 51.2277C72.1731 57.3777 69.3531 54.4977 65.9831 52.0077C64.3331 51.5577 62.5331 52.0077 60.9231 51.3577C62.7731 50.4177 64.8631 51.4377 66.7931 51.3177C67.6331 51.2377 68.2031 49.7577 70.8531 49.2677C72.8631 48.4877 74.5131 49.5177 73.5031 51.2377L73.4931 51.2277ZM60.8731 51.3077C60.3531 51.0177 59.7931 51.0177 59.4231 51.2677C59.7831 51.3477 60.5431 51.4777 60.8731 51.3077ZM36.0431 57.2877C33.3931 55.0277 29.8931 59.8377 28.9331 60.7277C28.6931 61.6277 30.7031 62.8177 31.3431 63.1877C32.1531 63.6777 32.8731 64.9077 33.9931 64.0477C35.1231 63.1877 35.2031 62.3677 35.5231 61.0577C35.8331 58.3777 38.2331 57.1977 39.8231 55.3977C38.0531 55.2377 37.3331 56.7477 36.0431 57.3277M63.5331 47.6177C63.1731 46.1877 60.6831 47.6977 60.0831 47.5777C60.8631 47.5377 62.8931 48.2377 63.5831 47.6577L63.5431 47.6177H63.5331ZM52.8031 55.8577C53.5231 56.2677 53.7631 57.2477 54.4531 57.6977C55.4431 58.2877 57.8431 59.2877 56.7431 60.7277C55.9331 61.1377 55.6531 59.5377 55.2531 60.8477C54.8531 62.1577 53.2831 62.7777 52.9631 64.2077C52.6831 65.3677 51.7131 67.6077 53.4831 67.9777C54.2031 68.0577 54.3231 68.0177 54.9631 68.4277C56.4531 69.6177 58.6031 68.5377 58.9431 66.7877C57.7931 60.3877 60.2431 62.9977 55.7631 57.2877C53.9931 55.0077 51.9031 52.3977 49.6131 55.4077C48.9731 56.2277 48.0431 56.6777 47.3631 57.3277C46.4831 58.8977 46.1031 60.9677 45.3931 62.6477C46.5331 61.7277 46.8031 59.9277 48.2831 59.3677C49.5631 57.7377 49.9431 54.6377 52.7431 55.8077M69.6331 64.7477C69.6031 62.7777 69.2331 58.9077 66.5031 59.0977C66.1431 59.2577 65.7831 59.7077 65.3331 59.4677C64.2231 58.2377 62.4331 58.0077 60.8331 57.7477C61.2331 58.6077 62.6431 59.1377 63.3231 59.7177C65.3531 61.4077 63.3131 63.6777 64.1631 65.6977C65.8631 66.7977 69.2331 67.8377 69.5431 64.7977M53.0431 79.4977C55.7131 80.8577 61.9931 80.6277 60.1931 85.3177C59.7531 86.1777 58.9431 87.2877 59.3531 89.1277C59.7531 90.9677 60.5231 91.6677 59.1931 91.5477C56.6631 90.9077 55.4431 91.0177 53.4531 89.3377C52.2231 88.1677 47.7631 86.4677 49.1931 84.2177C50.7331 82.7477 52.5031 81.0077 53.0531 79.4677V79.5077L53.0431 79.4977ZM80.0031 68.5977C80.0031 68.1877 80.9631 67.4977 81.0431 67.2477C81.4731 66.4377 80.3331 63.5877 81.1631 62.8277C83.4231 61.1777 91.2231 64.7577 89.6431 67.9477C88.9131 69.9177 88.0531 69.9777 86.6731 71.5477C85.9431 74.1677 81.9531 76.5877 82.0131 72.4877C84.4331 69.2777 80.9531 70.2977 79.9231 68.6377L80.0031 68.5977ZM16.5231 74.8177C15.2431 73.7977 16.5831 73.0377 16.6831 71.7077C16.7531 69.0977 16.2531 64.5877 20.1431 65.8077C22.2231 65.7977 22.8731 67.8177 23.7231 69.0477C25.1231 70.0677 26.3231 69.6677 24.8431 71.5477C23.5731 76.6077 25.6131 79.8577 19.1831 75.8477C18.3831 74.0877 17.8631 75.3677 16.5331 74.8677V74.8277L16.5231 74.8177ZM46.0931 66.7077C48.1031 69.9877 43.3431 73.8877 41.1531 70.1877C39.7931 66.8477 42.8131 66.0877 44.9731 64.2077C44.5631 65.4477 44.9631 66.1877 46.0931 66.7477V66.7077ZM58.5031 54.0977C57.8231 54.0177 57.4931 53.7677 56.7731 53.7677C57.4231 54.5877 59.0731 54.2377 59.7931 55.0777C61.8531 55.7977 62.3031 57.0777 64.4131 56.7977C66.8431 55.7077 62.6131 55.0977 61.9631 54.7477C61.0631 53.8977 59.7531 54.1377 58.5431 54.0477L58.5031 54.0877V54.0977ZM50.3531 43.0777C50.2931 43.8477 49.7831 45.1977 50.3531 46.3977C50.6731 45.9377 50.6631 43.5277 50.3531 43.0777Z" fill="#B6002A"/>
<path fill-rule="evenodd" clip-rule="evenodd" d="M47.2928 52.7077C47.5628 54.1677 46.4828 54.1277 45.3228 55.5777C43.7728 57.0077 43.3529 58.4077 42.1929 59.0177C41.6229 56.4477 50.3328 51.8077 43.4328 54.2277C42.1228 54.3877 43.8028 52.9577 44.0728 53.0777C44.3528 53.0377 45.1129 52.9977 45.2829 52.8277C45.6429 52.2877 45.3028 51.7677 44.6428 52.0077C42.9528 51.8377 39.8328 51.1077 38.0928 50.6577C36.9428 49.9177 40.5328 50.5677 40.7428 50.5377C42.0328 50.2177 46.3029 51.5977 45.4429 49.1077C44.6029 48.7377 43.4928 46.8677 42.9528 46.2377C42.6728 46.0777 42.1428 45.9877 41.9128 45.6677C41.7128 45.3777 41.5928 44.5177 41.9528 44.6877C43.1128 45.1677 43.6429 45.7077 44.2829 46.7777C45.0329 47.7677 46.1728 48.1177 46.8128 49.1077C48.2528 49.1577 49.6729 48.9977 50.7129 49.3577C50.9129 49.4777 51.6728 49.8077 51.9228 49.5577C52.5828 48.2577 53.9628 46.3377 54.8928 45.1377C55.2228 44.4977 57.8029 42.6177 56.6229 44.3977C54.9029 45.8877 53.4628 47.9777 52.6028 49.7677C53.3328 50.1577 54.7628 50.7777 54.1728 51.8977C52.6528 52.2777 52.3328 49.9377 50.4728 49.8077C48.1428 49.1077 44.8328 49.7577 47.4228 52.6377L47.3028 52.7177L47.2928 52.7077Z" fill="#B6002A"/>
<path fill-rule="evenodd" clip-rule="evenodd" d="M48.5028 48.2379C47.2128 47.6879 46.3728 45.2879 45.6528 44.0979C45.4528 43.9379 44.6128 42.8679 44.8528 42.7479C45.5728 42.6379 49.0428 47.6479 48.5528 48.1979L48.5128 48.2479L48.5028 48.2379Z" fill="#B6002A"/>
<defs>
<radialGradient id="paint0_radial_2099_2546" cx="0" cy="0" r="1" gradientUnits="userSpaceOnUse" gradientTransform="translate(1622.41 559.631) scale(3277.59 3277.61)">
<stop offset="0.21" stop-color="#DE5365"/>
<stop offset="0.3" stop-color="#DF5B6D"/>
<stop offset="0.44" stop-color="#E47382"/>
<stop offset="0.62" stop-color="#EC9AA6"/>
<stop offset="0.82" stop-color="#F7D0D7"/>
<stop offset="0.87" stop-color="#FADEE4"/>
</radialGradient>
<radialGradient id="paint1_radial_2099_2546" cx="0" cy="0" r="1" gradientUnits="userSpaceOnUse" gradientTransform="translate(1944.82 959.598) scale(3688.1 3688.33)">
<stop stop-color="#DE5365"/>
<stop offset="0.09" stop-color="#DF596A"/>
<stop offset="0.2" stop-color="#E26A7A"/>
<stop offset="0.34" stop-color="#E88795"/>
<stop offset="0.49" stop-color="#F0AFB9"/>
<stop offset="0.64" stop-color="#FADEE4"/>
<stop offset="0.77" stop-color="#FBE5EA"/>
<stop offset="0.96" stop-color="#FEF9FA"/>
<stop offset="1" stop-color="white"/>
</radialGradient>
<radialGradient id="paint2_radial_2099_2546" cx="0" cy="0" r="1" gradientUnits="userSpaceOnUse" gradientTransform="translate(1346.95 699.618) scale(2394.58 2394.47)">
<stop stop-color="white"/>
<stop offset="0.41" stop-color="#FADEE4"/>
<stop offset="1" stop-color="#DE5365"/>
</radialGradient>
<radialGradient id="paint3_radial_2099_2546" cx="0" cy="0" r="1" gradientUnits="userSpaceOnUse" gradientTransform="translate(2808.39 3158.64) rotate(0.1) scale(3319.7 3897.2)">
<stop stop-color="white"/>
<stop offset="0.37" stop-color="#FADEE4"/>
<stop offset="0.47" stop-color="#F2B7C0"/>
<stop offset="0.59" stop-color="#E98C99"/>
<stop offset="0.7" stop-color="#E36C7C"/>
<stop offset="0.79" stop-color="#DF596B"/>
<stop offset="1" stop-color="#DE5365"/>
</radialGradient>
</defs>
</svg>
