<svg width="100" height="100" viewBox="0 0 100 100" fill="none" xmlns="http://www.w3.org/2000/svg">
<path d="M39.3301 48.1C39.0801 48.13 38.2801 47.45 38.3101 46.95C38.8901 47.01 39.5401 47.91 39.3301 48.1ZM31.4601 43.72C30.8901 43.93 29.9301 41.99 29.6801 41.65C27.3401 37.36 31.6401 43.15 31.4601 43.72ZM29.2001 43.64C28.7401 43.49 28.2301 42.93 28.3901 42.37C28.8201 42.43 29.5101 43.27 29.2001 43.64ZM21.7101 45.16C20.6201 44.87 19.9701 42.68 19.3501 41.63C17.9401 37.65 21.8701 44.13 21.7101 45.16ZM19.2101 31.84C19.6101 31.93 20.6901 34.03 20.8601 35.58C20.0501 35.1 19.3401 32.89 19.2101 31.84ZM91.5701 66.52C91.1501 64.99 86.6801 65.65 83.0001 65.31C66.3101 63.38 49.9101 55.3 38.3601 43.07C33.7501 38.69 42.5601 48.61 43.6501 49.36C45.8901 51.9 43.3301 50.28 42.5301 49.25C37.3301 45.06 33.7701 39.32 30.1701 33.97C31.2901 36.97 33.4901 39.86 35.2401 42.65C39.2501 47.76 38.1001 47.36 34.5501 42.95C30.7801 38.44 28.2801 32.75 25.4901 27.78C26.2701 31.11 28.3601 34.45 29.9901 37.54C30.4601 39.3 40.7601 52.75 35.2801 46.42C28.5201 38.71 24.0701 27.54 20.6001 19.08C22.1501 26.33 26.0201 33.16 28.8901 39.79C23.2101 32.87 20.9301 23.07 17.8601 14.86C19.2801 24.3 24.2101 33.37 28.1601 41.91C21.7101 32.97 18.2201 21.66 15.4201 10.99C15.6901 19.59 21.4001 31.07 24.8801 39.77C21.5701 34.96 19.3601 28.9 17.3401 23.33C15.0001 17.09 14.1901 10.13 12.3601 3.91C13.0701 13.16 16.3201 22.49 19.0401 31.3C15.7301 25.58 14.4701 19.32 12.7301 12.68C11.5301 8.16 11.5201 4.11 10.1501 0C10.3701 6.37 12.2101 13.08 13.6701 19.42C15.2801 26.33 18.2001 33.02 20.7501 39.48C18.8701 38.24 18.6501 35.72 17.3701 33.02C13.3201 22.82 10.6601 12.42 9.02009 1.74C8.74009 8.91 12.0501 19.07 14.1901 27.05C14.6301 28.96 21.5201 45.46 17.1201 36.84C13.7101 30.38 12.0101 20.89 9.56009 15.26C14.2801 38.54 25.7201 62.11 46.4501 75.11C49.6601 77.39 51.7501 77.18 50.9401 78.06L17.5601 99.43C40.3601 92.64 87.1401 75.44 91.5701 66.52Z" fill="#005D63"/>
</svg>
