<svg width="100" height="100" viewBox="0 0 100 100" fill="none" xmlns="http://www.w3.org/2000/svg">
<path d="M0 25C0 11.1929 11.1929 0 25 0H75C88.8072 0 100 11.1929 100 25V75C100 88.8072 88.8072 100 75 100H25C11.1929 100 0 88.8072 0 75V25Z" fill="#082D24"/>
<path d="M76.8882 31.181C71.0932 32.2363 64.3292 34.717 61.0311 35.8279C59.7081 36.2722 56.3727 37.5866 56.3727 37.5866C56.3727 37.5866 58.4037 36.05 59.9503 35.0688C63.4348 32.8842 69.6398 30.6256 73.5155 27.9782C83.4472 21.2393 84.1366 16 84.1366 16C84.1366 16 78.9193 16.7405 72.6584 20.7765C70.3106 22.2946 66.0807 25.0531 62.8571 28.9224C55.2174 38.105 47.2236 42.3075 42.472 45.751C43.5598 44.1822 44.5336 42.5381 45.7329 41.0486C46.1659 40.5324 46.6244 39.9977 47 39.438C49.0311 36.9387 51.1925 34.5319 53.1491 31.9771C56.7447 27.5115 59.7017 22.1002 59.8944 16.2592C59.9503 16.2777 59.8385 16.2407 59.8944 16.2592C54.4907 18.6659 48.7888 25.9417 45.9938 32.0881C44.0559 36.3462 43.1429 42.7334 40.1988 46.5286C38.2422 49.0279 34.6646 51.0829 31.7019 53.5081C33.3043 50.8607 34.1801 47.7875 34.236 47.6209C38.3168 33.4767 32.4845 27.6264 32.4845 27.6264C32.4845 27.6264 28.646 30.6256 29.0932 39.7897C29.1491 41.0671 29.5776 42.4371 29.8571 43.6775C30.1366 44.9364 30.472 46.1954 30.7143 47.4543C31.2174 50.1202 30.8447 52.4529 29.1304 54.619C27.8261 56.2667 26.2609 57.5626 24.7329 58.9881C21.4348 62.0058 18.0621 65.2271 15.7888 69.0964C11.3354 76.6869 11 83 11 83H13.3851C13.3851 83 13.7019 77.1868 16.1988 73.5767C18.2671 70.7626 21.9379 69.9295 25.4037 70.2998C32.3354 71.0403 41 75.1503 51.118 69.6333C43.9441 65.5234 32.6335 66.449 28.9814 66.8378C27.6854 66.9809 26.3878 67.1562 25.1056 67.3932C23.1828 67.7406 21.2705 68.1431 19.4596 68.8928C18.8862 69.1518 18.3137 69.4237 17.7826 69.7629C19.9441 66.1158 22.3665 63.8201 24.1925 62.5057C28.4969 59.4324 32.9876 60.6543 41.2236 61.9873C61.6832 65.3197 67.4037 60.6543 67.4037 60.6543C67.4037 60.6543 61.9441 56.8776 49.1242 56.4888C45.9006 56.3962 41.1304 56.3777 37.1801 56.9146C33.4907 57.4145 29.913 57.9514 26.8199 59.4324C27.0621 59.2103 27.1739 59.1177 27.3789 58.9141C29.3989 57.2613 31.438 55.6403 33.5466 54.1006C37.8696 50.9163 42.3602 48.1393 45.9938 48.1393C52.8696 48.1393 57.8447 51.6383 64.3106 52.3603C72.0994 53.2305 76.795 51.3791 76.795 51.3791C76.795 51.3791 74.7267 47.769 65.2236 45.8806C55.5342 43.9552 49.1429 45.1956 44.1863 46.6767C45.9193 45.6214 52.8882 40.0674 60.2112 38.1235C65.4099 36.735 71.5217 37.8828 76.3292 37.5126C79.236 37.2534 82.8882 36.6239 85.6646 35.6797C91.4596 33.6803 92 31.8104 92 31.8104C92 31.8104 86.9689 29.4222 76.8696 31.2736" fill="white"/>
</svg>
