<svg width="100" height="100" viewBox="0 0 100 100" fill="none" xmlns="http://www.w3.org/2000/svg">
<path d="M0 85.3252H71.3808L100 14H71.3808L0 85.3252Z" fill="#0093D0"/>
<path d="M66.5368 41.4495C65.4232 40.8927 64.6993 39.7791 64.6993 38.4985C64.6993 36.7167 66.147 35.2134 67.9844 35.2134C69.7662 35.2134 71.2695 36.661 71.2695 38.4985C71.2695 39.7791 70.49 40.9483 69.3764 41.4495V42.396C70.3786 42.5074 71.6036 42.8971 72.3831 43.2869C72.7172 43.2312 73.1626 43.2312 73.608 43.2312C77.7283 43.2312 80.6236 45.9595 80.6236 49.69C80.6236 52.0285 78.5635 54.1443 76.2249 54.1443C73.8864 54.1443 71.7706 51.8615 72.216 49.523C72.216 49.523 71.9933 50.3025 71.9933 51.3047C71.9933 51.9172 71.9933 63.1087 71.9933 63.1087C71.882 64.445 70.1002 71.8503 61.7483 71.8503C53.3964 71.8503 51.6147 64.445 51.5034 63.1087C51.5034 63.1087 51.5034 51.9172 51.5034 51.3047C51.5034 50.3581 51.225 49.523 51.225 49.523C51.6704 51.7501 49.4989 54.1443 47.216 54.1443C44.8775 54.1443 42.8174 52.0285 42.8174 49.69C42.8174 45.9595 45.7127 43.2312 49.833 43.2312C50.2784 43.2312 50.7238 43.2312 51.0579 43.2869C51.7817 42.8971 53.0624 42.4517 54.0646 42.396V41.4495C52.951 40.8927 52.2272 39.7791 52.2272 38.4985C52.2272 36.7167 53.6748 35.2134 55.5123 35.2134C57.3497 35.2134 58.7973 36.661 58.7973 38.4985C58.7973 39.7791 58.0178 40.9483 56.9042 41.4495V42.6744C57.1826 42.7858 57.461 42.8414 57.7394 43.0085C58.2405 41.8949 59.2428 41.0597 60.412 40.6699V39.6677C59.2985 39.1666 58.5189 37.9973 58.5189 36.7167C58.5189 34.935 59.9666 33.4316 61.804 33.4316C63.5858 33.4316 65.0891 34.8793 65.0891 36.7167C65.0891 37.9973 64.3096 39.1666 63.2517 39.6677V40.6699C64.4209 41.0597 65.4232 41.8949 65.9243 43.0085C66.2027 42.8971 66.4811 42.7858 66.7595 42.6744L66.5368 41.4495Z" fill="white"/>
<path d="M79.2319 49.7456C79.2319 46.6833 77.1718 44.2334 72.8845 44.2334C70.0449 44.2334 66.7041 46.6276 66.7041 52.6967C66.7041 57.4294 66.7041 61.7167 66.7041 61.7167C67.929 60.8815 69.6551 60.1577 70.546 60.1577C70.546 57.4851 70.546 52.1955 70.546 51.7501C70.546 48.5207 72.8845 47.5742 73.9424 47.5742C73.3299 48.1309 72.9402 48.7991 72.9402 49.7456C72.9402 51.4717 74.3322 52.8637 76.0582 52.8637C77.84 52.8637 79.1763 51.5831 79.2319 49.7456Z" fill="#ED1B2F"/>
<path d="M43.9863 49.7456C43.9863 46.6833 46.0465 44.2334 50.3338 44.2334C53.1734 44.2334 56.5698 46.6276 56.5698 52.6967C56.5698 57.4294 56.5698 61.7167 56.5698 61.7167C55.3449 60.8815 53.6188 60.1577 52.728 60.1577C52.728 57.4851 52.728 52.1955 52.728 51.7501C52.728 48.5207 50.3894 47.5742 49.3315 47.5742C49.944 48.1309 50.3338 48.7991 50.3338 49.7456C50.3338 51.4717 48.8861 52.8637 47.2157 52.8637C45.3783 52.8637 44.042 51.5831 43.9863 49.7456Z" fill="#ED1B2F"/>
<path d="M61.6372 70.5704C68.7642 70.5704 70.3789 64.6127 70.6016 63.0537C70.6016 63.0537 70.6016 61.3833 70.6016 61.0492C68.3744 61.606 66.4256 62.7753 65.0893 64.557C64.6439 62.4969 63.3076 60.7708 61.6372 59.6016C59.9668 60.7151 58.6862 62.4969 58.1851 64.557C56.8488 62.7753 54.9 61.606 52.6729 61.0492C52.6729 61.3833 52.6729 63.0537 52.6729 63.0537C52.8399 64.6127 54.4546 70.5704 61.6372 70.5704Z" fill="#ED1B2F"/>
<path d="M62.1377 39.0003V41.5058C63.3627 41.6729 64.4206 42.5081 64.8103 43.5103C63.3627 44.4568 62.1934 45.9045 61.6366 47.6862C61.0798 45.9045 59.9106 44.4568 58.4629 43.5103C58.9083 42.5081 59.9106 41.6729 61.1355 41.5058V39.0003C60.1333 38.7775 59.3538 37.831 59.3538 36.7731C59.3538 35.4925 60.4117 34.4902 61.6366 34.4902C62.9172 34.4902 63.9195 35.4925 63.9195 36.7731C63.9195 37.831 63.1399 38.7775 62.1377 39.0003Z" fill="#ED1B2F"/>
<path d="M55.8466 40.7815V43.3984C58.9646 44.0109 61.1918 47.296 61.1918 50.3584C61.1918 53.5878 61.1918 58.8216 61.1918 58.8216C59.7442 59.6568 58.2965 61.3829 57.8511 62.7748C57.7397 62.6635 57.6283 62.4964 57.4613 62.3851C57.4613 62.3851 57.4613 56.2047 57.4613 51.4719C57.4613 48.1869 55.6796 44.8461 52.5615 43.7882C52.5615 43.7882 53.5637 43.3428 54.8444 43.3428V40.7258C53.8421 40.5031 53.0626 39.6123 53.0626 38.4987C53.0626 37.218 54.0649 36.2158 55.3455 36.2158C56.6261 36.2158 57.6283 37.218 57.6283 38.4987C57.6283 39.6123 56.8488 40.5031 55.8466 40.7815Z" fill="#ED1B2F"/>
<path d="M68.43 40.7815V43.3428C69.7106 43.3428 70.7128 43.7882 70.7128 43.7882C67.5391 44.9018 65.813 48.2425 65.813 51.4719C65.813 56.2047 65.813 62.3851 65.813 62.3851C65.646 62.5521 65.5346 62.6635 65.4233 62.7748C64.9778 61.3272 63.5302 59.6011 62.0825 58.8216C62.0825 58.8216 62.0825 53.5878 62.0825 50.3584C62.0825 47.296 64.3097 44.0109 67.4277 43.3984V40.7258C66.4255 40.5031 65.646 39.6123 65.646 38.4987C65.646 37.218 66.6482 36.2158 67.9288 36.2158C69.2095 36.2158 70.2117 37.218 70.2117 38.4987C70.2674 39.6123 69.4879 40.5588 68.43 40.7815Z" fill="#ED1B2F"/>
</svg>
