<svg width="100" height="100" viewBox="0 0 100 100" fill="none" xmlns="http://www.w3.org/2000/svg">
<path d="M1.29199 49.5693C1.29199 22.9106 22.9101 1.28809 49.573 1.28809C76.2316 1.28809 97.854 22.9106 97.854 49.5693C97.854 76.236 76.2316 97.8501 49.573 97.8501C22.9101 97.8501 1.29199 76.2359 1.29199 49.5693Z" fill="white"/>
<path d="M49.5773 2.58377C23.6587 2.58377 2.58419 23.6608 2.58419 49.5689C2.58419 75.477 23.6587 96.5536 49.5773 96.5536C75.4795 96.5536 96.5622 75.477 96.5622 49.5689C96.5622 23.6608 75.4795 2.58377 49.5773 2.58377ZM49.5773 99.1413C22.2355 99.1413 0 76.908 0 49.5689C0 22.2413 22.2355 0 49.5773 0C76.9151 0 99.1463 22.2413 99.1463 49.5689C99.1463 76.908 76.9151 99.1413 49.5773 99.1413Z" fill="#231F20"/>
<path d="M29.8208 55.3465C26.6804 55.38 21.6525 55.8823 19.1193 55.954C16.575 56.0311 14.6487 53.6854 15.4655 51.2848C16.2988 48.8836 19.0972 40.8808 28.4798 31.9838C38.8008 22.1931 48.4648 19.2956 50.0432 18.8816C51.644 18.4618 53.9066 18.9921 55.5239 20.2722C68.1848 30.3943 66.2752 40.1634 74.8189 48.2438C80.7521 53.8509 77.5839 61.8375 72.7436 65.4525C65.5964 70.8062 42.46 80.0288 35.9415 81.3256C31.0295 82.2968 27.6406 81.4528 26.8017 78.7589C26.2277 76.8552 28.2699 70.0333 28.794 65.7117C29.3074 61.5891 29.7157 56.0364 29.8208 55.3465Z" fill="#231F20"/>
<path fill-rule="evenodd" clip-rule="evenodd" d="M53.0958 65.9107C55.1323 64.553 56.8266 64.0339 56.8045 63.0848C56.7824 62.1297 54.7734 58.3272 49.9772 59.652C45.1814 60.9709 41.6653 63.1953 39.3199 66.3467C39.3199 66.3467 40.7382 63.3996 42.6314 61.567C44.5243 59.7458 45.1372 59.3647 45.1372 59.3647C45.1372 59.3647 41.7704 57.8195 39.0439 59.7458C36.3286 61.6608 34.7666 63.6917 34.0713 67.8478C33.3814 71.9926 34.4079 73.6758 35.3902 73.9081C36.3671 74.134 38.8011 73.1298 40.065 72.5003C41.3344 71.888 51.0703 67.2792 53.0958 65.9107Z" fill="#EA2227"/>
<path fill-rule="evenodd" clip-rule="evenodd" d="M31.8743 55.2088C31.8743 55.2088 31.7805 59.9389 30.7926 65.5573C29.8103 71.1924 27.5969 77.9755 29.3632 79.1127C32.4095 81.0773 40.2469 78.3236 50.463 73.974C60.701 69.6196 69.587 66.369 72.7053 62.4996C75.1062 59.525 76.2596 56.3903 75.1393 52.7252C74.3225 50.0593 69.8904 46.7866 68.8418 45.0204C67.7933 43.2601 60.9552 29.164 57.4669 25.7862C53.9842 22.4251 52.9523 20.4438 48.9011 21.8236C44.8722 23.2088 34.9762 28.0047 28.331 35.3952C21.6916 42.7685 19.3845 47.1677 17.5522 52.2562C17.2431 53.117 18.6724 54.4585 21.5371 54.0279C24.4126 53.5918 38.216 52.9461 45.8658 54.2596C53.5043 55.5952 65.6079 56.5557 68.6211 55.7995C71.6017 55.0379 72.943 54.4311 71.0937 56.2577C68.2735 59.0447 64.1839 62.947 48.9784 70.4588C45.7499 72.059 34.4741 77.81 32.2939 75.8616C30.6602 74.4047 32.0678 70.8172 33.0886 64.5144C33.8669 59.7125 34.2865 55.1813 34.2865 55.1813L31.8743 55.2088Z" fill="#FFCC08"/>
<path fill-rule="evenodd" clip-rule="evenodd" d="M47.6757 36.3611C48.0179 35.6987 49.5023 33.5519 50.8325 33.2317C52.1845 32.9223 53.3989 33.6732 52.2123 34.639C51.0147 35.5995 50.0267 35.7375 49.3147 36.1897C48.6027 36.6478 47.3278 37.0289 47.6757 36.3611Z" fill="#231F20"/>
</svg>
