<svg width="100" height="100" viewBox="0 0 100 100" fill="none" xmlns="http://www.w3.org/2000/svg">
<path d="M0.00839826 50C-0.494061 22.7511 21.6142 0.252099 48.9982 0.00210968C49.2494 0.00210968 49.7519 0.00210968 50.0031 0.00210968C77.3872 -0.24788 99.7466 21.7512 99.9978 49C99.9978 49.25 99.9978 49.75 99.9978 50C100.249 77.2488 78.3921 99.4979 51.2593 99.9979C50.7568 99.9979 50.5056 99.9979 50.0031 99.9979C22.6191 100.248 0.259628 78.4988 0.00839826 51.2499C0.00839826 50.9999 0.00839826 50.5 0.00839826 50ZM4.78179 50.25C4.53056 74.9989 24.1265 95.2481 48.9982 95.748C49.2494 95.748 49.7519 95.748 50.0031 95.748C74.8749 95.998 95.2245 76.2489 95.4757 51.4999C95.4757 51.2499 95.4757 50.75 95.4757 50.5C95.9782 25.751 75.8798 5.25189 51.008 5.0019C50.7568 5.0019 50.2544 5.0019 50.0031 5.0019C25.1314 4.75191 4.78177 24.7511 4.53054 49.75C4.78177 49.5 4.78179 49.75 4.78179 50.25ZM10.5601 35.2506H34.6781V39.5004L29.9048 40.7504L45.481 50.75C45.481 50.75 37.1904 43.5003 39.954 38.0005C41.2101 36.0006 43.4712 35.0006 45.9835 35.2506H89.9487L63.5695 55.9997L60.5548 52.9999L73.3675 40.7504H48.9982C48.747 40.7504 47.4908 40.7504 47.2396 41.5003C45.481 45.2502 59.8011 59.4996 73.87 68.9992L79.8995 72.999V79.9987L10.5601 35.2506Z" fill="black"/>
</svg>
