<svg width="100" height="100" viewBox="0 0 100 100" fill="none" xmlns="http://www.w3.org/2000/svg">
<path d="M100 50C100 77.6142 77.6142 100 50 100C22.3858 100 0 77.6142 0 50C0 22.3858 22.3858 0 50 0C77.6142 0 100 22.3858 100 50Z" fill="#F9DA53"/>
<path d="M19.7972 27.1895C21.7528 29.6666 24.1289 31.8062 26.7836 33.511C30.7122 36.0491 35.2356 37.5802 39.8452 38.2787C43.0553 38.7679 46.3229 38.8683 49.5589 38.6079C50.2606 38.5476 50.9617 38.4718 51.657 38.3578C49.2828 39.6005 46.7623 40.5628 44.1626 41.2133C39.3956 42.4017 34.3797 42.5527 29.5433 41.7025C25.6609 41.0032 21.2776 39.4962 19.5789 35.5916C18.4097 32.9673 18.7165 29.7929 19.7972 27.1895Z" fill="#06A7E0"/>
<path d="M8.6458 39.1288C13.3536 42.2327 18.3798 44.4846 23.9708 45.4368C29.3346 46.3504 34.8287 46.2337 40.2133 45.5579C45.9607 44.8367 51.6084 43.4624 57.1407 41.766C55.2214 43.2052 53.1985 44.5011 51.1412 45.7322C46.4052 48.5327 41.3855 50.8887 36.1143 52.4892C32.2407 53.6529 28.2149 54.3806 24.1632 54.3832C19.9645 54.3579 14.828 53.8438 11.804 50.5641C9.11033 47.6618 8.04316 43.0156 8.6458 39.1288ZM46.9942 52.0226C48.909 50.8544 50.7803 49.609 52.5563 48.2366C49.8258 52.3233 46.6521 56.1482 42.8816 59.3181C39.7788 61.897 36.1339 64.235 32.1325 65.0875C28.4796 65.7985 24.0292 65.2643 21.723 62.0188C20.8392 60.7831 20.3772 59.2954 20.1711 57.8031C22.218 58.5301 24.3939 58.8664 26.5633 58.8567C31.29 58.8781 35.9434 57.4582 40.2327 55.5696C42.5609 54.5361 44.8158 53.3413 46.9942 52.0226Z" fill="#06A7E0"/>
<path d="M76.0644 33.3907C77.5236 33.5656 78.9913 33.8384 80.339 34.4449C81.576 35.0155 82.7476 35.9777 82.8745 37.4255C82.9445 38.0806 82.7935 38.7325 82.5907 39.3519C81.738 38.553 80.6209 38.104 79.5038 37.8189C78.6284 37.6057 77.731 37.4981 76.8323 37.4631C75.7677 38.7636 74.07 39.5684 72.3788 39.3941C71.4807 39.3072 70.63 38.8841 69.9924 38.2504C69.8103 38.0761 69.6379 37.8914 69.4649 37.7081C70.9358 38.2873 72.6846 38.1539 74.0052 37.2661C71.7056 36.9337 69.3787 36.8352 67.0571 36.8074C62.5404 36.7919 58.0831 37.2472 53.6196 37.8765C55.8214 36.6655 58.1897 35.7836 60.5878 35.0469C65.6034 33.5802 70.8436 32.8555 76.0644 33.3907ZM69.4196 43.6045C73.9987 41.7818 78.9602 40.7224 83.9035 41.1027C85.6251 41.2479 87.3487 41.5654 88.9505 42.2289C90.4824 42.8868 91.7179 44.0749 91.5047 45.8588C91.3596 46.9551 90.849 47.977 90.181 48.8478C90.0708 48.2219 89.8064 47.596 89.3237 47.167C87.7988 45.7334 85.0495 46.3106 83.2555 46.7309C79.1244 47.6906 75.1438 49.581 71.4354 51.5874C65.2476 55.5532 59.1861 59.7991 53.6157 64.6044C50.9075 66.9458 48.0242 69.4798 46.0955 72.5354C46.794 70.2099 47.6 67.9103 48.6355 65.7117C49.2951 64.3756 49.9968 63.0201 51.0595 61.9548C48.7176 63.645 46.5554 65.6489 44.5727 67.7496C40.9172 71.5363 37.6025 75.6641 34.6006 79.9864C35.3075 77.9809 36.0527 75.9858 36.9417 74.053C38.9536 69.6714 41.7476 65.6845 44.9447 62.089C49.1774 57.2837 54.0951 52.905 59.3172 49.1906C62.4617 46.9603 65.8383 45.0417 69.4196 43.6045Z" fill="#039482"/>
</svg>
