<svg width="100" height="100" viewBox="0 0 100 100" fill="none" xmlns="http://www.w3.org/2000/svg">
<path d="M21.3474 19.568C21.3474 19.568 20.9541 33.8059 39.9905 36.5591C39.9905 36.5591 15.3691 45.2906 25.4379 68.3389C25.4379 68.3389 -4.13927 42.7734 21.3474 19.568Z" fill="#422A76"/>
<path d="M88.8003 31.3281C88.8003 31.3281 73.9331 1.35767 43.7269 5.36946C43.7269 5.36946 31.5113 6.59437 26.3792 15.3436C25.1008 17.5227 24.6485 20.1034 25.2371 22.5603C25.9355 25.4751 28.154 28.7339 34.6208 28.5483C34.7911 28.5433 34.9621 28.5418 35.1326 28.5403C36.0562 28.5327 40.4535 28.0898 44.7887 20.7481C44.7887 20.7481 55.0934 3.83554 88.8003 31.3281Z" fill="#422A76"/>
<path d="M56.5095 28.4568C56.5095 30.9329 54.502 32.9404 52.0259 32.9404C49.5495 32.9404 47.542 30.9329 47.542 28.4568C47.542 25.9804 49.5495 23.9729 52.0259 23.9729C54.502 23.9729 56.5095 25.9804 56.5095 28.4568Z" fill="#172536"/>
<path d="M43.1764 37.7004C43.1764 37.7004 53.2451 39.5094 49.0761 57.5234C49.0761 57.5234 36.4508 63.0691 26.146 58.6638C26.146 58.6638 24.4154 44.9766 43.1764 37.7004Z" fill="#7249A8"/>
<path d="M51.7505 40.3739C51.7505 40.3739 62.9992 51.8586 59.2234 72.1536C55.4477 92.4487 36.9618 93.3138 35.5459 93.2352C35.5459 93.2352 59.9706 79.0759 51.7505 40.3739Z" fill="#81D070"/>
<path d="M57.0211 35.0254C57.0211 35.0254 73.2255 49.1058 73.4616 65.8612C73.6976 82.6163 59.1844 93.4605 56.1753 95C56.1753 95 75.5066 70.2662 57.0211 35.0254Z" fill="#F14D31"/>
<path d="M57.8862 28.1036C57.8862 28.1036 77.7095 34.239 83.7663 54.0619C83.7663 54.0619 88.486 68.1427 76.2148 87.7295C76.2148 87.7295 85.0249 53.6294 57.8862 28.1036Z" fill="#FABD1C"/>
<path d="M53.1665 21.3378C53.1665 21.3378 94.307 16.7753 88.8006 58.0928C88.8006 58.0928 85.0248 31.7211 53.1665 21.3378Z" fill="#66CCD9"/>
</svg>
