<svg width="100" height="100" viewBox="0 0 100 100" fill="none" xmlns="http://www.w3.org/2000/svg">
<path d="M100 50C100 77.6142 77.6142 100 50 100C22.3858 100 0 77.6142 0 50C0 22.3858 22.3858 0 50 0C77.6142 0 100 22.3858 100 50Z" fill="white"/>
<path fill-rule="evenodd" clip-rule="evenodd" d="M50.0011 100C77.3831 100 100 77.381 100 50C100 22.2222 77.3831 0 50.0011 0C22.2222 0 0 22.2222 0 50C0 77.381 22.2222 100 50.0011 100ZM96.2963 49.932C96.2963 75.4727 75.4738 96.2963 49.9331 96.2963C23.9995 96.2963 3.17481 75.4727 3.17481 49.932C3.13809 37.6069 8.11392 25.5436 16.8292 16.8285C25.5445 8.11337 37.608 3.13782 49.9331 3.17481C59.9671 3.17481 69.2729 6.38894 76.874 11.8642C64.6919 5.39122 49.5056 6.3868 37.7432 13.3252C32.8781 16.195 28.8772 19.7438 26.7195 25.1322C25.9259 27.1164 24.8678 31.4815 24.6033 35.9788C24.3827 39.7288 22.9106 40.27 20.6349 43.6508C18.9849 46.102 17.9757 47.2428 16.4021 49.6032C15.3439 51.1905 14.0449 53.8115 14.5502 55.291C15.0938 56.8825 16.4022 58.4656 17.725 58.4656C17.1959 55.9535 17.558 54.1647 19.0477 52.1164C21.1641 49.2064 23.8096 44.1799 24.6033 44.9736C25.3969 45.7672 24.3387 49.6031 25.926 50.1322C27.7779 48.5439 37.5663 39.418 38.3599 38.6243C39.1536 37.8307 39.5504 43.9153 37.0371 48.9418C34.5239 53.9683 28.5715 56.8783 28.5715 56.8783C31.7461 59.2593 36.2141 65.3439 36.508 69.3122C37.0371 76.455 36.508 76.455 36.508 82.5397C63.2276 90.2117 78.5716 71.4286 81.4816 60.3175C76.9843 55.5556 66.1377 45.5026 55.0287 40.3439C57.9366 38.6243 60.3176 37.8307 63.2276 33.0688C59.7885 32.5397 55.0287 32.5397 50.5292 32.0106C53.3059 27.6455 59.8714 26.0883 66.1377 27.2487C73.2805 28.5714 87.3017 35.9788 85.979 53.1746C85.2474 62.685 78.0433 87.3016 47.0899 87.3016C28.4391 87.3016 10.053 70.8995 10.053 49.6032C10.053 38.8889 13.4921 28.0423 19.5768 20.3704C16.4022 23.0158 7.20354 29.8941 6.87831 52.6455C6.73461 62.6984 17.3269 93.1217 50.2645 93.1217C72.7512 92.0634 86.268 78.8628 91.5344 59.7883C94.428 41.9008 89.9979 35.7836 84.4859 28.1726C79.42 21.1767 60.8466 11.6402 46.0318 20.3704C44.8413 21.164 43.3863 20.636 44.9736 19.8413C62.146 7.6885 93.9527 23.698 96.1387 46.0395C96.2868 47.5537 96.2963 48.6208 96.2963 49.932Z" fill="#DD5634"/>
</svg>
