<svg width="100" height="100" viewBox="0 0 100 100" fill="none" xmlns="http://www.w3.org/2000/svg">
<path d="M0 25C0 11.1929 11.1929 0 25 0H75C88.8072 0 100 11.1929 100 25V75C100 88.8072 88.8072 100 75 100H25C11.1929 100 0 88.8072 0 75V25Z" fill="#E5212D"/>
<path d="M80.5712 39.3908L69.8874 48.6921L69.7745 48.7915L83.0842 72.3144C83.5648 73.1666 83.4293 74.2599 82.7487 74.9699L80.8003 77.0079L58.9487 62.4808L62.8906 56.2182L61.9616 55.6005L52.3099 64.0002C41.7454 73.1666 29.8842 78.4563 21.3551 77.8173C17.91 77.5544 15.2422 76.3547 13.4358 74.2315C8.40029 68.3953 11.3422 56.8076 20.7454 45.3763L21.8519 46.1076C16.8745 53.0231 15.5616 59.6476 18.5261 63.0202C19.6938 64.3834 21.3551 65.1576 23.4616 65.3208C28.6874 65.7183 36.0584 62.2889 43.1842 56.1402L45.8454 53.7757L13.0519 31.9708L15.1067 30.1818C16.5615 28.9179 18.597 28.5131 20.4196 29.1237L66.4196 44.524L67.6842 43.4308L67.4777 43.296C64.0454 41.0166 60.8487 36.8489 61.8906 33.0644L69.7325 26.2411C72.0777 24.1963 74.8003 22.7192 77.8228 21.8531C80.9712 20.9444 83.6486 20.9231 85.3454 21.065C87.7551 21.2637 89.768 21.9524 90.4777 22.8115C90.8906 23.3157 91.6971 24.8282 90.2519 28.0231C88.7842 31.2608 85.5293 35.0879 80.5809 39.3979L80.5712 39.3908Z" fill="white"/>
</svg>
