<svg width="100" height="100" viewBox="0 0 100 100" fill="none" xmlns="http://www.w3.org/2000/svg">
<path d="M99.9436 52.3945C99.3601 64.8501 94.2321 76.477 85.3558 85.3555C75.9111 94.798 63.3558 99.9997 50 99.9997C36.6443 99.9997 24.089 94.798 14.6443 85.3555C5.77443 76.4835 0.646446 64.8674 0.0585938 52.4206C4.02172 52.9 8.05642 53.1451 12.1475 53.1451C16.2386 53.1451 19.9523 52.9173 23.7614 52.4748C25.0109 65.8522 36.3015 76.3555 50 76.3555C63.6985 76.3555 74.974 65.8652 76.2365 52.5008C79.9783 52.926 83.7809 53.1451 87.6356 53.1451C91.8026 53.1451 95.9111 52.8891 99.9436 52.3945Z" fill="#212C68"/>
<path d="M100 50C100 50.8004 99.9805 51.5987 99.9436 52.3948C95.9111 52.8894 91.8026 53.1453 87.6356 53.1453C83.7809 53.1453 79.9783 52.9262 76.2364 52.5011C76.3167 51.6768 76.3557 50.8438 76.3557 50C76.3557 35.4664 64.5336 23.6443 50 23.6443C35.4664 23.6443 23.6443 35.4664 23.6443 50C23.6443 50.8351 23.6833 51.6594 23.7614 52.4751C19.9523 52.9176 16.0759 53.1453 12.1475 53.1453C8.21909 53.1453 4.02169 52.9002 0.0585683 52.4208C0.0195228 51.6161 0 50.8091 0 50C0 36.6443 5.20174 24.0889 14.6443 14.6443C24.0889 5.20174 36.6443 0 50 0C63.3557 0 75.9111 5.20174 85.3557 14.6443C94.7983 24.0889 100 36.6443 100 50Z" fill="#1E9A8D"/>
</svg>
