<svg width="100" height="100" viewBox="0 0 100 100" fill="none" xmlns="http://www.w3.org/2000/svg">
<path d="M0 16C0 7.16345 7.16344 0 16 0H84C92.8366 0 100 7.16344 100 16V84C100 92.8366 92.8366 100 84 100H16C7.16345 100 0 92.8366 0 84V16Z" fill="#FF6600"/>
<path d="M79.3333 52.3333H47.0667C45.6 52.3333 44.9333 53 44.9333 54.2C44.9333 57.1333 46.5333 59.9334 49.7333 62.6C52.9333 65.2667 56.4 66.6 60.1333 66.6C62.2667 66.6 64.8 66.2 67.4667 65.4C70.1333 64.6 72.4 63.5333 74.1333 62.3333C75.7333 61.2667 76.9333 60.7333 77.8667 60.7333C79.0667 60.7333 80.2667 61.4 81.3333 62.8667C82.5333 64.3333 83.0667 65.8 83.0667 67.4C83.0667 70.7333 81.0667 73.8 76.9333 76.8667C69.7333 82.3333 61.3333 85 51.8667 85C42.2667 85 34.2667 82.2 27.7333 76.6C24.5333 73.8 22 70.6 20 66.7333C17.3333 61.5333 16 56.2 16 50.4667C16 42.8667 18.2667 35.9333 22.9333 29.8C26.9333 24.4667 32 20.6 38.2667 17.9333C42.9333 15.9333 48 15 53.3333 15C62 15 69.3333 17.4 75.4667 22.3333C78.5333 24.7333 80.9333 27.6667 82.8 31.1333C84.9333 35 86 38.7333 86 42.3333C86 45.2667 85.3333 47.6667 84.1333 49.6667C82.8 51.4 81.2 52.3333 79.3333 52.3333ZM48.9333 39.5333H55.8667C58.8 39.5333 60.2667 38.2 60.2667 35.5333C60.2667 33.1333 59.6 31 58.1333 29.5333C56.6667 27.9333 54.9333 27.2667 52.5333 27.2667C50 27.2667 48 28.3333 46.5333 30.3333C45.2 32.2 44.5333 34.0667 44.5333 36.0667C44.5333 37.4 44.8 38.3333 45.4667 39C46.1333 39.2667 47.2 39.5333 48.9333 39.5333Z" fill="white"/>
</svg>
