<svg width="100" height="100" viewBox="0 0 100 100" fill="none" xmlns="http://www.w3.org/2000/svg">
<path d="M94.4635 55.2252C92.6625 61.0164 86.6594 66.4545 79.4557 67.5845C80.621 69.3855 81.1507 71.6102 80.8682 74.0821C80.0913 80.7914 73.6644 86.1943 66.7785 86.2649C62.1172 86.3002 55.7962 84.2874 51.3468 77.2602C47.3565 71.0099 46.7915 61.087 47.074 58.0855C42.2009 63.0645 39.164 67.9024 37.7162 71.2571C34.4675 78.8492 33.2315 88.1011 33.3022 92.4446C33.3022 92.4446 32.7019 93.0096 32.1369 93.1155C30.3359 92.7977 28.7822 92.1268 27.6168 91.1027C26.2043 89.8314 25.8865 88.6308 25.8865 88.6308C28.0406 77.8605 31.4659 71.1511 36.5862 63.4883C43.4722 53.1417 54.1012 46.7502 66.7078 42.9011C75.8184 40.1114 85.2822 39.5111 91.7797 45.0198C95.2756 47.9155 95.4875 52.0823 94.4635 55.2252V55.2252ZM40.7884 49.5045C38.6344 53.1064 32.7372 58.8977 28.0759 61.8992C18.365 68.1142 11.3731 68.538 7.87713 66.3133C7.45338 66.0661 7.10026 65.7483 6.78245 65.4305C4.06338 62.5702 4.52244 57.4852 7.70057 53.3183C9.25432 51.2702 11.2671 49.8223 13.2093 49.1514C11.6909 48.4452 10.6668 46.962 10.455 44.8786C10.0312 40.7117 13.174 35.2383 17.5175 33.0136C21.3312 31.0714 29.559 29.1292 35.5975 38.1339C37.9634 41.6298 40.0822 46.6089 40.7884 49.5045V49.5045ZM80.6916 11.6495C80.1619 6.45856 74.6178 4.55168 68.5088 7.16481C65.6131 8.40075 63.0706 10.4842 61.2697 12.8501C61.5522 10.4842 60.8813 8.40075 59.1863 7.16481C55.8316 4.72825 49.7225 6.52919 45.5556 11.0492C44.1078 12.6383 39.3759 18.3589 39.1287 26.7633C39.0228 30.8242 40.8237 39.8289 46.7562 46.0439C62.5762 40.0761 71.0866 30.9301 74.3353 27.1517C78.0785 22.7729 79.6675 18.9239 80.3385 16.0989C80.8328 13.8742 80.7622 12.2851 80.6916 11.6495V11.6495Z" fill="#82C341"/>
<path d="M74.3352 27.1515C78.0783 22.7728 79.6674 18.9237 80.3383 16.0987C80.3736 15.9575 80.4089 15.8162 80.4442 15.6396C79.6673 18.7825 73.0286 26.9043 63.8473 33.8256C54.3129 40.994 48.8748 44.5959 46.7914 46.0084C62.5761 40.0759 71.0864 30.93 74.3352 27.1515V27.1515ZM28.0757 61.8638C32.737 58.8622 38.6342 53.0709 40.7883 49.4691C36.6214 53.4241 30.477 59.3213 19.9185 63.9825C14.6923 66.2072 9.57195 67.0547 7.87695 66.2425C11.3729 68.5025 18.3648 68.0788 28.0757 61.8638V61.8638ZM94.4633 55.225C94.7105 54.4481 94.887 53.6359 94.9576 52.7884C94.4633 56.1431 92.2033 60.2041 88.6014 62.4288C85.4233 64.4063 81.7508 65.7128 77.5839 65.3597C78.2548 65.9953 78.7845 66.525 79.4555 67.5491C86.6592 66.4544 92.6624 61.0163 94.4633 55.225Z" fill="#3CB14A"/>
<path d="M48.0628 51.6943C48.0275 51.7296 47.9922 51.7296 47.9922 51.765C47.9922 51.7296 48.0275 51.6943 48.0628 51.6943Z" fill="#F9ED32"/>
<path d="M47.9919 51.7296C36.6565 59.8515 32.8075 74.4709 32.1719 93.0806C32.7369 92.9747 33.3372 92.4097 33.3372 92.4097C33.2665 88.0662 34.5025 78.8497 37.7512 71.2222C39.199 67.8675 42.2359 63.0297 47.109 58.0506C47.4622 54.7312 47.8506 52.789 48.0978 51.6943C48.0272 51.6943 47.9919 51.7296 47.9919 51.7296Z" fill="#3CB14A"/>
</svg>
