<svg width="100" height="100" viewBox="0 0 100 100" fill="none" xmlns="http://www.w3.org/2000/svg">
<path d="M0 25C0 11.1929 11.1929 0 25 0H75C88.8072 0 100 11.1929 100 25V75C100 88.8072 88.8072 100 75 100H25C11.1929 100 0 88.8072 0 75V25Z" fill="#D71921"/>
<path d="M41.8465 47.8358L39.7841 49.8698C41.1902 51.2566 41.659 51.9038 41.7527 52.5509C41.8465 52.4585 43.7214 50.8868 43.7214 50.3321C43.7214 49.5 43.1589 49.2226 41.8465 47.8358ZM21.0349 60.317H14.0039C14.0039 60.317 15.2226 61.334 15.2226 63.4604V71.7811C15.2226 73.9076 16.0663 73.9075 16.0663 73.9075H22.9098C24.5035 73.9075 24.9722 72.7981 24.9722 72.2434V71.4113C24.9722 71.4113 24.5035 72.4283 22.441 72.4283H19.1599C18.1287 72.4283 18.2225 71.5962 18.1287 70.8566V66.234H20.4724C21.2223 66.234 21.9723 66.3264 22.7223 66.6962C22.7223 66.6962 21.9723 64.8472 19.6287 64.8472H18.1287V63.3679C18.1287 63.3679 18.1287 62.0736 17.8475 61.7038H20.0036C21.8786 61.7038 23.2848 61.7038 24.7847 62.6283C24.8784 62.8132 24.5972 60.317 21.0349 60.317ZM31.9094 62.9981C29.6595 62.9981 29.097 65.1245 29.097 65.1245C29.097 65.1245 29.0033 63.0906 27.2221 63.0906H25.4409C25.4409 63.0906 26.4721 63.4604 26.4721 65.217V71.6887C26.4721 73.8151 27.3158 73.9075 27.3158 73.9075H30.222C30.1282 73.9075 29.097 73.0755 29.097 71.6887V65.9566C29.097 65.6792 29.5657 64.8472 30.7844 64.8472C31.5344 64.8472 32.2844 65.5868 32.2844 66.4189V71.7811C32.2844 74 33.1281 74 33.1281 74H36.0342C36.0342 74 34.9093 73.2604 34.9093 71.7811V66.0491C35.003 65.7717 35.378 64.9396 36.5029 64.9396C37.3467 64.9396 38.0966 65.6792 38.0966 66.5113V71.8736C38.0966 74 38.9403 74 38.9403 74H41.8465C41.8465 74 40.7215 73.2604 40.7215 71.7811V65.9566C40.7215 63.6453 38.8466 63.0906 37.4404 63.0906C35.5655 63.0906 35.003 64.6623 34.8155 65.1245C34.5343 63.6453 33.1281 62.9981 31.9094 62.9981ZM44.0964 63.0906H42.3152C42.3152 63.0906 43.3464 63.5528 43.3464 65.217V71.6887C43.3464 73.8151 44.1901 73.8151 44.1901 73.8151H47.0962C47.0962 73.8151 45.9713 73.0755 45.9713 71.5962V65.4019C45.9713 63.0906 44.6588 63.0906 44.0964 63.0906ZM49.2524 63.0906H47.4712C47.4712 63.0906 48.5024 63.4604 48.5024 65.217V71.6887C48.5024 73.8151 49.3461 73.9075 49.3461 73.9075H52.2523C52.1585 73.9075 51.1273 73.0755 51.1273 71.6887V66.3264C51.2211 65.8642 51.5023 65.4943 51.8773 65.217C52.2523 64.9396 52.721 64.8472 53.1897 64.8472C53.8459 64.8472 54.5022 65.1245 54.9709 65.6792V63.8302C54.9709 63.8302 54.6897 63.0906 53.471 63.0906C51.6898 63.0906 51.2211 65.217 51.2211 65.217C51.0336 63.5528 50.5648 63.0906 49.2524 63.0906ZM67.7204 60.5943C67.7204 60.5943 67.0641 61.7038 65.7517 62.7208C64.908 63.3679 63.2205 64.2 63.2205 64.2H65.0955V71.7811C65.0955 73.9076 65.9392 73.9075 65.9392 73.9075H68.8453C68.8453 73.9075 67.7204 73.1679 67.7204 71.7811V64.2925H68.4703C69.4078 64.2925 70.1578 64.7547 70.1578 64.7547V63.0906H67.7204V60.5943ZM74.9388 63.0906C71.9389 63.0906 70.3452 65.8642 70.3452 68.8226C70.3452 71.7811 72.3139 74 75.1263 74C77.4699 74 78.2199 73.1679 78.2199 73.1679V71.4113C77.5637 72.5208 76.72 72.7981 75.97 72.7981C75.5478 72.797 75.1313 72.7023 74.7513 72.5208C73.4389 71.966 73.2514 70.3019 73.2514 70.3019C74.2826 69.1 75.595 69.3774 77.1887 67.6208C79.4386 65.4019 77.8449 63.0906 74.9388 63.0906ZM73.1576 69.1C73.1576 69.1 72.7826 64.1075 74.6576 63.9226H74.7513C76.2512 63.9226 75.8763 66.0491 75.4075 66.8811C74.7513 68.2679 73.8138 68.3604 73.1576 69.1ZM44.6588 59.5774C43.9089 59.5774 43.3464 60.1321 43.3464 60.8717C43.3464 61.6113 43.9089 62.166 44.6588 62.166C45.4088 62.166 45.9713 61.6113 45.9713 60.8717C45.9713 60.1321 45.4088 59.5774 44.6588 59.5774ZM58.9082 63.0906C57.2208 63.0906 56.1896 63.9226 56.1896 63.9226V65.7717C56.1896 65.7717 56.7521 64.2925 58.3458 64.2925C59.8457 64.2925 59.9394 65.0321 59.9394 65.4019C59.9394 65.4019 60.1269 65.8642 59.7519 66.5113C59.0957 67.7132 53.8459 67.8981 54.5959 71.966C54.8772 73.5377 56.0021 74 57.3146 74C58.627 74 59.377 73.3528 59.7519 72.7057C59.9394 73.9075 60.5957 74 60.5957 74H63.5018C63.5018 74 62.3768 73.2604 62.3768 71.8736V65.7717C62.2831 64.2 60.6894 63.0906 58.9082 63.0906ZM57.9708 72.7057C57.3145 72.7057 56.8458 72.0585 56.8458 71.3189C56.8458 68.6377 59.0957 68.2679 59.6582 67.5283V72.0585C59.377 72.3358 59.0957 72.7057 57.9708 72.7057ZM82.7197 62.9981C80.9385 62.9981 79.4386 64.1075 79.4386 65.5868C79.4386 66.8811 80.0011 67.7132 81.0323 68.4528L82.5322 69.3774C83.3759 69.8396 83.6572 70.3943 83.6572 70.9491C83.6572 71.6887 83.001 72.7057 81.501 72.7057C80.0011 72.7057 79.3449 71.134 79.3449 71.134V73.0755C79.3449 73.0755 80.4698 73.8151 82.0635 73.8151C84.0322 73.8151 86.0946 72.3358 86.0008 70.3019C86.0008 69.5623 85.7196 68.9151 85.3446 68.4528C84.6884 67.5283 83.4697 66.9736 82.5322 66.3264C81.9697 65.9566 81.6885 65.4019 81.6885 65.217C81.6885 64.8472 81.876 64.1075 83.3759 64.1075C84.7821 64.1075 85.4383 65.5868 85.4383 65.5868V63.7377C85.4383 63.9226 84.4071 62.9981 82.7197 62.9981ZM37.1592 44.2302H36.0342C36.0342 44.2302 37.1592 44.8774 37.1592 46.3566V51.3491C37.1592 54.5849 39.8778 57.6358 43.1589 57.6358H45.8775C47.565 57.6358 48.1274 57.266 49.0649 56.3415L50.0961 55.3245C50.6586 54.6774 51.3148 54.2151 51.3148 52.4585V50.7943C51.3148 49.4075 50.4711 48.7604 50.0961 48.3906L49.1586 47.466V50.7943C49.1586 50.7943 49.8149 51.534 50.1899 51.7189C51.596 52.8283 50.4711 54.7698 49.1586 54.7698H43.1589H43.0652C40.2528 54.6774 38.0029 52.366 37.9091 49.5925V46.9113C37.9091 44.2302 37.1592 44.2302 37.1592 44.2302ZM45.9713 47.8358L43.9089 49.8698C45.3151 51.2566 45.7838 51.9038 45.8775 52.5509C45.9713 52.4585 47.8462 50.8868 47.8462 50.3321C47.8462 49.5 47.2837 49.1302 45.9713 47.8358ZM50.1899 25L48.7837 26.3868C48.2212 26.9415 48.4087 28.0509 49.5336 29.1604V31.934C49.5336 32.2113 49.2524 32.4887 49.2524 32.4887C49.2524 32.4887 47.565 31.0094 46.065 31.0094H43.8151C42.4089 31.0094 41.284 32.3038 41.0965 32.3962C40.3465 33.1358 40.3465 34.5226 40.909 35.1698L42.5027 36.7415C42.5027 36.7415 42.1277 34.2453 42.5027 32.5811C42.5964 32.2113 43.0652 31.7491 43.5339 31.7491L47.19 34.5226L42.9714 38.8679C42.7839 39.0528 42.2214 39.4226 41.659 39.4226C41.0027 39.4226 40.7215 39.0528 40.4403 38.683V40.717C40.4403 41.3642 41.3777 42.1038 42.2214 42.1038H47.8462C48.2212 42.1038 48.6899 42.0113 49.0649 41.6415L50.9398 39.7925C51.2211 39.5151 51.3148 39.1453 51.3148 38.683V36.5566C51.3148 34.5226 49.7211 32.9509 49.7211 32.9509C49.7211 32.9509 50.0961 32.6736 50.0961 31.8415V29.7151C50.0961 29.7151 50.7523 30.3623 50.8461 30.6396L52.0648 29.4377C52.6272 28.883 51.6898 27.866 51.3148 27.4038C50.1899 26.2019 50.1899 25 50.1899 25ZM43.1589 39.6075C43.7214 39.3302 43.8151 39.1453 44.2839 38.5906L47.8462 34.8925C47.8462 34.8925 49.8149 36.9264 50.4711 38.0358C50.7523 38.5906 51.1273 39.6075 49.4399 39.6075H43.1589ZM38.3779 35.3547H37.3467C38.0029 35.7245 38.4716 36.834 38.4716 37.4811V41.5491C38.4716 42.6585 39.3153 46.634 42.9714 46.634H53.5647V53.2906C53.5647 54.4 53.1897 55.0472 52.9085 55.3245L51.3148 56.8038H52.0648L54.9709 54.2151C55.5334 53.5679 56.1896 52.9208 56.1896 50.8868V46.634L57.4083 45.4321L59.4707 43.4906C59.4707 45.1547 60.3144 45.8943 61.0644 45.8943C61.4811 45.8681 61.877 45.7054 62.1893 45.4321L64.0643 43.6755C64.908 42.8434 65.3767 40.2547 63.3143 40.2547C62.0018 40.2547 60.5019 42.1038 60.4082 42.2887C59.9394 42.0113 59.5645 41.3642 59.5645 41.3642V42.9359C59.377 43.2132 58.5332 43.8604 57.877 43.8604H56.1896V42.2887C56.1896 41.5491 56.4708 40.717 56.8458 40.3472L58.4395 38.8679H57.6895L54.5022 41.734C53.9397 42.3811 53.5647 43.583 53.5647 43.8604H41.5652C40.0653 43.8604 39.1278 42.3811 39.1278 41.1792V38.1283C39.1278 35.6321 38.4716 35.3547 38.3779 35.3547ZM62.6581 44.2302C62.3768 44.2302 62.0956 44.1377 61.7206 43.8604C61.3456 43.583 60.6894 42.6585 60.6894 42.6585C60.8769 42.4736 61.4394 42.2887 61.9081 42.2887C62.2831 42.2887 62.6581 42.3811 62.7518 42.566C63.408 43.3981 63.3143 44.2302 62.6581 44.2302ZM57.6895 25L54.5022 27.866C54.3147 28.0509 53.5647 29.1604 53.5647 30.4547V38.683C53.5647 39.2377 53.1897 40.0698 52.9085 40.3472L51.3148 41.8264H52.0648L55.0646 39.1453C55.4396 38.7755 56.1896 37.8509 56.1896 36.2792V28.4208C56.1896 27.2189 56.7521 26.5717 57.0333 26.2943L58.4395 25H57.6895ZM58.1583 46.0792V49.3151L59.2832 50.517C60.2207 51.4415 60.1269 53.1981 57.3146 55.8792C56.3144 56.9364 54.9353 57.5667 53.471 57.6358H48.4087L51.4086 60.2245H53.471C55.5334 60.2245 57.4083 59.3925 58.627 58.0981C59.7519 56.8962 60.4082 55.3245 60.3144 53.6604V49.4075C60.3144 47.9283 59.377 47.0962 59.1895 46.9113C59.002 46.9113 58.1583 46.0792 58.1583 46.0792Z" fill="white"/>
</svg>
