<svg width="101" height="100" viewBox="0 0 101 100" fill="none" xmlns="http://www.w3.org/2000/svg">
<path d="M1.01165 87.8994C22.3981 82.4552 75.9417 53.6812 83.8918 48.5644C87.8081 46.1256 92.14 47.5738 85.2266 58.8441C80.5128 65.77 77.2765 69.7997 64.7007 73.611C56.0664 76.8809 24.0015 86.212 1.54473 88.9236C-0.117491 89.0621 -0.650568 88.4493 1.01165 87.8994" fill="#FFC92D"/>
<path d="M3.14728 86.3925C21.8053 79.8444 62.4457 58.4538 76.2976 49.9538C86.2667 43.8884 93.9775 39.4054 96.9746 31.8037C103.409 14.4343 98.4857 7.36569 92.3741 12.7889C84.5751 20.378 47.8216 58.9197 0.805072 86.0148C0.0914924 86.4219 0.00332892 87.3622 3.14728 86.3925" fill="#5E8F4D"/>
<path d="M72.4736 73.0891C73.0855 72.9175 73.5693 72.8745 74.0478 72.8793C77.3968 72.9144 77.2793 77.1634 70.165 84.5274C62.4247 92.7461 55.5368 91.4701 46.3442 91.7681C36.7611 91.8647 28.8486 91.6464 7.93648 89.6694C6.2746 89.5686 5.90925 88.9096 7.30719 88.7249C38.5996 84.3679 65.174 75.2718 72.4736 73.0891Z" fill="#C52528"/>
</svg>
