<svg width="100" height="100" viewBox="0 0 100 100" fill="none" xmlns="http://www.w3.org/2000/svg">
<path d="M0 25C0 11.1929 11.1929 0 25 0H75C88.8072 0 100 11.1929 100 25V75C100 88.8072 88.8072 100 75 100H25C11.1929 100 0 88.8072 0 75V25Z" fill="#7C2045"/>
<path d="M64.6074 46.2584C69.6541 42.3051 72.1217 40.6228 77.3086 41.6041L86 43.1744L66.9062 58.9586L54.4863 68.8277C50.9256 71.4632 45.3459 71.9682 41.5889 70.1178L37.6641 68.0152L51.6826 56.6881L64.6074 46.2584ZM50.0273 37.2301C54.7062 33.6158 60.3095 34.9567 60.3174 34.9586L68.3359 36.4166L53.3643 48.192L41.6445 57.4723C38.0839 60.1077 32.8693 60.7249 29.1123 58.8746L25.1592 56.7721L25.2705 56.6881L38.3643 46.2857L44.0273 41.8004C46.5649 39.8205 49.9902 37.2578 50.0273 37.2301ZM28.9717 34.9586C33.3454 31.7624 36.5143 28.2864 42.7666 29.1275L50.1963 30.3053L38.1396 39.8932L35.7285 41.8004L29.3926 46.8463C25.8599 49.4818 20.6447 50.0991 16.8877 48.2486H16.8594L14 46.7349L28.9717 34.9586Z" fill="white"/>
</svg>
