<svg width="100" height="100" viewBox="0 0 100 100" fill="none" xmlns="http://www.w3.org/2000/svg">
<path d="M56.0294 35.2648L55.9628 35.1982L54.7636 33.999L53.4312 35.3315L54.7636 36.6639L56.0294 35.2648Z" fill="#BD8B13"/>
<path d="M58.6944 35.2648L58.4945 35.1982L57.2953 33.999L55.9629 35.3315L57.2953 36.6639L58.6944 35.2648Z" fill="#BD8B13"/>
<path d="M40.573 34.998C40.573 35.2645 40.8395 35.3977 41.0393 35.4644C41.3058 35.531 41.5723 35.7308 41.5723 36.1306V46.3904H52.8981V46.5903C52.8981 46.6569 52.8981 46.6569 52.8981 46.8568C52.8981 47.7228 53.1646 48.2558 53.6309 48.4557C53.6309 48.4557 53.8974 48.6556 54.2972 48.6556C54.5636 48.6556 54.8301 48.5889 55.1632 48.3891L55.3631 48.3225L55.1632 48.1226C54.8968 47.8561 54.6969 47.0566 54.6969 46.5903V46.5236H58.8941V37.0633C58.8941 37.0633 58.3611 38.2625 56.2958 39.7948C56.2958 39.7948 56.3624 40.1945 56.7622 40.3944C57.2952 40.6609 57.2285 40.994 57.2285 40.994V44.7915H54.6303V44.5916V44.3917C54.6303 43.459 54.3638 41.1939 51.8321 41.1939H51.7655C51.0327 41.1939 50.2998 41.1939 49.7002 41.1939H49.5004C48.0347 41.1939 47.2352 40.994 46.9687 40.5943L46.9021 40.3944L46.8355 40.461C46.569 40.6609 46.3691 40.994 46.3691 41.3937C46.3691 41.9933 46.7688 42.7262 47.3018 42.7262C47.7016 42.7262 48.2345 42.7262 48.7675 42.7262C49.7002 42.7262 50.7662 42.7262 50.7662 42.7262C52.8315 42.7262 52.8981 43.6589 52.8981 44.0586V44.525H43.2379V32C43.2379 32 42.1053 33.5323 40.5063 34.6649V34.7315V34.998H40.573Z" fill="#BD8B13"/>
<path d="M33.9773 47.9231C33.9773 47.9231 33.7775 49.4554 36.9087 49.4554C39.4404 49.4554 39.507 47.8565 39.507 47.8565V41.9937C39.507 41.594 39.4404 40.5947 38.3744 40.5947H29.5803V39.9284C29.5803 39.7286 29.6469 39.7286 29.8468 39.662C30.3131 39.3955 30.3797 39.0624 30.3131 38.9291C29.3138 38.3295 28.3145 36.9971 28.3145 36.9971V42.127H37.1086H37.1752C37.4417 42.127 37.8414 42.1936 37.8414 42.7932V46.9238C37.8414 46.9238 37.8414 47.7899 36.9753 47.7899C35.5763 47.7899 35.6429 47.057 35.6429 47.057V44.7919H28.3145V46.5907H34.1106V47.9231H33.9773Z" fill="#BD8B13"/>
<path d="M70.8191 36.1309C70.8191 35.6646 71.0856 35.5313 71.2855 35.4647C71.4853 35.3981 71.6852 35.2648 71.7518 34.8651V34.7985C71.7518 34.5986 71.6852 34.5986 71.4853 34.532C71.2855 34.4654 71.019 34.2655 70.486 33.7991C69.5533 33.0663 69.3534 32.6666 69.3534 32.6666L69.0869 32.2002V46.524H70.8857C70.8191 46.4574 70.8191 36.3974 70.8191 36.1309Z" fill="#BD8B13"/>
<path d="M64.8233 48.3228L63.6241 49.522L62.4249 48.3228L63.6241 47.1236L64.8233 48.3228ZM60.7594 48.3228L63.6908 51.2542L66.6221 48.3228L64.8233 46.524L66.9553 44.2588V32.2002C66.9553 32.2002 66.0892 33.999 64.6901 34.9317V34.9983C64.6901 35.2648 64.89 35.3981 65.0898 35.4647C65.2897 35.5313 65.4896 35.7312 65.4896 36.1309C65.4896 36.5306 65.4896 43.3927 65.4896 43.3927L63.6908 45.2582L61.892 43.3927C61.892 43.3261 61.892 36.3974 61.892 36.1309C61.892 35.6646 62.0918 35.5313 62.2917 35.4647C62.4916 35.3981 62.5582 35.2648 62.6914 34.9983V34.9317C61.359 33.999 60.4263 32.2002 60.4263 32.2002V44.4587L62.5582 46.6572L60.7594 48.3228Z" fill="#BD8B13"/>
<path d="M55.6295 54.6515L56.0958 54.918C56.1624 54.9846 56.1624 54.9846 56.1624 55.1178V58.9153H48.0345L46.1691 61.2471V55.1178V55.0512L46.2357 54.9846L46.6355 54.7181V54.3184H42.5049V54.7181L42.9046 54.9846L42.9712 55.0512V66.3104V66.5102L42.9046 66.5769L42.5049 66.8433V67.2431H46.6355V66.8433L46.1691 66.5769L46.1025 66.5102V61.3803L46.5688 61.4469L47.1018 61.1805L47.3683 61.1138C47.3683 61.1138 47.4349 61.1138 47.5682 61.1138H56.0958V65.1112L59.1604 61.7801V55.2511L59.2271 55.1845L59.6934 54.9846V54.5848H55.6295V54.6515Z" fill="#BD8B13"/>
<path d="M99.667 59.2482C99.2006 57.7159 98.068 56.5167 96.4025 55.584C94.9368 54.7179 92.7382 54.3848 89.8735 54.3848H78.7476V54.7845L79.2139 55.051V56.3834H89.8069C91.9388 56.3834 93.5377 56.6499 94.4704 57.2495C95.9361 58.1156 96.7356 59.3148 96.7356 60.7139C96.7356 61.4467 96.5357 62.1129 96.2026 62.7792C95.8029 63.3788 95.2033 63.9117 94.4038 64.3115C93.4045 64.9111 91.8055 65.1776 89.7402 65.1776H84.2106V57.2495H81.2126V66.2435V66.3101L81.146 66.3768L80.7462 66.5766V66.9764H89.8069C91.6057 66.9764 92.8715 66.9097 93.9374 66.7099C95.2699 66.4434 96.4691 65.977 97.4018 65.3108C98.4011 64.6446 99.2006 63.7785 99.5337 62.979C99.8002 62.3128 100 61.6466 100 60.9137C99.8668 60.3141 99.7336 59.7145 99.667 59.2482V59.2482Z" fill="#BD8B13"/>
<path d="M65.4897 56.6504L55.563 66.9768H60.1599V66.5105H59.9601H59.7602H59.5603L67.1553 58.5158L65.4897 56.6504Z" fill="#BD8B13"/>
<path d="M75.4831 66.6433V67.1096H79.9468L67.9548 54.3848L66.156 56.2502L68.1546 58.3155L70.2199 60.3808H66.7556L64.8901 62.3794L65.2899 62.6459L65.7562 62.3794H65.8228C65.8228 62.3794 66.0227 62.3794 66.0893 62.3794H71.8855L75.8828 66.7099C75.8828 66.7099 75.8162 66.7765 75.4831 66.7765H75.4164V66.6433H75.4831Z" fill="#BD8B13"/>
<path d="M40.7729 54.9182L41.1726 54.6517V54.252H37.1753V54.6517L37.575 54.9182L37.7749 55.118V66.1773V66.3772L37.7083 66.4438L37.2419 66.6437V67.0434H41.2393V66.6437L40.8395 66.4438L40.7729 66.3772V55.118V55.0514V54.9182Z" fill="#BD8B13"/>
<path d="M20.7195 64.5779H20.5197H20.0533L19.5203 64.8443C19.4537 64.911 19.3205 64.911 19.2538 64.911H10.1266C8.06129 64.911 6.46236 64.6445 5.46302 64.0449C3.86409 63.1788 3.13125 62.0462 3.13125 60.4473C3.13125 59.7811 3.33111 59.0482 3.79747 58.4486C4.53031 57.316 5.66289 56.4499 7.32845 56.1835C7.7948 56.1168 8.19454 56.1168 8.46103 56.1168H13.1246C13.3911 56.1168 13.3911 56.1835 13.3911 56.1835L13.3245 56.5832H13.6576L15.6562 54.1182H10.06C8.72752 54.1182 7.72818 54.1182 7.06196 54.1848C6.66223 54.1848 6.32911 54.2514 6.06263 54.3847C5.12991 54.5845 4.26382 54.9843 3.46436 55.4506C1.99867 56.2501 0.999334 57.2494 0.466356 58.382C0.199867 59.0482 0 59.7811 0 60.6471C0 62.7124 1.13258 64.3114 3.26449 65.5772C4.1972 66.1768 5.32978 66.5099 6.52898 66.7098C7.46169 66.9096 8.66089 66.9096 10.1932 66.9096H18.6542L20.7195 64.5779Z" fill="#BD8B13"/>
<path d="M16.1229 61.5139L18.1215 59.0488H4.8637L3.53125 61.0475H15.4566C15.6565 61.0475 15.7231 61.1141 15.7231 61.1141L15.6565 61.5139H16.1229Z" fill="#BD8B13"/>
<path d="M17.1223 54.252L15.2568 56.5837L15.6566 56.6504H15.7232L16.2562 56.3839C16.456 56.3172 16.5227 56.184 16.7225 56.184H24.051V66.1107V66.1773L23.9844 66.244L23.5846 66.5104V66.9102H27.7152V66.5104L27.3155 66.244L27.2488 66.1773V66.1107V56.2506H33.7112C33.9777 56.2506 33.9777 56.3172 33.9777 56.3172V56.717H34.3774L36.3761 54.252H17.1223Z" fill="#BD8B13"/>
</svg>
