<svg width="100" height="100" viewBox="0 0 100 100" fill="none" xmlns="http://www.w3.org/2000/svg">
<path d="M0 25C0 11.1929 11.1929 0 25 0H75C88.8072 0 100 11.1929 100 25V75C100 88.8072 88.8072 100 75 100H25C11.1929 100 0 88.8072 0 75V25Z" fill="#522D6D"/>
<path d="M22.8381 70.5166C19.265 70.5166 18.0039 68.4148 18.0039 64.2111C18.109 61.2686 18.7395 58.4311 20.1057 55.8039C46.1682 55.8039 59.1994 53.4922 68.3423 53.4922C71.9154 53.4922 74.0172 55.1734 74.0172 58.5363C73.9121 61.4789 73.0714 64.4214 71.495 66.9436C44.0663 66.9436 28.5129 70.5166 22.8381 70.5166Z" fill="#CDDE00"/>
<path d="M30.8249 50.0244C27.2518 50.0244 25.9907 47.9226 25.9907 43.7189C26.0958 40.7764 26.7264 37.939 28.0925 35.3117C54.155 35.3117 67.0812 33 76.3292 33C79.9023 33 82.004 34.6812 82.004 38.0441C81.8989 40.9867 81.0583 43.9292 79.4819 46.4514C51.9481 46.4514 36.4998 50.0244 30.8249 50.0244Z" fill="#CDDE00"/>
</svg>
