<svg width="100" height="100" viewBox="0 0 100 100" fill="none" xmlns="http://www.w3.org/2000/svg">
<path d="M100 50C100 77.6142 77.6142 100 50 100C22.3858 100 0 77.6142 0 50C0 22.3858 22.3858 0 50 0C77.6142 0 100 22.3858 100 50Z" fill="black"/>
<path d="M15.1555 51.1837H13V45.4594H15.1555V44.0106C15.1555 38.8869 18.7951 35.1767 25.1908 35.1767C26.1095 35.1767 27.1343 35.1767 27.1343 35.1767L27.0989 40.689H26.6396C23.0353 40.689 21.9753 42.5265 21.9753 44.7173V45.424H27.6996V51.1484H22.364V65.1767H15.1555V51.1837ZM30.3145 35.1767H37.523V65.1767H30.3145V35.1767ZM87.735 45.4594C84.6961 45.4594 82.8233 46.2014 81.4099 48.2509L80.8445 45.4594H74.9788V65.1413H81.9753V57.7915C81.9753 51.3251 87.735 52.5265 87.735 52.5265V45.4594ZM54.3781 55.318C54.3781 52.9859 52.3993 51.3958 50.4912 51.3958C48.4417 51.3958 46.6042 52.9859 46.6042 55.318C46.6042 57.7208 48.4417 59.311 50.4912 59.311C52.364 59.311 54.3781 57.7562 54.3781 55.318ZM61.2332 45.4947V65.1767H54.3781V62.7032C53.2827 64.0106 50.8445 65.1767 48.689 65.1767C43.318 65.1767 40.1378 61.3958 40.1378 55.318C40.1378 49.2403 43.8481 45.4594 48.7597 45.4594C51.5159 45.4594 53.8481 46.3074 55.2261 48.2509L55.7562 45.4594H61.2332V45.4947ZM64.4488 45.4594H71.7632V65.1413H64.4488V45.4594ZM72.2579 39.0989C72.2579 38.0035 71.8339 36.9435 71.0565 36.2014C70.2791 35.424 69.2191 35 68.159 35C66.4982 35 64.9788 35.9894 64.3428 37.5442C63.7067 39.0989 64.0601 40.8657 65.2261 42.0318C66.3922 43.1979 68.159 43.5512 69.7138 42.9152C71.2332 42.2792 72.2579 40.7951 72.2579 39.0989Z" fill="white"/>
</svg>
