<svg width="100" height="100" viewBox="0 0 100 100" fill="none" xmlns="http://www.w3.org/2000/svg">
<path fill-rule="evenodd" clip-rule="evenodd" d="M65.3399 8C88.3432 8 100 8.05169 100 8.15508C100 8.25846 99.2505 11.1274 98.32 14.5392C97.3895 17.925 96.459 21.2334 96.2264 21.8537C95.9679 22.474 95.4252 23.5854 94.9599 24.335C94.5206 25.0845 93.5642 26.3251 92.8405 27.1005C92.1168 27.8759 91.0571 28.8323 90.4627 29.22C89.894 29.6335 88.9119 30.2021 88.2915 30.5123C87.6712 30.8224 86.5598 31.236 85.8361 31.4169C84.5697 31.7271 83.3807 31.7271 55.1047 31.7271C35.0478 31.7271 25.1486 31.8046 23.9855 31.9338C23.0551 32.0372 21.556 32.2957 20.6255 32.5283C19.7209 32.7609 18.2476 33.3037 17.343 33.7431C16.1282 34.3117 15.6888 34.4668 15.5854 34.2859C15.482 34.1566 16.1799 31.3394 17.3947 26.8679C18.4544 22.9134 19.5916 18.9331 19.9018 18.0284C20.2119 17.1238 20.8064 15.7022 21.2458 14.8235C21.6852 13.9705 22.383 12.8591 22.7707 12.3422C23.1843 11.8253 23.908 11.0499 24.3991 10.6363C24.8643 10.197 25.8982 9.55079 26.6736 9.18894C27.4231 8.82709 28.4828 8.43939 29.0256 8.336C29.5425 8.23262 30.137 8.12923 30.3438 8.10339C30.5247 8.05169 46.291 8.02585 65.3399 8ZM55.6475 38.0078C73.8951 37.9819 88.8343 38.0336 88.886 38.1111C88.9119 38.1887 88.3691 40.3339 87.6712 42.9186C86.9475 45.4774 86.1721 48.1913 85.9137 48.8891C85.6552 49.6128 85.0607 50.9827 84.5697 51.939C84.0786 52.8953 83.3807 54.136 82.993 54.7046C82.6053 55.2732 81.6749 56.3587 80.9511 57.1083C80.2274 57.8578 79.1677 58.8142 78.5733 59.2277C78.0047 59.6412 77.0225 60.2099 76.4022 60.4942C75.7819 60.7785 74.7997 61.1403 74.2052 61.3213C73.2231 61.6056 71.4913 61.6314 44.4042 61.7348C15.9214 61.8382 15.6371 61.8382 13.9829 62.2C13.0783 62.4068 11.7343 62.7687 11.0106 63.0271C10.2869 63.2598 9.22719 63.6991 8.65857 63.9835C8.08995 64.2936 7.54717 64.4487 7.46963 64.3712C7.36624 64.2936 8.11579 61.2696 9.09796 57.6511C10.0543 54.0326 11.1657 50.1297 11.5534 48.9925C11.9411 47.8294 12.6648 46.046 13.1817 44.9863C13.6986 43.9524 14.4999 42.6084 14.9651 42.0398C15.4303 41.4453 16.1799 40.6699 16.6193 40.3081C17.0328 39.9721 17.8341 39.4552 18.351 39.1967C18.8938 38.9124 19.7984 38.5764 20.367 38.4471C20.9356 38.2921 21.6593 38.137 21.9437 38.1111C22.228 38.0594 37.3998 38.0078 55.6475 38.0078ZM30.3696 67.9897C45.283 67.9638 46.1618 67.9897 46.1618 68.274C46.1618 68.4291 45.5156 70.8845 44.7661 73.6759C43.9907 76.4931 43.1636 79.388 42.9051 80.1117C42.6467 80.8095 42.1297 82.0243 41.7421 82.7997C41.3544 83.5492 40.6307 84.764 40.1396 85.4619C39.6485 86.1597 38.6663 87.297 37.9426 87.9431C37.2189 88.6151 36.1075 89.4422 35.4872 89.8041C34.8669 90.1659 33.6004 90.7346 31.0416 91.6392L15.5079 91.665C1.80925 91.7167 0 91.6909 0 91.4583C0 91.3032 0.697855 88.6151 1.57663 85.436C2.42957 82.2569 3.36004 79.0003 3.64435 78.199C3.92866 77.3719 4.41975 76.1313 4.75575 75.4334C5.09176 74.7097 5.66038 73.65 6.04807 73.0814C6.43577 72.5128 7.15947 71.6599 7.62471 71.1946C8.08995 70.7035 8.91703 70.0574 9.43396 69.7214C9.97674 69.3595 10.9589 68.9201 11.6309 68.6875C12.3029 68.4807 13.2334 68.2223 13.7245 68.1447C14.2156 68.0672 21.711 67.9897 30.3696 67.9897Z" fill="#008151"/>
</svg>
