<svg width="100" height="100" viewBox="0 0 100 100" fill="none" xmlns="http://www.w3.org/2000/svg">
<path fill-rule="evenodd" clip-rule="evenodd" d="M50 100C22.3858 100 0 77.6142 0 50C0 22.3858 22.3858 0 50 0C77.6142 0 100 22.3858 100 50C100 77.6142 77.6142 100 50 100ZM50 10.9091C71.5893 10.9091 89.0909 28.4107 89.0909 50C89.0909 71.5893 71.5893 89.0909 50 89.0909C28.4107 89.0909 10.9091 71.5893 10.9091 50C10.9091 28.4107 28.4107 10.9091 50 10.9091Z" fill="#E6007E"/>
<path d="M50.0157 37.8378C54.0702 26.5423 70.8611 26.8696 74.7429 38.3151C76.8731 44.6013 74.0639 49.1658 70.8528 54.3832L70.8248 54.4287C65.5839 62.9423 58.2429 70.5832 50.0157 76.256C41.7884 70.5832 34.4475 62.9423 29.2066 54.4287L29.1786 54.3832C25.9675 49.1658 23.1582 44.6013 25.2884 38.3151C29.1702 26.8696 45.9611 26.5423 50.0157 37.8378Z" fill="#E6007E"/>
</svg>
