<svg width="100" height="100" viewBox="0 0 100 100" fill="none" xmlns="http://www.w3.org/2000/svg">
<path d="M80.7423 73.1306C80.196 54.442 26.6743 50.5339 14.7588 40.6064C24.9998 52.6525 35.1878 56.4628 47.2823 60.0082C41.6302 60.2406 38.0432 58.6307 35.3259 58.0873C46.7389 66.7829 74.9997 73.1306 74.9997 78.1959C74.9997 79.6265 74.5289 81.0571 72.0386 83.5719C74.9352 80.0254 73.8135 76.6644 66.8475 74.3916C73.8882 77.9427 67.391 85.8046 55.978 92.8698C58.4808 91.9521 61.4256 90.8917 65.319 89.4391C77.0179 85.0743 80.8728 77.5673 80.7423 73.1306Z" fill="#F40006"/>
<path d="M74.6913 56.8542C57.0868 44.3905 12.0731 35.8827 7.53076 28.1836C16.6744 51.8572 58.1959 52.3466 75.3083 65.2448C87.3523 74.3227 73.9871 84.8294 70.8954 86.8113C82.1253 80.5218 89.2875 67.1939 74.6913 56.8542Z" fill="#38A231"/>
<path d="M83.8862 62.3891C81.0476 54.7535 73.9727 49.081 63.4382 44.1873C38.6155 32.6535 3.42419 23.5179 0 7C1.71945 36.5597 41.9259 40.9249 65.2136 52.0285C74.0373 56.7961 75.7814 59.1952 78.6778 62.1844C83.283 66.942 83.2408 76.4883 76.0923 83.1292C86.1206 75.7251 85.3908 66.4334 83.8862 62.3891Z" fill="#DCDDDF"/>
<path fill-rule="evenodd" clip-rule="evenodd" d="M74.9232 38.5215C80.31 41.0828 91.8688 37.1985 95.8216 41.7845C96.8037 42.9239 96.6959 44.4869 97.1378 44.9954C97.624 45.5557 100.354 45.8809 99.9614 47.9336C86.4268 45.4061 83.1768 57.7499 83.1768 57.7499C78.8955 50.5936 72.6118 46.1921 64.6143 43.4999C67.531 43.1326 71.9229 41.7186 74.712 41.8598C76.0574 41.9305 79.435 45.4235 80.324 43.2302C77.5499 42.7404 75.866 40.965 74.9232 38.5215ZM92.9344 42.8693C93.4779 44.4997 93.4779 44.4997 95.6518 45.0432C95.6518 43.3041 94.5648 42.8693 92.9344 42.8693Z" fill="#DCDDDF"/>
</svg>
