<svg width="100" height="100" viewBox="0 0 100 100" fill="none" xmlns="http://www.w3.org/2000/svg">
<path d="M75.0159 7L0 92.1245H73.5689L100 7H75.0159ZM46.8397 76.0785C45.648 76.2275 44.4563 76.2913 43.2645 76.27C41.4343 76.2488 40.2852 76.0147 39.4126 75.6742C38.6678 75.3762 38.0081 74.5676 38.2422 73.9504C38.455 73.4822 38.7955 73.0779 39.2637 72.8225C41.4131 71.4392 45.2862 70.7157 49.5637 70.439C49.1807 71.269 46.8397 76.0785 46.8397 76.0785ZM69.6105 64.9059C66.5035 68.5663 63.439 68.8217 57.3952 68.2683C41.5195 66.8638 38.455 71.2477 37.9442 71.801C38.0506 71.3967 38.1783 70.9923 38.3698 70.6305C39.3701 68.3535 40.5831 65.821 41.9451 62.7991C42.7112 61.2243 43.1368 61.1605 43.8391 60.6497C46.7121 58.7557 51.3301 56.9894 57.4803 57.5214C62.0132 57.9257 63.9923 58.8408 66.7801 58.9898C67.9719 59.0749 69.1636 59.0111 70.3341 58.7982C73.3134 58.1598 74.0796 57.266 74.0796 57.266C74.0796 57.266 71.9515 61.9053 69.6105 64.9059ZM73.2496 55.3081C72.2707 55.8827 70.9938 56.436 68.5252 56.5212C65.8012 56.6063 64.1413 56.0104 61.1407 55.521C57.0334 54.8612 53.0538 54.6059 48.755 55.9679C46.9249 56.5424 45.2011 57.4575 43.6901 58.6493C43.6901 58.6493 46.861 51.5201 47.691 49.6899C49.053 46.9021 53.5859 44.9017 59.5446 44.9655C64.9074 45.0294 67.3122 46.4126 71.7174 46.4765C78.2932 46.4552 80.4639 44.2632 80.4639 44.2632C80.0809 45.0719 78.0804 49.2643 77.144 51.0519C75.5905 53.478 74.4839 54.5846 73.2496 55.3081Z" fill="#001B71"/>
</svg>
