<svg width="100" height="100" viewBox="0 0 100 100" fill="none" xmlns="http://www.w3.org/2000/svg">
<path d="M49.6333 9.03516C49.6533 8.98059 52.1958 2.04757 52.8276 0.0800781C51.8919 0.027914 50.9493 4.53347e-06 50.0005 0C47.2949 0 44.6394 0.216224 42.0503 0.629883C44.4508 3.36337 49.6333 9.03516 49.6333 9.03516Z" fill="#473729"/>
<path d="M47.8052 17.1631C47.8597 17.1611 53.2898 16.9588 53.9858 17.1016C55.8727 12.6038 59.8155 2.73678 60.4692 1.09961C59.4705 0.886828 58.4608 0.703919 57.4409 0.551758L50.9546 16.2334C46.7782 11.3451 40.8603 6.78256 36.8394 1.75098C35.6378 2.07796 34.4543 2.44879 33.2905 2.86133C37.5391 7.56792 43.7781 13.4327 47.8052 17.1631Z" fill="#473729"/>
<path d="M61.1997 19.0156C64.6695 14.5357 68.2474 9.50357 71.5044 4.85059C70.0325 4.14828 68.5212 3.51534 66.9741 2.95703C63.8518 8.03346 60.7094 13.0846 57.6909 18.0703C58.8655 18.3525 60.0441 18.6765 61.1997 19.0156Z" fill="#473729"/>
<path d="M37.9546 18.1133C38.6262 17.9483 39.8458 17.5948 40.7476 17.3984C37.1559 13.5308 31.499 8.83885 27.6401 5.27051C26.6603 5.76125 25.6991 6.28304 24.7573 6.83496C28.9599 10.579 33.8963 14.84 37.9546 18.1133Z" fill="#473729"/>
<path d="M66.0083 20.6592C69.9064 19.3131 72.6875 18.2505 74.8911 17.0869L74.9604 16.9961C75.0677 15.9506 75.7827 8.40673 75.7827 7.24609C74.9693 8.34419 66.874 19.4211 66.0083 20.6592Z" fill="#473729"/>
<path d="M79.0034 18.7373C81.6544 18.3899 85.2786 17.8488 87.98 17.4844C85.5549 14.6544 82.8205 12.0978 79.8267 9.86914C79.562 12.6521 79.1258 17.0612 79.0034 18.7373Z" fill="#473729"/>
<path d="M34.979 20.623C33.8499 19.7437 22.5317 10.8517 21.3687 10.0068C21.5786 11.586 22.7412 17.6256 22.9058 18.6338C26.8769 19.1856 30.7981 19.9537 34.979 20.623Z" fill="#473729"/>
<path d="M8.74756 21.7451C12.3988 20.963 15.922 20.5758 19.396 19.7588L17.771 11.7773C14.336 14.6766 11.2974 18.0294 8.74756 21.7451Z" fill="#473729"/>
<path d="M89.2974 20.0625L79.1978 22.2295L78.6841 31.5957L89.2974 20.0625Z" fill="#473729"/>
<path d="M75.3169 21.8477L68.6763 23.3975C68.6763 23.3975 73.2154 27.2867 75.0708 28.8926L75.3169 21.8477Z" fill="#473729"/>
<path d="M23.394 30.8838C25.7344 28.6413 28.2347 26.1256 31.4692 23.5635C27.0316 22.735 25.0195 22.4882 22.1704 22.5088C22.516 25.4533 23.0001 28.2507 23.394 30.8838Z" fill="#473729"/>
<path d="M94.1675 26.5537C93.5307 25.3568 92.8513 24.1864 92.1226 23.0498L80.1499 35.9307L81.0181 39.9023L94.1675 26.5537Z" fill="#473729"/>
<path d="M20.7427 35.7773C20.0004 32.5006 17.9536 25.6568 17.6362 24.792C13.938 25.5161 9.50045 26.3759 5.3999 27.8457C10.2192 30.657 15.8755 33.6171 20.7427 35.7773Z" fill="#473729"/>
<path d="M49.9233 38.5615C51.2657 35.9296 51.0152 32.5075 51.0122 32.4678C50.9611 30.6873 50.7816 28.7271 49.8081 26.9824C48.9067 29.6569 48.8214 30.0962 48.7593 32.1572C48.6827 34.6981 48.8364 35.6957 49.9233 38.5615Z" fill="#473729"/>
<path d="M99.5942 56.3975C99.7641 55.0677 99.8806 53.7216 99.9438 52.3613C97.9553 51.2764 85.4327 47.4778 84.1792 46.7959C86.1093 44.89 95.0676 37.6419 97.9517 35.793C97.5297 34.3668 97.045 32.9676 96.5024 31.5977C91.8126 35.8306 87.0487 39.9502 82.1294 43.915C82.3818 45.8844 82.4855 47.897 82.1548 49.8672C87.7847 51.3425 94.075 54.4758 99.5942 56.3975Z" fill="#473729"/>
<path d="M53.2915 39.8203C54.9536 37.9383 55.3582 37.3328 55.7124 36.4121C56.2155 35.1043 56.4938 33.7569 56.7007 32.3711C55.6504 33.2003 54.4612 34.5115 53.9097 35.7285C53.5628 36.4941 53.2194 37.2584 53.2915 39.8203Z" fill="#473729"/>
<path d="M45.8325 40.2061C45.9775 38.9788 45.6262 37.8231 45.0728 36.4209C44.3812 34.6688 43.4977 33.5825 42.354 32.4365C42.5237 34.4458 42.8602 35.4623 43.7329 37.1846C44.3823 38.466 45.0178 39.3527 45.8325 40.2061Z" fill="#473729"/>
<path d="M18.9351 40.3418C13.8689 38.0347 8.64089 35.7377 2.86084 33.292C2.5287 34.229 2.22368 35.1789 1.94678 36.1406C6.92205 38.0449 13.0925 40.7442 18.4399 43.0547L18.9351 40.3418Z" fill="#473729"/>
<path d="M44.0415 43.0908C43.8577 41.2817 42.603 40.0755 41.4761 38.793C41.0647 38.3198 39.7498 37.2744 37.5356 36.6846C37.8482 37.9097 38.6993 39.2503 39.564 40.1719C40.7533 41.4716 42.4681 42.367 44.0415 43.0908Z" fill="#473729"/>
<path d="M56.1187 42.377C57.3749 42.4283 58.3517 41.4505 59.4292 40.3984C60.463 39.389 60.9615 38.6569 61.4331 37.2881C59.9303 37.7819 59.3745 38.1698 58.3413 39.1191C57.2073 40.1611 56.3612 41.5017 56.1187 42.377Z" fill="#473729"/>
<path d="M3.31689 67.9443C8.60223 63.7549 12.8595 59.1846 17.6382 54.1494C17.6017 53.0085 17.5259 49.8752 17.5259 48.3574C12.2346 45.5257 6.83374 41.5494 1.0376 39.8203C0.783273 41.0499 0.573839 42.2959 0.411621 43.5566C5.70768 45.7813 16.0024 51.2021 16.0024 51.2021C16.0024 51.2021 7.95691 59.4457 2.01318 64.0918C2.39643 65.399 2.83211 66.6839 3.31689 67.9443Z" fill="#473729"/>
<path d="M99.9829 48.7061C99.9075 45.7387 99.5742 42.8357 99.0034 40.0186C97.8655 40.6062 91.3804 45.7236 91.3804 45.7236C91.3804 45.7236 96.8628 47.4864 99.9829 48.7061Z" fill="#473729"/>
<path d="M57.9517 45.8164C59.2342 45.6413 60.2226 45.3075 61.4722 44.5508C62.8662 43.7066 63.6297 42.7741 64.4761 41.6533C62.9149 41.7576 61.8187 42.1527 60.4419 43.1055C59.2599 43.9234 58.819 44.0944 57.9517 45.8164Z" fill="#473729"/>
<path d="M42.4165 45.7393C40.9298 44.3364 39.9772 43.7075 38.1128 43.0137C36.6883 42.4835 35.8595 42.25 34.2964 42.25C35.1409 43.3054 35.7527 43.7317 36.8892 44.3877C38.8137 45.4986 41.1563 45.805 42.4165 45.7393Z" fill="#473729"/>
<path d="M50.105 55.3369C51.067 54.1612 53.1719 51.1725 54.0796 49.4854C52.4297 46.6257 51.3504 45.1335 50.1118 43.4893C48.8777 45.5034 47.5723 47.4165 46.1333 49.2871L46.1304 49.291C47.4933 51.2877 48.6681 53.374 50.105 55.3369Z" fill="#473729"/>
<path d="M64.0288 50.3311C67.0236 50.3311 68.8939 50.1464 71.2759 49.3271C68.5944 47.7192 67.1106 47.4814 64.3071 47.582C61.9796 47.6656 60.156 48.1728 58.5562 49.1641C60.9779 50.2587 61.8437 50.3311 64.0288 50.3311Z" fill="#473729"/>
<path d="M29.061 50.2812C32.1721 51.0627 32.9465 51.142 35.4507 50.9736C37.895 50.8092 39.5108 50.0557 41.5474 49.4951C38.6877 48.4618 38.2139 48.3409 36.0034 48.3516C33.1895 48.3652 31.0393 49.3284 29.061 50.2812Z" fill="#473729"/>
<path d="M0.668457 58.1963C4.2958 55.7883 9.1312 51.8503 9.15967 51.8271C9.09841 51.8053 3.13415 49.6776 0.0141602 48.8115C0.00494166 49.2066 0.000492078 49.6027 0.000488281 50C0.000488281 52.7912 0.228738 55.5296 0.668457 58.1963Z" fill="#473729"/>
<path d="M62.729 55.0889C64.416 55.7005 65.729 55.7811 67.2837 55.6992C66.1724 54.5783 65.4034 54.3346 64.0288 53.8203C62.3026 53.1744 61.1409 52.8988 59.3618 53.1172C60.3443 54.2346 61.2965 54.5694 62.729 55.0889Z" fill="#473729"/>
<path d="M33.6626 56.4092C35.4809 56.4729 37.0681 56.2116 38.937 55.2314C39.985 54.6819 40.6563 54.438 41.3862 53.4473C40.0392 53.1959 38.7307 53.5478 37.1772 54.1514C35.6567 54.7422 34.5276 55.2236 33.6626 56.4092Z" fill="#473729"/>
<path d="M97.2134 66.5C97.6502 65.2498 98.0383 63.9769 98.3765 62.6836C92.9874 59.7454 86.9769 56.8011 81.5317 53.9883C81.5317 55.0944 81.4769 56.3448 81.5317 57.5322C86.3969 60.7396 92.6536 63.9744 97.2134 66.5Z" fill="#473729"/>
<path d="M37.9722 61.6113C38.8049 61.454 40.1079 60.5338 41.1812 59.4795C42.5672 58.1178 43.7708 56.4696 43.771 55.2314C42.5157 55.5791 41.6079 56.3721 40.5229 57.4639C39.1828 58.8125 38.1565 60.2977 37.9722 61.6113Z" fill="#473729"/>
<path d="M62.6509 62.1025C62.4302 60.9359 61.5738 60.0291 60.5747 58.9414C59.3316 57.588 58.3754 56.8987 56.7612 56.1836C57.0707 57.5392 57.6674 58.4408 58.689 59.5674C59.9228 60.9281 61.4162 61.6442 62.6509 62.1025Z" fill="#473729"/>
<path d="M56.6782 66.1543C56.5709 63.4616 56.6352 62.7226 55.646 60.8652C54.9504 59.5592 54.5003 58.9925 53.2153 57.958C53.0628 59.3831 53.4332 60.5363 54.0229 62.0576C54.712 63.8352 55.6847 65.0426 56.6782 66.1543Z" fill="#473729"/>
<path d="M42.6948 65.7314C43.9169 65.2835 45.0155 63.5554 45.6421 61.7129C46.116 60.3193 46.36 59.2191 46.0142 57.9619C44.86 58.8441 44.3268 59.6283 43.6646 60.96C42.8179 62.6625 42.5017 64.0933 42.6948 65.7314Z" fill="#473729"/>
<path d="M6.97217 75.4785C11.2604 71.4896 16.1643 66.6418 19.8599 62.1367C19.5138 60.9514 19.0366 59.8087 18.7476 58.6055C15.1628 63.9636 9.87397 68.0459 5.38721 72.5977C5.88433 73.5772 6.41374 74.5375 6.97217 75.4785Z" fill="#473729"/>
<path d="M49.7925 70.4512C50.6641 68.2894 51.139 66.8603 51.1108 64.4678C51.0837 62.168 50.4145 60.3911 49.7603 58.7354C49.0895 60.4341 48.387 62.0185 48.3296 64.2383C48.2652 66.73 49.0806 68.608 49.7925 70.4512Z" fill="#473729"/>
<path d="M80.6265 72.5752C84.4085 72.2883 87.7193 72.0626 92.7466 71.2295C89.0004 68.0939 84.2491 64.8878 79.8872 61.8633C79.7974 63.0706 80.5868 71.5965 80.6265 72.5752Z" fill="#473729"/>
<path d="M9.65674 79.5166C12.7637 78.5424 17.0536 78.3633 19.8872 76.8203C20.0169 76.6905 21.2047 67.2549 21.2671 66.1553C19.8205 67.795 10.5083 78.4893 9.65674 79.5166Z" fill="#473729"/>
<path d="M69.0552 75.0049C70.6563 75.1409 74.6878 74.8599 76.7212 74.5186C76.7212 72.235 76.5926 69.8818 76.4702 67.752C75.7843 68.3391 69.0523 74.9379 69.0552 75.0049Z" fill="#473729"/>
<path d="M24.062 76.416C24.461 76.4534 28.1091 76.4167 30.0776 76.3057C27.9558 73.878 25.6346 71.7783 23.6597 69.166C23.6597 69.166 24.0234 76.1095 24.062 76.416Z" fill="#473729"/>
<path d="M80.2036 89.8477C85.1849 86.0661 89.4359 81.3733 92.7065 76.0156C91.1004 76.2725 79.7476 77.4619 79.7476 77.4619C79.7476 77.4619 80.2879 84.9752 80.2036 89.8477Z" fill="#473729"/>
<path d="M76.6655 90.5107C76.4853 85.9769 75.1652 78.8656 75.1606 78.8408C75.1315 78.8396 67.8473 78.5249 64.2183 78.8486C66.1314 80.7251 73.282 87.2192 76.6655 90.5107Z" fill="#473729"/>
<path d="M24.7036 93.126C27.8577 88.4547 31.0318 83.5165 34.0278 78.8457C31.4631 78.8457 26.6716 79.6725 23.4868 80.2676C23.7028 84.3913 23.9582 89.0689 24.7036 93.126Z" fill="#473729"/>
<path d="M31.4106 96.4287C34.7457 91.7066 37.0437 85.9597 39.4028 81.0508C38.8599 80.6253 37.2642 79.7578 37.2642 79.7578C37.2149 79.8445 31.1297 90.5556 27.9575 94.8887C29.0855 95.4436 30.2367 95.9583 31.4106 96.4287Z" fill="#473729"/>
<path d="M70.0698 95.8057C71.0471 95.3769 72.0083 94.919 72.9517 94.4307C69.3284 89.5427 59.7866 80.2666 59.7866 80.2666L57.2349 80.9971C57.2848 81.0519 68.3991 93.2775 70.0698 95.8057Z" fill="#473729"/>
<path d="M20.2622 90.1982C20.2622 89.0032 20.2602 83.9756 20.02 81.6279C19.8413 81.6316 13.3022 82.1855 12.0386 82.541C14.4828 85.3897 17.2418 87.9601 20.2622 90.1982Z" fill="#473729"/>
<path d="M60.5708 98.8809C61.9408 98.586 63.2899 98.2347 64.6157 97.8301C59.8153 92.6441 54.3095 86.1397 49.5356 81.8838C48.7641 81.8755 45.5713 81.8031 44.3267 81.6279C41.1526 86.3067 37.372 92.5097 35.5933 97.8936C36.8243 98.2634 38.0752 98.5878 39.3442 98.8633C40.6204 93.7606 47.4604 83.2725 47.4604 83.2725C51.8243 87.7819 56.2623 93.6227 60.5708 98.8809Z" fill="#473729"/>
<path d="M50.0005 100.001C52.174 100.001 54.3152 99.8618 56.4155 99.5928C53.6989 96.3493 50.0961 91.8472 48.1235 89.8486C46.7671 92.097 44.162 96.8527 43.3003 99.5547C45.4919 99.8482 47.7286 100.001 50.0005 100.001Z" fill="#473729"/>
</svg>
