<svg width="100" height="100" viewBox="0 0 100 100" fill="none" xmlns="http://www.w3.org/2000/svg">
<path d="M34.2987 65.8828C33.9918 65.8828 33.6273 66.3177 33.6273 66.3177L34.9317 66.3176C34.9317 66.3176 34.6344 65.8828 34.2987 65.8828Z" fill="#DE0038"/>
<path fill-rule="evenodd" clip-rule="evenodd" d="M25.5035 68.6665C10.9439 82.9115 0.335938 84.2452 0.335938 84.2452L77.5938 83.8007L99.6634 15.7549H73.1721L25.5035 68.6665ZM69.5372 39.8088C72.779 39.1708 82.8882 39.6541 82.5718 39.6734C74.3616 40.2894 72.1822 43.5626 72.0914 43.699L72.0885 43.7033L57.7303 63.8147L58.4976 63.9403C58.4976 63.9403 69.7385 48.4099 72.2707 44.7085C74.7644 41.0651 80.6918 40.4369 80.6918 40.4369C79.5026 41.5 78.2556 42.6887 77.3444 43.829L62.6698 64.7037C62.6698 64.7037 68.8562 65.8828 73.5847 66.3273C78.3228 66.7815 78.5817 65.2546 78.5817 65.2546L79.7711 65.6991C78.9558 67.168 76.6443 67.0909 76.6443 67.0909H28.9756C28.9587 67.0314 29.1418 67.0175 29.4506 66.9941C30.1962 66.9377 31.6744 66.8258 32.8409 65.8828C34.0797 64.8925 34.6145 65.1777 35.4005 65.5968C35.5274 65.6645 35.6607 65.7356 35.8047 65.8054C36.6486 66.2017 37.5406 66.3756 40.888 66.0761C46.3175 65.5887 47.0256 64.575 50.8137 59.1527C51.3818 58.3394 52.0193 57.4269 52.7524 56.4021C53.6167 55.1894 54.6973 53.5388 55.922 51.6679C57.2248 49.6777 58.6912 47.4376 60.2336 45.211C63.1048 41.0383 66.038 40.4777 69.1431 39.8844L69.5372 39.8088ZM32.7545 64.9743C32.7545 64.9743 33.4451 63.8822 34.2892 63.8822C35.0289 63.8822 35.6657 64.7287 35.818 64.9312C35.8378 64.9575 35.8496 64.9732 35.8521 64.9743H32.7545Z" fill="#DE0038"/>
<path d="M33.6274 66.3182C33.6274 66.3182 33.9918 65.8833 34.2988 65.8833C34.6345 65.8833 34.9318 66.3181 34.9318 66.3181L33.6274 66.3182ZM82.5718 39.674C82.8882 39.6546 72.7791 39.1714 69.5372 39.8093C66.2857 40.4374 63.2261 40.8627 60.2337 45.2115C57.2412 49.5315 54.5364 53.8996 52.7525 56.4027C47.1319 64.2596 47.1319 65.5161 40.888 66.0766C37.5406 66.3762 36.6487 66.2022 35.8047 65.8059C34.7689 65.3035 34.2796 64.7332 32.841 65.8833C31.1913 67.2169 28.9181 66.8884 28.9757 67.0914H76.6444C76.6444 67.0914 78.9559 67.1686 79.7712 65.6997L78.5818 65.2551C78.5818 65.2551 78.3229 66.782 73.5848 66.3279C68.8563 65.8833 62.6699 64.7042 62.6699 64.7042L77.3445 43.8295C78.2557 42.6892 79.5026 41.5005 80.6919 40.4374C80.6919 40.4374 74.7644 41.0656 72.2707 44.709C69.7386 48.4104 58.4976 63.9408 58.4976 63.9408L57.7303 63.8152L72.0885 43.7039C72.0981 43.6943 74.1986 40.3022 82.5718 39.674Z" fill="white"/>
<path d="M34.2893 63.8828C33.4452 63.8828 32.7546 64.9748 32.7546 64.9748H35.8526C35.8432 64.9846 35.1332 63.8828 34.2893 63.8828Z" fill="white"/>
</svg>
