<svg width="100" height="100" viewBox="0 0 100 100" fill="none" xmlns="http://www.w3.org/2000/svg">
<path d="M0 25C0 11.1929 11.1929 0 25 0H75C88.8072 0 100 11.1929 100 25V75C100 88.8072 88.8072 100 75 100H25C11.1929 100 0 88.8072 0 75V25Z" fill="#FCC62E"/>
<path d="M43.5996 3.72388C68.8795 3.12503 94.1596 17.653 94.6758 41.385C95.1917 45.5124 95.1913 49.1242 93.6436 52.7356C92.8029 52.7356 92.0967 52.7157 92.0967 53.7678C91.5806 56.8631 89.0006 58.9269 85.9053 58.927C84.8734 58.927 82.81 58.9262 80.2305 56.8626C78.5613 55.1935 77.0248 53.7678 74.5547 53.7678C71.7243 53.768 70.0156 56.139 68.8799 58.4104C67.3322 57.8945 65.784 57.8948 64.2363 57.8948C55.4659 57.8949 48.7588 65.1177 48.7588 73.3723C48.7588 75.436 49.2748 78.0157 50.3066 80.0794C44.6316 80.0795 39.9883 84.7227 39.9883 90.3977C39.9884 95.0152 43.4907 97.7233 46.9092 99.9993H25C11.1929 99.9993 0 88.8065 0 74.9993V24.9993C4.33157e-05 20.5363 1.17047 16.3469 3.21973 12.72C16.0705 7.00176 29.5232 4.05736 43.5996 3.72388Z" fill="#798185"/>
<path d="M85.39 62.0224C91.5283 62.0224 94.6766 56.7257 94.6766 51.1881C94.1607 47.0608 92.6128 40.3538 88.4855 33.6469C82.4705 23.4214 73.1896 17.1981 62.1738 13.5261C54.954 11.1196 46.3216 12.664 39.9893 16.6216C35.862 19.2012 33.2824 23.3286 32.2505 27.9718C30.1869 37.2583 33.7983 46.5449 42.5689 51.704C50.3364 56.8824 57.8641 54.2836 66.3011 54.2836C74.2806 54.2836 77.6951 62.0224 85.39 62.0224Z" fill="#BEC0C4"/>
<path d="M35.8617 27.9721C38.9228 14.9621 54.9352 13.0053 65.7849 16.6219C85.9057 23.8447 91.0649 44.4814 91.5808 50.6724C91.5808 54.4672 89.5653 57.8953 85.3898 57.8953C82.3554 57.8953 80.2068 56.3237 78.1669 54.2839C76.6191 52.7361 74.5555 51.1884 69.9123 50.1565C61.0536 48.6801 52.2248 53.0857 44.1164 47.5769C37.245 42.9086 33.798 35.1949 35.8617 27.9721Z" fill="#E1E2E2"/>
<path d="M84.8735 50.1564C84.8735 51.1883 85.9054 52.2201 86.9373 52.2201C87.9691 52.2201 89.0009 51.1883 89.0009 50.1564C89.0009 49.1246 87.9691 48.0928 86.9373 48.0928C85.9054 48.0928 84.8735 49.1246 84.8735 50.1564Z" fill="black"/>
<path d="M44.1164 29.0038C42.0527 36.7426 47.7277 44.4813 56.4983 46.545C65.2689 48.6087 73.5236 44.4813 75.5873 36.7426C77.6509 29.0038 71.9759 21.2651 63.2053 19.2014C54.4347 17.1377 46.18 21.2651 44.1164 29.0038Z" fill="white"/>
<path d="M55.4663 27.9723C55.4663 31.5837 58.0459 34.1633 61.6573 34.1633C64.7528 34.1633 67.8483 31.5837 67.8483 27.9723C67.8483 24.3608 65.2687 21.7812 61.6573 21.7812C58.0459 21.7812 55.4663 24.8768 55.4663 27.9723Z" fill="#FCC62E"/>
<path d="M58.0464 27.9715C58.0464 30.0352 59.5942 31.067 61.1419 31.067C63.2056 31.067 64.2374 29.5192 64.2374 27.9715C64.2374 26.4237 62.6897 24.876 61.1419 24.876C59.5942 24.876 58.0464 26.4237 58.0464 27.9715Z" fill="black"/>
<path d="M50.3071 65.6342C53.9186 59.4431 60.6255 56.3476 67.3324 57.8954C65.2688 68.2137 72.4916 71.3093 70.4279 82.1435C69.3961 85.7549 67.8483 87.8186 65.7847 89.8823C65.6959 89.971 65.1125 89.985 64.7528 89.8823C62.4162 89.2147 57.682 88.0638 56.4981 87.3027C49.2753 82.6594 46.1798 73.3729 50.3071 65.6342Z" fill="black"/>
<path d="M74.5562 53.2519C71.4606 53.2519 68.8811 55.3155 68.3652 58.411C67.2034 65.3817 73.0084 72.967 73.0084 80.5955C72.1913 87.1323 67.0046 92.2237 61.6582 96.1153C72.8354 96.9318 83.9443 91.2734 90.5496 81.1114C95.7088 72.3408 96.2247 61.5065 93.1292 52.7359C92.8997 52.0856 92.7962 51.7041 92.0974 51.7041C91.2125 51.7041 91.0655 52.5751 91.0655 53.2519C91.0655 55.6392 88.486 58.411 85.3905 58.411C84.3586 58.411 82.2949 58.411 79.7153 56.3474C78.2675 54.8995 76.7719 53.2519 74.5562 53.2519Z" fill="black"/>
</svg>
