<svg width="101" height="100" viewBox="0 0 101 100" fill="none" xmlns="http://www.w3.org/2000/svg">
<path d="M75.7836 60.7284C70.4631 72.3563 57.7773 83.8606 42.3176 88.6654H41.3101C50.4511 82.819 58.5191 74.3656 60.834 63.411C63.1176 52.6132 61.4591 39.2744 54.4083 30.4211C59.169 25.3027 64.6677 17.6528 70.5292 14.0508C74.5897 19.9248 77.2093 26.7888 78.2975 33.8593C79.7055 42.9928 79.6778 52.2145 75.7836 60.7284Z" fill="#0099D9"/>
<path d="M25.2469 82.9799C23.8312 85.0857 22.0504 87 20.1511 88.665H0C9.23633 78.8559 18.5288 68.9702 27.7078 59.126C29.7807 67.1154 30.0344 75.8661 25.2469 82.9799Z" fill="#0099D9"/>
<path d="M46.9722 82.5391C44.2971 84.8615 41.2014 86.6802 38.287 88.6651H36.02C43.4734 83.985 50.1913 76.7482 52.3198 67.9925C53.4876 63.1839 51.2593 48.0479 46.5994 38.7306C48.8638 36.2973 51.1384 33.859 53.4004 31.4258C55.9973 35.3099 57.821 39.1638 58.8185 43.7633C62.2089 59.4056 59.083 72.0102 46.9722 82.5391Z" fill="#0099D9"/>
<path d="M52.3199 67.9924C50.1914 76.7481 43.4735 83.9849 36.0201 88.665H34.5088C40.801 84.4131 46.5869 78.8967 48.5441 71.267C50.8828 62.1491 49.405 50.3612 41.5617 44.2695C43.2468 42.4609 44.9017 40.5541 46.5995 38.7305C54.471 52.4559 53.4877 63.1838 52.3199 67.9924Z" fill="#24BFF0"/>
<path d="M30.7307 88.6653H21.9146C33.0606 77.9726 30.7307 68.2623 29.2219 60.1338C37.8944 67.9373 40.4737 80.4134 30.7307 88.6653Z" fill="#0099D9"/>
<path d="M77.8338 71.9707C75.7985 77.4997 73.8136 83.1319 71.7884 88.6659H48.1108C58.9018 84.9203 69.398 79.7843 77.8338 71.9707Z" fill="#1C67A9"/>
<path d="M87.4055 46.0334C84.8212 53.5599 81.8413 60.9755 79.0932 68.444C70.0076 77.8848 54.8615 85.1443 42.3174 88.6657C55.8544 84.0561 69.7525 73.9091 75.7834 60.7286C79.6776 52.2148 79.7053 42.9931 78.2972 33.8596C77.2091 26.7891 74.5894 19.9251 70.529 14.0511C70.8438 13.8596 71.2091 13.7236 71.5365 13.5498C81.057 20.4753 87.4055 33.8596 87.4055 46.0334Z" fill="#24BFF0"/>
<path d="M48.1081 67.8088C47.4494 75.8204 40.365 83.5518 33.0288 88.0827C34.4066 86.7981 35.2038 85.0934 36.2718 83.5518C37.6597 81.5518 38.6723 80.3302 39.2215 77.8113C41.1157 69.0884 35.7756 62.3176 29.9746 56.6073C33.5791 52.7458 37.2038 48.8894 40.8058 45.0254C47.4003 50.1589 48.753 59.9272 48.1081 67.8088Z" fill="#D96100"/>
<path d="M100 11.7864L88.665 42.2549C88.738 41.27 88.5113 39.9047 88.3778 38.8921C87.0126 28.5546 81.4307 18.935 73.0479 12.7939C75.4559 11.7964 77.2267 11.4236 79.8489 11.2826C85.8413 10.9576 99.3703 11.0836 99.3703 11.0836C99.3703 11.0836 100.141 11.0257 100 11.7864Z" fill="#1C67A9"/>
<path d="M39.2216 77.8115C38.6725 80.3303 37.6599 81.552 36.272 83.552C41.2241 73.9525 35.6801 64.5369 28.7153 57.8669C29.1435 57.4109 29.5969 57.013 29.9748 56.6074C35.7758 62.3177 41.1158 69.0885 39.2216 77.8115Z" fill="#DE8A00"/>
</svg>
