<svg width="100" height="100" viewBox="0 0 100 100" fill="none" xmlns="http://www.w3.org/2000/svg">
<path d="M51.2728 70.9659C62.5857 70.9659 71.7545 61.7946 71.7545 50.4842C71.7545 39.1713 62.5857 30 51.2728 30C41.6341 30 33.5527 36.6562 31.3704 45.6217C31.2637 46.0637 30.8673 46.3737 30.4126 46.3737H21.4268C20.8805 46.3737 20.441 46.8157 20.441 47.3594V53.5633C20.441 54.107 20.8805 54.5491 21.4268 54.5491H27.6587C28.2023 54.5491 28.6444 54.9886 28.6444 55.5348V59.2668C28.6444 59.5615 28.5123 59.841 28.2836 60.029C26.1572 61.7667 23.4439 62.8134 20.4842 62.8134C13.6756 62.8134 8.15507 57.2928 8.15507 50.4842C8.15507 43.6756 13.6756 38.1551 20.4842 38.1551C22.415 38.1551 24.2417 38.5997 25.8701 39.3923C26.33 39.6159 26.8838 39.4507 27.148 39.0087L30.3135 33.6812C30.4532 33.4475 30.4888 33.168 30.4151 32.9064C30.3389 32.6447 30.1611 32.4262 29.9197 32.3017C27.0972 30.8333 23.8885 30 20.4842 30C9.17128 30 0 39.1713 0 50.4842C0 61.7946 9.17128 70.9659 20.4842 70.9659C26.2461 70.9659 31.4491 68.588 35.171 64.7594C35.3564 64.5689 35.6105 64.4596 35.8772 64.4596C36.144 64.4596 36.398 64.5689 36.5835 64.7594C40.3079 68.588 45.5109 70.9659 51.2728 70.9659V70.9659ZM51.2728 62.8134C44.4642 62.8134 38.9436 57.2928 38.9436 50.4842C38.9436 43.6756 44.4642 38.1551 51.2728 38.1551C58.0814 38.1551 63.5994 43.6756 63.5994 50.4842C63.5994 57.2928 58.0814 62.8134 51.2728 62.8134" fill="#FF5A00"/>
<path d="M85.0971 46.5413C83.2578 37.116 74.9579 30 64.994 30C62.5856 30 60.2788 30.4166 58.132 31.1788C62.08 32.5837 65.4716 35.1623 67.88 38.498C73.2964 39.7988 77.3231 44.669 77.3231 50.4842C77.3231 57.2928 71.8026 62.8134 64.994 62.8134C58.1854 62.8134 52.6648 57.2928 52.6648 50.4842C52.6648 46.2161 54.8344 42.4536 58.1295 40.2408C56.1708 38.9248 53.8106 38.1551 51.2726 38.1551C50.2767 38.1551 49.3114 38.2745 48.3841 38.4955C45.9477 41.8668 44.5098 46.0078 44.5098 50.4842C44.5098 61.7946 53.681 70.9659 64.994 70.9659C74.9579 70.9659 83.2578 63.8524 85.0971 54.4246V46.5413" fill="#B0B0B3"/>
<path d="M86.4488 62.2981C85.9051 62.2981 85.4656 61.8586 85.4656 61.3123V31.6263C85.4656 31.0827 85.0236 30.6406 84.4799 30.6406H78.2963C77.7501 30.6406 77.3105 31.0827 77.3105 31.6263V69.4674C77.3105 70.0111 77.7501 70.4531 78.2963 70.4531H99.0168C99.5604 70.4531 99.9999 70.0111 99.9999 69.4674V63.2838C99.9999 62.7401 99.5604 62.2981 99.0168 62.2981H86.4488Z" fill="#FF5A00"/>
</svg>
