<svg width="100" height="100" viewBox="0 0 100 100" fill="none" xmlns="http://www.w3.org/2000/svg">
<path d="M0 25C0 11.1929 11.1929 0 25 0H75C88.8072 0 100 11.1929 100 25V75C100 88.8072 88.8072 100 75 100H25C11.1929 100 0 88.8072 0 75V25Z" fill="#02569B"/>
<path d="M99.92 23.001C99.9722 23.6605 100 24.3271 100 25V75C100 88.8071 88.8071 99.9998 75.0001 100H25.0001C23.9936 100 23.0009 99.9379 22.0255 99.8223C22.0183 99.7833 22.0126 99.7437 22.0099 99.7031C21.9646 99.1645 22.3587 98.6683 22.8937 98.5908L58.5792 93.1484L26.2208 76.9111C25.7752 76.6863 25.5437 76.1285 25.6993 75.6543C25.8511 75.1791 26.3663 74.8644 26.8585 74.9453L62.8634 80.793L36.838 55.3877C36.4859 55.0329 36.4364 54.433 36.7257 54.0254C37.0192 53.6166 37.6133 53.4767 38.0587 53.7109L70.4601 70.4619L53.9122 38.1758C53.69 37.7294 53.8344 37.1464 54.2394 36.8555C54.6445 36.5645 55.2438 36.6135 55.5958 36.9668L81.0157 62.9775L75.1495 27.1895C75.0714 26.6966 75.3853 26.183 75.8595 26.0273C76.3346 25.8706 76.894 26.1045 77.1163 26.5527L93.3751 58.7441L98.8497 23.8867C98.9275 23.393 99.3861 23.0008 99.8859 23C99.8973 23.0001 99.9087 23.0005 99.92 23.001Z" fill="#FF9800"/>
<path d="M99.665 67.0635C99.7884 67.0635 99.9056 67.1106 100 67.1865V75C100 88.8072 88.8072 100 75 100H66.3047L81.3643 97.7002L67.5166 90.7549C67.2852 90.6343 67.1642 90.345 67.2412 90.0957C67.3226 89.8483 67.5929 89.6863 67.8496 89.7305L83.2646 92.2285L72.123 81.3506C71.939 81.1662 71.9119 80.8549 72.0615 80.6416C72.2172 80.4273 72.5283 80.3531 72.7637 80.4746L86.6328 87.6514L79.5498 73.8193C79.4298 73.589 79.5059 73.2821 79.7197 73.1348C79.9298 72.979 80.2458 73.0035 80.4297 73.1895L91.3037 84.3311L88.791 69.0137C88.7536 68.7557 88.9172 68.4889 89.1641 68.4053C89.4144 68.3281 89.7043 68.4488 89.8262 68.6807L96.7861 82.4668L99.125 67.5439C99.1557 67.2793 99.3986 67.0635 99.665 67.0635Z" fill="#FBCE20"/>
</svg>
