<svg width="100" height="100" viewBox="0 0 100 100" fill="none" xmlns="http://www.w3.org/2000/svg">
<path d="M39.8779 54.9709C32.5519 51.1442 26.472 50.8547 23.6272 50.8547H13.7333L13.2046 49.9232H24.8356C25.6412 49.9232 35.2834 49.7847 40.9605 51.3078C48.0599 53.2086 52.9691 56.9345 53.9258 57.5639C54.8825 58.1807 67.8352 67.4579 67.8352 67.4579C67.8352 67.4579 65.6575 69.6859 63.5302 69.6859C61.5162 69.6859 59.3385 68.1376 59.3385 68.1376C59.3385 68.1376 52.4027 63.1403 51.3453 62.3976C50.2879 61.6549 44.8123 57.5765 39.8653 54.9835L39.8779 54.9709Z" fill="#358E9D"/>
<path d="M39.3491 62.2835C44.2457 65.5312 47.1283 67.9102 48.0724 68.59C49.0039 69.2697 53.3592 72.3789 53.3592 72.3789C53.3592 72.3789 55.3606 73.9397 57.8152 73.9397C59.6782 73.9397 61.9692 71.7747 61.9692 71.7747C61.9692 71.7747 51.5717 64.436 50.6277 63.7815C49.6836 63.1143 46.3478 60.4835 40.1295 58.8471C34.9308 57.475 27.5418 57.5128 27.0509 57.5128H17.585L18.1388 58.4695C18.1388 58.4695 25.276 58.4821 25.8173 58.4821C26.9628 58.4821 34.1881 58.8345 39.3491 62.2584V62.2835Z" fill="#358E9D"/>
<path d="M40.9478 47.3039C47.2542 50.69 53.4977 55.3726 54.6558 56.216C55.8265 57.0594 65.305 63.8442 65.305 63.8442C65.305 63.8442 67.5204 65.3421 69.5471 65.3421C71.5233 65.3421 73.7639 63.1518 73.7639 63.1518C73.7639 63.1518 58.6335 52.2635 57.2741 51.3068C55.9146 50.3502 50.4641 45.8815 41.7157 43.8046C34.8679 42.0675 23.4383 42.2689 22.6453 42.2689H8.79883L9.35269 43.2255H21.4369C23.9418 43.2255 33.5966 43.3514 40.9352 47.3039H40.9478Z" fill="#358E9D"/>
<path d="M95.7796 47.1537C93.9166 46.8264 91.462 46.6754 91.462 46.6754L88.1137 47.632L86.2003 46.0334C86.2003 46.0334 90.1906 46.3481 91.2983 46.5117C92.255 46.5117 91.9403 46.0334 91.4494 45.0642C90.9711 44.1075 89.8633 44.1075 89.8633 44.1075H79.8058C79.8058 44.1075 78.0057 44.1201 75.9414 43.6417C73.8644 43.1634 73.0462 41.6025 73.0462 41.6025C72.2406 43.4529 75.4378 45.6054 75.4378 45.6054L85.3947 52.7426C86.6787 53.5483 87.7864 52.9063 87.7864 52.9063C87.7864 52.9063 90.3417 51.6223 91.7767 51.3077C93.0606 50.993 97.0383 50.8293 97.5167 50.993C98.637 51.1566 99.9083 52.2769 99.9083 52.2769C100.55 47.7957 97.6677 47.5062 95.767 47.1537H95.7796Z" fill="#202D5C"/>
<path d="M42.9115 32.363C49.8473 35.4093 59.7664 42.8234 61.214 43.8808C62.6741 44.9381 76.9612 55.1719 76.9612 55.1719C76.9612 55.1719 79.2018 56.7706 81.2788 56.7706C83.3557 56.7706 85.4075 54.681 85.4075 54.681C85.4075 54.681 65.2169 40.1674 63.7567 39.1226C62.2965 38.0779 55.5999 32.4386 43.1506 29.1532C34.6288 26.9 19.9767 27.0007 18.2773 27.0007H0L0.566446 27.9699H17.3207C21.5501 27.9699 33.7476 28.3224 42.924 32.363H42.9115Z" fill="#202D5C"/>
<path d="M41.8542 39.815C34.3645 36.0639 25.1251 35.5982 19.7502 35.5982H4.95962L4.40576 34.6415H20.4802C22.2174 34.6415 34.3897 34.5156 42.4458 36.3408C51.7355 38.4556 59.7287 44.548 60.5595 45.127C61.3525 45.6809 79.6928 58.8351 79.6928 58.8351C79.6928 58.8351 77.6032 60.9875 75.35 60.9875C73.2856 60.9875 71.045 59.3889 71.045 59.3889C71.045 59.3889 59.1119 50.8293 57.9538 50.0111C56.8083 49.1929 48.8277 43.2892 41.8542 39.8025V39.815Z" fill="#202D5C"/>
</svg>
