<svg width="100" height="100" viewBox="0 0 100 100" fill="none" xmlns="http://www.w3.org/2000/svg">
<path d="M100 50C100 77.6142 77.6142 100 50 100C22.3858 100 0 77.6142 0 50C0 22.3858 22.3858 0 50 0C77.6142 0 100 22.3858 100 50Z" fill="#FCC414"/>
<path fill-rule="evenodd" clip-rule="evenodd" d="M82.9547 19.1713C81.6117 19.6994 81.2848 21.5804 82.3617 22.5862C84.1293 24.2381 86.8236 22.2796 85.758 20.1176C85.2826 19.1525 84.056 18.7383 82.9547 19.1713ZM67.6024 22.7221C67.0701 22.8857 66.3902 23.4817 66.1009 24.0382C65.9156 24.3948 64.7003 27.9101 64.0068 30.0966C63.8471 30.6007 63.685 31.0129 63.6466 31.0125C63.6086 31.0125 63.1272 30.9537 62.5769 30.8821C53.709 29.7288 46.1212 32.8922 42.8218 39.1185C42.0727 40.5321 41.9202 41.2545 42.2303 41.9197C42.9078 43.3738 45.2269 42.9228 45.8419 41.2173C47.4094 36.8689 53.3136 34.0628 59.7421 34.6109C60.5884 34.6829 62.1984 34.87 62.322 34.9103C62.3764 34.9283 62.3308 35.1554 62.1711 35.6563C61.6909 37.1655 60.7197 40.4913 59.5968 44.4724C59.031 46.4769 57.734 51.3746 57.5759 52.1014C57.2059 53.8057 56.7878 55.4973 56.4466 57.2083C55.5618 57.8532 54.675 58.506 53.7394 59.0756C53.2048 59.4015 51.0038 60.315 51.0058 60.2102C51.0239 59.0519 51.7869 57.6187 52.1139 56.5322C53.5217 51.8557 54.8955 47.1363 56.6055 42.5398C57.758 39.4407 57.8568 38.9166 57.4338 38.1406C56.6931 36.7813 54.3509 37.3026 53.1127 39.1021C52.8754 39.4471 51.5416 42.9096 50.8389 45.0053C49.5528 48.8416 48.4491 51.6145 46.998 54.656C45.006 58.831 40.2515 64.7382 39.4595 64.0218C39.0157 63.6208 40.085 58.8846 41.8073 53.623C42.5048 51.4918 42.5145 51.0188 41.8726 50.3964C40.5248 49.0903 38.2494 50.4607 37.2165 53.2008C35.4109 57.9918 34.4513 62.9811 34.9679 64.8945C35.8279 68.082 38.6427 68.6653 41.8342 66.3177C43.4658 65.1177 44.9393 63.3934 44.9103 63.4953C44.7851 63.9302 44.1244 66.7395 44.0091 67.3264C43.4245 70.306 43.1823 71.8315 42.7233 75.422C42.0807 80.4497 43.1779 84.322 45.5766 85.4929L46.1028 85.75H47.2033C48.7884 85.75 49.6372 85.2555 50.5196 83.8174C50.5648 83.7443 50.8029 83.3557 51.0494 82.9543C54.1312 77.9298 54.7066 68.6852 52.2327 63.9354C51.9962 63.4809 51.8106 63.1051 51.8206 63.1003C53.0735 62.4994 54.3454 61.9997 55.5302 61.2553C55.8736 61.0398 56.1621 60.8635 56.1713 60.8635C56.1805 60.8635 56.2081 61.1006 56.2321 61.3908C56.6723 66.6647 61.025 68.7436 65.87 65.9939C68.3399 64.5919 73.2452 59.2883 74.2817 56.8988C74.3453 56.7521 74.5774 56.3323 74.7979 55.9661C76.0601 53.8677 77.5383 50.3552 77.4639 49.6328C77.2218 47.2916 74.0724 47.6454 73.2805 50.1025C72.9115 51.2475 71.1335 54.7816 70.3312 55.9661C67.6528 59.9188 64.4249 62.836 62.5745 62.9767C60.4984 63.135 59.8045 60.1699 60.8177 55.4664C61.2087 53.6498 62.715 47.8501 63.6206 44.6723C64.494 41.6099 65.2109 38.5011 66.3262 35.5128L68.253 35.5056C72.1251 35.4916 75.3866 34.515 77.8881 32.6204C78.0874 32.4697 78.2747 32.3457 78.3043 32.3457C78.4511 32.3449 79.5432 31.4254 80.2848 30.6786C83.4157 27.5239 84.3157 24.8546 82.4325 24.3077C81.374 24.0007 80.422 24.5076 79.7557 25.7333C78.0934 28.7917 74.5802 31.0716 70.7958 31.5474C70.1699 31.6261 67.7968 31.6189 67.716 31.5382C67.68 31.5022 68.8477 28.0145 69.6737 25.6929C69.9438 24.9329 70.013 24.6535 70.0118 24.3269C70.0074 23.074 68.8865 22.3272 67.6024 22.7221ZM32.3299 27.789C29.4803 28.1196 27.1917 30.0942 25.5033 33.6782C24.9067 34.9443 23.5693 38.6059 23.398 39.4415C23.368 39.5882 23.2211 40.1279 23.0715 40.6408C20.9553 47.8949 20.233 55.8598 21.0634 62.7812L21.1294 63.3333C19.2412 65.6853 17.2773 67.9095 15.0119 69.9158C13.2355 71.4897 13.0594 71.746 13.003 72.8362C12.9318 74.2146 14.1387 75.0282 15.5445 74.5493C16.1132 74.3558 18.5154 72.135 21.0582 69.4516L22.1587 68.2903C23.5055 71.4538 25.4953 74.1984 29.0741 74.8895C33.2007 75.6859 37.9252 73.2456 37.3374 70.6214C37.0192 69.201 35.3869 68.8959 33.9363 69.9857C32.9622 70.7173 31.3855 70.9288 30.1094 70.4991C27.878 69.7471 26.7259 68.2191 25.8927 64.9065L25.661 63.9854C26.5197 62.7555 27.3902 61.5295 28.1957 60.2638C30.5581 56.5492 32.2075 53.1793 33.8026 49.1854C36.577 42.2376 37.9416 34.2691 36.9244 30.9569C36.2685 28.8216 34.4193 27.5463 32.3299 27.789ZM32.2771 32.1482C33.7914 32.5684 32.983 39.4051 30.6196 46.1678C30.4523 46.646 30.2898 47.1425 30.2582 47.2708C29.3609 50.9077 26.9914 54.5624 25.0935 57.7604L25.0451 57.1631C24.871 55.0115 25.2912 49.8582 25.8979 46.7044C27.365 39.0761 29.6019 33.1585 31.3147 32.3729C31.6704 32.2098 31.8835 32.0392 32.2771 32.1482ZM41.0162 44.2369C38.9961 45.1768 39.6748 48.3367 41.8966 48.3367C43.4913 48.3367 44.4913 46.6644 43.7782 45.1908C43.3016 44.2057 42.029 43.7659 41.0162 44.2369ZM49.9021 67.1417C51.0506 70.585 50.436 76.5846 48.4923 80.8966C47.9769 82.04 47.9961 82.0236 47.7808 81.5107C47.1637 80.0415 47.1201 78.3812 47.6087 74.9558C47.8896 72.9877 49.1474 66.9814 49.4435 66.1938C49.4975 66.0503 49.6276 66.3185 49.9021 67.1417Z" fill="#040404"/>
</svg>
