<svg width="100" height="100" viewBox="0 0 100 100" fill="none" xmlns="http://www.w3.org/2000/svg">
<g clip-path="url(#clip0_2099_2274)">
<path d="M69.1399 89.7502C67.6499 88.9002 62.2899 85.9102 61.9599 85.7302L67.7299 86.9602C70.3099 87.5102 71.8599 88.3402 71.8099 89.0302C71.9699 88.6802 72.0499 88.3002 72.0499 87.9102C72.0499 81.6202 62.1499 81.9502 62.1499 81.9502L64.4399 81.4202C67.0999 80.8602 68.5699 81.0102 68.8099 81.5602C68.8199 81.1902 68.7799 80.8202 68.6899 80.4602C67.9499 78.0702 66.4099 77.2502 61.5799 76.0602L54.8399 74.4902C56.9899 76.7002 57.8699 82.7602 55.3899 85.5702C55.3899 85.2802 55.3199 85.0002 55.2099 84.7402C55.0899 84.4902 54.9199 84.2502 54.6999 84.0602C54.3099 85.6602 53.3699 87.6202 51.1799 87.3602C51.1799 87.2802 51.3699 86.9202 50.7699 86.3602C49.5499 85.2402 45.5999 81.6502 44.1899 80.3602C44.1099 80.8302 44.0699 81.0102 43.8999 81.7402C43.8099 82.3502 43.4999 82.9102 43.0399 83.3202C42.5799 83.7402 41.9899 83.9802 41.3699 84.0102C40.9299 83.9502 40.4899 83.8002 40.1099 83.5602C39.7299 83.3302 39.3999 83.0102 39.1499 82.6302C39.7399 83.0602 40.4499 83.2902 41.1699 83.2702C41.2599 82.9502 41.4599 82.6602 41.7299 82.4502C42.0799 82.1602 42.6699 81.9802 42.7899 81.2702C42.8199 81.1202 42.8299 80.9702 42.7899 80.8302C42.7599 80.6802 42.6899 80.5502 42.5999 80.4302C42.4999 80.3202 42.3799 80.2302 42.2399 80.1702C42.0999 80.1202 41.9499 80.1002 41.7999 80.1102C40.6999 80.3302 39.4499 80.5502 39.1599 80.5702C38.9199 80.6102 38.6799 80.5502 38.4699 80.4202C38.2999 80.3102 38.0999 80.2502 37.8899 80.2702C37.6899 80.2902 37.4999 80.3602 37.3299 80.4902C37.1699 80.6102 37.0499 80.7702 36.9699 80.9602C36.9099 80.7502 36.8899 80.5302 36.9299 80.3202C36.9599 80.1002 37.0399 79.9002 37.1599 79.7202C37.2799 79.5402 37.4399 79.3902 37.6299 79.2802C37.8199 79.1702 38.0299 79.1002 38.2499 79.0902C38.3999 79.0902 42.2599 78.8602 43.3599 78.8902C43.9499 78.8602 44.5399 78.9602 45.0899 79.1602C46.0399 79.7702 48.0299 81.2302 48.4399 81.5802C49.2299 79.7702 49.0199 76.3502 48.0899 75.6702C41.8399 74.4202 34.8699 75.5402 30.6199 73.2002C30.0399 73.4902 28.2999 74.3602 27.7899 74.5802C27.4899 74.7302 27.1699 74.8602 26.8499 74.9702C26.7199 75.0302 26.5699 75.0802 26.4299 75.1202C26.5199 75.1602 27.8099 75.9302 29.4299 74.2802C30.9799 75.1302 32.6199 75.8102 34.3199 76.3002C33.8099 77.8902 29.7199 80.9902 27.1499 83.4002C22.9699 87.3102 18.4499 98.3702 14.3599 99.7902C14.9499 99.9102 15.5599 99.9802 16.1599 100C21.5499 100.09 24.2799 94.9502 25.1799 93.6702C23.6899 97.4202 22.1999 99.5002 21.3599 99.4502C22.8799 99.9102 24.4999 99.9802 26.0599 99.6602C27.6199 99.3502 29.0799 98.6502 30.3099 97.6402L27.1799 96.0002C27.6299 96.1802 31.3999 97.6702 34.5399 97.7202C38.0299 97.7702 38.6299 96.2702 38.6299 96.2702L34.6699 94.0502C36.1699 94.8102 37.8099 95.2502 39.4899 95.3502C44.5299 95.4302 47.0699 90.6102 47.3799 88.0202C47.0899 88.5502 45.6399 90.8402 43.5199 90.5702C43.6499 90.4102 43.7099 90.2002 43.6999 90.0002C43.6799 89.7902 43.5999 89.5902 43.4599 89.4402C43.4299 89.4102 43.3899 89.3902 43.3599 89.3702C43.0499 89.1602 40.5999 86.6902 38.7599 85.1502C38.6299 85.6302 38.5699 85.8402 38.3799 86.5302C38.2699 87.0302 37.9899 87.4902 37.5899 87.8102C37.1799 88.1402 36.6899 88.3302 36.1699 88.3402C35.7299 88.2902 35.3099 88.1302 34.9499 87.8702C34.5899 87.6202 34.2999 87.2702 34.0999 86.8702C34.4499 87.3002 34.9399 87.5902 35.4799 87.6902C35.6799 87.3602 35.9999 87.1102 36.3799 87.0002C36.6399 86.9302 36.8699 86.8102 37.0699 86.6302C37.5499 86.1802 37.8499 85.5602 37.9299 84.9002C37.9399 84.7102 37.8899 84.5102 37.7899 84.3402C37.6799 84.1702 37.5299 84.0402 37.3499 83.9602C36.8399 83.7102 36.2599 83.6102 35.6899 83.6502C34.6999 83.6502 34.3199 83.5802 34.0299 83.2902C33.7399 83.0002 33.7199 82.9802 33.4199 82.9702C33.2899 82.9802 33.1599 83.0102 33.0399 83.0802C32.9199 83.1402 32.8099 83.2302 32.7299 83.3302C32.7199 83.1702 32.7499 83.0102 32.7999 82.8502C32.8599 82.7002 32.9499 82.5602 33.0599 82.4402C33.1699 82.3202 33.3099 82.2302 33.4599 82.1702C33.6099 82.1002 33.7699 82.0702 33.9399 82.0702C34.0399 82.0802 34.1399 82.0902 34.2399 82.1202C34.5599 82.2102 38.0099 83.1102 38.6899 83.4402C39.0999 83.6402 42.9399 86.6802 42.9399 86.6802C43.7299 86.1802 44.2399 84.1702 44.2599 83.0902C44.5599 82.9402 45.1099 83.0902 45.8399 83.6402C46.5799 84.2002 48.9099 86.3302 49.1999 86.6602C48.7299 90.3102 51.0199 97.4602 54.5299 97.5202C54.8599 97.5202 55.1999 97.4502 55.5099 97.3302C55.1899 97.1802 55.0599 96.8702 54.8699 96.2402L54.2799 93.7002C54.2799 93.7002 55.0499 94.7202 57.8799 97.8302C59.3999 99.5402 60.7899 99.9402 61.7099 99.9602C62.0199 99.9902 62.3199 99.9602 62.6099 99.8702C62.8999 99.7802 63.1699 99.6402 63.3999 99.4502C62.9599 99.4502 62.4599 99.0302 61.7499 98.1502L59.0199 94.6302C63.3099 98.5602 66.3599 99.4502 68.2199 99.4502C69.0199 99.5302 69.8199 99.3302 70.4899 98.8902L61.3999 90.7602L72.1499 96.7402C73.4099 93.0102 70.6599 90.6102 69.1399 89.7502ZM38.9999 76.7302L38.9699 76.7602C39.2299 76.8502 41.9899 77.8702 43.5799 78.4902C42.9399 78.4902 42.2099 78.4902 41.5199 78.5302H40.4899L39.4599 78.4202C38.7699 78.3302 38.8699 77.9202 38.2999 77.8302C38.0999 77.8102 37.8999 77.8502 37.7299 77.9402C37.5499 78.0202 37.3999 78.1602 37.2899 78.3302C37.2899 77.2202 38.2199 76.4702 38.9999 76.7302ZM33.0199 84.2802C33.1799 84.1902 33.3599 84.1302 33.5399 84.1202C33.6999 84.1202 35.1199 84.0702 35.8399 84.0802C36.3399 84.0802 37.5299 84.1502 37.5199 84.9702C37.5099 85.1302 37.4799 85.2902 37.4299 85.4402C37.3599 85.2802 37.2399 85.1402 37.0899 85.0402C36.9399 84.9502 36.7599 84.9002 36.5799 84.9002C36.2599 84.9002 34.6799 85.3702 34.1799 85.3602C33.6699 85.3502 33.6699 85.1002 33.3599 85.1002C33.1699 85.1002 32.9899 85.1602 32.8299 85.2602C32.6799 85.3602 32.5499 85.5102 32.4799 85.6802C32.4299 85.5102 32.4099 85.3302 32.4399 85.1502C32.4599 84.9702 32.5299 84.8002 32.6299 84.6402C32.7299 84.4902 32.8699 84.3702 33.0199 84.2802Z" fill="#A38E5D"/>
<path d="M30.9501 72.1403C30.3601 73.2903 28.4601 73.4703 28.4601 73.4703C28.4601 73.4703 27.8801 72.2803 27.0801 72.4403C26.2701 72.6103 25.2001 72.8603 25.2001 72.8603L24.9601 73.9803C24.8201 73.9803 23.8301 73.6903 23.8301 72.7903C23.8701 72.3703 24.0101 71.9603 24.2601 71.6203C24.5001 71.2703 24.8301 71.0003 25.2101 70.8203C26.1601 71.6403 26.6201 72.0803 27.2001 72.0403C27.7801 72.0003 30.8801 71.8403 30.9501 72.1403Z" fill="#A38E5D"/>
<path d="M17.4 95.1899V95.1499C15.66 97.8499 13.33 99.5399 10.75 99.4999C6.41 99.4499 6 96.0599 6 96.0599C6.4 96.1799 6.82 96.2399 7.24 96.2199C11.82 94.8499 20.92 88.8999 22.99 86.6299C22.47 87.3399 19.26 92.2799 17.4 95.1899Z" fill="#A38E5D"/>
<path d="M93.0299 15.9502C92.7999 18.8202 88.8899 22.5802 83.3399 26.1602H83.3199C76.3499 30.6402 66.3799 36.3402 59.6999 39.9402C48.8299 45.9202 46.3299 52.3302 45.3999 56.6402C47.8799 53.7002 62.8599 46.9302 74.0499 42.4102C86.8899 37.2302 93.8699 31.3902 94.0199 22.1102C94.0299 20.0202 93.6999 17.9402 93.0299 15.9502ZM93.0999 18.0602H93.1199L93.0999 18.0702V18.0602Z" fill="#A38E5D"/>
<path d="M80.1802 42.25C72.3302 45.61 61.1502 49.23 54.9302 52.45C48.9202 55.56 46.2102 56.97 45.4202 58.73V58.71C45.4202 58.71 43.6902 63.05 43.0302 64.29C42.7502 64.86 42.3302 65.35 41.8002 65.71C41.2702 66.06 40.6602 66.27 40.0202 66.31C38.9002 66.17 37.5902 66.01 36.2202 65.94C33.6302 65.82 30.5202 66.15 29.1602 66.9C28.0902 67.5 26.4102 69.66 26.4102 69.66C26.7502 69.86 27.1402 69.96 27.5402 69.97C27.9302 69.99 28.3202 69.9 28.6802 69.72C28.6802 69.72 28.1202 69.14 28.1402 68.94C28.1602 68.74 28.3202 68.66 28.6002 68.47C28.6802 68.83 28.8802 69.13 29.1802 69.34C29.4702 69.55 29.8302 69.65 30.1802 69.61C30.5702 69.57 30.9402 69.42 31.2302 69.16C31.5202 68.91 31.7302 68.56 31.8202 68.19C31.8702 67.98 31.8802 67.76 31.8402 67.55C31.8002 67.34 31.7202 67.14 31.6002 66.97C32.4902 66.97 33.2302 67.48 33.2202 67.74C32.9802 68.33 32.6102 68.86 32.1302 69.29C31.6502 69.71 31.0802 70.02 30.4702 70.19C30.6502 71.02 32.4802 71.19 32.4102 71.7C32.3402 71.95 32.1902 72.17 31.9702 72.3C31.6902 72.53 33.1902 72.99 34.2302 73.06C37.7402 73.19 38.6802 71.9 39.9002 70.26C40.0502 70.07 40.2302 69.92 40.4402 69.82C40.6602 69.72 40.8902 69.66 41.1302 69.66C42.0702 69.66 48.2802 73.46 54.8402 73.56C61.0302 73.65 65.5602 70.66 66.5402 67.12C64.7702 67.77 62.9002 68.13 61.0102 68.17C54.7702 68.08 52.2702 65.07 52.2702 65.07C54.6502 65.92 57.1502 66.39 59.6802 66.44C69.7202 66.59 71.5702 58.44 72.2502 55.78C70.8702 56.66 66.1402 59.76 56.9202 59.61C54.7902 59.67 52.6702 59.26 50.7202 58.39C54.0302 58.45 57.3202 58.17 60.5702 57.57C71.5302 55.33 78.6502 50.25 80.1802 42.25ZM69.6402 46.87H69.6502L69.3402 46.99L69.6402 46.87Z" fill="#A38E5D"/>
<path d="M94.2902 7C94.1502 15.19 86.2002 22.52 78.6302 26.97C68.7302 32.74 59.7002 37.87 55.7402 40.69C52.0602 43.34 51.1002 44.45 50.9902 44.58C53.9002 38.1 58.0302 32.24 63.1502 27.3C65.6902 24.85 82.8802 11.02 86.2102 8.02C88.3102 6.09 90.2702 4.02 92.0702 1.82C92.2302 1.22 92.3502 0.61 92.4302 0C93.6702 2.12 94.3202 4.54 94.2902 7Z" fill="#A38E5D"/>
</g>
<defs>
<clipPath id="clip0_2099_2274">
<rect width="88.29" height="100" fill="white" transform="translate(6)"/>
</clipPath>
</defs>
</svg>
