<svg width="100" height="100" viewBox="0 0 100 100" fill="none" xmlns="http://www.w3.org/2000/svg">
<path d="M0 25C0 11.1929 11.1929 0 25 0H75C88.8072 0 100 11.1929 100 25V75C100 88.8072 88.8072 100 75 100H25C11.1929 100 0 88.8072 0 75V25Z" fill="#C3122F"/>
<path d="M21.2188 76.5177C22.5075 76.5177 23.6993 77.3144 24.1924 78.505C24.6853 79.6952 24.406 81.1007 23.4952 82.0118C22.5848 82.9222 21.177 83.2028 19.9873 82.71C18.7978 82.2173 18.0001 81.024 18 79.7364C18 78.8828 18.3398 78.0636 18.9434 77.46C19.5469 76.8567 20.3654 76.5177 21.2188 76.5177Z" fill="white"/>
<path d="M39.5489 77.0597C40.62 77.7754 41.1683 79.1011 40.917 80.3643C40.6658 81.627 39.6514 82.6414 38.3887 82.8927C37.1251 83.144 35.8009 82.5957 35.085 81.5245C34.2426 80.2638 34.4152 78.5391 35.4893 77.4649C36.5628 76.3914 38.2885 76.2177 39.5489 77.0597Z" fill="white"/>
<path d="M54.3028 76.5177C56.2828 76.5178 57.8497 78.4001 57.459 80.3643C57.2078 81.627 56.1934 82.6414 54.9307 82.8927C54.3065 83.0168 53.6593 82.9535 53.0713 82.71C51.8807 82.2169 51.0841 81.0251 51.084 79.7364C51.0921 77.9868 52.5532 76.5257 54.3028 76.5177Z" fill="white"/>
<path d="M30.9463 69.338C31.8139 69.9187 32.2567 70.9932 32.0508 72.0167C31.8449 73.0396 31.0204 73.8597 29.9961 74.0597C28.9724 74.2594 27.8992 73.8085 27.3243 72.9386C26.6496 71.9175 26.7912 70.5203 27.6612 69.6554C28.5314 68.7903 29.9291 68.6572 30.9463 69.338Z" fill="white"/>
<path d="M38.6377 69.3419C39.1931 69.5721 39.6469 70.0257 39.877 70.5811C40.1654 71.2774 40.0838 72.1039 39.6651 72.7305C39.1554 73.493 38.214 73.8829 37.3145 73.7042C36.4259 73.5274 35.6914 72.7929 35.5147 71.9044C35.3358 71.0049 35.7259 70.0634 36.4883 69.5538C37.115 69.135 37.9413 69.0534 38.6377 69.3419Z" fill="white"/>
<path d="M47.4473 70.0499C47.8169 70.4196 48.0303 70.9353 48.0303 71.4581C48.0361 72.2538 47.5329 73.0161 46.7989 73.3233C46.0646 73.6307 45.1683 73.4535 44.6055 72.8907C44.0429 72.3279 43.8667 71.4324 44.1739 70.6983C44.3275 70.3313 44.5869 70.0182 44.919 69.7989C45.7012 69.2825 46.7816 69.3842 47.4473 70.0499Z" fill="white"/>
<path d="M21.2188 59.9161C22.5023 59.9163 23.69 60.7061 24.1866 61.8897C24.4316 62.4741 24.4992 63.1179 24.3799 63.7403C24.1381 65.0011 23.1388 66.0183 21.8828 66.2833C20.6276 66.5481 19.3014 66.021 18.5713 64.9659C17.9599 64.0821 17.8315 62.8963 18.2412 61.9005C18.7299 60.713 19.93 59.9102 21.2188 59.9161Z" fill="white"/>
<path d="M78.5459 60.3184C79.6967 60.0864 80.9038 60.5859 81.5537 61.5636C81.8346 61.9862 82.0003 62.4739 82.0352 62.9776L82.087 63.1944C82.0788 64.7786 80.7523 66.0986 79.168 66.0987C77.995 66.1167 76.8975 65.4034 76.4375 64.3243C76.2102 63.7909 76.1472 63.2015 76.2559 62.6319C76.4762 61.4787 77.3951 60.5505 78.5459 60.3184Z" fill="white"/>
<path d="M70.8448 60.5899C71.8886 60.584 72.8581 61.2249 73.2618 62.1876C73.6653 63.1505 73.4422 64.291 72.7061 65.0313C71.9702 65.7711 70.8309 66.0005 69.8662 65.6026C68.9012 65.2045 68.2549 64.2381 68.2549 63.1944C68.251 62.5119 68.5266 61.8377 69.0078 61.3536C69.4892 60.8695 70.1621 60.5899 70.8448 60.5899Z" fill="white"/>
<path d="M30.7784 61.2774C31.5362 61.7839 31.9365 62.7496 31.7588 63.6436C31.5788 64.5488 30.8524 65.275 29.9473 65.4552C29.042 65.6352 28.0929 65.2422 27.5801 64.4747C26.9781 63.5733 27.099 62.3329 27.8672 61.5645C28.6364 60.7953 29.876 60.6745 30.7784 61.2774Z" fill="white"/>
<path d="M62.5811 60.8888C63.4941 60.8828 64.3682 61.46 64.7217 62.3018C65.0796 63.1542 64.883 64.1636 64.2315 64.8194C63.5801 65.4749 62.571 65.6774 61.7168 65.3253C60.8729 64.9771 60.2911 64.1073 60.291 63.1944C60.2871 62.5905 60.5305 61.994 60.9561 61.5655C61.3818 61.137 61.9771 60.8887 62.5811 60.8888Z" fill="white"/>
<path d="M38.8516 61.5391C39.5064 61.9767 39.8519 62.8107 39.6983 63.5831C39.5446 64.3552 38.906 64.9939 38.1338 65.1475C37.3619 65.3009 36.5283 64.9551 36.0909 64.3009C35.5693 63.5203 35.6781 62.4558 36.3428 61.7911C37.0075 61.1265 38.0711 61.0178 38.8516 61.5391Z" fill="white"/>
<path d="M55.4131 61.5313C56.0718 61.9652 56.4226 62.799 56.2725 63.5733C56.1223 64.3475 55.485 64.9894 54.7119 65.1456C53.9388 65.3017 53.102 64.9572 52.6631 64.3018C52.1436 63.5257 52.245 62.4567 52.9043 61.7921C53.5645 61.1269 54.6322 61.0169 55.4131 61.5313Z" fill="white"/>
<path d="M47.6514 62.5001C47.8605 63.1268 47.6754 63.8402 47.1856 64.2862C46.5487 64.8658 45.5451 64.8658 44.9082 64.2862C44.4172 63.8393 44.2329 63.1278 44.4424 62.5001C44.5915 62.0535 44.9318 61.6788 45.3623 61.4884C46.2598 61.0916 47.3407 61.5693 47.6514 62.5001Z" fill="white"/>
<path d="M29.4971 52.9249C30.2833 52.9308 31.0294 53.4361 31.3262 54.1641C31.623 54.8923 31.4429 55.7753 30.8848 56.3292C30.3267 56.883 29.4426 57.0562 28.7168 56.754C27.9911 56.4518 27.4913 55.7022 27.4912 54.9161C27.4994 53.829 28.4099 52.925 29.4971 52.9249Z" fill="white"/>
<path d="M38.4082 53.3526C39.0263 53.6087 39.4522 54.2471 39.4522 54.9161C39.4603 55.8391 38.6838 56.6157 37.7608 56.6075C37.0919 56.6075 36.4544 56.1814 36.1983 55.5636C35.9422 54.9454 36.0914 54.1929 36.5645 53.7198C37.0376 53.2467 37.79 53.0966 38.4082 53.3526Z" fill="white"/>
<path d="M45.0655 53.9425C45.4507 53.5572 46.0631 53.4352 46.5664 53.6436C47.0696 53.8522 47.416 54.3714 47.416 54.9161C47.416 55.6662 46.7892 56.293 46.0391 56.293C45.4944 56.293 44.9752 55.9466 44.7666 55.4434C44.5582 54.9401 44.6802 54.3277 45.0655 53.9425Z" fill="white"/>
<path d="M21.2188 43.4493C22.5093 43.4494 23.7041 44.2488 24.1953 45.4425C24.6862 46.6355 24.4009 48.0461 23.4844 48.9542C22.5669 49.8632 21.1553 50.1344 19.9659 49.6319C18.7551 49.1202 18.0396 47.9455 18 46.6524C18.0082 44.9045 19.4712 43.4493 21.2188 43.4493Z" fill="white"/>
<path d="M38.8535 44.9981C39.5089 45.437 39.8534 46.2738 39.6973 47.047C39.5411 47.8199 38.8992 48.4573 38.125 48.6075C37.3508 48.7577 36.517 48.4067 36.083 47.7481C35.5687 46.9672 35.6786 45.8995 36.3438 45.2393C37.0093 44.5791 38.0765 44.4778 38.8535 44.9981Z" fill="white"/>
<path d="M54.3028 44.6612C55.5283 44.6522 56.5103 45.8197 56.2705 47.0372C56.0307 48.2547 54.6794 48.9624 53.5489 48.4893C52.8201 48.1843 52.3204 47.4278 52.3262 46.6378C52.3262 45.5615 53.2265 44.6612 54.3028 44.6612Z" fill="white"/>
<path d="M61.1338 36.2081C62.1529 35.5272 63.5541 35.6635 64.4229 36.5323C65.2917 37.4011 65.428 38.8023 64.7471 39.8214C64.168 40.6879 63.0955 41.132 62.0733 40.9288C61.0509 40.7254 60.2298 39.9042 60.0264 38.8819C59.8232 37.8597 60.2673 36.7872 61.1338 36.2081Z" fill="white"/>
<path d="M37.7608 36.0684C38.3648 36.0684 38.9601 36.3167 39.3858 36.7452C39.8114 37.1737 40.0548 37.7702 40.0508 38.3741C40.0448 39.2899 39.4749 40.1332 38.627 40.4796C37.7895 40.8217 36.7734 40.6155 36.1358 39.9737C35.4983 39.332 35.2991 38.3147 35.6465 37.4796C35.9941 36.6443 36.8561 36.0685 37.7608 36.0684Z" fill="white"/>
<path d="M70.8448 26.877C72.5977 26.8771 74.0635 28.3428 74.0635 30.0958C74.0634 32.0978 72.1583 33.6382 70.2168 33.252C68.9536 33.0008 67.9388 31.9869 67.6875 30.7237C67.3013 28.7822 68.8427 26.877 70.8448 26.877Z" fill="white"/>
<path d="M37.253 27.5411C38.2749 27.338 39.3479 27.7821 39.9268 28.6485C40.6075 29.6672 40.471 31.0692 39.6026 31.9376C38.7342 32.806 37.3322 32.9425 36.3135 32.2618C35.4471 31.6829 35.003 30.6099 35.2061 29.588C35.4095 28.5653 36.2303 27.7445 37.253 27.5411Z" fill="white"/>
<path d="M77.0264 18.6241C78.5313 17.6407 80.6035 17.8477 81.878 19.1222C83.1908 20.435 83.3229 22.4486 82.3057 23.9659C80.9745 25.9514 78.0588 26.2065 76.3975 24.5255C74.7362 22.8445 75.0254 19.9319 77.0264 18.6241Z" fill="white"/>
<path d="M38.8721 19.1495C39.946 19.5943 40.665 20.6695 40.6651 21.8321C40.6651 22.6023 40.3591 23.3412 39.8145 23.8858C38.8459 24.8544 37.2836 25.0062 36.1475 24.2472C35.6699 23.928 35.298 23.4741 35.0782 22.9434C34.6333 21.8694 34.8848 20.6006 35.7071 19.7784C36.5293 18.9562 37.7981 18.7046 38.8721 19.1495Z" fill="white"/>
</svg>
