<svg width="101" height="100" viewBox="0 0 101 100" fill="none" xmlns="http://www.w3.org/2000/svg">
<path d="M28.9677 16.4395C29.1044 16.1172 29.2607 16 29.6123 16C32.0832 16.0195 34.5639 16.0195 37.0349 16C37.3865 16 37.5329 16.1074 37.6501 16.4493C40.7346 25.7828 47.407 45.5634 47.407 45.5634C47.407 45.5634 37.1994 46.4564 32.1027 46.9015C31.6242 46.9405 31.3312 46.8233 31.0577 46.4229C29.7295 44.5575 28.3621 42.7116 27.0241 40.8559C26.819 40.5727 26.6041 40.4653 26.2526 40.4848C24.4653 40.5922 22.6878 40.6704 20.8419 40.768C22.1281 43.5288 23.3799 46.3055 24.6801 49.0599C24.8266 49.3724 24.8169 49.6166 24.6801 49.9291C23.2089 53.219 21.6791 56.4966 20.3145 59.8324C22.2258 59.8324 24.1359 59.7363 26.0475 59.725C26.4967 59.725 26.7506 59.5589 27.0143 59.2269C28.4793 57.3419 29.9736 55.4765 31.4581 53.5916C31.6437 53.3474 31.839 53.2497 32.1516 53.2595L47.7109 54.0703C44.4133 64.3689 37.8242 85.0039 37.8242 85.0039L37.819 85H0C0 85 19.5029 39.3204 28.9677 16.4395Z" fill="black"/>
<path d="M44.6172 16C63.0467 16 81.717 16 100.117 16C91.2164 38.7313 74.7202 80.5656 73.1512 84.4726C73.0145 84.873 72.7227 85.0039 72.3867 85.0039C63.0781 85.0039 44.4609 85 44.4609 85C44.4609 85 55.8265 65.438 61.5002 55.6523C61.8616 55.0272 62.2425 54.8417 62.9359 54.8319C67.9754 54.7342 73.015 54.5877 78.0643 54.4705C79.3047 54.4412 80.5353 54.3631 81.6682 53.7869C83.0941 53.0642 84.0708 51.9898 84.061 50.3002C84.0512 48.6106 83.0746 47.5363 81.6486 46.8136C80.7208 46.3448 79.7149 46.1592 78.6796 46.1397C73.3471 46.0029 68.0145 45.8662 62.6722 45.749C62.3499 45.7392 62.1741 45.6318 62.0178 45.3681C56.353 35.6327 49.7604 25.9435 44.6172 16Z" fill="black"/>
</svg>
