<svg width="100" height="100" viewBox="0 0 100 100" fill="none" xmlns="http://www.w3.org/2000/svg">
<path fill-rule="evenodd" clip-rule="evenodd" d="M23.5537 6.61157L15.2893 6.61157V68.1273L16.6508 74.1941L23.5537 81.0971V6.61157Z" fill="#163B69"/>
<path fill-rule="evenodd" clip-rule="evenodd" d="M23.5537 0V6.61157L15.2893 6.61157V9.53674e-07H0L7.85124 34.9843V6.61157L15.2893 6.61157V68.1273L16.6508 74.1941L23.5537 81.0971V6.61157L30.5785 6.61157V88.1219L38.843 96.3863V12.2329C36.6799 9.34802 35.2047 7.3603 34.6747 6.61157C33.3314 4.72031 31.9114 3.33089 30.5785 2.3278C28.3919 0.682146 26.4398 0.076266 25.4456 9.53674e-07L23.5537 0ZM54.1322 100H45.8678V21.5632C48.3451 24.8452 51.1322 28.5317 54.1322 32.4955V100ZM61.157 100H69.4215V52.6715C66.6077 48.962 63.8351 45.3051 61.157 41.771V100ZM84.7107 100H76.4463V61.9295C79.2207 65.5848 81.9921 69.2349 84.7107 72.8145V100Z" fill="#163B69"/>
<path d="M100 92.9356C97.4129 89.5326 94.6347 85.8774 91.7355 82.0619V100H100V92.9356Z" fill="#163B69"/>
<path d="M35.5369 48.0291L27.2725 39.7646V100H35.5369V48.0291Z" fill="#D60073"/>
<path fill-rule="evenodd" clip-rule="evenodd" d="M50.8262 100H42.5617V55.0539L50.8262 63.3184V100ZM57.851 100H66.1154V78.6076L57.851 70.3432V100ZM81.4047 100H73.1402V85.6324L81.4047 93.8969V100Z" fill="#D60073"/>
</svg>
