<svg width="100" height="100" viewBox="0 0 100 100" fill="none" xmlns="http://www.w3.org/2000/svg">
<path d="M43.5003 0.42095C54.4617 -1.01893 65.8844 1.2575 75.4008 6.90547C85.5661 12.8475 93.5158 22.4906 97.3183 33.6396C101.374 45.3411 100.817 58.5738 95.7314 69.8748C91.0417 80.5015 82.4785 89.3132 72.0495 94.4035C60.8245 99.9399 47.4955 100.984 35.5252 97.3643C24.0924 93.9573 13.9828 86.3016 7.6352 76.1971C2.63111 68.2828 -0.132035 58.9287 0.00485489 49.5492C-0.066125 36.8032 5.2016 24.1992 14.0944 15.1087C21.8768 7.08799 32.4123 1.8152 43.5003 0.42095ZM29.8671 40.5145C29.2182 40.8846 28.5134 41.2496 27.7428 41.0215C23.6716 40.3269 19.6055 39.5562 15.5393 38.8059C14.7535 38.7349 13.8612 38.3344 13.126 38.8059C9.76967 40.6564 6.45896 42.5932 3.12797 44.4893C28.3309 58.6194 53.5643 72.6988 78.8281 86.7173C78.8889 80.826 78.8636 74.9296 78.8585 69.0332C73.099 67.9685 67.3344 66.9444 61.58 65.8492C67.2837 62.6197 73.0179 59.4408 78.7824 56.3278C78.9041 50.5936 78.8027 44.8544 78.8331 39.1152C69.9607 44.1598 61.1237 49.2602 52.2309 54.2643C49.848 52.865 47.4195 51.5417 45.0518 50.1069C56.3477 43.5869 67.816 37.366 79.1678 30.9423C79.1576 24.8887 79.1728 18.8301 79.1627 12.7765C62.7308 22.0242 46.2939 31.2567 29.8671 40.5145Z" fill="#0805F2"/>
</svg>
