<svg width="100" height="100" viewBox="0 0 100 100" fill="none" xmlns="http://www.w3.org/2000/svg">
<path d="M0 25C0 11.1929 11.1929 0 25 0H75C88.8072 0 100 11.1929 100 25V75C100 88.8072 88.8072 100 75 100H25C11.1929 100 0 88.8072 0 75V25Z" fill="#1A361F"/>
<path d="M91 27.0794V27.3994C89.1376 28.8426 87.408 30.4282 85.6432 31.9866C79.3632 29.1354 72.7328 29.6394 66.5728 32.481C66.3648 32.5754 64.096 33.649 64.28 33.785C65.5136 33.633 66.7056 33.1386 67.9264 32.8746C71.32 32.1418 75.9104 31.881 79.1584 33.2298C80.1616 33.6474 80.936 34.265 81.88 34.7466C81.9392 34.9914 81.8416 35.0026 81.7104 35.1338C79.4352 37.3994 76.3168 39.8634 73.72 41.7706C69.6272 44.777 64.632 47.6906 59.48 48.6362C57.6807 48.9669 55.5289 49.2292 53.72 48.7978C54.392 51.0634 55.1792 53.4618 55.5936 55.7882C55.9728 57.9226 56.1216 59.7802 55.96 61.889C55.4655 68.3971 53.4 73.1743 46.68 76.5802C44.5746 77.6473 43.0057 78.3764 41.08 78.8543C41.928 77.7119 42.7536 76.2954 43.32 74.9834C44.8288 71.4906 44.8368 67.3866 44.6 63.6458C45.8944 65.129 46.4336 67.3722 46.528 69.3082C46.576 70.3098 46.3664 71.2794 46.44 72.2682C50.1824 67.5658 46.2544 61.6298 43.4512 57.5274C41.648 54.889 39.0832 52.2346 37.4944 49.5802C36.3792 47.721 36.2448 46.6186 36.8784 44.5226C37.784 41.5306 40.0848 39.3194 42.2 37.1402C37.9776 37.4952 35.9595 41.4159 34.3616 44.8026C33.32 38.8543 31.8113 29.1298 26.4688 26.2538C21.8512 23.7674 15.944 23.8047 11 22.2143V21.969C11.7776 21.7482 12.6688 21.769 13.4784 21.8106C18.2688 22.0618 23.896 23.4826 28.5376 23.3898C30.096 23.3594 30.6608 22.7514 31.9248 22.3322C34.504 21.4778 37.6 21.1882 39.8768 22.9322C42.9456 25.281 41.864 28.3818 43.0448 31.585C44.6752 36.0058 48.1952 36.0666 52.3392 35.681C61.2848 33.4314 69.3728 28.3978 78.2896 25.9706C82.256 24.8922 87.9328 23.5978 91 27.0794Z" fill="white"/>
<path d="M56.0148 59.5996C56.0958 60.6393 56.1734 61.8017 56.2783 63.0095C56.2751 67.9886 55.7022 73.1694 52.435 77.1341C50.259 79.7757 46.7806 81.6958 43.403 82.3326C43.1582 82.1598 43.5615 82.1886 43.6911 81.971C44.4434 80.7077 45.0209 78.9237 44.9239 77.4432C45.4775 77.1838 46.0551 76.8973 46.6798 76.5807C53.3998 73.1748 55.4653 68.3976 55.9598 61.8895C56.0203 61.1002 56.0371 60.3462 56.0148 59.5996Z" fill="#F7D502"/>
<path d="M44.6003 63.6465C44.8371 67.3873 44.829 71.4912 43.3203 74.984C43.3075 75.0135 43.294 75.0428 43.2811 75.0724C42.3829 75.3718 40.4314 76.0105 38.2803 75.8149C41.0003 73.1749 43.4798 66.4142 44.6003 63.6465Z" fill="#008D96"/>
<path d="M73.4996 41.9316C74.5938 42.9009 76.4671 43.1273 78.8399 43.4149C76.3439 45.1013 75.5599 46.113 71.3199 47.7349C66.4447 49.5998 59.5654 50.3271 55.229 49.007C56.6528 49.0843 58.1611 48.8792 59.4799 48.6368C64.54 47.7081 69.4485 44.8805 73.4996 41.9316Z" fill="#7BC043"/>
</svg>
