<svg width="100" height="100" viewBox="0 0 100 100" fill="none" xmlns="http://www.w3.org/2000/svg">
<path d="M71.4968 54.3308C71.4968 54.3308 65.1701 54.7859 59.2953 57.0614C32.6328 68.4392 31.729 93.4702 33.9885 95.7457C36.7 98.0213 38.5076 96.2008 40.3152 96.2008C46.6419 96.2008 52.9686 91.6497 57.4877 87.5537C63.8144 81.6373 67.8815 74.8107 70.1411 66.1636C71.0449 62.5227 71.4968 53.8757 71.4968 54.3308Z" fill="#F89921"/>
<path d="M71.4982 41.5878C65.1715 27.9345 54.3258 18.3772 42.1243 10.1852C34.8938 5.17904 27.2114 1.08305 18.1733 0.172834C5.97178 -1.19249 -0.354922 5.63415 2.80843 17.0119C4.16415 21.563 6.42367 25.659 9.13511 29.7549C10.4908 31.5754 13.2023 35.2163 14.558 37.0367C17.7213 41.1327 16.8175 37.0367 13.2023 31.1203C10.4908 26.5692 5.97177 20.1976 5.06796 13.371C4.16415 6.99947 7.77939 2.90349 14.558 3.3586C19.0771 3.3586 23.5961 4.72393 27.6633 6.99947C38.5091 12.0057 48.451 19.2874 56.5853 27.9345C62.4601 34.306 67.4311 41.1327 69.2387 49.7798C70.1425 54.3308 70.1425 57.9717 69.2387 62.0677C67.4311 70.7148 63.8158 78.9068 57.4891 85.7334C53.422 90.2845 46.1915 93.9254 41.6724 94.3805C38.509 94.8356 37.1533 94.3805 37.1533 95.7458C37.1533 97.5662 38.0571 98.0213 39.8648 98.0213C44.3838 98.0213 48.451 96.656 52.5182 94.8356C66.9792 86.6436 80.5364 60.7024 71.4982 41.5878Z" fill="#2B3B4C"/>
<path d="M31.7283 84.8243C30.8245 93.4714 34.8916 101.208 33.5359 99.8429C30.3725 95.7469 29.4687 91.1959 29.9206 85.7345C30.3725 73.4466 37.1511 64.3444 45.7374 57.0627C51.6122 52.9667 54.3236 50.236 62.9098 47.9605C65.6212 47.5054 68.7846 45.6849 67.4289 49.3258C66.977 50.6911 66.5251 51.1462 63.8136 52.0565C50.7083 55.2422 42.1221 62.524 35.3435 73.9017C33.5359 77.0875 32.1802 80.7283 31.7283 84.8243Z" fill="#2B3B4C"/>
<path d="M97.2566 33.3947C96.3528 29.7538 88.6704 31.5742 87.7666 31.5742C81.8918 32.4845 77.3727 39.7662 78.7284 43.4071C80.536 44.7724 82.3437 48.8684 86.4109 48.4133C90.9299 47.9582 94.0932 44.3173 94.5452 40.2213C94.5452 38.4009 93.6414 36.1253 94.9971 34.3049C95.9009 32.9396 96.8047 32.9396 97.2566 33.3947Z" fill="#F89921"/>
<path d="M44.8359 69.3506C49.355 72.5364 53.4222 76.6323 58.3931 79.8181C59.297 80.2732 59.7489 81.1834 58.8451 82.0936C57.9413 83.459 57.0374 82.5488 56.1336 82.0936C51.6145 78.4528 47.5474 74.8119 44.8359 69.3506Z" fill="#2B3B4C"/>
<path d="M54.3252 60.7031C57.9404 62.9787 61.1038 66.1644 64.719 68.44C65.1709 68.8951 66.0748 69.3502 65.6229 70.2604C65.171 71.1706 63.8152 71.1706 63.3633 70.7155C59.2962 67.9849 56.1328 65.2542 54.3252 60.7031Z" fill="#2B3B4C"/>
<path d="M38.0552 80.2705C41.6704 82.5461 44.8338 85.7318 48.449 88.0074C48.9009 88.4625 49.8047 88.9176 49.3528 89.8278C48.9009 90.738 47.5452 90.738 47.0933 90.2829C43.0261 87.5523 39.8628 84.3665 38.0552 80.2705Z" fill="#2B3B4C"/>
</svg>
