<svg width="100" height="100" viewBox="0 0 100 100" fill="none" xmlns="http://www.w3.org/2000/svg">
<path d="M0 25C0 11.1929 11.1929 0 25 0H75C88.8072 0 100 11.1929 100 25V75C100 88.8072 88.8072 100 75 100H25C11.1929 100 0 88.8072 0 75V25Z" fill="#701D75"/>
<path d="M51.9175 37.7842V62.5096H58.6273V37.7842H51.9175Z" fill="white"/>
<path d="M34.9551 37.6924L44.1738 50.1008L34.9551 62.5092H42.6565L51.8732 50.1008L42.6565 37.6924H34.9551Z" fill="#26D702"/>
<path d="M69.7765 62.5096V53.891L60.7168 37.7842H67.9589L73.2471 47.4704L78.5353 37.7842H85.7774L76.7177 53.891V62.5096H69.7765Z" fill="white"/>
<path d="M33.9573 55.1777C33.9595 51.605 31.7507 48.4502 26.0005 47.1998C21.7781 46.2817 21.2317 45.4441 21.2317 44.4767C21.2317 42.8901 23.4846 42.7269 24.8035 42.7269C28.169 42.7269 30.2901 43.9963 32.2886 45.1744V39.2103C29.9351 37.7873 27.1977 37.3546 24.301 37.333C15.8967 37.8159 14.6665 42.1351 14.6665 44.9683C14.6665 49.5628 17.2809 51.0934 22.1283 52.6181C24.0128 53.2109 27.2583 53.5158 27.2764 55.4958C27.2863 56.5888 26.2658 57.4079 23.4584 57.4983C19.8419 57.6148 17.5708 56.1731 15.2219 54.8909V60.8933C17.7901 62.1928 20.4832 62.907 23.5455 62.907C30.2456 62.907 33.9542 59.7909 33.9573 55.1777Z" fill="white"/>
</svg>
