<svg width="100" height="100" viewBox="0 0 100 100" fill="none" xmlns="http://www.w3.org/2000/svg">
<path d="M40.9043 27.3304C40.6994 27.2686 35.2831 26.0801 33.4871 26.1984C31.6928 26.3132 30.1458 27.3604 29.201 28.4394C28.6888 29.024 28.4575 29.6156 28.3692 30.1154C28.2897 30.9825 28.9113 31.3922 29.6442 31.1591C30.1793 30.9878 30.5714 30.6063 31.1241 29.7851C31.4632 29.2801 31.6681 28.639 32.1908 28.307C33.0544 27.7613 34.5378 27.6235 36.9608 27.6871C38.8133 27.7366 40.3091 27.8284 40.6747 27.8443C41.3493 27.8743 41.1957 27.4204 40.9043 27.3304Z" fill="#413691"/>
<path d="M37.7729 32.3609C36.761 31.7623 35.3994 31.7958 35.1327 31.7464C34.8661 31.6969 34.8149 31.4267 35.2157 31.2325C35.7632 30.9658 36.7893 31.1883 36.8263 31.0152C36.8599 30.8651 36.6268 30.4819 35.8462 30.1852C35.4259 30.0228 34.6259 29.915 34.0466 29.9751C32.3831 30.1499 31.4965 31.1848 31.3093 31.3755C31.1221 31.5645 30.8396 31.8506 30.7672 32.2885C30.67 32.8678 31.0409 33.3146 31.3941 33.8885C31.5742 34.1782 31.7332 34.3901 31.7915 34.6091C31.8745 34.9217 31.8197 35.0488 31.5601 35.2519C31.2687 35.4797 31.44 35.8806 32.0263 35.7181C32.6886 35.5309 33.0506 35.3437 33.5504 34.9217C34.2639 34.323 34.2515 33.938 34.7495 33.44C35.2475 32.942 36.8157 32.9455 37.6228 33.0585C38.5712 33.191 38.7866 32.9579 37.7729 32.3609Z" fill="#413691"/>
<path d="M88.2017 40.0811C88.184 38.2409 87.6666 34.5676 87.5836 33.7623C87.3593 31.5372 86.826 28.4414 85.1165 24.1641C83.2516 19.5036 81.7434 16.2153 77.1801 11.7138C71.8043 6.41223 65.4697 4.21533 63.9403 3.7597C63.7143 3.69082 63.5871 3.65903 63.573 3.65549L63.5695 3.65373C60.6803 2.88022 58.252 2.67889 55.7037 2.64181C46.5982 2.50583 39.9174 6.33099 37.5721 8.85815C36.479 10.0361 35.6807 11.2458 35.0838 12.3884C33.2489 15.3235 33.0211 18.4723 32.8887 18.8732L32.894 18.8679C33.037 18.7442 35.2216 16.3266 37.6904 15.6008C38.2979 16.5915 39.5571 17.9442 42.086 19.237C44.6679 20.5579 47.5094 21.2908 47.5094 21.2908C47.5094 21.2908 51.0573 22.3098 54.6494 23.5955C57.5156 24.6215 60.5019 28.3389 60.5019 29.1054C60.5019 30.6913 58.9443 32.1712 57.4043 36.9906C55.7584 42.142 55.1827 47.0039 55.7213 52.7027C55.7231 52.7098 55.7231 52.7186 55.7249 52.7257C55.7266 52.7398 55.7266 52.7557 55.7284 52.7699C56.0569 56.1818 56.7827 59.8957 57.9183 64.1518H57.92C58.8401 67.6043 59.1386 71.0409 59.0167 74.3345C58.2202 82.7955 53.0812 89.1584 46.9072 92.7222C46.9037 92.7204 46.9019 92.7169 46.8984 92.7151C46.8984 92.7186 46.8984 92.7222 46.8984 92.7257C45.7258 93.4003 44.5178 93.9778 43.294 94.4476C43.4723 94.4529 45.4979 94.4758 45.7116 94.4723C50.8966 94.4122 58.2344 93.4109 64.5196 86.8202C66.69 84.5456 68.3907 82.1668 69.4644 79.9239C69.9041 78.9862 71.7743 75.6573 72.8322 69.0489C72.9717 68.1659 73.4379 65.3261 73.4379 65.3261C73.4379 65.3261 73.7311 67.3482 73.7681 69.1531C73.8158 71.629 73.9077 74.7407 72.4366 79.4595C72.9364 79.35 75.3858 77.5257 78.2874 73.5981C79.3487 72.1641 80.3253 70.6665 81.2189 69.1213C85.3867 62.5959 88.3465 54.8202 88.2017 40.0811Z" fill="#413691"/>
<path d="M65.7036 25.6352C65.6754 25.916 65.7725 26.0202 66.0303 25.8136C67.1588 24.9041 69.0326 23.5125 71.5844 23.0551C74.6361 22.5094 76.365 21.0189 77.1615 19.3323C77.6365 18.3187 78.0233 16.4961 79.5085 15.4047C79.9818 15.0568 79.4997 14.9332 79.1058 15.0056C78.735 15.0727 76.7182 15.6167 75.4061 17.0542C74.5319 16.1182 74.5955 14.8343 74.7191 14.0908C74.7756 13.8701 74.6025 13.7111 74.3094 13.9513C73.3098 14.7566 72.6423 15.8233 72.425 16.5933C72.425 16.5933 71.6286 16.0211 72.0383 14.5818C72.1072 14.3416 71.9412 14.4317 71.8546 14.4917C70.4189 15.5407 70.5425 17.1072 70.5301 17.3191C70.5301 17.3191 69.0802 16.5156 66.8604 16.21C66.4754 14.7319 64.1072 14.3434 63.7186 15.8586C63.3672 17.2326 65.6524 18.278 66.6237 17.1372C66.6237 17.1372 69.7531 17.4657 72.5328 20.2471C72.8153 20.5297 72.9072 20.7557 72.7323 20.9182C72.6034 21.0383 72.2025 20.7928 71.7134 20.4555C71.1624 20.0723 67.376 17.6334 64.1019 19.3094C63.9359 19.3942 63.9235 19.5372 64.0789 19.5725C64.697 19.7527 66.0727 20.2277 66.4206 21.1284C65.5465 21.3562 64.146 21.8895 63.1412 23.9593C62.8798 24.4961 63.2189 24.5703 63.5032 24.3513C63.844 24.0935 65.8873 22.9756 66.652 23.0551C66.652 23.0551 65.9597 24.0688 65.7036 25.6352ZM91.8123 10.0361C91.6833 11.0833 92.0083 14.0308 92.8136 16.7752C93.6595 19.6732 92.1566 22.2321 89.5518 23.735C88.7359 22.4705 87.0917 21.8383 85.6295 21.7853C84.773 21.7535 85.0078 22.1014 85.4299 22.278C91.4926 24.8176 89.354 31.8851 88.5716 33.3862C87.7716 34.9191 87.9624 36.9429 87.9624 36.9429C86.078 36.392 84.3491 36.7557 82.8286 36.9959C79.8175 37.4745 77.8114 36.9394 76.2449 36.2224C74.9999 35.652 73.0414 34.3557 72.7429 31.8798C72.6864 31.4277 72.395 31.1151 72.2167 31.954C71.9129 33.3862 72.1248 35.1346 73.1509 36.2348C72.0295 41.7535 61.2021 41.3509 61.2021 41.3509C60.4833 38.9686 55.5615 38.2445 54.4489 34.7814C53.9209 33.139 54.3535 31.4242 54.3535 31.4242C57.1844 32.1059 58.8233 30.7425 59.7416 29.5999C60.2767 28.9323 59.8493 28.9023 59.4679 29.146C55.8811 31.4118 52.5451 29.1478 51.8476 25.9531C50.9169 22.4582 47.5103 21.2908 47.5103 21.2908C49.9915 19.7279 49.2922 17.0277 50.5849 14.7425C53.988 8.72042 58.8286 10.5235 58.8286 10.5235C59.2966 11.9522 60.7235 12.9853 62.1257 13.4092C62.9434 13.6564 62.8145 13.2502 62.4436 12.9836C59.0052 10.5076 59.8546 6.56413 62.5619 4.72395C67.2842 1.50806 68.093 0.116447 68.093 0.116447C68.9601 0.773401 71.2595 1.34382 73.6807 1.55751C79.1023 2.03963 80.3791 4.86347 80.4886 5.94073C79.8493 6.27804 78.7579 7.29349 78.2493 8.91468C77.995 9.73058 78.4047 9.60342 78.6749 9.2361C80.7853 6.34515 83.3849 6.88908 85.8237 8.00696C87.3637 8.71513 89.5959 10.5164 91.8123 10.0361" fill="#EF3138"/>
<path d="M6 41.3457C6 61.7448 20.6084 78.6931 39.8243 82.0768C39.6689 83.5585 39.4834 84.9395 39.2592 86.045C37.9399 92.5739 33.4684 98.5766 31.049 100C37.5161 99.4402 42.657 97.5064 45.7192 94.4742H45.7121C45.4967 94.4759 43.4728 94.4512 43.2945 94.4477C44.5166 93.9779 45.7245 93.4022 46.8954 92.7276C46.8971 92.7276 46.8971 92.7258 46.8971 92.7258C46.8971 92.7223 46.8989 92.7188 46.8989 92.7152C46.9007 92.717 46.9042 92.7188 46.906 92.7205C47.351 88.9166 47.2132 84.3744 46.2102 78.8274C44.9033 71.5921 42.1748 69.1974 41.7863 68.7152C41.7616 68.6834 41.7351 68.657 41.7475 68.6252C41.7563 68.5987 41.8269 68.5686 41.8517 68.5528C44.1298 67.1258 46.1219 65.404 47.0561 64.6093C47.7713 64 47.4887 63.7263 46.7735 64.0547C44.8627 64.9307 41.6733 66.0486 37.6292 66.5501C34.0759 66.9881 29.864 66.9351 25.2812 66.0468C25.2812 66.0468 22.0724 65.5735 22.5457 62.3064C22.6746 61.3916 23.1355 60.4539 23.5029 59.5444C23.6194 59.2583 23.9267 58.3717 23.7607 57.6547C23.7201 57.4746 23.4923 57.1444 23.3581 56.9395C23.1214 56.5775 23.0366 56.0777 23.2821 55.4931C23.4905 55.0004 24.3347 54.2764 25.5249 54.1616C26.1113 54.1068 26.7594 54.1104 27.4093 54.1174C28.2534 54.1245 29.1029 54.1316 29.8269 54.0026C31.6883 53.6742 32.8009 52.4115 32.5819 51.9982C32.4336 51.7227 30.7735 52.0565 30.2084 52.1695C29.3784 52.3355 27.8667 51.6627 27.0755 51.4066C25.8463 51.0057 25.2071 50.6861 24.1422 51.1399C23.4799 51.4243 22.9572 52.7611 22.77 52.1395C22.6852 51.8516 22.8477 51.5373 23.0773 51.1982C23.2927 50.8786 23.7254 50.2764 23.7872 49.9338C23.8525 49.5488 23.9461 49.0013 22.8759 48.2437C22.1166 47.7051 21.5938 47.2706 21.2724 46.9422C20.2464 45.909 20.068 44.8371 22.0371 43.1611C23.4411 41.9655 26.5439 38.762 27.4887 36.8053C27.6371 36.498 28.3876 35.2742 27.5647 34.0486C26.9307 33.1055 26.8159 32.9236 26.6499 32.6022C26.1943 31.7227 26.5192 30.9404 27.268 29.7695C27.6336 29.1973 27.9196 28.5033 28.702 26.0574C29.5709 23.3342 30.9748 20.9236 32.8927 18.8715H32.8874C33.0199 18.4724 33.2477 15.3236 35.0826 12.3885C35.6795 11.2459 36.4795 10.0362 37.5709 8.85826C38.3055 8.06886 39.4605 7.1523 40.9828 6.26929C42.5051 5.38629 44.3894 4.53684 46.5828 3.88342C49.2159 3.09755 52.2887 2.59071 55.7024 2.64192C58.2525 2.67901 60.6808 2.88035 63.5682 3.65386C63.5682 3.65386 63.5718 3.65562 63.5735 3.65562C63.5859 3.65915 63.7077 3.69095 63.9179 3.75276C58.7329 1.3457 52.9669 0 46.8883 0C24.3064 0 6 18.5095 6 41.3457V41.3457ZM22.3214 46.4388C22.2684 46.5748 22.3956 46.6437 22.5528 46.7196C23.3086 47.0711 23.6583 47.2512 25.0163 48.0653C26.604 49.0172 27.2945 48.2296 27.6336 47.6221C27.7289 47.4578 27.8702 46.7832 27.7148 46.5448C27.5594 46.3064 27.268 46.46 26.9607 46.7603C26.6146 47.0976 25.7704 46.9157 25.4879 46.8857C25.2088 46.8539 23.9126 46.5271 23.0684 46.3505C22.9112 46.317 22.7823 46.3046 22.6764 46.3046C22.4609 46.3046 22.3497 46.3629 22.3214 46.4388" fill="url(#paint0_linear_2099_2166)"/>
<defs>
<linearGradient id="paint0_linear_2099_2166" x1="36.5795" y1="9.75398" x2="34.3151" y2="66.1337" gradientUnits="userSpaceOnUse">
<stop stop-color="#D2068A"/>
<stop offset="0.736963" stop-color="#413691"/>
<stop offset="1" stop-color="#413691"/>
</linearGradient>
</defs>
</svg>
