<svg width="100" height="100" viewBox="0 0 100 100" fill="none" xmlns="http://www.w3.org/2000/svg">
<path d="M83.9253 52.957L81.3954 49.3227L73.7686 51.5092L78.6566 45.2555L74.2238 38.6809L81.679 41.3973L86.567 35.1436L86.2834 43.0764L87.6267 43.5615L83.9253 52.957Z" fill="#088038"/>
<path d="M91.3209 31.2772C85.3507 30.2772 75.5597 28.113 59.2761 31.5682C57.8881 31.8592 56.4552 32.1951 54.9627 32.5831C52.9727 33.0806 50.8732 33.6851 48.6642 34.3966L43.1418 40.6951C43.1418 40.6951 44.4478 40.5607 45 40.5309C45.9179 40.5309 47.6642 40.4413 49.3284 40.5309C50.6316 40.5634 51.9297 40.7057 53.2089 40.9563C58.0895 41.8219 63.403 44.0906 65.7985 49.6354C70.0448 59.4339 63.3284 71.7175 48.5522 78.1279C36.2313 83.4637 5.59702 83.6055 5.59702 83.6055L0 89.9936H28.4403C70.2313 89.9936 74.8358 75.3443 83.9329 52.9936L81.3955 49.3592L73.7687 51.5384L78.6567 45.2921L74.2239 38.71L81.6866 41.4264L86.5746 35.1801L86.2911 43.1055L87.6343 43.5906C89 39.9786 90.6194 35.6727 92.1119 31.4787C91.8493 31.4061 91.5827 31.3488 91.3134 31.307" fill="#FFD803"/>
<path d="M54.4551 27.8148L62.9252 18.1656C66.5148 14.2178 69.8506 9.91182 80.9401 10.0014H99.9998L93.8655 26.9193C93.8655 26.9193 74.2461 22.0238 54.4551 27.8073" fill="#D41219"/>
<path d="M8.78369 79.9412C16.9479 79.6651 34.321 79.195 45.4479 74.4786C57.8732 69.2174 62.4926 60.0756 58.9404 51.8666C54.7464 42.1651 39.918 44.4039 39.918 44.4039L8.821 79.8965V79.9412" fill="#088038"/>
</svg>
