<svg width="100" height="100" viewBox="0 0 100 100" fill="none" xmlns="http://www.w3.org/2000/svg">
<circle cx="50" cy="50" r="50" fill="url(#paint0_linear_2099_2183)"/>
<path d="M88.6177 18.2393C89.9575 19.8665 91.1942 21.5812 92.3228 23.3711C86.0459 26.9921 79.5717 32.1788 71.271 39.2266C60.9708 47.972 47.5107 58.4773 37.0161 66.8506C30.4297 72.1057 20.8749 76.826 10.1196 80.1582C7.94398 77.2857 6.07094 74.1719 4.54932 70.8623C18.7681 65.7842 29.871 58.2775 39.7788 51.3809C55.4699 40.4586 71.1614 26.0247 88.6177 18.2393Z" fill="#E87B2E"/>
<path d="M96.5703 31.7656C97.7042 34.6592 98.5754 37.6843 99.1562 40.8115C96.8082 42.4677 94.5193 44.2533 92.2656 46.1328C75.2786 60.2999 62.1548 78.7293 32.873 87.0166C27.6836 88.4853 23.6453 89.3105 19.4902 89.6113C18.1533 88.5801 16.8693 87.4839 15.6445 86.3252C27.2015 82.7514 36.5329 77.5731 44.751 72.0996C62.5349 60.2548 74.3204 46.4624 87.8457 37.0166C90.6551 35.0546 93.5389 33.2743 96.5703 31.7656Z" fill="#9CC83C"/>
<defs>
<linearGradient id="paint0_linear_2099_2183" x1="50" y1="0" x2="50" y2="100" gradientUnits="userSpaceOnUse">
<stop stop-color="#27A141"/>
<stop offset="1" stop-color="#003317"/>
</linearGradient>
</defs>
</svg>
