<svg width="100" height="100" viewBox="0 0 100 100" fill="none" xmlns="http://www.w3.org/2000/svg">
<path d="M32.5735 49.876V49.8796L32.4333 49.8505C31.4507 49.6854 30.4784 49.4636 29.5214 49.1863C29.3788 49.1467 29.2368 49.1049 29.0955 49.0608C28.444 49.9817 27.7434 50.8662 26.988 51.7051C27.3511 51.7139 27.7161 51.7183 28.0745 51.6942C30.1475 51.5959 32.1567 51.1773 34.1039 50.5385L34.2987 50.4748L34.346 50.4639C33.6471 50.2909 32.5116 49.8488 32.5735 49.876ZM29.6804 48.2139C29.6804 48.2139 29.6804 48.2102 29.6749 48.2083L29.6804 48.2047L29.6877 48.1919C23.9512 43.8168 21.5307 35.3521 13.4319 32.453C19.6052 30.189 25.651 31.9762 30.7709 34.9245C32.4343 34.253 33.8466 33.3594 35.1897 32.3856C32.6855 29.1988 29.3877 26.9712 25.908 25.457H0.0473633C0.0910419 25.4735 0.646051 25.67 0.666144 25.6791C0.831674 25.7376 0.995533 25.8007 1.15753 25.8683C1.50696 26.0122 1.85639 26.1777 2.193 26.3561C2.36044 26.4398 2.52612 26.5344 2.69895 26.6291C2.84454 26.711 2.98839 26.8001 3.13762 26.8858C3.29414 26.9768 3.40872 27.0459 3.42518 27.0605C3.43813 27.0689 3.41629 27.0561 3.34524 27.0143C5.12704 28.119 6.94873 29.7169 8.55028 31.9153C12.3777 37.1821 18.8771 45.9277 29.0952 49.0636C29.2898 48.7794 29.4948 48.504 29.6804 48.2139ZM37.0101 39.3382C37.5488 39.7878 38.2932 40.2664 39.0793 40.7269C38.7536 39.2564 38.3023 37.8968 37.7471 36.6447C37.3704 36.7685 37.0046 36.8886 36.6442 36.9959C35.9818 37.2016 35.3339 37.3781 34.7168 37.5346C35.5176 38.1279 36.2821 38.734 37.0101 39.3382ZM64.0223 28.5249C63.1588 28.0723 62.2691 27.6719 61.3579 27.3256C59.1885 26.5104 56.9283 26.0026 54.5187 25.7225C54.5024 25.7225 54.4842 25.7225 54.4677 25.7206C52.7424 25.5495 51.0044 25.4822 49.2665 25.4604H49.0243C42.2905 26.1702 39.0382 29.5935 35.1872 32.389C36.0518 33.4846 36.8179 34.7039 37.4641 36.0379C37.5623 36.2417 37.6533 36.4383 37.7499 36.6475C39.0656 36.209 40.4815 35.6756 42.0213 35.0532C50.8389 31.4698 57.3511 30.345 62.1266 30.345C64.4288 30.345 66.3215 30.6034 67.8776 30.9802C66.651 30.0411 65.3671 29.2237 64.0223 28.5249Z" fill="#D93722"/>
<path d="M69.7213 32.5036C69.7213 32.5036 69.716 32.5017 69.714 32.498H69.7159C62.8327 35.0078 59.7097 40.5604 55.9043 45.9674H55.9116C57.5115 45.8491 59.6989 46.0894 61.0894 47.4779C64.3707 46.9941 66.0359 46.8408 67.4683 46.7153C69.0769 43.3252 71.0365 39.4608 74.5973 37.7685C73.0798 35.9045 71.446 34.1798 69.7213 32.5036ZM82.0053 48.9506C78.2143 47.3891 73.923 46.6575 69.5479 46.6575C68.8582 46.6575 68.1647 46.6776 67.4695 46.7157C66.6706 48.3956 65.9444 50.1098 65.1927 51.8079C64.4617 53.4335 63.9297 54.6956 62.7668 56.7108C63.584 55.7681 64.3938 54.9127 65.2383 54.2448C69.6061 50.8305 75.6592 46.9886 82.0385 49.0016C82.0276 48.987 82.0162 48.9671 82.0053 48.9506ZM82.2276 49.3105C77.3557 51.1996 75.0879 55.2089 72.34 59.1164H72.3436C73.5156 59.0273 75.1208 59.2093 76.1419 60.2229L76.2547 60.2612C77.254 60.6415 78.3731 60.9764 79.3906 61.5151C80.1168 61.8936 80.8101 62.2813 81.4762 62.6689C84.2462 61.5242 86.8068 60.7034 88.9289 60.3285C86.6657 56.6739 84.4585 52.9849 82.2276 49.3105Z" fill="#C0D83C"/>
<path d="M76.2552 60.2633L76.1406 60.2232C76.1443 60.2251 76.1462 60.2289 76.1498 60.2289C73.1377 60.8258 71.7036 62.229 69.589 63.7086C67.1066 65.4466 63.6269 67.4723 59.4427 68.3823C54.8019 69.3886 49.7606 68.6152 45.5037 65.9562L45.471 65.9507H45.4654H45.4946C45.4819 65.9453 45.4708 65.9344 45.4582 65.9288C50.8561 66.4748 54.465 64.857 57.2458 62.5858C57.2367 62.5841 57.2276 62.5803 57.2131 62.5749C57.2022 62.5749 57.1912 62.5749 57.1784 62.5731L57.0692 62.6241C54.1865 64.0546 50.3775 64.7425 46.2043 64.7425C37.4376 64.7425 27.0658 61.6996 20.332 56.0449C20.5213 56.3451 20.7251 56.6655 20.9416 56.993C29.3771 65.5286 44.7989 70.1313 57.5298 70.1313C63.5647 70.1313 68.9954 69.0976 72.7911 66.9537C75.7449 65.2849 78.7132 63.8216 81.4776 62.6714C80.8134 62.2838 80.1199 61.8961 79.3919 61.5195C78.3764 60.9844 77.2553 60.6422 76.2543 60.2637" fill="#8DC643"/>
<path d="M67.4691 46.7109C59.2188 47.344 57.8555 48.0959 53.8159 50.9769C56.9298 52.7701 58.3281 54.9377 62.7682 56.7097C64.8663 53.7722 65.9329 49.9625 67.4691 46.7109ZM20.9419 56.9951C21.7408 58.2108 22.7237 59.6449 23.8866 61.2156C32.04 72.2462 39.7725 74.5431 50.0443 74.5431H99.9995C99.9831 74.5322 99.9685 74.5159 99.9558 74.5103C96.6799 73.3893 93.111 70.5301 87.4964 66.61C85.7201 65.3706 83.7618 64.0056 81.4779 62.6699C78.7132 63.8165 75.7487 65.2889 72.7912 66.9522C68.995 69.0961 63.5678 70.1298 57.5299 70.1298C44.7995 70.1298 29.3777 65.527 20.9419 56.9951ZM52.5054 60.3033L52.4923 60.2829C50.7562 58.776 49.4149 56.765 47.9425 54.8286C46.9597 55.38 44.0389 56.9016 40.9887 57.8733C34.147 60.0475 26.7862 59.2618 20.4785 55.9078C30.5469 61.6877 36.5781 64.1721 52.4957 60.3029C52.4901 60.3029 52.4901 60.2937 52.4848 60.2937L52.5066 60.3029L52.5054 60.3033Z" fill="#A5CE42"/>
<path d="M82.0492 49.0184C79.6995 45.1747 77.3864 41.3075 74.5982 37.7695C73.8158 38.1353 73.1005 38.6339 72.4564 39.2018C70.7346 40.7341 69.497 42.7525 68.436 44.7763C68.1012 45.415 67.7791 46.0612 67.4697 46.7127C68.1649 46.6763 68.8619 46.6581 69.5517 46.6581C73.9232 46.6581 78.2183 47.3879 82.0057 48.9513C82.022 48.9695 82.0329 48.9968 82.0494 49.0185L82.0492 49.0184ZM81.4785 62.6695C83.7626 64.0054 85.7208 65.3703 87.4971 66.6097C93.1116 70.5262 96.6805 73.3889 99.9564 74.51C99.971 74.5209 99.9837 74.5318 100 74.5427C96.7696 72.377 93.4466 67.616 88.9312 60.3309C86.8073 60.704 84.2486 61.5247 81.4785 62.6694" fill="#DAE34C"/>
<path d="M35.3858 50.6819C35.0039 50.6057 34.6579 50.5343 34.3267 50.4581C34.3369 50.4602 34.1465 50.5241 34.1028 50.5382C31.8198 51.285 29.3983 51.7683 26.987 51.7047C24.3906 54.3831 22.7723 55.5948 19.7727 55.1552C19.7946 55.1935 19.8182 55.228 19.8419 55.268C26.9088 55.8705 31.6935 53.6975 35.3858 50.6819ZM49.2178 25.459H25.9094C29.3855 26.9695 32.6832 29.1953 35.1911 32.3876C39.0385 29.5939 42.2872 26.1688 49.0244 25.459H49.2178ZM0.0283911 25.459H0C0.00727977 25.459 0.0145595 25.4609 0.0164523 25.4645C0.0200922 25.4677 0.0218393 25.4677 0.0254792 25.4677H0.0291191C0.0331014 25.4701 0.0374188 25.472 0.0419315 25.4731C2.80999 26.6869 4.74641 29.3004 6.35713 31.7499C8.84317 35.5409 10.9143 39.6065 13.0854 43.5759C13.2145 43.8143 13.3456 44.0527 13.4785 44.2912C17.2948 48.3734 21.7902 51.5363 26.9861 51.7056C27.7413 50.8702 28.4421 49.982 29.0917 49.0648C18.8753 45.9272 12.3803 37.1819 8.55111 31.9166C6.56788 29.1878 3.63281 26.594 0.317107 25.5606C0.216937 25.526 0.124338 25.4932 0.0276631 25.4604L0.0283911 25.459ZM42.8837 42.6909C47.4219 37.5002 60.6436 29.2641 69.5535 32.3574C69.0675 31.9442 68.3068 31.3109 67.8792 30.9816C66.3213 30.6048 64.4286 30.3463 62.1264 30.3463C57.3509 30.3463 50.8391 31.4747 42.0226 35.0546C40.4793 35.677 39.0634 36.2103 37.7457 36.6471C38.3008 37.8992 38.7503 39.2588 39.0779 40.7293C39.0797 40.7311 39.0852 40.7311 39.0852 40.7311C40.3147 41.4531 41.5896 42.0935 42.8837 42.6909Z" fill="#E24D25"/>
<path d="M26.9858 51.7063C21.7895 51.5359 17.3008 48.3765 13.4803 44.2911C13.3814 44.1071 13.2807 43.9242 13.1782 43.7422C13.2347 43.8441 13.2911 43.9441 13.3475 44.0497C15.4077 47.797 17.548 51.5933 19.8047 55.2186C19.8083 55.2186 19.8083 55.2186 19.8102 55.2222C19.7993 55.1968 19.783 55.1786 19.7738 55.1531C23.3984 55.8518 25.0334 53.8732 26.9858 51.7063Z" fill="#F26D20"/>
<path d="M57.0691 62.622L57.1801 62.571C55.2638 62.2344 53.7787 61.4008 52.5048 60.3015C52.4902 60.3015 52.472 60.307 52.4502 60.3124H52.4447C47.3762 61.2551 42.5823 62.0651 38.5876 62.0651C37.7305 62.0651 36.9115 62.0323 36.1343 61.9449C30.1486 61.3225 24.4011 58.2541 21.4743 56.4359C21.0193 56.2085 20.5571 55.9518 20.1094 55.6934C20.1494 55.7552 20.286 55.9736 20.3241 56.0338C20.326 56.041 20.3278 56.041 20.3314 56.0429C27.0652 61.6957 37.4403 64.7405 46.2066 64.7405C50.3779 64.7405 54.1852 64.0526 57.068 62.6221" fill="#7CBE42"/>
<path d="M29.5929 48.3443C29.4272 48.5846 29.2653 48.8267 29.0942 49.0633C30.189 49.3993 31.3045 49.6631 32.4338 49.8531L32.574 49.8804V49.8767C31.5148 49.4363 30.5611 48.8612 29.6875 48.1951L29.5929 48.3443V48.3443ZM37.4682 36.041C36.8412 34.7448 36.0779 33.5192 35.1912 32.3848C33.8444 33.3639 32.4231 34.2574 30.7561 34.9327C32.1448 35.7317 33.4698 36.6233 34.7074 37.5388C35.3567 37.3743 36.0017 37.1935 36.6419 36.9965C37.0024 36.8892 37.3699 36.7691 37.7467 36.6453C37.6557 36.4396 37.5611 36.2413 37.4682 36.0411" fill="#C81B21"/>
</svg>
