<svg width="100" height="100" viewBox="0 0 100 100" fill="none" xmlns="http://www.w3.org/2000/svg">
<path d="M95.3282 50.0087C95.3282 24.6001 75.2196 4.38867 49.8082 4.38867C24.3967 4.38867 4.29102 24.603 4.29102 50.0144C4.29102 75.4201 24.4053 95.6144 49.811 95.6144C75.2224 95.6201 95.3253 75.4201 95.3253 50.0144L95.3339 50.0087H95.3282Z" fill="#00D66C"/>
<path d="M69.9198 56.5918H67.3598C64.7998 56.5918 63.7083 57.9575 63.3369 60.6061C62.6912 65.4546 58.8569 68.7375 53.8283 68.7375C47.9826 68.7375 44.2398 64.4461 44.2398 58.2232V43.6061C44.2398 43.0204 44.1541 42.5061 44.0112 42.0461C44.5598 42.2946 45.2169 42.4232 45.9712 42.4232H59.4055C61.9712 42.4232 63.4283 40.9575 63.4283 38.4032V37.2175C63.4283 34.6546 61.9712 33.1946 59.4055 33.1946H51.8283V24.9575C51.8283 22.4032 50.3598 20.9375 47.8055 20.9375H45.9712C43.4169 20.9375 41.9541 22.4061 41.9541 24.9575V38.4004C41.9541 38.9775 42.0283 39.4946 42.1826 39.9575C41.6283 39.7118 40.9712 39.5861 40.2169 39.5861H26.7826C24.2255 39.5861 22.7598 41.0489 22.7598 43.6061V44.7975C22.7598 47.3575 24.2255 48.8204 26.7826 48.8204H34.3712V58.2204C34.3712 70.0118 41.9569 78.2404 53.8398 78.2404C64.9026 78.2404 72.2112 71.1975 73.5826 60.6004C73.9426 57.9489 72.2055 56.5889 69.9169 56.5889L69.9198 56.5918Z" fill="white"/>
</svg>
