<svg width="100" height="100" viewBox="0 0 100 100" fill="none" xmlns="http://www.w3.org/2000/svg">
<path d="M100 50C100 77.6 77.6286 100 50 100C22.4 100 0 77.6 0 50C0 22.4 22.4 0 50 0C77.6286 0 100 22.4 100 50Z" fill="#ED1D24"/>
<path fill-rule="evenodd" clip-rule="evenodd" d="M40.7588 49.7341C44.6885 52.2387 48.7477 52.4331 50 54.765C51.2523 52.4331 55.3115 52.2387 59.2628 49.7341C62.1561 47.8772 63.9482 45.459 63.9482 42.2634C63.9482 39.5213 62.1129 36.2825 59.2628 34.4904C60.9038 36.0882 62.1345 38.5712 62.1345 40.7952C62.1345 44.0339 60.3424 47.0999 55.3763 49.1727C52.958 50.1875 50.9068 50.533 50.0216 51.591C49.1363 50.533 47.0851 50.1875 44.6669 49.1727C39.7008 47.0999 37.9087 44.0339 37.9087 40.7952C37.9087 38.5712 39.1394 36.0882 40.7804 34.4904C37.9087 36.2825 36.095 39.5213 36.095 42.2634C36.0734 45.459 37.8655 47.8772 40.7588 49.7341ZM45.2498 47.2079C47.1283 48.2875 49.1579 48.6545 50.0216 49.5614C50.8853 48.6545 52.9149 48.3091 54.7717 47.2079C57.0389 45.8908 58.4207 43.7964 58.8094 41.3566C59.673 35.6996 56.0025 31.7267 53.3467 25.7458C51.1228 20.715 50.0216 14 50.0216 14C50.0216 14 48.942 20.715 46.6965 25.7458C44.0407 31.7051 40.3485 35.678 41.2338 41.3566C41.6009 43.7964 42.9827 45.8908 45.2498 47.2079ZM50.0216 41.5293C51.4466 41.5293 52.6126 42.6737 52.6126 44.1203C52.6126 45.5453 51.4466 46.7113 50.0216 46.7113C48.575 46.7113 47.4306 45.5669 47.4306 44.1203C47.4306 42.6737 48.5965 41.5293 50.0216 41.5293ZM71.6996 70.8075C70.9007 68.7563 70.5552 67.2449 69.8211 65.4312C66.5176 57.3991 60.4719 56.9457 56.9741 57.5935C52.0728 58.5003 50 61.9334 50 61.9334C50 61.9334 47.9488 58.5003 43.0259 57.5935C39.5281 56.9457 33.4824 57.3991 30.2005 65.4312C29.4664 67.2233 29.0993 68.7347 28.3004 70.8075C27.4368 73.053 26.4436 74.694 25.0401 75.5361C24.0469 76.1191 22.665 76.5941 20.5922 76.8748C24.781 78.926 31.9494 79.7465 37.4121 76.81C42.4213 74.111 44.2782 69.8359 45.4874 66.2733C46.0056 64.7187 46.7181 63.8766 47.0851 63.5527C47.4738 63.1857 47.9272 62.905 48.4454 62.7323C48.9204 62.5595 49.4602 62.4516 50.0216 62.4516C50.583 62.4516 51.1012 62.5379 51.5978 62.7323C52.116 62.905 52.5694 63.1857 52.958 63.5527C53.3251 63.8766 54.0376 64.7187 54.5558 66.2733C55.765 69.8143 57.6218 74.111 62.6311 76.81C68.0938 79.7465 75.2622 78.9476 79.451 76.8748C77.3782 76.5941 75.9963 76.1191 75.0031 75.5361C73.5565 74.694 72.5632 73.0746 71.6996 70.8075ZM43.0475 60.2708C42.0111 60.2492 40.7156 60.2924 39.8519 60.9617C39.2258 61.4368 39.1394 62.0845 39.3337 62.5595C39.5713 63.1641 40.2838 63.4016 40.8667 63.1641C41.3849 62.9698 41.6656 62.43 41.4713 61.9118C41.3634 61.6311 41.1474 61.4368 40.8667 61.372C42.1622 61.48 42.8532 62.797 42.3566 64.0278C42.0759 64.7403 41.4065 65.3233 40.4997 65.5176C38.6212 65.9494 36.9587 64.8266 36.5484 63.4232C36.203 62.1925 36.4836 60.789 37.9951 59.7742C41.0611 57.6798 46.9772 59.1912 49.3522 62.4516C47.9056 61.264 45.5737 60.314 43.0475 60.2708ZM63.4516 63.4664C63.0413 64.8482 61.3788 65.9926 59.5219 65.5608C58.6151 65.3448 57.9457 64.7835 57.665 64.0709C57.1684 62.8402 57.8593 61.5015 59.1548 61.4152C58.8741 61.4799 58.6582 61.6743 58.5503 61.955C58.356 62.4516 58.6366 62.9914 59.1548 63.2073C59.7594 63.4448 60.4503 63.2073 60.7094 62.6027C60.9038 62.1061 60.8174 61.4799 60.1912 61.0049C59.3276 60.3356 58.0105 60.2924 56.9957 60.314C54.4695 60.3572 52.1592 61.3288 50.6693 62.5379C53.0228 59.2776 58.9605 57.7662 62.0265 59.8606C63.4948 60.8322 63.797 62.2357 63.4516 63.4664ZM75.7156 34.7279C69.67 35.2677 67.2949 38.8951 66.1073 43.9907C64.4448 51.2023 59.3276 52.7569 55.182 54.3547C50.9284 55.9957 50 58.2628 50 58.2628C50 58.2628 49.0716 56.0173 44.818 54.3547C40.6724 52.7569 35.5552 51.2023 33.8927 43.9907C32.7051 38.8951 30.3516 35.2677 24.2844 34.7279C19.8149 34.3393 16.2955 36.2394 15 36.9951C15 36.9951 16.5114 37.0382 17.8717 38.0099C18.8649 38.7224 19.9013 39.8236 20.5922 42.5873C21.9093 47.8988 23.1184 49.8205 24.5435 51.4614C26.6595 53.9013 30.8914 56.4059 39.3769 55.9741C45.9624 55.6502 48.8988 58.3276 50 59.6663C51.1012 58.3276 54.0376 55.6286 60.6231 55.9741C69.1086 56.4059 73.3405 53.9013 75.4565 51.4614C76.8816 49.8205 78.0907 47.8988 79.4078 42.5873C80.0987 39.8236 81.1351 38.7224 82.1283 38.0099C83.4886 37.0382 85 36.9951 85 36.9951C83.7045 36.2394 80.1851 34.3393 75.7156 34.7279Z" fill="white"/>
</svg>
