<svg width="100" height="100" viewBox="0 0 100 100" fill="none" xmlns="http://www.w3.org/2000/svg">
<path fill-rule="evenodd" clip-rule="evenodd" d="M50.0001 0C77.6094 0 100 22.3899 100 49.9996C100 77.61 77.6094 100 50.0001 100C22.3905 100 0 77.61 0 49.9996C0 22.3899 22.3905 0 50.0001 0Z" fill="#F8DA55"/>
<path fill-rule="evenodd" clip-rule="evenodd" d="M49.9999 0C77.6098 0 100 22.3903 100 50C100 77.6096 77.6098 99.9998 49.9999 99.9998C22.3901 99.9998 0 77.6096 0 50C0 22.3903 22.3901 0 49.9999 0ZM49.9999 4.09016C75.3516 4.09016 95.9107 24.6492 95.9107 50C95.9107 75.3516 75.3516 95.9106 49.9999 95.9106C24.6498 95.9106 4.09019 75.3516 4.09019 50C4.09019 24.6492 24.6498 4.09016 49.9999 4.09016Z" fill="#E03538"/>
<path fill-rule="evenodd" clip-rule="evenodd" d="M42.3929 47.6959C42.3612 47.7191 42.353 47.7335 42.2791 47.7335C42.205 47.7335 42.0879 47.62 42.0879 47.5423C42.0879 47.4647 42.1067 47.4478 42.1374 47.4139L52.1012 29.8582C53.2405 27.8496 55.053 27.0442 57.3314 27.0396L74.7983 26.938L76.0278 26.939L76.0409 26.9388L76.099 26.939C78.2989 26.9404 80.0022 26.3584 81.6575 24.8421L81.6585 24.843C81.6815 24.8234 81.7096 24.8105 81.7415 24.8105C81.8111 24.8105 81.8658 24.8662 81.8658 24.9356C81.8658 24.9578 81.8608 24.9784 81.8511 24.9958L81.8382 25.0125L81.8367 25.0136L71.6827 38.1895C70.9425 39.15 68.8839 40.1233 67.0597 40.1233H53.1594C51.5717 40.1233 50.0669 40.5949 48.8975 41.6769L42.3941 47.6969L42.3929 47.6959Z" fill="#0C9050"/>
<path fill-rule="evenodd" clip-rule="evenodd" d="M81.3618 62.3393C79.7064 63.8556 78.0031 64.4372 75.8032 64.436C66.3809 64.4277 56.5257 64.4186 47.1351 64.4114H47.1077C46.1424 64.4114 45.3604 63.6292 45.3604 62.6638C45.3604 61.7185 46.1107 60.9481 47.0485 60.9174L47.0632 60.9166H47.1077H47.1599C51.7741 60.9012 59.1038 60.9166 64.2626 60.9166C65.7889 60.836 67.0925 60.431 68.0408 59.0973L81.3705 41.8019L81.3703 41.8017L81.4317 41.7216L81.4325 41.7213L81.447 41.7022C81.4561 41.6854 81.4608 41.665 81.4608 41.6436C81.4608 41.5742 81.4062 41.5186 81.3366 41.5186C81.3051 41.5186 81.2766 41.5314 81.2536 41.5511L81.2528 41.5501C79.5974 43.0664 77.8941 43.6484 75.694 43.647H75.6603H75.653L75.3397 43.6466L75.2511 43.647C68.8511 43.647 60.0243 43.647 53.6245 43.647C51.6346 43.647 49.6987 44.3056 48.3969 46.0584C47.9644 46.608 47.5205 47.1365 47.1967 47.7087L39.6491 61.0331L39.6467 61.0361C38.3786 63.2674 35.9803 64.7724 33.2301 64.7724C29.1566 64.7724 25.8543 61.4704 25.8543 57.3968C25.8543 53.3232 29.1566 50.0208 33.2301 50.0208C33.6324 50.0208 34.0269 50.0537 34.4114 50.1157C34.5198 50.0844 34.5989 49.9857 34.5989 49.8672C34.5989 49.8134 34.5826 49.7626 34.5543 49.7206L30.3447 44.2533C29.3338 42.9404 27.7837 42.3097 26.1815 42.9248L26.1789 42.9208L26.1337 42.9438C25.8671 43.0508 25.6075 43.193 25.3551 43.373C20.5018 46.2131 17.1426 51.2836 17.1426 57.3134C17.1426 66.3578 24.1765 73.4899 33.2206 73.4899L33.3928 73.4887C33.5384 73.5036 33.6805 73.5204 33.828 73.5345H72.6961H72.7123H72.7149C72.9547 73.5345 73.1689 73.418 73.3007 73.2386L73.3066 73.2361L81.5409 62.5109L81.5451 62.5081C81.5613 62.4885 81.57 62.4619 81.57 62.4328C81.57 62.3634 81.5153 62.3078 81.4458 62.3078C81.4141 62.3078 81.3857 62.3206 81.3628 62.3401L81.3618 62.3393Z" fill="#0C9050"/>
</svg>
