<svg width="100" height="100" viewBox="0 0 100 100" fill="none" xmlns="http://www.w3.org/2000/svg">
<path d="M0 25C0 11.1929 11.1929 0 25 0H75C88.8072 0 100 11.1929 100 25V75C100 88.8072 88.8072 100 75 100H25C11.1929 100 0 88.8072 0 75V25Z" fill="#12470D"/>
<path d="M36.3816 34.1928C55.3954 31.2236 75.6627 33.4409 94.365 37.4134C92.4525 37.3683 90.5474 37.1428 88.6349 37.0901C80.3533 36.7067 72.0221 37.1488 63.8502 38.5787C62.715 38.7606 61.6159 39.1094 60.5093 39.4101C57.3954 40.3078 54.2905 41.3106 51.3947 42.7811C49.9738 43.5389 48.5349 44.3945 47.5425 45.692C47.2509 46.113 46.875 46.6167 47.0464 47.158C47.293 47.7549 47.9395 48.0286 48.5018 48.2481C50.2805 48.8676 52.1765 49.0209 54.0394 49.1968C59.9274 49.7847 65.8108 50.4057 71.6868 51.1064C75.7599 51.6161 79.8421 52.0942 83.8746 52.8776C84.7692 53.0926 85.73 53.2023 86.5149 53.7241C84.455 54.0864 82.3605 54.2383 80.2841 54.4894C70.9049 55.4817 61.4971 56.1704 52.0878 56.7853C51.1797 56.88 50.2249 57.0033 49.44 57.507C48.8943 57.8483 48.5725 58.5851 48.8446 59.1985C49.1017 59.7654 49.6415 60.1383 50.1723 60.4299C51.5029 61.1366 52.9794 61.499 54.4394 61.8373C57.5292 62.5034 60.6747 62.8672 63.8171 63.1724C67.982 63.5694 72.1619 63.7904 76.3403 63.9889C75.9253 64.4384 75.3164 64.6083 74.754 64.7933C73.067 65.2834 71.3214 65.5255 69.5848 65.7616C64.7238 66.3675 59.8312 66.6772 54.9416 66.9494C51.3826 67.0336 47.8162 67.0351 44.2633 66.772C41.7583 66.5645 39.2339 66.2788 36.8342 65.497C35.0985 64.8997 32.7607 63.734 33.0467 61.5291C33.3415 59.11 35.2912 57.4981 37.383 56.6004C29.1059 56.3207 20.8197 56.0816 12.5697 55.3148C10.8601 55.1419 9.14758 54.957 7.46659 54.5931C6.81254 54.4262 6.06377 54.2969 5.63525 53.7165C6.38854 53.0595 7.38841 52.849 8.32813 52.6069C10.5083 52.0972 12.723 51.7664 14.9363 51.4447C19.8018 50.7575 24.6914 50.2538 29.5765 49.7411C26.9919 48.7007 24.3742 47.6827 22.0075 46.1882C20.4786 45.1968 17.8697 43.3166 18.9343 41.1543C19.3913 40.198 20.2694 39.5394 21.1415 38.9831C25.6454 36.2362 31.2897 35.2051 36.3816 34.1928Z" fill="white"/>
</svg>
