<svg width="100" height="100" viewBox="0 0 100 100" fill="none" xmlns="http://www.w3.org/2000/svg">
<path d="M28.6161 73.6686C25.2531 71.0267 23.091 68.9244 23.091 65.8011C23.091 63.8787 23.5713 62.0007 24.2919 60.0793C25.0124 58.1573 26.454 56.0427 28.1362 53.8806L33.6613 46.9667C18.7662 45.5246 27.175 38.6224 41.5897 38.6224C46.635 33.5771 51.6802 28.3871 55.0437 26.225C58.4072 24.0629 61.2904 23.1257 63.9333 23.1257C64.1735 23.1257 64.4142 23.1244 64.6539 23.3641C64.894 23.6048 64.894 23.8392 64.894 24.0794C64.894 24.3195 64.894 24.5526 64.6539 25.033C64.4142 25.5133 64.1735 25.7447 63.6931 26.225L54.804 36.2383C63.2123 35.0369 70.4196 33.1571 75.7056 30.7548C80.991 28.3526 83.1536 25.5275 83.1536 23.1257C83.1536 21.6836 82.1924 20.509 80.2705 19.788C78.348 18.8268 75.9458 18.5959 72.8219 18.5959C68.4982 18.5959 63.453 19.0639 57.9269 20.2648C52.4007 21.2255 46.635 22.8709 40.1486 25.033C42.3108 25.754 42.5509 26.9274 40.629 28.6091L27.6554 32.1853C26.2138 32.4255 18.0452 36.5224 19.727 30.5164C21.1685 25.2305 27.1745 17.8953 30.2978 15.9734C31.7394 15.0122 33.6613 14.0714 36.3043 13.3509C49.2779 9.50654 74.264 3.27681 87.9582 11.2052C96.1268 18.1724 89.3998 30.4924 80.5106 33.6158C72.5823 36.2587 62.9721 39.5654 49.5181 41.0065L46.635 43.629C54.0825 45.0706 89.8806 46.8392 75.7056 63.417C66.2184 75.8145 37.6041 80.8592 28.6161 73.6686ZM43.9925 47.4435L39.4276 52.4502C38.2262 53.8912 37.2655 55.0621 36.5445 56.5031C35.8239 57.7035 35.3431 58.8819 35.3431 59.6025C35.3431 61.044 36.3043 62.4558 38.4669 63.417C40.629 64.6179 43.0313 65.0859 45.9144 65.0859C50.9597 65.0859 55.7642 63.912 60.5698 61.5097C65.3744 59.1069 67.7777 56.759 67.7777 54.5958C67.7777 53.1548 65.6151 51.7443 61.531 50.5429C57.446 49.1013 51.6802 48.1641 43.9925 47.4435Z" fill="#BE2553"/>
<path d="M68.5058 0.355557C62.9797 5.64099 43.7594 33.7499 25.9807 55.8538L23.3382 58.9766L22.8578 61.6196C22.8578 62.1 0.274055 63.0612 12.7668 91.1696C11.3258 93.5733 10.1239 93.5733 9.8842 99.8195C10.3646 100.06 10.8454 100.06 11.3258 99.8195C11.5659 95.9756 12.5272 93.092 17.3317 89.4883C21.6564 85.8851 34.3894 76.2745 37.5132 64.5022C37.7529 63.3019 38.2338 62.3406 38.7141 61.1387L78.1149 6.60271C78.1149 6.6022 73.0702 -1.80705 68.5058 0.355557Z" fill="#F9D828"/>
<path d="M72.5899 4.67911C67.304 11.1659 52.6491 33.2694 34.8704 55.3718L31.7471 55.6125C36.7923 58.2549 35.8311 59.9367 37.5129 64.2614C37.753 64.7418 38.2339 61.8591 38.7142 61.1381L78.115 6.60154C78.115 6.60154 76.1936 3.23804 73.5501 1.31561C72.3492 0.354899 74.9922 4.19876 72.5899 4.67911Z" fill="#E6B52D"/>
<path d="M75.7128 7.08259C70.4273 13.5699 58.8958 32.7897 41.1165 55.1333C40.8769 54.1721 40.6362 53.2114 40.8769 52.0095C37.753 54.1726 35.5909 59.2173 37.5129 64.5023C37.753 63.3019 38.7143 61.8603 38.7143 61.1388L78.115 6.60274C77.8754 6.36205 77.6352 4.19944 75.7128 2.75838C74.5114 1.79716 77.1543 5.8817 75.7128 7.08259Z" fill="#83582E"/>
<path d="M26.2212 69.7881C25.2599 76.2744 20.9357 78.6772 19.9745 79.6384C19.7338 79.8786 19.9745 83.9631 19.4937 87.8065C23.338 83.7225 43.2788 65.9447 29.5847 58.9766C35.5906 63.7816 27.9029 69.3082 26.2212 69.7881Z" fill="#83582E"/>
<path d="M21.1763 76.5144C29.5851 68.3464 21.416 61.3787 15.6502 66.6646C7.00131 74.5925 14.4488 83.2414 21.1763 76.5144Z" fill="#6A4D31"/>
<path d="M69.7068 18.615C65.863 18.8546 61.7784 19.3355 57.4537 20.0565C55.772 20.2967 54.0902 20.7771 52.4085 21.0177C48.3244 21.9785 44.2399 23.1798 39.6755 24.6209C41.8376 25.342 42.0778 26.5428 40.1559 28.2251L27.1827 31.5886C25.7406 31.8288 17.5726 35.9128 19.2543 29.9068C20.6954 24.6209 26.7019 17.4141 29.8252 15.4916C31.2667 14.5309 33.1887 13.5697 35.8311 12.8492C42.5586 10.9267 52.4085 8.28428 62.2593 7.32306C67.304 6.8427 72.3493 6.8427 77.1544 7.56324L69.7068 18.615Z" fill="#BE2553"/>
</svg>
