<svg width="100" height="100" viewBox="0 0 100 100" fill="none" xmlns="http://www.w3.org/2000/svg">
<path d="M27.6068 28.9929C27.6068 46.0662 46.3668 58.2795 35.9335 74.8129C28.4135 86.7329 12.6001 72.0662 21.7668 62.8329C23.0601 61.5329 25.1868 59.8929 27.1668 59.7329C26.6201 58.2129 22.8401 47.9595 22.5868 46.8729C15.0068 47.0395 -4.07987 65.1662 12.2135 86.0195C15.1068 89.7195 21.0735 93.0862 27.6001 93.0862C54.2801 93.0862 50.6068 60.6062 72.5068 60.6062C81.2335 60.6062 85.6735 72.4595 76.4268 78.6929C71.2801 81.6729 67.6468 78.0129 65.0935 76.2995L55.9401 86.1129C59.6201 91.6062 78.8801 100.513 91.0401 83.7195C97.6668 74.5662 96.2001 62.5129 88.6735 53.1662C78.8001 40.8995 57.3268 51.0062 44.7668 37.9995C37.5801 30.5595 42.0535 19.8462 50.4935 19.8462C55.3201 19.8462 60.6001 25.3462 59.2001 31.3862C59.0401 32.0795 58.8401 32.3862 58.7735 33.1395C61.0935 33.7195 70.1735 36.1929 71.8535 36.1929C78.8868 0.63286 29.8268 -5.58047 27.6068 28.9995V28.9929Z" fill="#009846"/>
</svg>
