<svg width="100" height="100" viewBox="0 0 100 100" fill="none" xmlns="http://www.w3.org/2000/svg">
<path d="M100 50C100 77.6142 77.6142 100 50 100C22.3858 100 0 77.6142 0 50C0 22.3858 22.3858 0 50 0C77.6142 0 100 22.3858 100 50Z" fill="#F6A021"/>
<path fill-rule="evenodd" clip-rule="evenodd" d="M38.0311 46.3455H36.5367C33.0366 46.3455 31.1226 44.4337 31.1226 40.8354V38.3288C31.1226 34.7264 33.0366 32.8209 36.6348 32.8209H38.534V23.4913C38.534 19.8931 40.4396 18 44.0524 18H49.8526C53.4717 18 55.3689 19.8931 55.3689 23.4913V32.8209H60.6661C64.2748 32.8209 66.1845 34.7264 66.1845 38.3288V40.8354C66.1845 44.4337 64.2748 46.3455 60.7746 46.3455H55.3689V61.9678C55.3689 66.3758 58.2618 68.0747 61.3861 68.463C65.3831 68.9764 66.8775 70.1952 66.8775 73.9793V78.4958C66.8775 82.5866 64.3749 83.9996 59.7624 83.9996C52.1547 83.9996 38.0311 80.5121 38.0311 65.1694V46.3455Z" fill="#51524F"/>
</svg>
