<svg width="100" height="100" viewBox="0 0 100 100" fill="none" xmlns="http://www.w3.org/2000/svg">
<path fill-rule="evenodd" clip-rule="evenodd" d="M27.1529 58.0147H45.1559L45.8823 48.95H50.1441L52.497 58.0147H62.6117C63.6508 57.9856 64.8577 58.1945 65.5617 59.0294C66.1837 59.81 66.1837 60.993 65.5882 61.7941C64.8863 62.6761 63.6121 62.8511 62.5529 62.8088H51.1264L43.3559 71.2676H38.8882L43.5294 62.8147H23.35C19.0416 62.5029 14.7349 64.2273 11.8323 67.4264C9.16194 70.9035 7.14584 74.8371 5.88232 79.0353L68.8676 79.0911C72.833 79.2664 76.7463 77.5838 79.347 74.5853C82.0173 71.1437 83.9225 67.1719 84.9353 62.9353L87.45 54.4853C88.4152 51.197 87.2102 47.5569 84.4735 45.4941C81.5367 43.208 77.9493 41.9144 74.2294 41.8H43.3853C42.6025 41.8367 41.8193 41.7372 41.0706 41.5059C40.2165 41.2014 39.6536 40.3884 39.6794 39.4794C39.66 38.569 40.2026 37.7511 41.0323 37.3882C41.7809 37.0955 42.5821 36.9613 43.3853 36.9941H78.6C82.8943 37.3079 87.1872 35.583 90.0706 32.3853C92.7202 28.9051 94.7136 24.9713 95.9529 20.7764H44.8794C39.5312 20.7635 34.3108 22.4105 29.9384 25.4902C25.5659 28.5699 22.2568 32.9305 20.4676 37.9706L19.2911 41.3088C17.8016 44.9953 17.6858 49.0941 18.9647 52.8588C20.2666 56.1946 23.6278 58.1291 27.1529 58.0147Z" fill="#D0A175"/>
</svg>
