<svg width="100" height="100" viewBox="0 0 100 100" fill="none" xmlns="http://www.w3.org/2000/svg">
<path d="M100 50C100 77.6142 77.6142 100 50 100C22.3858 100 0 77.6142 0 50C0 22.3858 22.3858 0 50 0C77.6142 0 100 22.3858 100 50Z" fill="#FF6423"/>
<path d="M26.0597 20C19.3557 20 17.9077 21.2375 17.9077 21.2375V30.9203C17.9077 30.9203 19.3493 29.8933 23.9037 29.8933C28.592 29.8933 32.8338 31.1691 37.0629 39.691L42.4656 50.5794L35.953 63.5217C34.6773 66.0732 31.2455 71.0486 24.1588 71.0486C19.8532 71.0486 17.9077 70.1364 17.9077 70.1364V79.9022C17.9077 79.9022 19.7894 80.9866 26.487 80.9866C36.4505 80.9866 42.2105 77.4273 47.8174 65.0845L54.4001 50.5858L47.7855 36.0232C45.3041 30.5886 43.2757 26.6338 38.7915 23.3871C35.4363 20.9887 31.2711 20 26.0597 20ZM74.442 20C71.3228 20 67.9166 20 64.0639 21.7797C60.2111 23.5593 56.0841 27.3482 52.5121 33.4144L57.6788 44.711C62.1439 37.1778 65.8371 29.8742 75.3732 29.8742C77.6482 29.8511 79.9113 30.2045 82.0709 30.9203V20.9313C79.5842 20.2654 77.0156 19.9561 74.442 20.0128V20ZM57.6788 56.2819L52.5121 67.8529C56.0841 73.919 60.1665 77.3826 64.0639 79.2133C67.9612 81.044 71.3292 80.9929 74.442 80.9929C77.0241 81.0518 79.6015 80.7425 82.0964 80.0744V70.0726C79.9197 70.6992 77.6637 71.0065 75.3988 70.9848C65.0781 70.9784 62.1439 63.8152 57.6788 56.2819Z" fill="white"/>
</svg>
