<svg width="100" height="100" viewBox="0 0 100 100" fill="none" xmlns="http://www.w3.org/2000/svg">
<path d="M34.5457 68.0286C34.5457 67.413 34.6513 66.7094 34.8741 65.9648L5.0957 71.3647C5.17779 72.4669 5.31264 73.5282 5.49439 74.5542L34.6689 69.2657C34.5868 68.8201 34.5457 68.4039 34.5457 68.0286Z" fill="#CD2586"/>
<path d="M48.3767 99.9997C53.9583 99.9997 60.2259 99.2903 66.3059 98.188L95.5448 92.882V75.4453L14.3828 90.1615C23.1305 97.5841 36.5627 99.9997 48.3767 99.9997Z" fill="#009989"/>
<path d="M50.5814 79.3149C42.1855 79.3149 37.7707 75.7912 35.8241 72.3555L6.2334 77.7201C7.35324 81.5077 9.18837 84.6972 11.5453 87.3766L59.3525 78.711C57.1128 79.0686 54.2399 79.3149 50.5814 79.3149Z" fill="#F7A807"/>
<path d="M5.00195 68.0757L37.0376 62.2655C39.4473 59.6271 43.8328 57.3698 51.2144 57.3698C55.5355 57.3698 58.6546 57.6161 60.8884 57.9444L95.5448 51.6651V40.6367L7.82208 56.5431C6.11593 59.7795 5.08404 63.5905 5.00195 68.0757Z" fill="#70B62E"/>
<path d="M46.8114 39.1885C37.1374 39.1885 19.2023 41.7096 10.2964 52.7907L66.3001 42.6301C66.306 42.6359 60.0149 39.1885 46.8114 39.1885Z" fill="#00873B"/>
<path d="M74.3501 4.77832L10.1499 16.4223L21.0258 32.2936C26.6895 28.8402 38.0052 23.8273 47.7554 23.8273C57.5056 23.8273 66.3061 29.1568 66.3061 36.6791V42.636L94.5893 37.5117L95.5216 37.3416C95.1229 22.1329 87.4188 10.7703 74.3501 4.77832Z" fill="#A61A80"/>
<path d="M49.9538 0C21.9696 0 8.13867 13.4791 8.13867 13.4791L68.44 2.54456C62.958 0.885317 56.7667 0 49.9538 0Z" fill="#E64314"/>
<path d="M66.2998 77.4504L95.5388 72.1502V61.5322L66.2998 66.8324V77.4504Z" fill="#169CD8"/>
<path d="M66.2998 63.5259L95.5388 58.2257V54.9658L66.2998 60.266V63.5259Z" fill="#8E7A3B"/>
</svg>
