<svg width="100" height="100" viewBox="0 0 100 100" fill="none" xmlns="http://www.w3.org/2000/svg">
<path d="M78.9914 70.3659C73.9384 85.6679 59.5099 96.7474 42.5365 96.7474C21.3692 96.7474 4.1486 79.5271 4.1486 58.3597C4.1486 37.1924 21.3692 19.9699 42.5365 19.9699C48.9814 19.9699 55.0568 21.5741 60.3936 24.3924L61.769 23.1842C56.0547 20.0475 49.5018 18.2598 42.5365 18.2598C20.4263 18.2598 2.43848 36.2475 2.43848 58.3597C2.43848 80.47 20.4242 98.4557 42.5365 98.4557C60.4977 98.4557 75.7383 86.5864 80.8261 70.2762L78.9914 70.3659Z" fill="#003366"/>
<path d="M16.8447 70.7164C39.9957 68.5837 62.9322 65.0367 85.5424 59.3408C85.1915 60.9041 84.8428 62.4633 84.4914 64.0265C55.5689 70.6204 35.3916 71.2265 16.8447 70.7164Z" fill="#00B2E2"/>
<path d="M20.5283 68.4165C42.2099 65.0104 64.4099 59.6146 87.2099 51.9023C86.8505 53.5023 86.4932 55.1003 86.1363 56.7003C60.8465 64.6513 39.2813 68.2001 20.5283 68.4165Z" fill="#00B2E2"/>
<path d="M24.0591 65.9733C45.3244 60.6713 66.9776 53.2489 88.8959 44.3652C88.5388 45.9734 88.1777 47.5816 87.8183 49.1917C64.5979 58.3081 43.1203 64.31 24.0591 65.9733Z" fill="#57C8E7"/>
<path d="M27.5815 63.0816C49.0223 56.5674 70.1121 46.7654 90.9855 35.0225C90.5451 36.9959 90.1039 38.9696 89.6631 40.943C64.6631 53.3573 43.4816 61.3061 27.5815 63.0816Z" fill="#98DAE9"/>
<path d="M32.1445 60.0246C56.2241 48.3797 75.8017 36.3144 93.4385 24.0654C92.9525 26.239 92.465 28.4123 91.9793 30.5858C71.9812 43.3531 52.0221 53.9287 32.1445 60.0246Z" fill="#57C8E7"/>
<path d="M35.6528 56.241C59.3303 41.2736 79.8692 26.0472 96.4753 10.4961C95.8837 13.1512 95.2875 15.8104 94.6936 18.4634C75.0487 35.4144 54.9446 47.0879 35.6528 56.241Z" fill="#00B2E2"/>
<path d="M97.8305 1.02051C95.5958 1.08221 93.3653 1.13691 91.1306 1.19399C82.8489 11.3185 74.4977 20.0776 66.1018 28.0776C57.0039 36.7449 47.861 44.5184 38.71 52.1653C58.7549 38.6387 78.6448 23.4899 97.8305 1.02051Z" fill="#00B2E2"/>
</svg>
