<svg width="100" height="100" viewBox="0 0 100 100" fill="none" xmlns="http://www.w3.org/2000/svg">
<path d="M100 50C100 77.6142 77.6142 100 50 100C22.3858 100 0 77.6142 0 50C0 22.3858 22.3858 0 50 0C77.6142 0 100 22.3858 100 50Z" fill="#0D89CB"/>
<path d="M17.8311 56.9375C17.8311 58.3975 17.5739 59.9648 16.5996 61.1084C15.4322 62.481 13.5463 62.8418 11.8311 62.8418C11.1635 62.8418 10.5523 62.7915 10 62.6914L11.252 59.6504C11.349 59.6533 11.4458 59.6621 11.5449 59.6621C12.452 59.662 13.1064 59.4382 13.5049 58.9922C13.9023 58.5462 14.1015 57.7968 14.1016 56.7461V46.7598H17.8311V56.9375Z" fill="white"/>
<path fill-rule="evenodd" clip-rule="evenodd" d="M46.584 49.5986C48.3681 49.5986 49.7797 50.1451 50.8154 51.2363C51.8512 52.3277 52.3691 53.9337 52.3691 56.0527C52.3691 56.4996 52.3331 56.9463 52.2979 57.3916H44.2188C44.2987 58.1239 44.6402 58.7059 45.2461 59.1357C45.8519 59.5665 46.6642 59.7812 47.6836 59.7812C48.3369 59.7812 48.9844 59.7512 49.6084 59.6016C50.4387 59.4023 51.053 59.2218 52.2979 58.7344V61.75C51.5495 62.1999 50.6515 62.4322 49.7988 62.5908C49.0181 62.7342 48.0961 62.8408 47.2061 62.8408C46.0744 62.8408 45.0903 62.6736 44.2539 62.3389C43.4174 62.0041 42.7241 61.5465 42.1738 60.9639C40.9993 59.722 40.5606 57.9884 40.5605 56.3154C40.5605 55.1998 40.7333 54.2242 41.0752 53.3867C41.7609 51.7142 42.8975 50.6016 44.3496 50.0293C45.0747 49.742 45.8194 49.5987 46.584 49.5986ZM46.6328 52.5391C45.8322 52.5391 45.2681 52.8363 44.8887 53.2803C44.49 53.744 44.3121 54.3593 44.2188 54.9531H48.9268C48.8945 54.3491 48.7328 53.7522 48.3643 53.3027C47.9996 52.8573 47.4587 52.5391 46.6328 52.5391Z" fill="white"/>
<path fill-rule="evenodd" clip-rule="evenodd" d="M59.1602 49.5986C60.9444 49.5986 62.3549 50.145 63.3906 51.2363C64.4264 52.3277 64.9443 53.9337 64.9443 56.0527C64.9443 56.4996 64.9083 56.9463 64.873 57.3916H56.793C56.8729 58.1239 57.2164 58.7059 57.8213 59.1357C58.9992 59.9732 60.8264 59.9276 62.1836 59.6016C63.0139 59.4023 63.6291 59.2218 64.873 58.7344V61.75C64.4047 62.0322 63.7561 62.2437 63.4385 62.3389C62.2653 62.6883 61.0049 62.8408 59.7812 62.8408C58.6506 62.8408 57.6665 62.6736 56.8291 62.3389C55.9926 62.0041 55.2993 61.5465 54.749 60.9639C53.5752 59.7229 53.1358 57.9872 53.1357 56.3154C53.1357 55.1998 53.3075 54.2242 53.6504 53.3867C54.3355 51.7155 55.4732 50.6021 56.9248 50.0293C57.65 49.7419 58.3955 49.5986 59.1602 49.5986ZM59.208 52.5391C58.4105 52.5391 57.8449 52.8356 57.4629 53.2803C57.0655 53.7451 56.8892 54.3596 56.7939 54.9531H61.502C61.4697 54.3491 61.3059 53.7521 60.9414 53.3027C60.5068 52.7775 59.8792 52.5391 59.208 52.5391Z" fill="white"/>
<path fill-rule="evenodd" clip-rule="evenodd" d="M23.7432 49.5938C24.7949 49.5938 25.6711 49.7147 26.373 49.9531C27.074 50.1929 27.6358 50.5354 28.0586 50.9814C28.9984 51.9778 29.2177 53.4138 29.2178 54.7334V62.2148C28.708 62.326 27.998 62.4577 27.0908 62.6094C26.1825 62.7599 25.0816 62.8359 23.792 62.8359C22.9788 62.8359 22.2415 62.7647 21.5811 62.6211C20.9195 62.4775 20.3495 62.2418 19.8711 61.915C19.3929 61.5884 19.0273 61.1625 18.7725 60.6367C18.5176 60.1109 18.3897 59.4657 18.3896 58.7012C18.3896 57.9689 18.5378 57.3467 18.832 56.8369C19.441 55.7822 20.551 55.2049 21.7119 54.96C22.35 54.8244 23.0117 54.7568 23.6963 54.7568C24.099 54.7569 25.0303 54.8138 25.7988 54.8643V54.5664C25.7987 53.7072 25.1774 53.1299 24.3926 52.9102C23.7845 52.7247 23.1091 52.7119 22.4795 52.7119C20.7478 52.7119 20.0718 53.0268 19.7754 53.0996V50.1592C19.9666 50.0803 20.2026 50.0127 20.4736 49.957C21.5427 49.7277 22.6486 49.5938 23.7432 49.5938ZM24.1201 57.2627C23.3541 57.2627 22.7767 57.3689 22.6445 57.4346C22.1981 57.6557 21.9268 58.0342 21.9268 58.6045C21.9268 59.1628 22.1151 59.5492 22.4893 59.7637C22.8625 59.9791 23.3768 60.0869 24.0312 60.0869C24.6169 60.0869 25.2197 60.0899 25.7988 59.9912V57.4404C25.2062 57.308 24.6227 57.2627 24.1201 57.2627Z" fill="white"/>
<path fill-rule="evenodd" clip-rule="evenodd" d="M78.6553 49.5938C79.7071 49.5938 80.5832 49.7146 81.2852 49.9531C82.6867 50.4325 83.5162 51.3311 83.8662 52.6074C84.0412 53.2436 84.1299 53.9537 84.1299 54.7334V62.2158C83.6201 62.326 82.9092 62.4577 82.002 62.6094C81.0938 62.7598 79.9935 62.8359 78.7041 62.8359C77.891 62.8359 77.1536 62.7647 76.4932 62.6211C75.1709 62.334 74.1936 61.6891 73.6836 60.6367C73.4288 60.1109 73.3018 59.4656 73.3018 58.7012C73.3018 57.9691 73.449 57.3466 73.7432 56.8369C74.3338 55.8175 75.3489 55.2289 76.623 54.96C77.9803 54.6716 79.3396 54.7743 80.7119 54.8643V54.5664C80.7118 53.9608 80.5272 53.7177 80.1611 53.3506C79.9272 53.1169 79.6192 52.9949 79.3057 52.9102C78.6964 52.7255 78.0212 52.7119 77.3906 52.7119C75.6596 52.712 74.9839 53.0267 74.6875 53.0996V50.1592C75.184 49.9545 75.738 49.8781 76.2656 49.7979C76.9959 49.6869 77.8241 49.5938 78.6553 49.5938ZM79.0312 57.2627C78.2648 57.2627 77.6881 57.3689 77.5557 57.4346C77.108 57.6564 76.8389 58.036 76.8389 58.6045C76.8389 59.1628 77.0271 59.5492 77.4014 59.7637C77.7745 59.9792 78.2881 60.0879 78.9424 60.0879C79.5287 60.0879 80.1321 60.0895 80.7119 59.9912V57.4404C80.1182 57.308 79.534 57.2627 79.0312 57.2627Z" fill="white"/>
<path d="M40.2607 52.3232C38.1691 54.6425 36.076 56.969 34.2959 59.542H40.3799V62.5059H29.9824V60.4023C30.3162 59.8288 30.7191 59.2113 31.1895 58.5498C32.5762 56.5982 34.0799 54.7265 35.623 52.8965H30.2695V49.9336H40.2607V52.3232Z" fill="white"/>
<path d="M73.2119 49.9453C73.483 50.0007 73.7141 50.0686 73.9062 50.1475V53.0879C73.5937 53.01 72.3034 52.7061 70.8975 52.7061C70.369 52.7061 69.801 52.7449 69.292 52.8975V62.5049H65.7305V50.6025C66.3685 50.3791 67.1208 50.1679 67.9893 49.9688C69.7085 49.5763 71.4905 49.5848 73.2119 49.9453Z" fill="white"/>
<path d="M90 60.0166L87.5303 62.4854L85.0615 60.0166L87.5303 57.5479L90 60.0166Z" fill="white"/>
<path d="M81.0986 42.7539C81.0986 44.4764 80.1441 45.372 78.4297 45.3721H73.5264C73.2056 45.3721 72.8941 45.3587 72.5889 45.334C72.4832 46.8635 71.5376 47.6572 69.9248 47.6572H69.7197V46.25H69.8057C70.6411 46.25 70.9395 45.7816 70.9395 44.9531V40.6475H72.5898V44.0078C72.8652 44.0322 73.1317 44.0586 73.4062 44.0586H76.7842V42.7793C76.7842 42.0976 75.9991 41.961 75.4883 41.9609C74.881 41.9609 74.3061 41.9826 73.7139 42.1318V40.8271C74.3998 40.5593 75.1465 40.5713 75.8711 40.5713C77.4996 40.5713 78.293 41.322 78.293 42.8564V44.0586H78.3105C79.1467 44.0584 79.4453 43.5889 79.4453 42.7627V38H81.0986V42.7539Z" fill="white"/>
<path d="M69.1855 42.7539C69.1855 44.4765 68.2301 45.3721 66.5156 45.3721H64.9609C64.8414 46.8768 63.8988 47.6562 62.2998 47.6562H62.0957V46.251H62.1807C63.0161 46.251 63.3144 45.7813 63.3145 44.9541V40.6484H64.9639V44.0586H66.3965C67.233 44.0586 67.5312 43.5901 67.5312 42.7627V40.6416H69.1855V42.7539Z" fill="white"/>
<path d="M75.3369 46.0693C75.7717 46.0695 76.1299 46.4284 76.1299 46.8633C76.1296 47.2979 75.7715 47.6561 75.3369 47.6562C74.9021 47.6562 74.5442 47.298 74.5439 46.8633C74.5439 46.4283 74.902 46.0693 75.3369 46.0693Z" fill="white"/>
<path d="M66.0518 46.0693C66.4866 46.0694 66.8446 46.4275 66.8447 46.8623C66.8447 47.2972 66.4867 47.6552 66.0518 47.6553C65.6168 47.6553 65.2588 47.2972 65.2588 46.8623C65.2589 46.4275 65.6169 46.0693 66.0518 46.0693Z" fill="white"/>
<path d="M67.7549 46.0693C68.1897 46.0693 68.5477 46.4275 68.5479 46.8623C68.5479 47.2972 68.1898 47.6553 67.7549 47.6553C67.3201 47.6551 66.9619 47.2971 66.9619 46.8623C66.9621 46.4276 67.3202 46.0695 67.7549 46.0693Z" fill="white"/>
<path d="M84.084 45.3721H82.4297V38H84.084V45.3721Z" fill="white"/>
<path d="M55.4521 44.1348L54.29 45.2959L53.1289 44.1348L54.29 42.9736L55.4521 44.1348Z" fill="white"/>
<path fill-rule="evenodd" clip-rule="evenodd" d="M59.2998 40.6855C59.5191 40.6856 59.7466 40.7213 60.167 40.75L61.8223 40.9697V44.7422C60.9949 44.9223 60.1483 45.082 59.2998 45.082C58.5892 45.082 57.8135 44.9869 57.2119 44.5781C56.6908 44.2206 56.4014 43.6578 56.4014 42.8193C56.4014 42.0178 56.7513 41.4623 57.291 41.1328C57.8981 40.7598 58.6021 40.6855 59.2998 40.6855ZM59.2549 42.0322C58.8361 42.0322 58.5201 42.0907 58.4482 42.126C58.2045 42.2472 58.0566 42.452 58.0566 42.7666C58.0566 43.4228 58.6502 43.5781 59.2061 43.5781C59.59 43.5781 59.9654 43.5597 60.1738 43.5254V42.1299C59.8493 42.0577 59.5299 42.0322 59.2549 42.0322Z" fill="white"/>
<path d="M59.0352 38.3301C59.47 38.3301 59.828 38.6882 59.8281 39.123C59.8281 39.558 59.4701 39.916 59.0352 39.916C58.6002 39.916 58.2422 39.558 58.2422 39.123C58.2423 38.6882 58.6003 38.3301 59.0352 38.3301Z" fill="white"/>
<path d="M60.7383 38.3301C61.1731 38.3301 61.5321 38.6882 61.5322 39.123C61.5322 39.558 61.1732 39.916 60.7383 39.916C60.3036 39.9158 59.9453 39.5578 59.9453 39.123C59.9455 38.6884 60.3037 38.3303 60.7383 38.3301Z" fill="white"/>
<path d="M71.6953 38.3301C72.13 38.3303 72.4881 38.6884 72.4883 39.123C72.4883 39.5579 72.1301 39.9158 71.6953 39.916C71.2604 39.916 70.9023 39.558 70.9023 39.123C70.9025 38.6882 71.2605 38.3301 71.6953 38.3301Z" fill="white"/>
</svg>
