<svg width="100" height="100" viewBox="0 0 100 100" fill="none" xmlns="http://www.w3.org/2000/svg">
<path d="M57.4913 7.25099C60.1819 8.03118 61.8657 10.8376 61.288 13.5787C59.677 24.8553 58.6838 36.2387 57.4913 47.5675C56.3512 55.5485 55.6619 63.6843 53.3331 71.432C51.8952 76.6615 49.3692 81.5285 45.9207 85.7146C41.5579 90.9099 34.7808 93.7166 28.0223 93.127C21.443 92.8744 15.0872 90.6719 9.76233 86.7993C4.69054 83.1187 1.25324 77.6061 0.180378 71.432C-0.15083 70.1034 -0.0234124 68.7018 0.541961 67.4546C1.78128 65.4705 4.28377 64.5605 6.50808 65.2851C7.80534 65.7086 8.79163 66.8358 9.03917 68.1778C9.40075 69.2625 9.58154 70.3473 9.94313 71.432C10.7306 73.8094 12.0527 75.9746 13.8078 77.761C17.9175 81.9441 24.4414 83.8934 30.1918 83.1835C34.4594 82.7254 38.3411 80.2056 40.4969 76.4942C42.7319 72.9151 44.2087 68.9154 44.8359 64.7427C47.3489 49.2458 48.8754 33.3815 50.0789 17.7369C50.2597 15.929 50.4405 13.9403 50.6212 12.1324C50.716 10.9578 51.1908 9.8461 51.9736 8.96538C53.5192 7.22668 55.5565 7.25099 57.4913 7.25099Z" fill="#9E202D"/>
<path d="M58.3878 38.7504C60.0293 32.0018 64.5892 27.9891 70.973 25.9828C75.1809 24.7985 79.576 24.4271 83.923 24.8884C88.3372 25.2546 92.6879 26.1737 96.873 27.6243C97.1477 27.6764 97.3935 27.8517 97.5322 28.0945C97.6709 28.3372 97.6972 28.638 97.6026 28.9011L95.961 39.8447C94.3195 39.48 92.6779 38.9328 91.0364 38.568C86.7648 37.3913 82.3114 37.0202 77.904 37.4736C74.8858 37.7725 71.5241 39.2776 71.2951 42.7116C71.0312 46.6703 75.3106 48.6041 78.4512 49.694C82.2463 50.8514 85.9627 52.2526 89.5772 53.8891C92.7611 55.2902 95.4811 57.5674 97.4202 60.4553C99.1433 63.1132 100.033 66.2256 99.9737 69.3926C100.213 73.9006 98.8114 78.3427 96.0282 81.8971C89.7753 89.8828 79.9558 89.5678 70.7906 89.2736C66.4076 88.7247 62.151 87.4293 58.2054 85.4434C57.8406 84.7138 57.6582 84.5314 57.8406 83.8018C58.3878 80.1539 58.935 76.3236 59.4822 72.6757C59.8469 72.6757 60.2117 73.0405 60.5765 73.2229C65.9853 76.005 72.0059 77.3847 78.0864 77.2356C80.4385 77.2178 83.2877 76.5744 84.9599 74.7815C87.8792 71.6516 86.1767 67.4807 82.8286 65.5624C80.2338 64.2812 77.5521 63.1841 74.8033 62.2793C71.3593 61.1341 68.0554 59.6045 64.954 57.7194C61.8382 55.5291 59.7538 52.7341 58.5702 49.1469C57.5318 45.5717 58.0462 42.3438 58.3878 38.7504Z" fill="#153E69"/>
</svg>
