<svg width="100" height="100" viewBox="0 0 100 100" fill="none" xmlns="http://www.w3.org/2000/svg">
<path d="M0 25C0 11.1929 11.1929 0 25 0H75C88.8072 0 100 11.1929 100 25V75C100 88.8072 88.8072 100 75 100H25C11.1929 100 0 88.8072 0 75V25Z" fill="#ED1C24"/>
<path fill-rule="evenodd" clip-rule="evenodd" d="M95.0002 35.1197C86.3002 42.7597 68.0602 47.4297 56.3202 50.2997C47.5602 53.2197 59.7602 49.7897 62.6402 49.1297C65.4002 48.4897 75.0402 45.8897 69.3502 47.8297C70.1302 48.0897 71.7302 47.0497 72.5702 46.9197C74.8502 45.4497 78.8302 45.1897 82.1102 43.6797C84.6402 42.9197 87.1502 41.5997 89.5902 40.4397C90.2302 40.0497 90.2302 40.3097 90.3602 40.5697C90.1002 40.8297 89.4602 41.2197 88.0402 41.9997C87.4002 42.3897 87.6502 42.3897 88.0402 42.2597C88.4302 41.9997 89.0702 41.6097 89.0702 41.7397C87.9502 42.7297 85.1002 43.8397 83.6502 44.3397C83.6502 44.4597 83.5302 44.4697 83.5202 44.4697C89.7402 42.7597 78.9202 46.8297 76.8102 47.5797C76.0302 47.9097 69.9402 49.6397 73.5902 49.1397C75.7502 48.3297 80.2602 47.0997 82.3602 46.0297C83.4502 45.6597 82.2002 46.3697 81.9702 46.5497C81.8402 46.6797 79.6502 47.5897 78.7502 47.8497C77.8502 48.1097 78.6202 48.1097 79.1402 47.9797C79.2102 48.0597 83.2602 46.3197 84.5602 45.6397C85.2702 45.2097 84.5202 46.0797 84.5602 46.1597C80.3902 48.4297 75.4502 50.0397 70.6302 51.7397C69.4802 52.4397 72.3402 51.4697 72.4402 51.3497C72.4402 51.2197 72.5702 51.3497 72.3102 51.4797C72.3102 51.6097 72.3102 51.6097 72.1802 51.6097C70.8902 52.2597 71.5402 52.1297 72.0502 51.8697C72.9502 51.2097 76.1902 50.3097 77.5902 49.6597C78.1102 49.3997 77.4602 49.9197 77.2002 50.0497C76.7902 50.2397 75.1202 50.8097 74.8802 50.9597C76.4302 51.0297 78.6002 49.7797 80.8102 48.8897C82.4902 47.9797 80.9402 48.8897 80.6802 49.1497C78.4102 50.2797 71.0202 53.7097 68.3002 54.5997C71.6802 53.8597 77.0602 50.9097 79.7802 49.6697C56.2002 62.9097 23.7102 62.9197 4.99023 83.6597C22.9302 47.4497 61.8902 47.1697 94.9902 35.1397L95.0002 35.1197ZM71.6602 49.3897C70.1702 49.5597 68.4802 50.1797 65.0802 50.9497C64.5102 52.3797 72.8602 49.3197 71.6602 49.3897Z" fill="white"/>
<path d="M61.2202 65.8597C61.8802 66.7197 57.2302 67.8897 55.2902 68.7097C54.5202 68.8397 54.6502 69.2297 54.9002 69.0997C55.3402 69.0697 57.1902 68.4397 57.8702 68.1897C58.7702 67.9897 57.0602 68.7597 56.7102 68.8397C54.5402 70.1197 60.4302 67.5997 60.3202 67.5397C51.0802 74.0997 36.3602 74.8397 25.1202 76.2297C28.1302 72.2997 53.7402 69.4897 61.2202 65.8497V65.8597Z" fill="white"/>
<path fill-rule="evenodd" clip-rule="evenodd" d="M82.2302 50.5497C78.9902 54.0297 72.9702 56.6597 69.2102 59.2397C72.3802 57.8597 75.2302 55.9497 78.1102 54.0497C78.7502 53.6597 79.6602 52.8797 79.7902 52.8797C77.4402 55.3497 74.3002 57.1197 71.4102 58.5897C72.7302 58.5897 75.0502 56.2597 75.6602 56.9097C75.8602 56.7097 75.9802 56.5597 76.4302 56.2597C76.7202 55.9597 77.0602 55.8797 77.2002 55.7397C77.7202 55.4797 77.5902 55.4797 77.5902 55.7397C77.4502 55.8797 76.1402 57.2297 75.6802 56.9897C65.2902 66.0997 42.4202 67.6397 30.7802 70.4097C47.3502 61.4797 67.5302 60.7097 83.2602 49.5197C83.1302 49.6497 82.7402 50.0397 82.2302 50.5597V50.5497ZM71.2702 59.1197C71.2702 59.1197 71.1402 58.9897 71.0102 59.1197C70.8902 59.0797 70.6302 59.2097 70.6202 59.2497C70.6002 59.5197 71.3102 59.2997 71.2602 59.2497V59.1197H71.2702Z" fill="white"/>
<path d="M63.4102 64.9597C63.9302 64.8297 64.0602 64.8297 63.9302 64.9597C63.9302 65.2197 63.2802 65.3497 62.7702 65.6097C62.2502 65.7397 61.8702 65.9997 61.7402 65.9997C61.3502 66.1297 61.6102 65.6097 61.6102 65.6097C61.6202 65.6097 62.2602 65.3497 62.7702 65.2197C63.0302 65.0897 63.2902 65.0897 63.4102 64.9597Z" fill="white"/>
<path d="M82.4902 47.8297C82.7502 47.8297 82.4902 47.9597 82.4902 47.9597C82.4902 47.9597 82.3502 48.0897 82.1002 48.2197C81.8502 48.2197 81.7202 48.3497 81.7102 48.3497C81.5802 48.3497 81.8302 48.0997 81.8402 48.0897C81.8402 48.0897 81.9702 48.0897 82.1002 47.9597C82.2302 47.9597 82.3602 47.8297 82.4902 47.8297Z" fill="white"/>
<path d="M72.4402 46.3997C72.5269 46.3997 72.4836 46.443 72.3102 46.5297C72.3102 46.5297 72.1802 46.6597 72.0502 46.6597H71.7902C71.5302 46.7897 71.7902 46.5297 71.7902 46.5297H72.0502L72.4402 46.3997Z" fill="white"/>
<path d="M87.3902 44.3297C87.3902 44.3297 87.2502 44.7197 86.8702 44.8497C86.2902 45.0497 85.6902 45.3797 85.1902 45.6297C84.6702 45.8897 84.9302 45.3697 84.9302 45.3697C84.9402 45.3697 85.5802 45.1097 86.0902 44.8497C86.3502 44.7197 86.6102 44.5897 86.7302 44.5897C87.0769 44.4164 87.2936 44.3297 87.3802 44.3297H87.3902Z" fill="white"/>
<path d="M56.5802 39.0097C51.6802 40.0497 48.3302 42.5097 46.1402 43.9397C45.3402 44.7397 43.6102 45.1097 42.5302 45.1097C39.9502 45.2397 38.0202 43.5497 37.8902 41.3497C37.8902 40.6997 38.0202 40.0497 38.4102 39.3997C39.0502 40.9597 40.7302 42.5097 43.9502 41.7297C44.5902 41.5997 45.3702 41.2097 46.1402 40.9497C48.3302 40.0397 51.3002 38.8697 56.5802 38.9997V39.0097Z" fill="white"/>
<path fill-rule="evenodd" clip-rule="evenodd" d="M90.8702 24.0897C86.3902 28.9697 79.1102 33.1297 72.0502 33.9497C70.5102 34.3597 71.9102 34.5297 72.3102 34.4697C73.4502 34.2497 75.6802 33.9397 77.2102 33.5597C77.5502 33.6997 75.9102 34.0897 75.7902 34.0797C75.6602 34.2097 75.2702 34.3397 75.5302 34.3397C76.3802 33.9497 77.4802 33.7297 78.3702 33.2997C79.4002 32.7797 78.7602 33.2997 78.7602 33.2997C79.2402 33.3497 80.6202 32.6697 81.9802 31.8697C82.0602 31.5897 82.3502 31.7997 82.1102 31.9997C81.9802 31.9997 80.0502 33.2997 76.6902 34.4597C76.1902 34.6897 72.7202 35.4297 73.3402 35.4997C73.5202 35.4997 75.5302 35.1097 76.5602 34.8497C77.1102 34.5297 78.5002 34.2397 78.4902 34.0697C78.7502 33.9397 78.6202 34.3297 78.4902 34.3297C76.0202 35.3397 72.2202 36.5297 69.2102 36.7897C68.1802 36.9197 66.8902 37.0497 66.8902 37.0497C66.8802 37.0497 66.3802 37.3097 67.0202 37.3097C68.8902 37.1497 72.4802 36.7897 74.7602 36.0097C75.4002 35.8797 75.4002 36.0097 74.6302 36.2697C74.1202 36.5297 72.9702 36.7897 72.9502 36.7897C72.9502 36.7897 72.3102 37.0497 73.2102 36.9197C73.8702 37.0497 80.6202 34.1297 79.1402 35.2297C79.0102 35.2297 79.1402 35.3597 79.4002 35.2297C79.7802 35.0997 81.3202 34.3297 81.3302 34.3197C81.3302 34.3197 81.5902 34.3197 81.2002 34.5797C79.1702 35.9897 71.4302 38.5397 69.3402 38.7297C67.1902 39.9997 78.1402 36.6197 76.0502 37.6897C70.6102 40.5397 63.2202 42.6297 56.5802 43.1397C60.8702 39.7997 65.2702 34.9897 67.5402 30.5597C75.8902 31.3697 84.4002 28.8397 90.8802 24.0697L90.8702 24.0897ZM70.8902 34.3397C70.7602 34.2097 70.2502 34.3397 70.2502 34.3397L70.1202 34.4697C70.3802 34.5097 70.6702 34.4197 70.8902 34.3397Z" fill="white"/>
<path fill-rule="evenodd" clip-rule="evenodd" d="M77.2102 16.4297C75.9202 19.0197 74.0802 21.5297 72.0502 23.5697C77.8602 24.2397 81.3502 23.5097 86.1002 22.1397C89.3202 21.0997 92.2902 19.6797 95.0002 17.9897C89.0102 25.2797 80.3502 29.0197 71.0202 29.0197C69.0902 29.0197 67.2802 28.7597 65.4802 28.3697C64.5802 28.8897 63.6702 29.2797 62.7702 29.6697C60.8402 30.4497 58.7702 31.0997 56.5802 31.3597C55.0302 31.6197 53.4802 31.7497 51.9402 31.7497C50.0102 31.7497 48.0702 31.4897 46.1402 31.0997C45.2402 30.9697 44.4602 30.7097 43.5602 30.4497C44.4602 30.8397 45.2402 31.2297 46.1402 31.4897C49.1102 32.5297 52.0702 33.0497 55.2902 33.0497C57.6102 33.0497 59.8602 32.6297 62.1202 32.1397H62.2502C60.7002 33.4397 58.7702 34.8597 56.5802 35.8997C52.7302 37.9097 48.2702 39.0897 43.9402 38.3597C40.9702 37.8397 39.3002 36.2797 39.0402 35.1197C40.8002 36.8897 43.7302 37.4097 46.1302 37.0697C47.8102 36.8097 49.3502 36.2897 50.6402 35.3797C48.3002 35.0897 45.9302 34.8397 43.6802 34.0797C40.9702 33.1697 40.0702 33.1697 39.0402 33.2997C37.8802 33.4297 37.1102 34.3397 37.1102 35.5097C37.1102 36.0297 37.2402 36.5497 37.5002 36.9397C35.8202 36.4197 34.6602 34.8597 34.6602 33.0497C34.6602 32.6597 34.6602 32.2697 34.7902 32.0097C35.1802 32.1397 35.5602 32.1397 35.9502 32.1397C37.6302 32.0097 38.7902 30.8397 38.7902 29.4197C38.7902 28.8997 38.5302 28.3797 38.2702 27.8597C38.4002 28.1197 38.4002 28.2497 38.4002 28.5097C38.4002 29.8097 37.1102 30.9697 35.6902 30.9697C34.2702 30.9697 32.8502 29.9297 32.8502 28.6297C32.8502 26.6197 34.5702 24.9997 36.5902 24.9997C37.4902 24.8697 38.6502 25.1297 39.9402 25.7797C41.8702 26.6897 43.9402 27.5997 46.1302 27.9897C47.3302 28.1397 48.5302 28.2497 49.7402 28.2497C48.4502 28.1197 47.1602 27.7297 46.0002 27.2097C44.9702 26.6897 43.9402 26.1697 43.0302 25.3897C43.4202 24.2197 44.5802 23.3097 45.8702 23.3097C45.8702 21.5297 46.9002 20.0197 48.4502 19.1597C49.3502 18.7697 51.2902 17.8597 56.1902 18.8997C58.8802 19.4697 61.5702 19.8097 64.3102 19.8097C68.8602 19.8097 72.9502 18.6297 77.2002 16.4397L77.2102 16.4297ZM54.0002 23.0497C51.8102 21.3597 50.2602 21.6197 50.0002 21.6197C48.9702 21.7497 48.0702 22.5297 48.0702 23.6997C48.0702 24.4497 48.5802 24.9997 49.3602 24.9997C50.0002 24.9997 50.6502 24.3497 50.6502 23.6997C50.6502 23.3097 50.3902 22.9197 50.1302 22.6597C50.3902 22.5297 50.6502 22.5297 50.9002 22.5297C52.1902 22.5297 53.3502 23.6997 53.3502 24.9897C53.3502 25.5097 53.2202 26.0297 52.9602 26.4197C52.9802 26.4197 54.5202 26.9397 56.4402 26.9397C57.7302 26.9397 59.1502 26.9397 60.6902 26.6797C59.1402 26.1597 57.8502 25.3797 56.4402 24.5997C55.6402 24.0597 54.7902 23.5797 53.9902 23.0397L54.0002 23.0497Z" fill="white"/>
<path d="M76.1702 35.6297C76.3002 35.6297 75.9102 35.8897 75.7802 35.8897C75.6502 36.0197 75.5202 36.0197 75.3902 36.0197C75.2602 36.0197 75.3902 35.8897 75.3902 35.8897C75.4002 35.8897 75.6502 35.7597 75.7802 35.7597C75.9102 35.6297 76.0402 35.6297 76.0402 35.6297H76.1702Z" fill="white"/>
<path d="M83.9102 30.5697C84.0402 30.4397 84.0402 30.6997 84.1702 30.6997C83.6102 30.9797 83.1102 31.4797 82.4902 31.6097C82.3602 31.6097 82.4102 31.4397 82.6202 31.3497C83.1502 31.0297 83.5102 30.7697 83.9102 30.5697Z" fill="white"/>
</svg>
