<svg width="100" height="100" viewBox="0 0 100 100" fill="none" xmlns="http://www.w3.org/2000/svg">
<path d="M54.5689 80.9747H50.7324L54.4033 76.4036L54.5689 80.9747Z" fill="#CC0000"/>
<path fill-rule="evenodd" clip-rule="evenodd" d="M99.5565 43.3461C100.047 46.6987 100.132 51.2371 99.805 54.4044C98.0851 59.7908 94.4142 64.3074 90.6584 67.5619L90.7238 67.6666C94.9199 65.0529 97.272 62.4982 98.872 60.2442L98.9439 60.2726C94.3292 82.7227 74.2049 100.004 49.9978 100.004C25.7951 100.004 5.66644 82.7227 1.05608 60.2726L1.12801 60.2442C2.7302 62.4982 5.08006 65.0529 9.27625 67.6666L9.34383 67.5619C5.58578 64.3074 1.91057 59.7908 0.19504 54.4044C-0.131936 51.2371 -0.0469253 46.6987 0.443538 43.3461H0.528555C1.54872 48.2159 4.70295 54.8121 11.5171 60.1963L11.5912 60.0982C5.62066 53.7243 2.05663 45.866 1.50731 37.7701C2.62992 33.3145 4.37597 29.0049 6.57761 25.1989L6.65826 25.2295C5.44627 33.406 7.37761 44.2071 15.3166 52.9679L15.4038 52.8938C8.56998 43.0562 6.79123 31.0758 9.77325 20.3052C18.8828 7.98911 33.5073 0 49.9978 0C66.4905 0 81.1172 7.98911 90.2246 20.3052C93.2044 31.0758 91.4257 43.0562 84.5919 52.8938L84.6856 52.9679C92.6224 44.2071 94.5581 33.406 93.3461 25.2295L93.4224 25.1989C95.624 29.0049 97.3679 33.3145 98.4971 37.7701C97.9434 45.866 94.375 53.7243 88.4066 60.0982L88.4829 60.1963C95.2949 54.8121 98.4513 48.2159 99.4715 43.3461H99.5565ZM48.6638 47.7189C47.1095 59.9347 62.3946 66.2911 72.6158 56.3379C78.0022 51.0933 82.1875 42.9799 82.1875 33.4322C82.1875 15.7777 67.7962 1.24251 49.9978 1.24251C32.1994 1.24251 17.8125 15.7777 17.8125 33.4322C17.8125 45.5739 24.485 55.4115 32.7139 60.5799C33.3526 63.4377 34.5275 66.1646 36.1013 68.3903L36.23 68.3292C32.4043 57.4497 35.4561 43.7145 52.5766 30.751C57.1891 27.2545 55.6327 22.921 50.848 22.6485L23.8877 21.0899V20.933L49.0343 18.5875C53.4616 12.9962 60.873 13.212 65.1106 18.3085C66.6431 20.1592 69.0191 22.6267 70.1592 23.7123L70.1548 23.8191C61.4136 28.9156 49.8627 38.2976 48.6638 47.7189ZM63.4278 86.5374H78.9047L80.0665 83.5075H71.3973L75.7374 72.242H68.9166L63.4278 86.5374ZM54.6714 83.7233L54.776 86.5374H61.5946L60.23 72.242H54.133C53.3897 72.242 52.5809 72.6715 52.036 73.3014L40.618 86.5374H46.2441L48.5134 83.7233H54.6714ZM26.7019 86.5374C28.0141 86.8295 29.6076 87.0192 31.4409 87.0192C34.715 87.0192 39.3188 86.6137 41.1869 81.7505L44.836 72.242H38.0196L34.7041 80.8699C33.6599 83.5968 30.9853 83.8671 27.8659 83.5009L26.7019 86.5374Z" fill="#CC0000"/>
</svg>
