<svg width="100" height="100" viewBox="0 0 100 100" fill="none" xmlns="http://www.w3.org/2000/svg">
<path d="M0 25C0 11.1929 11.1929 0 25 0H75C88.8072 0 100 11.1929 100 25V75C100 88.8072 88.8072 100 75 100H25C11.1929 100 0 88.8072 0 75V25Z" fill="#E20177"/>
<path d="M52.5703 15.4297C71.6456 15.4299 87.1092 30.8934 87.1094 49.9688C87.1094 69.0442 71.6457 84.5086 52.5703 84.5088C49.3084 84.5088 46.1516 84.056 43.1602 83.2109C45.2536 83.6506 47.4242 83.8828 49.6484 83.8828C66.9949 83.8827 81.0575 69.8201 81.0576 52.4736C81.0576 35.127 66.995 21.0646 49.6484 21.0645C32.3018 21.0645 18.2393 35.127 18.2393 52.4736C18.2393 53.046 18.2549 53.6149 18.2852 54.1797C18.1174 52.7996 18.0303 51.3941 18.0303 49.9688C18.0304 30.8933 33.4948 15.4297 52.5703 15.4297ZM30.1387 73.3428C29.479 76.8488 28.1592 79.4076 25.8975 80.9238C22.0924 83.5254 17.3532 83.7579 12.9854 82.7246C12.9853 82.319 12.8907 81.9079 12.8906 81.4932C12.8906 79.8822 13.2675 78.3657 14.0215 76.9443C16.1582 77.374 18.5067 77.6655 20.4307 76.376C21.7511 75.2697 22.3611 73.6819 22.6924 72.0166L27.1963 48.8398H23.709C23.709 46.7689 23.8038 45.1443 24.7461 42.9648H35.7734L30.1387 73.3428ZM54.1816 42.5713C55.7221 42.4804 57.2626 42.9355 58.5312 43.8447C59.7092 44.9359 60.3439 46.3908 60.4346 47.9365C61.3407 46.3908 62.61 45.1183 64.1504 44.209C65.6909 43.2088 67.5033 42.6631 69.4062 42.6631C71.1279 42.5723 72.8498 43.1179 74.209 44.209C76.4466 46.2678 76.0576 50.4947 75.4775 53.2109L72.3965 70.4883C69.9393 70.8405 67.4217 70.8674 64.9658 70.4883L67.8652 53.8477C67.9559 53.1202 68.0469 52.3017 68.0469 51.5742C68.2296 50.1076 67.2433 48.8057 65.6904 49.0283C63.113 49.0283 61.4932 51.6446 60.6162 53.7568C59.9819 55.3027 59.5287 56.9394 59.2568 58.5762L57.1719 70.6699C54.7147 71.0221 52.1971 71.0491 49.7412 70.6699L52.6416 54.0293C52.8605 52.2721 53.2971 48.8044 50.4668 49.21C47.595 49.21 46.18 52.193 45.3018 54.4844C44.6674 56.303 44.1234 58.2125 43.8516 60.1221L41.9482 70.6699C39.491 71.0222 36.9735 71.0491 34.5176 70.6699L37.3271 54.8477C37.6896 52.6655 37.9616 50.6651 38.2334 48.9375C38.4146 47.6644 38.5049 46.2996 38.5049 44.9355C38.5049 44.3073 38.5673 43.6414 38.4141 43.0264C40.5724 42.6932 42.9932 42.5074 45.1201 43.1172C45.6437 44.6933 45.3018 46.3278 45.3018 47.9365C46.1173 46.3908 47.3854 45.0264 48.9258 44.1172C50.4662 43.117 52.3694 42.4804 54.1816 42.5713ZM33.7744 31.082C35.0273 31.0821 36.3375 31.2091 37.5439 31.5557C37.5439 33.9349 37.064 36.2245 36.3184 38.4736C34.994 38.8065 33.6284 38.9473 32.2656 38.9473C31.0457 38.9473 29.7692 38.9072 28.5898 38.5684C28.3901 36.158 28.9694 33.8219 29.7207 31.5557C31.0469 31.2223 32.4102 31.082 33.7744 31.082Z" fill="white"/>
</svg>
