<svg width="100" height="100" viewBox="0 0 100 100" fill="none" xmlns="http://www.w3.org/2000/svg">
<path d="M0 25C0 11.1929 11.1929 0 25 0H75C88.8072 0 100 11.1929 100 25V75C100 88.8072 88.8072 100 75 100H25C11.1929 100 0 88.8072 0 75V25Z" fill="#034C9C"/>
<path d="M47.8301 29.459L45.4775 40.6768H51.9375L54.2236 29.4639H64.3691L62.083 40.6768H69.3662L67.7959 47.458H60.5801L56.7949 65.8145C56.5389 66.8385 56.2599 68.105 56.8311 69.0654C57.5007 70.1902 58.7479 70.2422 59.9365 70.2422C61.1726 70.2422 62.3859 70.1695 63.5811 70.0293L61.8652 77.8154C58.5886 78.1121 55.2339 78.4457 51.9736 77.8516C49.8151 77.4587 47.74 76.4172 46.6182 74.4609C45.3755 72.3046 45.8635 69.5482 46.3643 67.25L50.5068 47.4629H44.0547L37.4668 78.8799C36.7791 81.9994 35.8371 85.4371 33.3965 87.666C29.4466 91.2415 23.7771 90.4421 18.8965 90.1699L20.6123 82.0254C21.8479 82.1248 23.007 82.1709 24.252 82.1709C25.7379 82.1708 26.5477 80.8366 27.041 79.5996C27.5609 78.3041 27.7091 76.9291 28.1133 75.6025L37.6846 29.459H47.8301Z" fill="white"/>
<path d="M45.7432 9.43262C47.7297 9.43277 74.2701 11.4575 97.0566 13.2246C97.8995 14.8002 98.5789 16.476 99.0713 18.2305C75.8643 20.0321 47.7886 22.1795 45.7432 22.1797C42.2219 22.1797 39.3694 19.3279 39.3691 15.8066C39.3691 12.2852 42.2218 9.43262 45.7432 9.43262Z" fill="#FFA000"/>
</svg>
