<svg width="100" height="100" viewBox="0 0 100 100" fill="none" xmlns="http://www.w3.org/2000/svg">
<path d="M100 50C100 77.6142 77.6142 100 50 100C22.3858 100 0 77.6142 0 50C0 22.3858 22.3858 0 50 0C77.6142 0 100 22.3858 100 50Z" fill="#ED3237"/>
<path d="M84.8567 33.6266H84.5333V34.2666L84.8567 34.5866C85.09 37.8233 81.97 39.7099 81.97 39.7099C81.92 37.6999 80.37 37.4699 80.37 37.4699C76.5967 36.4999 75.56 40.9932 75.56 40.9932C75.1367 44.7599 77.8033 44.8366 77.8033 44.8366C79.3033 45.2532 80.6867 43.5566 80.6867 43.5566V44.1966L80.3667 47.0799C79.6133 49.6332 76.2 48.6799 76.2 48.6799C74.72 48.0732 74.6 49.0033 74.6 49.0033C74.7667 53.4633 76.8433 55.0866 76.8433 55.0866C79.2867 56.2799 79.0867 56.6866 79.0867 56.6866C79.61 57.6932 78.4433 58.2899 78.4433 58.2899C77.3633 58.8499 77.1633 59.5732 77.1633 59.5732C76.7367 60.5199 78.4433 62.4533 78.4433 62.4533C79.0833 62.5199 79.4067 63.7366 79.4067 63.7366C79.3842 64.1542 79.2079 64.5487 78.9119 64.8441C78.6159 65.1395 78.221 65.315 77.8033 65.3366C77.3567 65.6233 76.5233 68.2199 76.5233 68.2199C73.2133 78.9533 61.9767 80.4799 59.65 80.6833C59.8867 83.2599 59.9067 86.6433 58.5767 87.7566C58.5767 87.7566 57.17 89.5233 53.7733 88.3966C53.7733 88.3966 57.3 85.4766 56.6533 77.5066C56.6533 77.5066 55.63 77.3466 55.0533 77.1866C55.0533 77.1866 54.2767 89.6532 47.6833 89.9999C47.6833 89.9999 44.73 90.0999 43.8367 88.3999C43.8367 88.3999 50.9567 86.1166 53.13 76.5466L51.85 75.9066C51.85 75.9066 47.2233 88.1799 39.35 88.3966C39.35 88.3966 36.3933 88.8166 34.5433 85.1966C34.5433 85.1966 43.7767 84.5132 50.2433 74.6232L48.9633 73.6633C48.9633 73.6633 39.4 84.7166 31.34 82.9499C31.34 82.9499 25.75 81.7299 25.8933 76.8666C25.8933 76.8666 36.8833 80.5266 47.6833 71.7433L46.7233 70.1432C46.7233 70.1432 35.0467 76.1099 26.2167 74.6266C26.2167 74.6266 14.5933 72.4032 18.2033 64.0566C18.2033 64.0566 30.11 71.9233 45.44 67.8999V65.9766C45.44 65.9766 15.8633 68.4966 15 52.5233C15 52.5233 15.3767 48.2599 17.24 48.0399C17.24 48.0399 25.06 60.0299 45.44 63.7366V62.1366C45.44 62.1366 16.7267 52.2699 16.6 34.5866C16.6 34.5866 16.8467 27.2199 22.69 28.1799C22.69 28.1799 23.2333 45.1333 46.0833 59.8932L46.72 58.6099C46.72 58.6099 25.22 45.0566 25.5733 19.5333C25.5733 19.5333 26.8267 6.55325 36.4667 10.8833C36.4667 10.8833 30.1433 37.8932 48.3233 56.0499C48.3233 56.0499 50.96 51.0666 58.58 51.2432C58.58 51.2432 70.38 50.7599 71.7133 63.7366C71.7133 63.7366 72.74 76.2599 59.2167 77.5099C59.2167 77.5099 59.34 78.1399 59.47 79.0899C71.0167 78.2666 72.9967 66.9399 72.9967 66.9399C74.7167 54.5066 63.3867 50.6032 63.3867 50.6032C54.47 47.2166 48.0033 53.8032 48.0033 53.8032C39.33 46.7432 38.3933 32.6666 38.3933 32.6666L40.6367 31.7066C37.8167 29.8533 39.0333 25.9399 39.0333 25.9399C40.5 27.1566 45.7633 24.9833 45.7633 24.9833C45.0067 21.9999 46.7233 21.4566 46.7233 21.4566C48.2567 21.2466 55.6933 21.4566 55.6933 21.4566C55.6933 18.3599 57.9367 18.5766 57.9367 18.5766C58.68 19.4066 61.4633 19.8566 61.4633 19.8566C66.0167 21.7933 65.63 22.0966 65.63 22.0966C65.8633 22.6433 66.27 22.4199 66.27 22.4199C66.22 19.7033 69.1533 20.8199 69.1533 20.8199C69.4467 23.7166 77.4833 27.5433 77.4833 27.5433C78.66 28.3366 77.4833 29.7866 77.4833 29.7866L78.7633 30.7466H80.0467L80.6867 31.0666L83.89 31.3866C85.1867 31.6966 84.8567 33.6299 84.8567 33.6299V33.6266ZM61.1433 26.5799C61.1433 26.5799 59.3633 27.4333 60.5 29.4633C60.5 29.4633 61 30.1766 62.1033 30.7433C62.1033 30.7433 59.8367 26.7499 64.9867 27.8599C64.9867 27.8599 63.8467 25.6599 61.1433 26.5799ZM76.2033 31.0632H73.96V31.7033L75.56 33.3033L76.8433 30.7433L76.2033 31.0632Z" fill="white"/>
</svg>
