<svg width="100" height="100" viewBox="0 0 100 100" fill="none" xmlns="http://www.w3.org/2000/svg">
<path d="M41.4288 63.4678L45.8968 68.6338L48.7666 65.3161L40.2263 55.4307L37.5688 52.3214L34.9282 55.8318L37.9184 59.3064L37.9132 59.3129L41.4288 63.4678Z" fill="#0F2D53"/>
<path d="M98.7337 38.4172C94.67 34.4296 90.3484 32.5005 85.892 32.6828C82.3491 32.8293 79.4598 34.3072 77.5086 35.675C77.4332 35.7252 77.3596 35.7779 77.2879 35.8332L77.2156 35.8853C76.9785 36.0542 76.7464 36.23 76.5197 36.4126L73.4364 33.0708C72.6818 32.1835 71.5295 30.7577 71.2333 29.9374C71.0073 29.302 70.954 28.6523 70.8837 28.2786C70.6271 26.957 70.4826 24.763 70.4826 24.763C70.4826 24.763 70.4826 24.2395 70.2346 23.6471L69.9279 22.8821C69.9279 22.8821 72.4963 21.7506 74.3341 21.8418L75.4364 23.1888L75.4754 21.8541V19.9205C75.4754 19.9205 75.3563 18.8841 74.3732 18.1002C73.6414 17.5208 73.3055 17.47 72.4006 17.3353C71.271 17.1732 71.064 17.485 70.215 16.6927L69.4383 15.5508L64.6376 15.5703L62.7581 16.2715C62.7581 16.2715 61.7229 16.5189 61.0217 18.2819L59.5908 22.8098C59.5908 22.8098 59.1995 24.3085 59.1188 26.5741C59.0309 28.8476 59.0732 26.6536 59.0732 26.6536C59.0732 26.6536 58.9716 30.0435 58.5686 31.0559L57.7932 33.7277C56.6767 36.3872 55.542 37.6997 55.5179 37.7277L51.2047 42.7244H51.208L50.0055 44.1196L48.8031 42.7244L48.8226 42.7114L46.1755 39.6763L45.7979 39.2466H45.794L44.4711 37.7284C44.445 37.6958 43.2471 36.3124 42.1026 33.5031L41.3917 31.0591C40.988 30.0461 40.8871 26.6562 40.8871 26.6562C40.8871 26.6562 40.9262 28.8502 40.8415 26.5768C40.7588 24.3111 40.3695 22.8131 40.3695 22.8131L38.9379 18.2845C38.24 16.5221 37.2035 16.2734 37.2035 16.2734L35.3188 15.5729L30.518 15.5534L29.7433 16.694C28.8969 17.4863 28.6854 17.1745 27.5539 17.3366C26.6528 17.4707 26.3136 17.5228 25.5832 18.1015C24.6001 18.8841 24.479 19.9218 24.479 19.9218V21.8561L24.5181 23.1907L25.6203 21.8444C27.4582 21.7532 30.0278 22.8847 30.0278 22.8847L29.7186 23.6497C29.4705 24.2441 29.4705 24.7656 29.4705 24.7656C29.4705 24.7656 29.3292 26.9602 29.0695 28.2812C28.9953 28.6549 28.949 29.3033 28.7199 29.94C28.3253 31.0442 26.3683 33.2512 25.9295 33.7401L23.4595 36.4133C21.5663 34.8892 18.2902 32.8514 14.0956 32.6809C9.64121 32.4966 5.31377 34.4276 1.2526 38.4152L0 39.645L0.938796 41.1261C1.07682 41.3501 4.41664 46.518 10.4042 47.6808C14.287 48.4334 18.5136 47.255 22.5239 44.382L19.606 41.0714C16.6223 43.2108 13.9198 43.9236 11.2708 43.4282C8.76947 42.9503 6.87105 41.3813 5.74671 40.1991C8.4407 37.9842 11.1672 36.9165 13.8782 37.0148C18.6242 37.1887 21.9536 40.9198 21.9836 40.9471L29.0161 49.0929L31.8787 45.7667L26.4998 39.5402L32.7888 31.6822L35.3552 28.4849C35.9561 31.649 38.8331 37.1079 40.0642 39.0122L30.2908 50.4047H30.2876L30.2485 50.4568L30.2159 50.4894H30.2192L27.2375 53.9685C25.6802 55.5863 20.2583 60.9658 13.9016 64.3903C13.9016 64.3903 15.8944 65.7614 18.5162 65.7119C20.0891 65.6924 21.8885 65.1598 23.6307 63.5153C24.3416 62.8382 25.3787 61.9131 26.3937 60.9177C26.3937 60.9177 25.9185 62.0856 27.0513 64.1937C27.9236 65.8148 29.451 66.7757 31.5161 66.8551C34.7459 66.9743 37.0694 65.277 38.6872 63.3363L36.3689 60.7731C36.3689 60.7731 34.2674 63.7581 31.714 61.9339C30.7771 61.0518 30.8494 59.5616 30.8494 59.5616C30.8494 59.5616 30.8299 59.0635 31.3162 58.0186C33.0545 55.0629 37.8155 48.8455 40.6404 45.229L42.8181 42.4686L45.9203 46.0519L45.9268 46.0454L47.1481 47.4601L47.1429 47.4666L47.2119 47.546L41.7738 54.2895L44.2478 57.059L49.9938 50.7771L50.0068 50.7901L50.0199 50.7771L57.0426 58.5857L57.0361 58.5922L59.9456 61.861V61.8565L60.9827 62.9619L61.7008 63.7627C63.2991 65.5185 65.5074 66.9632 68.5028 66.8532C70.5718 66.7738 72.0926 65.8128 72.9663 64.1917C74.103 62.0785 73.6239 60.9157 73.6239 60.9157C74.6421 61.9118 75.6792 62.8363 76.3908 63.5134C81.017 67.8935 86.116 64.3903 86.116 64.3903C79.7579 60.9658 74.3374 55.5883 72.7762 53.9685L71.0835 51.9861L67.5386 55.962C69.2606 58.3161 69.1727 59.5655 69.1727 59.5655C69.1727 59.5655 69.245 61.055 68.3101 61.9372C65.7678 63.7874 63.5185 60.6091 63.5185 60.6091L56.4651 52.044L56.4261 52.005L52.807 47.5389L52.876 47.4588L52.8694 47.4536L55.555 44.3449L55.5517 44.341L57.1728 42.4725L57.8837 43.3709L62.4918 49.6033L65.732 45.7518L60.4586 39.6027L60.4521 39.6222L59.9345 39.0194C61.1643 37.1118 64.0425 31.6535 64.6402 28.4908L67.2053 31.6874L73.4924 39.5461L72.204 41.0363H72.2072L60.9794 54.0362L63.8498 57.35L66.1304 54.7133L66.3661 54.4379L69.7906 50.4809L78.019 40.9543C78.0451 40.9282 81.3764 37.1971 86.1199 37.0213C88.8295 36.923 91.5547 37.9914 94.2507 40.2062C93.1309 41.3879 91.226 42.9569 88.7312 43.4341C86.0802 43.9302 83.3517 43.1984 80.3654 41.0539L77.521 44.3611C81.5314 47.2342 85.7156 48.4399 89.5925 47.6873C95.5853 46.5245 98.9238 41.3566 99.0612 41.1326L100 39.6515L98.7337 38.4172ZM54.0836 71.3265L51.1416 74.7965L51.4743 75.1897L51.4678 75.193L53.2542 77.262C54.193 78.4123 56.7731 81.3876 57.1715 84.4481C57.1715 84.4481 59.7203 80.939 57.7815 76.0146C57.7815 76.0146 57.497 74.7177 54.0862 71.3258" fill="#0F2D53"/>
<path d="M47.1234 70.0517C42.462 74.3974 42.1039 76.0152 42.1039 76.0152C40.1658 80.9449 42.7152 84.4481 42.7152 84.4481C43.111 81.3909 45.6898 78.4163 46.6299 77.2724L48.4183 75.1969L48.4118 75.1904L54.816 67.7796L54.8212 67.7848L58.6122 63.3975L55.7802 60.0316L47.1234 70.0517Z" fill="#0F2D53"/>
</svg>
