<svg width="100" height="100" viewBox="0 0 100 100" fill="none" xmlns="http://www.w3.org/2000/svg">
<path d="M41.6671 45.1115L69.4449 17.3338C72.5004 14.556 75.8338 12.6115 80.0004 11.2227H50.2782C49.4449 11.2227 48.6115 11.5004 47.7782 11.5004H47.2227C44.4449 12.3338 42.2227 13.4449 40.0004 15.1115C39.4449 15.6671 38.8893 15.9449 38.3338 16.5004L4.72266 50.6671H27.7782C33.056 50.6671 38.056 48.7227 41.6671 45.1115Z" fill="#996A4E"/>
<path d="M38.3333 56.4993L10.8333 83.9993C8.05556 86.7771 4.44444 88.9993 0 90.1105H29.4444C30.2778 90.1105 31.1111 89.8327 31.9444 89.8327H32.5C35 88.9993 37.5 87.8882 39.7222 86.2216C40.2778 85.666 40.8333 85.3882 41.3889 84.8327L75.5556 50.666H52.5C47.2222 50.666 42.2222 52.8882 38.3333 56.4993Z" fill="#84754E"/>
<path d="M86.944 32.8889C86.944 32.6111 86.944 32.6111 87.2218 32.6111C90.2773 31.7778 99.1662 30.6667 99.1662 30.6667C99.1662 30.6667 90.2773 30.1111 87.2218 29.2778L86.944 29C87.2218 27.8889 89.9996 24.2778 89.9996 24.2778L85.2773 27.6111C85.2773 27.6111 84.9996 27.6111 84.9996 27.3333C84.1662 22.6111 83.3329 14 83.3329 14C83.3329 14 82.7773 22.6111 81.6662 27.3333C81.6662 27.3333 81.6662 27.6111 81.3885 27.6111L76.6662 24.2778C76.6662 24.2778 79.444 27.8889 79.9996 29C79.9996 29 79.9996 29.2778 79.7218 29.2778C76.6662 30.1111 67.7773 30.9444 67.7773 30.9444C67.7773 30.9444 76.6662 31.7778 79.7218 32.8889L79.9996 33.1667C79.7218 34.2778 76.944 37.6111 76.944 37.6111L81.6662 34.8333C81.6662 34.8333 81.944 34.8333 81.944 35.1111C82.7773 39.8333 83.6107 48.4444 83.6107 48.4444C83.6107 48.4444 84.1662 39.8333 85.2773 35.1111C85.2773 35.1111 85.2773 34.8333 85.5551 34.8333L90.2773 37.6111C90.2773 37.3333 87.4996 34 86.944 32.8889Z" fill="#996A4E"/>
</svg>
