<svg width="100" height="100" viewBox="0 0 100 100" fill="none" xmlns="http://www.w3.org/2000/svg">
<path d="M7.60645 66.0001C12.2204 61.3479 17.8443 57.6128 26.9169 57.8624C38.4926 58.1808 47.6796 62.1324 57.8409 64.5748C55.8781 64.9873 54.3803 65.5113 51.0094 65.5403C42.4674 65.6139 33.013 60.1946 24.0932 60.3911C17.281 60.2671 12.5435 63.2846 7.60645 66.0001Z" fill="#151398" stroke="black" stroke-width="0.321136"/>
<path d="M5.3877 60.5926C11.142 55.0369 18.1558 50.5764 29.4708 50.8745C43.9075 51.2547 55.3651 55.9737 68.0378 58.8906C65.5898 59.3832 63.722 60.0089 59.5179 60.0436C48.8647 60.1315 37.0735 53.6596 25.9492 53.8942C17.4534 53.7462 11.5449 57.3497 5.3877 60.5926Z" fill="#0398F9"/>
<path d="M2.56104 55.9437C9.83959 48.6679 18.7113 42.8264 33.0235 43.2167C51.2843 43.7147 65.7769 49.8947 81.8065 53.7147C78.7101 54.3598 76.3474 55.1792 71.0297 55.2246C57.5546 55.3397 42.6401 46.8641 28.5691 47.1714C17.8228 46.9775 10.3492 51.6968 2.56104 55.9437Z" fill="#8CD701"/>
<path d="M0 51.0458C9.18483 41.886 20.3801 34.5319 38.4406 35.0233C61.484 35.6502 79.7722 43.4305 100 48.2396C96.0926 49.0518 93.1112 50.0834 86.4008 50.1406C69.3965 50.2855 50.5759 39.6152 32.8196 40.002C19.2588 39.7579 9.82793 45.6992 0 51.0458Z" fill="#E40098"/>
</svg>
