<svg width="100" height="100" viewBox="0 0 100 100" fill="none" xmlns="http://www.w3.org/2000/svg">
<path d="M0 25C0 11.1929 11.1929 0 25 0H75C88.8072 0 100 11.1929 100 25V75C100 88.8072 88.8072 100 75 100H25C11.1929 100 0 88.8072 0 75V25Z" fill="#CF9337"/>
<path d="M19.5874 86.8095C19.1274 86.3615 23.1354 84.0375 23.5594 83.8055C34.6954 77.6215 51.7594 75.4975 64.3674 76.0135C64.8514 76.0335 65.8474 75.7095 65.7554 76.4095C57.9514 76.8175 49.5594 77.7655 42.1754 80.5135C37.5754 82.2255 32.1554 84.8775 30.7314 90.0135L19.5874 86.8095Z" fill="white"/>
<path d="M49.3635 33.8417C49.3795 33.9137 50.0515 33.8137 50.0835 34.5137C50.1515 35.9337 47.9135 37.9646 49.3715 38.2518C51.2315 38.6182 53.2595 39.1511 53.2595 39.1511L51.2315 43.5217L55.1652 44.8463C55.6172 46.1863 54.3994 49.5091 52.967 49.5091L43.6715 50.3217L59.5435 52.3737L61.5795 58.4683L39.7448 59.4675C47.2888 59.4195 55.9995 60.4697 63.3035 62.2977L68.3475 74.3257C66.256 74.3257 62.5595 74.1472 61.5795 74.1552C48.8275 74.2752 33.6035 75.7057 22.1715 81.7177C20.8795 82.3977 17.4523 85.393 16.3643 84.813C12.9243 82.981 18.5007 72.0024 19.1619 70.1919C19.3501 71.3196 21.1312 75.2782 21.8929 72.7231C22.3729 71.1231 20.2399 70.1183 19.9279 68.9263C18.8839 64.9303 23.6375 59.9117 24.3575 56.0037C25.0535 56.3237 24.8941 57.8695 25.2901 58.7015C25.5821 59.3135 26.2755 59.4657 26.7515 59.9217C28.8538 57.1028 26.416 56.693 26.256 54.405C25.988 50.605 30.4075 49.9817 33.3235 49.9297C33.3235 46.7781 31.2635 47.5537 30.9435 45.3537L35.3115 43.5257L32.8171 39.3497L37.2795 37.6857C37.2795 37.6857 36.7472 35.9871 36.0145 35.3543C35.6775 35.0632 36.5141 34.022 36.5141 34.022L40.3109 25.3137H46.0795C46.8475 27.6617 48.3995 29.9177 49.2875 32.1257C49.6115 32.9297 48.9996 33.4137 49.0956 33.8417H49.3635Z" fill="white"/>
<path d="M82.0762 46.445C79.8925 37.8928 71.4854 34.2681 66.1894 28.2601C63.0974 24.7521 59.2371 19.543 57.2971 15.271C56.7221 16.6459 51.9682 29.992 51.7714 29.7887C51.7714 29.7887 50.5027 27.0278 49.5701 25.1627C55.8648 16.903 56.5308 10.042 56.5308 10.042C59.2948 17.254 64.8194 24.9895 70.5234 30.2215C74.6034 33.9615 78.862 36.0826 81.71 41.2826C84.45 46.2866 85.3068 51.5741 81.2103 62.1652C82.1214 57.4854 83.5748 52.3142 82.0762 46.445Z" fill="white"/>
<path d="M78.1794 56.3701C78.3934 58.0939 77.8797 68.5599 72.061 73.9135C71.617 73.7175 69.321 68.7935 69.625 67.9055C70.836 66.2358 76.606 58.7203 78.1794 56.3701Z" fill="white"/>
<path d="M71.3315 50.0175C72.5844 52.5066 67.1371 60.7698 66.6227 61.4991C66.0467 60.8791 64.945 59.5348 65.157 58.7348C67.755 55.0711 69.7866 52.5732 71.3315 50.0215V50.0175Z" fill="white"/>
<path d="M74.7492 53.739C75.6151 55.4708 70.5525 63.5974 68.5542 65.8621C68.1582 65.5021 67.627 64.2506 67.555 63.7306C69.5202 61.2327 73.5999 55.9371 74.7492 53.739Z" fill="white"/>
<path d="M64.1246 56.47C63.7846 56.162 63.3414 55.4152 63.2254 54.9712C62.8974 53.7352 67.5552 48.6765 68.6542 47.0778C68.954 50.2085 65.8429 54.7149 64.1246 56.47Z" fill="white"/>
<path d="M62.1794 52.4135C61.6428 51.5747 61.0893 50.6097 61.227 49.8089C62.4592 47.644 64.5241 45.679 65.3903 43.8139C65.3905 46.6781 64.3634 50.2375 62.1794 52.4135Z" fill="white"/>
<path d="M62.3593 40.6499C62.8589 42.5482 61.753 45.4762 60.429 47.1562C60.177 47.4762 60.441 47.8882 59.521 47.6602C59.737 46.8162 58.673 45.7122 58.785 45.1202C58.841 44.8322 61.9598 41.7156 62.3593 40.6499Z" fill="white"/>
<path d="M58.5972 36.8134C58.8457 38.6848 59.1453 41.0162 57.4132 42.8134C56.8699 41.6652 55.3151 38.8513 58.6012 36.8134H58.5972Z" fill="white"/>
<path d="M62.1714 26.8175C61.4314 28.9095 62.3034 30.3775 62.5674 32.4135C60.4074 31.1135 58.5434 27.2895 62.1714 26.8175Z" fill="white"/>
<path d="M63.4598 39.1136C61.3278 37.6856 59.8998 34.8936 62.8678 33.5176L63.4598 39.1136Z" fill="white"/>
<path d="M68.3064 38.4175C67.6424 40.4175 68.4904 42.0375 68.7024 44.0135C66.8664 42.4655 64.5304 38.9775 68.3064 38.4175Z" fill="white"/>
<path d="M75.3033 39.2175L75.6993 44.4135C73.6433 43.1815 72.1513 40.0375 75.3033 39.2175Z" fill="white"/>
<path d="M66.9475 31.2175C66.1715 33.0975 67.0355 34.8895 67.1515 36.8055C65.0275 35.2455 63.5595 32.1975 66.9475 31.2175Z" fill="white"/>
<path d="M72.5236 43.1843C71.8436 44.8523 72.8238 47.0498 73.0838 48.7098C71.9846 48.3101 68.9205 43.614 72.5236 43.1843Z" fill="white"/>
<path d="M58.5874 21.6175L58.9834 26.8135C57.1514 25.8095 55.6834 22.1655 58.5874 21.6175Z" fill="white"/>
<path d="M58.7958 33.6557C56.7998 32.5517 55.5737 29.7238 58.1297 28.6598L58.7958 33.6557Z" fill="white"/>
<path d="M70.9234 35.6175L71.7517 41.0828C70.2195 39.9171 67.6551 36.1869 70.9234 35.6175Z" fill="white"/>
<path d="M77.2953 48.4135L77.6914 53.2095C75.7714 52.2655 74.4873 48.9335 77.2953 48.4135Z" fill="white"/>
<path d="M54.6409 29.9842L55.0369 34.7802C53.1169 33.8362 51.8329 30.5042 54.6409 29.9842Z" fill="white"/>
</svg>
