<svg width="100" height="100" viewBox="0 0 100 100" fill="none" xmlns="http://www.w3.org/2000/svg">
<path d="M0 25C0 11.1929 11.1929 0 25 0H75C88.8072 0 100 11.1929 100 25V75C100 88.8072 88.8072 100 75 100H25C11.1929 100 0 88.8072 0 75V25Z" fill="#3D4A99"/>
<path d="M54.208 38.3209C61.0265 46.6301 66.3937 53.9738 65.2398 63.537C65.3758 63.4854 65.4166 63.1478 65.4602 63.0039C66.8573 58.4207 67.0982 53.3266 64.4464 49.1866C64.4473 49.0257 66.8303 47.5099 67.1306 47.4335L68.626 46.7556C73.4168 44.7102 78.1393 47.2994 80.9639 51.1848C80.2629 51.279 79.6267 51.3154 78.9416 51.518C72.6767 53.3741 68.6757 63.7609 66.1132 69.1657C62.5031 76.7779 56.9813 81.1309 49.689 84.8587C50.0658 84.0537 50.5527 83.3038 50.9196 82.4917C53.7327 76.2783 52.9419 69.4056 50.2088 63.3246C46.8413 55.8327 40.046 50.3319 37.0561 42.536L35.8291 39.1001C35.9419 40.4942 36.2094 41.9425 36.5639 43.2948C39.1344 53.0925 47.6437 59.2277 49.7343 69.3079C53.3595 86.7859 32.2404 92.8411 19.0361 94.4529L23.9825 92.515C31.6095 89.2249 42.1535 82.8995 42.4912 73.5283C42.8206 64.5166 34.0676 58.5413 31.1404 50.6713C26.6525 38.6203 28.3122 24.3641 36.4937 14.3097C35.9862 18.7947 35.27 22.9478 36.3604 27.4588C38.3633 35.9995 45.1334 42.0839 50.0284 49.0213C53.9311 54.5502 56.1367 60.3204 58.3965 66.6406C58.4144 61.7726 56.9302 56.8235 54.7127 52.5123C50.7266 44.7385 44.1748 38.6177 40.7008 30.5393C36.5829 20.9608 38.9608 12.9566 43.1158 4.17969C40.9981 17.112 45.2947 27.4588 54.208 38.3209Z" fill="white"/>
</svg>
