<svg width="100" height="100" viewBox="0 0 100 100" fill="none" xmlns="http://www.w3.org/2000/svg">
<path d="M43.2385 49.9958C48.553 42.5274 54.7219 44.0127 61.9922 44.8518C60.0636 42.7907 59.1133 40.1902 59.1133 37.3979C59.1133 30.9656 64.449 25.7495 71.034 25.7495C84.7857 25.7495 83.0872 41.3163 77.1222 41.3163C75.7829 41.3163 74.707 40.3762 74.4165 39.2611C74.177 38.3414 74.408 37.2603 74.0904 36.3881C73.6437 35.172 72.4089 34.2794 71.0281 34.2794C70.179 34.2776 69.3627 34.6066 68.7521 35.1966C66.8999 36.9817 68.0557 40.5554 69.2634 42.383C70.9448 44.918 73.8951 46.5537 77.2801 46.5206L77.8321 46.5036C87.2604 45.4429 90.0348 37.4166 87.6408 30.1333C86.6014 26.9699 82.9734 22.3142 78.8869 20.3635C86.412 16.0085 88.7219 5.96178 88.4552 0L7.52393 49.9975L88.4561 100C88.7219 94.0348 86.412 83.9898 78.8869 79.6365C82.9734 77.6832 86.6014 73.0276 87.6408 69.8633C90.0348 62.58 87.2604 54.5537 77.8321 53.4904L77.2801 53.4735C73.8951 53.4395 70.9448 55.076 69.2634 57.611C68.0566 59.4386 66.8999 63.0123 68.7513 64.7983C69.3619 65.3887 70.1787 65.7177 71.0281 65.7155C72.4098 65.7155 73.6437 64.8255 74.0904 63.6059C74.408 62.7338 74.177 61.6552 74.4165 60.7329C74.707 59.6178 75.7829 58.6777 77.1222 58.6777C83.0872 58.6777 84.7857 74.2446 71.034 74.2446C64.449 74.2446 59.1133 69.0284 59.1133 62.5962C59.1133 59.8038 60.0636 57.2034 61.9922 55.1423C54.7219 55.9839 48.553 57.4701 43.2385 49.9958" fill="#9B804D"/>
</svg>
