<svg width="100" height="100" viewBox="0 0 100 100" fill="none" xmlns="http://www.w3.org/2000/svg">
<path fill-rule="evenodd" clip-rule="evenodd" d="M9.72518 74.5496L9.32507 74.825C17.4752 89.8497 32.9003 100 50.4998 100C76.6745 100 97.8745 77.5996 97.8745 50.0003C97.8745 42.3997 94.7245 36.0001 90.9996 31.1498C86.05 24.6997 78.9999 21.5998 71.9749 21.55C66.1749 21.5002 60.1751 23.4502 55.9494 27.2748C51.1248 31.6498 50.0499 37.2753 48.7998 46.3997C47.425 56.4 39.3748 63.2999 29.025 63.2999C15.6251 63.2999 7.32557 55.0499 7.87508 42.4248C7.92522 41.5497 8.00043 40.6753 8.15017 39.8253C10.6751 24.9256 26.7002 9.55064 50.7996 9.6001C66.9748 9.6001 79.1246 13.2251 91.2747 25.4497L91.6752 25.1753C83.5247 10.1506 68.125 0 50.4994 0C24.3504 0 3.125 22.3997 3.125 50.0003C3.125 57.5999 6.27501 63.9999 10.0003 68.8496C14.9252 75.3 22.0006 78.3744 29.0253 78.45C34.8253 78.5245 40.8251 76.5494 45.0498 72.7246C49.8754 68.3495 50.9504 62.725 52.1998 53.6002C53.5752 43.5994 61.6495 36.6997 71.9746 36.6997C85.3995 36.6997 93.6997 44.9498 93.1492 57.5745C93.1001 58.4496 93.0242 59.325 92.8748 60.175C90.2997 75.0747 74.3501 90.4497 50.1999 90.3992C34.0251 90.3992 21.8753 86.7746 9.72518 74.5496Z" fill="#051766"/>
</svg>
