<svg width="100" height="100" viewBox="0 0 100 100" fill="none" xmlns="http://www.w3.org/2000/svg">
<path d="M0 25C0 11.1929 11.1929 0 25 0H75C88.8072 0 100 11.1929 100 25V75C100 88.8072 88.8072 100 75 100H25C11.1929 100 0 88.8072 0 75V25Z" fill="#285933"/>
<path d="M15.938 18.2074C16.8807 18.9131 17.8198 19.6234 18.7505 20.345C25.7398 25.4553 42.3757 36.8672 58.0902 47.6247C73.7304 58.3314 88.5631 68.4597 91.64 70.8094C93.0907 71.9172 93.166 73.2169 92.9291 74.86C92.6816 76.5767 92.0147 78.105 90.3618 78.4841C83.8644 79.9743 74.2012 81.9774 64.2686 82.2146C54.3305 82.4519 43.8557 80.9553 35.6423 74.95C26.1668 67.9091 23.3798 59.3407 20.9081 50.5924C18.4838 42.0115 16.3146 33.0984 8.94199 23.3837C7.84479 21.9548 7.40929 20.1206 8.7559 18.6387C10.0922 17.1685 14.3552 17.0282 15.938 18.2074Z" fill="white"/>
<path d="M14.002 20.8809C14.9642 21.5978 15.8966 22.3069 16.8005 23.0081C30.8425 33.2804 83.7006 68.8992 89.6722 73.4593C78.7776 72.7488 60.7778 65.8804 52.0147 58.6568C43.6077 51.7267 38.1434 39.5649 16.8005 23.0081C15.5272 22.0765 14.573 21.3535 14.002 20.8809Z" fill="#ADD141"/>
<path d="M37.6859 72.2751C20.6335 59.6042 27.5019 41.8412 11.2783 20.8809C27.0282 30.8281 42.0675 55.2226 53.9095 64.1041C65.7515 72.9856 87.067 75.2356 89.6723 75.2356C76.7645 78.1961 52.1017 82.9869 37.6859 72.2751Z" fill="#337642"/>
<path d="M10.9701 20.6C11.1062 20.4505 11.3298 20.4204 11.5007 20.5284L11.8729 20.766C19.6793 25.8109 27.286 34.3083 34.3762 42.6215C41.607 51.0995 48.2866 59.3658 54.1597 63.7706C60.0107 68.1587 68.232 70.9257 75.3495 72.5944C82.4657 74.2627 88.4126 74.8187 89.6724 74.8187C89.8843 74.8188 90.0625 74.9777 90.0864 75.1882C90.1102 75.3988 89.9718 75.5938 89.7652 75.6412C83.3059 77.1227 73.8796 79.0686 64.2547 79.2985C54.7894 79.5245 45.0649 78.0934 37.7822 72.8613L37.4372 72.609C28.7925 66.1854 26.2162 58.4567 23.7702 49.7992C21.3634 41.2808 19.0765 31.8422 11.3223 21.6227L10.949 21.1355C10.8252 20.9756 10.8341 20.7496 10.9701 20.6ZM13.0632 22.5819C20.0689 32.3862 22.2837 41.4735 24.572 49.573C27.0108 58.2046 29.5272 65.6928 37.9347 71.9401L38.2689 72.1847C45.333 77.2596 54.8369 78.6901 64.2346 78.4657C72.5049 78.2682 80.641 76.7901 86.8615 75.4367C84.1493 75.142 79.9051 74.518 75.1596 73.4054C68.0077 71.7287 59.6504 68.93 53.6595 64.4368C47.6907 59.9601 40.9292 51.5886 33.7425 43.1624C27.147 35.4292 20.1795 27.6332 13.0632 22.5819ZM13.6741 20.6233C13.8137 20.4456 14.0696 20.4113 14.2509 20.5463C15.2 21.2534 16.1193 21.954 17.0118 22.6459C23.3566 27.2897 37.7831 37.2131 52.206 47.0925C69.4406 58.8978 86.6573 70.6322 89.9252 73.1277C90.0712 73.2391 90.1269 73.4331 90.0625 73.6051C89.998 73.777 89.8285 73.8866 89.6453 73.8747C84.1395 73.5157 76.8717 71.6054 69.8932 68.8883C62.9149 66.1712 56.1789 62.6288 51.7498 58.9778C49.5302 57.1481 47.5201 54.9648 45.3913 52.4576C43.2436 49.9283 41.0225 47.1285 38.2879 43.948C33.2898 38.135 26.7169 31.2235 16.4959 23.3002C15.4821 22.5579 14.6723 21.9496 14.1 21.4957L13.7365 21.2017C13.5625 21.0576 13.5347 20.801 13.6741 20.6233ZM25.4971 29.6907C31.1924 34.7721 35.4363 39.354 38.9194 43.4049C41.632 46.5598 43.9259 49.4439 46.0266 51.9178C48.146 54.4138 50.1179 56.5528 52.2798 58.3349C56.6138 61.9075 63.2594 65.4113 70.1954 68.1119C76.5165 70.5731 83.0401 72.3513 88.226 72.9134C83.1047 69.2212 67.4499 58.5442 51.7351 47.7799C42.2356 41.2729 32.7108 34.7302 25.4971 29.6907Z" fill="black"/>
</svg>
