<svg width="100" height="100" viewBox="0 0 100 100" fill="none" xmlns="http://www.w3.org/2000/svg">
<path d="M100 50C100 77.6142 77.6142 100 50 100C22.3858 100 0 77.6142 0 50C0 22.3858 22.3858 0 50 0C77.6142 0 100 22.3858 100 50Z" fill="url(#paint0_linear_2099_1891)"/>
<path fill-rule="evenodd" clip-rule="evenodd" d="M32.4113 54.7323H44.068C44.9036 54.7323 45.5809 55.4097 45.5809 56.2452C45.5809 57.0808 44.9036 57.7581 44.068 57.7581H32.6274C30.1207 57.7581 28.0887 55.7261 28.0887 53.2194V49.4526C28.0887 46.281 30.6599 43.7098 33.8315 43.7098H43.9741C46.3017 43.7098 48.1885 45.5967 48.1885 47.9243C48.1885 50.2519 46.3017 52.1388 43.9741 52.1388H31.1145V53.4356C31.1145 54.1517 31.6951 54.7323 32.4113 54.7323ZM44.9466 47.9243C44.9466 48.5808 44.4144 49.113 43.7579 49.113H31.1145V47.9931C31.1145 47.2986 31.6775 46.7356 32.372 46.7356H43.7579C44.4144 46.7356 44.9466 47.2678 44.9466 47.9243Z" fill="white"/>
<path fill-rule="evenodd" clip-rule="evenodd" d="M64.6142 46.7356H52.9574C52.1219 46.7356 51.4445 46.0583 51.4445 45.2227C51.4445 44.3872 52.1219 43.7098 52.9574 43.7098H64.3981C66.9047 43.7098 68.9368 45.7419 68.9368 48.2485V52.0153C68.9368 55.187 66.3656 57.7581 63.194 57.7581H53.0514C50.7238 57.7581 48.8369 55.8712 48.8369 53.5436C48.8369 51.216 50.7238 49.3291 53.0514 49.3291H65.911V48.0324C65.911 47.3162 65.3304 46.7356 64.6142 46.7356ZM52.0788 53.5436C52.0788 52.8871 52.611 52.3549 53.2675 52.3549H65.911V53.4749C65.911 54.1693 65.348 54.7323 64.6535 54.7323H53.2675C52.611 54.7323 52.0788 54.2001 52.0788 53.5436Z" fill="white"/>
<path d="M9.28564 45.0066C9.28564 44.1711 9.96299 43.4937 10.7985 43.4937C11.6341 43.4937 12.3114 44.1711 12.3114 45.0066V52.8592C12.3114 53.8937 13.15 54.7323 14.1845 54.7323L25.2791 54.7323C26.1146 54.7323 26.792 55.4097 26.792 56.2452C26.792 57.0808 26.1146 57.7581 25.2791 57.7581H13.6442C11.237 57.7581 9.28564 55.8067 9.28564 53.3995V45.0066Z" fill="white"/>
<path d="M93.8077 43.7885C94.4662 44.303 94.5829 45.2537 94.0685 45.9122L86.3144 55.8367C85.367 57.0494 83.9139 57.7581 82.375 57.7581C80.8361 57.7581 79.3829 57.0494 78.4355 55.8367L70.6816 45.9122C70.1672 45.2537 70.284 44.303 70.9424 43.7886C71.6008 43.2741 72.5516 43.3909 73.066 44.0493L80.2879 53.2929C81.3483 54.6502 83.4018 54.6502 84.4622 53.2929L91.6842 44.0493C92.1986 43.3909 93.1493 43.2741 93.8077 43.7885Z" fill="white"/>
<defs>
<linearGradient id="paint0_linear_2099_1891" x1="50" y1="0" x2="50" y2="100" gradientUnits="userSpaceOnUse">
<stop stop-color="#664495"/>
<stop offset="0.485577" stop-color="#BF4678"/>
<stop offset="1" stop-color="#DE754B"/>
</linearGradient>
</defs>
</svg>
