<svg width="100" height="100" viewBox="0 0 100 100" fill="none" xmlns="http://www.w3.org/2000/svg">
<path d="M48.1484 21H51.2855C51.3112 22.0657 51.3084 23.1286 51.3027 24.1943C52.3512 24.1914 53.4027 24.1971 54.4512 24.1886C54.4598 25.2343 54.4598 26.28 54.4284 27.3257C53.3884 27.3257 52.3455 27.3314 51.3055 27.3257C51.3055 28.3543 51.3027 29.3857 51.3112 30.4171C50.277 30.4829 49.2427 30.4686 48.2084 30.46C48.2027 29.4143 48.2027 28.3657 48.197 27.3171C47.1455 27.3314 46.097 27.3257 45.0484 27.3286C45.0312 26.2857 45.0341 25.24 45.0312 24.1971C46.0884 24.1943 47.1455 24.1914 48.1998 24.1971C48.177 23.1314 48.2712 22.06 48.1484 21Z" fill="#00A1E4"/>
<path d="M29.9828 29.8312C33.1428 29.0712 36.6114 31.6998 36.5428 34.9883C36.7856 37.8626 34.2714 40.5569 31.4114 40.6112C28.8485 40.8312 26.3399 38.9426 25.7999 36.4398C25.0085 33.5769 27.0771 30.3712 29.9828 29.8312Z" fill="#00A1E4"/>
<path d="M42.5457 29.8255C45.7028 29.0769 49.1828 31.7112 49.0942 34.9998C49.3485 37.9569 46.6571 40.6969 43.7171 40.6198C41.1228 40.7312 38.7 38.694 38.2914 36.1426C37.7114 33.3398 39.7371 30.3483 42.5457 29.8255Z" fill="#00A1E4"/>
<path d="M55.1141 29.8314C58.177 29.1029 61.5227 31.5514 61.6398 34.72C61.8855 36.8714 60.6541 39.0343 58.7427 40.0143C56.7341 41.0971 54.0741 40.7143 52.4369 39.1314C50.5998 37.4114 50.2169 34.3829 51.5941 32.2714C52.3684 31.0229 53.6655 30.1086 55.1141 29.8314Z" fill="#00A1E4"/>
<path d="M67.7028 29.8258C70.4485 29.2087 73.4257 31.0858 74.0571 33.8287C74.6085 35.9401 73.7685 38.3144 71.9885 39.5858C70.3342 40.8201 67.9599 40.9744 66.1599 39.9658C64.1942 38.9458 63.0257 36.6287 63.3657 34.443C63.6257 32.1887 65.4657 30.223 67.7028 29.8258Z" fill="#00A1E4"/>
<path d="M30.9912 48.5367C30.9112 46.3538 30.9484 44.1653 30.9712 41.9824C43.5341 42.0196 56.0969 41.991 68.6598 41.9967C68.6626 44.171 68.6626 46.3424 68.6598 48.5139C56.1026 48.5281 43.5455 48.4853 30.9912 48.5367Z" fill="#00A1E4"/>
<path d="M0 54.0717C3.17143 54.0717 6.34286 54.0689 9.51715 54.0746C9.52286 57.1089 9.51143 60.146 9.52 63.1832C12.6657 60.1717 15.74 57.0889 18.8857 54.0775C22.0829 54.0689 25.28 54.0689 28.4771 54.0775C24.7914 57.8232 21.0057 61.4717 17.3486 65.2432C21.9571 69.7117 26.4086 74.346 31.0571 78.766C31.0971 70.5374 31.0629 62.306 31.0743 54.0746C34.3172 54.0689 37.56 54.0689 40.8029 54.0746C40.8029 60.3175 40.7972 66.5603 40.8029 72.8032C45.9829 72.7889 51.16 72.8203 56.3372 72.786C56.4086 74.9032 56.3486 77.0232 56.3714 79.1403C43.7829 79.1403 31.1914 79.1517 18.6029 79.1346C15.6257 76.1203 12.6086 73.146 9.61715 70.146C9.57429 73.1489 9.62286 76.1489 9.59143 79.1517C6.39429 79.1289 3.19714 79.1546 0 79.1374V54.0717Z" fill="#00A1E4"/>
<path d="M59.037 54.0716C64.2599 54.0545 69.4827 54.1059 74.7056 54.0459C76.3542 58.5288 77.797 63.0888 79.3542 67.6059C79.4827 67.403 79.6656 67.2316 79.7313 66.9945C81.2199 62.683 82.7427 58.383 84.2456 54.0745C89.497 54.0688 94.7485 54.0659 99.9999 54.0773V79.123C96.7856 79.163 93.5685 79.1373 90.3542 79.1373C90.3485 73.3716 90.3827 67.603 90.337 61.8345C89.8885 62.0859 89.8427 62.6545 89.6513 63.0802C87.7856 68.4373 85.8713 73.7773 84.0056 79.1345C80.9827 79.1345 77.957 79.1745 74.937 79.1145C73.0427 73.6373 71.0827 68.1859 69.1713 62.7173C69.1028 62.4116 68.9313 62.1888 68.6628 62.0459C68.6542 67.743 68.6656 73.443 68.6599 79.143C65.4513 79.143 62.2427 79.143 59.0342 79.1402C59.0399 70.7859 59.0313 62.4288 59.037 54.0716Z" fill="#00A1E4"/>
</svg>
