<svg width="100" height="100" viewBox="0 0 100 100" fill="none" xmlns="http://www.w3.org/2000/svg">
<path d="M0 25C0 11.1929 11.1929 0 25 0H75C88.8072 0 100 11.1929 100 25V75C100 88.8072 88.8072 100 75 100H25C11.1929 100 0 88.8072 0 75V25Z" fill="#440F08"/>
<path fill-rule="evenodd" clip-rule="evenodd" d="M10 62.4591C11.1666 60.0566 12.2986 57.7175 13.4595 55.3226H11.1243C11.4265 54.7624 11.6922 54.2792 11.9598 53.796C12.4661 52.8642 12.984 51.942 13.4864 51.0045C13.5943 50.8043 13.7136 50.7176 13.9523 50.7273C14.4221 50.7484 14.8976 50.7176 15.3692 50.7388C15.606 50.7504 15.7216 50.6676 15.8236 50.4558C17.1577 47.6817 18.4995 44.9095 19.8395 42.1392C20.4459 40.8743 21.06 39.6134 21.6606 38.3466C21.7704 38.1175 21.8897 37.9962 22.1727 38.0001C25.4955 38.0097 28.8164 38.0116 32.1412 38.0001C32.4184 38.0001 32.5243 38.1079 32.6109 38.362C34.3204 43.2789 36.0435 48.1918 37.7645 53.1068C38.8272 56.1466 39.888 59.1787 40.9468 62.2185C40.9718 62.284 40.993 62.3494 41.0277 62.4591H40.6195C38.1592 62.4591 35.6912 62.4476 33.2308 62.4707C32.8631 62.4745 32.7591 62.3379 32.6629 62.0241C32.018 59.9025 31.3519 57.7887 30.705 55.6653C30.6203 55.3861 30.5029 55.2937 30.2006 55.2957C27.5093 55.3091 24.816 55.3072 22.1246 55.2957C21.8435 55.2957 21.6991 55.3669 21.5721 55.6326C20.5325 57.7849 19.4717 59.9256 18.4283 62.0799C18.2936 62.359 18.1434 62.4649 17.8219 62.4649C15.246 62.4514 12.6683 62.4572 10 62.4572M27.155 44.2588C26.0596 46.4958 25.0143 48.6327 23.9419 50.8197C25.6573 50.8197 27.3033 50.8139 28.9473 50.8197C29.163 50.8197 29.1745 50.7504 29.111 50.5656C28.9704 50.1574 28.8549 49.7454 28.7279 49.3373C28.2139 47.6721 27.696 46.0068 27.155 44.2568" fill="white"/>
<path fill-rule="evenodd" clip-rule="evenodd" d="M75.2798 54.8256C74.35 52.8504 73.4163 50.8791 72.4864 48.9058C72.2342 48.3725 71.9859 47.8335 71.7067 47.2309C71.1369 47.9259 70.6055 48.565 70.0838 49.2119C69.2021 50.3227 68.3339 51.445 67.4329 52.5405C67.2346 52.7792 67.2596 52.9216 67.4098 53.1681C67.9469 54.0517 68.5957 54.8583 69.0751 55.7805L68.8941 55.871C67.1114 56.1097 65.3287 56.3465 63.5345 56.4928C63.005 55.7689 62.6354 54.9488 62.1811 54.1826C61.9693 53.8284 61.7845 53.4607 61.5766 53.1084C61.463 52.9159 61.4457 52.785 61.5958 52.5751C63.2495 50.2784 64.857 47.9432 66.5435 45.6638C66.9863 45.0632 67.4002 44.4336 67.8256 43.8176C67.9758 43.5981 68.1317 43.4961 68.4128 43.4961C70.7884 43.5134 73.1621 43.5134 75.5397 43.4961C75.8978 43.4961 76.0865 43.6289 76.227 43.9312C77.2743 46.1798 78.3254 48.4245 79.415 50.7501C79.8135 50.1013 80.1793 49.5083 80.5393 48.9135C81.5539 47.229 82.5684 45.5387 83.5753 43.8445C83.6966 43.6424 83.8352 43.5404 84.0855 43.5423C85.9298 43.5538 87.776 43.5461 89.6222 43.55C89.7377 43.55 89.8975 43.4807 89.9745 43.6155C90.0573 43.7579 89.9167 43.8522 89.8474 43.9524C88.573 45.7947 87.2985 47.6352 86.0183 49.4718C85.2117 50.6326 84.3935 51.7877 83.5772 52.9428C83.3578 52.9601 76.3521 54.7294 75.2779 54.8237" fill="#F4A12B"/>
<path fill-rule="evenodd" clip-rule="evenodd" d="M48.7361 56.1834C47.5907 55.0784 46.1198 54.574 44.6895 53.9945C43.6017 53.5498 42.6757 52.9049 42.1463 51.796C41.948 51.3802 41.8171 50.9335 41.769 50.4908C41.6015 48.9506 41.6304 47.4317 42.5814 46.0822C43.338 45.0118 44.4199 44.3957 45.6212 44.0184C47.6253 43.3869 49.6718 43.4389 51.7163 43.8432C52.1071 43.9221 52.4786 44.0646 52.8598 44.182C53.0504 44.2379 53.1332 44.363 53.1312 44.5671C53.1312 45.6297 53.1332 46.6944 53.1332 47.7532C53.1313 48.0073 53.0696 48.0939 52.777 47.9784C51.3274 47.4086 49.8181 47.1352 48.2548 47.2642C47.864 47.3008 47.4906 47.3797 47.1479 47.5472C46.0428 48.092 45.9697 49.1643 46.9823 49.842C47.8948 50.4523 48.9113 50.8546 49.9297 51.2281C51.5314 51.8153 52.9445 52.618 53.651 54.2872C53.986 55.0726 54.1593 55.8947 54.0572 56.7571C52.2669 56.6917 50.4976 56.4741 48.7361 56.1834Z" fill="#F4A12B"/>
<path fill-rule="evenodd" clip-rule="evenodd" d="M54.8193 56.778C54.8559 56.4488 54.8405 56.0984 54.8636 55.7557C54.9733 54.152 55.0889 52.5503 55.1986 50.9447C55.3526 48.7173 55.5047 46.4842 55.6568 44.251C55.7068 43.4944 55.7068 43.504 56.4788 43.504C58.0959 43.5079 59.7111 43.5079 61.3302 43.5002C61.592 43.4963 61.7364 43.5522 61.7152 43.8544C61.6055 45.356 61.5054 46.8596 61.3937 48.3612C61.2243 50.7946 61.053 53.226 60.8778 55.6594C60.8547 56.0156 60.8104 56.3717 60.7758 56.7298C58.7909 56.7626 56.8042 56.8992 54.8213 56.7799" fill="#F4A12B"/>
<path fill-rule="evenodd" clip-rule="evenodd" d="M48.7361 56.1836C50.4996 56.4743 52.2669 56.6899 54.0573 56.7573C54.0342 59.4698 52.6461 61.574 49.6621 62.2613C47.1922 62.8254 44.726 62.6656 42.3004 61.9417C42.0135 61.857 41.8499 61.7165 41.7517 61.4219C41.3108 60.1128 40.8392 58.8134 40.356 57.4465C41.6939 57.9624 43.0223 58.257 44.3564 58.5149C45.4268 58.7248 46.5068 58.7556 47.5926 58.5766C48.6649 58.3994 49.4196 57.2578 48.7361 56.1836Z" fill="white"/>
<path fill-rule="evenodd" clip-rule="evenodd" d="M75.2798 54.8258C75.994 54.614 76.4945 54.5331 77.1029 54.4022C79.1666 53.9498 83.479 52.8217 83.581 52.9449C83.0073 53.765 82.4394 54.5909 81.858 55.4091C81.7194 55.5997 81.7059 55.7999 81.7059 56.0155C81.7098 58.0408 81.7021 60.0622 81.7155 62.0894C81.7175 62.3839 81.6578 62.4686 81.3459 62.4648C79.5632 62.4532 77.7728 62.4571 75.9844 62.4667C75.7014 62.4667 75.6301 62.3858 75.6301 62.1086C75.6417 60.2297 75.6224 58.3469 75.6436 56.4679C75.6532 55.8788 75.5897 55.3321 75.2778 54.8258" fill="white"/>
<path fill-rule="evenodd" clip-rule="evenodd" d="M63.5366 56.4955C65.3309 56.3492 69.0195 55.814 69.0772 55.7812C70.0379 57.2193 71.0024 58.6574 71.9611 60.0974C72.4674 60.856 72.9641 61.6241 73.4723 62.3961C73.3607 62.5039 73.2394 62.4577 73.1374 62.4577C71.1641 62.4596 69.1946 62.4538 67.2233 62.4615C66.9557 62.4654 66.819 62.3845 66.6881 62.1535C65.6562 60.3015 64.6109 58.4611 63.5713 56.6187L63.5366 56.4955Z" fill="white"/>
<path fill-rule="evenodd" clip-rule="evenodd" d="M54.8197 56.7776C56.8045 56.897 58.7913 56.7622 60.7742 56.7275C60.6491 58.5449 60.5201 60.3545 60.4007 62.1699C60.3872 62.3856 60.3237 62.4626 60.0965 62.4626C58.2946 62.4549 56.4965 62.4568 54.6926 62.4587C54.5213 62.4587 54.3923 62.4587 54.4116 62.22C54.5521 60.4046 54.6849 58.593 54.8178 56.7776" fill="white"/>
</svg>
