<svg width="100" height="100" viewBox="0 0 100 100" fill="none" xmlns="http://www.w3.org/2000/svg">
<path d="M72.7969 10.3857C72.7969 10.3857 58.4691 1.36634 39.6317 6.67147C39.6317 6.67147 14.2838 13.966 5.52586 34.3927C5.52586 34.3927 -6.2671 53.3657 4.60294 74.3265C4.60294 74.3265 11.1182 89.0076 28.4841 93.1671C28.4841 93.1671 50.6905 99.1419 66.9657 86.8165C66.9657 86.8165 91.5391 73.8505 92.1635 46.4681C92.1635 46.4681 94.545 22.3239 72.7969 10.3857V10.3857ZM84.727 58.14C80.2189 70.3444 60.06 83.8783 60.06 83.8783C23.976 101.92 9.89356 75.7625 9.89356 75.7625C1.93908 58.7806 11.6716 42.5876 11.6716 42.5876C20.9588 24.2794 38.5652 17.0187 38.5652 17.0187C63.2402 6.40686 77.3049 18.3466 77.3049 18.3466C97.204 33.2052 84.727 58.14 84.727 58.14" fill="#EC2227"/>
<path d="M33.2409 32.0725C33.2409 32.0725 23.5487 54.7355 23.4131 56.1022C23.4131 56.1022 19.9942 66.7512 21.6351 77.1275L38.8106 77.6325C38.8106 77.6325 34.0589 75.3494 37.06 63.1983C37.06 63.1983 39.1107 55.9618 40.6113 55.4164C40.6113 55.4164 41.0195 54.7355 41.2954 55.9618C41.2954 55.9618 44.7031 68.2469 53.858 77.5357C53.858 77.5357 59.5842 85.453 73.7845 90.9115C73.7845 90.9115 86.2099 94.1933 93.5835 88.0524C93.5835 88.0524 99.8648 84.23 99.9972 73.1631C99.9972 73.1631 100.104 72.0418 99.0452 72.8953C99.0452 72.8953 94.4 78.0794 82.5263 77.1275C82.5263 77.1275 78.9799 77.8084 69.1522 70.3024L48.2592 53.1011C48.2592 53.1011 47.3056 52.417 48.6674 52.2766C48.6674 52.2766 60.8169 50.0935 64.3714 47.2248C64.3714 47.2248 75.2996 41.8551 76.7904 33.8506C76.7904 33.8506 79.0541 25.0781 75.5609 19.9246C75.5609 19.9246 74.3347 19.1034 73.9265 20.0601C73.9265 20.0601 67.6791 26.5044 62.29 29.9621L46.2068 40.4013C46.2068 40.4013 44.9725 41.221 45.9374 39.3106L50.5777 27.0223C50.5777 27.0223 53.1722 22.7902 46.0745 23.3371C46.0745 23.3371 35.3755 24.4166 29.4621 31.7047C29.4621 31.7047 29.0039 31.937 29.8251 32.2097L33.2409 32.0725V32.0725Z" fill="#EC2227"/>
</svg>
