<svg width="100" height="100" viewBox="0 0 100 100" fill="none" xmlns="http://www.w3.org/2000/svg">
<path d="M0 32.1871C9.8939 37.4347 35.6955 56.5579 63.1373 64.3313C64.4562 64.7041 65.7648 65.0474 67.0542 65.3613C80.4671 68.6254 92.0351 68.7182 100 68.0669C59.9676 61.3074 47.3018 49.9207 45.4848 47.4583C45.2785 47.1827 45.1842 47.028 45.1842 47.028C45.0663 46.9764 51.674 40.5706 64.4135 40.7356C80.3286 40.939 91.1096 45.7916 91.1096 45.7916C85.5438 42.448 79.888 40.2685 75.0928 38.8568C72.4904 38.061 69.9234 37.4598 67.4094 37.0177C64.3752 36.4592 62.5096 36.3236 62.5096 36.3236C54.2794 35.4571 48.1417 37.2564 43.0239 39.0542C38.2361 40.7327 32.0498 43.898 23.8506 40.3775C20.3286 38.8671 17.8662 38.366 13.8152 38.8185C7.42704 36.1689 2.6083 33.0345 0.207769 32L0 32.1871Z" fill="url(#paint0_radial_2099_1934)"/>
<defs>
<radialGradient id="paint0_radial_2099_1934" cx="0" cy="0" r="1" gradientUnits="userSpaceOnUse" gradientTransform="translate(72.7063 53.8709) scale(42.5032 42.5032)">
<stop stop-color="#00AEEF"/>
<stop offset="0.47582" stop-color="#00AEEF"/>
<stop offset="0.79884" stop-color="#0B4379"/>
<stop offset="1" stop-color="#1E285A"/>
</radialGradient>
</defs>
</svg>
