<svg width="100" height="100" viewBox="0 0 100 100" fill="none" xmlns="http://www.w3.org/2000/svg">
<path d="M23.3162 41.8727L8.88643 59.1783C8.88643 59.1783 5.6859 62.6024 9.78882 66.7053L11.7454 68.1348L17.6152 61.662L18.8549 62.9017L13.2845 69.0751L17.9483 73.0642L14.752 77.2388C14.752 77.2388 12.0153 80.6586 14.0899 83.6356L6.47023 93.271C6.47023 93.271 6.24672 94.1776 7.22502 93.874L16.9531 85.7356C20.4826 86.7434 23.8602 83.0369 23.8602 83.0369L29.8059 76.4924V84.4663H41.3936L53.9595 93.8698L56.7426 94.3969L31.6612 75.4846C31.5713 75.4151 31.4958 75.3286 31.4393 75.2299C31.3827 75.1313 31.3462 75.0225 31.3317 74.9097C31.3172 74.7969 31.3251 74.6824 31.3549 74.5727C31.3846 74.463 31.4357 74.3602 31.5052 74.2702C31.5747 74.1802 31.6613 74.1048 31.7599 74.0482C31.8585 73.9917 31.9673 73.9551 32.0801 73.9407C32.1929 73.9262 32.3074 73.934 32.4171 73.9638C32.5269 73.9936 32.6297 74.0447 32.7196 74.1142L41.1616 80.4773L36.6581 41.8643" fill="#1A3B73"/>
<path d="M29.8057 86.5703V93.8696H35.1483V91.9172C35.1483 91.9172 37.7037 94.1774 41.3217 94.1774H46.3607V91.5377C46.3607 91.5377 40.7946 90.9347 40.7946 86.5703H29.8057Z" fill="#B01842"/>
<path d="M36.658 41.8681L35.9749 35.9983L34.4738 24.8618C34.4738 24.8618 33.8708 21.6992 29.81 21.6992H10.6954C10.6954 21.6992 7.68457 24.0269 7.68457 31.2586H11.1465C11.1465 31.2586 11.4881 34.7586 14.6465 34.7586H21.1572C21.1572 34.7586 23.3204 34.7375 23.3204 36.9218V41.8723L36.658 41.8681ZM17.9524 73.0638C18.8533 73.8779 20.0406 74.3009 21.2533 74.2396C22.466 74.1783 23.6047 73.6378 24.4189 72.737C25.233 71.8361 25.656 70.6488 25.5947 69.4361C25.5334 68.2234 24.9929 67.0847 24.092 66.2705L17.9524 73.0638ZM47.3602 59.9875L40.5628 60.7592L39.5381 52.0347L46.3313 51.2673L50.2656 55.2395L47.3602 59.9875ZM48.6758 71.124L41.8742 71.8915L40.8453 63.167L47.647 62.3995L51.577 66.376L48.6758 71.124ZM48.2289 45.5324L46.0741 49.0745L39.2767 49.8462L38.3996 42.3909C38.3996 42.3952 43.0971 42.2729 48.2289 45.5324ZM43.0465 81.8304L42.1609 74.3119L48.9584 73.5445L51.8975 76.5215C51.8975 76.5173 48.5915 80.2491 43.0465 81.8304ZM57.3835 64.5923L53.698 65.0097L49.768 61.0333L52.6691 56.2852L56.3715 55.8678C56.3757 55.8678 57.9485 59.355 57.3835 64.5923ZM53.4282 74.7041L51.0499 72.3132L53.951 67.5651L56.9829 67.2235C56.9745 67.2235 56.4263 70.8036 53.4282 74.7041ZM55.3257 53.46L52.4288 53.7889L48.4987 49.8125L50.215 46.9999C50.215 46.9999 53.6559 49.7703 55.3131 53.3841" fill="#27824D"/>
<path d="M35.2033 45.157L36.0298 43.1836H23.8644L24.6867 45.157H35.2033ZM33.8033 48.5052L34.6551 46.4642H25.2348L26.0866 48.5052H33.8033ZM32.4202 51.8196L33.272 49.7828H26.618L27.4697 51.8196H32.4202ZM28.8191 53.9153C27.7428 53.9877 26.6985 54.3121 25.7705 54.8622C24.8425 55.4122 24.0567 56.1726 23.4764 57.0821C22.8881 58.0002 22.5282 59.046 22.4269 60.1318C22.3257 61.2176 22.486 62.3118 22.8945 63.3229L28.8191 53.9153ZM30.9654 53.9153C33.0654 54.0713 35.0979 55.1635 36.3081 57.0821C37.5352 59.0302 37.6996 61.341 36.89 63.3229L30.9654 53.9153Z" fill="#B01842"/>
<path d="M17.2483 26.1393C17.2483 25.518 17.0015 24.9222 16.5622 24.483C16.1229 24.0437 15.5271 23.7969 14.9059 23.7969C14.2846 23.7969 13.6888 24.0437 13.2495 24.483C12.8103 24.9222 12.5635 25.518 12.5635 26.1393H17.2483Z" fill="#1A3B73"/>
<path d="M11.8674 21.5049C11.8674 21.5049 8.4645 24.1615 8.4645 30.7059H11.5976C11.5976 30.7059 11.9054 34.1299 14.7644 34.1299H21.0853C21.0853 34.1299 23.978 34.0118 23.978 37.1533V41.8677L23.316 41.8719V36.9214C23.316 34.7371 21.1528 34.7582 21.1528 34.7582H14.6421C11.4837 34.7582 11.1421 31.2583 11.1421 31.2583H7.68018C7.68018 24.0265 10.691 21.6989 10.691 21.6989L11.8674 21.5049Z" fill="#1A3B73"/>
<path d="M3.61523 15.8293C3.61523 15.8293 13.2464 7.10059 24.8341 7.10059C36.426 7.10059 41.0897 14.6233 42.1439 17.4823C43.1981 20.3413 44.1005 21.2479 47.5625 21.2479L35.9748 35.9981L34.4736 24.8616C34.4736 24.8616 33.8706 21.6991 29.8099 21.6991H10.6952L3.61523 15.8293Z" fill="#B01842"/>
<path d="M11.1421 30.7065H20.0395C20.0395 30.7065 21.1527 30.6264 21.6039 29.1252C21.6039 29.1252 21.8316 28.6993 22.169 28.9102C22.5105 29.1252 22.1521 29.6776 22.1521 29.6776C21.7009 31.183 20.0437 31.2589 20.0437 31.2589H11.6903" fill="#1A3B73"/>
<path d="M36.2024 41.8681C46.757 41.8681 51.096 39.2706 52.5255 36.7025C53.9508 34.1345 56.8056 34.1345 56.8056 34.1345L65.3656 34.7038C74.4949 34.7038 76.2069 32.1358 78.2057 27.8558C80.2044 23.5757 83.055 26.713 83.055 26.713L87.335 28.1425C95.3258 30.1412 92.1843 20.1517 91.6192 15.0157C91.0458 9.87964 96.4685 5.59961 96.4685 5.59961C83.6285 5.59961 78.2057 11.0182 76.4937 13.3037C74.7859 15.5849 71.6444 15.3024 71.6444 15.3024C67.3644 15.3024 67.0818 22.1505 67.0818 22.1505C67.0818 26.7172 60.5163 26.7172 60.5163 26.7172H50.531C45.9642 26.7172 43.5058 32.4183 42.0806 34.9905C40.6553 37.5586 36.1433 37.2423 36.1433 37.2423H23.3159V41.8723L36.2024 41.8681Z" fill="#B01842"/>
</svg>
