<svg width="100" height="100" viewBox="0 0 100 100" fill="none" xmlns="http://www.w3.org/2000/svg">
<path d="M67.6549 22.8907L38.5488 12.4646C35.5079 11.3786 33.7702 9.64089 33.7702 6.59995V0.952506C33.7702 -0.567961 34.8563 0.0836674 36.1595 0.518087C45.934 3.99344 76.7777 15.0711 79.3842 15.94C79.8186 16.1572 80.0358 16.1572 80.253 16.3744C81.1219 17.026 80.253 18.1121 76.9949 19.1981C76.5605 19.6325 72.8679 20.9358 67.6549 22.8907ZM67.6549 40.9191C72.6507 39.1814 76.3433 37.6609 76.9949 37.4437C80.6875 36.1405 81.3391 34.8372 79.6014 34.1856H79.8186C79.6014 34.1856 79.6014 33.9684 79.3842 33.9684C78.9498 33.7511 76.5605 32.8823 73.0851 31.5791C69.1754 33.0995 63.5279 35.0544 57.8805 37.0093L67.6549 40.9191ZM19 38.5298C19 39.833 19.6516 40.0502 20.9549 39.6158C21.6065 39.3986 22.6926 38.9642 23.9958 38.5298C24.4302 38.3125 24.6474 38.3125 25.0819 38.0953C27.254 37.2265 30.0777 36.3577 33.1186 35.2716C28.1228 33.5339 23.3442 31.7963 20.7377 30.7102C19.6516 30.493 19 30.7102 19 32.0135V37.2265V38.5298ZM23.5614 24.8456L42.6758 31.7963C47.6716 30.0586 52.8847 28.1037 57.8805 26.366C43.7619 21.153 26.8195 15.0711 21.3893 13.1162C20.086 12.4646 19 12.0302 19 13.3335V18.7637C19 22.0218 20.7377 23.7595 23.5614 24.8456Z" fill="#ED1650"/>
<path d="M79.167 47.6526L33.553 64.1605V53.0828C33.553 53.0828 74.6056 38.0954 76.9949 37.4437C80.6875 36.1405 81.3391 34.8372 79.6014 34.1856C81.3391 34.8372 81.1219 35.0544 81.1219 39.833C81.3391 45.0461 81.3391 46.7838 79.167 47.6526ZM44.1963 89.3568C44.1963 86.9675 44.4135 85.0126 42.4586 85.8814L33.7702 89.1396V100L42.0242 96.9591C44.1963 96.0903 44.4135 94.5698 44.4135 92.3977V89.3568H44.1963ZM57.8805 66.5498C57.8805 64.1605 58.0977 62.2056 56.1428 63.0745L33.553 71.1112V81.9717L55.4912 74.1521C57.6633 73.2833 57.8805 71.7628 57.8805 69.5907V66.5498V66.5498ZM79.8186 16.1572C81.5563 16.8089 80.9047 18.1121 77.2121 19.4154C75.2572 20.067 38.5488 33.3168 25.0819 38.3126C24.6474 38.5298 24.4302 38.5298 23.9958 38.747C22.6926 39.1814 21.6065 39.6158 20.9549 39.833C19.6516 40.0503 19 39.8331 19 38.5298C19 39.3986 19 41.1363 20.5205 41.5707L32.467 45.9149C32.467 45.9149 33.3358 46.1321 34.2047 45.9149C35.2907 45.4805 79.167 29.6242 79.167 29.6242C81.3391 28.7554 81.3391 27.0177 81.3391 21.8047C81.3391 17.0261 81.3391 16.8089 79.8186 16.1572Z" fill="#1B0088"/>
</svg>
