<svg width="100" height="100" viewBox="0 0 100 100" fill="none" xmlns="http://www.w3.org/2000/svg">
<path d="M92.4386 44.7774C90.3364 43.6751 75.2386 39.7683 62.9932 37.6569C58.9136 36.866 54.7773 36.4069 50.625 36.2842C58.0114 36.5865 63.8477 42.6592 63.8523 50.0546C63.8523 50.3501 63.8273 50.6387 63.8091 50.9319C63.6455 54.9774 63.1818 59.0069 62.4182 62.9842L98.0045 54.5319C98.0364 54.2137 98.0523 53.891 98.0523 53.566C98.05 49.791 95.8591 46.3615 92.4386 44.7774Z" fill="#005EB8"/>
<path d="M63.9022 50.0205V62.6364L62.2749 63.0228L63.9022 50.0205Z" fill="#014FB7"/>
<path d="M50.0522 63.8547C49.5681 63.8547 49.0863 63.8274 48.6045 63.7774C44.7454 63.582 40.9022 63.1252 37.1045 62.4093L45.5522 97.9729C45.8704 98.0047 46.1931 98.0206 46.5181 98.0206C50.2954 98.0206 53.7295 95.8252 55.3113 92.3933C56.4136 90.2933 60.309 75.2252 62.4227 62.9888C63.1863 59.0115 63.6522 54.9843 63.8136 50.9365C63.3545 58.2002 57.3295 63.8547 50.0522 63.8547Z" fill="#0077C8"/>
<path d="M50.0705 63.8841H37.4523L37.0659 62.2568L50.0705 63.8841Z" fill="#0067C7"/>
<path d="M36.2522 50.0551C36.2522 50.0392 36.2522 50.0232 36.2522 50.0051C36.2522 49.7619 36.275 49.5232 36.2886 49.2823C36.4363 45.1823 36.9 41.1005 37.6795 37.0732L2.09314 45.5278C2.06132 45.8482 2.04541 46.1687 2.04541 46.4937C2.04541 50.271 4.24087 53.7051 7.67268 55.2869C9.77496 56.3892 24.8727 60.2937 37.1159 62.4051C40.9136 63.121 44.7545 63.5778 48.6159 63.7732C41.5909 63.0369 36.2545 57.1187 36.2522 50.0551Z" fill="#00A3E0"/>
<path d="M36.1865 50.0433V37.4274L37.8138 37.041L36.1865 50.0433Z" fill="#0195DF"/>
<path d="M54.5452 2.09363C54.2248 2.06181 53.9043 2.0459 53.5793 2.0459C49.802 2.0459 46.368 4.24135 44.7861 7.67317C43.6839 9.77544 39.7884 24.8414 37.677 37.0777C36.8975 41.105 36.4316 45.1868 36.2861 49.2868C36.6884 41.9823 42.727 36.2641 50.0407 36.2595C50.2384 36.2595 50.4225 36.2823 50.6134 36.2891C54.7702 36.4095 58.9111 36.8686 62.993 37.6595L54.5452 2.09363Z" fill="#71C5E8"/>
<path d="M50.2456 36.1523H50.0479C42.3979 36.1523 36.1911 42.3478 36.1797 49.9978V50.0433C36.1797 57.6205 42.2729 63.7887 49.8501 63.8796H50.0479C57.6979 63.8796 63.9047 57.6842 63.9161 50.0342V49.9887C63.9183 42.4114 57.8229 36.2433 50.2456 36.1523Z" fill="#082C88"/>
<path d="M49.9999 57.81C47.3295 57.7418 44.8954 56.2555 43.6136 53.9123C27.5204 52.7191 10.1272 50.2145 9.92722 50.2145C9.62722 50.2145 9.52949 49.9145 9.52949 49.7145C9.51131 49.4555 9.70677 49.2305 9.96586 49.21C9.98177 49.2077 9.99767 49.2077 10.0159 49.21L42.7022 49.91C42.6204 46.3123 45.0181 43.1282 48.4999 42.2145L49.5999 28.8191C49.584 28.56 49.7818 28.335 50.0409 28.3191C50.059 28.3168 50.0795 28.3168 50.0977 28.3191C50.3568 28.3032 50.5818 28.5009 50.5977 28.76C50.5999 28.7782 50.5999 28.7986 50.5977 28.8168L51.7909 42.2123C55.2272 43.1736 57.5727 46.3418 57.4886 49.9077L90.0863 49.2077C90.3477 49.1941 90.5704 49.3918 90.5863 49.6532C90.5863 49.6714 90.5863 49.6895 90.5863 49.7055C90.6113 49.9532 90.434 50.1736 90.1886 50.2055C89.9909 50.2055 72.4954 52.6055 56.5045 53.8032C55.2386 56.2373 52.7409 57.7759 49.9999 57.81Z" fill="white"/>
</svg>
