<svg width="100" height="100" viewBox="0 0 100 100" fill="none" xmlns="http://www.w3.org/2000/svg">
<path fill-rule="evenodd" clip-rule="evenodd" d="M59.2872 10.9276L13.2892 66.2405C12.8223 66.7676 12.6416 67.3851 12.8525 67.8671C13.0783 68.4018 13.5527 68.7407 14.1852 68.7407H85.2642C85.8967 68.7407 86.3484 68.1834 86.3484 67.5885C86.3484 66.971 86.0472 66.5869 85.4449 66.4438C82.8622 65.8639 68.925 62.8441 58.8656 59.7942C52.6687 57.9115 50.2517 52.5572 51.8631 45.4332C53.6476 37.5335 61.2223 12.1927 61.2675 12.0948C61.4407 11.5677 61.3051 10.9426 60.7781 10.664C60.1606 10.3552 59.6411 10.5134 59.2872 10.9426" fill="#0090B8"/>
<path fill-rule="evenodd" clip-rule="evenodd" d="M50.0866 6.09233C38.4196 6.09632 27.2315 10.7335 18.9817 18.9846C10.7319 27.2356 6.0954 38.4254 6.09141 50.0941C6.30469 61.6232 11.0336 72.608 19.2611 80.6858C27.4886 88.7637 38.5573 93.2894 50.0866 93.2894C61.6159 93.2894 72.6846 88.7637 80.9121 80.6858C89.1396 72.608 93.8685 61.6232 94.0818 50.0941C94.0947 44.3121 92.9655 38.5845 90.7591 33.2401C88.5527 27.8957 85.3126 23.0399 81.2247 18.9514C77.1368 14.8629 72.2816 11.6222 66.9381 9.41548C61.5945 7.20875 55.8677 6.07942 50.0866 6.09233ZM50.0866 0C77.5996 0 100 22.4038 100 50.0941C100 77.5887 77.5996 100 50.0791 100C22.408 100 2.26814e-06 77.5887 2.26814e-06 50.0866C-0.00197766 43.5083 1.29231 36.9941 3.80888 30.9163C6.32545 24.8386 10.015 19.3165 14.6665 14.6656C19.3181 10.0147 24.8405 6.32634 30.9181 3.81122C36.9957 1.29609 43.5093 -0.00395836 50.0866 0Z" fill="#0090B8"/>
</svg>
