<svg width="100" height="100" viewBox="0 0 100 100" fill="none" xmlns="http://www.w3.org/2000/svg">
<path fill-rule="evenodd" clip-rule="evenodd" d="M50 0C22.3503 0 0 22.3499 0 49.9999C0 77.6499 22.3503 100 50 100C77.6499 100 100 77.6499 100 49.9999C100 22.3499 77.6499 0 50 0ZM3.00025 49.9999C3.00025 75.9497 24.0502 96.9997 50 96.9997C75.9498 96.9997 96.9998 75.9497 96.9998 49.9999C96.9998 24.05 75.9498 2.99979 50 2.99979C24.0502 2.99979 3.00025 24.05 3.00025 49.9999ZM69.3874 40.0574C69.0074 40.0574 68.6875 40.0673 68.5076 40.0873C68.2976 40.4674 67.9876 40.9772 67.5276 41.6873C74.6866 41.6873 81.1859 42.2771 88.3748 43.5669L86.3452 45.5267C79.856 44.3768 74.4667 43.9171 67.5977 43.9171C66.5979 43.9171 66.3879 43.9171 66.148 43.9269C65.9079 44.2868 65.3679 44.9867 64.8282 45.6367C65.438 45.5967 66.6179 45.5768 68.2475 45.5768C73.8969 45.5768 79.176 45.9966 84.9054 46.9166L82.8755 48.8863C78.5161 48.2064 73.1868 47.8164 68.4074 47.8164C66.7077 47.8164 64.7781 47.8764 63.0483 47.9763C62.7556 48.3141 62.1079 49.0181 61.6721 49.492C61.5273 49.6493 61.4059 49.7813 61.3286 49.8661C63.6181 49.6262 66.1379 49.5161 69.1374 49.5161C73.407 49.5161 77.4865 49.7962 81.3459 50.3661L79.316 52.3157C76.5664 51.9759 73.2268 51.776 70.2774 51.776C62.6685 51.776 56.6691 53.4256 50.4699 57.2151C56.3791 63.5543 66.0579 67.5637 75.4366 67.5637H76.3164L73.037 70.7338C59.5087 68.1938 45.2707 62.2446 33.2424 54.0954C21.6739 46.2865 17.6245 43.977 8.59576 39.9876L8.53579 37.6677L14.6449 40.2874L16.7247 38.6376L36.6719 47.7764L35.372 48.8162L25.1335 44.367L24.1236 45.1567L29.443 48.1264C33.9324 50.6262 37.3518 51.7459 40.5115 51.7459C47.4205 51.7459 53.6197 46.8465 57.619 38.2378C60.6287 37.8476 63.8383 37.6677 67.6976 37.6677C75.6165 37.6677 83.3054 38.4276 92.0143 40.0574L89.8946 42.1071C84.4755 40.9772 75.2666 40.0574 69.3874 40.0574Z" fill="#05164C"/>
</svg>
