<svg width="100" height="100" viewBox="0 0 100 100" fill="none" xmlns="http://www.w3.org/2000/svg">
<path d="M56.489 55.1995L62.2067 57.5316L64.5446 58.4319L76.4899 63.3548C78.609 65.2886 80.256 67.6807 81.3044 70.348C81.3182 70.4457 81.3641 70.5361 81.4343 70.6058C81.4343 70.7348 81.4338 70.7355 81.5632 70.8646C81.6924 71.1226 81.6926 71.3839 81.822 71.6419C81.9541 71.9739 82.0412 72.322 82.0808 72.6771C82.383 74.0822 82.4273 75.5308 82.2106 76.9515C82.083 78.2728 81.6862 79.5546 81.0456 80.7181C79.6985 83.5531 77.3513 85.794 74.4528 87.012C71.5543 88.23 68.3074 88.3395 65.3327 87.3206H65.2038C65.0744 87.3206 64.9445 87.1917 64.8151 87.1917C64.7981 87.1921 64.7812 87.1892 64.7653 87.1829C64.7494 87.1766 64.7345 87.1667 64.7224 87.1546C64.7105 87.1426 64.7013 87.1283 64.695 87.1126C64.6887 87.0968 64.6858 87.0798 64.6862 87.0628C64.0363 86.8047 63.3861 86.5436 62.8806 86.2855C58.238 83.8377 54.7072 79.7142 53.0104 74.7571L56.7751 75.4056L58.2048 75.6634V73.721L56.7507 72.8148L51.6872 69.4476L51.5573 69.3187L51.6872 68.2825L52.4665 62.4544L52.5954 61.9349L53.7634 54.0355L56.489 55.1995ZM47.2731 61.9349L47.402 62.4544L48.1813 68.2825L48.3112 69.3187L48.1813 69.4476L43.1179 72.8148L41.9587 73.721V75.6634L43.3884 75.4056L47.1101 74.7454C45.4132 79.7022 41.8833 83.826 37.2409 86.2737C36.7354 86.5319 36.0852 86.793 35.4353 87.0511C35.4356 87.0681 35.4328 87.0851 35.4265 87.1009C35.4201 87.1167 35.4102 87.1308 35.3981 87.1429C35.3861 87.1549 35.372 87.1649 35.3561 87.1712C35.3404 87.1775 35.3233 87.1804 35.3063 87.18C35.177 87.18 35.0471 87.3089 34.9177 87.3089H34.7888C31.8139 88.3278 28.5663 88.2174 25.6677 86.9993C22.7693 85.7812 20.4228 83.5403 19.0759 80.7054C18.4358 79.5458 18.038 78.2688 17.9079 76.9515C17.6912 75.5307 17.7356 74.0822 18.0378 72.6771C18.0773 72.322 18.1644 71.9739 18.2966 71.6419C18.4259 71.3838 18.4261 71.1226 18.5554 70.8646C18.6848 70.7355 18.6843 70.7348 18.6843 70.6058C18.7543 70.5362 18.7994 70.4457 18.8132 70.348C19.8615 67.6809 21.5087 65.2886 23.6276 63.3548L35.3151 58.4319L37.653 57.5316L43.3698 55.1995L46.0964 54.0355L47.2731 61.9349ZM8.44111 13.014C11.757 13.1498 15.037 13.7561 18.1813 14.8148C18.3107 14.8148 18.4406 14.9446 18.57 14.9446C18.8227 15.0736 19.2137 15.2024 19.4724 15.3314C28.9929 18.8217 37.9592 23.6639 46.0935 29.7083C46.5559 29.9642 46.9914 30.2659 47.3933 30.6087C47.2639 30.9957 47.2637 31.3857 47.1345 31.6439C47.1345 31.8958 47.0047 32.2861 47.0046 32.5443C46.3767 35.6997 46.0746 38.9114 46.1022 42.1282V44.4485L39.8708 48.722L37.7946 50.2776L22.5837 61.0609C18.3794 60.6851 14.3486 59.2114 10.8972 56.7874C6.36366 53.6289 3.13293 48.9362 1.80634 43.5814V43.3226C0.607717 38.2724 0.00251676 33.1002 0.00165633 27.9105C-0.0190753 25.1813 0.154832 22.4539 0.522164 19.7493C0.625387 19.597 0.670883 19.4126 0.65107 19.2298C0.937743 17.4831 1.84151 15.8961 3.19892 14.7562C4.55656 13.6161 6.27879 12.9979 8.05341 13.014H8.44111ZM91.945 13.014C93.7194 12.998 95.441 13.6162 96.7985 14.7562C98.156 15.8961 99.0597 17.483 99.3464 19.2298C99.3266 19.4127 99.3729 19.597 99.4763 19.7493C99.8436 22.4539 100.018 25.1813 99.9968 27.9105C99.9959 33.1003 99.3898 38.2724 98.1911 43.3226V43.5814C96.8645 48.9362 93.6347 53.6289 89.1013 56.7874C85.6497 59.2115 81.6182 60.6851 77.4138 61.0609L62.2038 50.2776L60.1276 48.722L53.8952 44.4485V42.1282C53.9228 38.9114 53.6207 35.6997 52.9929 32.5443C52.9927 32.2861 52.864 31.8958 52.864 31.6439C52.7346 31.3858 52.7345 30.9958 52.6052 30.6087C53.007 30.2659 53.4426 29.9641 53.905 29.7083C62.0391 23.6641 71.0047 18.8217 80.5251 15.3314C80.7839 15.2023 81.1757 15.0737 81.4284 14.9446C81.5576 14.9444 81.6869 14.8148 81.8161 14.8148C84.9606 13.7561 88.2404 13.1498 91.5563 13.014H91.945Z" fill="#BED600"/>
</svg>
