<svg width="100" height="100" viewBox="0 0 100 100" fill="none" xmlns="http://www.w3.org/2000/svg">
<path d="M100 95.4023V86.4829L45.0431 86.4254C25.0431 86.4254 8.82533 70.1404 8.82533 50.0575V4.59766H0.000121938V50C-0.0571846 75.0201 20.0918 95.3447 45.0087 95.4023C45.0603 95.4023 45.1061 95.4023 45.1577 95.4023H100Z" fill="#DA291C"/>
<path d="M45.1001 79.6927C28.8079 79.6409 15.6331 66.3597 15.6445 50V4.59766H24.699V50C24.699 61.2901 33.7993 70.4569 45.0428 70.4857H45.1001H99.9999V79.7503L45.1001 79.6927Z" fill="#DA291C"/>
<path d="M26.0171 4.59766H40.2864L99.9999 56.4449V69.0471L26.0171 4.59766Z" fill="#333333"/>
<path d="M51.0601 4.59766H65.3294L99.9999 34.4055V47.0652L51.0601 4.59766Z" fill="#333333"/>
<path d="M76.1606 4.59766H90.43L100 12.5963V25.256L76.1606 4.59766Z" fill="#333333"/>
</svg>
