<svg width="100" height="100" viewBox="0 0 100 100" fill="none" xmlns="http://www.w3.org/2000/svg">
<path fill-rule="evenodd" clip-rule="evenodd" d="M98.5265 38.6123H45.8859L45.8756 38.6486C45.5384 38.6227 45.2167 38.6227 44.8795 38.6227C31.993 38.6227 25.9077 47.748 25.9077 55.7217C25.9077 57.8954 26.2916 60.1521 27.1061 62.2894H16.2636L22.6083 38.6227H10.7905L1.61328 72.857H13.4311V72.8311H44.8691V72.857L44.8951 72.8311H45.5799C58.9592 72.5302 63.3273 63.5501 63.8565 55.7217C64.0121 53.548 63.3533 51.3017 62.1289 49.1539H73.2464L66.8965 72.857H78.7143L85.0642 49.1539H95.777L98.5265 38.6123ZM51.8519 55.7217C51.7948 56.4739 51.6859 57.221 51.4576 57.9888C50.1244 61.641 47.5305 62.4191 43.9924 62.2894C41.0302 61.9678 39.4064 60.2506 38.6749 58.2689C38.4103 57.4752 38.2443 56.4999 38.2443 55.7217C38.2443 52.8632 40.0601 49.6364 44.0443 49.1539H46.0623C46.2515 49.1766 46.4361 49.2053 46.6161 49.2398L43.1209 56.6088C41.7305 57.0653 40.1949 57.5582 38.6075 57.9784L38.6801 58.16L43.3024 58.1496L47.131 62.0404C47.5149 61.5113 47.4682 60.1521 46.7004 59.6022L44.672 58.1496H51.3746L51.5043 57.8124C51.4605 57.8042 51.4066 57.8277 51.3532 57.8511C51.3055 57.872 51.2582 57.8926 51.219 57.8902C51.0089 57.9282 50.9758 57.8328 50.9273 57.6924C50.8369 57.4309 50.6926 57.0135 49.2476 57.0135C49.0291 57.0135 49.0305 57.1407 49.0322 57.2865C49.034 57.4451 49.036 57.6257 48.7548 57.6879C48.2412 57.7968 47.3282 57.8331 46.991 57.6049C46.8799 57.5272 46.7709 57.3643 46.6426 57.1727C46.2738 56.6215 45.746 55.8328 44.5527 56.1523L47.2659 51.8672C47.8123 51.0024 47.3728 50.3729 46.9653 49.7892C46.8358 49.6036 46.7095 49.4227 46.6191 49.2404C50.2681 49.9405 52.0348 52.9983 51.8519 55.7217Z" fill="#243973"/>
</svg>
