<svg width="100" height="100" viewBox="0 0 100 100" fill="none" xmlns="http://www.w3.org/2000/svg">
<path fill-rule="evenodd" clip-rule="evenodd" d="M26.078 40.9313L37.1702 37.7592C37.1702 37.7592 37.0513 37.0175 36.6537 36.6534C36.2559 36.2893 35.5405 36.0641 35.5405 36.0641L20.1235 30.4577C20.1235 30.4577 19.6341 30.293 19.2765 30.4913C18.9189 30.6894 18.9315 31.2044 18.9315 31.2044V38.3822C18.9315 38.3822 18.8931 39.0695 19.8873 40.6098C20.8816 42.15 23.2366 41.7577 23.2366 41.7577L26.078 40.9313ZM70.235 23.6128L80.5532 17.8252C80.5532 17.8252 80.7085 16.8252 80.3108 16.4611C79.913 16.0971 79.4396 15.9849 79.4396 15.9849L34.8778 0.0641695C34.8778 0.0641695 34.3883 -0.100507 34.0307 0.0977506C33.6732 0.295847 33.6857 0.811027 33.6857 0.811027V6.9998C33.6857 6.9998 33.6796 8.43378 34.6738 9.97416C35.6681 11.5144 37.2813 11.9131 37.2813 11.9131L70.235 23.6128ZM70.235 41.6271L80.5532 36.2754C80.5532 36.2754 80.773 34.9203 80.3753 34.5562C79.9775 34.1921 79.4396 33.9994 79.4396 33.9994L20.1227 12.4283C20.1227 12.4283 19.6333 12.2636 19.2756 12.4619C18.9181 12.6602 18.9307 13.1755 18.9307 13.1755V19.3641C18.9307 19.3641 18.9246 20.7981 19.9187 22.3385C20.9131 23.8788 22.5263 24.2776 22.5263 24.2776L70.235 41.6271Z" fill="#ED1651"/>
<path fill-rule="evenodd" clip-rule="evenodd" d="M79.4394 15.9844C79.4394 15.9844 80.0417 16.0759 80.5526 16.5737C81.0635 17.0714 81.0691 17.6794 81.0691 17.6794V25.8735C81.0691 25.8735 81.0446 26.993 80.586 27.9998C80.1272 29.0066 79.4556 29.2447 79.4556 29.2447L78.0579 29.753L33.5252 45.9478C33.5252 45.9478 33.311 46.014 33.0325 46.014C32.7539 46.014 32.5397 45.9478 32.5397 45.9478L20.1321 41.4355C20.1321 41.4355 19.8243 41.3638 19.3876 40.6788C18.8958 39.9103 18.9312 38.3846 18.9312 38.3846C18.9312 38.3846 19.0083 39.167 19.4498 39.5383C19.8914 39.9097 21.0684 39.5022 21.0684 39.5022L78.0583 18.7771C78.0583 18.7771 80.3212 17.853 80.3212 16.914C80.3212 16.2655 79.4396 15.9871 79.4396 15.9871L79.4394 15.9844ZM79.4394 33.9987C79.4394 33.9987 80.0417 34.0903 80.5526 34.588C81.0635 35.0858 81.0691 35.6938 81.0691 35.6938V43.8879C81.0691 43.8879 81.0446 45.0074 80.586 46.0142C80.1272 47.0209 79.4556 47.2591 79.4556 47.2591L78.0579 47.7673L33.5252 63.9621V52.9837L78.0579 36.7889C78.0579 36.7889 80.3209 35.8647 80.3209 34.9258C80.3209 34.2772 79.4394 33.9987 79.4394 33.9987V33.9987ZM57.3327 62.8398C57.7589 63.2665 57.7589 64.2056 57.7589 64.2056V70.333C57.7589 70.333 57.7344 71.4525 57.2758 72.4593C56.817 73.4661 56.1454 73.7041 56.1454 73.7041L54.7477 74.2126L33.5247 81.9308V70.9524L54.7477 63.234C54.7477 63.234 56.9065 62.4132 57.3327 62.8399V62.8398ZM43.642 85.7524C44.0682 86.1791 44.0682 87.1183 44.0682 87.1183V93.2457C44.0682 93.2457 44.0436 94.3652 43.585 95.372C43.1263 96.3788 42.4546 96.6167 42.4546 96.6167L41.057 97.1251L33.5247 100V89.0216L41.057 86.1467C41.057 86.1467 43.2158 85.3259 43.642 85.7526V85.7524Z" fill="#2A0088"/>
</svg>
