<svg width="100" height="100" viewBox="0 0 100 100" fill="none" xmlns="http://www.w3.org/2000/svg">
<path d="M100 50C100 22.2414 77.931 0 50 0C22.069 0 0 22.069 0 50C0 77.931 22.069 100 50 100C77.931 100 100 77.931 100 50Z" fill="#FF0000"/>
<path d="M50.3475 62.9824C63.0648 63.9333 66.6727 66.7036 67.8172 70.2578C67.0717 69.9205 65.8853 69.6992 63.2117 69.6992H56.7635C63.9708 76.472 72.2505 81.8011 81.4696 84.6357C80.1782 84.8777 78.9006 85 76.8533 85C53.5189 85 51.2119 72.2071 34.909 71.2393C32.1864 71.0792 30.9908 70.5102 30.6424 69.6992H56.7596C54.5116 67.5871 52.3786 65.335 50.3475 62.9844V62.9854C50.3464 62.9841 50.3456 62.9827 50.3446 62.9814L50.3475 62.9824ZM26.3553 15C29.6888 30.2895 38.0019 48.6385 50.3446 62.9814C50.2701 62.9717 50.1889 62.9715 50.1112 62.958C25.8142 61.1893 18.4363 47.3233 19.033 33.5693C19.5703 20.9842 26.3553 15 26.3553 15Z" fill="white"/>
</svg>
