<svg width="100" height="100" viewBox="0 0 100 100" fill="none" xmlns="http://www.w3.org/2000/svg">
<path d="M6.9022 62.1091H80.5086C81.8453 62.1091 82.4236 63.2471 81.8007 64.6494L78.6982 71.6069C78.0788 73.011 76.4966 74.1455 75.1513 74.1455H1.54152C0.211649 74.1455 -0.371779 73.011 0.247684 71.6069L3.35187 64.6494C3.97305 63.2471 5.56203 62.1091 6.9022 62.1091ZM24.8444 26H98.4606C99.794 26 100.371 27.1264 99.7511 28.5282L96.6535 35.5028C96.0289 36.9063 94.438 38.0364 93.0977 38.0364H19.4884C18.155 38.0364 17.5732 36.9063 18.203 35.5028L21.2972 28.5282C21.9201 27.1264 23.5024 26 24.8444 26ZM51.558 41.302L52.9144 44.8022H58.0198C59.1076 44.8022 59.3469 45.6267 58.3124 46.7968L55.097 50.4217L56.4121 53.8275C56.7081 54.5946 56.8011 55.4191 54.9352 55.4191H50.6681L47.4458 59.0457C46.6437 59.9427 46.3718 59.9595 45.9397 58.8501L44.6074 55.4191H39.4229C38.3264 55.4191 38.0906 54.5862 39.1199 53.4178L42.399 49.7187L41.1115 46.382C40.8137 45.6267 40.7276 44.8022 42.5832 44.8022H46.7659L50.0467 41.1031C50.8489 40.2028 51.1191 40.1825 51.558 41.302Z" fill="#00003C"/>
</svg>
