<svg width="100" height="100" viewBox="0 0 100 100" fill="none" xmlns="http://www.w3.org/2000/svg">
<path d="M42.4821 17.8999C45.228 17.4518 49.0351 17.9322 50.0066 21.0187C50.5443 19.9469 51.272 18.8858 52.4299 18.4269C54.0538 17.6096 55.9 17.7709 57.6494 17.9071C55.943 19.3625 55.2368 21.5744 54.7242 23.6822C53.8172 27.5502 53.5878 31.5294 52.9963 35.4512C52.8242 36.3043 52.6988 37.2005 52.2435 37.9569C51.8528 38.4803 51.186 38.6703 50.6411 38.9858C50.6734 43.3055 50.6411 47.6287 50.659 51.952C51.2111 52.4396 51.7524 52.9343 52.3009 53.4325C53.7061 46.9369 55.14 40.4412 56.936 34.0387C57.8609 30.35 59.0045 26.7114 60.4384 23.1875C61.0406 21.6461 62.3849 20.3161 64.0913 20.1512C67.1276 19.7461 69.9489 21.3557 72.4188 22.9258C71.3183 23.1839 70.1675 23.4456 69.2893 24.1984C68.031 25.2595 67.2244 26.7365 66.5075 28.1919C65.0879 31.2103 63.7185 34.2502 62.3061 37.2722C61.7325 38.3226 61.2127 39.5737 60.0584 40.1042C58.9184 40.0899 57.843 39.6167 56.7317 39.398C55.5451 44.4096 54.3084 49.4211 53.3548 54.4829C53.4014 55.2536 53.7957 56.3936 54.6382 56.5621C60.0763 46.9225 65.4069 37.0751 72.7199 28.6902C73.8778 27.2563 75.8029 26.4067 77.6383 26.8799C80.7284 27.5467 82.8829 30.1062 84.6968 32.5116C82.3666 32.3037 79.9863 33.0027 78.219 34.5478C75.3404 37.0392 72.8454 39.9429 69.9668 42.4308C69.1961 43.0187 68.35 43.7464 67.3284 43.7105C66.3676 43.4524 65.5826 42.8036 64.6864 42.3949C64.2311 42.0472 64.0088 42.7964 63.7866 43.0509C60.7503 47.9585 58.0294 53.0418 55.201 58.0677C55.6132 58.9352 56.0506 59.792 56.5202 60.6344C62.367 54.0384 68.4217 47.5535 75.4265 42.1619C77.606 40.4699 79.911 38.9284 82.3451 37.6307C84.8151 36.2685 88.1453 36.8098 90.0632 38.8746C91.6513 40.667 92.6228 42.9147 93.4867 45.1265C91.4111 44.2053 89.0416 43.8539 86.8405 44.5351C83.1374 45.6248 79.8537 47.7578 76.251 49.1093C75.4121 49.3817 74.4514 49.6398 73.6125 49.2419C72.7414 48.6648 72.0675 47.8474 71.3039 47.1448C67.0165 50.9268 63.1019 55.0959 59.2805 59.3403C58.6065 60.1182 57.8358 60.828 57.2909 61.7099C57.3303 62.8355 58.0437 63.8141 58.4667 64.8322C66.7476 58.5516 75.3906 52.2424 85.5392 49.3889C88.4214 48.6576 91.6943 48.0016 94.4295 49.5538C96.1861 50.493 97.1468 52.3571 97.6128 54.2212C98.0537 55.7304 98.3836 57.2719 98.5628 58.8348C95.0461 55.8738 90.1672 56.1283 85.9013 56.7843C83.5389 56.9994 81.0188 57.9243 78.7137 56.9923C77.9466 56.1319 77.5056 55.0385 76.9213 54.0563C70.5117 57.3185 64.6434 61.545 59.0188 66.008C59.4167 67.1659 59.8684 68.3059 60.381 69.4208C68.9989 64.8788 78.1724 60.6093 88.0737 60.1863C91.5581 60.1684 95.5049 60.4946 98.1039 63.1008C100.513 65.6998 100.083 69.5247 99.7063 72.7582C98.9033 71.6111 98.0394 70.446 96.7847 69.7578C93.2644 67.7467 89.1276 67.4384 85.1807 67.0405C83.9475 66.829 82.5746 66.8003 81.535 66.0224C80.7786 65.0007 80.7786 63.6421 80.3627 62.4734C73.4763 64.169 67.0308 67.2197 60.8291 70.5966C60.9833 71.5179 61.4134 72.4535 61.2199 73.3963C60.5746 74.5255 59.5673 75.3859 58.6962 76.3359C56.427 78.5477 54.0646 80.8097 51.1071 82.068C49.2323 82.7348 47.5008 81.3618 46.0167 80.3975C43.536 78.4939 41.2417 76.3251 39.2235 73.9376C38.3775 72.9697 39.1231 71.6792 39.2916 70.6002C33.0361 67.2807 26.5906 64.0507 19.6325 62.5308C19.2705 64.0113 19.335 66.2805 17.3992 66.596C13.4774 67.4706 9.33337 67.2305 5.54065 68.7289C3.42721 69.3848 1.61954 70.7778 0.446638 72.6543C-0.23089 70.403 -0.073159 67.994 0.489656 65.7356C1.22454 63.1402 3.6407 61.4016 6.16799 60.7814C10.5916 59.688 15.2304 60.2401 19.6182 61.2474C26.7304 62.857 33.3157 66.0977 39.7576 69.4172C40.2196 68.2835 40.6689 67.1446 41.1055 66.0009C35.4379 61.588 29.6162 57.279 23.1671 54.0671C22.5864 55.0314 22.1813 56.1247 21.4178 56.9672C20.0304 57.6483 18.428 57.3687 16.9547 57.193C13.4559 56.7091 9.88185 55.9778 6.35081 56.6123C4.562 56.9098 2.92732 57.7737 1.50416 58.8779C1.81603 56.7306 2.28206 54.6012 3.04204 52.565C3.86654 50.4607 5.93498 49.0053 8.1468 48.7078C10.8211 48.3278 13.4846 49.0949 16.0334 49.8262C25.5403 52.8877 33.7782 58.7739 41.5751 64.8573C42.034 63.9038 42.5645 62.9825 42.8872 61.9716C42.8513 61.5342 42.4785 61.2331 42.2311 60.8997C37.976 56.1319 33.5882 51.4681 28.8598 47.1591C27.641 48.1163 26.587 49.9374 24.7695 49.3602C20.518 48.1414 16.8579 45.3309 12.5095 44.3702C10.5307 43.897 8.47302 44.3307 6.64118 45.1301C7.35456 43.1011 8.28661 41.1331 9.5628 39.3944C11.2907 37.0966 14.6461 36.2183 17.2701 37.4049C19.041 38.2007 20.6363 39.3156 22.2494 40.3767C30.2866 46.0729 37.0619 53.3035 43.5898 60.6237C44.0522 59.7884 44.4896 58.9388 44.8767 58.0677C41.887 52.7478 39.0729 47.3169 35.7319 42.2013C34.3876 42.7857 32.9393 44.3773 31.4265 43.3413C29.2506 42.0114 27.6517 39.9644 25.7841 38.2581C23.6547 36.2936 21.7798 33.795 18.9048 32.8844C17.7684 32.4543 16.5424 32.5009 15.3487 32.5259C17.435 29.9162 19.9193 26.8333 23.5651 26.7652C25.8091 26.654 27.3004 28.5289 28.5874 30.0847C35.2981 38.2581 40.4208 47.5606 45.5507 56.7664C46.0059 56.1355 46.601 55.544 46.791 54.7697C45.8554 49.6183 44.5613 44.5351 43.3962 39.4267C42.3028 39.6203 41.2453 40.0361 40.134 40.1006C39.0586 39.8318 38.6033 38.6739 38.0799 37.8171C36.2911 34.1893 34.7389 30.4468 32.8891 26.8476C31.8746 24.8616 30.0858 23.2019 27.7951 22.9438C29.9783 21.3198 32.6382 20.0508 35.4093 20.0831C37.2662 20.0616 38.9009 21.3557 39.6035 23.0226C41.0374 26.5286 42.1917 30.1456 43.1058 33.8201C44.9054 40.2978 46.4182 46.8544 47.7948 53.4325C48.3468 52.9486 48.9634 52.5148 49.4008 51.9162C49.5191 47.6108 49.3757 43.3019 49.4725 38.9965C48.8128 38.613 47.9633 38.3441 47.655 37.5734C47.3503 36.8564 47.214 36.0857 47.0778 35.3221C46.5222 31.4398 46.2676 27.5036 45.3822 23.6751C44.8875 21.5636 44.1203 19.402 42.4821 17.8999V17.8999Z" fill="#7E1D2E"/>
</svg>
