<svg width="101" height="100" viewBox="0 0 101 100" fill="none" xmlns="http://www.w3.org/2000/svg">
<path d="M68.99 87.5002C63.93 87.3302 48.28 84.1002 54.73 76.2002C55.34 75.2502 56.32 74.7702 57.38 74.7502C57.68 74.7502 57.84 73.7102 58.46 73.8802C59.08 74.2302 58.62 74.9202 58.15 75.2702V75.7902C58.43 75.8902 58.76 75.8102 59.08 75.8302C58.78 76.3302 58.49 76.3402 58.31 76.6502C58.31 76.8202 58.93 76.8202 58.93 76.9902C58.46 77.5102 57.54 77.1702 56.92 77.5102V77.8602C58.46 77.6902 60.17 76.4802 61.72 77.3402C61.72 77.3402 61.26 77.5102 60.94 77.6902C62.62 78.1502 64.33 77.8402 66.05 78.0302C65.9 77.6902 65.43 77.8602 65.27 77.5102C66.51 77.1702 67.75 77.8602 68.99 78.2002C68.18 77.0702 66.54 77.7702 65.9 76.3102C66.07 75.2402 67.75 76.7902 68.37 76.3102C68.95 76.0002 69.4 76.5802 69.95 76.2202H69.97C69.97 76.2202 70.04 76.1702 70.07 76.1402C69.45 75.4502 68.37 76.1402 67.75 75.2802C69.61 74.7402 71.54 74.0402 73.63 74.5902C74.35 74.8802 75.3 75.5402 76.1 75.2802C76.1 75.1102 75.8 74.9302 75.64 74.7602C75.17 74.7602 74.56 74.7602 74.25 74.2402C74.47 73.1802 75.88 74.9602 76.57 74.4102C74.42 73.4302 71.93 73.8002 70.22 71.8302C69.87 72.3502 69.51 71.9002 69.3 71.6602C67.24 72.0802 66.98 70.3202 68.98 70.6302C69.8 70.4202 74.02 71.1502 73.94 72.0102C73.94 72.4602 74.43 72.3502 75.94 72.3502C77.69 72.0802 79.54 73.4102 81.21 73.0402C80.74 72.7002 79.82 73.2202 79.97 72.3502C79.97 72.0102 80.58 72.3502 80.89 72.1802L80.73 72.0102C80.89 71.6602 81.2 71.8302 81.51 71.8302C80.43 71.3202 79.34 70.8002 78.26 70.2902C78.88 69.2502 79.97 69.9502 80.89 69.9502C80.89 69.9502 80.89 69.6002 80.73 69.6002C81.05 69.0802 81.51 69.7702 81.97 69.6002C80.99 68.6702 79.23 68.8002 77.95 68.4002C78.11 68.0602 78.88 68.5702 78.72 67.8802C78.41 67.0202 77.32 67.1902 76.71 66.8502C78.12 66.1402 79.7 66.6202 81.2 66.5002C79.96 65.2902 78.26 66.6802 76.86 65.4702C77.17 65.1302 77.64 64.9502 77.79 64.4402C78.72 64.7802 79.81 64.2702 80.73 64.4402C76.12 61.6902 75.21 64.4102 71.45 63.2302C72.32 62.7302 73.41 62.6802 74.39 62.7102C75.7 61.0302 78.65 63.3202 80.58 63.4002C80.73 63.5802 80.89 63.7502 81.05 63.9202C81.97 64.1002 82.9 64.1002 83.52 64.7802C83.67 64.9602 83.83 64.7802 83.83 64.6102C83.64 63.7402 83.58 63.3702 84.3 63.0602C84.15 62.5402 83.84 62.3802 83.37 62.2102C84.46 61.8602 85.7 61.6902 86.47 62.9002H86.94C86.94 62.5502 87.25 62.3802 87.4 62.2102C89.37 63.0502 91.67 62.7002 93.73 62.5502C92.33 62.0002 90.89 62.0302 89.56 61.3402C90.02 60.8302 90.95 61.0002 91.41 61.1702C91.73 61.3402 91.73 60.4802 91.88 60.6502C93.47 60.9902 94.55 61.4902 96.06 62.2002C95.45 60.8302 93.43 60.9902 93.43 59.7902C93.27 59.1202 94.46 60.2602 94.94 59.6602C92.01 58.9602 89.09 59.2402 86.15 58.7502C85.99 58.5802 85.84 58.4102 85.69 58.2402C86.61 57.7202 87.54 57.3702 88.48 57.5502C88.63 57.7202 88.78 57.7202 88.94 57.8902C89.56 57.8902 89.87 57.8902 90.5 58.0602V57.7202C83.61 57.1402 76.61 57.8702 69.6 57.5502C61.04 57.8702 64.71 56.5102 70.37 57.0302C69.46 56.0602 67.79 57.2002 67.13 56.0002C67.69 55.7802 69.21 55.4802 69.3 56.1702H72.24L72.08 56.0002C74.1 55.4902 76.1 55.8302 78.12 55.4902C76.72 54.9702 75.02 55.6502 73.63 55.1402C74.1 54.7902 74.56 54.7902 75.02 54.9702C74.87 54.6202 74.25 54.7902 74.1 54.4502C75.49 53.9302 76.88 54.2802 78.27 54.1002C78.27 53.7602 77.96 53.4102 78.27 53.0702C79.01 54.2502 80.45 52.7102 81.21 54.1002C80.74 54.4502 80.28 54.4502 79.82 54.4502C80.24 55.3302 81.73 53.9602 81.83 54.9702C82.76 54.9702 83.84 55.1402 84.77 54.6202C84.92 54.6202 85.23 55.3102 85.54 54.7902C83.42 54.2602 81.87 53.6302 80.28 52.0402C81.08 51.2702 81.93 52.5302 82.75 52.5602C83.06 52.7302 82.91 52.0402 83.21 52.0402C83.83 51.8702 84.61 51.8702 85.23 52.2102C86.13 52.5302 87.73 53.0902 88.48 52.3902C88.48 52.5902 88.64 52.5502 88.76 52.5602C87.23 51.8002 86.05 52.5102 84.76 51.0002C85.38 50.6602 86 50.8302 86.46 51.3502C86.38 50.2502 87.11 51.3502 87.55 51.1902C86.09 49.9602 83.88 50.2002 82.13 49.6302C82.13 49.4602 82.29 49.4602 82.45 49.4602C82.48 48.7002 79.88 49.3902 79.2 48.4302C81.11 47.1002 83.18 49.7502 84 48.9402C83.84 48.7702 83.69 48.4302 83.37 48.2502C83.84 47.7402 84.46 48.7702 84.92 48.2502C84.77 48.0802 84.77 47.9102 84.77 47.7402C85.54 47.2202 86.78 48.2502 87.25 47.7402C88.01 47.0402 88.49 47.9102 89.26 47.7402C87.72 46.5202 85.85 46.7102 84.15 45.8402C84.3 45.5002 84.61 45.5002 84.92 45.5002C84.45 44.9802 83.83 44.9802 83.21 44.6402C84.87 44.3102 87.02 44.7402 88.17 46.0102C87.7 44.9802 87.08 44.4702 86.16 44.1202C85.95 43.4402 86.94 43.8202 87.25 44.1202C87.4 44.1202 87.56 43.9402 87.4 43.7702C87.25 43.7702 87.09 43.6002 87.09 43.6002C87.72 42.9602 89.04 43.5102 89.41 44.1202C89.41 43.9402 89.41 43.7702 89.56 43.6002C84.02 40.6402 77.88 42.1102 71.92 41.3702C73.47 40.5002 75.33 41.5402 76.87 40.8502C76.71 40.5002 76.24 40.6802 76.09 40.3302C77.18 39.6402 78.56 40.8502 79.5 40.1602C78.11 39.6402 76.56 39.8102 75.16 39.3002C75.42 38.9502 75.72 38.8802 76.04 38.9002C75.02 37.8002 76.9 38.1702 77.5 38.1002C75.95 37.7602 74.25 37.7602 73.16 36.3802C75.89 35.9502 81.38 34.2402 83.53 36.2102C83.31 33.8302 73.9 33.5902 71.77 33.9702C74.67 35.3202 65.54 34.6202 64.81 34.1502C66.05 33.4602 67.44 34.1502 68.84 33.9702C68.68 33.8002 69.14 33.6302 68.84 33.4602C69.61 32.9402 70.23 33.9702 71 33.6302C70.98 32.9602 70.36 32.5802 71.62 32.6002V32.2602C72.87 31.3902 73.95 32.2602 75.18 32.7702C71.04 30.5402 75.11 30.5102 77.2 31.4002C75.96 30.2002 74.11 30.2002 72.4 30.2002C66.19 31.1202 60.11 29.8202 53.99 28.6502C53.82 28.4802 53.52 28.3002 53.52 28.1302C53.52 27.4402 54.3 28.1302 54.45 27.6102L54.3 27.4402C54.78 26.6702 56.15 27.8502 54.91 27.7902C54.76 28.4802 55.53 28.1302 55.68 28.1302C58.27 28.2002 60.73 27.6202 63.26 28.6502C61.19 26.9502 67.83 28.3002 68.68 28.8202C68.99 28.8202 69.31 29.1702 69.61 29.0002C70.07 29.0002 69.46 28.8202 69.46 28.6502C67.76 27.6102 65.9 27.9602 64.35 26.7602C64.19 26.5902 64.35 26.4202 64.51 26.4202C64.82 26.2402 64.97 26.7602 65.27 26.5902C63.88 25.0402 61.56 26.5902 59.85 25.5602C60.19 24.1102 59.62 23.6602 61.56 24.0202C62.71 24.3902 63.92 24.7202 64.97 25.2302C65.27 25.4002 64.82 25.0502 64.82 24.8802C64.87 24.2902 65.79 24.5602 65.75 25.0502C67.24 24.3902 67.74 25.7302 68.84 26.0802C68.47 25.2402 66.87 24.6002 68.84 24.7102C67.45 24.6902 66.51 23.9502 65.43 23.3302C65.58 22.9802 66.05 23.1602 66.36 22.9802C65.43 22.2902 64.04 22.9802 63.11 22.1202C64.04 21.6002 64.82 21.6002 65.75 21.7702C64.29 21.0602 62.49 22.3702 61.41 21.0802C61.26 20.7402 62.03 20.9102 61.72 20.5702C61.09 20.2202 60.32 20.7402 59.55 20.3902L59.7 20.2202C58.93 19.5302 58.15 19.8802 57.38 20.0502C57.84 20.3902 57.22 20.3902 57.22 20.5702C54.28 20.3902 51.32 22.5602 48.86 20.5702C49.6 19.7602 54.75 21.2902 54.9 20.0502C54.6 20.0502 54.29 20.2202 54.13 19.8802C55.21 19.3602 56.3 19.8802 57.38 19.3602C56.76 19.3602 56.3 18.8402 55.83 18.6702C56.3 17.8202 56.92 18.4902 57.38 18.8402C57.68 19.0202 57.84 18.4902 58.15 18.6702C58.93 19.3602 59.85 19.8802 60.78 19.5302C59.85 19.1902 58.93 19.0202 58.31 18.1602C59.55 17.8202 60.78 18.1602 61.87 18.6802C58 15.9902 51.87 17.2502 47.79 17.3102C47.64 16.4402 48.87 16.9602 49.33 16.4402C48.72 15.9302 47.94 16.7902 47.64 16.1002C49.18 15.4102 50.89 16.1002 52.59 16.4402C52.52 15.8002 50.74 16.1002 51.82 15.4102C53.66 15.8702 55.27 15.5702 57.07 15.9302C55.15 14.3202 52.85 15.2302 50.73 14.0302L50.88 13.8502C50.73 13.8502 50.58 13.6802 50.58 13.6802C51.65 12.4702 53.05 13.8502 54.13 13.6802C53.81 13.6802 53.67 13.5102 53.51 13.3402C53.98 12.9902 54.44 13.3402 54.91 13.1602C52.13 12.4702 49.33 12.4702 46.4 11.9602C46.09 11.9602 46.24 11.6202 46.24 11.4502C47.33 10.4202 48.72 11.4502 49.96 10.9302C46.97 10.4102 43.95 11.0302 40.97 10.9302C42 11.9102 39.36 11.3202 38.81 11.7902C39.42 11.9602 40.2 11.6202 40.82 11.9602C37.73 13.1302 34.66 13.2102 31.69 14.7202C32.93 15.2702 34.66 13.8602 35.56 14.5402C36.65 13.8502 37.72 14.2002 38.96 14.0302C39.12 13.8502 39.43 14.0302 39.43 13.6802C40.73 14.7702 37.15 15.5002 36.49 15.2202C35.51 15.0402 34.91 15.6802 34 15.9202C34.15 16.0902 33.39 16.2602 33.85 16.2602C34.15 16.2602 34.32 15.9202 34.78 15.9202C35.09 15.9202 34.93 16.6002 35.24 16.4302C35.4 16.0902 35.86 15.9202 36.02 16.0902C37.41 16.2602 38.95 15.4002 40.2 16.0902C39.31 17.4502 36.5 16.7402 35.09 17.3002C33.24 17.9402 30.75 16.6302 29.06 17.8202C29.68 17.9902 30.3 17.6402 30.77 17.9902C29.72 18.9202 28.21 18.8902 27.36 20.2202C28.35 19.6702 36.25 17.0902 32.32 19.5602C33.04 19.4802 36.22 19.7902 34.48 18.6702C35.41 17.9902 37.57 17.6402 37.42 19.3602C37.42 19.7002 36.96 19.5302 36.81 19.5302C36.5 19.3602 36.81 19.0202 36.66 18.8402C36.34 18.6702 36.04 19.1902 35.73 19.0202C35.73 19.5302 36.66 19.1902 36.51 19.8702C36.35 20.0402 36.19 20.3802 36.04 20.3802C34.17 20.0402 32.63 20.9002 30.93 20.7302C30.31 20.7302 29.22 20.3802 28.76 20.9002C30.02 20.9502 29.79 21.3402 28.91 21.9402C29.07 21.9402 29.22 21.9402 29.37 22.1102C32.02 21.2002 35.08 21.2502 37.89 21.0802C38.35 21.0802 39.44 20.9102 39.44 21.4302C39.28 22.2802 38.05 21.7702 37.11 21.9502C36.03 23.4202 34.67 22.2902 33.25 22.4702C33.53 23.1602 31.13 22.6702 30.93 22.8102L31.08 22.9802C29.66 23.6702 27.97 21.7302 26.28 22.4702C27.04 22.2002 28.96 22.8102 27.98 23.6702C26.74 23.3302 25.66 23.3302 24.57 23.5002C24.89 24.0202 25.5 23.3302 25.66 23.8502C25.66 24.5302 24.89 23.8502 24.73 24.3702C23.81 23.8502 22.88 24.8802 21.8 24.7102C24.39 25.4202 27.16 23.6802 29.84 24.8802C30.01 25.6902 28.14 24.7702 28.29 25.5702C29.22 25.9202 30.15 25.0502 31.08 25.9202C30.6 26.6202 29.38 26.0602 28.61 26.0802C28.61 26.4302 28.14 26.2502 28.29 26.4302C28.76 26.7702 29.37 26.6002 29.84 26.6002C29.96 26.7702 30.47 26.9302 29.84 27.1902C30.51 27.2802 33.09 27.8602 30.92 27.9702C34.94 29.1502 27.81 29.1402 26.89 27.9702C27.03 26.9002 28.77 28.2702 29.52 28.1402C28.6 27.4502 27.2 27.8002 26.28 26.9402C26.59 26.5902 26.9 26.5902 27.37 26.5902C26.44 26.0702 25.67 26.7602 24.73 26.5902C24.27 26.4202 23.96 26.0702 23.49 26.2502V26.5902C22.25 27.1102 21.01 27.1102 19.78 27.6202C20.86 27.8002 21.8 27.1102 22.88 27.6202C22.73 27.9702 22.11 27.8002 22.11 28.3102C22.88 28.3102 23.5 28.1402 24.28 28.4902C22.42 29.1802 20.25 28.8302 18.4 29.8702C19.58 29.6802 21.73 28.8002 22.26 30.0402C23.81 29.5202 25.05 30.0402 26.44 30.3902C26.6 30.5602 26.75 30.7302 26.9 30.9102C23.94 30.7302 21.18 30.4602 18.4 32.1102C19.8 31.7502 21.72 30.9202 23.03 31.7702C25.51 32.3202 27.88 31.2102 30.31 32.1102C29.7 32.4602 28.92 32.1102 28.3 32.2902C28.3 32.2902 28.3 32.6302 28.46 32.6302C25.64 33.5702 22.56 32.5802 19.64 33.5002C21.03 33.6702 22.58 32.8002 23.82 33.5002C24.46 34.2802 26.73 33.3102 27.07 34.1902C27.68 34.1902 27.68 34.5302 27.83 35.0502C26.42 35.6702 24.1 33.8202 23.19 34.8802C23.81 35.0502 24.43 34.7002 24.9 35.2202C24.14 37.1502 22.49 35.7002 21.02 36.4202C21.8 36.4202 22.73 36.2502 22.88 36.9402C23.03 37.2802 22.41 36.9402 22.26 37.2802C21.34 36.7702 20.41 37.4502 19.48 37.4502C19.94 37.9002 21.01 36.8902 21.02 37.8002C19.61 38.8502 17.21 38.2102 15.46 38.3202C15.46 38.6602 14.99 38.4902 15.15 38.6602C15.77 38.8402 16.54 38.1502 17.16 38.6602C15.68 39.5602 13.79 38.4502 12.68 40.2202C13.92 40.0502 15 39.3602 16.24 39.7002C16.24 40.0502 15.78 40.0502 15.78 40.2202C16.09 40.3902 16.71 40.0502 17.02 40.3902C16.25 41.0802 15.16 41.0802 14.4 41.6002C16.85 41.2502 13.48 42.9202 12.84 43.4902C13.73 43.4102 18.95 41.2102 17.79 43.3202C15.73 43.4602 13.32 43.3002 11.91 45.2102C12.84 44.7002 13.77 43.8302 14.86 44.1802C16.37 44.1302 15.86 44.8402 15.32 45.3902C16.25 45.7302 17.34 45.0402 18.26 45.5602C17.49 46.2402 15.89 45.9402 15.48 47.1002C18.02 46.5902 20.63 45.8202 23.21 46.2502C19.79 47.7002 15.99 46.8702 12.46 47.6702C13 47.6402 13.46 47.9302 13.93 48.3202C12.2 48.8102 10.43 48.1602 9.13 49.7002C10.06 49.5302 11.14 48.5002 11.6 49.5302C11.75 50.0502 10.36 49.5302 10.68 50.3902C10.68 50.5702 11.6 50.0502 11.91 50.5702C11.91 50.7402 11.45 50.5702 11.45 50.9102C12.69 51.0802 13.92 50.5702 15.01 51.0802C14.08 51.6002 12.99 51.2602 12.07 51.4302V51.7702C13.49 52.1602 11.18 52.1902 10.82 52.6402C11.45 52.6402 11.91 52.6402 12.53 52.9802C12.83 53.3302 13.77 52.6402 13.92 53.1602C13.3 54.7502 8.81 53.4002 7.11 54.0202V54.3702C7.73 54.1902 8.35 54.0202 8.97 54.3702C7.58 55.4002 5.89 54.8802 4.33 55.5702C5.26 55.5702 6.2 55.5702 7.12 56.0802C6.2 56.9402 4.96 56.4302 3.87 56.7702C6.03 57.1202 8.35 56.4302 10.52 56.9502C10.52 57.2902 10.21 57.1202 10.06 57.2902C8.94 57.2002 7.89 57.6202 6.81 57.8102C6.65 57.9802 6.5 58.1502 6.2 58.1502C7.12 58.5002 7.9 57.4602 8.82 57.8102C9.28 58.1502 10.06 57.8102 9.91 58.3302C9.91 58.6702 9.14 58.5002 8.82 59.1902C9.28 59.1902 9.91 59.0202 10.21 59.5302C7.6 60.9102 4.88 59.3402 2.17 60.0502C2.63 60.2202 3.1 60.0502 3.41 60.5702C2.79 61.0902 2.02 61.4202 1.24 61.7802C1.71 61.7802 2.02 61.6102 2.32 61.4302C2.47 61.4302 2.78 61.7802 3.1 61.6102C3.13 60.9302 4.59 61.2102 4.96 61.4302C4.64 61.7802 4.03 61.2602 3.87 61.9502C4.96 62.1202 6.5 61.2602 7.43 62.1202C5.11 63.5102 2.17 63.3302 0 65.0502C2.47 65.0502 7.51 63.2802 9.13 64.8702C8.82 65.9102 7.74 66.2502 6.5 66.2502C7.16 67.7802 11.07 63.8902 11.3 65.9002C10.37 66.9302 9.13 66.9302 7.9 67.2702C9.74 67.5002 11.63 66.5502 13.63 66.5802C13.48 66.2402 12.85 66.4102 13.01 66.0602C13.32 65.5502 14.41 64.1802 14.87 64.8502C15.18 65.2002 14.24 65.5502 14.41 65.5502C15.49 66.7602 16.57 64.6902 17.97 65.2102V64.8602C17.5 64.6902 17.04 65.0402 16.57 64.6902C17.66 64.0002 19.06 64.0002 20.14 63.3102C17.78 62.3102 25.97 61.0802 26.48 61.9302C25.39 62.2802 24.47 62.6202 23.38 62.4502C23.85 63.1302 24.94 61.9302 25.09 62.9702C25.24 63.4702 24.64 63.8302 24.16 63.6602C24.32 64.5102 25.25 63.6602 25.09 64.1802C24.74 65.8502 20.35 64.2402 18.89 65.3802C19.2 66.0702 19.22 66.7402 19.2 66.7602L19.35 66.9302C18.17 68.3102 16.78 67.3502 15.33 68.1402C16.11 68.3102 16.88 67.9602 17.65 68.3102C17.19 68.6502 16.56 68.4802 16.1 68.6502C16.56 69.5402 18.66 68.5702 19.66 69.1702C18.88 69.6902 17.96 70.2002 17.18 70.5402C16.11 69.6202 14.26 69.4702 12.85 70.0302C13.86 70.0902 12.9 70.5902 12.39 70.3702C11.31 69.6802 10.07 70.0302 8.98 69.5202C7.86 68.8902 5.87 68.8902 5.12 69.5202C6.21 69.8602 7.59 69.1702 8.53 69.8602C7.29 71.0602 5.43 70.7302 4.34 71.9202C7.13 71.2002 10.16 70.2002 12.85 71.2302C11.15 71.5802 9.76 72.4402 8.05 72.9502C7.1 74.4002 4.62 74.4802 3.41 75.7002C4.19 75.8802 4.96 75.2002 5.73 75.2002C6.66 75.2002 8.05 73.8102 8.98 74.6802C8.37 75.5302 6.92 75.5902 6.66 76.7502C7.25 75.7102 8.65 76.0402 9.45 75.2102C9.77 75.0302 10.22 75.3802 10.53 75.2102C11.6 74.3602 12.94 74.3202 11.31 75.5502C11.77 75.9002 12.24 75.2102 12.71 75.2102C13.48 75.2102 14.1 74.1702 14.73 73.9902C18.97 73.3402 23.32 71.3102 27.57 71.7602C23.69 73.1702 18.53 73.8802 14.58 75.2102C15.51 75.7102 16.58 74.6902 17.52 75.3802C17.3 76.6002 15.22 76.0202 14.27 76.5902C15.05 76.4102 15.97 76.0702 16.76 76.5902C16.41 76.7802 15.74 77.7202 16.6 77.6202C17.08 76.8202 19.27 75.8002 19.39 77.2802C21.61 75.5002 24.42 75.7202 27.14 75.3902C26.21 75.2202 25.43 75.5602 24.5 75.2202C25.66 74.5402 33.51 72.6502 28.37 74.8702C30.64 75.4602 33.42 73.3802 35.65 75.0402C34.25 75.5602 32.71 74.7002 31.32 75.0402C30.12 75.3402 28.97 76.0902 27.63 76.3202C25.69 76.9702 23.57 76.2402 21.58 77.1002C21.58 77.1002 21.58 77.4502 21.73 77.4502C18.89 78.6702 16.3 78.9402 13.53 80.3702C14.26 81.1902 17.47 77.9702 16 81.0702C15.85 81.4102 16.16 81.5802 16.31 81.7502C16.6 80.6802 18.4 80.3402 18.02 81.7502C18.33 80.8502 21.33 79.3002 20.49 80.8902C21.26 80.8902 21.89 80.3702 22.5 79.8602C22.97 79.6902 23.43 80.2102 23.9 79.8602C24.83 79.6002 26.87 78.0902 27.46 79.0002C27.92 78.8302 28.38 78.6602 28.85 78.6602C29 78.4902 29.31 78.6602 29.31 78.3102C29.31 78.4902 29.93 78.4902 29.46 78.8302C31.01 79.0002 32.56 78.4902 34.1 78.4902C33.49 77.9702 32.71 78.6602 32.25 77.9702C33.13 77.0302 35.78 78.0802 37.2 77.6202C36.36 76.7102 34.77 78.1302 34.11 77.1002C35.21 76.3002 41.35 74.9502 40.77 76.7602C39.13 82.2902 36.17 86.7402 29.91 87.6202H5.96V89.3702H100.07V87.6302H69.08L68.99 87.5002ZM9.42 55.6402C9.07 54.8102 11.62 54.5402 12.36 54.9602C11.59 55.8102 9.89 56.6702 9.42 55.6402ZM18.55 56.1602C18.61 56.7302 15.42 56.7902 14.84 56.5102C15.15 56.3402 15.3 56.1602 15.62 56.3402V55.9902C15 56.1602 14.38 55.9902 13.76 55.9902C13.71 56.5802 13.16 56.7202 12.98 56.1602C12.98 56.3402 12.98 56.5102 12.82 56.5102C10.38 56.4102 15.81 54.3802 15.76 55.6402C16.85 55.6402 17.76 55.1302 18.85 55.6402C18.7 55.8202 18.55 55.8202 18.39 55.8202C18.23 55.9902 18.39 55.9902 18.54 56.1602H18.55ZM28.46 43.2602L28.3 43.4302C29.08 44.1202 30 42.9102 30.62 43.6002C30.62 43.7702 30.23 43.6202 30.16 43.7702C29.13 45.5702 26.68 44.2602 25.21 43.7702C26.14 43.2602 27.38 42.7502 28.46 43.2602ZM23.5 44.8102C24.65 44.8102 25.76 44.6102 26.9 44.6402C27.06 44.8102 27.21 45.1502 27.52 45.3302C27.2 45.8402 26.59 45.3302 26.13 45.5002V46.0202C25.04 46.7102 24.11 45.6702 23.18 45.1602C23.33 44.9902 23.33 44.8202 23.49 44.8202L23.5 44.8102Z" fill="#007B5E"/>
</svg>
