<svg width="100" height="100" viewBox="0 0 100 100" fill="none" xmlns="http://www.w3.org/2000/svg">
<path d="M100 50C100 77.6142 77.6142 100 50 100C22.3858 100 0 77.6142 0 50C0 22.3858 22.3858 0 50 0C77.6142 0 100 22.3858 100 50Z" fill="#236FE8"/>
<path d="M10 35.1821C10 35.1821 12.0239 34.9823 12.7184 35.0605C13.5225 35.1533 15.1436 35.8235 15.9463 35.9155C16.6192 35.9925 18.0354 36.3802 18.7087 36.3423C19.5453 36.297 20.9248 35.3663 22.1554 35.5863C28.6171 36.7418 38.4907 48.5527 45.0463 48.2654C56.8767 47.7475 56.6006 35 59.7312 35H90C72.2533 43.2946 60.1495 52.5329 66.4273 57.931C72.1742 62.8743 89.4596 56.7111 89.4596 56.7111C89.4596 56.7111 82.2543 64 69.82 64C45.7664 64 29.6099 43.2325 17.6589 38.2015C15.7629 37.4048 12.1395 35.8686 10 35.182" fill="white"/>
</svg>
