<svg width="100" height="100" viewBox="0 0 100 100" fill="none" xmlns="http://www.w3.org/2000/svg">
<path d="M10.3853 50.2627L10.0337 51.6137C10.0337 51.6137 14.4678 51.5405 16.2549 51.5405C20.3479 51.5364 22.8401 51.9108 23.1142 54.4033C23.3569 56.0819 22.5785 57.6955 22.1286 59.2805C21.6955 60.8187 21.3021 62.2939 20.8752 63.8118C20.4253 65.4131 19.9398 66.8252 19.084 67.9056C18.1088 69.1326 16.8638 69.9465 15.5894 70.2578C13.8338 70.6871 6.65639 70.4328 4.65801 70.4328C4.4341 70.9964 4.30018 71.6516 4.12022 72.2599C9.93957 72.557 15.5476 72.1663 21.503 72.3474C23.4344 72.4064 25.3511 72.6119 27.0565 72.2599C29.6555 71.7289 31.5346 69.9404 32.3423 67.5557C33.1416 65.2076 33.8657 62.4709 34.5834 59.9784C34.9768 58.6131 35.2279 57.3231 35.8368 56.2325C36.4165 55.1928 37.1823 54.383 38.1658 53.6179C39.9696 52.2201 42.9076 51.044 45.6927 52.3991C47.0654 53.0665 47.8627 54.1754 47.8438 56.2325C47.8272 58.0027 47.2328 59.4596 46.7683 61.1097C45.3809 66.0378 44.1568 70.2252 42.8259 75.0495C42.3886 76.6325 42.0517 78.3295 41.4825 79.6663C40.3777 82.2626 37.9461 84.3868 34.7634 84.8935C32.0954 85.3167 29.0612 84.981 26.2509 84.981H0.627775C0.627775 84.981 0.190429 86.2405 0 86.8977C11.2453 87.0564 22.8359 86.9831 33.7778 86.9831C36.7576 86.9831 39.5176 87.0625 42.1103 86.8102C49.543 86.0858 56.1219 84.0002 61.5521 81.0601C70.5793 76.1727 77.673 69.3503 82.875 60.5888C85.8716 55.5407 90.8811 51.6951 99.1173 51.6951C99.3538 51.0684 99.4731 50.7958 99.6677 50.2627H10.3853V50.2627Z" fill="#0D4689"/>
<path d="M100 49.3491C93.691 49.4895 88.9723 46.7833 88.5203 41.0739C88.4283 39.9223 88.5293 38.8459 88.4303 37.8509C88.1206 34.6951 87.4405 32.2087 86.3691 29.7487C82.2572 20.3056 74.1445 15.1049 61.1038 14.0672H20.6068C20.5294 14.7753 20.2135 15.2514 20.159 15.9839H46.32C49.1763 15.9839 52.3465 15.5953 54.7424 16.2443C56.2888 16.6635 58.1763 18.0552 58.057 20.7736C57.9964 22.1674 57.3455 23.6507 56.8915 25.2174C55.638 29.5534 54.5625 33.8487 53.309 38.1989C52.4929 41.0251 51.9133 44.0365 50.1723 46.1261C48.5946 48.0204 45.734 49.8741 42.2876 48.9137C41.0342 48.5637 40.2495 48.1222 39.6908 47.2595C38.339 45.1759 39.582 41.9712 40.2286 39.6802C40.5822 38.4227 40.9693 37.2568 41.3021 36.1072C41.6222 35.0024 42.1704 33.6757 42.1976 32.3613C42.2437 30.3408 40.9568 29.299 39.6908 28.8758C38.1884 28.3773 36.0205 28.6154 34.0451 28.6154C28.2781 28.6154 22.057 28.5442 16.4845 28.7029C16.3652 29.3113 16.1351 29.8138 16.0367 30.4446C21.0546 30.4446 29.1172 29.8159 29.1172 33.9301C29.13 34.8904 28.7824 35.9648 28.4894 36.9781C27.9558 38.8337 27.3971 40.6711 26.8782 42.5552C26.6145 43.5095 26.4346 44.4943 26.0726 45.3428C25.1184 47.5789 24.1097 49.3491 20.4269 49.3491H10.6191L10.3848 50.2627H99.6672C99.8053 49.8558 99.8806 49.6564 99.9999 49.3491" fill="#0D4689"/>
</svg>
