<svg width="100" height="100" viewBox="0 0 100 100" fill="none" xmlns="http://www.w3.org/2000/svg">
<path d="M0 25C0 11.1929 11.1929 0 25 0H75C88.8072 0 100 11.1929 100 25V75C100 88.8072 88.8072 100 75 100H25C11.1929 100 0 88.8072 0 75V25Z" fill="#C1012F"/>
<path d="M23.2596 42.4236C30.2824 40.1334 38.0788 40.686 44.8654 43.5096C48.3596 44.8318 51.4042 47.1372 54.9938 48.2232C61.4869 50.3076 68.403 50.0218 75.1324 49.8389C80.6387 49.7855 86.3088 52.3881 89.2962 57.1208C87.128 56.0424 84.857 54.9298 82.3687 54.9831C77.7312 54.9336 73.6768 57.4866 69.2757 58.5269C66.1663 59.3843 62.9121 59.3386 59.7188 59.2242C57.0858 59.1328 54.5327 58.3859 51.8996 58.2754C47.8147 57.9973 43.7641 58.7289 39.6983 59.0337C26.5024 60.1159 13.1693 60.4512 0.00390625 58.786C15.5204 58.6336 31.2465 58.626 46.4429 55.0669C48.8054 54.4763 51.1527 53.7866 53.3705 52.7768C48.4282 51.5955 43.9318 49.1492 39.6945 46.4132C34.8817 43.2467 28.9907 41.8177 23.2596 42.4236Z" fill="white"/>
<path d="M83.0318 43.2962C88.7895 42.4426 95.0693 43.0828 100.004 46.3751C98.3311 45.9674 96.6926 45.3729 94.9626 45.2472C89.9174 44.7899 84.8799 46.3217 80.4863 48.7262C79.6328 49.3283 78.5963 48.8596 77.6627 48.7834C74.3704 48.2385 71.0324 48.6614 67.721 48.669C72.5185 46.1503 77.697 44.2793 83.0318 43.2962Z" fill="white"/>
</svg>
