<svg width="100" height="100" viewBox="0 0 100 100" fill="none" xmlns="http://www.w3.org/2000/svg">
<path d="M0 25C0 11.1929 11.1929 0 25 0H75C88.8072 0 100 11.1929 100 25V75C100 88.8072 88.8072 100 75 100H25C11.1929 100 0 88.8072 0 75V25Z" fill="#9B308C"/>
<path d="M16.9335 49.5334C16.9335 47.7112 16.2668 46.0223 15.1557 44.7334C14.0446 46.0223 13.3779 47.7112 13.3779 49.5334V62.0667H16.889V49.7112C16.9335 49.6223 16.9335 49.5778 16.9335 49.5334Z" fill="white"/>
<path d="M20.8444 42.1111C18.8889 42.1111 17.1556 42.8667 15.8222 44.0667L15.8667 44.1556C16.6667 45.0889 17.2444 46.2 17.5556 47.4C18.2667 46.3333 19.4667 45.6667 20.8 45.6667C22.9778 45.6667 24.7111 47.4444 24.7111 49.5778C24.7111 51.7556 22.9333 53.4889 20.8 53.4889C19.6 53.4889 18.5333 52.9556 17.8222 52.1111V56.3778C18.7556 56.7778 19.7333 57 20.8 57C24.8889 57 28.2222 53.6667 28.2222 49.5778C28.2667 45.4444 24.9333 42.1111 20.8444 42.1111ZM39.7333 51.8C39.0222 52.8222 37.8667 53.4889 36.5333 53.4889C34.8444 53.4889 33.3778 52.3778 32.8444 50.8667H43.8667C43.9556 50.4667 44 50.0222 44 49.5778C44 45.4889 40.6667 42.1556 36.5778 42.1556C32.4889 42.1556 29.1556 45.4889 29.1556 49.5778C29.1556 53.6667 32.4889 57 36.5778 57C39.9111 57 42.7111 54.8222 43.6889 51.8H39.7333ZM36.5333 45.6222C38.0889 45.6222 39.4222 46.5556 40.0889 47.8444H32.9778C33.6 46.5111 34.9778 45.6222 36.5333 45.6222ZM10 42.1111V45.6667C11.1111 45.8444 12.0889 46.4667 12.7111 47.4C13.0222 46.2 13.6 45.0889 14.4 44.1556L14.4444 44.0667C13.2889 42.9556 11.7333 42.2444 10 42.1111ZM70.9333 52.0667C70.2222 52.9111 69.1111 53.4889 67.9111 53.4889C65.7333 53.4889 64 51.7111 64 49.5778C64 47.4444 65.7778 45.6667 67.9111 45.6667C69.1111 45.6667 70.2222 46.2 70.9333 47.0889H74.9333C73.9111 44.2 71.1556 42.1556 67.9111 42.1556C63.8222 42.1556 60.4889 45.4889 60.4889 49.5778C60.4889 53.6667 63.8222 57 67.9111 57C71.1556 57 73.8667 54.9556 74.9333 52.0667H70.9333ZM59.6444 49.4889C59.6444 45.4 56.3111 42.0667 52.2222 42.0667C48.1333 42.0667 44.8 45.4 44.8 49.4889C44.8 53.5778 48.1333 56.9111 52.2222 56.9111C53.2889 56.9111 54.3111 56.6889 55.2 56.2889V52.0222C54.4889 52.8667 53.4222 53.4 52.2222 53.4C50.0444 53.4 48.3111 51.6222 48.3111 49.4889C48.3111 47.3111 50.0889 45.5778 52.2222 45.5778C54.4 45.5778 56.1333 47.3111 56.1333 49.4889V56.6444H59.6444V49.4889ZM76.1778 37H79.6889V56.6889H76.1778V37ZM90 49.4889C90 45.4 86.8889 42.0667 83.0667 42.0667C82.2222 42.0667 81.3778 42.2444 80.6222 42.5556V46.8222C81.2444 46.0667 82.1333 45.6222 83.0667 45.6222C84.9333 45.6222 86.4444 47.4 86.4444 49.5333V56.6889H89.9556L90 49.4889Z" fill="white"/>
</svg>
