<svg width="100" height="100" viewBox="0 0 100 100" fill="none" xmlns="http://www.w3.org/2000/svg">
<path d="M0 25C0 11.1929 11.1929 0 25 0H75C88.8072 0 100 11.1929 100 25V75C100 88.8072 88.8072 100 75 100H25C11.1929 100 0 88.8072 0 75V25Z" fill="#141E41"/>
<path fill-rule="evenodd" clip-rule="evenodd" d="M79.3547 66.1288C78.8325 65.2218 78.3928 64.3149 77.8706 63.3805C75.4247 59.423 73.0887 55.3281 70.7801 51.2607C69.1221 48.2407 67.3945 45.2553 65.6683 42.2738C65.3288 41.4864 64.8334 40.7759 64.2118 40.1851C63.5621 39.7886 62.7904 39.6421 62.0407 39.7729C60.4467 40.1852 60.0344 41.5318 59.2924 42.796C58.0557 44.8297 56.9014 47.0008 55.6372 49.0895C53.9058 51.8378 52.2843 54.9433 50.5529 57.8015C49.4536 59.6154 48.6017 61.6491 47.365 63.2981C45.6956 65.6255 43.4119 67.4429 40.7691 68.5472C37.2248 69.9963 33.3233 70.3318 29.5836 69.5091C27.6815 69.0379 25.8379 68.3558 24.0871 67.4754C20.4092 65.2916 17.5639 61.9443 16.0011 57.9626C14.4383 53.9809 14.247 49.5919 15.4576 45.4893C16.0226 43.5968 16.8854 41.8063 18.0135 40.1851C19.8909 37.6822 22.3164 35.6422 25.104 34.2214C26.5178 33.5775 27.9903 33.0713 29.5012 32.7099C31.6912 32.2694 34.0319 32.1831 36.2619 32.3251C38.1347 32.6165 40.0653 33.1927 41.7035 34.1665V31.8029C40.4911 31.321 39.2524 30.9081 37.9934 30.5662C35.8349 30.1151 33.6229 29.9762 31.425 30.154C29.6104 30.2502 27.7677 30.7908 26.0659 31.3907C21.6629 33.0461 17.9519 36.1467 15.54 40.1851C14.521 41.9769 13.7271 43.8877 13.1765 45.8741C12.2754 49.7383 12.4368 53.7743 13.6437 57.5542C14.9666 61.3802 17.2259 64.8521 20.4319 67.3655C23.4103 69.6416 26.9021 71.1516 30.6005 71.7627C34.1083 72.3643 37.8544 71.8608 41.1539 70.581C42.7565 69.908 44.2702 69.0403 45.661 67.9976C47.3167 66.7414 48.7157 65.0899 49.8384 63.353C52.3655 59.6771 54.4426 55.5591 56.6266 51.6729C58.0557 49.1445 59.3748 46.5336 60.8864 44.0877L62.1231 41.999C62.343 41.6142 63.085 41.6967 63.3873 41.999C64.0469 42.796 71.8245 57.032 76.3866 64.5073C77.376 66.1013 78.173 67.7777 79.1349 69.3442C79.3548 69.674 79.8494 70.6359 80.1242 71.1856H82.5427C82.1305 70.526 81.7182 69.5916 81.5533 69.3168C80.9212 68.19 80.2067 67.0357 79.5471 65.9089M91.9967 68.4923C91.3921 67.4754 90.815 66.4036 90.2378 65.3593C89.3584 63.7927 88.5064 62.2812 87.4896 60.7147C84.0267 54.9983 80.8387 48.9796 77.4309 43.2082C74.0231 37.4369 72.3741 31.9129 65.5859 30.2914C64.0834 30.0014 62.5473 29.9273 61.0238 30.0715C58.4774 30.4001 56.1195 31.6403 54.263 33.3969C52.1885 35.8761 50.4086 38.5875 48.9589 41.4768C47.0901 44.4999 45.2488 47.7154 43.4624 50.8484C43.1051 51.453 42.7478 52.0577 42.418 52.6623C41.5238 54.4252 40.5234 56.1322 39.4224 57.774C38.7901 58.6354 37.9617 59.3339 37.006 59.8118C35.2505 60.6896 33.0727 60.717 31.1776 60.3299C29.7839 59.9757 28.4863 59.316 27.3789 58.3987C25.2205 56.6109 23.9724 53.9846 24.0111 51.1783C24.0477 48.5252 25.2333 45.96 27.2304 44.213C29.2855 42.4154 32.0435 41.6084 34.7404 42.0705C36.7086 42.4077 38.5053 43.3722 39.8072 44.8847C41.0165 46.4512 41.1538 47.3856 41.5661 47.3856V43.538C39.885 41.9277 37.8611 40.7317 35.6024 40.1302C33.5315 39.7503 31.3966 39.9306 29.4187 40.6524C27.397 41.379 25.6272 42.6725 24.3211 44.3783C23.0149 46.0841 22.2277 48.13 22.0534 50.2713C21.9759 51.7282 22.0961 53.1889 22.4107 54.6135C22.9827 56.4236 24.0038 58.0593 25.3788 59.368C26.3001 60.3057 27.4038 61.0447 28.6218 61.5392C31.2999 62.8734 34.7823 63.0147 37.5503 61.8437C38.7825 61.3223 39.8893 60.5439 40.7966 59.5604C41.5394 58.5625 42.1837 57.4948 42.7204 56.3724C45.4686 51.9477 47.8871 47.2207 50.5804 42.796C51.8171 40.7623 52.8065 38.5362 54.1806 36.6674C54.9469 35.6519 55.8755 34.7698 56.9289 34.0565C58.559 33.0797 60.4111 32.5343 62.3104 32.4718C64.2098 32.4093 66.0937 32.8317 67.7845 33.6992C71.0825 35.5131 72.4566 39.4156 74.3804 42.6036C78.2005 48.8972 81.6907 55.493 85.5108 61.8415C86.8849 64.1225 88.0667 66.4586 89.4134 68.6847C89.7157 69.1519 90.6501 70.9108 90.9799 71.5703H93.3984L91.8319 68.8221M84.9612 66.3761C84.3291 65.3043 83.7794 64.1775 83.1473 63.1057C81.6083 60.6048 80.1242 58.0489 78.6676 55.493C76.6064 51.8928 74.4628 48.2925 72.4565 44.6648C71.6046 43.1258 70.7252 41.6142 69.9282 40.1851C69.3823 38.9591 68.5638 37.8737 67.5351 37.0117C65.8137 35.5692 63.9747 35.087 61.7933 35.2108C60.0951 35.2726 58.4074 36.2554 57.2037 37.4094C55.773 39.2253 54.5386 41.1875 53.521 43.2632C50.9102 47.523 48.5467 52.0577 45.9633 56.3449C45.1663 57.6091 44.6166 58.9008 43.8746 60.0551C42.9472 61.5648 41.6877 62.843 40.1919 63.7927C38.3888 64.7031 36.4223 65.2449 34.4074 65.3865C32.3925 65.528 30.3695 65.2665 28.4568 64.6172C26.4935 63.8822 24.7168 62.7227 23.2535 61.2214C21.7903 59.7201 20.6767 57.9142 19.9922 55.9327C19.3208 53.0156 19.1718 50.0136 20.0197 47.1108C20.6309 45.3183 21.562 43.6516 22.768 42.1914C23.4869 41.2983 24.329 40.5118 25.2689 39.8554C27.6679 38.1302 30.5591 37.2242 33.5137 37.272C34.7262 37.2596 35.9356 37.3981 37.1139 37.6842C38.282 38.0677 39.4133 38.5552 40.4943 39.1408C40.9065 39.3882 41.3187 39.7729 41.731 40.0752V37.4919C40.9437 37.009 40.1162 36.5952 39.2575 36.2551C36.9196 35.2851 34.3683 35.0948 31.8647 35.2658C30.1323 35.2824 28.5656 35.7987 26.9728 36.4475C24.9075 37.3364 23.0566 38.6571 21.5444 40.321C20.0322 41.9849 18.8938 43.9534 18.2058 46.0939C17.8555 47.7453 17.3746 49.3631 17.4638 51.0683C17.4661 53.2955 17.9437 55.528 18.728 57.6091C19.4871 59.6502 20.6892 61.4976 22.248 63.0182C23.8067 64.5389 25.6831 65.6951 27.7423 66.4036C30.6958 67.3709 33.6823 67.6488 36.7566 67.283C38.4627 66.9371 40.0981 66.3053 41.5936 65.4142C43.4763 64.1401 45.0379 62.4468 46.1557 60.4673C46.8428 59.3406 47.4199 58.0764 48.1894 56.8396C50.3605 53.2669 52.3943 49.5018 54.5654 45.8466C55.4723 44.3625 56.4892 42.1639 57.561 40.4875C58.0751 39.3592 58.9057 38.4045 59.952 37.7392C61.8882 36.5133 64.8563 36.7801 66.4929 38.3988C68.0244 40.2436 69.3002 42.2865 70.2855 44.4724C73.9132 50.5461 77.2386 56.8671 80.9488 62.8858C82.1855 64.9195 83.2298 67.0357 84.439 69.0145C84.6864 69.3992 85.4833 70.9108 85.6757 71.268H87.9843C87.9843 71.0756 87.2422 69.8664 86.3903 68.2724C86.0055 67.5579 85.5383 66.8708 85.1261 66.1563" fill="#EDBC4C"/>
<path d="M68.6365 58.7634C68.4799 58.2133 68.3606 57.6532 68.2792 57.087C67.7845 57.6092 66.6028 58.8184 65.8058 59.5879C65.2012 59.5879 65.0638 59.368 65.1462 58.9558C65.4485 58.0489 66.0531 55.7129 66.3005 54.641C65.3935 54.9708 65.0363 55.2182 64.3217 54.9158C63.7171 53.7341 63.1125 52.6073 62.6178 51.508C61.8208 52.9921 61.6284 53.4318 60.8589 54.8609C60.3367 55.3006 59.5398 54.8609 58.9626 54.7235C59.155 56.29 60.0069 57.8565 60.0894 59.3955C59.9941 59.5525 59.8039 59.642 59.6222 59.6154C58.413 58.9833 58.0007 57.829 56.8739 57.1969C56.8739 57.9939 56.8739 58.626 56.3242 58.7909C55.5478 58.8739 54.7647 58.8739 53.9882 58.7909C54.2905 59.8627 54.8127 60.0551 54.8127 61.1544C54.3432 61.4833 53.8234 61.7339 53.2737 61.8964C53.9056 62.4839 54.5859 63.0172 55.3074 63.4904L56.5166 64.3699C56.9289 64.7272 57.8633 65.1394 58.1106 65.6341C58.3579 66.1288 57.7534 66.7059 57.671 67.2281C57.7581 67.2281 57.8083 67.2281 57.8908 67.2281C58.2864 67.1062 58.6906 67.0144 59.1 66.9533C60.2268 66.7334 62.0407 66.4036 62.1231 66.7059C62.1231 67.6678 62.1231 69.4542 61.9032 71.1581H63.0025C63.0025 69.674 63.0025 68.1625 62.8376 66.6784C62.8376 66.5135 63.3324 66.6784 63.6621 66.6784L67.2624 67.283V67.0632C67.0998 66.8663 66.9814 66.6369 66.9151 66.3904C66.8487 66.1438 66.8359 65.886 66.8776 65.6341C67.2575 65.2144 67.6813 64.8366 68.1418 64.5073C68.664 64.0951 69.2411 63.7378 69.7907 63.353C69.7907 63.353 71.0275 62.4461 71.8245 61.814C71.4123 61.5392 70.5603 61.5392 70.3404 61.0994C70.1333 60.6852 70.853 59.2954 71.1669 58.7911C70.3259 58.8884 69.4757 58.8792 68.6365 58.7634Z" fill="#EDBC4C"/>
</svg>
