<svg width="100" height="100" viewBox="0 0 100 100" fill="none" xmlns="http://www.w3.org/2000/svg">
<path fill-rule="evenodd" clip-rule="evenodd" d="M67.7482 22.0594C70.4562 25.2705 74.4115 26.4143 76.9404 24.5676C78.5253 23.4031 79.1109 21.2877 78.7664 18.9793C80.2686 19.2067 81.7294 19.6614 83.4727 20.3643C84.3341 20.6537 85.3608 17.0499 84.024 16.9258C69.6638 14.8586 61.6913 26.4488 61.8843 26.2627C64.1031 24.5952 65.9359 23.1826 67.7482 22.0594ZM75.9413 23.3824C74.0463 24.919 70.8834 23.9612 68.6577 21.5082C71.6552 19.6546 74.1979 18.7794 76.9335 18.8139C77.4916 20.5779 77.0093 22.5349 75.9413 23.3824ZM4.39518 28.4953C6.86894 20.3919 11.1756 13.0464 16.7708 6.94813C41.5153 -3.49127 73.4192 -3.41547 97.3299 15.8302C82.3289 8.18156 37.9666 0.043655 4.39518 28.4953ZM2.96192 55.0245C1.87319 49.1743 1.68712 43.138 2.51401 37.2189C20.0232 19.4203 46.2285 7.7061 73.7362 13.4598C58.68 13.4943 22.5866 23.8096 2.96192 55.0245ZM12.3263 76.9438C9.41848 72.8645 7.01361 68.3717 5.29093 63.5896C15.7097 41.5325 35.796 22.3213 62.7938 18.1386C49.3569 23.2033 21.3532 43.8133 12.3263 76.9438ZM29.3188 92.6476C25.1706 90.2014 21.4221 87.204 18.0594 83.8138C21.6564 60.4957 35.8994 36.1233 58.68 23.472C57.0056 25.9389 56.2338 28.8261 56.3716 31.8993C43.0933 45.3637 29.9045 66.2701 29.3188 92.6476ZM50.3905 100C45.8978 99.3798 41.5566 98.2636 37.4429 96.6787C37.5945 75.5725 44.437 50.5111 56.8609 35.1448C57.55 37.8391 58.8592 40.6023 60.9746 43.3723C70.8076 31.8028 82.1497 23.6236 96.2343 20.006C77.0299 27.2963 47.1381 50.5524 50.3905 100Z" fill="#00265D"/>
</svg>
