<svg width="100" height="100" viewBox="0 0 100 100" fill="none" xmlns="http://www.w3.org/2000/svg">
<path fill-rule="evenodd" clip-rule="evenodd" d="M97.8313 38.6158C65.0314 39.4881 33.2885 46.6319 30.3387 56.7601C30.0677 57.6785 30 58.5866 30 59.5136C30 69.4879 51.7026 72.8998 75.1947 75.7098C75.5993 75.7543 75.5815 75.4464 75.4496 75.2258L74.7634 74.0628C74.6707 73.9004 74.5673 73.796 74.2411 73.7037C61.3828 70.5653 48.3285 65.9801 48.3285 61.7044C48.3285 53.6149 70.2004 45.604 95.1077 41.9406C95.9276 41.7901 96.3216 41.6413 96.8723 41.2206C97.5639 40.6904 99.0843 39.5 99.7277 39.0075C100.147 38.674 99.9969 38.5679 99.84 38.5714C99.1716 38.5816 98.5032 38.5953 97.8313 38.6158Z" fill="#1B1D80"/>
<path fill-rule="evenodd" clip-rule="evenodd" d="M61.1604 88.0578C44.1353 83.8579 27.2651 69.7962 29.9239 56.767C33.8062 37.757 59.7802 19.3429 92.1938 10.6889C92.9239 10.475 93.1946 10 92.2579 10H48.0193C40.3598 10 38.6983 10.9746 35.7313 14.9256C34.1517 17.0273 20.9127 34.9962 14.9415 43.0945C14.1739 44.0586 13.0894 45.0963 10.671 45.0963H0C0 45.0963 0 45.1016 0.00890434 45.1068C12.6549 80.2785 26.2411 88.5714 39.8469 88.5714H61.3349C61.6376 88.5714 61.9404 88.2524 61.1604 88.0578Z" fill="#DF0011"/>
</svg>
