<svg width="100" height="100" viewBox="0 0 100 100" fill="none" xmlns="http://www.w3.org/2000/svg">
<path d="M100 50C100 77.6142 77.6142 100 50 100C22.3858 100 0 77.6142 0 50C0 22.3858 22.3858 0 50 0C77.6142 0 100 22.3858 100 50Z" fill="#051833"/>
<path d="M38.342 81.9072L10.0176 53.5005C9.81155 53.2943 9.97672 52.9645 10.2236 52.9645H16.3257C19.8713 52.9645 23.2936 54.3663 25.8083 56.9225L38.548 69.7034L69.3463 38.7818C74.7877 33.3808 82.0859 30.2061 89.7544 30C90.043 30 90.1664 30.3298 90.0013 30.536L38.7957 81.9072C38.6714 82.0309 38.4654 82.0309 38.342 81.9072Z" fill="white"/>
</svg>
