<svg width="100" height="100" viewBox="0 0 100 100" fill="none" xmlns="http://www.w3.org/2000/svg">
<path d="M0 25C0 11.1929 11.1929 0 25 0H75C88.8072 0 100 11.1929 100 25V75C100 88.8072 88.8072 100 75 100H25C11.1929 100 0 88.8072 0 75V25Z" fill="#1B4982"/>
<path fill-rule="evenodd" clip-rule="evenodd" d="M45.5295 10.0024C52.5809 9.89824 56.1917 13.1597 57.8174 18.5126C58.4216 20.5023 58.6219 22.8831 58.2705 24.9409C58.0531 26.4991 57.8356 28.0575 57.6181 29.616C57.0938 32.6558 57.6153 36.4228 58.488 39.3681C61.7871 50.5007 69.2378 57.9889 80.6716 60.9175C82.3232 61.3404 84.0861 61.4516 85.9999 61.6297V61.6479C85.4035 63.4373 84.7613 65.1775 84.0063 66.9075C83.82 67.3342 83.414 68.4543 83.1364 68.7337C81.3545 68.7631 79.5715 68.2996 77.8261 67.9849C76.0418 67.5317 74.3328 67.0494 72.7514 66.4144C64.7947 63.2194 59.0432 58.0346 54.8814 51.0193C53.7847 49.1708 52.955 47.1834 52.1266 45.0293C51.8402 44.285 51.5008 43.4372 51.3654 42.6005C51.3472 42.6127 51.3291 42.6248 51.311 42.637C49.837 45.5522 48.363 48.4681 46.8888 51.3846C45.5125 53.7632 44.3027 56.2051 43.4453 59.0912C42.0743 63.7055 42.2614 69.5059 44.0071 74.0297C45.7932 78.6585 48.328 82.4702 51.9091 85.2792C53.523 86.5453 55.4437 88.1398 57.4368 88.7856V88.8221C53.2928 89.5846 49.5321 90.0891 45.3302 89.8448C44.701 89.4221 44.0786 88.9911 43.4634 88.5482C41.956 87.4627 40.3029 86.2158 39.1318 84.7496C35.482 80.9256 32.7947 76.2542 31.5017 71.1078C30.8543 66.7462 30.6486 62.2043 31.9185 57.9225C32.4636 56.0847 33.053 54.388 33.7672 52.7543C34.6142 50.8165 35.7587 49.0969 36.8301 47.3852C39.302 43.436 42.2114 39.8882 44.7683 36.0261C46.5722 33.3013 48.2985 30.5768 49.2811 27.0228C49.8957 24.7999 49.8705 22.4075 49.0274 20.4849C47.7778 17.6351 44.2958 15.4689 39.9836 16.5768C37.8474 17.1257 36.238 18.0214 34.764 19.2066C33.7692 20.0065 32.0243 22.0614 32.426 24.0826C32.8239 26.0847 34.3995 26.9943 36.3045 27.4794C37.3986 27.758 38.7372 27.7977 39.8386 27.5889C41.6701 27.2418 43.1697 26.7381 44.6596 26.0914C45.3421 25.7871 46.0248 25.4827 46.7076 25.1783L47.65 24.6852C48.0504 24.5438 48.3396 24.858 48.3931 25.1418C48.4648 25.5236 47.9364 26.0725 47.7769 26.2923C47.028 27.3241 46.1879 28.2565 45.1852 29.0316C43.3511 30.4493 41.3873 31.4359 38.7512 32.0997C34.4419 33.1848 29.3072 31.7376 27.4057 29.3421C25.4493 26.8774 25.7882 23.5325 26.9889 20.7771C29.0548 16.0363 33.6482 12.7574 38.8056 11.1164C40.9564 10.4321 43.2743 10.0782 45.5295 10.0024Z" fill="white"/>
</svg>
