<svg width="100" height="100" viewBox="0 0 100 100" fill="none" xmlns="http://www.w3.org/2000/svg">
<path d="M0 25C0 11.1929 11.1929 0 25 0H75C88.8072 0 100 11.1929 100 25V75C100 88.8072 88.8072 100 75 100H25C11.1929 100 0 88.8072 0 75V25Z" fill="#FFE700"/>
<path d="M82.2395 41.3738H85.4478L86.5027 36.4076H92.6269L91.5686 41.3738H95.6147L94.7541 45.4148H90.7105L89.3706 51.7129C89.0711 53.1283 89.375 53.3278 91.0223 53.3278C91.7712 53.3278 92.3863 53.2999 93.2022 53.2716L92.3907 57.0838C91.1118 57.2561 89.469 57.3725 87.6774 57.3725C83.6916 57.3725 82.2531 56.3925 82.972 53.0119L84.5896 45.4148H81.3816L82.2395 41.3738Z" fill="#231F20"/>
<path d="M73.9254 41.3738H80.0476L76.7215 57.0277H70.5993L73.9254 41.3738Z" fill="#231F20"/>
<path d="M75.0913 35.8848H81.2142L80.4275 39.5819H74.305L75.0913 35.8848Z" fill="#231F20"/>
<path d="M57.7062 41.3739L54.3783 57.0279L60.3356 57.0279L63.6642 41.3738L57.7062 41.3739Z" fill="#231F20"/>
<path d="M70.7106 40.678C67.9769 40.678 63.6255 43.3712 62.4783 48.1669L62.1838 49.2473H62.2866C63.156 47.1661 65.335 46.0519 68.2703 46.0519C69.061 46.0519 69.9604 46.1602 70.6838 46.3229L71.8735 40.7331C71.4841 40.6984 71.0776 40.678 70.7106 40.678Z" fill="#231F20"/>
<path d="M49.0643 41.3738H55.1855L51.859 57.0277H45.7368L49.0643 41.3738Z" fill="#231F20"/>
<path d="M50.2288 35.8848H56.352L55.5674 39.5819H49.4438L50.2288 35.8848Z" fill="#231F20"/>
<path d="M33.9302 53.2134C36.7338 53.2134 38.5587 51.8273 39.1095 49.2289C39.6623 46.6265 38.4266 45.2431 35.6265 45.2431C32.7667 45.2431 30.933 46.8008 30.4183 49.2289C29.9022 51.6547 31.0715 53.2134 33.9302 53.2134ZM25.9637 41.3738H31.9127L31.4722 43.4523H31.5294C33.1674 41.8636 35.5237 40.969 38.0079 40.969C43.5528 40.969 46.5113 44.0282 45.3573 49.4591C44.3929 53.9939 40.2614 57.6591 34.5161 57.6591C31.8013 57.6591 29.9138 56.7645 29.1176 55.6105H29.0607L27.5544 62.6872H21.4333L25.9637 41.3738Z" fill="#231F20"/>
<path d="M8.79471 52.1465C8.75965 52.7232 8.89241 53.1855 9.3785 53.4769C9.86052 53.7944 10.6611 53.9646 11.9897 53.9646C13.3466 53.9646 14.8464 53.7053 15.0861 52.5792C15.2638 51.7421 14.7055 51.5097 13.2414 51.3371L7.92191 50.6729C4.43481 50.2393 2.88494 48.9692 3.45138 46.311C4.35107 42.0668 8.27389 40.7386 14.1363 40.7386C18.2957 40.7386 23.3916 41.4878 22.7935 45.9355H15.9214C16.0041 45.2714 15.662 44.8394 15.1051 44.6073C14.5537 44.3496 13.7646 44.2604 12.9834 44.2604C11.2218 44.2604 10.0971 44.6651 9.86903 45.734C9.7652 46.2255 10.0777 46.6575 11.6 46.8318L16.7629 47.4088C20.8804 47.8714 22.6832 49.1707 22.0337 52.2316C21.2474 55.9278 17.3566 57.6587 10.8589 57.6587C6.52523 57.6587 0.826855 56.8826 1.69012 52.1465H8.79471Z" fill="#231F20"/>
<path d="M97.4355 42.6064C97.508 42.6064 97.5658 42.5893 97.6087 42.5553C97.6509 42.5213 97.6724 42.4739 97.6724 42.4144C97.6724 42.3589 97.6544 42.3129 97.6179 42.2769C97.5818 42.2404 97.5233 42.2224 97.4423 42.2224H97.2884V42.6064H97.4355ZM96.9684 41.979H97.4995C97.6404 41.979 97.7609 42.011 97.8613 42.075C97.9614 42.139 98.0118 42.2459 98.0118 42.395C98.0118 42.4678 97.9917 42.5359 97.9512 42.5999C97.9103 42.6639 97.8518 42.7129 97.7749 42.7473L98.0564 43.2531H97.7173L97.5059 42.8368H97.2884V43.2531H96.9684V41.979ZM97.461 43.6306C97.5934 43.6306 97.7173 43.6065 97.8324 43.5571C97.9478 43.5081 98.0472 43.4397 98.1302 43.3522C98.2133 43.2647 98.2787 43.1599 98.3253 43.0387C98.3723 42.9168 98.3958 42.7813 98.3958 42.6319C98.3958 42.4825 98.3723 42.346 98.3253 42.2224C98.2787 42.0985 98.2133 41.9919 98.1302 41.9024C98.0472 41.8125 97.9478 41.7431 97.8324 41.6941C97.7173 41.6451 97.5934 41.6206 97.461 41.6206C97.3245 41.6206 97.1999 41.6451 97.0869 41.6941C96.9735 41.7431 96.8752 41.8125 96.7921 41.9024C96.7091 41.9919 96.644 42.0985 96.597 42.2224C96.5497 42.346 96.5266 42.4825 96.5266 42.6319C96.5266 42.7813 96.5497 42.9168 96.597 43.0387C96.644 43.1599 96.7091 43.2647 96.7921 43.3522C96.8752 43.4397 96.9735 43.5081 97.0869 43.5571C97.1999 43.6065 97.3245 43.6306 97.461 43.6306ZM97.461 43.906C97.2905 43.906 97.1305 43.8751 96.981 43.8131C96.8319 43.7511 96.7005 43.6637 96.5875 43.5506C96.4742 43.4376 96.3857 43.3032 96.322 43.1473C96.2577 42.9917 96.2257 42.8198 96.2257 42.6319C96.2257 42.4443 96.2577 42.2714 96.322 42.1135C96.3857 41.9555 96.4742 41.82 96.5875 41.707C96.7005 41.5937 96.8319 41.5062 96.981 41.4442C97.1305 41.3826 97.2905 41.3516 97.461 41.3516C97.6319 41.3516 97.7919 41.3826 97.9413 41.4442C98.0908 41.5062 98.2222 41.5937 98.3352 41.707C98.4482 41.82 98.5367 41.9555 98.6007 42.1135C98.6647 42.2714 98.6967 42.4443 98.6967 42.6319C98.6967 42.8198 98.6647 42.9917 98.6007 43.1473C98.5367 43.3032 98.4482 43.4376 98.3352 43.5506C98.2222 43.6637 98.0908 43.7511 97.9413 43.8131C97.7919 43.8751 97.6319 43.906 97.461 43.906Z" fill="#231F20"/>
</svg>
