<svg width="100" height="100" viewBox="0 0 100 100" fill="none" xmlns="http://www.w3.org/2000/svg">
<path d="M0 25C0 11.1929 11.1929 0 25 0H75C88.8072 0 100 11.1929 100 25V75C100 88.8072 88.8072 100 75 100H25C11.1929 100 0 88.8072 0 75V25Z" fill="#E21F1D"/>
<path d="M35.7576 32.2459C28.7875 32.7518 23.485 33.4825 16.1776 34.9814C11.7183 35.8808 9.93829 36.3305 9.86334 36.5553C9.82587 36.6677 12.6176 36.7427 17.2644 36.7427C27.6258 36.7614 33.8277 37.2486 38.5306 38.4477C42.915 39.5532 45.3883 40.9397 47.4118 43.4317C48.2175 44.4248 48.5735 44.7058 49.6602 45.1555C51.9836 46.1485 55.5998 48.0972 56.8739 49.0527C59.9842 51.4323 60.2465 53.6432 57.6421 55.6106C56.3118 56.6224 53.164 58.0651 50.1661 59.0582C42.8588 61.4565 35.3453 62.487 22.7355 62.8243C17.7515 62.9554 17.5454 62.9742 19.7376 63.1053C23.485 63.3114 26.3892 64.0609 26.9325 64.979C27.2885 65.5786 26.8389 66.2906 25.7334 66.8527C24.2157 67.6209 21.3302 68.0331 12.6739 68.7076C11.1 68.8388 9.80713 69.0074 9.80713 69.1198C9.80713 69.2135 10.1069 69.251 10.5191 69.176C10.8939 69.1198 13.6669 69.0261 16.646 68.9512C22.0048 68.8388 24.4968 68.9137 39.2239 69.7007C55.5436 70.5813 64.3873 69.5695 71.7321 65.9908C75.2921 64.2483 76.9597 62.9554 81.7563 58.29C86.047 54.1117 87.3211 53.1186 89.4946 52.2942C90.6188 51.8633 90.5064 51.7321 88.258 50.6266C85.1664 49.1277 82.8805 48.6405 78.9645 48.6405C75.8355 48.6405 75.517 48.4532 73.9806 45.7176C72.5753 43.1881 71.5448 41.8203 69.7648 40.134C65.8863 36.4804 59.8905 33.9322 52.527 32.808C49.7164 32.3958 44.0205 31.9648 41.3786 32.0023C40.142 32.0023 37.6125 32.1147 35.7576 32.2459Z" fill="white"/>
</svg>
