<svg width="100" height="100" viewBox="0 0 100 100" fill="none" xmlns="http://www.w3.org/2000/svg">
<path d="M0 25C0 11.1929 11.1929 0 25 0H75C88.8072 0 100 11.1929 100 25V75C100 88.8072 88.8072 100 75 100H25C11.1929 100 0 88.8072 0 75V25Z" fill="#162844"/>
<path d="M87.7384 68.6995C87.7384 78.1695 79.6819 85.802 69.6466 85.802C59.6819 85.802 51.5547 78.1695 51.5547 68.6995C51.5547 59.2296 59.6113 51.5971 69.6466 51.5971C79.6819 51.5971 87.7384 59.2296 87.7384 68.6995Z" fill="#C4AF79"/>
<path d="M46.8198 67.0034H16.0778L16.6432 62.8338L46.8198 65.7313V67.0034Z" fill="#C4AF79"/>
<path d="M47.4557 64.0352L12.9682 59.3709L10.4947 52.2331L47.7384 62.6218L47.4557 64.0352Z" fill="#C4AF79"/>
<path d="M48.5865 60.9257L17.7738 51.1731L17.9859 45.166L49.0105 59.8656L48.5865 60.9257Z" fill="#C4AF79"/>
<path d="M49.7172 58.5229L11.4134 37.6749L10 29.4064L50.4946 57.3922L49.7172 58.5229Z" fill="#C4AF79"/>
<path d="M51.7667 55.7667L20.6713 32.0212L20.3886 23.894L52.6854 54.636L51.7667 55.7667Z" fill="#C4AF79"/>
<path d="M54.0988 53.2225L21.59 19.3003L23.6395 14L55.3002 52.2331L54.0988 53.2225Z" fill="#C4AF79"/>
<path d="M57.2084 50.9611L35.4417 23.258L37.2084 18.4523L58.6218 49.9717L57.2084 50.9611Z" fill="#C4AF79"/>
<path d="M60.2473 49.1943L42.2262 19.5123L44.2756 14.7774L61.6608 48.4169L60.2473 49.1943Z" fill="#C4AF79"/>
<path d="M63.1449 47.9222L54.5936 26.5795L56.9258 21.4911L64.841 47.5688L63.1449 47.9222Z" fill="#C4AF79"/>
<path d="M63.0741 17.9576L60.0353 22.4805L66.537 47.2155L68.3038 47.0741L63.0741 17.9576Z" fill="#C4AF79"/>
<path d="M70.9187 26.6502L68.1625 29.477L69.8586 46.9328H71.4134L70.9187 26.6502Z" fill="#C4AF79"/>
<path d="M76.3603 26.7208L73.5334 29.477L73.3921 47.2155L75.0175 47.3568L76.3603 26.7208Z" fill="#C4AF79"/>
<path d="M79.1165 30.8904L82.9327 29.5477L78.0564 48.4169L76.5723 47.9222L79.1165 30.8904Z" fill="#C4AF79"/>
<path d="M79.6112 49.053L80.8833 49.689L87.5264 35.3428L84.4168 35.0601L79.6112 49.053Z" fill="#C4AF79"/>
<path d="M82.226 50.4664L83.3567 51.2437L89.9998 41.9858L88.6571 38.8056L82.226 50.4664Z" fill="#C4AF79"/>
</svg>
