<svg width="100" height="100" viewBox="0 0 100 100" fill="none" xmlns="http://www.w3.org/2000/svg">
<path d="M0 25C0 11.1929 11.1929 0 25 0H75C88.8072 0 100 11.1929 100 25V75C100 88.8072 88.8072 100 75 100H25C11.1929 100 0 88.8072 0 75V25Z" fill="#5BAC29"/>
<path d="M18.588 47.3941C19.4558 47.4141 20.3057 47.1454 21.0042 46.6301C21.3487 46.3612 21.6221 46.012 21.8003 45.6129C21.9786 45.2139 22.0563 44.7773 22.0266 44.3413C22.0693 43.9936 22.0248 43.6408 21.8973 43.3146C21.7697 42.9883 21.5631 42.6989 21.2959 42.4724C20.7077 42.1108 20.0241 41.935 19.3343 41.968H13.9409L12.8047 47.3941H18.588ZM17.1171 57.2287C18.1583 57.2734 19.1806 56.9414 19.9968 56.2936C20.3808 55.9415 20.6803 55.5075 20.8733 55.0236C21.0662 54.5398 21.1475 54.0187 21.1112 53.4991C21.1409 52.9942 21.0094 52.493 20.7357 52.0678C20.4912 51.725 20.1626 51.4511 19.7815 51.2723C19.373 51.084 18.9347 50.9687 18.4864 50.9315C18.0039 50.8927 17.5404 50.8689 17.0844 50.8689H12.085L10.7218 57.2287H17.1171ZM19.5865 38.0005C20.6415 37.9929 21.6955 38.07 22.7382 38.2309C23.5732 38.3485 24.3772 38.6284 25.1046 39.0549C25.7526 39.4534 26.2729 40.0291 26.6041 40.7139C26.9795 41.5671 27.1566 42.4944 27.1221 43.4259C27.1249 44.0731 27.0276 44.7169 26.8338 45.3344C26.6454 45.9324 26.3538 46.493 25.9723 46.9906C25.5933 47.4742 25.1318 47.887 24.6091 48.21C24.0481 48.5432 23.4227 48.7537 22.7743 48.8275V48.8922C23.8043 49.1462 24.7082 49.7628 25.3207 50.6289C25.9234 51.5011 26.2365 52.5407 26.2156 53.6006C26.239 54.7486 25.9876 55.8855 25.4822 56.9166C25.0135 57.8436 24.3424 58.6536 23.5186 59.2864C22.6713 59.929 21.7152 60.4139 20.6961 60.7178C19.6101 61.0455 18.4813 61.2097 17.3468 61.2051H5.00195L9.84121 38.0053L19.5865 38.0005Z" fill="white"/>
<path d="M34.9136 44.4121L31.3448 61.1995H26.7339L30.2679 44.4121H34.9136Z" fill="white"/>
<path d="M41.5737 44.4105L41.0544 46.762H41.1164C41.8074 45.8655 42.7006 45.145 43.7231 44.6594C44.7455 44.1737 45.8683 43.9367 46.9998 43.9675C50.2674 43.9675 51.9018 45.4713 51.9032 48.4789C51.8967 48.7023 51.8739 48.9248 51.835 49.1448C51.7914 49.4175 51.743 49.6901 51.6898 49.9709C51.6367 50.2517 51.5774 50.5162 51.5235 50.7677C51.4697 51.0192 51.4288 51.2162 51.4131 51.3654L49.3377 61.1994H44.7281L46.7729 51.3682C46.8083 51.1146 46.8703 50.7677 46.9494 50.3329C47.0158 50.0014 47.0534 49.6648 47.0619 49.3268C47.0595 49.0791 46.9945 48.8359 46.8728 48.6201C46.7511 48.4043 46.5767 48.2227 46.366 48.0925C45.9247 47.777 45.3959 47.6073 44.8535 47.6072C44.2183 47.5934 43.5891 47.7322 43.0187 48.0121C42.5011 48.2726 42.0383 48.6301 41.6555 49.0651C41.2683 49.5123 40.9513 50.0159 40.7156 50.5585C40.465 51.1097 40.2751 51.6865 40.1492 52.2788L38.2626 61.1994H33.6851L37.1564 44.4119L41.5737 44.4105Z" fill="white"/>
<path d="M64.2345 44.4113L63.5161 47.4866H60.2363L58.5153 55.8435L58.4199 56.309L58.381 56.6192C58.3683 56.8629 58.4213 57.1056 58.5344 57.3219L58.9045 57.6933L59.4095 57.8392L59.9466 57.8576C60.4999 57.8573 61.0527 57.8245 61.6022 57.7594L60.8184 61.2935C60.3412 61.3412 59.8689 61.3766 59.3911 61.41C58.9133 61.4434 58.428 61.4591 57.9332 61.4591C57.393 61.4594 56.8539 61.4101 56.3226 61.3119C55.8181 61.2271 55.3332 61.0516 54.8913 60.7939C54.4725 60.5465 54.1255 60.1941 53.8846 59.7715C53.6149 59.2504 53.4968 58.664 53.5438 58.0791C53.5463 57.8342 53.5679 57.5899 53.6085 57.3484C53.6515 57.0758 53.7047 56.7916 53.7742 56.4897L55.654 47.4852H52.6353L53.3482 44.4099H56.3063L57.3436 39.3164H61.9546L60.9165 44.4099L64.2345 44.4113Z" fill="white"/>
<path d="M76.0427 49.7293C75.9727 49.3215 75.8246 48.9311 75.6065 48.5795C75.3738 48.2215 75.0469 47.9345 74.6618 47.75C74.1517 47.5223 73.5958 47.4157 73.0376 47.4385C72.4512 47.4283 71.8682 47.5282 71.3186 47.733C70.8428 47.915 70.4024 48.1789 70.0175 48.5127C69.6495 48.8388 69.3369 49.2225 69.0919 49.6489C68.8408 50.0837 68.6287 50.5399 68.458 51.0121H76.1538C76.1544 50.5828 76.1175 50.1542 76.0434 49.7314M67.9414 54.2169V54.8985C67.9239 55.3343 67.9952 55.769 68.1509 56.1764C68.3066 56.5838 68.5435 56.9553 68.8472 57.2683C69.2298 57.5969 69.6738 57.8464 70.1535 58.0021C70.6332 58.1578 71.139 58.2168 71.6417 58.1755C72.0578 58.185 72.4719 58.1139 72.8611 57.9663C73.1999 57.8356 73.5176 57.6556 73.8037 57.4319C74.0744 57.2153 74.3161 56.9647 74.5228 56.6863C74.7273 56.4055 74.912 56.1349 75.0885 55.8745H79.6974C79.3678 56.7588 78.9318 57.5998 78.3989 58.3787C77.9152 59.0819 77.3098 59.6931 76.6112 60.1835C75.8778 60.6901 75.0587 61.0596 74.1936 61.274C73.1452 61.5284 72.0687 61.6482 70.9901 61.6305C69.9502 61.6444 68.9148 61.4921 67.923 61.1793C67.0462 60.8998 66.2432 60.4275 65.5729 59.797C64.9057 59.1555 64.3896 58.3738 64.0618 57.5083C63.6836 56.4914 63.5018 55.412 63.5261 54.3273C63.5225 53.0068 63.7418 51.6952 64.1749 50.4477C64.5845 49.2451 65.2046 48.1248 66.0064 47.1393C66.7997 46.1701 67.7908 45.3815 68.9133 44.826C70.1145 44.2398 71.4367 43.9444 72.7731 43.9638C73.8579 43.9516 74.9381 44.1049 75.9766 44.4184C76.8899 44.6958 77.7323 45.1676 78.446 45.8013C79.1436 46.4384 79.6879 47.225 80.0382 48.1024C80.4325 49.1198 80.6242 50.2046 80.6025 51.2956C80.596 52.1771 80.5091 53.0561 80.3428 53.9218H67.9707L67.9414 54.2169Z" fill="white"/>
<path d="M88.4083 44.4119L87.7267 47.4285L87.7908 47.4906C88.2658 46.3726 89.0935 45.4407 90.1477 44.8372C91.1899 44.2425 92.3707 43.9336 93.5706 43.9416C94.0495 43.9417 94.5278 43.9756 95.0019 44.0431L94.0566 48.5334C93.7322 48.4652 93.4077 48.4039 93.0874 48.3364C92.7656 48.2747 92.4389 48.2423 92.1113 48.2396C91.3339 48.2165 90.5617 48.373 89.8546 48.697C89.249 48.9876 88.7157 49.4092 88.2931 49.9313C87.8645 50.4626 87.525 51.06 87.2878 51.7C87.0345 52.3709 86.8348 53.0608 86.6907 53.7632L85.1305 61.2014H80.5435L84.0243 44.4139L88.4083 44.4119Z" fill="white"/>
<path d="M30.7905 41.8046L31.6343 38H36.2759L35.4348 41.8046H30.7905Z" fill="white"/>
</svg>
