<svg width="101" height="101" viewBox="0 0 101 101" fill="none" xmlns="http://www.w3.org/2000/svg">
<path d="M100 0H0V100H100V0Z" fill="white"/>
<path d="M78.5447 55.2408C69.4926 50.6301 57.0137 52.5459 57.0137 52.5459C59.6085 89.3683 87.9793 98.1685 96.8161 100.033H100.014V5.0332C67.1092 20.4621 78.5447 55.2408 78.5447 55.2408V55.2408Z" fill="#E6001F"/>
<path d="M43.9022 46.9631C44.6782 41.1561 38.2357 41.938 38.2357 41.938C38.5059 38.964 43.3938 32.5162 50.0885 34.3237C56.7961 36.1311 57.3083 43.3481 57.3083 43.3481C63.309 11.6598 88.8779 3.07126 100.014 0.815135V0.0332031H0.0136719V100.033H83.4612C37.0307 91.9958 43.9022 46.9631 43.9022 46.9631Z" fill="#312667"/>
</svg>
