<svg width="100" height="100" viewBox="0 0 100 100" fill="none" xmlns="http://www.w3.org/2000/svg">
<path d="M61.5819 0C50.29 0 39.838 8.0226 33.8983 13.8418C12.7684 34.452 1.60075 48.3992 1.60075 48.3992H95.7627L100 38.983H24.0113C24.0113 38.983 29.7476 31.1262 42.0904 19.4915C45.1902 16.5913 53.307 9.32203 61.5819 9.32203C67.0169 9.32203 71.2806 12.7194 71.2806 17.3258C71.2806 21.8832 67.42 23.1638 67.42 23.1638C67.823 21.2166 66.516 15.9134 61.3936 15.9134C56.0829 15.9134 53.8606 19.9661 53.8606 22.693C53.8606 28.2975 58.9605 32.2975 64.8776 32.2975C76.2561 32.2975 81.5443 24.2072 81.5443 16.3842C81.5443 8.48964 73.8493 0 61.5819 0ZM0 53.2957C0 53.2957 4.94162 67.5066 11.4878 81.0734C17.0358 92.6328 26.2373 99.6233 37.4765 99.6233C48.0377 99.6233 55.1789 91.5894 55.1789 83.8983C55.1789 75.194 48.5574 69.4915 40.678 69.4915C32.275 69.4915 30.5085 75.8079 30.5085 77.4011C30.5085 81.0734 33.5819 84.4633 37.4765 84.4633C43.6083 84.4633 44.0678 79.5668 44.0678 79.5668C44.0678 79.5668 45.951 80.7721 45.951 83.8983C45.951 86.9039 43.4049 90.7721 37.4765 90.7721C32.7458 90.7721 25.7928 88.2787 20.9981 78.1544C15.3597 66.3013 14.9718 62.806 14.9718 62.806H89.2655L93.5028 53.2957H0Z" fill="#231F20"/>
</svg>
