<svg width="100" height="100" viewBox="0 0 100 100" fill="none" xmlns="http://www.w3.org/2000/svg">
<path d="M0 25C0 11.1929 11.1929 0 25 0H75C88.8072 0 100 11.1929 100 25V75C100 88.8072 88.8072 100 75 100H25C11.1929 100 0 88.8072 0 75V25Z" fill="#0F1248"/>
<path fill-rule="evenodd" clip-rule="evenodd" d="M42.69 14.527C37.6359 14.527 33.5336 18.7413 33.5336 23.9408C33.5336 29.136 37.6359 33.3501 42.69 33.3501C47.7449 33.3501 51.8445 29.136 51.8445 23.9408C51.8445 18.7413 47.7449 14.527 42.69 14.527ZM42.6897 10C50.1776 10 56.2484 16.242 56.2484 23.9408C56.2484 31.636 50.1776 37.8781 42.6897 37.8781C35.2009 37.8781 29.1284 31.636 29.1284 23.9408C29.1284 16.242 35.2009 10 42.6897 10Z" fill="#FFDD00"/>
<path fill-rule="evenodd" clip-rule="evenodd" d="M55.7927 78.6036C54.647 85.0864 49.135 90 42.5087 90C35.0503 90 29.0073 83.778 29.0073 76.0992C29.0073 71.4794 31.1984 67.3831 34.5748 64.8525L37.5525 68.1326C35.0073 69.8154 33.3187 72.7567 33.3187 76.0992C33.3187 81.3246 37.4344 85.5588 42.5087 85.5588C47.2855 85.5588 51.2107 81.8012 51.6557 77.0012L55.7927 78.6036Z" fill="#00A540"/>
<path fill-rule="evenodd" clip-rule="evenodd" d="M38.1834 49.4322C36.037 50.6228 34.3585 52.6819 33.6756 55.2894C32.5173 59.7351 34.651 64.2881 38.535 66.2232C38.7921 66.3506 39.9192 66.874 40.1932 66.9772C38.696 67.2856 36.5943 68.692 35.704 69.7441C30.5471 66.6642 27.8502 60.3347 29.468 54.1334C30.3447 50.7667 32.2998 48.0777 34.9039 46.2656L35.027 46.5223L35.8313 47.5638L37.0267 48.7806L38.1834 49.4322Z" fill="#ED1320"/>
<path fill-rule="evenodd" clip-rule="evenodd" d="M49.0362 63.9072C47.7506 67.4186 48.5835 71.5349 51.4474 74.2161C55.1955 77.7206 61.0023 77.4433 64.4126 73.5896C65.3407 72.5471 65.9932 71.3451 66.381 70.0773L70.694 70.8676C70.1519 72.9431 69.1353 74.9129 67.6364 76.6027C62.6043 82.2841 54.0413 82.7009 48.5143 77.5256C44.7729 74.0246 43.3835 68.8616 44.4306 64.1283L49.0362 63.9072Z" fill="#00AAD1"/>
<path fill-rule="evenodd" clip-rule="evenodd" d="M50.1244 35.5928L50.1049 35.6031L50.1116 35.6135C47.9897 37.0408 45.453 37.8779 42.7308 37.8779C40.0061 37.8779 37.4508 37.0711 35.3271 35.6448C36.2646 34.3311 37.5815 33.2375 39.0517 32.5753C40.1865 33.0875 41.4123 33.3387 42.7308 33.3387C44.0468 33.3387 45.2481 33.0676 46.3795 32.5537C47.8734 33.3709 49.0183 34.2782 50.1244 35.5928Z" fill="white"/>
<path fill-rule="evenodd" clip-rule="evenodd" d="M42.7313 27.3135C45.4291 27.3135 47.9472 28.1246 50.0565 29.5259C49.7118 30.1723 48.7961 31.0345 47.9025 31.6758C47.3267 32.0866 46.7644 32.3856 46.3665 32.5598L46.3454 32.5493C45.2351 32.0614 44.0136 31.7894 42.7313 31.7894C37.662 31.7894 33.5513 36.014 33.5513 41.2239C33.5513 46.4338 37.662 50.6583 42.7313 50.6583C47.5054 50.6583 51.4265 46.9104 51.8707 42.1217C53.0948 41.47 54.8425 40.1199 56.1973 39.8079C56.2436 40.274 56.2673 40.7472 56.2673 41.2239C56.2673 48.9079 50.2058 55.1395 42.7313 55.1395C35.2568 55.1395 29.1953 48.9079 29.1953 41.2239C29.1953 33.5398 35.2568 27.3135 42.7313 27.3135Z" fill="#00AAD1"/>
<path fill-rule="evenodd" clip-rule="evenodd" d="M50.3359 46.5064L50.4143 46.3885C51.2076 45.1415 51.7235 43.6883 51.8694 42.1224C52.2236 41.9335 52.5549 41.5746 52.973 41.3069C54.0058 40.6605 55.2357 40.0287 56.196 39.8086C56.2448 40.2757 56.266 40.7479 56.266 41.2246C56.2761 44.3607 55.299 47.2777 53.4434 49.7309C52.6451 48.6625 51.657 47.5134 50.3359 46.5064Z" fill="white"/>
<path fill-rule="evenodd" clip-rule="evenodd" d="M67.0109 59.498C63.9464 62.6507 59.7785 63.9741 55.7849 63.4714C55.5927 62.1923 55.6467 60.33 55.9814 58.979C58.7912 59.4374 61.7663 58.5587 63.9304 56.3368C67.515 52.6503 67.515 46.6761 63.9304 42.9905C60.3474 39.304 54.5295 39.304 50.9466 42.9905C50.2241 43.7349 49.6466 44.5711 49.2184 45.4645L49.1131 45.6951L47.3055 44.7358L45.5899 44.1707L45.0479 44.0528C45.7063 42.5183 46.6437 41.0806 47.8678 39.8232C53.1528 34.3923 61.7242 34.3923 67.0109 39.8232C72.2968 45.2539 72.2968 54.0681 67.0109 59.498Z" fill="#00A540"/>
<path fill-rule="evenodd" clip-rule="evenodd" d="M51.7255 57.7532C51.7356 53.5807 49.0287 49.7512 44.9196 48.6212C42.565 47.9704 40.1808 48.324 38.1887 49.428C37.5497 49.0684 36.0541 48.0779 34.9438 46.219C38.0817 44.0326 41.3712 43.0057 46.0459 44.2943C50.7223 45.583 55.2065 50.4289 55.9466 55.7827L51.7255 57.7532Z" fill="#ED1320"/>
<path fill-rule="evenodd" clip-rule="evenodd" d="M66.0375 71.0218C67.4833 67.5885 66.76 63.5953 64.1195 60.6384C60.5433 56.9987 54.7508 56.9363 51.1594 60.6073C50.2447 61.6393 49.4751 62.7737 49.0257 64.0207L44.7573 63.025C45.3972 60.9815 46.5058 59.0621 48.0839 57.4398C50.856 54.6018 54.8064 53.1329 58.5614 53.3695C61.9816 53.5853 65.2475 55.2734 67.2271 57.4398C71.3799 61.9982 71.7837 67.5373 70.6582 71.0218H66.0375Z" fill="white"/>
<path fill-rule="evenodd" clip-rule="evenodd" d="M51.4948 74.2564C51.1921 72.3829 50.4004 70.8647 49.0178 69.42C46.5958 66.8904 43.2632 66.043 40.1928 66.978L40.165 66.9676C38.6029 66.3514 36.9977 65.5195 35.7222 64.0524C36.4295 63.6105 37.1933 63.2708 37.9529 62.9787C42.6942 61.152 48.3098 62.2594 52.1185 66.244C54.834 69.0759 56.1905 72.8136 56.0817 76.5304C54.6056 76.2946 52.965 75.6065 51.4948 74.2564Z" fill="#FFDD00"/>
</svg>
