<svg width="100" height="100" viewBox="0 0 100 100" fill="none" xmlns="http://www.w3.org/2000/svg">
<path d="M80.7071 74.9501C80.7071 74.9501 79.4344 64.2834 79.2122 62.4248C78.5051 56.5258 78.1616 53.0511 77.6162 52.344C75.7172 51.9602 73.1313 52.243 70.9495 52.1622C70.3031 52.9096 70.2425 53.1117 70 53.4753C70.3031 53.4147 71.4344 53.4955 71.495 54.1016C71.495 54.3642 70.1818 55.7783 69.4344 56.6672C64.2829 62.2834 59.0909 67.8591 53.9192 73.6773C53.5354 74.1218 53.293 74.4854 52.9697 74.8894C53.9798 74.8894 54.9697 74.8894 55.9798 74.8894C58.7475 71.8995 71.7374 57.4753 73.3738 56.0006C73.6162 58.445 75.7172 74.8894 75.7172 74.8894L80.7071 74.9501Z" fill="#0D2B60"/>
<path d="M55.8182 62.8888C55.3939 59.616 48.4444 59.5958 45.0101 59.7777C40.9899 59.9797 36.9899 60.7676 35.0505 63.1716C34.1616 64.2625 33.7171 65.7574 32.9899 67.4948C32.404 68.909 31.4141 70.6463 31.6767 71.9999C32.1818 74.7069 37.0505 74.909 40.505 74.909C44.404 74.909 48.0606 74.4039 50.3636 73.0302C52.5858 71.7171 53.2929 69.7777 54.404 67.212C54.9495 65.9595 56.0202 64.4039 55.8182 62.8888ZM49.3333 66.8888C48.4242 69.01 47.9394 70.9696 46.2222 72.0605C44.2222 73.3534 38.2222 74.1009 36.3636 71.7979C36.303 70.1817 37.1717 68.7474 37.7778 67.3736C38.3838 66.0201 38.7879 64.5251 39.6565 63.515C40.9495 62.0201 43.3535 61.3736 46.1414 61.3534C47.6767 61.3332 50.2626 61.5352 50.6464 62.8484C50.9899 64.0201 49.7778 65.8383 49.3333 66.8888Z" fill="#0D2B60"/>
<path d="M32.8889 56.1419C32.5657 53.6773 28.4848 52.6268 27.4343 52.5662C21.6364 52.2227 13.5354 52.0813 6.84848 52.1823C6.64646 52.6874 6.60606 52.7884 6.38384 53.3945C7.41414 53.3945 8.0606 53.3338 8.32323 53.7177C8.62626 54.1419 8.12121 55.2732 7.41414 56.7682C4.66667 62.6874 2.24242 69.3136 0 74.9096C9.77778 74.7682 24.6465 76.2631 29.3131 70.3035C29.9192 69.5359 30.505 68.445 30.6263 67.2934C31.0303 63.7985 27.8788 63.7783 25.2727 63.152C27.8182 62.5864 30.5252 61.3338 31.8586 59.4349C32.4242 58.5864 33.0303 57.2732 32.8889 56.1419ZM25.3737 67.0106C25.6162 69.0712 23.697 71.1318 22.2626 72.0005C18.4646 74.3035 11.1313 73.2934 5.53535 73.4955C6.90909 70.3844 8.08081 67.0712 9.57576 64.1015C9.71717 64.1621 24.8485 62.5864 25.3737 67.0106ZM24.404 61.2732C21.0707 63.1924 14.4848 62.7884 10.1212 62.7682C11.2929 59.6571 12.5657 56.6268 13.7778 53.5561C13.8788 53.4753 13.9798 53.4147 14.0808 53.3742C19.1111 53.354 19.1717 53.3338 21.7778 53.3742C23.9798 53.4147 26.9495 53.7177 27.5151 55.253C28.4242 57.7379 25.9394 60.3844 24.404 61.2732Z" fill="#0D2B60"/>
<path d="M97.3332 26.0001C97.3332 26.0001 94.2423 27.0506 92.1211 30.7678C90.1009 34.3032 86.0201 45.4345 84.8888 50.1819C84.1009 53.5355 81.3332 57.5557 80.5655 59.091C76.9898 66.1617 73.414 67.2729 72.0605 67.3335C68.1817 67.5153 66.2827 64.8284 66.2827 64.8284L68.5049 64.6466C68.5049 64.6466 70.1009 66.1617 72.4847 64.7476C75.1514 63.1516 77.1716 58.4446 78.6665 54.687C80.707 49.4749 82.8686 41.2526 84.0605 38.7274C88.6463 29.6163 90.4847 28.6668 92.707 27.3335C94.9696 25.9597 97.3332 26.0001 97.3332 26.0001Z" fill="#D6430D"/>
<path d="M100 34.7068C100 34.7068 96.5252 35.1311 94.404 38.8482C92.3838 42.3836 91.4343 43.8785 89.2727 48.2422C87.7374 51.3129 84.404 58.8886 83.6363 60.424C80.0606 67.4947 76.9293 68.3028 75.5757 68.3634C71.697 68.5452 69.3535 66.1614 69.3535 66.1614L71.5757 65.9795C71.5757 65.9795 73.2121 67.2725 75.2727 65.5957C79.2727 62.3432 81.6565 54.3836 84.2828 49.2523C85.7374 46.3836 87.7374 42.5856 89.1111 40.7068C91.4949 37.4341 93.7171 35.5553 96.404 34.8078C97.7778 34.424 100 34.7068 100 34.7068Z" fill="#F5A300"/>
<path d="M97.0709 47.7983C97.0709 47.7983 93.98 48.1821 92.182 51.0912C91.1113 52.8286 87.0305 59.9397 87.0305 59.9397C87.0305 59.9397 83.98 64.2629 82.9093 65.6165C81.4547 67.4953 78.8487 69.0912 77.4952 69.1518C73.8992 69.3134 72.6265 67.2528 72.6265 67.2528L74.283 67.1316C74.283 67.1316 75.8992 68.0003 77.3537 67.2124C79.4749 66.0609 81.9396 61.7983 83.1921 59.8185C84.283 58.0811 86.3638 54.869 87.6972 52.97C88.9497 51.172 91.5558 48.667 94.2224 47.8791C95.3133 47.5761 97.0709 47.7983 97.0709 47.7983Z" fill="#AABC14"/>
</svg>
