<svg width="100" height="100" viewBox="0 0 100 100" fill="none" xmlns="http://www.w3.org/2000/svg">
<path fill-rule="evenodd" clip-rule="evenodd" d="M18.3601 12.6476C17.6001 24.8228 23.0601 36.3689 29.9001 46.2369C34.0001 51.8901 40.0901 56.8141 45.2101 61.2787L44.4601 63.0366C39.4701 60.7693 31.6501 52.9588 27.6501 49.2533C21.7601 42.2517 15.4001 31.7744 14.6001 22.6854C12.6001 22.7254 10.6401 23.6742 9.58014 25.1924C2.67014 34.9006 13.0001 46.9561 19.8701 52.759C27.2701 58.7917 35.0801 63.0466 43.9601 66.043C43.4601 67.2915 44.7101 68.3002 42.7101 67.8008C39.9501 67.0517 36.9401 66.2927 34.1801 65.2939C24.3801 61.6183 13.8201 56.7142 8.08014 47.4954C1.85014 51.2309 6.14014 61.1888 11.5901 63.7857C20.0601 69.6286 31.1401 70.6973 41.2001 70.5575C43.9601 70.3078 43.4601 69.8084 43.9601 71.806C44.2101 72.3054 44.2101 72.0557 44.2101 72.5551C32.5201 74.9622 19.0801 74.0832 9.08014 67.7908C5.95014 77.2095 17.3401 81.714 25.1401 81.0748C32.5701 80.7252 38.7901 77.9785 45.7201 75.3117C46.2201 75.8111 46.4701 76.8199 46.9701 77.3193C39.3601 83.3021 28.6101 86.2585 19.1101 84.3408C19.5101 92.5109 29.6101 92.2512 35.1701 89.8541C40.9201 87.7966 44.7101 83.2821 49.2201 79.5766L50.4701 80.8251C47.1901 85.3696 42.0701 90.1038 36.9201 92.3511C35.6501 92.8006 32.1001 93.6296 30.9001 94.109C38.6101 104.636 49.9001 89.6444 52.9801 82.3333L54.7401 83.0823C53.4901 88.326 47.6601 96.7059 43.2001 98.1241C43.7001 99.882 48.2201 101.38 51.9801 97.8744C55.5401 94.3187 57.0201 88.6556 57.2501 83.8414C58.0001 83.8414 58.2501 84.0911 59.0101 84.0911C58.8601 87.487 59.3301 91.3424 57.7601 94.3687C57.0101 95.8769 56.0001 96.8757 55.2501 98.3838C60.8201 100.341 63.9701 95.8069 63.0301 90.6132C62.3701 87.2873 62.5801 88.296 65.2901 87.6069C75.0601 86.1886 83.3801 79.6865 85.3701 69.8084C86.1201 68.0505 85.6201 68.8096 87.1301 68.3002C88.4401 68.1204 88.1301 65.5935 87.3801 65.0442C86.2801 64.0654 85.7301 63.2364 85.6201 61.5384C85.6201 60.0302 86.1201 60.2899 86.8701 59.7805C91.8801 56.5045 79.6801 55.0263 82.8501 46.996C87.4201 48.3544 90.4101 46.6664 90.1301 41.233C82.0701 45.5478 81.1501 34.1116 87.8701 32.4636C90.1701 32.2239 91.4501 33.2227 91.8901 35.47C94.2801 34.9805 95.9801 29.9067 95.4001 27.949C95.4001 27.4497 96.6501 26.4409 95.1501 25.1924C94.1501 24.4433 92.3901 25.4421 89.6301 24.4433C88.8801 24.1936 86.8701 23.1948 86.3701 23.1948C88.4701 19.689 83.5201 18.3507 81.3501 16.9324C75.3301 13.4266 76.8301 11.1694 74.8301 11.1694C73.3501 11.3491 72.3301 12.4278 71.8201 13.6763C70.5601 12.4778 67.7401 11.0295 65.3001 10.4203C60.8501 8.50258 59.2001 7.89332 59.0301 12.4278C56.9701 11.7387 51.1601 12.8273 47.2401 12.6775C45.2201 12.9772 46.4201 16.1933 46.4901 17.6915C43.2301 17.6915 41.2201 18.4406 37.9601 18.4406C36.4301 20.9176 38.6101 23.9239 39.9701 26.2112C38.9901 26.9003 35.9301 26.1812 36.9601 28.2187C38.2301 35.8894 41.0901 43.2905 45.4901 49.523C51.2101 58.4821 48.7101 50.4019 59.5401 49.0236C81.5301 46.0771 89.1901 75.9709 69.3301 85.1199C67.8501 85.869 59.8601 89.4646 61.0501 85.6193C72.0101 85.2397 79.8601 73.9534 76.1101 63.3063C71.5801 50.9013 55.8001 48.7739 47.2501 58.2923C31.8401 44.1694 28.0601 20.2983 32.4201 0.612126C24.6801 -2.20447 18.1601 5.19658 18.3701 12.6476H18.3601ZM63.0301 21.1673C63.0301 20.6679 63.2801 20.4182 63.2801 20.1685C64.7901 17.6615 68.5501 18.92 68.5501 20.9176C65.6401 19.6691 63.8601 20.7278 64.7901 24.1736C63.4901 24.2935 62.7601 22.226 63.0301 21.1673Z" fill="#EC1C24"/>
</svg>
