<svg width="100" height="100" viewBox="0 0 100 100" fill="none" xmlns="http://www.w3.org/2000/svg">
<path d="M0 25C0 11.1929 11.1929 0 25 0H75C88.8072 0 100 11.1929 100 25V75C100 88.8072 88.8072 100 75 100H25C11.1929 100 0 88.8072 0 75V25Z" fill="#EC0C31"/>
<path d="M72.841 62.0001H79.551L81.6969 52.5732C79.3563 54.1435 76.813 55.3882 74.137 56.2732L72.841 62.0001ZM55.4353 51.2322C57.0479 51.3335 58.6663 51.299 60.2732 51.1292L59.1482 42.9633L55.4353 51.2322ZM40.3814 47.4643C43.3104 48.8023 45.9324 49.7263 48.8273 50.3443L54.8563 38.0014H64.3611L66.5731 50.2403C68.8177 49.7355 70.9834 48.9284 73.011 47.8413L67.1191 38.0024H71.7171C71.9885 37.9842 72.2566 38.07 72.467 38.2424L79.381 43.7963C81.5336 42.1803 83.5709 40.4161 85.4779 38.5164C85.8869 38.1064 86.1589 38.0024 86.7379 38.0024H96.0027C86.8069 47.7043 78.802 53.4622 69.3331 55.8302L67.6641 56.2402L68.7191 62.0001H61.7742L61.0942 57.0282C58.3765 57.1771 55.6509 57.074 52.9523 56.7202L50.5693 62.0001H43.1124L46.6544 54.7662L46.1714 54.4982C43.4391 52.9488 41.3768 50.4434 40.3814 47.4643ZM25.9036 62.0001H41.1294L42.4914 56.1702H33.8745L37.9975 38.0034H31.3556L25.9036 62.0001ZM13.4728 49.5873L14.8358 43.6223H17.9357C19.5357 43.6223 20.8307 44.1023 20.8307 46.1613C20.8307 47.9423 19.5317 49.5913 16.8447 49.5913L13.4728 49.5873ZM4.00391 62.0001H10.6458L12.2118 55.0752H17.3217C23.7597 55.0752 27.6086 50.1753 27.6086 45.3393C27.6086 40.4024 24.1687 38.0024 19.0237 38.0024H9.44984L4.00391 62.0001Z" fill="white"/>
</svg>
