<svg width="101" height="100" viewBox="0 0 101 100" fill="none" xmlns="http://www.w3.org/2000/svg">
<path fill-rule="evenodd" clip-rule="evenodd" d="M57.863 62.0677H39.9856L41.4127 55.9674H52.9054C56.8489 55.9674 58.7643 52.5407 55.9475 50.5825C53.2058 48.6621 51.4031 47.1181 48.6614 45.16C43.1404 41.2061 45.7319 32.0556 55.0086 31.9803H71.8719L70.4072 38.0053H59.1023C55.9851 37.9676 55.309 41.3944 57.3371 42.637L64.5857 48.0219C70.5574 52.5783 67.0646 62.0677 57.863 62.0677ZM78.4069 94.8665C76.6042 98.2179 72.3226 99.6488 68.8673 97.9919C50.5392 89.2556 34.3895 76.9797 20.9814 62.0677H37.7321L39.2344 56.0051H28.6432C28.3427 56.0051 28.0423 56.005 27.7418 55.9674C26.1644 55.7414 25.2254 55.1013 24.6996 54.2728C24.1738 53.4444 24.0236 52.5407 24.1363 51.7875C24.1363 51.5993 24.6996 49.3022 24.7372 49.0763V49.001L26.3146 42.6747C27.0282 39.7375 29.4694 38.0053 32.6994 37.8923H43.5535L44.9807 31.905H37.5068L28.1174 35.4446L29.0187 31.905H27.7042C24.6996 31.8673 22.5964 32.1309 21.0941 32.8087C19.742 33.4489 18.7655 34.4656 18.3148 35.9718L13.9957 53.7457C10.24 48.9633 6.74712 43.9927 3.51717 38.7584C1.52662 35.52 2.35289 31.0765 5.54528 28.8925C30.2206 12.0224 59.4028 2.49531 89.2611 1.81749C93.1295 1.70452 96.397 4.75469 96.735 8.59564C97.3735 16.3905 97.3735 24.1854 96.8101 31.9803H80.8857L65.7876 61.9171H76.8295L78.5947 57.9255C78.7825 57.5113 78.9703 57.3983 79.4585 57.3983H87.3832C87.5334 57.3983 87.8714 57.436 87.8714 57.8502L87.9841 61.9171H91.5521C88.4724 73.3647 84.0406 84.4356 78.4069 94.8665ZM87.7588 52.0511L87.3832 39.8128C87.3832 39.3986 87.0076 39.3609 86.8198 39.7751L81.2613 52.1641C81.036 52.6536 81.1862 53.1055 81.5993 53.0679H87.1954C87.6461 53.0302 87.7963 52.6536 87.7588 52.0511Z" fill="#EF001E"/>
</svg>
