<svg width="100" height="100" viewBox="0 0 100 100" fill="none" xmlns="http://www.w3.org/2000/svg">
<path d="M39.083 25.9221C39.0351 26.2518 38.4947 26.2831 38.2227 26.4368C36.8555 27.2072 36.3969 28.6235 34.8057 29.2659C33.418 29.8262 31.5678 29.8399 30.2178 29.1565C29.838 28.9635 29.5656 28.6354 29.167 28.5022L28.9531 29.0032C30.1697 30.4894 32.295 30.7415 34.083 30.2923C36.333 29.7251 36.8466 28.0595 38.6396 27.0208C39.2163 26.6877 41.0988 25.9222 41.708 25.9221H100L92.3721 32.5764C91.9135 32.9301 90.8625 33.6594 90.291 33.6594H35.25L36.458 35.4075H89.085L80.791 42.6438C80.5549 42.8181 79.7952 43.3118 79.542 43.3118H43.416L44.624 45.0598H77.917L69.625 52.2981C69.4967 52.3835 68.8885 52.7132 68.791 52.7132H48.499L49.791 54.5432H66.916L57.541 62.6975H52.416C52.3768 63.1125 52.5943 63.5646 52.9209 63.8157C52.9773 63.8583 53.4256 64.1106 53.458 64.1116H55.833L35.249 82.0003H35.165C34.1967 81.1257 33.1529 80.3226 32.2051 79.4241C27.8161 75.2693 24.3084 70.7826 24.666 64.3216C24.7431 62.9259 25.5139 61.6137 25.9365 60.2659C27.9932 53.6989 27.1872 47.2567 23.6162 41.4055C23.359 40.9845 21.7567 38.5471 21.4453 38.4925C19.8712 39.9104 17.7922 40.5617 15.8057 39.554C14.305 38.792 13.6563 37.2029 12.6621 35.9524C10.3282 33.0159 6.74181 31.2511 4.04004 34.9065L2.08789 32.8811L4.08105 30.7473H0.666992L0 28.0852V28.0032C1.7419 28.1689 2.91769 27.9671 2.75 25.9221H39.083ZM19.917 29.0862C19.0717 28.5616 17.7783 27.2315 16.7227 27.8499C16.2881 28.1044 16.0421 28.7499 16.3877 29.1565C16.8238 29.286 17.2102 28.9675 17.624 28.9964C18.2827 29.0442 19.0666 29.7902 19.8672 29.2561L19.915 29.0852L19.917 29.0862ZM24.125 18.0178C25.1978 18.1221 25.961 18.8292 26.9141 19.0598C28.2658 19.3861 29.6463 19.0015 30.832 18.3489V18.3509C31.0014 18.5797 30.0336 20.4188 29.8467 20.7356C29.2068 21.8323 28.4882 22.4356 27.1982 22.6663C25.5625 22.9584 23.5327 22.1316 22.1758 23.4759C21.7925 23.8551 21.8422 24.3202 21.418 24.5901C21.382 23.8606 20.8203 23.271 20.6064 22.6116C19.823 20.2097 21.5328 17.7667 24.125 18.0178Z" fill="#0C4CA3"/>
</svg>
