<svg width="100" height="100" viewBox="0 0 100 100" fill="none" xmlns="http://www.w3.org/2000/svg">
<path d="M100 50C100 77.6142 77.6142 100 50 100C22.3858 100 0 77.6142 0 50C0 22.3858 22.3858 0 50 0C77.6142 0 100 22.3858 100 50Z" fill="#FFF200"/>
<path d="M34.6807 40.1582C36.3703 40.1582 37.6439 40.692 38.1445 43.0918C38.702 45.7596 38.4729 47.6164 35.4697 47.8291L30.0586 48.2148C34.041 73.3782 57.3261 81.5796 70.0029 54.4785C72.1011 49.9934 72.7877 49.1766 75.0859 49.7471C78.2019 50.5202 78.6276 52.1223 77.1436 56.6445C66.1823 90.0544 29.3434 93.4034 22.1152 48.7871L17.7188 49.1045C14.1429 49.3606 14.002 46.3434 14.002 44.665C14.002 41.3474 15.2344 40.1583 17.4463 40.1582H34.6807ZM80.1074 24C83.6404 24 86.5039 26.8644 86.5039 30.3975C86.5037 33.9298 83.6403 36.7929 80.1074 36.793C76.5755 36.793 73.7112 33.9298 73.7109 30.3975C73.7109 26.8642 76.5754 24 80.1074 24Z" fill="#E41917"/>
</svg>
