<svg width="100" height="100" viewBox="0 0 100 100" fill="none" xmlns="http://www.w3.org/2000/svg">
<path d="M9.04808 38.0216L21.5684 39.9018C45.1431 28.9517 44.0429 40.9548 44.0429 40.9548L52.6241 29.2832C46.3547 30.2133 40.0109 31.2706 33.9515 32.4579C33.9515 32.4579 31.6741 32.8894 30.1753 33.1895L9.0452 37.9316L9.01376 37.9416C8.99233 37.9473 8.97949 37.9558 8.97949 37.9787C8.97949 37.9973 8.99376 38.0101 9.01376 38.0158C9.02948 38.0187 9.04808 38.0216 9.04808 38.0216Z" fill="#D81E05"/>
<path d="M9.04808 38.0216L21.5684 39.9018C45.1431 28.9517 44.0429 40.9548 44.0429 40.9548L52.6241 29.2832C46.3547 30.2133 40.0109 31.2706 33.9515 32.4579C33.9515 32.4579 31.6741 32.8894 30.1753 33.1895L9.0452 37.9316L9.01376 37.9416C8.99233 37.9473 8.97949 37.9558 8.97949 37.9787C8.97949 37.9973 8.99376 38.0101 9.01376 38.0158C9.02948 38.0187 9.04808 38.0216 9.04808 38.0216Z" fill="#D81E05"/>
<path d="M99.9882 24C99.9882 24 63.5317 26.6575 33.949 32.4583C33.949 32.4583 31.6715 32.8898 30.1727 33.1899C30.1727 33.1899 35.4421 32.304 37.1209 34.2729C38.8782 36.3331 41.4772 41.4996 20.56 59.8493C13.6304 65.9201 5.89511 71.3352 0 75.1871L13.7233 72.9725C20.1071 66.896 36.9723 53.1569 51.9572 45.2972C77.3322 31.9911 97.2878 24.9244 99.8696 24.1229C100.055 24.0657 99.9882 24 99.9882 24Z" fill="#D81E05"/>
<path d="M99.9882 24C99.9882 24 63.5317 26.6575 33.949 32.4583C33.949 32.4583 31.6715 32.8898 30.1727 33.1899C30.1727 33.1899 35.4421 32.304 37.1209 34.2729C38.8782 36.3331 41.4772 41.4996 20.56 59.8493C13.6304 65.9201 5.89511 71.3352 0 75.1871L13.7233 72.9725C20.1071 66.896 36.9723 53.1569 51.9572 45.2972C77.3322 31.9911 97.2878 24.9244 99.8696 24.1229C100.055 24.0657 99.9882 24 99.9882 24Z" fill="#D81E05"/>
</svg>
