<svg width="100" height="100" viewBox="0 0 100 100" fill="none" xmlns="http://www.w3.org/2000/svg">
<path d="M0 25C0 11.1929 11.1929 0 25 0H75C88.8072 0 100 11.1929 100 25V75C100 88.8072 88.8072 100 75 100H25C11.1929 100 0 88.8072 0 75V25Z" fill="#D91417"/>
<path d="M17.5215 37.0393C18.8556 36.9869 20.3954 36.9869 21.7295 37.0393C35.7199 37.5873 45.4037 43.2483 56.7773 50.5666L67.2939 57.5373H47.5391C41.3099 52.7087 35.0129 47.8968 28.2891 43.7609C24.0672 41.1645 19.5711 38.6369 14.752 37.3459L15.9326 37.1428C16.4558 37.2349 17.0762 37.0568 17.5215 37.0393ZM39.8457 53.7482C42.6134 56.515 44.2404 57.021 45.1787 57.5256H5.00195C6.15235 56.1843 7.57301 55.7122 9.35352 55.9113C10.161 56.0018 10.9936 56.733 11.6729 56.8068H29.3232C29.3232 56.8068 30.2005 56.7328 30.709 56.5158C31.123 56.3391 31.4599 56.275 31.6836 55.883H28.8105V55.3703C32.5053 55.3857 36.4561 54.8053 39.8457 53.7482ZM53.8506 47.6965C64.6772 39.7867 81.2999 37.1022 95.002 37.9602C91.6072 38.9915 88.2305 40.0947 84.9199 41.3693C80.1459 43.2074 69.8611 47.4436 67.6855 52.2414C66.5912 54.657 69.0494 55.6691 70.9883 56.6135H81.2998C82.4008 55.8215 83.0982 55.1652 85.0479 55.1652C87.254 55.1653 88.2803 55.9861 89.5117 57.0256H92.9492L92.5391 57.5256C92.5391 57.5256 77.5565 57.5256 70.6807 57.5256C64.5716 55.2883 59.1366 51.3756 53.8506 47.6965Z" fill="white"/>
</svg>
