<svg width="100" height="100" viewBox="0 0 100 100" fill="none" xmlns="http://www.w3.org/2000/svg">
<path d="M6.28576e-05 39.7396C6.28576e-05 41.142 0.21288 42.5587 0.756072 43.9004C3.20854 49.9562 9.40254 53.667 17.2646 50.5135C19.1557 49.7555 71.3588 28.7407 71.3588 28.7407C71.3588 28.7407 50.7966 80.8329 50.0365 82.7806C47.0307 90.2449 50.6283 97.01 56.7656 99.282C58.1256 99.7704 59.5221 100.014 60.9165 99.9994C65.8823 99.969 70.3008 97.0404 72.4452 91.161C72.7837 90.2672 98.4758 19.7077 99.0616 17.9911C99.3838 16.998 99.9878 14.6328 100 12.9973C100.006 9.50527 98.7048 6.20377 96.2139 3.73728C93.731 1.26673 90.4962 -0.00806396 87.0424 4.28422e-05C85.3804 4.28422e-05 84.0083 0.306077 81.9449 0.966781C80.7025 1.35185 14.4331 26.0168 8.78031 28.1367C3.10517 30.2485 -0.0161518 34.764 6.28576e-05 39.7396Z" fill="#E60013"/>
</svg>
