<svg width="100" height="100" viewBox="0 0 100 100" fill="none" xmlns="http://www.w3.org/2000/svg">
<path d="M0 25C0 11.1929 11.1929 0 25 0H75C88.8072 0 100 11.1929 100 25V75C100 88.8072 88.8072 100 75 100H25C11.1929 100 0 88.8072 0 75V25Z" fill="#0032A0"/>
<path d="M20.7793 89.3486C38.9442 81.5797 56.6137 79.2295 69.874 82.7275C78.346 85.1374 84.2609 89.7791 87.3613 96.7334C85.9869 97.5168 84.5314 98.1742 83.0098 98.6885C79.4544 94.3059 74.2203 91.423 67.9492 89.709C59.2729 87.4226 49.2932 87.2855 38.2256 89.3223C30.1408 90.7922 21.7377 93.2941 13.4951 97.1992C12.0702 96.4592 10.7255 95.5865 9.47754 94.5967C13.1371 92.5866 16.9172 90.8717 20.7793 89.3486ZM30.4912 64.7734C38.9848 62.7608 47.3038 62.0485 54.9082 62.7207C69.2851 64.0048 79.6103 70.2483 84.584 81.0283C84.6285 81.109 88.039 88.7151 88.4961 96.0469C88.4554 96.073 88.4139 96.0981 88.373 96.124L86.7969 92.2188C86.3422 90.0855 85.7533 87.892 84.6289 85.9277C80.9464 78.8108 73.7674 73.7019 64.084 70.707C55.2898 67.9457 43.7429 67.8246 31.7617 70.1553C21.367 72.1149 10.7911 75.9774 0.699219 80.8877C0.384393 79.5836 0.170741 78.2401 0.0693359 76.8652C1.25342 76.1945 2.44044 75.5548 3.55664 74.958C12.5415 70.1558 21.5185 66.8103 30.4912 64.7734ZM100 25V56.4736C83.6377 54.6219 40.0325 51.6232 0.00390625 74.3867V75.3223C0.00255104 75.215 0 75.1076 0 75V55.4697C11.8838 49.8222 24.3484 46.5656 34.9736 45.8691C45.7451 45.2935 55.3798 46.8195 62.623 51.1025C79.7036 50.8409 92.7203 53.0388 99.9961 54.7979V24.6768C99.9975 24.7844 100 24.8921 100 25ZM69.6553 56.876C70.1869 57.2663 70.694 57.7533 71.1729 58.3447C71.3556 58.6064 77.2879 64.4158 79.2773 70.3291L76.7559 67.5635C73.727 63.1194 69.8902 59.7617 64.5674 57.1895C66.1589 57.0003 68.1612 56.9444 69.6553 56.876ZM51.0703 52.5449C36.8193 50.0411 18.5526 52.6208 0.00195312 60.3496V66.4043C17.566 57.9147 35.4714 53.8814 51.0703 52.5449ZM18.5547 35.6572C27.6208 34.5462 36.0495 35.0415 43.1465 37.0381C72.964 34.9167 94.5723 41.2686 94.5723 41.2686C86.4602 39.9522 42.9276 34.0111 0 53.5303V39.9805C6.04954 37.9476 12.4402 36.3778 18.5547 35.6572ZM31.8252 39.252C22.288 39.0064 11.0738 40.6167 0.00195312 44.2637V47.3955C10.6922 43.2614 21.476 40.7414 31.8252 39.252ZM53.5283 41.4736C55.6598 42.8744 58.5265 45.1004 60.2236 47.2217L58.4453 46.6504C55.924 44.839 53.2808 43.1847 49.8662 41.7959C51.007 41.7234 52.1886 41.5421 53.5283 41.4736ZM14.1094 29.2568C54.4505 19.6886 87.8691 28.6973 87.8691 28.6973C80.699 27.071 40.7473 21.653 0 37.5654V30.6855C4.5392 29.8442 9.50521 29.2971 14.1094 29.2568ZM30.2637 30.8184C32.4276 31.406 35.2864 32.4243 38.0146 34.0947L34.9492 33.6201C32.3224 32.638 29.2165 31.9816 26.1309 31.5469C27.4665 31.253 28.7738 30.9995 30.2637 30.8184ZM0 26.8936C2.87862 26.809 6.17155 27.7635 9.73633 28.2305L3.47168 29.0273C2.40387 29.0716 1.20585 29.1684 0 29.2852V26.8936Z" fill="white"/>
</svg>
