<svg width="100" height="100" viewBox="0 0 100 100" fill="none" xmlns="http://www.w3.org/2000/svg">
<path d="M0 25C0 11.1929 11.1929 0 25 0H75C88.8072 0 100 11.1929 100 25V75C100 88.8072 88.8072 100 75 100H25C11.1929 100 0 88.8072 0 75V25Z" fill="#38418C"/>
<path d="M15.4609 46.0693C16.4318 46.0693 17.2213 46.1837 17.8281 46.4121C18.4345 46.6405 18.8805 46.9275 19.166 47.2734C19.4516 47.6197 19.6514 48.0577 19.7656 48.5859C19.8298 48.9144 19.8623 49.5068 19.8623 50.3633V52.9336C19.8623 54.7251 19.9033 55.8582 19.9854 56.333C20.0674 56.8077 20.23 57.2628 20.4727 57.6982H18.46C18.2601 57.2985 18.1313 56.8312 18.0742 56.2959C17.3603 56.9027 16.673 57.3312 16.0127 57.5811C15.3524 57.8309 14.6434 57.9551 13.8867 57.9551C12.6377 57.955 11.6778 57.6502 11.0068 57.04C10.3358 56.4297 10 55.6496 10 54.7002C10 54.1434 10.1264 53.6343 10.3799 53.1738C10.6333 52.7134 10.9655 52.3438 11.376 52.0654C11.7864 51.7871 12.2488 51.5764 12.7627 51.4336C13.1411 51.3337 13.7127 51.2373 14.4766 51.1445C16.0322 50.959 17.1778 50.7384 17.9131 50.4814C17.9202 50.2173 17.9238 50.0489 17.9238 49.9775C17.9238 49.1925 17.7419 48.6396 17.3779 48.3184C16.8853 47.8829 16.1535 47.6651 15.1826 47.665C14.2761 47.6651 13.6067 47.824 13.1748 48.1416C12.7431 48.4593 12.4238 49.0216 12.2168 49.8281L10.332 49.5703C10.5034 48.7638 10.7852 48.1123 11.1777 47.6162C11.5704 47.1201 12.1385 46.7384 12.8809 46.4707C13.6232 46.2031 14.4832 46.0694 15.4609 46.0693ZM44.1875 47.4395C44.6228 46.9829 45.1169 46.6405 45.6699 46.4121C46.2232 46.1837 46.8358 46.0693 47.5068 46.0693C48.8916 46.0694 50.0377 46.5667 50.9443 47.5625C51.8509 48.5584 52.3037 49.9884 52.3037 51.8516C52.3037 53.0937 52.0967 54.1879 51.6826 55.1338C51.2686 56.0796 50.6956 56.7863 49.9639 57.2539C49.2322 57.7214 48.4205 57.955 47.5283 57.9551C46.7645 57.9551 46.0641 57.7913 45.4287 57.4629C44.9506 57.2059 44.4299 56.7239 43.8662 56.0176V57.6982H39.7861V42H44.1875V47.4395ZM66.6465 52.5801C66.6465 53.2938 66.7789 53.8008 67.043 54.1006C67.307 54.4003 67.6782 54.5497 68.1562 54.5498C68.6774 54.5498 69.1046 54.35 69.4365 53.9502C69.7683 53.5504 69.9346 52.8327 69.9346 51.7979V46.3262H74.293V57.6982H70.2236V55.8564C69.6168 56.6132 69.0042 57.1524 68.3867 57.4736C67.7692 57.7948 67.0108 57.9551 66.1113 57.9551C64.912 57.9551 63.9718 57.5964 63.29 56.8789C62.6083 56.1615 62.2667 55.0572 62.2666 53.5654V46.3262H66.6465V52.5801ZM83.2539 46.0693C84.8812 46.0694 86.1661 46.3152 87.1084 46.8076C88.0507 47.3002 88.7681 48.015 89.2607 48.9502C89.7532 49.8854 90 51.1025 90 52.6016V53.0938H81.2617C81.3402 53.7932 81.5294 54.3146 81.8291 54.6572C82.2503 55.1498 82.8003 55.3965 83.4785 55.3965C83.9068 55.3965 84.3138 55.2893 84.6992 55.0752C84.9348 54.9396 85.1887 54.7001 85.46 54.3574L89.7539 54.7539C89.0971 55.8961 88.304 56.7148 87.376 57.2109C86.4479 57.707 85.1164 57.9551 83.3818 57.9551C81.8758 57.955 80.6909 57.743 79.8271 57.3184C78.9633 56.8936 78.2472 56.2184 77.6797 55.2939C77.1124 54.3697 76.8292 53.2831 76.8291 52.0342C76.8291 50.2566 77.3985 48.8172 78.5371 47.7178C79.6757 46.6187 81.2481 46.0693 83.2539 46.0693ZM26.1504 57.6982H24.2236V46.3262H26.1504V57.6982ZM35.3516 46.0693C36.0011 46.0694 36.6611 46.2765 37.332 46.6904L36.6689 48.4785C36.1978 48.2001 35.726 48.0606 35.2549 48.0605C34.8337 48.0606 34.4556 48.188 34.1201 48.4414C33.7846 48.6948 33.5451 49.0464 33.4023 49.4961C33.1883 50.1812 33.0811 50.9306 33.0811 51.7441V57.6982H31.1533V46.3262H32.8887V48.0498C33.331 47.2436 33.7396 46.7122 34.1143 46.4551C34.489 46.1981 34.9018 46.0693 35.3516 46.0693ZM58.9844 57.6982H54.6152V42H58.9844V57.6982ZM17.9131 51.9912C17.2135 52.2767 16.1643 52.5189 14.7656 52.7188C13.9732 52.833 13.4124 52.9617 13.084 53.1045C12.7556 53.2473 12.5017 53.4566 12.3232 53.7314C12.145 54.0061 12.0557 54.3112 12.0557 54.6465C12.0557 55.1605 12.2506 55.589 12.6396 55.9316C13.0287 56.2743 13.5981 56.4453 14.3477 56.4453C15.0901 56.4453 15.7509 56.2828 16.3291 55.958C16.9071 55.6332 17.3313 55.1888 17.6025 54.625C17.8096 54.1895 17.9131 53.5468 17.9131 52.6973V51.9912ZM46.168 49.3242C45.5755 49.3242 45.0916 49.5444 44.7168 49.9834C44.3422 50.4224 44.1553 51.0883 44.1553 51.9805C44.1553 52.9581 44.3386 53.6664 44.7061 54.1055C45.0736 54.5444 45.5397 54.7646 46.1035 54.7646C46.6246 54.7647 47.0626 54.5481 47.416 54.1162C47.7692 53.6843 47.9453 52.958 47.9453 51.9375C47.9453 51.0381 47.7729 50.3773 47.4268 49.9561C47.0805 49.5349 46.6605 49.3242 46.168 49.3242ZM83.4355 48.6494C82.7432 48.6495 82.1904 48.925 81.7764 49.4746C81.5122 49.8173 81.3438 50.3277 81.2725 51.0059H85.5664C85.4807 50.1636 85.2543 49.5604 84.8867 49.1963C84.5191 48.8322 84.0352 48.6494 83.4355 48.6494ZM26.1504 44.2168H24.2236V42H26.1504V44.2168Z" fill="white"/>
</svg>
