<svg width="100" height="100" viewBox="0 0 100 100" fill="none" xmlns="http://www.w3.org/2000/svg">
<path fill-rule="evenodd" clip-rule="evenodd" d="M0.287109 89.8286L31.3006 17.728C31.3582 17.5749 31.3938 17.4144 31.4063 17.2513C31.4262 16.2189 30.634 15.6867 30.1321 15.4657C28.9689 15.015 28.2209 14.0528 28.2209 12.9026C28.2209 11.3329 29.756 10.0596 31.6473 10.0596H65.3902L84.7064 10.1194C90.585 10.1194 95.7822 13.5804 97.9491 18.6615C99.1878 21.7507 99.8353 25.0922 99.8353 28.633C99.8353 34.2012 98.119 39.3724 95.2153 43.656C88.9901 52.8803 78.7881 58.4087 67.773 58.4087H44.4522L34.1349 82.6447C34.0847 82.78 33.9997 82.9559 33.9997 83.1215C33.9997 83.6979 34.4114 84.1998 34.9029 84.4199C36.0765 84.8672 36.8133 85.8345 36.8133 86.9735C36.8133 88.5536 35.2834 89.8278 33.393 89.8278L0.287109 89.8286ZM48.6414 48.9885L61.7229 18.5965C61.7229 18.5965 63.8101 18.541 64.5122 18.6511C65.9467 18.8765 67.0406 19.2128 68.1735 19.875C73.4105 22.9547 73.8119 31.6979 69.0662 39.4079C65.47 45.2613 60.2433 48.9131 53.7476 48.9581L48.6414 48.9885Z" fill="#E31F26"/>
</svg>
