<svg width="100" height="100" viewBox="0 0 100 100" fill="none" xmlns="http://www.w3.org/2000/svg">
<path d="M46.6439 0C48.374 0 50.1041 0 51.765 0C52.0418 0.0692042 52.3878 0.138408 52.6646 0.138408C54.9484 0.484429 57.3013 0.622837 59.585 1.10727C87.3359 6.92041 104.429 35.0865 96.8861 62.4221C90.5193 85.2595 69.1352 100.208 45.2598 98.3391C33.4951 97.3702 23.3221 92.7336 14.9484 84.4983C1.17673 70.9343 -3.39074 51.1419 2.97604 32.872C8.9276 15.6401 24.5677 2.90657 42.6992 0.484429C44.0141 0.346021 45.329 0.138408 46.6439 0ZM20.8999 23.3218C21.1767 23.737 21.3151 24.0138 21.5228 24.2907C23.3221 26.9896 25.1214 29.6886 26.9899 32.3183C27.2667 32.7336 27.2667 33.0104 26.9899 33.4948C23.5989 39.1696 20.2771 44.7751 16.8861 50.4498C15.9172 52.1107 15.3636 53.91 15.3636 55.917C15.2944 62.5606 19.3774 68.5121 25.8134 70.9343C32.3186 73.4256 38.893 75.917 45.4674 78.3391C48.0971 79.308 50.7961 79.308 53.4259 78.3391C59.9311 75.917 66.5055 73.4256 72.9414 70.9343C77.2321 69.2734 80.4155 66.3668 82.2148 62.0761C83.9449 57.7855 84.0141 53.6332 81.3843 49.5502C79.4466 46.5744 77.7165 43.4602 75.9172 40.346C74.3947 37.8547 72.9414 35.2941 71.4189 32.8028C73.5643 29.6194 75.7096 26.5052 77.8549 23.2526C58.8238 23.3218 39.9311 23.3218 20.8999 23.3218Z" fill="#162C53"/>
<path d="M50.3113 55.0863C50.3113 56.332 50.3113 57.5777 50.3113 58.7542C50.3113 58.9618 50.7266 59.2386 51.0034 59.377C52.2491 60.069 53.0103 61.1071 53.0103 62.5604C53.0103 64.0137 52.3183 65.0517 51.0726 65.6746C49.7577 66.2974 48.512 66.2282 47.3356 65.3286C45.1902 63.7369 45.5363 60.5535 47.9584 59.377C48.4428 59.1002 48.6504 58.8234 48.5812 58.3389C48.512 57.3009 48.5812 56.1936 48.5812 55.0863C47.6816 56.1244 46.9203 57.2317 46.0207 58.1313C39.3771 64.6365 27.7508 61.7992 25.0518 52.941C23.1833 46.7818 26.9895 40.069 33.4947 38.2697C34.602 37.9929 35.7785 37.7853 36.9549 37.7853C45.3286 37.7161 53.7023 37.7161 62.1453 37.7853C68.4428 37.7853 73.6331 42.422 74.3944 48.5812C75.0172 53.7023 71.7646 58.8234 66.5743 60.8303C60.5536 63.114 53.9792 60.8303 50.7958 55.294C50.7266 55.2248 50.6574 55.0863 50.5882 55.0171C50.4498 55.0863 50.3805 55.0863 50.3113 55.0863ZM61.6608 52.3874C63.0449 52.4566 64.2906 51.3493 64.3598 50.0344C64.429 48.6504 63.2525 47.4739 61.7992 47.4047C60.4152 47.3355 59.1695 48.5119 59.1003 49.8268C59.0311 51.1417 60.2075 52.3182 61.6608 52.3874ZM39.6539 49.896C39.6539 48.5812 38.4774 47.4047 37.0933 47.3355C35.6401 47.3355 34.4636 48.4427 34.4636 49.8268C34.4636 51.2109 35.6401 52.3182 37.0933 52.3182C38.4774 52.3874 39.6539 51.2801 39.6539 49.896Z" fill="#162C53"/>
<path d="M66.5049 25.2598C69.1346 25.2598 71.5568 25.2598 74.1173 25.2598C72.7333 27.2667 71.4184 29.2044 70.0343 31.2805C68.8578 29.2044 67.6814 27.3359 66.5049 25.2598Z" fill="#162C53"/>
<path d="M28.7891 31.2807C28.4431 30.7962 28.1663 30.381 27.8894 30.035C26.8514 28.5125 25.8133 26.99 24.7061 25.3291C27.2666 25.3291 29.6888 25.3291 32.3185 25.3291C31.142 27.2668 29.9656 29.2045 28.7891 31.2807Z" fill="#162C53"/>
<path d="M20.8997 23.3223C39.9309 23.3223 58.8236 23.3223 77.8548 23.3223C75.6402 26.5749 73.5641 29.689 71.4188 32.8724C72.9413 35.3638 74.3945 37.9243 75.917 40.4157C77.7163 43.4607 79.5157 46.5749 81.3842 49.6198C84.0139 53.7029 83.9447 57.8551 82.2146 62.1458C80.4845 66.4365 77.3011 69.343 72.9413 71.0039C66.4361 73.4953 59.9309 75.9174 53.4257 78.4088C50.7959 79.3776 48.097 79.4468 45.4672 78.4088C38.8928 75.9174 32.3876 73.4953 25.8132 71.0039C19.3772 68.5126 15.2942 62.561 15.4326 55.8482C15.4326 53.9105 15.9862 52.1112 16.9551 50.3811C20.3461 44.7064 23.6679 39.1008 27.0589 33.4261C27.3357 33.0108 27.3357 32.6648 27.0589 32.2496C25.1904 29.6198 23.3911 26.9209 21.5918 24.2219C21.3842 23.9451 21.1766 23.6683 20.8997 23.3223ZM50.3115 55.087C50.3807 55.087 50.4499 55.087 50.5191 55.087C50.5883 55.1562 50.6575 55.2946 50.7267 55.3638C53.9793 60.9001 60.5537 63.1839 66.5053 60.9001C71.6264 58.9624 74.9482 53.7721 74.3253 48.651C73.5641 42.4918 68.3046 37.9243 62.0762 37.8551C53.7025 37.8551 45.3288 37.8551 36.8859 37.8551C35.7094 37.8551 34.533 38.0628 33.4257 38.3396C26.9205 40.1389 23.1143 46.8517 24.9828 53.0108C27.6817 61.7998 39.308 64.7063 45.9516 58.2012C46.8513 57.3015 47.6125 56.1942 48.5122 55.1562C48.5122 56.2634 48.5122 57.3015 48.5122 58.4088C48.5122 58.9624 48.3738 59.2392 47.8894 59.4468C45.4672 60.6233 45.1904 63.8759 47.2665 65.3984C48.443 66.298 49.7579 66.3672 51.0035 65.7444C52.2492 65.1216 52.9413 64.0143 52.9413 62.6302C52.9413 61.1769 52.2492 60.1389 50.9343 59.4468C50.6575 59.3084 50.3115 59.0316 50.2423 58.824C50.2423 57.5783 50.3115 56.3326 50.3115 55.087ZM66.5053 25.26C67.7509 27.3361 68.8582 29.2046 70.1039 31.2807C71.488 29.2738 72.8028 27.3361 74.1869 25.26C71.488 25.26 69.0658 25.26 66.5053 25.26ZM28.789 31.2807C30.0347 29.2738 31.142 27.3361 32.3184 25.3292C29.6887 25.3292 27.2665 25.3292 24.706 25.3292C25.8132 26.9209 26.8513 28.5126 27.8894 30.0351C28.1662 30.3811 28.443 30.7271 28.789 31.2807Z" fill="white"/>
<path d="M61.6611 52.3879C60.2771 52.3187 59.1006 51.1423 59.1006 49.8274C59.1698 48.5125 60.4155 47.336 61.7995 47.4053C63.2528 47.4745 64.4293 48.6509 64.3601 50.035C64.2909 51.3499 63.0452 52.3879 61.6611 52.3879Z" fill="white"/>
<path d="M39.654 49.8966C39.654 51.2115 38.4776 52.3879 37.0243 52.3879C35.6402 52.3879 34.4637 51.2807 34.3945 49.8966C34.3945 48.5125 35.6402 47.336 37.0243 47.4052C38.5468 47.4052 39.654 48.5817 39.654 49.8966Z" fill="white"/>
</svg>
