<svg width="100" height="100" viewBox="0 0 100 100" fill="none" xmlns="http://www.w3.org/2000/svg">
<path d="M65.9683 13.3C69.133 12.5149 72.3506 13.5398 75.5483 13.3594C76.2455 13.7091 76.3884 14.613 75.8804 15.1826C73.9033 16.7023 72.2692 18.6289 70.2942 20.1464C70.0435 20.6918 69.751 21.2504 69.7554 21.8662C69.8588 24.4746 69.784 27.0895 69.8082 29.7C69.7664 31.0372 69.9512 32.4029 69.5839 33.7115C69.4211 34.5912 68.8625 35.3126 68.3127 35.9878C67.2966 37.2391 66.2102 38.4663 64.8972 39.4164C64.42 39.7749 63.8196 39.7573 63.4039 39.3219C63.6304 37.9297 64.4002 36.6497 64.3694 35.2114C64.2176 31.9829 64.4376 28.7433 64.2484 25.517C64.2968 24.4768 64.6597 23.4189 65.3855 22.658C66.7732 21.2768 68.1675 19.9023 69.5311 18.4969C69.4849 18.3628 69.3969 18.0967 69.3508 17.9625C67.3098 17.78 65.2161 17.5842 63.217 18.1692C62.4252 18.4441 61.7545 19.0072 60.9407 19.2139C60.1754 19.4426 59.7113 18.2836 60.2546 17.8064C61.3498 16.7045 62.467 15.6137 63.7074 14.6724C64.3892 14.1094 65.0754 13.4936 65.9683 13.3Z" fill="#B09503"/>
<path d="M44.4768 13.6982C44.9475 13.2694 45.847 13.0055 46.2692 13.6257C46.4694 14.2151 46.1813 14.8089 45.8844 15.3059C45.3587 16.19 44.9981 17.2237 45.1036 18.2639C45.1476 19.9574 47.1995 21.101 48.7082 20.5424C50.3753 19.5791 51.7015 18.1342 52.9506 16.6915C53.4455 16.1021 54.2966 15.7194 55.0465 16.0361C56.6696 16.6695 57.9914 17.9319 58.9173 19.3856C60.3358 21.6948 61.2793 24.3383 61.3826 27.0632C61.4376 28.7743 61.0484 30.5315 60.0763 31.9588C58.9898 33.4103 57.4635 34.4528 56.3001 35.8317C55.9812 36.1638 56.1396 36.6037 56.2561 36.9842C57.1007 37.3844 57.943 37.8067 58.8513 38.0464C58.7589 38.1806 58.6731 38.3169 58.5896 38.4555C58.7831 38.4093 58.9569 38.3213 59.113 38.196C62.247 39.4935 65.4425 40.8109 68.1014 42.9662C70.1182 44.5035 71.5543 46.9293 71.5367 49.5068C71.4201 52.3659 70.5866 55.2139 69.0273 57.6222C67.2327 60.5846 64.499 62.8498 61.596 64.6752C56.0362 68.0247 49.7111 69.8853 43.3508 70.9849C40.1904 71.5414 36.9883 71.7701 33.7884 71.9768C34.5207 73.8858 36.1548 75.3043 38.0462 76.0103C40.428 76.9494 43.0209 77.1495 45.5567 77.2353C47.2325 77.42 48.9062 77.1737 50.5842 77.1825C52.6515 77.1407 54.7123 76.9692 56.7752 76.8724C63.0453 76.3116 69.2824 74.8381 74.994 72.1572C78.2885 70.5341 81.5962 68.4756 83.5777 65.2866C84.9369 63.1357 85.1568 60.3053 84.1187 57.9784C83.272 56.2388 81.6754 55.0226 80.0193 54.1055C77.8618 53.0015 75.6647 51.9744 73.5314 50.822L73.6216 50.5779C73.6942 50.3909 73.7668 50.204 73.8393 50.0171C73.4369 49.8279 73.1004 49.5376 72.8497 49.1725C72.9904 48.9922 73.1334 48.8119 73.2785 48.6337C73.2257 48.2532 73.2081 47.8662 73.2697 47.4857C73.2873 47.4351 73.3203 47.3295 73.3379 47.279C74.4397 46.452 75.2491 45.315 76.2541 44.3825C77.2218 43.5072 78.0839 42.5197 78.8581 41.4729C79.4717 40.5184 79.2693 39.3198 79.0054 38.2861C78.4534 36.155 77.0173 34.4352 75.7527 32.6934C75.3304 32.2073 74.8444 31.5476 74.134 31.5959C73.3489 31.8577 72.4714 32.126 71.6841 31.7257C71.6159 31.4948 71.5477 31.266 71.4795 31.0351C71.5499 30.8152 71.6225 30.5953 71.695 30.3753C72.7617 29.6188 73.6436 28.6423 74.6487 27.8132C75.6054 26.9269 76.617 26.1044 77.5429 25.1873C78.1609 24.5737 79.2716 24.6264 79.8676 25.2532C81.5126 26.7795 83.1423 28.407 84.2023 30.4105C85.1194 32.1963 85.5373 34.3692 84.8049 36.2936C84.2023 38.0002 82.8498 39.2648 81.7919 40.6877C81.1431 41.5235 80.7055 42.5021 80.0303 43.3181C79.6916 43.7447 79.3485 44.3253 79.6234 44.8708C79.9731 45.7879 80.943 46.2057 81.6138 46.8523C84.5608 49.4233 87.2417 52.6408 88.0533 56.5621C88.7768 59.85 87.8355 63.2919 86.0915 66.1026C83.4194 70.1954 80.3096 74.1299 76.219 76.89C72.3174 79.5555 67.8969 81.3105 63.5951 83.2129C58.2641 85.5793 52.4844 86.9627 46.6497 87.143C43.7709 87.198 40.8722 86.9077 38.0835 86.1687C35.3718 85.377 32.581 84.1146 30.9227 81.724C29.7043 80.0526 29.359 77.8555 29.7791 75.8519C30.0034 74.5764 30.6016 73.4151 31.0525 72.2121C27.8063 71.8822 24.5228 71.7371 21.3427 70.9542C18.8003 70.3691 16.3283 69.3773 14.1862 67.873C12.8865 66.9251 11.5625 65.8298 10.9885 64.275C10.2693 62.4166 10.5486 60.3756 11.0017 58.4887C11.3052 57.3912 11.5427 56.2344 12.2861 55.3349C11.6571 54.8621 10.8367 55.038 10.1066 54.9698C8.5165 54.8247 6.88464 54.7565 5.37814 54.1781C4.47643 53.8482 3.6561 53.3358 2.87536 52.7881C2.00005 52.1921 1.04777 51.6357 0.431969 50.7494C-0.186027 49.5772 -0.135444 48.0839 0.54853 46.9491C1.16653 46.0364 2.08582 45.403 2.87536 44.6552C4.21472 43.3511 5.63985 42.1415 7.0012 40.8615C8.06565 39.9598 8.96735 38.8447 10.2143 38.185C11.734 37.3756 13.4495 36.9072 15.1759 36.9226C17.4587 36.9292 19.7416 36.9072 22.0266 36.9402C23.4298 36.9974 24.0236 35.1346 25.4597 35.3083C25.6796 35.6338 25.8798 35.9747 26.0557 36.3266C25.926 36.5795 25.849 36.8698 25.64 37.0743C24.4656 38.2443 23.278 39.399 22.1344 40.5998C20.9094 41.8863 19.1742 42.7199 17.384 42.7199C13.9399 42.7265 10.498 42.7155 7.05398 42.7199C5.93235 43.3401 5.09223 44.6728 5.4749 45.9704C5.7982 47.4329 7.39487 48.2334 8.80021 48.1675C21.9277 48.1697 35.0551 48.1697 48.1826 48.1675C49.4978 48.0861 50.8261 48.4094 52.1237 48.0553C52.999 47.9453 53.6236 46.9535 54.5605 47.2944C54.6441 47.5935 54.7364 47.8904 54.8332 48.1873C54.5099 48.8097 53.9381 49.2297 53.4521 49.7136C52.1809 50.9408 50.8547 52.1086 49.6121 53.3644C48.5169 54.5322 46.9092 55.1348 45.3324 55.2161C35.1585 55.2601 24.9803 55.1722 14.8064 55.2601C14.5601 55.8363 14.1554 56.4741 14.4084 57.1163C14.8284 57.8905 15.4112 58.5788 16.1018 59.1287C18.2571 60.8243 20.949 61.6182 23.5859 62.1988C29.0665 63.3227 34.6901 63.3886 40.2652 63.3469C45.0442 63.3821 49.8365 63.2787 54.5759 62.5991C57.5537 62.1593 60.5469 61.5127 63.2652 60.1733C64.7036 59.3992 66.1617 58.4667 67.0062 57.0218C68.2004 55.1348 68.3126 52.5132 67.1052 50.6087C65.7922 48.8317 63.7227 47.8948 61.8511 46.8369C57.9144 44.6156 53.4961 43.5336 49.2449 42.0975C48.6401 41.7522 48.2794 41.1738 48.1144 40.5096C48.33 39.896 48.5411 39.212 49.1041 38.825C49.8804 38.2861 50.681 37.7759 51.376 37.1315C53.0584 35.8185 54.809 34.4968 56.0098 32.7022C56.828 31.5498 56.5179 30.0037 55.979 28.8007C54.9432 26.7267 54.0987 24.4747 52.4184 22.8142C51.7696 22.2402 51.0856 21.576 50.1642 21.5365C48.6972 22.933 47.1797 24.2878 45.792 25.7745C45.2972 26.1373 44.9189 26.8477 44.2437 26.8279C43.4762 26.5992 43.4454 25.6799 43.4388 25.0157C42.2116 24.3691 40.7996 23.4894 40.6039 21.9851C40.2278 20.2543 40.6391 18.4223 41.5804 16.94C42.3281 15.6864 43.375 14.6439 44.4768 13.6982Z" fill="#B09503"/>
<path d="M45.8182 26.6878C46.2295 26.3161 46.7573 26.5316 47.1708 26.7691C47.2192 27.9084 46.1503 28.7595 46.2295 29.9185C46.2581 33.3735 46.2075 36.8308 46.2559 40.2859C46.4318 41.126 46.4032 42.0541 45.8754 42.771C44.6878 44.0554 43.3418 45.2012 42.24 46.5582C42.163 46.5582 42.0091 46.556 41.9343 46.556C41.4879 46.5208 41.0568 46.6484 40.6367 46.7803C40.4476 46.6704 40.2607 46.5604 40.0737 46.4526C40.386 45.4344 40.8171 44.4183 40.7907 43.3319C40.5884 40.8489 40.7269 38.3527 40.6873 35.8631C40.7357 34.6205 40.496 33.3252 40.9798 32.1398C41.3471 30.9587 42.405 30.2286 43.2121 29.3621C44.0522 28.4406 45.0353 27.6598 45.8182 26.6878Z" fill="#B09503"/>
<path d="M96.2783 39.3312C96.5357 39.1905 96.8414 39.2982 97.1207 39.2828C97.9806 40.1845 98.8185 41.1038 99.663 42.0187C100.061 42.4058 100.085 43.048 99.8456 43.5252C99.3507 44.1564 98.7393 44.6843 98.2335 45.3045C97.7057 45.8807 97.1932 46.6878 96.2915 46.5536C95.2799 45.6937 94.5365 44.5721 93.5402 43.7034C92.964 43.4989 92.1415 43.4439 91.7149 43.9673C91.0155 44.6843 90.3535 45.4386 89.6629 46.1644C89.2935 46.591 88.5809 46.6592 88.1894 46.2282C87.4241 45.4452 86.7049 44.6205 85.9725 43.809C85.8318 43.6396 85.6888 43.4725 85.5437 43.3053C85.5151 42.8831 85.5085 42.4212 85.8384 42.1045C86.6213 41.1962 87.4329 40.2989 88.2972 39.4698C89.0691 38.876 89.8587 39.7161 90.3117 40.2989C91.1276 41.0841 91.7632 42.1595 92.8123 42.6389C94.2264 41.8692 94.9456 40.2329 96.2783 39.3312Z" fill="#B09503"/>
<path d="M91.7614 46.4483C92.1682 46.0481 92.927 45.8699 93.347 46.3472C94.1388 47.1609 94.8909 48.0142 95.6651 48.8455C96.1335 49.3052 96.0785 50.1255 95.6299 50.5808C94.8557 51.4187 94.064 52.239 93.2833 53.0703C93.0303 53.365 92.6081 53.3035 92.2672 53.2837C91.6382 52.8438 91.2115 52.1774 90.6309 51.6826C90.0877 50.8645 88.8517 50.1629 89.4235 49.0215C90.2021 48.1638 91.0268 47.3456 91.7614 46.4483Z" fill="#B09503"/>
</svg>
