<svg width="100" height="100" viewBox="0 0 100 100" fill="none" xmlns="http://www.w3.org/2000/svg">
<path d="M88.8002 51.4802H14.2402C14.2002 50.9202 14.2002 50.3602 14.2002 49.8002C14.2002 29.0802 30.8802 12.2802 51.4402 12.2402H51.5602C72.1202 12.2802 88.8002 29.0802 88.8002 49.8002C88.8402 50.3602 88.8002 50.9202 88.8002 51.4802Z" fill="#FCCD30"/>
<path d="M81.7603 71.8005H21.2403C20.7203 71.0805 20.2403 70.3205 19.7603 69.5605H83.2402C82.8002 70.3205 82.2803 71.0805 81.7603 71.8005Z" fill="#FDE294"/>
<path d="M77.4 76.8802H25.64C25.08 76.3602 24.56 75.8002 24.04 75.2402H78.96C78.48 75.8002 77.92 76.3202 77.4 76.8802Z" fill="#FFECBC"/>
<path d="M84.8404 66.7199H18.2004C17.7204 65.7999 17.3204 64.8399 16.9204 63.8799H86.1204C85.7204 64.8399 85.3204 65.7999 84.8404 66.7199Z" fill="#FDDA71"/>
<path d="M88.2403 56.5605H14.8003C14.5603 55.2405 14.4003 53.8805 14.2803 52.5205H88.7203C88.6403 53.8805 88.4803 55.2405 88.2403 56.5605Z" fill="#FCCD30"/>
<path d="M78.9602 75.2399H24.0402C23.0402 74.1599 22.1202 72.9999 21.2402 71.7999H81.7602C80.9202 72.9999 79.9602 74.1599 78.9602 75.2399ZM51.6402 87.3599H51.4002C41.4002 87.3199 32.3202 83.3199 25.6402 76.8399H77.4002C70.7202 83.3599 61.6402 87.3199 51.6402 87.3599Z" fill="white"/>
<path fill-rule="evenodd" clip-rule="evenodd" d="M14.2802 52.5199C14.2402 52.1599 14.2402 51.8399 14.2402 51.4799H19.9908C19.9669 49.2284 22.5202 46.9545 24.7767 47.2059C26.1994 47.351 27.0796 48.8036 26.8708 50.1613C26.7481 50.7117 26.244 51.0276 25.9511 51.4799H28.0492C28.4156 50.9806 28.7148 50.4357 29.0712 49.9293C29.6183 49.1521 30.3567 48.3108 31.556 47.5723C33.5236 46.4011 36.0001 46.3647 38.2228 46.4C40.7855 46.4407 43.6281 46.7447 46.0509 47.0449C52.2293 47.7539 58.6431 46.1856 64.4259 44.1004C70.5529 41.8506 77.0624 36.6133 78.0079 35.8254C79.4016 34.654 81.0002 32.7999 78.0779 32.5801C75.9565 32.2375 73.5451 31.8834 71.4002 31.7999C68.3354 31.6789 64.2032 30.9522 61.5829 29.2556C60.4392 28.5151 58.5201 27.2725 58.4478 25.9727C58.3458 24.1377 60.7344 25.6415 61.3587 26.0508C62.6137 26.8735 63.9532 27.4646 65.3892 27.8844C68.2374 28.6751 70.9789 28.903 73.0472 29.075C73.6141 29.1221 74.1895 29.1889 74.7687 29.2562C76.1518 29.4168 77.5564 29.58 78.9177 29.4832C79.3052 29.4309 79.5733 28.9654 79.322 28.6258C78.9285 28.0942 78.4988 27.973 77.8708 27.8809C75.7961 27.5765 73.6791 27.509 71.5787 27.442C71.1518 27.4284 70.7256 27.4148 70.3005 27.3992C66.9917 27.3175 63.7026 26.6266 62.4048 26.1508C61.3265 25.7554 60.424 24.7493 59.6721 23.9111L59.6672 23.9057C59.2035 23.3889 58.623 22.7418 58.5404 22.0375C58.4838 21.5552 58.7754 21.0946 59.2571 20.9813C59.9968 20.8038 60.7632 21.5025 61.3642 22.0504C62.292 22.8963 63.3648 23.7052 64.5962 24.0242C65.7115 24.3027 67.7171 24.4906 69.9169 24.6059C71.5769 24.6928 73.2405 24.6903 74.9036 24.6878C76.7217 24.6851 78.5392 24.6824 80.3505 24.7965C81.5914 24.8747 82.709 25.0767 83.731 25.611C84.9599 26.2534 85.8079 27.4071 86.6371 28.5352C86.9525 28.9642 87.2652 29.3896 87.595 29.7817C88.8445 31.2669 90.712 31.6367 92.5354 31.9978C92.9937 32.0885 93.4493 32.1787 93.8915 32.286C96.0697 32.8141 98.0002 33.3999 99.3396 34.091C100.572 34.7271 97.7491 36.4654 96.8997 36.6723C95.6955 36.9656 94.4797 37.0313 93.2642 37.0969C92.108 37.1593 90.952 37.2218 89.8064 37.4801C88.6266 37.7466 87.4483 37.9788 86.2341 37.9988C84.7969 38.0604 83.3728 38.4744 82.5224 39.7C81.8287 40.9896 81.2326 42.3562 80.7197 43.7285C81.4679 43.4157 82.2037 43.0742 82.9395 42.7327C83.4064 42.516 83.8734 42.2992 84.3435 42.0899C85.8654 41.412 87.3617 41.0366 89.0521 41.1465C90.8069 41.2606 92.5583 42.5888 91.2318 44.3071C90.8837 44.7579 90.4817 45.1471 90.0822 45.534C89.4011 46.1934 88.7272 46.8459 88.3396 47.7852L88.3384 47.7879L88.3372 47.791C87.7652 49.1468 86.965 50.3754 86.2607 51.4567L88.8002 51.4799C88.7808 51.6549 88.7708 51.8299 88.7611 52.0003C88.7508 52.1804 88.7408 52.3554 88.7202 52.5199H85.5786C85.1658 53.1843 84.8347 53.7815 84.6345 54.3469C84.4584 54.909 84.2114 55.3615 83.8064 55.7055C83.3109 56.1263 82.6689 56.3023 82.0475 56.4727C81.9424 56.5015 81.8379 56.5302 81.7348 56.5599H88.2402L88.2394 56.5634C88.1197 57.1222 88 57.681 87.8802 58.1999H77.7549C76.1531 58.9611 74.4828 59.5326 72.813 60.1039C71.4229 60.5795 70.0331 61.055 68.6833 61.6399H86.9202C86.6802 62.3999 86.4002 63.1599 86.1202 63.8799H64.8288C63.5265 64.5519 62.1458 65.1036 60.8943 65.8686C60.0978 66.3555 59.2269 66.8879 58.3626 66.425C57.2723 65.8409 57.5847 64.79 57.9876 63.8799H23.7812C21.6537 64.5441 19.8509 65.742 18.5489 66.7199H84.8002C84.3602 67.6799 83.8402 68.6399 83.2402 69.5599H19.7602C19.2409 68.7067 18.7559 67.8191 18.2735 66.929C16.8899 67.99 15.3536 68.9125 13.8133 69.8374C11.4614 71.2496 9.10022 72.6674 7.25871 74.5926C5.96402 75.948 4.84931 76.9734 3.92902 77.661C2.89443 78.4339 0.433607 79.6824 0.371209 77.3949C0.345012 76.4327 0.647924 75.3961 1.03644 74.5238C1.37546 73.7628 2.19886 71.9673 3.00168 71.7164C5.14481 71.1829 7.09572 70.2578 8.92551 69.0344C11.6562 67.1511 14.0453 64.7274 16.4799 62.4842C16.3318 62.24 16.1982 61.9601 16.0802 61.6399H17.403C19.3765 59.8515 21.8489 59.0903 24.3265 58.3275C24.4645 58.285 24.6025 58.2425 24.7404 58.1999H15.1202C15.0002 57.6399 14.8802 57.1199 14.8002 56.5599H27.9632C28.2053 56.2666 28.3603 55.9135 28.3603 55.4797C28.3602 54.7275 27.5384 55.2092 27.1716 55.336C24.6275 56.2148 20.8678 55.4727 20.1238 52.5199H14.2802ZM65.8815 58.1999C65.1002 58.4343 64.5792 59.0586 64.115 59.6922C63.6961 60.2639 63.4401 60.5426 62.7117 60.4356C61.854 60.3095 61.0267 60.1879 60.1993 60.5707C59.6952 60.804 59.341 61.1909 59.0593 61.6399H43.3679C45.4759 60.8148 47.0939 59.4029 48.9668 58.1999H65.8815ZM75.7361 54.8321C74.3823 55.2269 72.4183 55.912 70.5956 56.5599H68.6194C70.4987 56.2915 72.3804 55.5895 74.0947 54.8434C75.845 54.0815 77.3778 53.2048 78.1607 52.5199H79.832C78.9156 53.38 77.7211 54.2531 75.7361 54.8321ZM25.5633 52.5199C25.5475 52.6254 25.5434 52.7051 25.5446 52.7617C26.013 52.7814 26.5128 52.7416 26.9341 52.5199H25.5633ZM80.6572 48.6731C81.5828 47.8357 82.9522 47.0371 84.2005 46.8016C84.3591 46.7717 84.3418 46.8091 84.2895 46.9219C84.0868 47.5426 83.7001 47.9952 83.3203 48.518L83.2681 48.5899C82.5309 49.605 81.7153 50.5635 80.8585 51.4799H79.0632C79.6394 50.6293 79.8946 49.363 80.6572 48.6731Z" fill="white"/>
<path d="M90.9201 42.9202C91.0401 44.2003 88.6401 44.9603 87.6001 47.4803C86.5201 50.0403 84.5601 52.1603 83.8801 54.0803C83.2801 56.0403 82.1201 55.0803 78.0401 57.1603C74.0001 59.2403 68.1201 60.5603 66.7201 61.8003C65.3601 62.9603 60.9201 64.7603 59.9201 65.4803C58.9601 66.2403 58.2401 65.5203 58.4001 65.0003C58.5601 64.4803 59.3601 62.8403 59.6401 62.2403C60.5601 60.2803 62.8001 61.5203 63.6401 61.2803C64.4801 61.0403 64.9601 59.3203 66.1201 58.9603C67.3201 58.6403 73.0801 56.4403 75.9601 55.6003C78.8401 54.7603 80.2001 53.3203 81.2801 52.2003C82.4001 51.0403 85.9201 47.0003 85.0801 46.1603C84.2001 45.3603 80.9601 47.3203 80.1201 48.0803C79.2801 48.8403 79.0001 50.6403 77.7201 51.8403C76.4401 53.0403 71.7601 55.3603 67.8801 55.8403C63.9601 56.2803 52.1201 56.0003 49.9201 56.7603C47.7601 57.5203 45.4401 60.8803 40.1201 61.6803C34.8001 62.5203 30.4401 62.7203 27.6801 62.6003C22.4801 62.2403 18.2801 65.9203 16.6801 67.1603C15.0801 68.4403 7.72012 72.6403 6.68012 74.0403C4.12012 76.7203 2.36012 78.0003 1.48012 77.9603C0.640123 77.9203 1.72012 74.3203 2.20012 74.2403C2.64012 74.2003 2.60012 72.6803 3.24012 72.4803C3.88012 72.3603 6.60012 71.5203 9.16012 69.8403C11.3201 68.4403 16.7201 63.3603 18.6001 61.6403C20.4801 59.9603 25.1201 59.0803 26.9201 58.2403C28.7201 57.4003 29.2001 56.4403 29.1601 55.4803C29.1601 54.4803 28.5201 54.2803 28.0001 54.2003C27.5201 54.1603 26.8001 55.0403 24.3201 54.8403C21.8001 54.5603 20.6801 53.0803 20.8001 51.1603C20.9601 49.3603 23.3601 47.8403 24.6801 48.0003C25.9601 48.1203 26.1601 49.5203 26.0801 50.0403C25.9601 50.4403 25.1201 50.6403 24.8001 52.2403C24.4801 53.8403 25.6001 53.5602 26.2001 53.5202C26.8001 53.4802 27.4401 53.3603 28.3601 52.3603C29.3201 51.3603 29.7601 49.5202 32.2001 48.1202C34.7201 46.6402 41.1201 47.2403 45.9601 47.8403C50.8401 48.4003 58.0001 47.2803 64.4001 44.9603C70.7601 42.7203 77.5601 37.2403 78.5201 36.4403C79.5201 35.6003 80.2401 34.6803 80.4001 33.8403C80.5601 33.0403 80.2801 32.3203 79.3601 32.0403C78.4401 31.7203 74.7601 31.3203 71.6801 31.2003C68.6401 31.0803 65.2401 29.9203 63.6801 29.4803C62.1201 29.0003 58.8801 26.1603 59.2801 25.8403C59.7201 25.5603 61.3601 27.5603 64.8401 28.5603C68.4001 29.6003 71.8401 29.7603 74.0001 29.9603C76.0801 30.1203 77.9601 30.3603 79.0001 30.2803C79.9601 30.1603 80.1601 29.5603 80.2001 28.9603C80.2801 28.3603 79.8401 27.9203 79.1601 27.4003C78.5601 26.9203 73.6001 26.7203 70.3201 26.6003C67.0801 26.5203 63.8801 25.8403 62.6801 25.4003C61.4801 24.9603 58.7601 21.9203 59.4401 21.7603C60.1601 21.7203 61.9201 24.1603 64.4001 24.8003C66.8001 25.4003 72.7201 25.5603 76.0401 25.5603C79.4001 25.5603 81.6001 25.4002 83.3601 26.3202C85.1201 27.2402 86.5601 30.3203 88.1601 31.4403C89.7201 32.5603 93.7601 32.8402 95.2001 33.5202C96.6401 34.2402 98.8801 34.1203 98.8001 34.8403C98.7201 35.6003 95.2801 36.4003 92.8801 36.3203C90.4001 36.2003 88.9201 37.1603 86.2001 37.2003C83.4001 37.3203 82.3601 38.5203 81.8401 39.2803C81.4001 40.0803 79.3601 44.4403 79.6401 44.8403C79.8801 45.2403 84.8801 42.5603 86.2401 42.2003C87.4801 41.8403 90.8001 41.6402 90.9201 42.9202Z" fill="#445A00"/>
<path d="M86.9201 61.6402H16.0801C15.7201 60.5202 15.4001 59.3602 15.1201 58.2002H87.8801C87.6401 59.3602 87.3201 60.5202 86.9201 61.6402Z" fill="#FCD34F"/>
</svg>
