<svg width="100" height="100" viewBox="0 0 100 100" fill="none" xmlns="http://www.w3.org/2000/svg">
<path d="M54.9595 2.86183C57.6347 1.48094 60.5257 0.533621 63.4861 0C63.7905 1.61293 63.9388 3.25424 64.0715 4.88987C64.2149 6.92289 64.2653 8.96441 64.1531 11.0003C64.0268 13.1887 63.7366 15.3856 63.0582 17.4761C63.0227 17.5137 62.988 17.5499 62.9546 17.5868C58.8084 17.7195 54.6679 18.4369 50.753 19.8228C46.3967 21.3697 42.2903 23.8228 39.195 27.292C39.19 27.187 39.1857 27.082 39.195 26.977C39.4455 24.7098 39.8961 22.4618 40.578 20.284C41.4033 17.6414 42.5649 15.1003 44.0636 12.7714C46.7402 8.58619 50.5351 5.12475 54.9595 2.86183ZM33.274 30.393C39.4164 30.6123 45.5892 31.7214 51.2391 34.2029C54.086 35.4539 56.7839 37.054 59.21 39.0026C61.3603 40.7253 63.2864 42.7104 64.9436 44.9115C68.0375 49.0108 70.1372 53.8198 71.2435 58.8254C72.5776 64.8676 72.5321 71.1952 71.2336 77.2396C71.0583 77.2601 70.8823 77.275 70.7085 77.2914C68.3753 82.3437 65.2275 87.0661 61.1728 90.9023C59 92.9537 56.5717 94.7412 53.9391 96.1583C51.5045 97.4725 48.8995 98.4723 46.208 99.1131C39.6179 100.705 32.5765 100.105 26.2575 97.7024C21.3555 95.851 16.8559 92.9466 13.1426 89.251C9.13191 85.2751 6.04939 80.3604 4.26544 75.0001C2.59788 70.0449 2.05006 64.7364 2.52833 59.5371C3.06409 53.5395 4.91402 47.7109 7.56368 42.3221C7.70206 42.0404 7.84752 41.7623 7.9788 41.477C8.31728 41.6629 8.64441 41.8694 8.99282 42.0383C6.30981 47.5618 4.44639 53.5331 3.94187 59.6705C3.51327 64.7747 4.06392 69.9782 5.71942 74.8333C7.54097 80.2405 10.725 85.1765 14.8832 89.0807C19.06 93.0197 24.206 95.9305 29.748 97.4384C32.9952 98.3254 36.3778 98.7278 39.7421 98.5929C43.332 98.4517 46.8991 97.6932 50.2286 96.3399C55.2753 94.3076 59.7181 90.9157 63.2221 86.7738C65.6852 83.8892 67.7019 80.6442 69.3694 77.2431C68.2731 77.1331 67.186 76.9266 66.1287 76.6194C65.2431 78.8809 64.1092 81.0558 62.636 82.9923C61.1274 84.9927 59.2824 86.7447 57.1813 88.1128C55.1142 89.466 52.7981 90.4346 50.3883 90.976C47.1475 91.7048 43.7343 91.6459 40.5191 90.8107C37.8538 90.121 35.3234 88.8997 33.1413 87.218C31.241 85.7669 29.6104 83.9673 28.3345 81.9449C27.0686 79.9431 26.1532 77.7271 25.5805 75.4308C24.8957 72.6988 24.6907 69.8604 24.8432 67.0525C25.2364 66.983 25.6394 66.9822 26.0332 67.0532C25.8977 70.1428 26.1752 73.2722 27.0678 76.2412C27.7597 78.5523 28.8333 80.7578 30.2937 82.6815C31.7264 84.5783 33.5309 86.1912 35.5767 87.4011C38.149 88.9352 41.0868 89.8322 44.0685 90.0685C47.4143 90.3367 50.8254 89.7839 53.9072 88.4527C56.4823 87.3507 58.8176 85.6916 60.7023 83.6189C62.6268 81.51 64.0517 78.9696 64.9507 76.2653C63.1512 75.6366 61.4268 74.7964 59.8253 73.7625C60.5526 72.806 61.2516 71.8232 61.8342 70.7694C63.4925 67.8309 64.4973 64.5306 64.7897 61.1706C65.2708 55.8528 63.9062 50.4691 61.3353 45.8212C57.8554 46.1228 54.3131 45.8191 50.9609 44.8235C47.6272 43.8449 44.5056 42.1916 41.763 40.0663C38.3555 37.4174 35.4767 34.1007 33.274 30.393Z" fill="#752650"/>
<path d="M62.9539 17.5863C62.9872 17.5494 63.022 17.5132 63.0575 17.4756C63.0596 17.4983 63.0653 17.5437 63.0674 17.5664C66.448 17.4813 69.8413 17.7239 73.163 18.3711C76.3129 18.9785 79.4047 19.9287 82.3162 21.2826C84.8353 22.4605 87.2266 23.9465 89.2937 25.8148C90.7016 27.0836 91.9469 28.5369 92.9482 30.1484C90.9294 29.1131 88.9325 28.0331 86.9215 26.9821C84.8374 25.3529 82.6078 23.8996 80.2228 22.7472C77.1474 21.2443 73.8428 20.2118 70.4601 19.6888C63.0426 18.5407 55.3086 19.8137 48.5709 23.0885C45.56 24.5631 42.7244 26.4414 40.3317 28.7994C45.0363 29.5034 49.6651 30.8594 53.91 33.0244C58.7459 35.4704 63.0426 38.9893 66.3429 43.2924C69.4794 47.3598 71.7289 52.0843 73.0487 57.0416C74.673 63.1343 74.9334 69.5775 73.8697 75.7893C72.9565 81.0801 71.0689 86.2382 68.0836 90.7179C66.3011 93.3875 64.124 95.8079 61.5758 97.7671C61.3913 97.8913 61.16 97.8629 60.9507 97.8942C60.2049 97.9679 59.4498 98.0269 58.7069 97.8998C61.0635 96.2656 63.1015 94.1985 64.8074 91.9001C68.0091 87.5716 70.0953 82.4837 71.2328 77.239C72.5314 71.1946 72.5768 64.8671 71.2428 58.8248C70.1365 53.8193 68.0368 49.0103 64.9429 44.911C63.2857 42.7098 61.3595 40.7248 59.2093 39.0021C56.7831 37.0535 54.0852 35.4534 51.2383 34.2023C45.5884 31.7209 39.4156 30.6118 33.2732 30.3925C32.6019 29.9206 31.9399 29.4324 31.3374 28.8739C33.3144 28.2878 35.4105 28.3219 37.4421 28.5404C37.66 28.5596 37.8793 28.61 38.0999 28.583C38.4725 28.1608 38.8081 27.7045 39.1942 27.2915C42.2895 23.8223 46.3959 21.3692 50.7522 19.8222C54.6671 18.4364 58.8076 17.719 62.9539 17.5863V17.5863Z" fill="#EFCC78"/>
<path d="M17.5986 18.4974C18.6425 17.8119 19.924 17.6161 21.1509 17.6182C22.5417 17.6352 23.9389 17.8687 25.2389 18.3718C25.0601 19.7158 24.9409 21.0668 24.8479 22.4193C23.7764 22.386 22.7674 21.9567 21.8364 21.4564C20.4711 20.7128 19.2478 19.7463 18.0038 18.8217C17.8669 18.7159 17.7143 18.6279 17.5986 18.4974V18.4974ZM26.9604 18.6727C28.2697 18.2519 29.642 18.0439 31.0144 17.9858C34.3318 17.8509 37.6854 18.6478 40.577 20.2842C39.8951 22.4619 39.4445 24.7099 39.194 26.9771C39.1848 27.0821 39.189 27.1872 39.194 27.2922C38.808 27.7052 38.4723 28.1614 38.0998 28.5837C37.8791 28.6106 37.6598 28.5602 37.442 28.5411C37.8451 27.8783 38.1182 27.1048 38.0352 26.3193C37.9458 25.3195 37.3299 24.4382 36.55 23.8386C35.7439 23.212 34.7668 22.8309 33.767 22.6493C33.288 22.5584 32.7991 22.5478 32.3179 22.4775C32.2214 22.1043 31.9461 21.8063 31.6247 21.6076C30.9207 21.1704 30.0188 21.103 29.2418 21.3748C28.2441 20.7319 27.2932 19.8492 26.9604 18.6727V18.6727Z" fill="#DDA137"/>
<path d="M25.2391 18.3721C25.8217 18.4083 26.3958 18.5296 26.9606 18.6729C27.2934 19.8495 28.2443 20.7322 29.242 21.3751C29.6968 22.1542 30.1148 22.9923 30.2326 23.8977C30.8364 23.8076 31.4737 23.6884 31.964 23.301C32.2145 23.1086 32.3614 22.7943 32.3181 22.4778C32.7992 22.5481 33.2881 22.5587 33.7671 22.6495C34.7669 22.8312 35.744 23.2123 36.5501 23.8388C37.33 24.4384 37.9459 25.3198 38.0353 26.3196C38.1183 27.1051 37.8451 27.8786 37.4421 28.5413C35.4105 28.3228 33.3144 28.2887 31.3374 28.8749C30.3717 28.552 29.4563 28.0595 28.7084 27.362C27.7142 26.4601 27.0004 25.3105 26.273 24.1958C25.8593 23.5592 25.4222 22.9234 24.8481 22.4196C24.9411 21.0671 25.0603 19.7161 25.2391 18.3721V18.3721Z" fill="#3B6A54"/>
<path d="M48.5712 23.0892C55.3089 19.8144 63.0429 18.5414 70.4604 19.6895C73.8431 20.2125 77.1477 21.245 80.2232 22.7479C82.6081 23.9003 84.8377 25.3536 86.9218 26.9828L87.0126 27.0949C84.0323 26.0887 80.9455 25.3663 77.8119 25.0619C75.8428 24.8873 73.836 24.8838 71.8974 25.3096C71.6802 25.3649 71.456 25.3983 71.2509 25.4905C76.6766 27.3284 81.8198 30.1341 86.0653 34.005C90.0746 37.6325 93.2345 42.196 95.1845 47.2405C97.7064 53.7043 98.257 60.8819 96.9592 67.6842C95.8082 73.7655 93.1926 79.5786 89.3224 84.4159C85.8794 88.7395 81.4153 92.2506 76.3778 94.5313C72.0308 96.5175 67.2871 97.5805 62.5199 97.8061C62.1871 97.809 61.8529 97.8608 61.5222 97.8132L61.5762 97.7678C64.1244 95.8086 66.3014 93.3881 68.084 90.7186C71.0693 86.2389 72.9568 81.0808 73.8701 75.79C74.9338 69.5781 74.6733 63.1349 73.0491 57.0423C71.7292 52.085 69.4797 47.3605 66.3433 43.293C63.0429 38.99 58.7463 35.4711 53.9103 33.0251C49.6655 30.8601 45.0367 29.504 40.332 28.8001C42.7248 26.4421 45.5604 24.5638 48.5712 23.0892V23.0892Z" fill="#AC151C"/>
<path d="M29.2422 21.3743C30.0192 21.1025 30.9211 21.1699 31.625 21.6071C31.9464 21.8057 32.2218 22.1038 32.3183 22.477C32.3615 22.7935 32.2147 23.1079 31.9642 23.3002C31.4738 23.6876 30.8366 23.8068 30.2328 23.897C30.115 22.9915 29.697 22.1535 29.2422 21.3743Z" fill="white"/>
</svg>
