<svg width="100" height="100" viewBox="0 0 100 100" fill="none" xmlns="http://www.w3.org/2000/svg">
<circle cx="50" cy="50" r="50" fill="#EF4035"/>
<path fill-rule="evenodd" clip-rule="evenodd" d="M9.67578 33.3103C30.5783 44.8172 68.5992 58.2832 44.5131 63.5279C51.2973 64.6765 53.7514 63.9194 53.7514 63.9194C47.775 68.852 33.8403 74.2531 25.4898 77.2276C24.6547 77.5145 23.1152 78.2189 25.6466 77.9331C78.7238 65.4072 66.3546 44.8172 90.075 34.0931C91.1121 33.6037 88.6465 33.5057 87.5702 33.2324C79.9177 30.8241 72.7937 47.8712 64.5539 50.3769C62.1862 50.9246 55.8838 47.3817 65.4156 40.8256C66.2376 40.2583 65.9436 39.4358 64.789 39.886C49.7388 44.3293 20.6747 32.0777 9.67578 33.3103Z" fill="white"/>
</svg>
