<svg width="100" height="100" viewBox="0 0 100 100" fill="none" xmlns="http://www.w3.org/2000/svg">
<path d="M9.33099 77.3015L11.653 76.8209C18.4505 75.502 25.1016 73.517 31.5103 70.8946C42.7609 66.6863 52.8317 59.8278 60.8694 50.8998C66.7411 44.1726 72.8797 37.5522 78.8048 30.985C82.328 27.0341 85.6909 22.9765 89.1607 18.9721L89.4008 18.8386C81.3494 8.77608 69.7381 2.19524 56.9699 0.458284C44.202 -1.27867 31.255 1.96125 20.8091 9.50743C10.3632 17.0536 3.21825 28.3282 0.853106 40.9973C-1.51203 53.6667 1.0838 66.7604 8.10326 77.5684L9.33099 77.3015Z" fill="#007680"/>
<path d="M95.2459 28.3955L82.7284 49.7519L66.2607 77.9688C65.9042 78.4449 65.4242 78.8142 64.8729 79.0366C62.2039 80.2646 59.2947 81.4125 56.4921 82.5872L36.9819 90.6491L27.3467 94.7335C36.6857 99.3828 47.2399 101.01 57.5451 99.3899C67.8504 97.7697 77.3962 92.9822 84.8587 85.6912C92.3212 78.4004 97.3305 68.9676 99.1917 58.7009C101.053 48.4344 99.674 37.8429 95.2459 28.3955Z" fill="#007680"/>
</svg>
