<svg width="100" height="100" viewBox="0 0 100 100" fill="none" xmlns="http://www.w3.org/2000/svg">
<path fill-rule="evenodd" clip-rule="evenodd" d="M42.8579 14.2865H57.1434V0H42.8579V14.2865Z" fill="#EEEFEF"/>
<path fill-rule="evenodd" clip-rule="evenodd" d="M42.8579 28.5713H57.1434V14.2861H42.8579V28.5713Z" fill="#B5D5F0"/>
<path fill-rule="evenodd" clip-rule="evenodd" d="M42.8579 42.8564H57.1434V28.5713H42.8579V42.8564Z" fill="#6CADDE"/>
<path fill-rule="evenodd" clip-rule="evenodd" d="M28.5723 42.8564H42.8578V28.5713H28.5723V42.8564Z" fill="#B5D5F0"/>
<path fill-rule="evenodd" clip-rule="evenodd" d="M28.5723 71.4297H42.8578V57.1445H28.5723V71.4297Z" fill="#D6A6CC"/>
<path fill-rule="evenodd" clip-rule="evenodd" d="M57.1436 42.8564H71.4291V28.5713H57.1436V42.8564Z" fill="#B5D5F0"/>
<path fill-rule="evenodd" clip-rule="evenodd" d="M57.1436 71.4297H71.4291V57.1445H57.1436V71.4297Z" fill="#DAE7A2"/>
<path fill-rule="evenodd" clip-rule="evenodd" d="M42.8579 57.1433H57.1434V42.8555H42.8579V57.1433Z" fill="#231F20"/>
<path fill-rule="evenodd" clip-rule="evenodd" d="M42.8579 71.4297H57.1434V57.1445H42.8579V71.4297Z" fill="#91268F"/>
<path fill-rule="evenodd" clip-rule="evenodd" d="M42.8579 85.7148H57.1434V71.4297H42.8579V85.7148Z" fill="#D6A6CC"/>
<path fill-rule="evenodd" clip-rule="evenodd" d="M42.8579 100H57.1434V85.7148H42.8579V100Z" fill="#EEEFEF"/>
<path fill-rule="evenodd" clip-rule="evenodd" d="M0 57.1433H14.2855V42.8555H0V57.1433Z" fill="#EEEFEF"/>
<path fill-rule="evenodd" clip-rule="evenodd" d="M14.2856 57.1433H28.5725V42.8555H14.2856V57.1433Z" fill="#D6A6CC"/>
<path fill-rule="evenodd" clip-rule="evenodd" d="M28.5723 57.1433H42.8578V42.8555H28.5723V57.1433Z" fill="#91268F"/>
<path fill-rule="evenodd" clip-rule="evenodd" d="M57.1436 57.1433H71.4291V42.8555H57.1436V57.1433Z" fill="#8DC63F"/>
<path fill-rule="evenodd" clip-rule="evenodd" d="M71.4287 57.1433H85.7142V42.8555H71.4287V57.1433Z" fill="#DAE7A2"/>
<path fill-rule="evenodd" clip-rule="evenodd" d="M85.7144 57.1433H99.9999V42.8555H85.7144V57.1433Z" fill="#EEEFEF"/>
</svg>
