<svg width="100" height="100" viewBox="0 0 100 100" fill="none" xmlns="http://www.w3.org/2000/svg">
<path d="M27.1031 85.0901H100L41.4692 26.4111C33.7368 18.5882 23.2322 14.1288 12.2334 14L0 14L0.918247 16.3993L4.94668 27.0036L27.1031 85.0901Z" fill="url(#paint0_linear_2099_1394)"/>
<path d="M4.94689 27.0037C12.9445 40.6589 33.8865 42.0807 36.1673 63.2892C36.2149 63.7108 36.4004 64.1049 36.695 64.4102C36.9896 64.7156 37.3768 64.915 37.7964 64.9776C50.2625 66.9288 61.9982 72.1174 71.8308 80.025V80.025C71.8636 80.0389 71.8989 80.046 71.9345 80.046C71.9701 80.046 72.0053 80.0389 72.0381 80.025C72.1252 80.0505 72.2177 80.0505 72.3047 80.025C72.3735 79.9533 72.4119 79.8578 72.4119 79.7584C72.4119 79.6591 72.3735 79.5635 72.3047 79.4918C65.1664 71.9833 56.4997 66.0943 46.89 62.2229L43.9279 61.038C43.1678 60.7265 42.5202 60.1915 42.0706 59.504C41.6211 58.8164 41.3908 58.0086 41.4102 57.1873C41.5879 50.8485 56.5464 52.1222 58.0571 49.1008L58.3237 48.5677C55.2006 45.8824 51.5168 43.9292 47.5417 42.8508C47.4988 43.6486 47.7402 44.4358 48.223 45.0724C49.1412 46.5238 47.2455 48.8342 44.55 46.3461L44.4315 46.1388C24.1116 27.5961 8.88647 37.1933 0.918457 16.3994L4.94689 27.0037Z" fill="white"/>
<defs>
<linearGradient id="paint0_linear_2099_1394" x1="63.359" y1="84.8235" x2="14.7512" y2="13.7927" gradientUnits="userSpaceOnUse">
<stop stop-color="#BE0000"/>
<stop offset="0.39" stop-color="#DE0000"/>
<stop offset="0.77" stop-color="#F60000"/>
<stop offset="1" stop-color="#FF0000"/>
</linearGradient>
</defs>
</svg>
