<svg width="100" height="100" viewBox="0 0 100 100" fill="none" xmlns="http://www.w3.org/2000/svg">
<path d="M0 25C0 11.1929 11.1929 0 25 0H75C88.8072 0 100 11.1929 100 25V75C100 88.8072 88.8072 100 75 100H25C11.1929 100 0 88.8072 0 75V25Z" fill="#018845"/>
<path d="M85.8258 45.4402H89.6159C89.9452 45.4402 90.1224 45.8285 89.903 46.0733L84.7368 51.9316C84.9732 52.4549 85.2096 52.9783 85.4544 53.5017C86.1719 55.0718 86.8894 56.6418 87.6069 58.2119C87.8348 58.7015 87.6913 58.9295 87.1595 58.9295C85.9355 58.9295 84.7115 58.9295 83.4875 58.9295C82.9219 58.9295 82.8291 58.8704 82.6181 58.3386C82.0103 56.76 81.4025 55.1815 80.7947 53.6114C80.7525 53.4932 80.7019 53.3835 80.6259 53.2147C80.3558 54.7425 80.1025 56.2029 79.8493 57.6633C79.8071 57.9081 79.7649 58.1613 79.7142 58.4061C79.6467 58.7353 79.4019 58.9295 79.0642 58.9295C77.9669 58.9295 76.8695 58.9295 75.7721 58.9295C75.3754 58.9295 75.1981 58.7184 75.2656 58.3217C75.7299 55.6542 76.2026 52.9867 76.6753 50.3193C77.1649 47.5083 77.663 44.6973 78.1441 41.8948C78.1526 41.8357 78.161 41.785 78.1779 41.726C78.2708 41.3039 78.6422 41.0084 79.0727 41.0084H82.2129C82.4999 41.0084 82.7278 41.2532 82.7025 41.5318C82.7025 41.574 82.694 41.6162 82.6856 41.6584L81.0058 50.9186L85.2771 45.7018C85.4037 45.533 85.6063 45.4402 85.8258 45.4402ZM71.9988 58.921C72.4631 58.921 72.6741 58.7353 72.7585 58.2964C73.1131 56.3042 73.4761 54.3205 73.8137 52.3283C73.991 51.2985 74.2358 50.2855 74.2189 49.2303C74.1767 47.3141 73.1131 45.9382 71.2391 45.5077C69.4664 45.0941 67.6768 45.1616 65.9042 45.533C64.8996 45.744 64.0386 46.2336 63.3802 47.044C62.7471 47.8375 62.3757 48.7492 62.19 49.7284C61.827 51.6024 61.5062 53.4763 61.177 55.3503C60.9997 56.338 60.8225 57.3172 60.6705 58.3048C60.5945 58.7691 60.7465 58.921 61.2192 58.921C62.2828 58.921 63.3464 58.921 64.4185 58.921C64.7983 58.921 65.0431 58.7269 65.1107 58.3639C65.4905 56.1945 65.8704 54.0335 66.2503 51.864C66.3684 51.1803 66.4866 50.4965 66.6386 49.8212C66.7567 49.2979 67.0775 48.918 67.6431 48.8758C68.1242 48.842 68.6138 48.842 69.095 48.8674C69.5846 48.9011 69.7956 49.1628 69.7956 49.6608C69.7956 49.779 69.7956 49.8972 69.7787 50.0069C69.5171 51.4926 69.2554 52.9699 68.9937 54.4555C68.7658 55.7555 68.5379 57.047 68.3184 58.347C68.2509 58.7437 68.4197 58.921 68.8164 58.921C69.3567 58.921 69.8885 58.921 70.4287 58.921C70.9436 58.921 71.4755 58.921 71.9988 58.921ZM57.0576 41.0084C56.8719 41.0084 56.6946 41.0675 56.5596 41.2026C56.4836 41.2701 56.4329 41.3545 56.4076 41.4727C56.2894 42.1902 56.1459 42.8993 56.0362 43.6168C55.9771 43.9967 56.1375 44.1655 56.5258 44.1655C57.7076 44.174 58.8894 44.174 60.0712 44.1655C60.4426 44.1655 60.6621 43.9798 60.7296 43.6168C60.8562 42.9331 60.9744 42.2493 61.101 41.5656V41.5571C61.1517 41.2617 60.9153 41 60.6199 41L57.0576 41.0084ZM57.1758 58.921C57.7414 58.921 57.9608 58.7437 58.0537 58.1951C58.7712 54.1432 59.4803 50.0913 60.1978 46.0395C60.2653 45.6681 60.0881 45.4486 59.7082 45.4402C58.6108 45.4317 57.5134 45.4317 56.4161 45.4402C56.0362 45.4402 55.7914 45.6681 55.7239 46.0395C55.707 46.1492 55.6817 46.2674 55.6648 46.3771C55.209 48.9433 54.7531 51.5179 54.3057 54.0841C54.0609 55.4938 53.8077 56.9035 53.5713 58.3132C53.5038 58.7269 53.6726 58.9126 54.0862 58.9126C54.6265 58.9126 55.1583 58.9126 55.6985 58.9126C56.1881 58.921 56.6777 58.921 57.1758 58.921ZM50.0513 41.0084C49.8234 41.0084 49.5954 41.1097 49.4688 41.3039C49.3844 41.4305 49.3338 41.5825 49.3084 41.7597C49.2071 42.4772 49.0636 43.1863 48.937 43.9038C48.0929 48.6985 47.2403 53.4932 46.3962 58.2964C46.3202 58.71 46.4975 58.921 46.9111 58.921C47.9831 58.921 49.0636 58.921 50.1357 58.921C50.5578 58.921 50.7772 58.7437 50.8532 58.3301C51.0474 57.2749 51.2331 56.2198 51.4188 55.1646C51.8915 52.4803 52.3642 49.7959 52.8454 47.1115C53.1661 45.2882 53.4954 43.4649 53.8161 41.6415C53.8583 41.4221 53.8415 41.2279 53.6811 41.0929C53.6051 41.0338 53.5038 41 53.4025 41L50.0513 41.0084ZM42.7495 41.0084C42.5638 41.0084 42.3865 41.0675 42.2515 41.2026C42.1755 41.2701 42.1248 41.3545 42.0995 41.4727C41.9813 42.1902 41.8378 42.8993 41.7281 43.6168C41.669 43.9967 41.8294 44.1655 42.2177 44.1655C43.3995 44.174 44.5813 44.174 45.7631 44.1655C46.1345 44.1655 46.354 43.9714 46.4215 43.6168C46.5481 42.9331 46.6663 42.2493 46.7929 41.5656V41.5571C46.8436 41.2617 46.6072 41 46.3118 41L42.7495 41.0084ZM42.8761 58.921C43.4332 58.921 43.6527 58.7353 43.754 58.1866C44.4715 54.1348 45.1806 50.0829 45.8981 46.0311C45.9572 45.6765 45.7884 45.4402 45.4338 45.4402C44.328 45.4317 43.2222 45.4317 42.108 45.4402C41.7281 45.4402 41.4833 45.6681 41.4158 46.0479C41.3989 46.1577 41.3736 46.2759 41.3567 46.3856C40.9008 48.9518 40.445 51.5264 39.9892 54.0926C39.7444 55.4938 39.4996 56.8866 39.2548 58.2879C39.1788 58.7353 39.3476 58.9126 39.8035 58.9126C40.3268 58.9126 40.8586 58.9126 41.382 58.9126C41.88 58.921 42.3781 58.921 42.8761 58.921ZM35.4646 48.7492C35.5659 48.7492 37.5074 48.7492 38.36 48.7492C38.7736 48.7492 38.9846 48.5719 39.0606 48.1667C39.1704 47.5674 39.2801 46.968 39.3814 46.3603C39.5333 45.4824 39.4911 45.4317 38.6048 45.4317C37.7522 45.4317 36.8996 45.4317 36.0217 45.4317C36.1737 44.596 36.3172 43.7857 36.4607 42.9753C36.5535 42.4519 36.3594 42.2493 35.8529 42.3337C34.764 42.5194 33.675 42.7052 32.5861 42.8909C32.1049 42.9753 31.9446 43.1441 31.8601 43.6168C31.6575 44.7648 31.455 45.9129 31.2524 47.0693C30.7628 49.855 30.231 52.6406 29.8089 55.4347C29.5556 57.1061 30.1803 58.4821 32.0796 58.921C33.6244 59.284 35.1776 59.1067 36.7224 58.845C37.0263 58.7944 37.1866 58.5834 37.2373 58.2795C37.3386 57.6886 37.4399 57.0977 37.5496 56.5068C37.6425 55.9665 37.5243 55.8146 36.9672 55.8146C36.2581 55.8062 34.8484 55.8062 34.8484 55.8062C34.8484 55.8062 34.612 55.8315 34.4263 55.6204C34.3166 55.4938 34.3925 55.2237 34.3925 55.2237L35.4646 48.7492ZM25.6557 41.0084C25.47 41.0084 25.2928 41.0675 25.1577 41.2026C25.0817 41.2701 25.0311 41.3545 25.0058 41.4727C24.8876 42.1902 24.7441 42.8993 24.6343 43.6168C24.5752 43.9967 24.7356 44.1655 25.1239 44.1655C26.3057 44.174 27.4875 44.174 28.6693 44.1655C29.0407 44.1655 29.2602 43.9714 29.3277 43.6168C29.4544 42.9331 29.5725 42.2493 29.6991 41.5656V41.5571C29.7498 41.2617 29.5134 41 29.218 41H25.6557V41.0084ZM25.7908 58.921C26.3479 58.921 26.5674 58.7353 26.6603 58.1782C27.3693 54.1348 28.0868 50.0913 28.7959 46.0564C28.8635 45.6596 28.6946 45.4402 28.2979 45.4402C27.2089 45.4402 26.1285 45.4402 25.0395 45.4402C24.6428 45.4402 24.398 45.6596 24.322 46.0564C23.8577 48.6479 23.4019 51.2394 22.9461 53.8309C22.6844 55.325 22.4227 56.8191 22.1695 58.3132C22.0935 58.7437 22.2623 58.9295 22.6928 58.9295C23.2162 58.9295 23.748 58.9295 24.2714 58.9295C24.7778 58.921 25.2843 58.921 25.7908 58.921ZM21.663 41.7682C20.2533 41.439 18.8182 41.4221 17.3916 41.5909C16.1845 41.7344 15.0449 42.0805 14.032 42.7811C12.6054 43.7688 11.7781 45.17 11.221 46.7655C10.7398 48.1414 10.5457 49.5849 10.2671 51.0115C10.0392 52.1764 9.90415 53.3413 10.0814 54.5231C10.284 55.8821 10.8665 57.0217 11.9554 57.8827C12.9515 58.6678 14.1164 59.0139 15.3488 59.0983C16.6572 59.1827 17.9572 59.073 19.2319 58.7353C19.6455 58.6256 19.8734 58.423 19.9409 57.9756C20.0676 57.123 20.2448 56.2789 20.3968 55.4263C20.4896 54.8945 20.3799 54.7763 19.8481 54.8016C19.789 54.8016 19.7215 54.8101 19.6624 54.8185C18.6578 54.9283 17.6449 55.0127 16.6319 54.9873C15.4755 54.9705 14.8761 54.3627 14.8255 53.2062C14.7833 52.2608 14.9774 51.3407 15.1547 50.4206C15.3488 49.4076 15.4755 48.3778 15.8638 47.4154C16.3956 46.107 17.1468 45.609 18.5565 45.6174C19.5526 45.6259 20.5318 45.7356 21.5195 45.8116C21.9669 45.8453 22.0935 45.7356 22.1779 45.2798C22.2792 44.7311 22.4649 43.7012 22.5493 43.1441C22.6168 42.6545 22.6759 42.4181 22.5578 42.148C22.4311 41.9032 22.0175 41.8526 21.663 41.7682Z" fill="white"/>
</svg>
