<svg width="100" height="100" viewBox="0 0 100 100" fill="none" xmlns="http://www.w3.org/2000/svg">
<path d="M0 25C0 11.1929 11.1929 0 25 0H75C88.8072 0 100 11.1929 100 25V75C100 88.8072 88.8072 100 75 100H25C11.1929 100 0 88.8072 0 75V25Z" fill="#FF6300"/>
<path d="M36.4563 38.9258C36.8684 38.9258 37.1558 39.2836 37.4963 39.8213C40.6031 45.057 42.2492 51.0301 42.2639 57.1182C42.2639 73.0886 29.7173 84.1132 11.6496 84.1133C11.3091 84.1133 10.0002 84.1125 10.0002 83.2881C9.99497 82.9911 10.0894 82.7007 10.2688 82.4639L35.3635 39.8936C35.7756 39.2126 36.0442 38.926 36.4563 38.9258ZM64.132 16C64.9564 16.0001 65.0277 16.6277 64.6154 17.0938C62.7018 19.389 61.7174 22.3177 61.8557 25.3027C61.8557 29.4254 63.3795 35.143 67.7707 43.0654L89.7453 82.3203C90.3009 83.2884 89.961 84.1121 88.5813 84.1123C72.4494 84.1123 64.9561 78.0537 58.8977 67.2275L41.9592 36.9355C41.1439 35.7272 40.6674 34.3223 40.5793 32.8672C40.753 31.0719 41.3683 29.3469 42.3713 27.8477L44.5051 24.0664C47.5343 18.474 50.8324 16 58.6115 16H64.132Z" fill="white"/>
</svg>
