<svg width="100" height="100" viewBox="0 0 100 100" fill="none" xmlns="http://www.w3.org/2000/svg">
<path d="M76.9904 49.9979C76.9904 50.4365 70.8243 50.8479 62.0217 51.1934C60.4671 50.3115 59.2875 49.4251 58.4238 48.6615C69.0992 49.0387 76.9904 49.5047 76.9904 49.9979Z" fill="#747F8A"/>
<path d="M70.6671 35.137C70.6671 35.5029 65.4988 35.8461 58.1099 36.1416C59.169 35.5234 60.2599 34.9006 61.4054 34.2756C66.9875 34.5325 70.6671 34.8302 70.6671 35.137Z" fill="#747F8A"/>
<path d="M15.6119 67.1082C12.1913 67.1491 9.19119 67.165 6.84793 67.165C3.47508 67.165 0.743164 66.1264 0.743164 64.8377C0.743164 63.5558 3.47508 62.5171 6.84793 62.5171C9.8344 62.5171 13.88 62.549 18.5211 62.6081C16.7255 65.1991 15.8732 66.7559 15.7937 66.8537C15.7414 66.9287 15.6755 67.0173 15.6119 67.1082Z" fill="#747F8A"/>
<path d="M17.4543 70.2212C18.5817 71.5826 19.6635 72.7281 21.1113 73.9805C21.1113 73.9805 21.6568 74.76 23.3136 74.0918C25.0001 73.4054 26.4297 72.4713 28.0411 70.3099C32.7458 70.3894 37.7346 70.494 42.6462 70.6053C43.0507 71.194 43.8712 72.4122 44.8826 73.9145C31.1912 74.2691 16.3316 74.4805 8.71995 74.4805C5.54938 74.4805 2.97656 73.4963 2.97656 72.2918C2.97656 71.0803 5.54938 70.103 8.71995 70.103C11.0382 70.103 14.0247 70.119 17.443 70.1576C17.4407 70.1894 17.4543 70.2212 17.4543 70.2212Z" fill="#747F8A"/>
<path d="M12.1578 81.6387C9.34408 81.6387 7.06445 80.7727 7.06445 79.7045C7.06445 78.634 9.34408 77.7658 12.1578 77.7658C19.6013 77.7658 34.8609 77.9931 47.9295 78.3636C48.5591 79.2659 49.1887 80.1636 49.7864 80.9886C36.3314 81.3841 19.9535 81.6387 12.1578 81.6387Z" fill="#747F8A"/>
<path d="M55.5624 87.8478C44.587 88.3296 25.7158 88.6523 17.8747 88.6523C15.6678 88.6523 13.8745 87.9637 13.8745 87.1296C13.8745 86.2886 15.6678 85.6045 17.8747 85.6045C25.3749 85.6045 42.9892 85.9 54.1055 86.3432C54.6078 86.8818 55.0987 87.3887 55.5624 87.8478Z" fill="#747F8A"/>
<path d="M26.9289 91.9642C33.4041 91.9642 53.1162 92.4529 53.1162 93.0438C53.1162 93.6438 33.4018 94.1279 26.9289 94.1279C25.6675 94.1279 24.647 93.6438 24.647 93.0438C24.647 92.4529 25.6675 91.9642 26.9289 91.9642Z" fill="#747F8A"/>
<path d="M27.0004 52.1073C18.8501 52.246 11.5476 52.3232 6.84744 52.3232C3.47687 52.3232 0.742676 51.2846 0.742676 49.9982C0.742676 48.714 3.47687 47.6708 6.84744 47.6708C12.3067 47.6708 21.2775 47.7754 31.0028 47.9595C29.5573 49.389 28.2209 50.78 27.0004 52.1073Z" fill="#747F8A"/>
<path d="M66.9763 41.7115C71.7515 41.9706 74.7562 42.2547 74.7562 42.5502C74.7562 42.8752 71.1197 43.1866 65.4922 43.4639C66.6945 42.5593 66.9581 41.7706 66.9763 41.7115Z" fill="#747F8A"/>
<path d="M8.72076 44.7354C5.54792 44.7354 2.9751 43.758 2.9751 42.5489C2.9751 41.342 5.54792 40.3602 8.72076 40.3602C15.2278 40.3602 27.0305 40.5193 38.8696 40.7807C37.4172 42.0057 36.0399 43.2171 34.7399 44.4058C24.3486 44.6149 14.471 44.7354 8.72076 44.7354Z" fill="#747F8A"/>
<path d="M44.1036 36.5787C31.9986 36.8856 18.8845 37.0742 12.157 37.0742C9.34327 37.0742 7.06592 36.2083 7.06592 35.1378C7.06592 34.0673 9.34327 33.1968 12.157 33.1968C19.5823 33.1968 34.8055 33.4286 47.856 33.7968C47.206 34.2696 46.5514 34.7423 45.8877 35.2378C45.2832 35.6878 44.6877 36.131 44.1036 36.5787Z" fill="#747F8A"/>
<path d="M17.8737 29.2334C15.6668 29.2334 13.8735 28.5538 13.8735 27.7106C13.8735 26.8697 15.6668 26.1856 17.8737 26.1856C26.199 26.1856 46.9633 26.5538 57.5092 27.0788C56.8364 27.5197 56.1637 27.9765 55.4841 28.4356C44.4928 28.9107 25.699 29.2334 17.8737 29.2334Z" fill="#747F8A"/>
<path d="M6.2184 59.7852C2.78646 59.7852 0 58.7283 0 57.4169C0 56.1146 2.78646 55.0532 6.2184 55.0532C10.5208 55.0532 16.9597 55.1168 24.2418 55.2282C22.8735 56.8373 21.6849 58.3283 20.6666 59.6647C14.8687 59.742 9.80035 59.7852 6.2184 59.7852Z" fill="#747F8A"/>
<path d="M24.6479 21.7944C24.6479 21.1967 25.6684 20.7126 26.9298 20.7126C33.4028 20.7126 53.1171 21.1967 53.1171 21.7944C53.1171 22.3876 33.4051 22.874 26.9298 22.874C25.6684 22.874 24.6479 22.3876 24.6479 21.7944Z" fill="#747F8A"/>
<path d="M77.6364 55.6675C77.6819 56.8471 77.6751 58.0176 77.616 59.1653C66.1474 59.6199 55.272 60.3108 55.272 61.0881C55.272 61.8518 65.9042 62.5359 77.241 62.9882C77.041 64.2973 76.7841 65.5815 76.4705 66.8406C65.2951 67.2974 54.9243 67.9702 54.9243 68.727C54.9243 69.4566 64.6064 70.1134 75.3273 70.5703C74.8363 71.9385 74.2795 73.2681 73.6545 74.5409C64.4473 74.9841 56.838 75.575 56.838 76.2205C56.838 76.8228 63.4859 77.3796 71.8658 77.8092C71.3953 78.5751 70.9044 79.3251 70.3907 80.0342C69.8452 80.807 69.252 81.5729 68.6248 82.3252C63.3859 82.723 59.7903 83.1753 59.7903 83.6594C59.7903 84.0753 62.3654 84.4639 66.3338 84.8117C64.1678 86.9549 61.6086 88.9573 58.5926 90.7051C58.5926 90.7051 55.0402 87.6459 52.1083 84.073C49.4945 80.8865 43.9489 72.4862 42.6443 70.6066C41.3374 68.727 40.4783 68.177 38.951 68.7225C36.9032 69.4475 34.5235 69.8112 33.7917 69.8112C33.0598 69.8112 32.6576 69.5271 33.8849 69.0407C35.1077 68.5475 39.9419 66.2656 42.3215 61.5495C44.9944 56.2379 42.6443 48.9036 42.6443 48.9036C41.7465 52.8242 39.7055 54.2879 39.7055 54.2879C40.3647 50.6468 39.6464 47.3467 37.8487 45.0307L36.8463 49.64C36.8463 49.64 36.2191 49.6082 34.6667 50.9128C33.1167 52.2196 32.6894 54.1242 32.6894 54.1242C33.9099 54.6152 35.3781 53.3901 35.3781 53.3901C33.503 60.4063 30.8143 66.1178 28.8529 69.1384C26.8937 72.159 25.2778 73.2976 23.3141 74.0954C21.6572 74.7591 21.1117 73.9795 21.1117 73.9795C19.6639 72.7294 18.5821 71.5839 17.4547 70.2225C17.4547 70.2225 17.3638 70.0634 17.6684 70.068C18.4752 70.0793 19.9117 68.6998 20.2253 68.127C20.5844 67.4702 20.5458 66.9679 20.3662 66.9338C20.1889 66.9042 19.8821 67.4247 18.3252 68.4066C16.7775 69.3861 16.0661 68.7066 15.5501 68.1611C15.1501 67.727 15.5433 67.1906 15.7933 66.8542C16.0297 66.5542 24.2186 51.2832 45.8876 35.2395C74.284 14.2137 92.4188 8.53625 93.4575 8.12714C94.1438 7.85668 95.2643 7.49985 95.5189 7.76122C95.8007 8.05669 95.9394 8.29305 95.9007 8.63625C95.8644 8.97717 95.6825 9.15218 94.3688 9.73175C83.4685 14.5342 70.743 22.539 63.5132 27.1983C54.622 31.5302 46.133 37.7168 45.8239 37.8646C45.1398 38.2896 45.6444 38.9078 46.058 38.6487C61.0722 28.662 78.6751 21.8594 98.1281 16.2865C99.0576 16.0229 99.5668 16.0229 99.7213 16.2274C99.8963 16.4547 99.9713 16.7138 99.9986 17.0002C100.024 17.357 99.7281 17.5457 98.9304 17.857C78.0319 25.6209 62.6291 32.8326 52.7219 39.4987C52.7219 39.4987 51.6969 40.1169 51.6832 40.8328C51.6787 41.1056 52.2333 41.1374 52.2333 41.1374C57.1925 41.226 63.8223 41.517 66.977 41.7011C66.977 41.7011 66.5269 43.2988 63.5064 44.5853C61.1745 45.5807 59.0153 45.4216 56.8789 45.4398C56.4039 45.4307 56.0016 45.9103 56.3811 46.4217C56.572 46.6762 61.1177 53.9947 77.6364 55.6675Z" fill="#5C0632"/>
</svg>
