<svg width="100" height="100" viewBox="0 0 100 100" fill="none" xmlns="http://www.w3.org/2000/svg">
<path d="M0 25C0 11.1929 11.1929 0 25 0H75C88.8072 0 100 11.1929 100 25V75C100 88.8072 88.8072 100 75 100H25C11.1929 100 0 88.8072 0 75V25Z" fill="#004289"/>
<path d="M75 0C85.493 0 94.4737 6.46536 98.1816 15.6289C96.8912 15.113 94.0409 14.9384 87.6553 15.0186C75.6894 15.1708 52.0646 18.6716 47.9219 19.585C44.1633 20.384 34.6493 21.766 29.1436 22.5068L27.0576 23.3896C25.0633 23.6941 23.8361 25.3691 25.2168 28.5654C26.5975 31.7614 29.0525 31.9133 31.2002 31.1523C33.3492 30.3911 47.3082 27.5 55.2852 26.4346C63.5691 25.217 75.9949 23.5421 78.6035 23.542C75.0749 24.9119 64.6432 28.4131 58.5068 30.5439C51.9102 32.5226 43.1658 35.262 36.876 37.6973C29.052 40.7414 23.5291 43.3288 20.6143 44.0898C18.3132 44.5465 16.4728 46.3735 18.0068 48.9609C19.5407 51.3959 19.8477 52.7658 23.6826 52.0049C28.4383 51.0917 47.3073 46.9817 55.7451 47.1338C52.3695 47.8951 39.7905 52.3091 35.4951 53.8311C31.1997 55.3531 24.2966 58.3969 19.6943 59.9189C15.0922 61.1365 13.5574 62.5068 14.3242 66.3115C15.0913 70.1166 16.9326 70.4217 22.1484 70.2695C30.8929 70.1173 42.092 69.9648 46.6943 69.9648C43.3194 71.3347 33.0413 74.0745 27.8252 75.4443C22.6094 76.8141 10.3368 79.5536 6.34766 80.6191C4.34411 81.2308 2.53354 82.1112 1.36426 83.1641C0.480651 80.6055 0 77.8589 0 75V25C0 11.1929 11.1929 0 25 0H75Z" fill="#FF8C00"/>
<path d="M87.6553 15.0186C94.0409 14.9384 96.8911 15.113 98.1816 15.629C99.0036 17.6603 99.5666 19.8236 99.8291 22.0792C99.7205 22.383 99.5555 22.714 99.3145 23.086C97.7803 25.2168 95.3254 26.1302 91.6436 27.5C84.893 30.0876 55.2862 38.0017 51.2969 39.9805C57.4332 39.6761 66.3309 38.1539 75.2285 37.6973C81.2115 37.5451 81.9792 38.7633 82.4395 41.503C83.053 44.0901 83.2057 45.4596 79.2178 46.9815C75.2291 48.5035 70.6265 50.1783 61.2686 52.918C48.2286 56.7232 40.4041 58.3975 30.7393 62.6592C36.1086 63.268 44.8533 62.3548 51.9102 62.6592C62.4955 62.9636 62.9558 64.1817 63.416 67.378C63.5694 70.4217 64.0296 71.3351 59.5811 73.4659C55.1322 75.2923 47.3083 77.4227 43.0127 78.336C38.5638 79.2492 21.9951 82.9021 18.7734 83.6631C15.8586 84.4242 13.404 87.6206 8.95508 89.1426C7.3744 89.6817 6.08004 89.9661 4.99512 89.9952C3.45254 87.9405 2.21947 85.6405 1.36426 83.1641C2.53354 82.1113 4.34412 81.2308 6.34766 80.6192C10.3368 79.5537 22.6094 76.8142 27.8252 75.4444C33.0413 74.0745 43.3194 71.3347 46.6943 69.9649C42.092 69.9649 30.8929 70.1174 22.1484 70.2696C16.9326 70.4218 15.0913 70.1167 14.3242 66.3116C13.5574 62.5068 15.0922 61.1366 19.6943 59.919C24.2966 58.3969 31.1997 55.3531 35.4951 53.8311C39.7905 52.3091 52.3695 47.8951 55.7451 47.1338C47.3073 46.9818 28.4383 51.0917 23.6826 52.0049C19.8477 52.7659 19.5407 51.396 18.0068 48.961C16.4728 46.3736 18.3132 44.5466 20.6143 44.0899C23.5291 43.3289 29.052 40.7414 36.876 37.6973C43.1658 35.262 51.9102 32.5227 58.5068 30.544C64.6432 28.4131 75.0749 24.9119 78.6035 23.542C75.9949 23.5422 63.5691 25.217 55.2852 26.4346C47.3082 27.5 33.3492 30.3912 31.2002 31.1524C29.0525 31.9134 26.5975 31.7615 25.2168 28.5655C23.8361 25.3692 25.0633 23.6941 27.0576 23.3897L29.1436 22.5069C34.6493 21.7661 44.1633 20.3841 47.9219 19.585C52.0647 18.6717 75.6895 15.1708 87.6553 15.0186Z" fill="white"/>
</svg>
