<svg width="100" height="100" viewBox="0 0 100 100" fill="none" xmlns="http://www.w3.org/2000/svg">
<path d="M0 25C0 11.1929 11.1929 0 25 0H75C88.8072 0 100 11.1929 100 25V75C100 88.8072 88.8072 100 75 100H25C11.1929 100 0 88.8072 0 75V25Z" fill="#20409A"/>
<path d="M86.0103 12.8496C70.1503 13.9996 51.0303 23.8796 43.2203 37.9996C35.3503 52.2196 40.7203 72.0596 30.7803 84.6696" fill="white"/>
<path d="M43.2203 37.9896C35.3503 52.2096 40.7203 72.0496 30.7803 84.6596C84.8603 47.9196 67.6403 31.7996 86.0103 12.8496C70.1503 13.9996 51.0303 23.8796 43.2203 37.9996V37.9896Z" fill="white"/>
<path d="M57.0602 65.8803C54.3902 57.6903 45.4402 56.0103 37.8502 60.9403C38.8802 60.6703 40.4602 61.0103 41.4202 61.4903C39.6402 61.2203 38.1302 61.2803 37.0302 62.1103C37.0302 63.8903 37.5702 65.7403 37.8502 67.5303C42.0402 71.7403 49.8102 74.8203 54.8002 69.7903C55.8302 68.6603 57.6802 67.5103 57.0702 65.8803H57.0602ZM35.3102 62.5203C34.6202 64.2303 33.8002 67.0503 32.6302 68.2803C33.1102 67.3203 34.5502 62.9303 34.4202 61.9703C31.9702 63.9903 27.3302 66.7003 25.0202 67.2503C17.3502 90.9203 42.3902 80.4603 35.3102 62.5103V62.5203ZM33.5302 60.4003C32.8402 60.0503 29.9602 60.7403 30.2402 60.6703C30.7902 60.4603 33.4702 59.3003 32.4302 59.0203C29.3402 56.7303 26.4002 54.8103 23.7902 51.8203C20.4202 52.0903 7.00016 57.7303 11.0902 62.5903C19.0202 69.9403 27.4702 66.1803 33.5202 60.4003H33.5302ZM29.9602 55.8703C30.9202 56.5603 32.0902 57.3103 33.4602 58.2003V58.1303C32.3602 57.5803 32.0902 54.0803 31.9502 52.9203C32.2902 54.4303 33.2602 57.1703 34.7602 57.9303C33.9802 53.4703 34.2702 49.1603 36.2002 45.1003C34.9902 41.7303 32.8202 38.6903 29.9602 37.2103C27.6802 36.2503 22.9002 33.0903 22.0002 37.0003C19.0902 44.6903 23.4102 51.2403 29.9602 55.8703ZM35.9302 49.1403C35.3402 52.8103 35.6402 55.3403 36.3402 58.3403C36.4802 58.0003 37.5102 54.0203 38.9502 52.7103C37.7802 54.5703 37.3002 56.9003 37.1702 59.0903C39.8702 59.0303 42.4202 56.7303 45.3402 56.8303C50.5102 53.0803 53.0402 47.6303 50.6902 41.5303C50.2802 39.8803 50.6902 39.7503 47.1202 39.4703C43.0602 39.0403 36.8102 42.1603 35.9302 49.1403Z" fill="url(#paint0_radial_2099_1440)"/>
<path fill-rule="evenodd" clip-rule="evenodd" d="M57.0702 67.1903C52.8302 74.7203 42.8802 73.0503 37.8602 67.5303C37.5902 65.7403 37.0402 63.8903 37.0402 62.1103C38.1402 61.2803 39.6502 61.2203 41.4302 61.4903C40.4702 61.0103 38.8902 60.6603 37.8602 60.9403C45.4302 55.6603 56.3402 58.1903 57.0702 67.1803V67.1903ZM36.2202 72.2703C35.1402 77.1303 32.4902 79.8303 28.8102 80.8503C21.6102 82.4903 23.2702 70.8803 25.0302 67.2703C27.3402 66.7103 31.9802 64.0103 34.4302 61.9903C34.5702 62.9503 33.1302 67.3403 32.6502 68.3003C33.8202 67.0703 34.6402 64.2503 35.3202 62.5403C35.9102 65.8803 37.0802 68.7303 36.2102 72.2803L36.2202 72.2703ZM23.1002 66.3703C19.6702 66.9903 15.5602 66.7803 11.0902 62.6003C7.01023 57.7203 20.4002 52.1103 23.7902 51.8303C26.4002 54.8203 29.3502 56.7503 32.4402 59.0303C33.4702 59.3003 30.7902 60.4703 30.2502 60.6803C29.9802 60.7503 32.8602 60.0603 33.5502 60.4103C31.8902 62.7503 25.9402 65.8803 23.1102 66.3803L23.1002 66.3703ZM22.0102 37.0003C22.9102 33.0903 27.6902 36.2503 29.9802 37.2103C32.8402 38.6903 35.0102 41.7403 36.2202 45.1003C34.2702 49.1503 34.0002 53.4803 34.7802 57.9303C33.2702 57.1803 32.3102 54.4303 31.9702 52.9203C32.1102 54.0903 32.3802 57.5803 33.4802 58.1303V58.2003C25.6602 53.5803 18.4602 46.2503 22.0202 37.0003H22.0102ZM46.9202 39.4803C50.3102 39.6603 50.4202 39.8703 50.7002 41.5403C53.0502 47.6403 50.5202 53.0903 45.3502 56.8403C42.4402 56.7403 39.8902 59.0403 37.1902 59.1003C37.3302 56.9103 37.8102 54.5703 38.9702 52.7203C37.5302 54.0203 36.5002 58.0003 36.3602 58.3403C33.5002 50.2103 38.3202 38.4203 46.9302 39.4703L46.9202 39.4803ZM57.4102 65.8303C55.6902 60.9303 51.0002 56.6603 45.6102 56.8403C51.5802 52.8603 53.3002 46.0003 50.2102 39.8303C45.1702 38.5103 41.0702 38.2103 36.4202 44.9103C34.3802 39.1803 29.1202 35.3703 23.3102 34.8203C18.8902 39.3103 20.3802 47.0103 23.6502 51.6303C20.1302 52.1303 10.1602 56.2703 9.99023 61.1703C13.0402 66.9203 19.9902 68.4203 24.8802 67.3503C17.3802 86.9903 37.0302 84.3603 37.7702 67.9703C42.4002 71.4503 48.7402 75.2103 54.3002 70.4403C55.8802 69.1903 57.6802 67.7603 57.3902 65.8503H57.4002L57.4102 65.8303Z" fill="#EB2227"/>
<path d="M39.58 72.62C39.65 72.62 39.51 72.83 39.65 72.83C40.06 71.94 40.54 71.04 41.09 70.15C40.54 69.81 39.99 69.4 39.38 69.05C38.9 68.64 38.35 68.3 37.8 67.95C37.8 68.22 37.73 68.57 37.73 68.91C38.28 70.01 38.96 71.04 39.38 72.14C39.45 72.28 39.52 72.41 39.59 72.62H39.58ZM42.94 71.24C42.4 71.31 41.91 71.38 41.43 71.45C40.81 72.75 40.13 73.99 39.51 75.22C41.7 75.56 43.14 75.29 45 74.19C44.79 74.33 44.66 74.6 44.52 74.88C42.67 75.91 41.29 76.32 39.37 76.66C39.03 76.73 38.68 76.8 38.27 76.87C36.42 79.2 34.43 81.4 32.16 83.25C33.46 81.67 34.83 80.02 36.21 78.45L34.77 79.68C35.87 78.17 38.41 75.56 38.41 73.5C38.2 72.88 37.79 71.99 37.38 70.96C36.9 73.22 35.87 75.69 34.23 77.68C33.96 78.37 33.61 79.05 33.27 79.67C31.56 82.76 29.15 85.09 26.82 86.05H26.75V87.22C26.75 88.32 26.75 89.07 27.57 89.21H27.64L27.71 89.14C28.53 86.8 31.69 84.82 35.6 82.28C36.62 81.59 37.73 80.91 38.89 80.15C39.03 80.01 39.23 79.94 39.37 79.81C41.91 78.1 44.45 76.1 47.05 73.91C47.6 73.5 48.08 73.08 48.63 72.68C48.08 72.68 47.6 72.68 47.05 72.61C45.54 72.4 44.17 71.86 42.94 71.24ZM89.94 11C89.32 11.14 88.71 11.21 88.09 11.27C86.51 11.54 84.79 11.82 81.98 12.64C80.81 12.98 79.58 13.33 78.35 13.67C73.68 14.9 68.67 16.28 62.98 19.16C57.42 21.97 51.73 25.88 47.06 31.1C46.72 31.51 46.37 31.92 46.03 32.33C44.04 34.8 42.25 37.48 40.81 40.36C41.91 39.67 43.08 39.33 44.17 39.19C44.17 38.09 44.31 36.52 44.92 36.52C44.65 37.41 44.58 38.3 44.65 39.13C45.47 39.06 46.3 39.06 47.05 39.13C47.1 39.18 47.14 39.2 47.19 39.2C48.08 39.27 49.59 39.41 50.21 39.82C50.9 40.37 50.69 41.33 50.96 42.01C51.51 44 51.92 45.71 51.71 47.43C51.71 47.7 51.64 47.91 51.64 48.12C52.12 47.02 52.46 45.79 52.46 44.49C52.05 42.43 51.16 41.13 50.4 38.31C49.65 35.43 49.99 32.07 51.43 28.7C50.95 30.69 50.68 32.4 51.16 34.46C51.64 36.52 53.01 39.19 53.49 40.7C53.97 42.28 53.83 42.55 54.11 43.51C54.93 41.93 56.24 40.01 56.65 38.36C56.86 36.92 56.51 35.41 56.51 34.52C56.44 33.7 56.1 32.32 55.89 30.4C55.68 27.58 55.76 24.43 57.26 24.16C56.92 24.91 56.64 24.91 56.44 26.42C56.3 27.86 58.02 33.21 58.5 36.58C59.46 35 60.56 33.42 61.59 31.91C61.25 28.27 60.36 22.92 63.86 20.45C62.9 21.96 62.55 22.78 62.42 24.36C62.42 24.98 62.35 29.37 62.97 30.06C64.2 28.76 65.44 27.52 66.74 26.36C66.88 26.15 67.15 25.81 67.22 25.67C67.57 22.58 67.29 19.77 69.76 17.78C69.35 18.4 68.73 19.01 68.59 19.84C68.45 20.66 68.38 23.68 69 24.23C70.3 23 71.67 21.69 73.05 20.52C73.32 19.42 73.46 18.46 73.87 17.57C74.35 16.47 74.76 15.92 75.93 15.51C74.63 16.54 73.94 17.64 74.83 19.35C76.75 17.91 78.4 16.81 79.91 15.78C80.05 14.89 80.45 14.13 81.35 13.79C81.14 14 80.87 14.27 80.73 14.61C80.66 14.82 80.66 15.09 80.66 15.36C81.55 14.81 82.44 14.4 83.47 13.99C82.37 14.68 81.34 15.36 80.24 15.98C79.21 16.73 78.25 17.56 77.15 18.38C77.84 18.38 79.28 18.45 79.82 18.31C80.44 18.24 80.78 17.97 81.26 17.83C80.64 18.24 80.43 18.86 79.41 19C78.45 19.14 77.22 19.14 76.12 19.21C74.54 20.31 73.17 21.75 71.93 23.19C73.58 23.67 76.12 23.33 77.21 22.92C78.38 22.51 78.38 22.37 78.99 21.82C77.82 24.29 72.75 24.29 70.76 24.29C70.14 25.04 66.92 27.45 66.92 28.41C69.87 28.62 73.23 28.68 76.05 27.93C72.96 29.58 69.05 29.64 65.55 29.85C64.32 30.47 62.67 33.35 61.85 34.45C64.87 34.45 68.91 34.79 70.84 34.72C72.83 34.65 72.69 34.17 73.65 33.97C72.48 35.41 69.19 35.48 67.68 35.55C66.38 35.55 64.94 35.48 63.77 35.69C62.6 35.9 61.64 36.24 60.54 36.44C59.37 38.22 58.21 40.01 57.04 41.86C58.41 41.72 59.51 41.59 61.15 41.52C62.73 41.52 64.45 41.73 65.82 41.66C67.67 41.66 69.32 41.39 71.59 40.43C69.32 42.21 66.85 42.9 63.97 43.04C62.6 43.18 57.93 42.56 55.74 44C55.05 45.44 54.3 46.88 53.54 48.32C54.91 48.39 56.21 48.53 57.59 48.66C60.27 49.14 62.67 49.62 65.07 49.07C65.76 48.86 66.44 48.66 67.13 48.25C67.13 48.94 64.18 50.03 63.49 50.1C61.99 50.37 60.4 50.17 58.9 50.24C56.63 50.31 54.44 50.38 52.18 50.51C51.43 52.16 50.6 53.8 49.78 55.52C53.01 56 58.29 56.89 60.21 56.62C62.06 56.35 62 55.66 62.34 56.01C61.65 56.49 60.9 56.76 60.07 57.04C58.7 57.59 57.53 57.45 55.96 57.45C53.69 57.38 51.5 57.18 49.3 57.04C49.23 57.11 49.16 57.25 49.09 57.38C51.97 58.34 54.37 60.4 56.02 63.01C56.29 62.95 56.57 62.88 56.85 62.8C56.71 63.01 56.44 63.15 56.16 63.28C56.5 63.83 56.78 64.38 57.05 64.93C57.53 64.31 58.08 63.7 58.63 63.08C60.62 60.68 62.47 58.14 64.26 55.67C66.66 52.31 68.58 49.22 70.37 45.72C72.09 42.22 73.6 38.52 75.17 34.13C77.09 28.64 78.88 23.84 81.14 20C83.4 16.16 86.15 13.21 89.99 11.21L89.92 11H89.94ZM47.19 56.9C47.67 56.01 48.15 55.05 48.56 54.16C48.15 54.64 47.6 55.12 47.05 55.6C46.64 56.01 46.09 56.42 45.61 56.83C46.09 56.76 46.57 56.83 47.05 56.9H47.19Z" fill="url(#paint1_linear_2099_1440)"/>
<defs>
<radialGradient id="paint0_radial_2099_1440" cx="0" cy="0" r="1" gradientUnits="userSpaceOnUse" gradientTransform="translate(35.1896 61.4407) rotate(94.58) scale(20.8791 21.3147)">
<stop stop-color="#FFC115"/>
<stop offset="0.5" stop-color="white"/>
</radialGradient>
<linearGradient id="paint1_linear_2099_1440" x1="79.74" y1="4.96" x2="30.59" y2="82.69" gradientUnits="userSpaceOnUse">
<stop stop-color="#76BB46"/>
<stop offset="1" stop-color="#04A550"/>
</linearGradient>
</defs>
</svg>
