<svg width="100" height="100" viewBox="0 0 100 100" fill="none" xmlns="http://www.w3.org/2000/svg">
<path d="M83.8253 58.9823C83.8253 58.9823 85.6459 60.887 86.3041 63.5441C86.3041 63.5441 82.3624 63.236 80.7887 64.4595C80.7887 64.4595 80.9059 65.5506 82.7329 67.5164C82.7329 67.5164 83.0753 68.0982 82.2707 68.6087C81.5132 69.0951 77.6988 69.351 77.56 65.3291C77.56 65.3291 75.0939 68.3146 71.7314 67.8716C71.7314 67.8716 69.0782 67.5431 68.9126 65.0515C68.9126 65.0515 71.4641 65.5442 73.4948 64.6034C73.4948 64.6034 73.4069 62.9508 71.0961 61.3224C71.0961 61.3224 72.9078 58.9683 77.0405 57.8543C77.0405 57.8543 76.2193 54.2755 77.4085 50.6584C78.618 47.0299 79.2126 46.1641 79.5207 45.3773C79.8606 44.6185 80.2362 42.724 79.62 40.7073C79.62 40.7073 89.2158 40.51 89.2489 50.7806C89.2502 50.7806 89.3482 56.4984 83.8253 58.9823ZM73.011 76.6233L67.3989 74.0426L72.9359 72.2309L78.2246 74.6461L73.011 76.6233ZM63.5564 67.3076C60.3392 67.1077 59.1577 63.9057 59.1577 63.9057C57.5509 66.028 54.2216 65.683 54.2216 65.683C51.5416 65.0897 51.3583 62.7573 51.3583 62.7573C54.3082 62.164 55.0683 61.0958 55.0683 61.0958C54.3948 59.209 51.1864 58.1637 51.1864 58.1637C53.1178 55.117 57.2403 53.5867 57.2403 53.5867C55.6335 51.9137 55.1727 50.2561 54.7576 47.5137C54.3362 44.7012 55.0683 40.3687 55.0683 40.3687C55.8907 36.4893 57.3676 34.605 58.6306 32.9627C59.989 31.3457 61.3399 31.538 61.3399 31.538C63.135 31.7379 64.7532 32.7017 64.7532 32.7017C66.8921 33.9583 68.425 35.8006 69.1253 36.7643C69.7708 37.7345 71.8549 42.3994 69.2577 48.2483C66.6604 54.0183 63.9982 55.1183 63.9982 55.1183C68.0062 58.9811 67.9845 60.7138 67.9845 60.7138C64.6755 60.7138 63.7945 62.5599 63.7945 62.5599C64.6068 64.1705 66.9762 64.7727 66.9762 64.7727C66.2963 67.4336 63.5564 67.3076 63.5564 67.3076ZM61.4392 75.8467C60.3137 75.8467 59.3919 74.9504 59.3919 73.8313C59.3919 72.6689 60.315 71.7878 61.4392 71.7878C62.5214 71.7878 63.4113 72.6689 63.4113 73.8313C63.4113 74.9504 62.5214 75.8467 61.4392 75.8467ZM50.0787 75.8467L44.6945 73.6772L50.0787 71.4988L55.5699 73.6772L50.0787 75.8467ZM40.9909 63.9057C40.9909 63.9057 39.7928 67.1077 36.5844 67.3076C36.5844 67.3076 33.8599 67.4349 33.1965 64.774C33.1965 64.774 35.5086 64.1705 36.3578 62.5612C36.3578 62.5612 35.4781 60.7151 32.1475 60.7151C32.1475 60.7151 32.108 58.9836 36.1732 55.1196C36.1732 55.1196 33.4499 54.0195 30.8743 48.2496C28.2987 42.4006 30.3472 37.7358 31.0347 36.7656C31.7108 35.8006 33.2284 33.9583 35.3889 32.7029C35.3889 32.7029 36.9982 31.7392 38.8354 31.5393C38.8354 31.5393 40.1404 31.347 41.4861 32.9639C42.7555 34.6063 44.2998 36.4906 45.0764 40.3699C45.0764 40.3699 45.8212 44.7025 45.3922 47.5149C44.9975 50.2573 44.5354 51.915 42.9159 53.5879C42.9159 53.5879 46.9938 55.1196 48.9443 58.165C48.9443 58.165 45.7245 59.209 45.0764 61.0971C45.0764 61.0971 45.8416 62.1653 48.7788 62.7586C48.7788 62.7586 48.6528 65.091 45.8735 65.6843C45.8735 65.683 42.6065 66.028 40.9909 63.9057ZM38.7386 75.8467C37.6437 75.8467 36.6812 74.9504 36.6812 73.8313C36.6812 72.7427 37.6437 71.854 38.7386 71.854C39.8577 71.854 40.6993 72.7414 40.6993 73.8313C40.6993 74.9504 39.8577 75.8467 38.7386 75.8467ZM27.1057 76.6233L21.8386 74.6741L27.1834 72.2309L32.7115 74.0808L27.1057 76.6233ZM17.8129 68.7564C17.0897 68.2255 17.3329 67.6488 17.3329 67.6488C19.1726 65.7225 19.333 64.6174 19.333 64.6174C17.7403 63.3888 13.8393 63.7058 13.8393 63.7058C14.4874 60.9965 16.2915 59.1542 16.2915 59.1542C10.743 56.5582 10.8932 50.8888 10.8932 50.8888C10.8932 40.664 20.5095 40.8257 20.5095 40.8257C19.9047 42.8322 20.2917 44.7254 20.5884 45.5377C20.8965 46.2914 21.5394 47.1228 22.7324 50.7806C23.8897 54.3989 23.0851 57.9269 23.0851 57.9269C27.1859 59.074 28.9926 61.4281 28.9926 61.4281C26.6588 63.0616 26.6588 64.723 26.6588 64.723C28.6297 65.683 31.2193 65.1687 31.2193 65.1687C31.036 67.6832 28.3611 67.9773 28.3611 67.9773C25.0457 68.4139 22.5325 65.4666 22.5325 65.4666C22.4256 69.4681 18.6188 69.2441 17.8129 68.7564ZM98.0338 50.4852C100.077 49.7952 99.8353 47.5149 99.8353 47.5149C99.396 44.8489 96.6104 45.2283 96.6104 45.2283C98.3775 43.1569 96.9745 41.5451 96.9745 41.5451C95.6097 39.8365 93.4529 40.9352 93.4529 40.9352C94.4358 38.7441 93.1359 37.6454 93.1359 37.6454C91.4044 36.1239 89.6118 37.6976 89.6118 37.6976C89.5583 35.5586 88.0165 35.0736 88.0165 35.0736C86.1895 34.2817 84.8603 35.924 84.8603 35.924C83.5286 32.251 80.9059 34.134 80.2846 34.3912C79.6594 34.7515 79.6021 34.3912 79.6021 34.3912C79.4825 29.9542 75.6999 31.6157 75.6999 31.6157C76.735 29.4003 74.95 28.1526 74.95 28.1526C73.0046 26.9533 71.389 28.6326 71.389 28.6326C71.1929 25.7043 69.012 26.5752 68.3308 26.8311C67.6713 26.9788 66.2505 27.031 66.2505 27.031C61.7702 26.4772 60.1227 26.7356 60.1227 26.7356C54.6659 26.6299 50.0787 35.6656 50.0787 35.6656V35.7433L49.9998 35.6656C49.9998 35.6656 45.3413 26.6299 39.9074 26.7356C39.9074 26.7356 38.2408 26.4784 33.7796 27.031C33.7796 27.031 32.3894 26.9788 31.6967 26.8311C31.0105 26.5739 28.8385 25.7031 28.6832 28.6326C28.6832 28.6326 27.051 26.9533 25.1056 28.1526C25.1056 28.1526 23.3206 29.4003 24.3353 31.6157C24.3353 31.6157 20.5515 29.9542 20.4292 34.3912C20.4292 34.3912 20.4127 34.7515 19.7366 34.3912C19.1433 34.134 16.5295 32.251 15.1965 35.924C15.1965 35.924 13.8393 34.2817 12.0391 35.0736C12.0391 35.0736 10.4718 35.5586 10.4209 37.6976C10.4209 37.6976 8.6079 36.1239 6.87002 37.6454C6.87002 37.6454 5.5574 38.7441 6.525 40.9352C6.525 40.9352 4.41665 39.8365 3.09129 41.5451C3.09129 41.5451 1.67425 43.1569 3.46941 45.2283C3.46941 45.2283 0.594601 44.8489 0.189734 47.5149C0.189734 47.5149 -0.0305249 49.7952 1.97853 50.4852C1.97853 50.4852 -0.376827 51.5853 0.0522301 53.4785C0.0522301 53.4785 0.18846 55.3627 2.63166 55.7281C2.63166 55.7281 0.593324 57.0841 1.43489 58.9823C1.43489 58.9823 2.24971 61.204 4.86988 60.5585C4.86988 60.5585 3.88827 62.8362 5.40461 63.8675C5.40461 63.8675 6.84203 65.091 8.60918 63.884C8.60918 63.884 9.53731 63.5441 9.92435 64.21C9.92435 64.21 10.5902 65.2807 9.17956 66.8518C9.17956 66.8518 16.7956 66.1986 18.8467 78.4771H81.093C83.1556 66.1986 90.8659 66.8518 90.8659 66.8518C89.4272 65.2807 90.1287 64.21 90.1287 64.21C90.4763 63.5454 91.4057 63.884 91.4057 63.884C93.1855 65.091 94.6561 63.8675 94.6561 63.8675C96.124 62.8362 95.1564 60.5585 95.1564 60.5585C97.8071 61.204 98.65 58.9823 98.65 58.9823C99.3986 57.0853 97.3972 55.7281 97.3972 55.7281C99.8379 55.3627 99.9486 53.4785 99.9486 53.4785C100.373 51.5853 98.0338 50.4852 98.0338 50.4852ZM19.566 85.2172C19.6984 86.6673 19.7379 87.9978 19.7379 87.9978H80.2362C80.2362 87.9978 80.2858 86.7348 80.408 85.3942C80.5455 83.9415 80.7009 82.7778 80.7009 82.7778H19.263C19.263 82.7778 19.4565 84.0039 19.566 85.2172ZM46.6055 24.8679C46.6055 24.8679 44.6614 24.8297 43.3819 25.4624C43.3819 25.4624 47.8978 26.6707 50.08 31.8996C52.2788 26.6707 56.7692 25.4624 56.7692 25.4624C55.5712 24.8284 53.5405 24.8679 53.5405 24.8679C53.3431 24.1804 52.5779 23.6469 52.5779 23.6469C53.1763 22.9314 54.3553 22.1509 54.3553 22.1509L50.08 12L45.8225 22.1509C45.8225 22.1509 46.9887 22.9314 47.5744 23.6469C47.5731 23.6456 46.7889 24.1804 46.6055 24.8679Z" fill="#A6844B"/>
</svg>
