<svg width="100" height="100" viewBox="0 0 100 100" fill="none" xmlns="http://www.w3.org/2000/svg">
<path opacity="0.969325" d="M50 100C77.6142 100 100 77.6142 100 50C100 22.3858 77.6142 0 50 0C22.3858 0 0 22.3858 0 50C0 77.6142 22.3858 100 50 100Z" fill="#F6821D"/>
<path d="M67.4255 11.2744C57.1307 11.9261 46.2615 17.8315 38.0901 34.1308C32.5726 32.5369 25.055 31.5314 23.9134 33.219C22.4459 35.3883 25.5031 41.4021 28.788 44.3359C13.6566 53.7066 15.5638 72.7406 20.801 83.2364C22.5499 69.0786 25.2254 55.5967 35.1882 47.3869C55.5808 59.0407 73.9246 55.8984 92.3421 53.3312C78.4605 50.7129 64.4145 51.4098 50.2767 42.3545C46.1426 39.7067 46.2327 35.9066 48.1462 32.7543C52.7278 25.2065 62.5012 18.2519 77.4027 12.1863C74.22 11.4275 70.8571 11.0572 67.4255 11.2744ZM19.0739 87.9483V89.3121H80.8219V87.9483H19.0739Z" fill="#005EA9"/>
</svg>
