<svg width="100" height="100" viewBox="0 0 100 100" fill="none" xmlns="http://www.w3.org/2000/svg">
<path fill-rule="evenodd" clip-rule="evenodd" d="M39.5251 14.8623L57.9959 33.3349L47.0035 72.0247L32.997 58.2842L24.6641 25.0019L39.5251 14.8623Z" fill="#007AB3"/>
<path d="M70.4972 62.498H91.3296L74.6637 77.7758L47.0054 72.0243L70.4972 62.498Z" fill="#007AB3"/>
<path d="M74.6618 77.7747L49.6629 84.6238L20.4976 99.9972L47.0052 72.0215L74.6618 77.7747Z" fill="#003568"/>
<path fill-rule="evenodd" clip-rule="evenodd" d="M32.9989 86.8076L8 91.6673L20.4994 100L32.9989 86.8076Z" fill="#3ABCDA"/>
<path fill-rule="evenodd" clip-rule="evenodd" d="M70.4937 62.4994H91.326L80.7627 58.333L70.4937 62.4994Z" fill="#003568"/>
<path fill-rule="evenodd" clip-rule="evenodd" d="M87.6772 65.8436L91.3278 69.4924V62.498L87.6772 65.8436Z" fill="#003568"/>
<path fill-rule="evenodd" clip-rule="evenodd" d="M70.4974 62.4985L57.9997 33.335L47.0073 72.0247L70.4974 62.4985Z" fill="#3ABCDA"/>
<path fill-rule="evenodd" clip-rule="evenodd" d="M24.6642 25.0024L28.8324 4.17002L12.1665 0L24.6642 25.0024Z" fill="#003568"/>
<path fill-rule="evenodd" clip-rule="evenodd" d="M39.5254 14.865L28.8308 4.17578L24.6626 25.0082L39.5254 14.865Z" fill="#3ABCDA"/>
</svg>
