<svg width="100" height="100" viewBox="0 0 100 100" fill="none" xmlns="http://www.w3.org/2000/svg">
<path d="M0 25C0 11.1929 11.1929 0 25 0H75C88.8072 0 100 11.1929 100 25V75C100 88.8072 88.8072 100 75 100H25C11.1929 100 0 88.8072 0 75V25Z" fill="url(#paint0_linear_2099_1237)"/>
<path d="M12.7972 55.8362C11.9739 31.9431 35.9474 44.8494 46.1889 36.5761C46.1889 36.5761 43.7191 37.8337 36.2438 37.6351C19.8773 36.9732 8.8784 36.6092 12.7972 55.8362Z" fill="white"/>
<path d="M53.3348 68.8418C50.002 44.5 20.4371 48.1256 15.728 51.8982C22.7752 49.3831 44.9375 49.1515 49.5478 68.8418C50.6254 75.4316 52.3804 89.5417 52.8709 100H61.2487C58.6244 94.7113 55.5392 84.9411 53.3348 68.8418Z" fill="white"/>
<path d="M100.002 41.9656C92.2444 40.3096 84.198 39.6579 78.9549 38.2639C86.9278 40.3867 94.1053 43.5526 100.002 47.6253V41.9656Z" fill="white"/>
<path d="M70.821 24.2987C45.8266 21.7836 35.5523 35.9805 35.5523 35.9805C44.5423 26.4166 65.2558 27.3101 90.7441 36.0466C93.8186 37.1036 96.9566 38.4322 100.002 39.8755V32.4197C91.1854 28.1797 80.8856 25.3216 70.821 24.2987Z" fill="white"/>
<defs>
<linearGradient id="paint0_linear_2099_1237" x1="50" y1="99.9721" x2="50" y2="0" gradientUnits="userSpaceOnUse">
<stop stop-color="#F04E30"/>
<stop offset="1" stop-color="#FFC233"/>
</linearGradient>
</defs>
</svg>
