<svg width="100" height="100" viewBox="0 0 100 100" fill="none" xmlns="http://www.w3.org/2000/svg">
<path d="M100 50.0109C100 77.6338 77.63 100 50.0152 100C22.3968 100 0 77.6338 0 50.0109C0 22.388 22.3968 0 50.0152 0C77.6303 0 100 22.388 100 50.0109Z" fill="#BED600"/>
<path d="M46.3719 23.9131C38.4961 23.9131 33.3868 24.3484 29.6883 25.7214C23.473 28.1425 19.1807 33.2169 19.1807 39.8855C19.1807 45.4396 21.767 49.462 29.2515 54.0883C37.2374 58.9295 38.8305 60.5294 38.8305 63.4465C38.8305 66.6391 35.7024 70.2731 27.6538 70.2731C24.8446 70.2731 20.6134 69.8844 17.9097 69.2229L16.6196 68.8976C15.8999 70.827 14.2662 75.3909 13.7681 77.0468L15.0455 77.4225C17.4775 78.1983 23.2493 78.804 27.3846 78.804C41.1412 78.804 49.349 70.4929 49.349 61.7899C49.349 56.4421 46.9215 52.3777 38.7155 47.2575C34.5993 44.7256 32.5017 43.0838 31.2278 41.8127C30.1952 40.4859 30.0809 39.4985 30.0809 38.4553C30.0809 37.4594 30.3024 36.3118 30.959 35.4712C31.6691 34.4319 32.9716 33.7697 34.7344 33.2233C36.5463 32.6221 39.9033 32.6063 45.1318 32.6063H50.0002L53.4765 23.9134H46.3719V23.9131ZM83.1635 23.9131H58.6993L55.2227 32.6055H63.3317C68.7881 32.6055 69.8376 32.4881 71.2078 32.4881C69.2298 37.0132 57.3083 67.3923 57.3083 67.3923H67.3978C67.3978 67.3923 82.4911 29.5755 84.0906 25.6107C84.5337 24.7259 84.3135 23.9131 83.1635 23.9131Z" fill="white"/>
</svg>
