<svg width="100" height="100" viewBox="0 0 100 100" fill="none" xmlns="http://www.w3.org/2000/svg">
<path d="M0 17L25.3761 82.8317H100L27.7675 17H0Z" fill="white"/>
<path d="M26.7598 79.8513L70.8096 59.5312L85.002 72.4038C89.2598 76.218 93.4359 80.1068 93.4359 80.1068H26.8591L26.7598 79.8513Z" fill="#163683"/>
<path d="M10.7509 38.5092H47.5874L26.8629 19.3564H3.41699L10.7509 38.5092Z" fill="#D92632"/>
<path d="M11.0381 39.1758L52.2991 42.8303L67.7795 56.7354L26.3375 78.7692L55.3363 51.5197L11.0381 39.1758Z" fill="#008A43"/>
<path d="M11.29 39.8535L37.3296 56.7283L26.0786 78.0738L11.29 39.8535Z" fill="#231F20"/>
<path d="M13.5005 29.3792C13.5005 27.9047 14.0863 26.4905 15.1289 25.4478C16.1716 24.4051 17.5858 23.8193 19.0604 23.8193C20.535 23.8193 21.9491 24.4051 22.9918 25.4478C24.0345 26.4905 24.6203 27.9047 24.6203 29.3792C24.6203 30.8538 24.0345 32.268 22.9918 33.3107C21.9491 34.3533 20.535 34.9391 19.0604 34.9391C17.5858 34.9391 16.1716 34.3533 15.1289 33.3107C14.0863 32.268 13.5005 30.8538 13.5005 29.3792" fill="#FCAF17"/>
<path d="M11.29 39.8535L37.3296 56.7283L26.0785 78.0737L26.3411 78.7692L55.3363 51.5197L11.0381 39.1758L11.29 39.8535Z" fill="#FCAF17"/>
</svg>
