<svg width="100" height="100" viewBox="0 0 100 100" fill="none" xmlns="http://www.w3.org/2000/svg">
<path d="M0 25C0 11.1929 11.1929 0 25 0H75C88.8072 0 100 11.1929 100 25V75C100 88.8072 88.8072 100 75 100H25C11.1929 100 0 88.8072 0 75V25Z" fill="#004A8F"/>
<path d="M37.0653 52.9215C37.0653 52.9215 32.7946 35.2109 42.5292 32.3847C52.2637 29.5586 53.6454 33.892 53.6454 33.892L53.9594 36.2785L56.5343 35.0853L57.1624 38.6023C57.1624 38.6023 64.5732 37.2834 63.6939 40.5492C62.8147 43.815 50.1284 46.8923 48.3699 54.2403C48.3699 54.2403 67.5249 41.3028 76.443 43.9406C85.3611 46.5783 81.7813 50.4093 81.7813 50.4093L83.791 51.9794L81.4673 54.1147L85.5495 61.2743C85.5495 61.2743 85.4239 68.6223 74.4961 72.3277L59.7373 64.9797C59.7373 64.9797 73.5541 75.6563 69.2834 83.5067C64.95 91.42 60.1141 88.0286 60.1141 88.0286L57.7904 84.072L55.9063 87.3378L54.2734 86.2701C54.2734 86.2701 42.3407 90.0383 41.2103 89.4731C40.0798 88.9078 38.6353 78.2941 42.5292 72.9558C46.3602 67.6175 42.2779 73.6466 42.2779 73.6466C42.2779 73.6466 32.8574 78.6081 29.0264 86.6469C25.1954 94.623 18.1614 85.2652 18.1614 85.2652L18.7266 82.3135H16.9053L11.6298 80.4922C11.6298 80.4922 6.91959 66.9266 13.514 60.3951C20.1083 53.8007 18.601 56.8153 18.601 56.8153L16.9681 53.3611L20.1083 53.8635C20.1083 53.8635 23.3741 44.1918 25.5722 43.8778C27.7075 43.5637 34.9927 60.2067 41.1475 61.3999C47.1766 62.5932 37.6933 56.6269 37.0653 52.9215Z" fill="#F04923"/>
<path d="M77.0078 30.6262C76.4425 29.6214 74.684 30.061 73.114 31.5683C72.7371 31.8823 72.4859 32.2591 72.1719 32.6359C72.2975 32.1963 72.2975 31.7567 72.1091 31.4427C71.6695 30.6262 70.225 31.003 68.9689 32.1963C67.7129 33.3896 67.022 35.0225 67.4616 35.7761C67.9013 36.5926 69.3457 36.2157 70.6018 35.0225C70.853 34.8341 71.0414 34.5828 71.2299 34.3316C71.1042 34.6456 71.0414 34.9597 71.0414 35.3365C61.2441 49.7813 52.8284 57.6317 49.1858 60.7091C47.4273 57.4433 45.6688 54.1147 44.036 50.8489C45.0408 55.308 45.2292 64.4145 45.2292 64.4145L39.3885 63.8493C39.3885 63.8493 40.0165 66.5498 38.4464 65.9846C36.8764 65.4193 32.2917 61.9024 31.6009 63.0328C30.91 64.1633 37.1904 66.5498 33.7362 66.1102C30.282 65.7334 24.0645 69.5016 24.0645 69.5016C34.1758 67.9315 36.3111 67.8687 36.3111 67.8687L42.2147 67.7431C42.4659 69.8156 45.6688 70.318 46.8621 70.5064C48.1182 70.6948 47.6786 66.7382 49.1858 68.3083C50.7559 69.8784 53.0168 76.724 53.0168 76.724C53.3309 74.9655 51.9492 66.9894 51.9492 66.9894C51.9492 66.9894 53.3937 69.0619 54.3357 70.004C55.2778 71.0089 56.9735 70.1296 57.0991 67.4919C57.2247 64.8541 51.6352 64.4773 54.2101 62.2164C56.7851 59.9554 62.877 64.2889 63.819 63.0956C64.7611 61.9652 61.9349 58.5738 61.9349 58.5738C62.8142 58.1341 73.114 54.3659 73.114 54.3659C68.4037 54.3031 58.5436 57.8201 53.2053 59.9554C56.9107 54.1147 65.0123 44.9454 70.7902 38.7279C70.7274 39.0419 70.7274 39.3559 70.9158 39.6699C71.3555 40.4864 72.7999 40.1096 74.056 38.9163C75.3121 37.723 76.0029 36.0901 75.5633 35.3365C75.5005 35.2737 75.4377 35.2109 75.3749 35.1481C76.8194 33.5152 77.573 31.6311 77.0078 30.6262ZM82.6601 16.6211C83.9162 15.4278 84.607 13.7949 84.1674 12.9785C83.7277 12.162 82.2833 12.5388 81.0272 13.7321C79.7711 14.9254 79.0803 16.5583 79.5199 17.3119C79.9595 18.1283 81.3412 17.8143 82.6601 16.6211ZM73.8048 24.9739C74.8096 24.0319 75.3749 22.713 74.9981 22.085C74.6212 21.4569 73.4908 21.7081 72.4859 22.6502C71.4811 23.5922 70.9158 24.9111 71.2927 25.5391C71.6695 26.23 72.7999 25.9788 73.8048 24.9739ZM89.8825 11.3456C89.5057 10.7175 88.3752 10.9687 87.3703 11.9108C86.3655 12.8528 85.8003 14.1717 86.1771 14.7998C86.5539 15.4278 87.6844 15.1766 88.6892 14.2345C89.6941 13.2925 90.2593 12.0364 89.8825 11.3456ZM81.6552 29.1817C80.3992 30.375 79.7083 32.0079 80.1479 32.7615C80.5876 33.578 82.032 33.2012 83.2881 32.0079C84.5442 30.8146 85.235 29.1817 84.7954 28.4281C84.3558 27.6117 82.9113 27.9257 81.6552 29.1817ZM83.0369 20.6405C82.4717 19.6356 80.7132 20.0752 79.1431 21.5825C77.573 23.0898 76.7566 25.0995 77.3218 26.1044C77.887 27.1092 79.6455 26.6696 81.2156 25.1623C82.7857 23.655 83.6021 21.6453 83.0369 20.6405ZM44.0988 50.8489C43.8475 49.8441 43.5963 49.0276 43.2823 48.6508C42.7799 48.0228 43.2195 49.0904 44.0988 50.8489Z" fill="#FDB913"/>
</svg>
