<svg width="100" height="100" viewBox="0 0 100 100" fill="none" xmlns="http://www.w3.org/2000/svg">
<path d="M50 0.0826446C53.0579 0.0826446 56.0331 0.330578 59.0083 0.826446C46.1983 11.8182 36.5289 18.3471 42.6446 44.2975C49.2562 72.8099 34.2149 75.2066 21.7355 87.1074H72.8926C81.5702 80.1653 92.314 70.6612 89.7521 55.8678C87.7686 44.2975 92.9752 38.6777 97.5207 34.4628C99.1736 39.3388 100 44.5455 100 50C100 77.5207 77.5207 100 50 100C22.4793 99.9174 0 77.438 0 50C0 22.562 22.4793 0 50 0V0.0826446ZM74.7107 6.69422C76.1157 7.43802 77.3554 8.34711 78.595 9.17355C73.8017 12.8099 68.6777 16.6942 64.876 21.157C48.843 39.6694 70.9917 60.1653 52.8926 78.0165C58.0992 66.281 57.686 56.281 55.0413 39.5868C53.2231 28.4298 62.8099 15.6198 74.876 6.69422H74.7107ZM88.6777 18.4298C89.5041 19.5041 90.4132 20.6612 91.2397 21.7355C84.3802 26.5289 74.9587 31.157 75.9504 44.3802C77.1074 60.1653 75.2893 72.0661 67.8512 78.5124C73.2231 67.686 73.9669 54.3802 72.0661 41.3223C70.3306 30.0826 78.7603 25.2066 88.6777 18.4298Z" fill="#3E4095"/>
</svg>
