<svg width="100" height="100" viewBox="0 0 100 100" fill="none" xmlns="http://www.w3.org/2000/svg">
<path d="M0 25C0 11.1929 11.1929 0 25 0H75C88.8072 0 100 11.1929 100 25V75C100 88.8072 88.8072 100 75 100H25C11.1929 100 0 88.8072 0 75V25Z" fill="#C30B12"/>
<path d="M77.66 55.2029C75.6172 57.1842 72.815 57.7666 71.6481 56.6011C70.4804 55.4355 71.0635 52.5806 73.107 50.5993C75.1497 48.618 77.8934 47.9763 79.0611 49.1426C80.2288 50.2496 79.7034 53.2215 77.66 55.2029Z" fill="#FCD20A"/>
<path d="M85.9498 54.9118C84.4902 56.5434 82.5053 57.1258 81.5132 56.31C80.5796 55.4942 80.9293 53.338 82.3889 51.7071C83.8485 50.1333 85.8913 49.3754 86.8256 50.1911C87.8177 51.0655 87.4087 53.2795 85.9498 54.9118Z" fill="#FCD800"/>
<path d="M51.5088 44.713C48.7652 44.1306 44.9709 45.0634 42.3443 47.6272C39.6006 50.3079 37.6157 54.0365 38.7249 57.067C39.1331 58.2911 40.9432 59.5151 42.3443 59.5729C45.1457 59.6893 48.3562 58.4074 50.5167 56.4261C52.8514 54.2699 54.1354 51.1237 54.1947 48.8505C54.1947 48.3266 54.1947 48.0347 54.0776 47.4523C53.8442 46.1704 52.5602 44.9456 51.5088 44.713Z" fill="#F8A81B"/>
<path d="M66.4516 55.4934C63.708 58.1157 59.681 59.0485 58.1043 57.5333C56.5284 55.9595 57.462 52.1139 60.2056 49.4909C62.8907 46.8694 66.7436 46.2277 68.2617 47.8015C69.8369 49.3168 69.1368 52.8711 66.4516 55.4934Z" fill="#F9BB16"/>
<path d="M84.374 42.6738C82.681 44.9463 79.9951 45.937 78.6533 45.0049C77.3107 44.0727 77.3107 41.1585 78.9452 38.886C80.6375 36.6135 83.3819 35.448 84.7237 36.3801C86.0663 37.3122 86.0663 40.4013 84.374 42.6738Z" fill="#FCD20A"/>
<path d="M90.8519 45.121C89.51 46.9853 87.5251 47.8596 86.4159 47.1023C85.3068 46.3451 85.4824 44.1304 86.8249 42.2661C88.1675 40.4596 90.2102 39.4104 91.3194 40.1677C92.37 40.9257 92.1944 43.3146 90.8519 45.121Z" fill="#FCD800"/>
<path d="M62.5416 35.4484C59.1556 39.5274 53.9602 41.159 51.7419 39.0613C49.1738 36.5554 49.0568 32.5927 52.8511 27.815C56.9373 22.6868 61.491 22.4534 63.8842 24.3762C66.2189 26.2997 65.9269 31.3694 62.5416 35.4484Z" fill="#F9B517"/>
<path d="M75.208 39.4691C72.6977 43.6645 68.8456 43.723 67.1526 42.3826C65.4596 40.9837 65.9264 37.021 68.3781 34.1076C70.8298 31.1941 74.6827 30.0286 76.2586 31.6016C77.5434 32.8842 77.1344 36.2052 75.208 39.4691Z" fill="#FAC113"/>
<path d="M48.0061 14.7026C39.1327 10.9741 30.2016 22.9776 30.9025 29.7374C31.4856 34.9234 34.7553 37.0211 39.4247 36.3223C39.4832 36.2645 39.6003 36.2645 39.6588 36.2645C44.5622 35.6229 48.6477 31.6017 50.5163 28.1058C51.158 26.8818 51.6255 25.425 51.8589 23.9098C51.9167 23.3274 51.9752 22.6864 51.9752 22.1033C51.9174 18.8986 50.7497 15.8681 48.0061 14.7026Z" fill="#F7A11C"/>
<path d="M29.3842 41.5665C27.3415 41.9162 25.4151 42.732 23.6635 43.8975C20.8036 45.5869 18.4682 47.8017 17.0671 50.4824C15.3748 53.7456 15.6075 56.7176 17.0093 58.7568C17.6509 59.8638 18.5845 60.5054 19.461 60.9129C19.9278 61.0878 20.4531 61.2627 20.9784 61.379C22.4958 61.7287 24.2474 61.7287 26.1738 61.2041C31.7774 59.6889 38.1991 53.5708 38.1405 47.8017C38.1983 42.1489 34.0543 40.5758 29.3842 41.5657" fill="#F7991D"/>
<path d="M84.3152 63.8266C82.7392 65.3418 80.7543 65.8079 79.8207 64.9343C78.9449 64.06 79.4117 61.9623 80.9877 60.447C82.5636 58.9318 84.6071 58.3494 85.5407 59.223C86.475 60.0973 85.8911 62.3113 84.3152 63.8266Z" fill="#FCD800"/>
<path d="M74.6242 66.6823C72.5229 68.5465 69.8378 69.0133 68.7286 67.7893C67.678 66.5659 68.4952 64.06 70.655 62.195C72.8148 60.3886 75.3251 59.864 76.4342 61.088C77.5434 62.3699 76.784 64.8173 74.6242 66.6823Z" fill="#FCD20A"/>
<path d="M61.6656 70.6449C58.8049 73.0923 55.244 73.7332 53.7851 72.1016C52.3255 70.47 53.4932 67.1483 56.3532 64.7009C59.2139 62.2535 62.5992 61.6126 64.0589 63.2442C65.5763 64.8758 64.5256 68.1975 61.6656 70.6449Z" fill="#F9BD15"/>
<path d="M45.729 65.1673C40.0083 63.5357 30.9601 70.82 32.2449 76.5306C32.5368 77.8125 34.3462 78.978 35.7473 79.1529C41.468 79.7353 47.8888 73.6757 48.2393 69.3041C48.1815 68.7802 48.1815 68.3141 48.1815 67.7895C48.0059 66.5077 46.7219 65.4585 45.729 65.1673Z" fill="#F9A81A"/>
<path d="M30.377 71.5185C29.3256 67.2068 24.0724 67.5566 20.5693 68.5472C19.2853 68.8384 17.9427 69.363 16.7172 70.004C14.9072 70.8783 13.3897 71.9853 12.0472 73.2671C10.3542 74.8987 7.49345 78.5117 8.0773 82.0083C8.66115 85.679 13.3312 86.786 17.476 85.7953C22.4958 84.6883 31.9529 78.2205 30.377 71.5185Z" fill="#F79A1D"/>
</svg>
