<svg width="100" height="100" viewBox="0 0 100 100" fill="none" xmlns="http://www.w3.org/2000/svg">
<path d="M0 25C0 11.1929 11.1929 0 25 0H75C88.8072 0 100 11.1929 100 25V75C100 88.8072 88.8072 100 75 100H25C11.1929 100 0 88.8072 0 75V25Z" fill="#2B3087"/>
<path fill-rule="evenodd" clip-rule="evenodd" d="M57.0725 76.1658H52.3353C50.7068 76.1658 49.1524 76.1658 47.672 76.3139C47.0799 76.3139 46.9318 76.1658 47.0799 75.5737C47.3223 74.2405 47.5867 72.9293 47.8492 71.6282C48.0676 70.5455 48.2845 69.4696 48.4863 68.3938C48.5234 68.1339 48.5419 68.0044 48.4857 67.9398C48.4299 67.8757 48.3004 67.8757 48.0421 67.8757H41.0103C40.6402 67.8757 40.3441 68.0237 40.1221 68.3198C39.1598 69.5781 38.1791 70.818 37.1983 72.0578C36.2176 73.2976 35.2368 74.5374 34.2746 75.7957C33.9785 76.0918 33.6824 76.2399 33.3123 76.2399H30.9437C30.898 76.2399 30.8524 76.243 30.808 76.246C30.6366 76.2578 30.4844 76.2682 30.4256 76.0918C30.3515 75.8698 30.4996 75.7217 30.6476 75.5737C31.8689 74.0563 33.1088 72.5204 34.3486 70.9845C35.5884 69.4486 36.8282 67.9127 38.0495 66.3953C42.3824 61.0721 46.6635 55.7489 50.9794 50.3824L50.9801 50.3814L50.9986 50.3585L51.051 50.2933C51.8724 49.272 52.695 48.2491 53.5196 47.2243C53.9637 46.6322 54.4078 46.4101 55.148 46.4101H62.772C63.3641 46.4101 63.5122 46.4841 63.3641 47.0763C62.7993 50.0617 62.2125 53.0252 61.6277 55.9787L61.6274 55.9802C61.1393 58.4449 60.6527 60.9027 60.1813 63.3605C59.7742 65.396 59.3671 67.4501 58.96 69.5041C58.5529 71.5582 58.1458 73.6122 57.7387 75.6477C57.6646 76.0178 57.4426 76.1658 57.0725 76.1658ZM29.0932 45.818C30.1295 45.6699 31.1657 45.6699 32.202 45.6699C34.6447 45.7439 37.0873 46.114 39.4559 47.3724C40.1961 47.7425 40.2701 47.9645 40.1221 48.7787C40.0851 49.0378 40.0296 49.2783 39.9741 49.5188C39.9186 49.7593 39.863 50.0001 39.826 50.2591C39.752 50.7772 39.6039 50.8513 39.1598 50.5552C38.1976 49.963 37.1613 49.3709 36.051 49.0748C35.0888 48.8528 34.1265 48.7047 33.1643 48.7787C30.9437 48.9268 29.5373 50.4812 29.6113 52.7017C29.6113 53.6974 29.8729 54.6407 30.1322 55.5757C30.1813 55.7528 30.2304 55.9299 30.2775 56.1066C30.6106 57.55 30.9622 58.9749 31.3138 60.3997C31.6654 61.8246 32.017 63.2495 32.3501 64.6929C33.2383 68.8379 31.5358 72.6869 27.9089 74.8335C26.0584 75.9438 24.0599 76.4619 21.9133 76.684C18.9526 76.906 16.0658 76.684 13.2531 75.6477C12.0688 75.2776 10.9585 74.6855 9.92223 73.9453C9.85078 73.8738 9.77167 73.8024 9.68983 73.7285C9.51732 73.5727 9.33263 73.4059 9.18204 73.2051C8.95998 72.909 8.81194 72.5389 8.95998 72.0948C9.07101 71.7617 9.16353 71.4286 9.25606 71.0955C9.34858 70.7624 9.44111 70.4294 9.55213 70.0963C9.70017 69.5781 9.99625 69.5041 10.3663 69.8742C11.9948 71.4286 13.7712 72.6129 15.9178 73.2791C17.1761 73.6492 18.4344 73.7972 19.7668 73.5012C21.5433 73.1311 22.6535 71.8727 22.8016 69.9482C22.9444 68.6627 22.6738 67.515 22.3887 66.3057L22.3575 66.1733C22.0044 64.6042 21.6098 63.056 21.2177 61.5175C20.8699 60.1529 20.524 58.7959 20.2109 57.439C19.3227 53.664 20.655 50.0371 23.6158 47.8905C25.2442 46.7062 27.0947 46.114 29.0932 45.818ZM79.1302 46.04C80.4626 45.818 81.8689 45.6699 83.7934 45.7439C85.792 45.7439 88.3086 46.1881 90.4552 47.2983C91.1213 47.6684 91.1954 47.8165 91.0473 48.5567C90.9733 49.0748 90.8993 49.5929 90.7512 50.1111C90.6032 50.6292 90.4552 50.7032 90.011 50.4072C88.8267 49.667 87.6424 49.0748 86.2361 48.7787C85.3478 48.6307 84.5336 48.5567 83.6454 48.7047C81.6469 49.0748 80.4626 50.5552 80.5366 52.5537C80.5366 53.5493 80.7981 54.4926 81.0574 55.4276C81.1065 55.6048 81.1556 55.7817 81.2028 55.9586C81.5358 57.402 81.8874 58.8268 82.239 60.2517C82.5906 61.6766 82.9422 63.1015 83.2753 64.5448C84.2375 68.6899 82.5351 72.6129 78.8341 74.7595C77.0577 75.7957 75.0592 76.3139 72.9866 76.5359C70.0999 76.832 67.2131 76.61 64.4004 75.6477C63.1421 75.2036 61.9578 74.6114 60.9215 73.7972C60.2553 73.3531 59.8852 72.761 60.1813 71.8727C60.3145 71.5174 60.3678 71.1621 60.4211 70.8069C60.4566 70.57 60.4922 70.3331 60.5514 70.0963C60.5678 70.0471 60.5805 69.998 60.5929 69.9505C60.6363 69.7832 60.6745 69.6358 60.8475 69.5781C61.033 69.5163 61.1669 69.6612 61.2923 69.7968C61.3047 69.8103 61.3174 69.8241 61.3297 69.8371C61.3384 69.8463 61.347 69.8553 61.3556 69.8641C61.359 69.8675 61.3623 69.8709 61.3656 69.8742C62.846 71.2806 64.4744 72.4649 66.3989 73.1311C67.8053 73.5752 69.2857 73.7972 70.766 73.5012C72.5425 73.1311 73.5788 71.8727 73.8008 70.0963C73.9439 68.7369 73.6721 67.5158 73.3864 66.2325L73.3567 66.0992C73.0606 64.6188 72.6905 63.1755 72.3204 61.7321C71.9504 60.2887 71.5803 58.8453 71.2842 57.365C70.544 54.1081 71.2102 51.1473 73.7268 48.7047C75.2072 47.2243 77.1317 46.4841 79.1302 46.04ZM50.9289 55.3664C51.0029 54.9778 51.0769 54.5892 51.1509 54.1821C50.9289 54.1821 50.8549 54.3302 50.9289 54.4042C49.5595 56.1436 48.2087 57.8831 46.8578 59.6225C45.507 61.362 44.1561 63.1014 42.7868 64.8409C42.7725 64.8552 42.7555 64.8694 42.7379 64.8842C42.664 64.9462 42.579 65.0174 42.6387 65.137C42.6961 65.2517 42.798 65.233 42.8754 65.2188C42.8978 65.2147 42.9182 65.211 42.9348 65.211H48.5603C48.9304 65.211 49.0784 65.063 49.1524 64.6929C49.4115 63.3235 49.6706 61.9727 49.9296 60.6218C50.1887 59.271 50.4478 57.9201 50.7068 56.5507C50.7809 56.1436 50.8549 55.755 50.9289 55.3664Z" fill="white"/>
</svg>
