<svg width="101" height="101" viewBox="0 0 101 101" fill="none" xmlns="http://www.w3.org/2000/svg">
<path d="M10.1806 95.4397C14.2857 95.4397 17.4056 92.1824 17.4056 88.2736C17.4056 84.202 14.1215 81.1075 10.1806 81.1075C6.07553 81.1075 2.95566 84.3648 2.95566 88.2736C2.95566 92.1824 6.23973 95.4397 10.1806 95.4397Z" fill="#E5002B"/>
<path d="M88.0131 95.2769C91.954 95.2769 95.0739 92.1824 95.0739 88.2736C95.0739 84.3648 91.954 81.2704 88.0131 81.2704C84.0722 81.2704 80.9524 84.3648 80.9524 88.2736C80.9524 92.1824 84.0722 95.2769 88.0131 95.2769Z" fill="#E5002B"/>
<path d="M49.0969 100.163C55.665 100.163 61.0837 94.7883 61.0837 88.2736C61.0837 81.759 55.665 76.3844 49.0969 76.3844C42.5287 76.3844 37.11 81.759 37.11 88.2736C37.11 94.7883 42.5287 100.163 49.0969 100.163Z" fill="#E5002B"/>
<path d="M10.1806 59.772C15.7635 59.772 20.3612 55.2117 20.3612 49.6743C20.3612 44.1368 15.7635 39.5765 10.1806 39.5765C4.5977 39.5765 0 44.1368 0 49.6743C0 55.2117 4.5977 59.772 10.1806 59.772Z" fill="#E5002B"/>
<path d="M88.0131 61.4007C94.5813 61.4007 100 56.0261 100 49.5114C100 42.9967 94.5813 37.6222 88.0131 37.6222C81.445 37.6222 76.0263 42.9967 76.0263 49.5114C76.1905 56.1889 81.445 61.4007 88.0131 61.4007Z" fill="#E5002B"/>
<path d="M49.0969 63.355C56.6502 63.355 62.89 57.1661 62.89 49.6743C62.89 42.1824 56.6502 35.9935 49.0969 35.9935C41.5435 35.9935 35.3038 42.1824 35.3038 49.6743C35.468 57.1661 41.5435 63.355 49.0969 63.355Z" fill="#E5002B"/>
<path d="M88.0131 21.8241C94.0887 21.8241 99.0148 16.9381 99.0148 10.9121C99.0148 4.88599 94.0887 0 88.0131 0C81.9376 0 77.0115 4.88599 77.0115 10.9121C77.1757 17.101 82.1018 21.8241 88.0131 21.8241Z" fill="#E5002B"/>
<path d="M49.0969 18.8925C53.5304 18.8925 56.9786 15.3094 56.9786 11.0749C56.9786 6.84039 53.3662 3.25733 49.0969 3.25733C44.6634 3.25733 41.2151 6.84039 41.2151 11.0749C41.2151 15.3094 44.8276 18.8925 49.0969 18.8925Z" fill="#E5002B"/>
<path d="M10.1806 18.0782C14.1215 18.0782 17.2414 14.9837 17.2414 11.0749C17.2414 7.16612 14.1215 4.07166 10.1806 4.07166C6.23973 4.07166 3.11986 7.16612 3.11986 11.0749C3.11986 14.9837 6.23973 18.0782 10.1806 18.0782Z" fill="#E5002B"/>
</svg>
