<svg width="100" height="100" viewBox="0 0 100 100" fill="none" xmlns="http://www.w3.org/2000/svg">
<path d="M41.2535 69.0469C40.0998 70.9253 24.5745 93.5845 24.5745 93.5845L58.3881 93.5862C61.9092 93.5862 63.3075 91.9221 64.5355 90.1667C64.8704 89.6888 66.0452 87.9645 67.4929 85.8396C70.2588 81.7799 74.0208 76.2582 74.8255 75.1723C76.0505 73.4971 77.7419 72.4616 79.4569 72.1175V71.8852H71.405C69.0283 71.8852 67.1815 74.4556 66.3132 75.6641C66.247 75.7562 66.1865 75.8404 66.1319 75.915C65.9316 76.1971 65.3133 77.1164 64.4904 78.34C62.2178 81.7192 58.3845 87.4191 57.4842 88.4259C57.3931 88.5269 57.3028 88.6295 57.2118 88.7329C56.0783 90.0209 54.8387 91.4292 50.7273 91.4292H38.4669C38.4669 91.4292 53.9403 68.1366 55.7988 65.0964C58.0769 61.4108 58.3993 55.9985 55.7988 51.9487C54.7316 50.3227 32.3393 14.8084 32.3393 14.8084C30.6106 11.3984 30.9785 9.06617 32.1781 7.28508C33.6567 5.09685 37.2123 0 37.2123 0C37.2123 0 63.8882 41.9705 65.2133 44.2903C68.8441 50.6866 68.1533 57.3519 65.1016 62.4004C63.701 64.6727 59.1312 71.4102 55.2595 77.1183C52.1483 81.7054 49.4879 85.6278 49.2852 86.0341C49.33 86.0341 49.4954 86.0349 49.703 86.036C50.0531 86.0378 50.5233 86.0401 50.738 86.0401C51.3591 86.0345 52.0297 85.8078 52.812 84.7724C54.0612 83.1013 60.5082 73.4912 62.4561 70.5876C62.6482 70.3013 62.7965 70.0802 62.8918 69.9383C64.2462 67.9361 66.8273 66.0461 68.9614 66.0461H80.1382L87.1426 76.6727H83.5523C82.5224 76.6727 80.2186 77.8173 79.0761 79.5384C77.9168 81.2565 70.3601 92.2045 68.4069 94.955C66.1486 98.1902 63.5881 100 58.9219 100H12.9821C12.9821 100 28.9016 76.8565 30.0552 75.0039C31.459 72.7089 31.5136 69.0696 30.2564 67.0871C29.6061 66.0577 14.1671 41.7635 14.1671 41.7635C12.0988 38.2193 12.8149 36.0135 14.0201 34.2466C15.2258 32.4689 19.0517 26.7181 19.0517 26.7181C19.0517 26.7181 40.6062 60.5456 41.2535 61.5754C42.4592 63.5228 42.6083 66.7524 41.2535 69.0469Z" fill="#F99C1C"/>
<path d="M43.5178 69.4742C42.3096 71.4477 28.8955 91.4275 28.8955 91.4275L35.8484 91.4301C35.8484 91.4301 51.5809 68.0518 53.3819 64.9884C55.5302 61.3512 56.2523 57.1094 53.6432 52.7758C52.6344 51.0778 28.3548 13.0998 28.3548 13.0998C28.3548 13.0998 24.8762 18.2425 22.9033 21.1451C21.7037 22.8088 21.258 25.132 23.0559 28.5395C23.0559 28.5395 43.0575 60.078 43.7336 61.1558C45.0596 63.2185 44.999 67.0588 43.5178 69.4742Z" fill="#F99C1C"/>
</svg>
