<svg width="100" height="100" viewBox="0 0 100 100" fill="none" xmlns="http://www.w3.org/2000/svg">
<path d="M82.0478 19.9995C78.4401 19.9995 77.2154 20.1717 75.4259 20.8989C73.7896 21.5879 73.1484 22.1527 72.0862 23.234C66.737 28.7077 61.378 34.1814 56.0287 39.6551C47.4163 48.4589 38.8134 57.2436 30.201 66.0474C27.1101 69.2148 18.7369 76.545 11.6843 79.4637C4.79433 82.3249 0 80.7554 0 83.6836H75.0623C76.115 80.9659 77.1865 78.2483 78.2487 75.5306C79.4832 72.3727 80.7272 69.2148 81.9616 66.0474C85.4066 57.2436 88.8518 48.4589 92.2967 39.6551C94.4403 34.1814 96.5934 28.7077 98.7369 23.234C99.158 22.1527 99.5789 21.0712 100 19.9995H82.0478Z" fill="url(#paint0_linear_2099_1315)"/>
<path d="M85.0955 22.627L48.952 74.158C50.3492 59.9475 61.6621 48.0336 69.8343 42.3686C63.0305 46.8949 42.8965 60.7992 16.7339 83.6987H78.6381C69.0496 50.9331 80.4065 30.847 85.0955 22.627Z" fill="white"/>
<path d="M65.5893 50.4365L48.9482 74.159C48.6419 77.2499 48.7951 80.4365 49.5606 83.6996H56.8238C54.7759 76.1781 53.3214 69.0011 65.5893 50.4365Z" fill="#D3E7EE"/>
<defs>
<linearGradient id="paint0_linear_2099_1315" x1="88.3027" y1="83.6836" x2="49.9979" y2="20.0007" gradientUnits="userSpaceOnUse">
<stop stop-color="#0272C9"/>
<stop offset="1" stop-color="#02005A"/>
</linearGradient>
</defs>
</svg>
