<svg width="100" height="100" viewBox="0 0 100 100" fill="none" xmlns="http://www.w3.org/2000/svg">
<path fill-rule="evenodd" clip-rule="evenodd" d="M22.676 58.161L17.7622 56.0304L38.1304 53.5475C38.4848 54.1374 38.8413 54.6712 39.2562 55.2049L22.676 58.161ZM77.324 58.161L82.2378 55.9137L61.9884 53.487C61.8112 54.1395 61.2775 54.6712 60.9231 55.2049L77.324 58.161ZM74.3657 58.5196L68.2073 60.5919L59.445 57.9296L58.6737 57.6941C58.9697 57.4543 59.2074 57.2167 59.445 56.9248C59.7994 56.6267 60.0955 56.2118 60.452 55.9158L74.3657 58.5196ZM90.6477 52.7782L85.023 55.3841L62.5242 52.7782C62.7014 52.2486 62.8807 51.715 63.0579 51.1771L90.6477 52.7782ZM92.6595 52.0089L100 47.3307H60.2143C60.2143 48.9922 59.9767 50.4141 59.445 51.6545C57.9044 55.6197 54.058 57.5148 50.2074 57.4522C46.4194 57.3334 42.5709 55.3841 40.8531 51.7671C40.261 50.4641 39.9066 49.0423 39.9066 47.3286H0L7.28417 52.0068L37.776 50.4099C38.366 52.5968 39.4313 54.4939 40.8531 55.9116C43.2818 58.4613 46.7738 59.881 50.2074 59.881C53.5827 59.9414 57.0184 58.701 59.445 55.972C60.748 54.5502 61.7529 52.7136 62.3449 50.5246L92.6595 52.0089ZM59.445 64.0818L60.2143 65.5078L59.445 65.8663L57.3728 66.8107L55.0045 62.1325C53.5264 62.6662 51.8669 62.9623 50.2074 63.0206C48.4312 63.0811 46.5966 62.8413 44.9976 62.3076L42.9837 66.8107C42.3312 66.867 41.4431 66.8107 40.8531 66.4C40.5571 66.2208 40.261 65.9226 40.1443 65.5078L40.8531 64.3236L42.5709 61.2403C42.0372 60.89 41.564 60.6544 41.0907 60.177L42.5126 58.4633C44.9392 59.9456 47.6036 60.7712 50.2074 60.7712C52.8134 60.8316 55.4173 59.9977 57.846 58.2841L59.4471 58.7573L60.0976 58.997C59.862 59.1722 59.6827 59.3515 59.4471 59.5307C58.9718 59.9998 58.559 60.4751 57.7897 60.89L59.445 64.0818ZM59.445 39.8693C60.9836 41.706 62.1073 43.9575 62.7014 46.5593H60.1559C59.9787 45.7859 59.7432 45.0208 59.4471 44.3119C57.7293 39.813 54.2352 36.6129 50.2095 33.9444C49.6779 33.6504 49.2047 33.296 48.671 33C49.2047 33.1793 49.6779 33.3586 50.2095 33.5379C53.8787 35.0118 57.1351 37.0278 59.445 39.8693ZM52.5757 56.5641C53.2283 56.4453 54.2331 56.0909 55.0045 55.5009L50.9767 47.5079L55.1817 45.4919L51.6292 42.4127L50.2074 43.0694L44.1095 45.8463L45.8857 49.8741L48.7877 48.5753L52.5757 56.5641ZM41.564 57.692C41.3263 57.5127 41.0887 57.2771 40.8531 57.0978C40.3798 56.6871 39.965 56.2723 39.6689 55.8553L25.7656 58.4821L31.6843 60.4689L41.564 57.692ZM37.776 52.7782C37.5383 52.2486 37.3611 51.715 37.1818 51.1771L9.35435 52.7782L14.979 55.503L37.776 52.7782Z" fill="#00529C"/>
</svg>
