<svg width="100" height="100" viewBox="0 0 100 100" fill="none" xmlns="http://www.w3.org/2000/svg">
<path fill-rule="evenodd" clip-rule="evenodd" d="M49.5843 15C50.3135 15.9658 50.7725 17.1082 50.9143 18.31C51.5212 17.7563 52.2607 17.3686 53.0614 17.1847C53.8621 17.0007 54.6967 17.0267 55.4843 17.26C54.6977 17.6437 54.0279 18.2306 53.5443 18.96C56.1226 18.5773 58.7564 18.9542 61.1238 20.0446C63.4912 21.1351 65.4895 22.8918 66.8743 25.1C66.8743 25.18 66.7843 25.2 66.7143 25.1C63.5969 22.8006 59.7406 21.7324 55.8843 22.1C61.851 23.5667 65.311 27.3267 66.2643 33.38C64.3101 31.0444 62.0691 28.9646 59.5943 27.19C58.8885 26.7036 58.1304 26.2978 57.3343 25.98C58.6424 27.5504 59.5892 29.3891 60.1077 31.3661C60.6261 33.343 60.7035 35.4098 60.3343 37.42C59.3115 33.7066 57.201 30.3841 54.2743 27.88C54.8417 30.7548 54.9498 33.7014 54.5943 36.61C54.4877 37.46 54.3105 38.2995 54.0643 39.12C53.4101 36.4665 52.6156 33.8495 51.6843 31.28C51.1787 29.9153 50.4708 28.6343 49.5843 27.48C48.6928 28.7037 47.9854 30.0513 47.4843 31.48C46.5743 33.9986 45.7933 36.5619 45.1443 39.16C44.2157 35.4784 44.1472 31.6324 44.9443 27.92C42.0255 30.42 39.9335 33.7464 38.9443 37.46C38.5581 35.4502 38.6271 33.3793 39.1463 31.3996C39.6654 29.4199 40.6215 27.5817 41.9443 26.02C40.5115 26.6864 39.1677 27.5297 37.9443 28.53C36.17 29.981 34.5453 31.6057 33.0943 33.38C33.305 30.9772 34.2119 28.6881 35.7039 26.7929C37.1959 24.8978 39.2082 23.4789 41.4943 22.71C42.1256 22.4711 42.7741 22.2805 43.4343 22.14C41.5342 21.9055 39.6059 22.0724 37.7743 22.63C35.8737 23.1922 34.0746 24.0529 32.4443 25.18C34.0294 22.5806 36.4524 20.5985 39.3143 19.56C41.3985 18.8922 43.6054 18.6974 45.7743 18.99C45.2889 18.2521 44.6205 17.6526 43.8343 17.25C44.6119 17.0322 45.4311 17.0095 46.2196 17.1839C47.008 17.3583 47.7412 17.7245 48.3543 18.25C48.5786 17.1052 48.9944 16.0064 49.5843 15Z" fill="#006936"/>
<path fill-rule="evenodd" clip-rule="evenodd" d="M2.15445 33.0303C17.0211 35.9369 31.8744 38.9003 46.7144 41.9203C46.9411 46.7803 47.1178 51.6302 47.2444 56.4702C42.5875 54.0701 37.7533 52.0309 32.7845 50.3703C27.6312 48.6604 22.1363 48.2448 16.7845 49.1602C20.0181 49.2533 23.2373 49.6314 26.4044 50.2903C30.2423 51.3828 33.974 52.8186 37.5544 54.5803C40.3811 55.9936 43.1545 57.4903 45.8745 59.0703C41.4411 61.8103 36.9445 64.4503 32.3845 66.9903C33.1178 67.9036 33.8978 68.7803 34.7245 69.6203C34.7591 69.6462 34.8012 69.6602 34.8445 69.6602C34.8877 69.6602 34.9298 69.6462 34.9644 69.6203C39.0844 66.9536 43.2445 64.3536 47.4445 61.8203C47.7911 69.4803 48.0745 77.1469 48.2945 84.8203C43.8011 79.8203 39.2878 74.8436 34.7545 69.8903C33.3636 70.794 31.8904 71.564 30.3545 72.1902C27.3824 73.1684 24.2035 73.3376 21.1445 72.6803C20.0445 72.4003 18.9411 72.1303 17.8344 71.8703C22.9809 71.6621 27.9531 69.9479 32.1345 66.9402C22.0745 55.8736 12.0411 44.7836 2.03445 33.6703C1.99839 33.5622 1.99048 33.4467 2.01148 33.3347C2.03247 33.2227 2.08168 33.1179 2.15445 33.0303Z" fill="#006936"/>
<path fill-rule="evenodd" clip-rule="evenodd" d="M96.6143 33.0301C97.181 32.9101 97.411 33.1268 97.3044 33.6801C87.2444 44.7468 77.211 55.8368 67.2044 66.9501C71.3771 69.9743 76.3545 71.6903 81.5044 71.8801C79.7977 72.3334 78.0744 72.7101 76.3344 73.0101C72.8945 73.3739 69.4258 72.676 66.3944 71.0101L64.5344 69.8901L51.0444 84.7701L50.9644 84.3301C51.2444 76.8234 51.5544 69.3168 51.8944 61.8101C56.0744 64.3835 60.2344 66.9834 64.3744 69.6101C64.409 69.6361 64.4511 69.6501 64.4944 69.6501C64.5376 69.6501 64.5797 69.6361 64.6143 69.6101C65.3743 68.7301 66.1544 67.8668 66.9544 67.0201C62.401 64.4468 57.9044 61.7801 53.4644 59.0201C58.6148 55.9049 64.0532 53.2928 69.7044 51.2201C71.7187 50.4925 73.8032 49.9764 75.9244 49.6801C78.1244 49.4001 80.3344 49.2101 82.5544 49.1101C77.2869 48.2082 71.8793 48.596 66.7944 50.2401C61.7389 51.9214 56.8209 53.9909 52.0844 56.4301C52.1777 51.5768 52.3543 46.7268 52.6143 41.8801L96.6143 33.0301Z" fill="#006936"/>
</svg>
