<svg width="100" height="100" viewBox="0 0 100 100" fill="none" xmlns="http://www.w3.org/2000/svg">
<path d="M47.1568 0.0157085H47.6909C47.6594 8.96953 47.5966 17.9391 47.8636 26.8929C49.4188 26.9243 50.9739 26.9243 52.5448 26.8615C52.2463 20.421 50.5184 14.1376 50 7.71285C56.5033 7.47722 63.038 9.07949 68.8344 12.0327C70.2796 12.7396 71.7405 13.8234 73.4527 13.6035C76.83 13.2579 80.1916 12.8495 83.5533 12.394C79.8146 16.8395 75.4477 20.7194 71.5206 24.9921C70.2953 26.3588 68.803 27.5055 67.7348 29.0135C66.9337 31.1341 67.3893 33.4904 67.5778 35.6896C69.4314 33.946 70.9708 31.9039 72.4474 29.8303C74.0968 27.4584 76.1074 25.3534 77.7254 22.95C78.3538 22.1489 78.8564 21.175 79.7204 20.5781C80.4901 20.3739 80.9456 21.1593 81.4483 21.5991C84.7628 25.3063 87.4647 29.5633 89.2554 34.213C89.8838 35.831 90.2922 37.5275 90.9048 39.1612C91.2975 40.4021 92.5071 41.0462 93.481 41.7845C95.6802 43.4339 97.8794 45.0833 100 46.8426C87.6846 47.0782 75.3691 46.6698 63.0694 47.1096C65.4571 48.4763 67.3107 50.5184 69.1015 52.5762C76.7358 51.3195 84.4329 50.5498 92.0987 49.5916C92.4285 55.3409 91.1876 61.1373 88.957 66.431C88.3915 67.8291 87.4804 69.0858 87.1034 70.5467C86.9306 74.6309 88.4072 78.5894 88.1401 82.6736C83.6318 78.3695 79.2177 73.9554 74.8822 69.4785C73.0757 67.7348 71.4734 65.7399 69.3528 64.3575C68.5203 65.6927 67.6877 67.028 66.8552 68.3475C71.2221 72.1803 75.9346 75.5891 80.4901 79.1863C76.2645 83.7103 71.0179 87.2604 65.3314 89.6638C63.5407 90.4964 61.153 90.3393 59.9592 92.1615C58.0113 94.8005 55.9849 97.3767 54.0214 100C53.88 91.7216 54.147 83.4276 53.88 75.1492C52.2777 75.0864 50.6912 75.1492 49.1046 75.3691C49.0575 76.83 49.1517 78.2752 49.4345 79.7204C50.2042 83.8517 50.4241 88.0773 51.241 92.2086C43.7637 92.7898 36.2708 90.7634 29.7047 87.2447C29.1392 86.9777 28.5423 86.6949 27.9139 86.7106C24.3795 86.8206 20.9394 87.7631 17.405 87.7945C22.306 82.5322 27.6155 77.6626 32.6893 72.573C31.9824 72.2432 31.2755 71.9133 30.5686 71.5834C30.4744 70.4367 30.3644 69.3057 30.2545 68.159C26.8772 72.1175 24.1439 76.5787 20.7666 80.5372C15.2529 75.4948 11.3572 68.7873 9.28369 61.6243C8.95382 60.5875 8.7339 59.3937 7.77568 58.7339C5.24662 56.7232 2.63902 54.8382 0 52.9689V52.6861C11.153 52.5605 22.3217 52.8746 33.459 52.4976C32.1866 50.7226 30.8043 49.0261 29.5319 47.251C27.6783 47.3296 25.8561 47.5652 24.0339 47.8951C20.5624 48.5077 17.0123 48.5391 13.5407 49.1832C11.6714 49.5287 9.77066 49.6858 7.88564 49.8586C7.46151 43.6067 9.14232 37.3704 11.7656 31.7311C12.5353 30.0346 13.8863 28.4637 13.8391 26.5159C13.7606 23.1228 12.9438 19.7926 13.1323 16.3996C19.4156 22.4317 25.322 28.8564 31.3855 35.1084C32.5165 33.9145 33.6475 32.7364 34.8413 31.5897C32.1238 28.7779 28.8093 26.673 25.809 24.191C24.0339 22.7144 22.1489 21.3949 20.421 19.8712C21.8662 17.8605 23.9554 16.4782 25.9189 15.033C30.1445 12.0013 35.0298 10.022 40.0408 8.67107C40.9991 8.46686 41.5174 7.55577 42.0986 6.84888C43.748 4.52403 45.6645 2.40339 47.2196 0L47.1568 0.0157085ZM36.5379 17.4678C37.2447 21.2378 37.983 25.0236 39.1926 28.6679C40.6378 28.448 42.0358 27.9925 43.371 27.3798C41.0462 24.1125 38.8313 20.7509 36.5379 17.4521V17.4678ZM57.0531 27.3327C58.4826 27.7725 59.9277 28.3223 61.4515 28.1181C62.1583 25.0079 63.1637 21.929 63.4307 18.7245C61.0273 21.3792 59.1737 24.4738 57.0531 27.3327ZM40.5278 32.7364C37.4018 34.1659 34.6214 36.6164 33.3333 39.8681C32.4851 42.6642 32.705 46.0101 34.8571 48.1778C39.2083 52.7019 45.476 54.3827 50.7226 57.5715C52.3563 58.4354 54.0685 59.4565 54.9482 61.1687C56.2834 63.2736 55.3252 66.3839 53.126 67.4835C51.4452 68.6459 49.2617 68.8973 47.2981 68.3946C42.1772 66.7452 37.9516 62.394 36.8363 57.0688C35.9095 56.8018 34.9513 56.7703 34.0088 56.9588C34.0088 60.776 33.8831 64.6246 34.1188 68.4417C38.8313 68.9601 42.994 71.8347 47.8165 71.7091C53.3616 71.7562 59.0638 70.044 63.2736 66.3682C65.4414 64.4832 66.7138 61.6243 66.4625 58.7339C66.7452 56.2048 65.4571 53.7543 63.4936 52.1992C58.8439 48.3977 53.1574 46.2614 47.9108 43.4339C46.0572 42.4442 44.3921 40.7948 44.0151 38.6585C43.968 36.8363 45.1932 34.9199 46.984 34.3701C49.8429 33.1605 53.2674 33.3648 55.9378 34.967C58.5925 36.8206 60.1634 39.7738 61.2001 42.7741C62.1112 43.3867 63.2579 43.1511 64.279 43.0412C63.7606 39.6167 63.6664 36.1609 63.3208 32.7207C61.4043 32.4222 59.5036 32.1395 57.6343 31.6054C51.995 30.1759 45.9158 30.5529 40.5278 32.7678V32.7364ZM18.2218 36.6007C19.8869 38.1558 21.929 39.224 23.7669 40.5592C25.4948 41.6902 27.1599 42.9155 28.9507 43.9522C29.1549 42.3814 29.2806 40.7791 29.4219 39.1926C25.6833 38.3286 22.0232 37.1348 18.2218 36.585V36.6007ZM74.2381 38.203C72.1489 38.7685 69.9654 38.957 67.8919 39.6324C67.7191 41.3761 67.7191 43.1354 67.8919 44.879C70.6252 43.6852 72.9658 41.7845 75.6205 40.4178C77.4112 39.2711 79.4848 38.5171 80.9614 36.9463C78.6679 37.0091 76.4687 37.7317 74.2381 38.203ZM24.4738 59.268C22.4003 60.6975 20.1225 61.8442 18.1904 63.4621C20.7823 63.148 23.327 62.4725 25.8875 62.0013C27.2542 61.5457 28.7936 61.5457 30.0503 60.8388C30.2702 59.1894 30.0346 57.5243 30.0346 55.8592C28.0553 56.786 26.3274 58.1213 24.4738 59.268ZM70.1382 56.1263C70.2953 57.7128 70.2953 59.2994 70.2953 60.9017C70.6095 61.4986 71.4263 61.3415 71.9761 61.5614C75.2121 62.2997 78.4794 62.7867 81.7311 63.4307C79.8775 61.7185 77.5369 60.7289 75.4634 59.3151C73.6883 58.2626 72.0704 56.8803 70.1382 56.1263ZM57.8071 74.0496C58.7496 76.0289 60.2576 77.6469 61.3886 79.5005C61.9541 80.4587 62.6139 81.3541 63.3836 82.1552C62.8966 78.9821 62.2997 75.7776 61.1687 72.7773C59.9592 72.6359 58.8753 73.547 57.8071 74.0339V74.0496ZM38.3757 73.5941C37.9045 76.453 37.1348 79.2648 36.9777 82.1709C38.7056 79.7518 40.355 77.2227 41.6902 74.568C40.5906 74.2224 39.4753 73.8926 38.36 73.5941H38.3757Z" fill="#F47C2E"/>
<path d="M40.5276 32.7368C45.9156 30.5377 51.9948 30.1449 57.6341 31.5744C59.4877 32.1085 61.4042 32.3913 63.3206 32.6897C63.6662 36.1299 63.7604 39.5857 64.2788 43.0102C63.2578 43.1201 62.111 43.3558 61.2 42.7431C60.1632 39.7428 58.5923 36.7896 55.9376 34.936C53.2672 33.3495 49.827 33.1296 46.9838 34.3391C45.2087 34.8889 43.9678 36.8053 44.0149 38.6275C44.3919 40.7639 46.057 42.4132 47.9106 43.4029C53.1572 46.2304 58.8437 48.3668 63.4934 52.1682C65.4412 53.7233 66.745 56.1739 66.4623 58.7029C66.7136 61.5933 65.4569 64.4522 63.2735 66.3372C59.0636 70.013 53.3614 71.7409 47.8163 71.6781C43.0096 71.8038 38.8311 68.9291 34.1186 68.4107C33.883 64.5936 34.0086 60.745 34.0086 56.9279C34.9511 56.7394 35.9093 56.7708 36.8361 57.0378C37.9514 62.363 42.177 66.7142 47.298 68.3636C49.2615 68.8663 51.445 68.6307 53.1258 67.4525C55.325 66.3529 56.2832 63.2427 54.948 61.1377C54.084 59.4098 52.3718 58.4045 50.7224 57.5405C45.4758 54.3517 39.2081 52.6709 34.8569 48.1468C32.7048 45.9791 32.4849 42.6175 33.3332 39.8371C34.6213 36.5854 37.4174 34.1349 40.5276 32.7054V32.7368Z" fill="#0A3B82"/>
</svg>
