<svg width="100" height="100" viewBox="0 0 100 100" fill="none" xmlns="http://www.w3.org/2000/svg">
<path fill-rule="evenodd" clip-rule="evenodd" d="M50.0579 12C49.7825 12.2989 48.7739 15.5826 48.5654 16.2549L44.1671 16.2683C44.3759 16.6872 44.0897 16.3277 44.5312 16.7038L47.6685 18.9012C47.5565 20.2612 46.5986 22.0033 46.4043 23.2861C47.3112 23.0811 49.0383 21.1565 50.0579 20.793C50.6202 20.9745 51.3586 21.6562 51.8847 22.0509C52.316 22.3754 53.1702 23.163 53.7115 23.2926C53.5269 22.0444 52.6733 20.407 52.4539 19.0507C53.4456 18.1173 54.6224 17.3817 55.7237 16.5868C55.8872 16.4122 55.8189 16.5311 55.952 16.265L51.5505 16.255C51.3462 15.58 50.3392 12.2913 50.0579 12ZM30.7143 17.9777C30.4027 18.4694 30.147 19.5653 29.9597 20.1653L29.1919 22.3172L24.754 22.3496C24.8507 22.6423 27.7817 24.7274 28.3183 25.0443C28.3569 26.2224 27.2177 28.1665 27.1169 29.4618C27.5414 29.2955 28.4979 28.4705 28.9305 28.1486C29.3457 27.8392 30.4307 26.9681 30.7805 26.8613C31.7025 27.3717 33.5243 28.9581 34.4242 29.4033C34.3633 28.2467 33.2715 26.3495 33.107 25.0346C33.6269 24.664 36.4752 22.6297 36.6679 22.3106L32.0943 22.304L30.7143 17.9777ZM69.4611 17.9943L67.9917 22.2655L63.3982 22.298L67.0088 25.0349C66.8848 26.2452 65.6789 28.4481 65.7082 29.4329C66.1334 29.2498 68.5757 27.2619 69.3387 26.8585C70.2082 27.1341 72.056 29.0991 73.0055 29.4622C72.9155 28.1667 71.7919 26.2818 71.791 25.0252C72.241 24.7598 75.2487 22.6965 75.3618 22.3565L70.9239 22.3272C70.4653 21.6659 69.8617 18.7444 69.4611 17.9943ZM16.5367 32.1568C16.1885 32.6472 15.5764 35.1832 15.2526 36.0542C15.0712 36.5417 15.2535 36.3803 14.9151 36.5418L10.6492 36.5678C10.7786 36.99 11.9097 37.6209 12.3105 37.9102C12.5475 38.0809 14.0068 39.1148 14.1076 39.2462C14.2851 39.9421 13.0486 42.5178 12.9426 43.6149C13.7092 43.3453 15.9238 41.2781 16.6459 41.0242C16.9344 41.2874 19.9254 43.4693 20.2697 43.6149L18.9129 39.321C19.1675 38.9668 19.492 38.8193 19.8031 38.5961L22.0303 36.9318C22.1306 36.8448 22.3119 36.6943 22.3017 36.4832L17.9233 36.4799L16.5367 32.1568ZM83.6156 32.1702L82.166 36.4413L77.7148 36.4547C78.0519 37.3285 80.6002 38.4093 81.1666 39.3086L79.7998 43.5993C80.1651 43.476 83.1283 41.338 83.4699 41.0249C84.0022 41.208 84.7853 41.9189 85.3067 42.3218C85.8611 42.7498 86.5097 43.3842 87.1732 43.6188C87.0722 42.5459 85.8284 39.9231 86.0116 39.2501C86.1248 39.0988 87.4471 38.1746 87.7358 37.9629C88.1221 37.6786 89.3273 37.0046 89.4633 36.5814L85.2008 36.5391C84.9132 36.4744 84.9549 36.3437 84.7242 35.5868L83.6156 32.1702ZM50.5212 35.6937C46.8045 35.5116 43.0501 37.7616 41.9763 41.912C41.7217 42.897 41.4634 45.3959 42.0061 46.2189C42.3445 46.1192 42.5605 45.801 42.8732 45.5493C48.8798 40.7194 49.9543 54.9949 46.5268 60.3945C43.8214 64.6575 38.0857 67.4705 33.2394 65.2963C31.9896 64.7353 30.355 63.4968 29.6818 62.3871C29.4633 62.6218 28.4672 64.6298 27.1865 66.2259C26.2767 67.3607 24.9446 68.4093 23.4501 69.0246C21.5921 69.7911 20.045 69.8654 17.8472 69.5057C16.7362 69.3235 15.1308 68.8265 14.1175 68.3745C13.5959 68.142 13.3202 67.8962 12.7739 68.1307C12.3121 70.1243 15.7074 75.6191 22.2389 74.7488C25.4445 74.3221 27.7874 72.0453 29.1754 69.4895C29.6413 68.6314 30.1936 66.9971 30.4132 66.6842C30.813 67.3047 31.719 68.1314 32.4088 68.7483C37.0497 72.9032 42.9042 71.1283 46.6459 66.6452C47.6296 65.4661 48.9204 63.6481 49.588 62.2115C49.7627 61.8356 49.7672 61.709 50.0579 61.5419C50.3446 61.7039 51.1864 63.4377 51.6332 64.1358C55.3088 69.8893 61.4873 73.9193 67.6376 68.7971C68.2646 68.2756 69.3306 67.2733 69.706 66.6875C70.2462 67.3783 70.5133 69.5726 72.5753 71.8428C76.6277 76.3026 83.4654 75.5988 86.3922 71.157C86.7654 70.5902 87.542 68.9427 87.342 68.1275C86.6132 67.8166 84.6021 69.1539 82.3878 69.4895C73.443 70.8457 71.6802 63.5836 70.4209 62.4228C65.3048 68.8136 56.9991 65.8663 53.5924 60.3977C51.75 57.4398 50.9589 50.9989 52.4209 47.0153C52.5681 46.6124 52.6933 46.2986 52.9206 45.9589C53.7136 44.7713 54.7313 44.1426 56.2102 44.8895C57.3574 45.4689 57.6692 46.0844 58.1131 46.2222C58.6391 45.4571 58.4108 42.9054 58.1727 42.0063C57.8169 40.6615 57.3174 39.6592 56.5842 38.7622C54.9682 36.7867 52.7513 35.803 50.5212 35.6937ZM50.0579 37.8098C53.635 37.8085 55.8508 41.3009 55.866 42.5231C51.3692 42.0942 51.2702 44.8808 50.0579 45.5948C49.7057 45.3867 49.6964 45.2173 49.4854 44.9122C48.9838 44.1859 48.5877 43.7588 47.8042 43.1992C46.6897 42.4015 45.8449 42.3731 44.2499 42.5231C44.2617 41.6211 45.5703 39.9095 46.2488 39.2888C47.2216 38.3988 48.3849 37.8107 50.0579 37.8098ZM10.9272 51.7806L9.47434 56.1005L5 56.1395C5.43106 56.7901 7.77015 58.229 8.54439 58.8439C8.52389 59.7215 7.5228 62.2049 7.25373 63.2451C7.87682 63.1226 10.6164 60.6064 11.0099 60.6512C11.3057 60.6845 14.3541 63.2092 14.7165 63.1964L13.2769 58.8602C13.5518 58.6802 13.9165 58.3585 14.2068 58.1451C14.7219 57.7656 16.628 56.4526 16.8445 56.1005L12.3536 56.0905L10.9272 51.7806ZM89.2813 51.7806L87.7821 56.0583L83.278 56.0777C83.4492 56.3727 86.2279 58.4277 86.7893 58.8439C86.6212 60.1177 85.5128 62.1602 85.4655 63.2289L89.1059 60.6545C89.7685 60.8122 90.4294 61.5237 90.9658 61.9287C91.3402 62.2121 92.4757 63.1685 92.8654 63.2484C92.5724 62.0109 91.6459 59.9758 91.5549 58.8017L94.166 56.9814C94.4667 56.7577 94.866 56.6323 95 56.2078C94.1338 55.9186 91.8253 56.1978 90.6911 56.0843L89.2813 51.7806ZM50.0612 69.2977C49.9003 69.2943 49.7379 69.3636 49.5747 69.5187C48.3988 70.6373 47.7348 73.0067 47.4964 73.3608C46.2229 73.3047 45.2867 73.2984 44.5775 74.0662C45.1916 75.7573 48.5124 77.3941 50.0579 77.3947C51.0802 77.3952 52.5437 76.7034 53.2912 76.2798C54.152 75.7907 55.2201 74.9983 55.545 74.0597C54.7888 73.2983 53.927 73.308 52.6227 73.3608C52.224 72.7778 51.1878 69.3213 50.0612 69.2977ZM69.0938 70.8644C68.3078 71.1065 67.6844 71.6642 67.0816 72.3239C66.3318 73.1441 66.0035 73.7455 65.556 74.2417C64.4153 73.6961 63.8894 73.6835 62.5709 74.0337C62.6717 75.8704 64.9219 77.7676 66.5488 78.6039C67.5314 79.1101 69.182 78.8386 70.2852 78.5715C71.3897 78.3052 72.4931 77.7461 73.0254 77.06C72.5247 75.5996 70.8605 75.8648 70.5135 75.5615C70.0481 75.1172 70.4091 71.8162 69.0938 70.8644ZM30.8996 70.9327C30.4509 71.4526 30.2021 72.2048 30.0292 72.9675C29.8772 73.6376 29.9149 74.9541 29.6817 75.5224C29.1874 75.7261 28.7013 75.6645 28.1627 75.932C27.5331 76.2446 27.4876 76.4779 27.0905 76.8746C27.3329 77.758 28.9192 78.3333 29.7314 78.5454C30.6784 78.7928 32.6355 79.0466 33.4942 78.6494C35.1116 77.9007 37.4136 75.8871 37.5582 74.0272C36.246 73.7254 35.7651 73.6666 34.5598 74.2384C34.0228 73.6353 33.624 72.9218 33.0474 72.3174C32.5143 71.7589 31.6644 70.9125 30.8996 70.9327ZM47.6189 78.1683C39.9004 78.2983 31.1795 79.5378 23.7479 81.3051L21.1368 81.9649C20.5912 82.0903 20.5773 81.9766 20.5179 82.5598C20.4237 83.4751 20.4918 86.0341 20.5676 87L27.2625 85.4463C29.3338 84.933 32.1897 84.4545 34.3315 84.1721C45.1682 82.7426 58.5893 82.646 69.3188 84.7539C71.5826 85.1988 73.8591 85.5841 76.1495 86.1939C76.8126 86.3707 79.0302 87.0093 79.5483 86.9935L79.5879 82.1112C75.6055 80.9988 68.8574 79.6366 64.6955 79.1142C59.1411 78.4174 53.5351 78.0689 47.6189 78.1683Z" fill="#F3AE00"/>
</svg>
