<svg width="100" height="100" viewBox="0 0 100 100" fill="none" xmlns="http://www.w3.org/2000/svg">
<path d="M54.0927 44.5713C33.5213 52.9999 21.9498 62.2856 13.3784 83.1427C17.0927 76.1427 19.9499 68.1427 55.2356 54.857C76.807 46.1427 87.0927 25.5713 90.2356 14.5713C84.5213 25.9999 75.2356 36.7142 54.0927 44.5713Z" fill="url(#paint0_linear_2099_1097)"/>
<path d="M49.0927 61.429C28.5213 69.8576 16.9498 79.2861 8.37842 100C12.0927 93.0004 14.9498 85.0004 50.3784 71.7147C72.0927 63.0004 82.3784 42.429 85.3784 31.2861C79.3784 42.8576 70.2356 53.5719 49.0927 61.429Z" fill="url(#paint1_linear_2099_1097)"/>
<path d="M58.5216 28.2857C39.2358 36.1429 28.3787 45 20.2358 64.5714C23.6644 58 26.3787 50.5714 59.6644 38C80.093 29.8571 89.6644 10.4286 92.5216 0C87.093 10.8571 78.5216 20.8571 58.5216 28.2857Z" fill="url(#paint2_linear_2099_1097)"/>
<defs>
<linearGradient id="paint0_linear_2099_1097" x1="13.5027" y1="48.8706" x2="90.3527" y2="48.8706" gradientUnits="userSpaceOnUse">
<stop stop-color="#ED1C2E"/>
<stop offset="0.1687" stop-color="#EF3D3D"/>
<stop offset="0.3427" stop-color="#F15B4A"/>
<stop offset="0.4068" stop-color="#F04641"/>
<stop offset="0.5112" stop-color="#ED1C2E"/>
<stop offset="0.519" stop-color="#ED2232"/>
<stop offset="0.5589" stop-color="#EF3F41"/>
<stop offset="0.6016" stop-color="#F1554D"/>
<stop offset="0.6482" stop-color="#F26555"/>
<stop offset="0.7013" stop-color="#F36E5A"/>
<stop offset="0.7753" stop-color="#F3715C"/>
<stop offset="0.8092" stop-color="#F04D49"/>
<stop offset="0.8421" stop-color="#EF323A"/>
<stop offset="0.8711" stop-color="#ED2231"/>
<stop offset="0.8933" stop-color="#ED1C2E"/>
<stop offset="1" stop-color="#ED1C2E"/>
</linearGradient>
<linearGradient id="paint1_linear_2099_1097" x1="8.25842" y1="65.6926" x2="85.3056" y2="65.6926" gradientUnits="userSpaceOnUse">
<stop stop-color="#003473"/>
<stop offset="0.1941" stop-color="#38568E"/>
<stop offset="0.309" stop-color="#5B6C9F"/>
<stop offset="0.573" stop-color="#003473"/>
<stop offset="0.6202" stop-color="#1A427E"/>
<stop offset="0.6639" stop-color="#2B4B85"/>
<stop offset="0.6966" stop-color="#314E87"/>
<stop offset="0.8933" stop-color="#003473"/>
<stop offset="1" stop-color="#003473"/>
</linearGradient>
<linearGradient id="paint2_linear_2099_1097" x1="20.283" y1="32.3322" x2="92.6601" y2="32.3322" gradientUnits="userSpaceOnUse">
<stop stop-color="#003473"/>
<stop offset="0.2135" stop-color="#475C92"/>
<stop offset="0.4551" stop-color="#003473"/>
<stop offset="0.4745" stop-color="#0E3B79"/>
<stop offset="0.5104" stop-color="#214681"/>
<stop offset="0.5469" stop-color="#2D4C85"/>
<stop offset="0.5843" stop-color="#314E87"/>
<stop offset="0.6629" stop-color="#314E87"/>
<stop offset="0.6829" stop-color="#2A4A84"/>
<stop offset="0.7591" stop-color="#133E7B"/>
<stop offset="0.8309" stop-color="#053775"/>
<stop offset="0.8933" stop-color="#003473"/>
<stop offset="1" stop-color="#003473"/>
</linearGradient>
</defs>
</svg>
