<svg width="100" height="100" viewBox="0 0 100 100" fill="none" xmlns="http://www.w3.org/2000/svg">
<path fill-rule="evenodd" clip-rule="evenodd" d="M50.0003 0C77.5393 0 100 22.4615 100 50.0004C100 77.5393 77.5393 100 50.0003 100C22.4614 100 0 77.5393 0 50.0004C0 22.4615 22.4614 0 50.0003 0ZM18.5765 42.6801C19.3492 42.6801 20.3726 43.5097 20.3726 44.2778C20.3726 45.0464 19.3492 45.4798 18.5765 45.4798C17.8092 45.4798 17.182 44.8487 17.182 44.08C17.182 43.4511 17.6025 42.9136 18.1761 42.7394C18.303 42.7009 18.4375 42.6801 18.5765 42.6801ZM16.6285 41.4935C18.2286 42.2746 20.8374 42.0896 21.8482 44.6582C20.8135 45.9923 18.3758 46.4191 17.2254 45.828C15.8796 44.823 17.201 43.2474 16.6285 41.4935ZM33.5824 58.1224C33.5824 58.1224 34.6254 58.0581 35.1462 58.0164C36.9816 57.8695 39.8172 58.3372 40.6466 57.5081L36.8156 56.7423C36.2958 56.6384 36.2082 54.5199 36.4399 53.9907L39.6098 54.3367C42.2949 54.7937 44.7548 55.1693 45.9007 53.8319L38.0299 52.2154C37.5292 52.1126 37.7759 49.5294 38.2964 49.6131L45.2547 50.7334C47.9407 51.3722 49.7594 51.318 50.9051 49.9577L39.2286 47.5607C38.597 47.431 38.6508 44.8961 39.2878 45.0099L50.7774 47.0613C53.9568 47.6773 54.5276 47.2403 55.884 45.5693L39.4259 42.9406C38.7466 42.8321 38.3724 40.083 39.0591 40.183L59.3128 43.1335C62.8391 43.6586 64.3628 43.8297 65.8665 41.9087L38.4467 38.0098C37.7875 37.9161 37.0276 35.4343 37.6967 35.4952L72.3038 38.645C75.8306 39.003 77.6846 39.0576 79.1891 37.0739L36.2123 33.372C35.465 33.3077 34.1391 30.8021 34.8975 30.8518L83.4822 34.0348C87.0092 34.2454 89.7022 33.1416 91.2066 31.0955L25.4146 28.861C18.8734 28.5997 21.8132 34.8282 25.2702 38.6104C28.4583 42.0992 30.914 45.4552 29.8965 49.7777C28.1455 50.7591 24.32 45.0429 21.9273 42.6557C18.8091 40.0816 15.1545 41.7917 13.2094 43.2735C16.9029 45.3333 16.8266 51.5014 17.5557 56.4286C17.8499 58.4171 21.093 63.9782 24.7464 65.6774L78.8387 90.8366C83.6408 87.2283 86.5905 84.3792 89.8038 80.2139C76.5399 75.5548 33.8441 61.0506 33.4151 60.3897C33.0362 59.806 32.9586 58.1646 33.5824 58.1224ZM26.3769 26.9301L81.6013 27.4138C85.1263 27.4777 88.0424 27.065 89.5469 24.9551L31.0972 24.9323C27.5813 24.9383 27.3826 25.5052 26.3769 26.9301Z" fill="#009D3F"/>
</svg>
