<svg width="100" height="100" viewBox="0 0 100 100" fill="none" xmlns="http://www.w3.org/2000/svg">
<path d="M4.75092 32.2852H28.5214C30.8518 32.2852 32.6087 33.0215 33.2992 36.3315C34.0683 40.0115 33.752 42.573 29.6092 42.8662L22.1467 43.3987C27.6395 78.1057 59.755 89.4176 77.2398 52.0379C80.1341 45.8509 81.0812 44.7241 84.2515 45.5112C88.5492 46.5776 89.1359 48.7873 87.0889 55.0247C71.9705 101.106 21.1596 105.725 11.1901 44.1871L5.12685 44.6255C0.194175 44.979 0 40.8165 0 38.5015C0 33.9255 1.69998 32.2852 4.75092 32.2852Z" fill="#E41917"/>
<path d="M91.1769 10C96.0499 10 100 13.9501 100 18.8231C100 23.6954 96.0499 27.6448 91.1769 27.6448C86.3053 27.6448 82.3545 23.6954 82.3545 18.8231C82.3545 13.9497 86.3053 10 91.1769 10Z" fill="#E41917"/>
</svg>
