<svg width="100" height="100" viewBox="0 0 100 100" fill="none" xmlns="http://www.w3.org/2000/svg">
<path d="M43.9849 51.4531L46.3947 46.6514H77.3932V51.4531H43.9849Z" fill="#0063AD"/>
<path d="M89.103 79.5144L88.2021 78.8942L87.7425 78.8659C85.7801 77.4373 72.1459 67.0975 67.3684 51.3838C62.2157 34.4416 59.7176 28.5254 59.7176 28.5254H38.4306C38.4306 28.5254 38.2662 29.9639 37.2708 33.0031C36.2716 36.0382 29.9531 45.6317 26.1287 49.7872C22.3044 53.9447 15.6548 58.3403 15.6548 58.3403C15.6548 58.3403 23.3818 64.0964 31.3697 61.7796C39.3516 59.4627 45.9209 43.6309 48.1622 36.7564L50.7365 46.1119C50.7365 46.1119 54.5609 63.6963 57.5546 68.6501C59.6715 72.1474 63.4417 77.0672 71.1427 78.9399C76.163 80.9226 89.103 79.5144 89.103 79.5144Z" fill="#0063AD"/>
<path d="M38.3403 28.6328H60.0627L61.2064 31.6539L58.0321 30.1434L57.5947 32.6703L55.4818 30.0454L54.1615 31.9921L52.9276 30.1294L50.901 31.822L49.4082 30.1294L47.201 31.822L45.2687 29.7913L44.121 33.7668L43.2382 30.1294L41.7453 31.822L40.6016 29.7913L37.957 32.0761L38.3403 28.6328Z" fill="white"/>
<path d="M48.1846 35.8619L50.9896 46.0457C51.0294 46.2357 54.8422 63.6601 57.7817 68.5259C59.417 71.2289 64.3811 79.4579 77.8949 79.4579C79.5041 79.4579 81.2096 79.3377 82.9653 79.1137L87.2833 78.8357C84.4662 76.7229 71.6908 66.4692 67.122 51.4537C62.4729 36.1741 59.9648 29.8118 59.5414 28.7714H38.6577C38.5752 29.2819 38.3005 30.6821 37.518 33.077C36.4826 36.2262 30.0979 45.8417 26.3217 49.9511C22.9809 53.5805 17.4409 57.4319 16.0965 58.3402C17.2884 59.1465 21.9977 62.0777 27.4092 62.0777C28.7495 62.0777 30.0638 61.8955 31.2898 61.5394C38.7078 59.3826 45.229 44.9033 47.9137 36.6823L48.1846 35.8619ZM77.8949 79.95C64.0881 79.95 59.0056 71.541 57.3322 68.7739C54.3526 63.8401 50.6466 46.8799 50.484 46.1596L48.1384 37.6425C45.2731 46.0597 38.8262 59.8706 31.4383 62.0154C30.1621 62.3835 28.8057 62.5758 27.4092 62.5758C20.9944 62.5758 15.5468 58.5764 15.4926 58.5343L15.2139 58.3285L15.5091 58.1345C15.5711 58.0891 22.1747 53.7048 25.9369 49.6194C29.6831 45.5518 36.0055 36.0284 37.0228 32.9253C38 29.9562 38.1766 28.5117 38.1766 28.4977L38.205 28.2754H59.8973L59.9593 28.4313C59.9878 28.4914 62.5236 34.5496 67.6222 51.3137C72.6886 67.9798 87.9882 78.7358 88.1406 78.8379L88.7246 79.2422L83.0181 79.6086C81.2583 79.8366 79.5242 79.95 77.8949 79.95Z" fill="#0063AD"/>
<path d="M28.5467 37.6846C28.5467 37.6846 -2.70666 62.5198 9.69356 71.7051C22.0917 80.8945 53.6039 67.9837 53.6039 67.9837C53.6039 67.9837 28.4203 80.1522 12.2799 78.1615C-3.87043 76.1747 1.55721 65.6209 3.23862 61.7715C4.9161 57.9241 12.4043 49.2309 22.2221 42.1543C32.034 35.0757 28.5467 37.6846 28.5467 37.6846Z" fill="#03B14D"/>
<path d="M77.5376 20.485C76.8133 20.6092 76.0789 20.743 75.3585 20.8831C74.9393 20.9693 74.4496 21.0674 73.9118 21.1814C64.1582 23.2601 55.7871 26.7434 55.7871 26.7434C55.7871 26.7434 112.487 12.5462 85.2386 47.643L74.3052 59.6453C74.3052 59.6453 92.5944 47.1288 97.6347 34.7643C102.627 22.5019 93.4793 18.4963 77.5376 20.485Z" fill="#03B14D"/>
</svg>
