<svg width="101" height="100" viewBox="0 0 101 100" fill="none" xmlns="http://www.w3.org/2000/svg">
<path d="M97.68 61.4096C95.34 56.2596 91.36 51.9396 86.13 49.8596C103.55 42.5096 104.52 15.5996 87.99 6.55961C74.15 -2.53039 50.88 6.81961 53.45 24.9996C42.42 17.9896 27.49 21.1096 19 30.6796C13.15 36.9196 7.59 45.5096 0 50.0496C7.74 54.4196 13.03 63.1396 18.99 69.3296C27.48 78.8596 42.46 82.0996 53.44 75.0096C53.82 113.18 112.93 96.9796 97.67 61.4196L97.68 61.4096Z" fill="#F5C300"/>
<path d="M92.2801 63.5501C87.4801 52.6701 73.3001 49.5801 63.2301 54.7001C55.5701 58.9001 48.6701 68.1001 38.9301 63.5401C24.6401 57.7901 29.1701 34.6001 44.7001 35.1401C59.4001 36.8901 64.8501 55.3501 85.0201 44.5401C97.4501 37.3101 96.5501 17.3701 83.7201 11.0201C73.5901 5.1701 58.7601 11.1001 58.3901 23.5901C58.3901 26.1201 58.5701 28.9101 59.7901 30.9501C60.1201 23.6801 68.2701 18.9001 74.9701 22.4801C89.1501 33.3401 71.3601 50.7101 58.4001 35.5101C49.9401 26.8201 35.4501 23.5201 25.8101 32.1601C19.5701 37.6001 15.5801 45.6801 8.58008 50.0401C15.7701 54.3301 19.4701 62.4201 25.8101 67.8201C37.2501 77.9501 52.4501 71.3701 61.7501 61.6701C68.1501 55.4601 80.2401 58.8801 80.0001 68.5601C79.6701 82.5501 61.0101 81.2701 59.6101 69.2101C51.4401 103.22 104.36 94.4401 92.2901 63.5301L92.2801 63.5501Z" fill="#370E62"/>
<path d="M64.4401 49.8601C57.4901 47.8001 52.7201 40.1301 45.1701 39.2401C39.1201 38.5901 33.9301 43.8401 34.1801 49.8601C33.9701 55.8501 39.1601 60.9401 45.1701 60.4701C52.7501 59.5401 57.3001 51.7701 64.4401 49.8601Z" fill="#B6007D"/>
</svg>
