<svg width="100" height="100" viewBox="0 0 100 100" fill="none" xmlns="http://www.w3.org/2000/svg">
<path d="M44.8057 29.2121L42.5692 17.3773L34.7247 21.2866L41.5398 13.5058L40.8411 2.07701L44.5596 12.6967L53.6874 16.8289L45.2784 16.7185L47.8794 30.1784L42.7573 32.4259L44.8057 29.2121Z" fill="#929294"/>
<path d="M61.2003 31.4362L67.8561 21.398L59.5091 18.7248L69.8201 17.9065L77.2942 9.23215L72.5478 19.434L76.2031 28.763L70.2565 22.8164L62.7279 34.2731L57.4905 32.3091L61.2003 31.4362Z" fill="#929294"/>
<path d="M69.9362 44.4894L82.3781 41.9588L78.1495 33.7139L86.4441 40.8159L98.4795 39.9179L87.3387 43.9996L83.11 53.7139V44.8159L68.9603 47.7547L66.5207 42.3669L69.9362 44.4894Z" fill="black"/>
<path d="M68.5821 60.7568L78.4663 67.6392L81.3287 59.3552L81.9123 69.6821L90.4144 77.3516L80.3231 72.3744L70.9134 75.8165L76.9937 70.0068L65.7113 62.2195L67.7939 57.0282L68.5821 60.7568Z" fill="#929294"/>
<path d="M55.2944 70.5601L57.6006 82.3816L65.4219 78.4261L58.6528 86.2469L59.4188 97.6714L55.6377 87.0738L46.4858 82.9955L54.8953 83.0564L52.215 69.612L57.3237 67.3343L55.2944 70.5601Z" fill="#929294"/>
<path d="M39.2167 68.1663L32.5609 78.2045L40.9079 80.8778L30.5969 81.6961L23.1228 90.3704L27.8692 80.1685L24.2139 70.8396L30.1605 76.7861L37.6891 65.3295L42.9264 67.2935L39.2167 68.1663Z" fill="#929294"/>
<path d="M28.936 54.4771L17.1161 56.8812L21.1333 64.7139L13.2534 57.9669L1.81982 58.82L12.4036 54.9424L16.4208 45.7139V54.1669L29.863 51.3751L32.1807 56.4935L28.936 54.4771Z" fill="#929294"/>
<path d="M31.9206 38.8871L21.8824 32.2313L19.2092 40.5783L18.3908 30.2673L9.71652 22.7932L19.9184 27.5396L29.2474 23.8844L23.3008 29.8309L34.7575 37.3595L32.7935 42.5969L31.9206 38.8871Z" fill="#929294"/>
</svg>
