<svg width="100" height="100" viewBox="0 0 100 100" fill="none" xmlns="http://www.w3.org/2000/svg">
<path d="M100 50C100 77.6142 77.6142 100 50 100C22.3858 100 0 77.6142 0 50C0 22.3858 22.3858 0 50 0C77.6142 0 100 22.3858 100 50Z" fill="white"/>
<path d="M3.44059 58.0807C4.51521 64.4958 6.8423 70.3938 10.1189 75.5621C22.3598 72.1544 33.1225 65.7018 36.9506 51.3214C41.1604 35.4935 36.3553 18.9077 24.8595 10.1183C9.2072 20.0291 0.18005 38.6664 3.44059 58.0807ZM96.997 42.3628C101.338 68.1948 83.9166 92.6586 58.0779 96.9967C53.8396 97.7144 49.5233 97.8515 45.248 97.4041C31.7693 95.9944 19.622 88.8308 11.8072 78.0618L88.612 56.0415C89.7143 55.7221 89.4293 54.6636 88.518 54.7261L56.3177 56.975C60.8532 52.596 64.305 47.224 63.8887 39.7972C63.0395 27.766 50.7952 16.0261 28.0231 8.3016C32.5082 5.92033 37.3483 4.2788 42.3567 3.44037C46.7046 2.7136 51.0146 2.59453 55.1869 3.03299C75.857 5.19719 93.3856 20.8656 96.997 42.3628" fill="#C70A0C"/>
</svg>
