<svg width="100" height="100" viewBox="0 0 100 100" fill="none" xmlns="http://www.w3.org/2000/svg">
<path fill-rule="evenodd" clip-rule="evenodd" d="M15.9407 43.019L48.0853 39.5682L36.1468 4.9078L44.7182 0L55.3567 59.0446L77.9343 56.3609C77.9343 56.3609 79.0822 56.2073 79.6182 56.8207C80.0827 57.3527 80.1076 57.4101 80.8428 57.4345L88.9555 57.3576L67.7173 70.2786L97.9488 92.3625C95.3232 94.1052 92.5581 95.3834 89.6258 96.1034L77.0551 81.9341L64.1972 99.3406L62.4367 99.4173L52.2574 80.0168L24.3988 94.433C22.5995 94.0864 20.8657 93.5271 19.2709 92.5159L38.2516 81.2436L10.2401 83.1605L30.3688 69.971L4.27028 72.195C3.19218 70.4834 2.4656 68.718 2.05078 66.904L38.1753 62.3795L15.9407 43.019ZM61.9396 81.2047L64.1975 85.1157L66.7231 80.8217L71.0475 80.7066L64.5421 91.5569L58.2278 81.5117L61.9396 81.2047ZM40.5483 69.9709L33.0481 75.185L43.7628 73.9583L40.5483 69.9709ZM28.149 46.4297L43.9918 45.5859L43.3797 49.1903L36.9508 48.6534L41.8489 53.1777L40.6244 57.0885L28.149 46.4297Z" fill="#FC0404"/>
<path fill-rule="evenodd" clip-rule="evenodd" d="M4.77095 74.3802L21.1498 71.9262L7.25831 81.243C6.0093 78.9553 5.15254 76.6678 4.77095 74.3802Z" fill="#FC0404"/>
<path fill-rule="evenodd" clip-rule="evenodd" d="M26.7319 13.8032L33.5437 30.3666L16.4762 30.5964L14.0269 39.8751L44.1819 36.6547L33.0075 7.51538L26.7319 13.8032Z" fill="#FC0404"/>
<path fill-rule="evenodd" clip-rule="evenodd" d="M13.9138 46.0463L30.9809 60.1554L14.0668 62.6093L13.7604 58.0853L19.8833 57.625L12.842 51.0304L13.9138 46.0463Z" fill="#FC0404"/>
<path fill-rule="evenodd" clip-rule="evenodd" d="M76.1767 86.3421L66.8011 99.7236C68.1797 100.028 69.658 100.084 71.2401 99.8768L76.9804 91.9401L82.0699 97.8449C83.4036 98.1251 84.7569 97.6701 86.6015 97.2349L76.1767 86.3421Z" fill="#FC0404"/>
<path fill-rule="evenodd" clip-rule="evenodd" d="M76.7888 95.2377L74.6078 99.34C76.4065 99.3144 78.2049 99.0073 80.0033 98.4198L76.7888 95.2377Z" fill="#FC0404"/>
<path fill-rule="evenodd" clip-rule="evenodd" d="M51.1499 84.1572L58.0382 99.5704C55.9544 99.4982 53.974 99.1568 52.145 98.4201L49.007 91.3653L42.8076 94.7394L39.7461 90.8286L51.1499 84.1572Z" fill="#FC0404"/>
<path fill-rule="evenodd" clip-rule="evenodd" d="M11.4293 86.1509L26.2768 84.9238L16.0213 90.9818C14.0726 89.5933 12.5111 87.9997 11.4293 86.1509Z" fill="#FC0404"/>
<path fill-rule="evenodd" clip-rule="evenodd" d="M24.25 17.1379C20.2689 21.8856 19.9142 22.3254 17.6681 28.1035L28.8039 28.4486L24.25 17.1379Z" fill="#FC0404"/>
</svg>
