<svg width="100" height="100" viewBox="0 0 100 100" fill="none" xmlns="http://www.w3.org/2000/svg">
<path d="M100 50C100 22.2414 77.931 0 50 0C22.069 0 0 22.069 0 50C0 77.931 22.069 100 50 100C77.931 100 100 77.931 100 50Z" fill="#2DCCD3"/>
<path d="M62.8306 12.5273C63.1204 12.2858 63.7166 11.9905 64.0601 12.334C64.7753 13.0821 65.7546 14.2699 66.519 15.9228C68.5626 20.3331 67.5272 24.6848 67.1294 26.2578C66.2043 29.9145 64.8826 30.3562 61.5981 37.54C60.8172 39.248 60.2312 40.6713 59.8608 41.5928C59.8489 41.6182 58.5041 44.4751 57.4087 45.665C57.1915 45.9004 57.0835 46.0189 56.9175 46.1523C56.5451 46.4551 56.3429 46.4883 56.0874 46.8037C55.936 46.9954 55.843 47.1886 55.8325 47.2148C55.7379 47.4265 55.7451 47.5979 55.6392 47.7695C55.5097 47.9868 55.2774 48.1402 55.0327 48.2002C54.3181 48.3747 53.7222 48.7757 53.3853 49.4394C53.0967 50.0177 53.1025 50.5377 53.2612 51.167C53.3835 51.6578 53.7467 52.3496 54.2593 52.5322C54.6698 52.6765 54.967 52.596 55.4087 52.8955C55.7003 53.094 55.7062 53.2512 55.9448 53.3242C56.2878 53.4282 56.4614 53.1412 56.9849 53.0098C57.4884 52.8841 58.0203 52.9704 58.3999 53.1582C58.6857 53.3027 58.8899 53.5294 59.3394 54.0371C59.6426 54.379 59.9163 54.7497 60.1968 55.1103C60.6529 55.5884 60.9748 55.682 61.4253 56.1123C61.7409 56.4115 62.0438 56.806 62.5454 57.957C62.8809 58.7268 63.1382 59.4399 63.3296 60.04C65.4262 64.3372 69.4903 70.949 69.2368 78.1748C69.047 83.5976 68.1251 87.4439 67.523 87.6865C65.2204 88.6205 62.9216 87.3874 60.7485 85.043C55.2581 79.1182 54.2555 70.0091 52.8286 63.8672C52.6845 63.2432 52.4712 62.0532 53.4673 60.0371C53.8122 59.341 54.2005 58.6798 54.6284 58.0332C55.0162 57.4592 55.0733 56.8471 55.0786 56.7744C55.0525 56.8409 54.7406 57.3617 54.396 57.79C54.0046 58.2773 53.6651 58.7987 53.2974 59.3027C52.7171 60.0819 52.5817 60.7573 48.9067 64.5947C48.0399 65.4999 45.6483 67.8667 44.7378 68.6768C42.3085 70.839 39.7992 72.8652 36.9771 74.5068C34.7875 75.7823 32.107 77.2156 26.9272 77.4805C25.3854 77.5589 21.3653 77.6559 19.5132 75.9463C19.1174 75.5813 18.8796 75.3328 18.9106 74.6631C19.0405 71.8076 22.2938 67.9179 24.2681 66.3486C28.3678 63.094 33.0464 60.7584 37.8569 58.7539C40.1468 57.7996 41.7489 57.141 42.9204 56.6631C45.7669 55.3274 46.5205 54.982 47.8179 54.71C48.2009 54.6298 48.2632 54.5827 49.1187 54.333C49.501 54.219 49.4766 53.9332 49.4751 53.9209C49.4728 53.9575 47.9672 54.3214 47.9204 54.333C47.8876 54.3423 43.0298 55.2764 36.2876 54.125C30.2022 53.0849 23.9127 51.477 18.7944 47.875C16.4497 46.2237 14.5478 44.1529 12.9438 41.7881C11.745 40.0218 9.68124 36.9396 11.0278 34.7627C11.7804 33.5511 13.7052 33.5171 15.5337 33.5146C18.2359 33.5111 20.2501 34.1742 20.3872 34.2207C25.2482 35.8629 29.1254 38.1738 33.9243 40.6152C37.6212 42.4965 40.481 43.7532 43.0483 44.8809C45.7048 46.0485 47.3707 46.7163 48.3433 47.083C47.4729 46.7071 46.2394 46.0829 45.0278 45.125C43.2617 43.7288 42.225 42.0585 41.4292 40.8213C40.9556 40.0902 40.4176 39.4015 39.813 38.7734C38.7364 37.6567 35.8609 34.1884 34.2241 32.0225C32.5114 29.7548 31.653 28.6209 31.104 27.4072C30.4456 25.9606 28.8786 22.5162 30.1401 18.8994C30.3171 18.3959 31.518 14.9558 33.9136 14.6416C35.6635 14.4117 37.1294 15.9665 38.6001 17.5723C39.6402 18.7054 41.1184 20.5563 45.3735 30.2891C46.8955 33.7692 48.2578 37.3156 49.7739 40.7969C50.9928 43.5942 52.2482 46.2004 52.5513 46.6328C52.6005 46.5872 51.9475 45.2788 51.5679 43.7041C50.9002 40.938 51.3677 38.5421 51.9097 36.3525C52.9534 32.1356 53.8834 30.2701 55.9526 24.5752C55.9729 24.5195 59.2543 15.5015 62.8306 12.5273ZM77.2603 31.5459C81.0555 31.2194 85.6113 33.1971 85.9087 35.5381C86.1913 37.7605 82.5696 39.8056 78.2271 42.2598C69.941 46.9401 61.5032 49.1236 61.4995 49.1133C60.7438 49.3871 60.0262 49.6785 59.3813 50.1709C60.8873 49.352 62.7627 49.1801 64.4507 49.2705H64.4536C67.0939 49.411 71.1706 49.787 76.4419 52.0312C79.5602 53.3558 82.6975 54.6291 85.2954 56.874C85.7888 57.3003 86.5901 58.1933 87.73 59.9453L88.2378 60.7471C88.736 61.5537 89.8544 63.5025 89.2231 64.6611C87.6132 67.0639 80.6288 65.175 79.8862 64.9014C79.8164 64.8795 63.6802 59.8161 59.5503 53.7568C59.5503 53.7517 59.5397 53.7358 59.519 53.71C59.3822 53.5147 58.8951 52.8709 58.2876 52.7373C57.8064 52.6304 57.6906 52.6091 57.687 52.6084C57.169 52.4395 57.2193 51.7607 57.6226 51.499C58.0039 51.2571 58.2852 51.3819 58.4585 51.2363C58.6163 51.1049 58.6624 50.8453 58.6313 50.7559C58.544 50.5171 58.5238 50.5227 58.438 50.2783C58.3645 50.0719 58.4852 49.9419 58.4438 49.7939C58.3598 49.5026 58.2039 49.6704 57.8921 49.373C57.6768 49.2106 57.4274 48.6359 57.3032 48.4971C56.9328 48.092 56.4934 48.1226 56.3765 47.9219C56.0993 47.4456 57.1114 46.5879 57.3726 46.3252C57.6358 46.0635 58.7545 44.2632 59.9585 42.9443C61.8049 40.9192 62.6441 40.6853 66.3276 37.8301C70.446 34.6368 71.1052 33.6054 73.7583 32.5215C74.8348 32.0817 75.8498 31.668 77.2603 31.5459Z" fill="white"/>
</svg>
