<svg width="100" height="100" viewBox="0 0 100 100" fill="none" xmlns="http://www.w3.org/2000/svg">
<path d="M100 50C100 22.2414 77.931 0 50 0C22.069 0 0 22.069 0 50C0 77.931 22.069 100 50 100C77.931 100 100 77.931 100 50Z" fill="#00D66C"/>
<path d="M72.2415 57.67H69.4828C66.7242 57.67 65.5173 59.2064 65.0001 62.1084C64.3104 67.4003 60.0001 70.9852 54.4828 70.9852C48.1035 70.9852 43.9656 66.3761 43.9656 59.5478V43.5014C43.9656 42.8185 43.7931 42.3064 43.7931 41.7943C44.3104 42.1357 45.1725 42.1357 45.8621 42.1357H60.6897C63.4484 42.1357 65.1725 40.5993 65.1725 37.6973V36.3317C65.1725 33.6003 63.6208 31.8933 60.6897 31.8933H52.4139V23.0165C52.4139 20.2852 50.8621 18.5781 47.9311 18.5781H45.8621C43.1035 18.5781 41.3793 20.1145 41.3793 23.0165V37.6973C41.3793 38.3801 41.3793 38.8923 41.5518 39.4044C40.8621 39.063 40.1724 39.063 39.3104 39.063H24.4828C21.7241 39.063 20 40.5993 20 43.5014V44.867C20 47.5983 21.5517 49.3054 24.4828 49.3054H32.7586V59.5478C32.7586 72.3508 41.0345 81.3983 54.138 81.3983C66.207 81.3983 74.3104 73.7165 75.8622 62.2791C76.7242 59.0357 74.6553 57.67 72.2415 57.67Z" fill="white"/>
</svg>
