<svg width="100" height="100" viewBox="0 0 100 100" fill="none" xmlns="http://www.w3.org/2000/svg">
<path fill-rule="evenodd" clip-rule="evenodd" d="M51.9805 21H79.9901C91.0397 21 100 30.1378 100 41.4169C100 52.6913 91.0397 61.8314 79.9901 61.8314H67.9846V78.1645H51.9805V21ZM67.9846 37.3307H79.9901C82.1977 37.3307 83.9935 39.1597 83.9935 41.4169C83.9935 43.6694 82.1977 45.4984 79.9901 45.4984H67.9846V37.3331V37.3307Z" fill="#ED1C24"/>
<path fill-rule="evenodd" clip-rule="evenodd" d="M11.9629 78.1645V37.3307H0V21H51.9828V78.1645L48.9258 67.7679V67.9572H30.972L27.9671 78.1645H11.9629ZM35.7728 51.6242H44.1771L39.9726 37.3331L35.7728 51.6242Z" fill="#BFD730"/>
<path fill-rule="evenodd" clip-rule="evenodd" d="M11.9629 78.1645H27.9671V37.3307H39.9702V21H27.9694L11.9629 78.1645Z" fill="#46A41A"/>
<path fill-rule="evenodd" clip-rule="evenodd" d="M51.9805 78.1645H67.9846L51.9805 21V78.1645Z" fill="#BA141A"/>
</svg>
