<svg width="100" height="100" viewBox="0 0 100 100" fill="none" xmlns="http://www.w3.org/2000/svg">
<path d="M44 95C68.2279 95 88 75.1439 88 50.5C88 25.9968 68.367 6 44 6C19.7721 6 0 25.8561 0 50.5C0 75.1439 19.633 95 44 95Z" fill="#FFE900"/>
<path d="M85.3211 48.2132L89.7248 47.0766L93.2479 61L100 59.4372L99.8531 55.6011L97.9449 56.0274L95.3027 45.7979L100 44.6612L98.8256 39.5465L94.1285 40.6832L92.6605 35L87.5228 38.41L88.4037 41.9619L84 43.0984L85.1744 48.2132" fill="#1D1D1B"/>
<path d="M85.2453 43.8371C83.5926 42.1349 81.251 41.0002 78.2209 41.0002C71.6095 41.0002 68.4415 46.3902 68.4415 50.9292C68.4415 55.4681 71.6095 60.8583 78.2209 60.8583C84.8322 60.8583 88 55.4681 88 50.929C88 48.9434 87.4491 46.9575 86.3473 45.2554L85.2453 43.8371ZM82.4908 50.9292C82.4908 53.6241 80.5623 55.61 78.083 55.61C75.7416 55.61 73.6757 53.6241 73.6757 50.9292C73.6757 48.2341 75.6038 46.2485 78.083 46.2485C80.5623 46.2485 82.4908 48.2341 82.4908 50.9292ZM68.3037 50.9292C68.3037 46.3902 65.1359 41 58.5246 41C51.9134 41 48.7454 46.3902 48.7454 50.9292C48.7454 55.4681 51.9134 60.8583 58.5246 60.8583C65.1359 60.8583 68.3037 55.4683 68.3037 50.9292ZM62.9321 50.929C62.9321 53.6241 61.0038 55.6098 58.5246 55.6098C56.1831 55.6098 54.117 53.6241 54.117 50.929C54.117 48.2341 56.0453 46.2483 58.5246 46.2483C60.8662 46.2483 62.9321 48.2341 62.9321 50.929ZM43.3737 48.8015H48.883C47.9189 44.2624 44.0622 41.0002 39.2415 41.0002C33.87 41.0002 29.7378 45.3971 29.7378 50.9292C29.7378 56.461 34.0076 60.8583 39.3794 60.8583C44.3378 60.8583 47.9189 57.4539 48.883 53.1985H43.3739C42.823 54.3334 41.721 55.7517 39.5172 55.7517C36.9003 55.7517 35.2476 53.7661 35.2476 51.071C35.2476 49.7946 35.6607 48.5178 36.487 47.6666C37.3134 46.8156 38.4154 46.2483 39.655 46.3902C41.5833 46.1063 42.6849 47.5249 43.3737 48.8015ZM23.953 46.8156H29.3248C28.9117 41.851 24.7796 41.0002 22.3003 41.0002C18.5814 41.0002 15.2757 43.4115 15.2757 47.3831C15.2757 49.9363 17.204 51.4966 19.5456 52.2058C22.989 53.6241 24.3665 53.7661 24.3665 55.0425C24.3665 55.8937 23.4021 56.461 22.4379 56.461C22.1625 56.461 20.6474 56.461 20.372 54.759H15C15.5509 59.7236 19.683 61 22.4377 61C26.432 61 29.8755 58.5888 29.8755 54.4751C29.8755 50.5036 26.5699 49.5107 23.5395 48.6597C22.1623 48.2341 20.785 47.6668 20.785 46.8156C20.785 46.2483 21.1981 45.5392 22.3001 45.5392C23.8152 45.3973 23.953 46.3902 23.953 46.8156Z" fill="#1D1D1B"/>
</svg>
