<svg width="100" height="100" viewBox="0 0 100 100" fill="none" xmlns="http://www.w3.org/2000/svg">
<path d="M27.9108 46.4399C27.9108 46.4399 22.2785 62.8054 21.2158 73.4324C25.1478 64.0806 32.5867 51.1157 37.05 44.9521C30.5676 39.7449 18.8779 34.3251 18.8779 34.3251C18.8779 34.3251 28.2296 30.2869 47.0394 29.3304C47.0394 29.3304 54.9033 14.2401 75.0946 0C62.7673 3.93198 51.2902 14.3464 39.4942 25.7173C24.4039 26.5674 8.14465 32.6248 6.44434 33.3687C23.7663 42.2953 27.9108 46.4399 27.9108 46.4399Z" fill="#3FBBEF"/>
<path d="M96.0296 34.5375C81.3643 28.5864 63.1922 27.0986 63.1922 27.0986C63.1922 27.0986 62.7671 22.4227 64.1487 13.4961C62.4483 17.2155 59.2602 25.1858 58.7289 31.1369C71.9063 32.1996 80.9393 35.1751 80.9393 35.1751C80.9393 35.1751 67.5493 40.2761 60.1104 46.1209C61.4919 49.4153 64.4675 58.9795 66.1678 66.4184C63.2985 63.7617 54.5844 56.6416 48.3145 52.9222C40.0254 56.1102 16.9649 78.852 4 99.9996C9.63229 94.1548 25.9978 75.5576 48.3145 62.1676C52.8841 64.8244 74.0317 78.7457 74.0317 78.7457C74.0317 78.7457 69.3559 54.0911 67.6556 48.4588C74.2443 43.8892 85.5089 37.7256 96.0296 34.5375Z" fill="#3FBBEF"/>
</svg>
