<svg width="100" height="100" viewBox="0 0 100 100" fill="none" xmlns="http://www.w3.org/2000/svg">
<path fill-rule="evenodd" clip-rule="evenodd" d="M24.0667 22L22.8871 23.3398H45.9474L44.6921 22H24.0667ZM14.6304 24.2582L13.6349 25.3387H47.9494L46.943 24.2582H14.6304ZM13.7647 26.1923L15.2148 27.5861H31.6091L33.0159 26.1922L13.7647 26.1923ZM51.2174 28.5045L19.9545 28.5261L21.08 29.6606H52.2995L51.2174 28.5045ZM21.4479 30.5034C21.4479 30.5034 21.6037 30.9536 21.6319 31.2489C21.6741 31.6286 21.6319 32.0269 21.6319 32.0269H27.1399L28.6333 30.5034H21.4479ZM21.4479 32.8156L20.5605 34.0258H56.7038L55.5243 32.8156H21.4479ZM19.7489 34.7605L18.2772 36.1543H23.5256L24.5536 34.7605H19.7489ZM17.3141 37.0943L16.3402 38.1964H60.8484L59.842 37.0943H17.3141ZM15.7342 39.0824C15.7342 39.0824 15.3936 39.4678 15.1823 39.7631C14.9711 40.0725 14.7928 40.5951 14.7928 40.5951H21.9457C21.9457 40.5951 22.0018 40.0725 22.0864 39.7631C22.185 39.4678 22.2703 39.0824 22.2703 39.0824H15.7342ZM14.3924 41.3839C14.3924 41.3839 14.2551 41.6255 14.1002 41.9349C13.9453 42.2302 13.8405 42.5076 13.8405 42.5076H65.2527L64.1381 41.3839H14.3924ZM13.505 43.3827C13.505 43.3827 13.2974 43.7799 13.2128 44.1174C13.1142 44.455 13.0289 44.8414 13.0289 44.8414H22.0539C22.0539 44.8414 22.0237 44.4766 21.9673 44.139C21.8969 43.8156 21.9024 43.3827 21.9024 43.3827H13.505ZM12.8449 45.6842C12.8449 45.6842 12.7173 45.969 12.661 46.2784C12.5905 46.5737 12.5636 46.8511 12.5636 46.8511H69.5487L68.5532 45.6842H12.8449ZM12.5095 47.7262C12.5095 47.7262 12.4694 48.1342 12.4553 48.4718C12.4272 48.8093 12.4121 49.1849 12.4121 49.1849H24.0667L22.9953 47.7262H12.5095ZM12.4337 50.0709C12.4337 50.0709 12.4662 50.4012 12.4662 50.6543C12.4662 50.8934 12.477 51.1622 12.477 51.1622H73.9314L72.9899 50.0709L12.4337 50.0709ZM12.596 52.0698C12.596 52.0698 12.6371 52.5697 12.6934 52.8369C12.7498 53.1182 12.899 53.5609 12.899 53.5609H30.3972C30.3972 53.5609 29.4523 53.1398 28.7198 52.8585C27.9874 52.5913 27.1399 52.0698 27.1399 52.0698H12.596ZM49.3778 52.1022L47.9169 53.5609H58.2404L56.8012 52.1022H49.3778ZM13.1371 54.5009C13.1371 54.5009 13.1868 54.7707 13.2994 55.0519C13.4262 55.3191 13.505 55.5273 13.505 55.5273H78.4114L77.2535 54.5009H13.1371ZM1.36349 56.4133L0.129856 57.7532H62.7313L64.019 56.4134L1.36349 56.4133ZM0 58.7472L1.07133 59.8493H82.6642L81.5388 58.7472H0ZM16.4051 60.7677L17.4656 62.0427H66.7785L65.4366 60.7677H16.4051ZM1.91536 60.7893L3.19228 61.9994H7.62903L6.31966 60.7893H1.91536ZM4.38262 63.1231L5.4756 64.1712H9.7284L8.83021 63.1231H4.38262ZM18.6777 63.1556C18.6777 63.1556 19.0171 63.4309 19.3269 63.6418C19.6227 63.8528 19.987 64.1712 19.9871 64.1712H87.0685L86.1054 63.1556H18.6777ZM6.31966 65.1329L7.73727 66.4403H12.1091L10.7781 65.1328L6.31966 65.1329ZM21.4479 65.1329C21.4479 65.1329 22.026 65.4707 22.6599 65.7379C23.3078 66.0192 24.4346 66.4403 24.4346 66.4403H36.7601L39.4979 65.1328L21.4479 65.1329ZM57.4397 65.1329C57.4397 65.1329 57.6233 65.4047 57.905 65.7703C58.1726 66.136 58.4569 66.4295 58.4569 66.4295L71.226 66.4187L69.8842 65.1329H57.4397ZM8.70036 67.4991L9.77169 68.5148H14.0894L13.0181 67.4991H8.70036ZM59.4849 67.4991L61.0323 68.5364H91.3429C91.3429 68.5364 91.1559 68.2265 91.0291 68.0718C90.9024 67.9311 90.5097 67.4991 90.5097 67.4991H59.4849ZM62.2552 69.4548C62.2552 69.4548 62.8095 69.8228 63.4996 70.1463C64.2038 70.4838 65.534 70.8702 65.534 70.8702H91.7109C91.7109 70.8702 91.4243 70.5085 91.2131 70.2976C91.0018 70.0866 90.3257 69.4548 90.3257 69.4548L62.2552 69.4548ZM10.724 69.4872L12.0874 70.8162H16.4701L15.0525 69.4872L10.724 69.4872ZM13.0289 71.7562L13.9054 72.7611H18.353L17.3791 71.7562L13.0289 71.7562ZM80.1753 71.8751C80.1753 71.8751 80.9292 72.0963 82.1123 72.3073C83.2954 72.5182 85.3912 72.9447 85.3912 72.9448H95.8013L94.8382 71.8751H80.1753ZM14.9984 73.7875L16.4701 75.1922H18.4071V73.7875H14.9984ZM88.6268 73.8848L91.0075 75.3218H96.0178L94.7083 73.8848L88.6268 73.8848ZM17.2817 76.1322L18.4396 77.2343V76.1322H17.2817ZM93.3665 76.3159C93.3665 76.3159 93.8009 76.5803 94.308 76.7913C94.8291 77.0022 95.8338 77.3207 95.8338 77.3207H100L99.21 76.3159H93.3665Z" fill="#D40000"/>
</svg>
