<svg width="100" height="100" viewBox="0 0 100 100" fill="none" xmlns="http://www.w3.org/2000/svg">
<path d="M0 25C0 11.1929 11.1929 0 25 0H75C88.8072 0 100 11.1929 100 25V75C100 88.8072 88.8072 100 75 100H25C11.1929 100 0 88.8072 0 75V25Z" fill="#FF6600"/>
<path d="M79.3372 52.3333H47.0706C45.6039 52.3333 44.9372 53 44.9372 54.2C44.9372 57.1333 46.5372 59.9334 49.7372 62.6C52.9372 65.2667 56.4039 66.6 60.1372 66.6C62.2706 66.6 64.8039 66.2 67.4706 65.4C70.1372 64.6 72.4039 63.5333 74.1372 62.3333C75.7372 61.2667 76.9372 60.7333 77.8706 60.7333C79.0706 60.7333 80.2706 61.4 81.3372 62.8667C82.5372 64.3333 83.0706 65.8 83.0706 67.4C83.0706 70.7333 81.0706 73.8 76.9372 76.8667C69.7372 82.3333 61.3372 85 51.8706 85C42.2706 85 34.2706 82.2 27.7372 76.6C24.5372 73.8 22.0039 70.6 20.0039 66.7333C17.3372 61.5333 16.0039 56.2 16.0039 50.4667C16.0039 42.8667 18.2706 35.9333 22.9372 29.8C26.9372 24.4667 32.0039 20.6 38.2706 17.9333C42.9372 15.9333 48.0039 15 53.3372 15C62.0039 15 69.3372 17.4 75.4706 22.3333C78.5372 24.7333 80.9372 27.6667 82.8039 31.1333C84.9372 35 86.0039 38.7333 86.0039 42.3333C86.0039 45.2667 85.3372 47.6667 84.1372 49.6667C82.8039 51.4 81.2039 52.3333 79.3372 52.3333ZM48.9372 39.5333H55.8706C58.8039 39.5333 60.2706 38.2 60.2706 35.5333C60.2706 33.1333 59.6039 31 58.1372 29.5333C56.6706 27.9333 54.9372 27.2667 52.5372 27.2667C50.0039 27.2667 48.0039 28.3333 46.5372 30.3333C45.2039 32.2 44.5372 34.0667 44.5372 36.0667C44.5372 37.4 44.8039 38.3333 45.4706 39C46.1372 39.2667 47.2039 39.5333 48.9372 39.5333Z" fill="white"/>
</svg>
