<svg width="100" height="100" viewBox="0 0 100 100" fill="none" xmlns="http://www.w3.org/2000/svg">
<path d="M100 50C100 77.6142 77.6142 100 50 100C22.3858 100 0 77.6142 0 50C0 22.3858 22.3858 0 50 0C77.6142 0 100 22.3858 100 50Z" fill="#1354A8"/>
<path d="M11.0591 60.2801C11.0591 60.2801 10.0525 54.2642 16.349 54.718C16.349 54.718 20.1397 55.1719 23.8233 58.3065C23.8233 58.3065 27.2393 61.0928 30.2911 54.6231C30.2911 54.6231 33.5893 41.4513 37.4014 36.4802C40.2712 32.7335 48.9771 25.6199 59 27.2347C59 27.2347 40.7424 36.5541 41.8132 57.6838C42.7234 61.1456 45.5397 66.6444 48.8807 69.7896C48.8807 69.7896 37.0159 83.5207 23.909 70.1484L16.7987 61.0823C16.7987 61.0823 14.8926 58.2537 12.237 59.5519L11.0591 60.2801Z" fill="#CBA22E"/>
<path d="M34 56.1018C34 56.1018 34.2277 50.6693 38.1751 50.6693C42.1224 50.6693 44.5515 55.5879 49.3447 55.5879C54.127 55.5879 55.4283 45.3837 56.1115 42.657C56.7947 39.9408 61.2734 24 81.639 24C81.639 24 65.5352 33.1135 65.5352 51.6342C65.5352 70.1548 87.6468 74.4127 90 74.4127C90 74.4127 84.9791 75 81.2703 75C77.5507 75 69.7211 74.0457 64.3207 69.641C58.9311 65.2258 52.316 65.6767 49.3555 67.7323C49.3555 67.7218 40.6259 50.5854 34 56.1018Z" fill="#BCBEC0"/>
</svg>
