<svg width="100" height="100" viewBox="0 0 100 100" fill="none" xmlns="http://www.w3.org/2000/svg">
<path d="M100 50C100 77.6142 77.6142 100 50 100C22.3858 100 0 77.6142 0 50C0 22.3858 22.3858 0 50 0C77.6142 0 100 22.3858 100 50Z" fill="#FC4C01"/>
<path d="M76.215 24.1159C76.9905 22.3384 79.0722 21.5203 80.8654 22.2888C82.6587 23.0575 83.4836 25.1215 82.7082 26.8991C78.4482 36.6644 71.1583 50.617 62.4152 61.5534C58.0503 67.0134 53.1827 71.9012 47.9924 75.0984C42.8572 78.2615 37.1025 79.9395 31.1789 78.4499L30.8967 78.3767C25.054 76.8092 21.3258 73.2318 19.465 68.4753C17.6891 63.9358 17.7127 58.5995 18.5578 53.3874C20.2525 42.9367 25.5177 31.4265 29.8361 23.7927C30.7917 22.1035 32.9474 21.5018 34.6516 22.4489C36.3556 23.3962 36.9625 25.5332 36.007 27.2224C31.8614 34.5507 27.0479 45.227 25.5441 54.4997C24.7902 59.1492 24.9351 63.0591 26.0617 65.9392C27.1036 68.6024 29.06 70.6185 32.7453 71.6072L32.9094 71.6501C36.3693 72.5215 40.1313 71.6833 44.258 69.1413C48.4763 66.5429 52.7555 62.3441 56.8703 57.197C65.087 46.9188 72.0895 33.573 76.215 24.1159ZM42.5002 29.9997C44.9854 29.9998 47.0001 32.2384 47.0002 34.9997C47.0002 37.7611 44.9854 39.9997 42.5002 39.9997C40.0149 39.9997 38.0002 37.7612 38.0002 34.9997C38.0003 32.2384 40.015 29.9997 42.5002 29.9997ZM58.0002 29.9997C60.7615 29.9998 63.0001 32.2384 63.0002 34.9997C63.0002 37.7611 60.7616 39.9997 58.0002 39.9997C55.2388 39.9997 53.0002 37.7612 53.0002 34.9997C53.0003 32.2384 55.2388 29.9997 58.0002 29.9997Z" fill="white"/>
</svg>
