<svg width="100" height="100" viewBox="0 0 100 100" fill="none" xmlns="http://www.w3.org/2000/svg">
<path d="M0 0H100V100H0V0Z" fill="white"/>
<path fill-rule="evenodd" clip-rule="evenodd" d="M22.1875 12.7655C58.25 12.7655 87.5833 42.2116 87.5833 78.384C87.5833 85.7143 86.3333 93.0237 83.9375 99.9584H100V0H0V16.6806H0.0833333C7.16667 14.0775 14.6667 12.7863 22.2083 12.7863M0 43.8776C4.0625 38.0883 4.64583 31.4452 1.08333 28.2174C0.75 27.905 0.395833 27.6343 0 27.4261V43.8776ZM20.9583 22.803C17.3542 18.6797 11.375 17.2636 4.41667 18.2632C4.22917 18.284 4.02083 18.3257 3.85417 18.3465C3.3125 18.4298 2.79167 18.5548 2.25 18.6589C1.16667 18.9088 0.4375 19.1587 0 19.3253V21.4077C0.6875 20.8663 1.375 20.3457 2.10417 19.8667C3.4375 19.5752 4.77083 19.3878 6.125 19.3045C4 20.5331 1.9375 21.9075 0 23.4486V25.0521L0.0625 25.0937C0.0625 25.0937 5.16667 21.0537 9.20833 19.3253C10.1875 19.3878 11.125 19.5335 12.0208 19.7418C5.97917 22.3032 1.5 25.4894 1.1875 25.7185C1.8125 26.0933 2.375 26.5514 2.45833 26.6139C2.54167 26.5723 8.39583 22.9071 14.8542 20.6997C15.7292 21.0954 16.5833 21.5952 17.3125 22.1574C10.2708 24.1358 3.52083 27.6551 3.52083 27.6551C3.89583 28.0925 4.25 28.5714 4.52083 29.092L4.64583 29.0504C11.8333 25.9683 19.4792 24.3857 19.4792 24.3857C20.0833 25.1978 20.5625 26.1141 20.9375 27.1345C21.5 28.6547 14.0833 27.9259 5.25 30.7372C5.64583 31.9658 5.75 32.8821 5.75 32.8821C5.75 32.8821 14.0625 31.0287 21.75 30.8205C21.8542 32.1741 21.8125 33.5277 21.6458 34.8605C17.1042 34.6314 6.27083 35.1937 5.85417 35.2353C5.85417 35.2353 5.8125 36.7972 5.41667 38.2549C5.41667 38.2549 13.3333 38.5048 20.5208 39.8376C19.9583 41.5868 19.25 43.2736 18.4167 44.9188C13.625 43.4819 6.33333 41.7326 4.4375 41.2953C3.91667 42.5656 3.29167 43.7943 2.54167 44.9604C2.54167 44.9604 11.4375 48.8338 14.8542 50.7289C13.375 52.9571 10.4375 56.06 10.4375 56.06C9.58333 55.4352 8.77083 54.8313 8.02083 54.2691L0 48.6464V55.9975L4.60417 61.3911C3.125 62.5781 1.58333 63.6818 0 64.723V69.117L0.166667 69.0129C2.33333 67.5344 4.41667 65.9309 6.375 64.2232C22.2917 50.3748 28.8125 31.8409 20.9375 22.8238M40.5417 23.5735C33 13.4111 21.1667 14.8688 17.6458 15.3686C13.7708 15.91 10.8542 16.7638 10.8542 16.7638C11.7083 16.8471 12.8958 16.9929 13.75 17.1595C14.375 17.0137 19.8125 15.7851 23.7708 16.2849C20.875 16.5973 16.9167 17.8051 16.5 17.93C16.6458 17.9717 17.7917 18.3257 19.25 19.1795C19.6667 19.0546 25.0625 17.6385 30.1875 17.5344C30.1875 17.5344 32.0833 18.3673 33.9167 19.6377C27.2917 19.6168 21.8125 20.8871 21.6667 20.908C22.4375 21.5952 23.2083 22.4282 23.8958 23.4277C31.1667 22.3449 37.4167 22.803 37.4167 22.803C37.4167 22.803 38.2708 23.8442 38.6458 24.4065C39.125 25.1145 39.625 25.9892 40 26.7597C32.5833 25.885 25.5 26.5098 25.5 26.5098C25.9792 27.7801 26.3125 29.1129 26.5 30.5498C27.3125 30.5498 33.6042 30.5498 41.6042 31.9867C41.8542 33.8192 41.8958 35.7768 41.6875 37.8592C40.3333 37.5052 33.7708 35.8601 26.6042 35.152C26.4583 36.9429 26.125 38.7963 25.6042 40.7122C26.4167 40.8996 35.25 43.0029 40.2083 45.0229C39.4375 47.5427 38.4375 50 37.2708 52.3532C33.2708 50.3957 23.5 46.5639 23.5 46.5639C22.4792 48.8546 21.2708 51.0621 19.9167 53.1862C19.9167 53.1862 28.3125 57.9758 32.3542 60.6206C30.4375 63.3694 28.3333 65.9725 26.0625 68.4298C23.125 65.8059 15.7917 60.1208 15.25 59.7043C12.875 62.5156 9.89583 65.4727 9.02083 66.3474L17.8125 76.4265L17.5625 76.6556C15.7292 78.1549 13.8333 79.571 11.875 80.9038C10.375 81.9242 9.125 82.7155 8.70833 82.9863C8.60417 82.8197 2.83333 73.636 1.97917 72.1783C1.35417 72.6364 0.708333 73.0945 0.0625 73.5319V92.4406C1.10417 91.9409 2.14583 91.4202 3.16667 90.8788C8.125 88.4423 12.9375 85.3394 17.4167 81.7576C20.5417 79.2795 23.5 76.5931 26.2708 73.7193C29.6667 70.2624 32.7292 66.4931 35.4375 62.4531C45.1458 48.1258 47.75 33.1945 40.5833 23.5735M55.9583 27.0304C55.4583 26.3432 54.8958 25.6768 54.2917 25.0729C53.7708 24.5731 53.2083 24.0941 52.625 23.636C46.3542 18.9088 34.8333 16.5556 34.8333 16.5556C35.9375 17.1387 36.8542 17.7426 36.8542 17.7426C36.9167 17.7426 41.5625 18.9088 45.6875 20.9288C45.6875 20.9288 41.9375 20.075 39.5417 19.7418C40.5417 20.6164 41.4792 21.616 42.3125 22.6572C42.3125 22.6572 49.9583 24.0525 53.3125 25.885C53.3125 25.885 54.9167 27.5302 56.2292 30.4456C51 28.3215 45.0625 27.2178 45.0625 27.2178C45.8542 28.9879 46.4167 30.8621 46.7708 32.8405C46.7708 32.8405 53.2917 34.444 58.2083 36.7972C58.625 39.1295 58.7917 41.5244 58.7083 43.9609C54.9792 42.1283 51.125 40.5456 47.1667 39.2337C47.0417 41.8576 46.625 44.4606 45.9792 47.0012C45.9792 47.0012 53.8958 50.5206 57.4375 52.6656C56.6458 55.8101 55.5625 58.8713 54.2292 61.8284C48.8125 58.309 43.0833 55.1853 43.0833 55.1853C41.6458 58.6422 38.1042 64.2857 38.1042 64.2857C38.1042 64.2857 44.0833 68.3882 48.6042 71.97C46.3333 75.4061 43.8125 78.6547 41.0833 81.7368C40.125 80.8205 31.4583 73.1154 31.4583 73.1154C28.75 76.2391 25.8333 79.1962 22.7292 81.945L31.1042 91.4202C25.6667 95.8975 20.2708 99.2711 20.2708 99.2711L13.2917 89.3586C13.2917 89.3586 8.29167 93.1695 0 97.0845V99.9584H27.2292C57.6458 76.9679 68.4167 44.0858 55.9583 27.0304ZM54.0208 99.9584C61.125 92.0242 67.1667 82.6947 70.7917 72.6989C73.9375 64.015 75.6667 53.4361 72.875 44.0233C72.6875 43.3986 72.4792 42.7738 72.2292 42.1491C71.3333 39.8376 70.1875 37.8384 68.9167 36.2557C65.5208 32.4656 61.6667 29.092 57.4583 26.2182C58.0833 27.0096 58.6458 27.8426 59.125 28.6756C59.125 28.6756 64.25 32.4865 67.2292 36.339C63.4167 33.611 61.25 32.5073 60.9583 32.3823H60.9167C62.375 35.9434 62.8125 38.9005 62.8125 38.9005C62.8125 38.9005 67.3333 41.2745 71.4167 44.7938C71.9792 47.4177 72.2292 50.0833 72.1667 52.7697C68.0625 49.1462 63.2917 46.3349 63.2917 46.3349C63.1875 49.4169 62.7917 52.499 62.1042 55.5185C62.1042 55.5185 66.6042 58.3715 70.9792 62.349C70.9792 62.349 69.7292 67.9925 67.6875 72.449C64.9375 69.9084 62.0625 67.5135 59.0625 65.2645C59.0625 65.2645 56.9792 70.6997 53.6042 76.1558C57.8125 79.8209 61.7708 83.611 61.7708 83.611C59.3333 87.3803 56.6458 90.9621 53.6667 94.3149L46.1458 86.818C43.0833 90.5873 39.75 94.1483 36.1875 97.4386L38.5 100H53.9792L54.0208 99.9584ZM67.4167 99.9584H71.1667C81.8542 84.1733 82.3958 70.1583 82.3958 67.4927C82.3958 62.4323 81.5417 57.7676 80.125 54.0816C80.125 54.0816 77.8958 48.3549 74.4583 43.2528C74.8333 44.3982 75.5625 46.7097 75.9583 48.7713L76.0208 49.1462C76.7083 50.2915 79.7708 55.6851 80.1875 61.641C80.1875 61.641 78.0208 58.6214 76.4167 56.7055C76.3542 59.975 75.9583 63.2237 75.25 66.4098C75.25 66.4098 78.4583 70.1374 79.8958 72.5323C79.8958 72.5323 78.9167 77.7593 76.8125 82.778C74.6875 79.6751 71.9583 76.6556 71.9583 76.6556C70.3125 80.6539 68.375 84.5273 66.1042 88.2341C66.1042 88.2341 70.1667 93.0029 71.0625 94.3565C69.9167 96.2724 68.6875 98.1466 67.3958 99.9584H67.4167ZM74.5625 99.9584C76.5417 96.2516 78.75 91.6285 80.2292 87.7135C80.2708 87.8384 81.0208 89.7751 81.5625 91.7951C82.7083 87.7135 83.5208 83.5485 83.9583 79.3211C83.8125 78.7589 83.5208 77.8634 83.3542 77.3011C83.3542 77.3011 84.0833 73.6568 84.375 69.4919C84.7708 72.3449 84.9583 75.2395 84.9583 78.1758C84.9583 83.257 84.3542 88.2341 83.1875 93.0654C82.6042 95.3977 81.8958 97.6885 81.0833 99.9584H74.5833H74.5625Z" fill="#1414D2"/>
</svg>
