<svg width="100" height="100" viewBox="0 0 100 100" fill="none" xmlns="http://www.w3.org/2000/svg">
<circle cx="50.002" cy="50" r="50" fill="url(#paint0_linear_2099_1037)"/>
<path d="M52.8652 34.7305H76.7852L74.5137 37.6377H92.002L76.1699 58.0498H87.4883L86.5635 63.7979H48.833C48.8817 64.0471 48.9072 64.3047 48.9072 64.5684C48.9072 66.7702 47.1244 68.5535 44.9443 68.5537C42.7422 68.5537 40.958 66.7703 40.958 64.5684C40.958 62.366 42.7423 60.583 44.9443 60.583C45.8798 60.5831 46.7421 60.9111 47.4219 61.46L62.7148 41.0508L51.8369 41.0303L49.0615 58.0283H42.8965L45.4082 42.4844L34.8369 63.7979H29.6846L28.5166 48.1416L20.6562 63.7979H15.415L12.002 36.1846H19.0049L20.1494 51.0479L27.1514 36.1846H33.1855L34.2422 51.0479L40.8486 36.1846H46.4268L47.1025 32H53.3115L52.8652 34.7305ZM59.0146 57.4775H68.7646L79.4062 43.3848H70.0244L59.0146 57.4775Z" fill="white"/>
<defs>
<linearGradient id="paint0_linear_2099_1037" x1="50.002" y1="0" x2="50.002" y2="100" gradientUnits="userSpaceOnUse">
<stop stop-color="#C7007F"/>
<stop offset="1" stop-color="#430388"/>
</linearGradient>
</defs>
</svg>
