<svg width="100" height="100" viewBox="0 0 100 100" fill="none" xmlns="http://www.w3.org/2000/svg">
<path d="M98.2603 13.5779C98.7958 13.2746 99.3858 13.0615 100 13C99.6619 13.5334 99.1832 13.9586 98.8609 14.5025C98.0136 15.8609 97.5621 17.4249 97.2472 18.9847C96.9406 20.4639 96.824 21.9845 96.3568 23.4266C95.7374 25.4657 94.74 27.3913 93.4119 29.0508C91.7173 31.1366 89.5923 32.8151 87.3802 34.306C84.6956 36.1542 81.8598 37.836 79.5364 40.1571C77.8807 41.8155 76.5494 43.8323 75.8239 46.0803C74.4107 50.2296 73.2139 54.4816 71.2432 58.4114C69.8342 61.25 67.9717 63.8553 65.7417 66.0948C62.8513 69.0373 59.3877 71.3203 55.8569 73.3976C48.0624 77.8999 39.5057 80.9251 30.7831 82.9875C21.0348 85.2514 11.024 86.3309 1.02365 86.316C0.681386 86.3213 0.339118 86.3086 0 86.2683C8.84017 85.0627 17.6111 82.9865 25.8517 79.4883C33.3963 76.3115 40.4779 71.9003 46.392 66.1754C47.6949 64.9125 48.9517 63.5976 50.1202 62.2064C52.7775 58.9744 54.661 55.1963 56.4564 51.432C57.3887 49.4926 58.2863 47.5299 59.3761 45.6721C61.0276 42.8547 63.2807 40.3968 65.959 38.5475C69.198 36.2931 72.9188 34.9062 76.5998 33.5818C78.7489 32.8077 80.9044 32.0485 83.0115 31.162C84.4079 30.565 85.8116 29.9606 87.0946 29.1346C89.5314 27.5949 91.7047 25.5049 92.9499 22.8551C93.8056 21.0652 94.215 19.1045 94.9458 17.2637C94.1457 17.6285 93.5798 18.3771 93.3153 19.2074C92.9667 20.2943 91.8759 20.9379 90.8092 21.1108C91.289 20.6898 91.7142 20.1776 91.8937 19.5499C92.3326 18.1131 93.6176 16.9022 95.1432 16.8163C95.8665 15.4802 96.9311 14.3127 98.2603 13.5779V13.5779ZM96.2949 16.0496C95.9453 16.2596 95.9075 16.8237 96.2319 17.0739C96.5826 17.3878 97.2409 17.127 97.2482 16.6402C97.3081 16.1557 96.6939 15.7665 96.2949 16.0496V16.0496Z" fill="#DC001C"/>
<path d="M61.2124 37.9884C63.8854 36.8941 66.6635 36.0861 69.4625 35.3926C68.9733 35.6672 68.4368 35.8369 67.9318 36.0733C64.7674 37.49 61.9841 39.6807 59.6554 42.25C57.0422 45.1459 54.9644 48.4987 53.2751 52.017C50.9244 57.2871 47.1489 61.8498 42.5903 65.3215C36.2142 70.1939 28.5153 73.1184 20.6463 74.3378C18.9465 74.5828 17.2362 74.7948 15.5186 74.8394C17.737 74.1332 19.9596 73.4259 22.1088 72.5203C27.9147 70.1281 33.3228 66.6226 37.6179 61.9824C40.0275 59.324 42.289 56.513 44.1893 53.457C45.2098 51.8442 46.1736 50.1879 47.34 48.6758C48.6839 46.9082 50.2409 45.3166 51.8777 43.8257C54.6054 41.3275 57.795 39.3626 61.2124 37.9884Z" fill="#01742F"/>
<path d="M79.8229 42.2552C80.372 41.2839 80.9484 40.3073 81.718 39.4961C81.3243 41.2998 80.9001 43.1045 80.7416 44.9485C80.4497 47.8391 80.6282 50.7466 80.73 53.6414C80.919 57.0813 80.6849 60.6303 79.3515 63.84C78.0202 67.0148 76.0821 69.9647 73.5151 72.2562C70 75.3779 65.4728 77.1509 60.8806 77.838C59.017 78.1041 57.1251 78.2674 55.2437 78.1391C56.2253 77.5018 57.2878 76.9971 58.2947 76.398C61.3163 74.6664 64.2665 72.7588 66.8377 70.3846C69.4236 67.9935 71.5843 65.1496 73.302 62.0671C74.9913 59.0376 75.7808 55.6169 76.5514 52.2587C77.3325 48.8369 78.1147 45.3493 79.8229 42.2552V42.2552Z" fill="#FF3C00"/>
</svg>
