<svg width="100" height="100" viewBox="0 0 100 100" fill="none" xmlns="http://www.w3.org/2000/svg">
<path d="M100 50C100 77.6142 77.6142 100 50 100C22.3858 100 0 77.6142 0 50C0 22.3858 22.3858 0 50 0C77.6142 0 100 22.3858 100 50Z" fill="#6F2B91"/>
<path d="M89.0018 60.8903L81.6625 51.7227L74.9468 57.3381L82.2861 66.5058L89.0018 60.8903Z" fill="#21B9DA"/>
<path d="M72.8149 59.0462C72.8149 59.0462 63.8464 67.3813 54.6364 67.3813C43.758 67.3813 40.6727 59.6371 40.1406 58.0831C37.0096 48.9677 45.2761 38.2395 50.7741 35.3338C53.017 34.1454 56.1872 32.9538 58.5868 34.2303C58.6684 34.2727 59.6185 34.8376 58.1232 37.5343C57.1633 39.2614 52.2661 45.84 43.918 47.1753C41.1461 53.0977 42.4978 57.0775 43.6209 58.9874C49.6183 58.55 55.2926 56.258 60.5196 52.1574L60.6404 52.0595C65.2438 48.2299 72.6092 40.4824 70.2194 31.6184C68.884 26.6722 64.7736 23.1626 59.2202 22.2288C52.1682 21.047 41.662 24.0767 33.464 36.2186C28.4982 42.8331 20.6594 65.7195 42.6283 76.6893C62.3805 85.3215 80.0399 68.2628 80.0399 68.2628L72.8149 59.0462Z" fill="white"/>
<path d="M27.4827 42.0755C24.4726 39.8815 20.225 35.8364 18.4522 34.0146L10.6787 42.8525C14.8446 48.1252 22.4321 53.0322 25.0896 54.4753C25.0505 49.9209 26.105 45.5623 27.4827 42.0755Z" fill="white"/>
</svg>
