<svg width="100" height="100" viewBox="0 0 100 100" fill="none" xmlns="http://www.w3.org/2000/svg">
<path d="M80.3463 77.9932H77.2327C75.0087 77.9932 73.2295 79.8066 73.2295 81.9964C73.2295 84.2204 75.0087 85.9996 77.2327 85.9996C79.4567 85.9996 81.2359 84.1862 81.2359 81.9964V77.9932H80.3463ZM75.0087 81.9964C75.0087 80.7646 76.0009 79.7724 77.2327 79.7724C77.2327 79.7724 78.5671 79.7724 79.4567 79.7724C79.4567 80.662 79.4567 81.9964 79.4567 81.9964C79.4567 83.2281 78.4645 84.2204 77.2327 84.2204C76.0009 84.2204 75.0087 83.2281 75.0087 81.9964Z" fill="#95B748"/>
<path d="M91.0216 70.9102C91.0216 72.9973 89.345 74.6739 87.2578 74.6739C85.1707 74.6739 83.4941 72.9973 83.4941 70.9102C83.4941 68.823 85.1707 67.1465 87.2578 67.1465C89.345 67.1465 91.0216 68.823 91.0216 70.9102Z" fill="#A66D24"/>
<path d="M73.4004 70.5004C73.4004 72.2454 74.8374 73.6825 76.5824 73.6825C78.3274 73.6825 79.7645 72.2796 79.7645 70.5004C79.7645 68.7554 78.3616 67.3184 76.5824 67.3184C74.8374 67.3184 73.4004 68.7554 73.4004 70.5004ZM75.1796 70.5004C75.1796 69.7477 75.7955 69.1318 76.5482 69.1318C77.301 69.1318 77.9511 69.7477 77.9511 70.5004C77.9511 71.2531 77.3352 71.869 76.5482 71.869C75.7955 71.9032 75.1796 71.2531 75.1796 70.5004Z" fill="#7CA6BF"/>
<path d="M75.385 66.0858C69.2263 66.0858 69.0552 59.7559 69.0552 59.7559V55.958H72.5794C72.5794 55.958 79.183 55.9238 79.183 62.0142C79.183 64.0329 79.183 66.7359 79.183 66.7359C79.183 66.7359 76.5826 66.0858 75.385 66.0858Z" fill="#7CA6BF"/>
<path d="M67.7891 56.0264V60.0296C67.7891 62.2536 66.0099 64.0328 63.7859 64.0328C61.5619 64.0328 59.7827 62.2536 59.7827 60.0296C59.7827 57.8056 61.5619 56.0264 63.7859 56.0264H67.7891Z" fill="#7AC5C0"/>
<path d="M69.0552 55.2398V51.2366C69.0552 49.0126 70.8344 47.2334 73.0584 47.2334C75.2824 47.2334 77.0616 49.0126 77.0616 51.2366C77.0616 53.4606 75.2824 55.2398 73.0584 55.2398H69.0552Z" fill="#305D83"/>
<path d="M54.8902 40.5957H53.4189V47.9178C53.4189 51.9553 56.7036 55.2399 60.7411 55.2399H68.029V47.9178C68.029 43.8804 64.7443 40.5957 60.7069 40.5957H54.8902ZM60.7411 43.5725C63.1362 43.5725 65.0864 45.5227 65.0864 47.9178C65.0864 47.9178 65.0864 50.6209 65.0864 52.2632C63.4441 52.2632 60.7411 52.2632 60.7411 52.2632C58.346 52.2632 56.3957 50.3129 56.3957 47.9178C56.3957 47.9178 56.3957 45.2148 56.3957 43.5725C58.038 43.5725 60.7411 43.5725 60.7411 43.5725Z" fill="#4686BF"/>
<path d="M54.4109 53.3239C54.4109 54.1792 53.7266 54.8293 52.9054 54.8293C52.05 54.8293 51.3999 54.145 51.3999 53.3239C51.3999 52.5027 52.0842 51.8184 52.9054 51.8184C53.7266 51.8184 54.4109 52.4685 54.4109 53.3239Z" fill="#B34061"/>
<path d="M52.3924 49.2865C52.3924 50.5183 51.4001 51.5105 50.1683 51.5105C48.9366 51.5105 47.9443 50.5183 47.9443 49.2865C47.9443 48.0548 48.9366 47.0625 50.1683 47.0625C51.4001 47.0625 52.3924 48.0548 52.3924 49.2865Z" fill="#B34061"/>
<path d="M52.1869 42.5463C52.1869 44.3256 50.7499 45.7626 48.9707 45.7626C47.1915 45.7626 45.7544 44.3256 45.7544 42.5463C45.7544 40.7671 47.1915 39.3301 48.9707 39.3301C50.7499 39.3301 52.1869 40.7671 52.1869 42.5463Z" fill="#B34061"/>
<path d="M53.4189 39.2273V35.6347C53.4189 33.6502 55.0271 32.0078 57.0458 32.0078C59.0303 32.0078 60.6384 33.6159 60.6384 35.6347C60.6384 37.6192 59.0303 39.2615 57.0458 39.2615H53.4189V39.2273Z" fill="#908DB8"/>
<path d="M45.4807 26.875H41.1011V31.4941C41.1695 33.855 42.675 38.2003 47.8073 38.2003C48.3548 38.2003 49.7234 38.5083 50.5446 38.7136L52.3922 39.1926V33.376C52.3922 31.5283 51.8105 30.0228 50.6472 28.8937C48.6969 26.9092 45.7886 26.875 45.4807 26.875ZM45.4807 29.8518C46.1308 29.8518 49.4155 30.0228 49.4155 33.376C49.4155 33.376 49.4155 34.4024 49.4155 35.4289C48.8338 35.3262 48.2521 35.2236 47.8073 35.2236C44.3858 35.2236 44.112 32.0758 44.0778 31.4257C44.0778 31.4257 44.0778 30.6387 44.0778 29.8175C44.7964 29.8518 45.4807 29.8518 45.4807 29.8518Z" fill="#DF261F"/>
<path d="M38.6377 26.9092H28.6468C22.3169 26.9092 17.1846 32.0415 17.1846 38.3714C17.1846 44.7013 22.3169 49.8678 28.6468 49.8678C34.9766 49.8678 40.1432 44.7013 40.1432 38.3714V26.9092H38.6377ZM20.1271 38.4056C20.1271 33.7181 23.9592 29.8859 28.6468 29.8859C28.6468 29.8859 35.0109 29.8859 37.1664 29.8859C37.1664 32.0415 37.1664 38.4056 37.1664 38.4056C37.1664 43.0931 33.3343 46.9253 28.6468 46.9253C23.9592 46.891 20.1271 43.0931 20.1271 38.4056Z" fill="#F7C200"/>
<path d="M8.39111 34.1977C8.39111 35.9427 9.79395 37.3455 11.5732 37.3455C13.3182 37.3455 14.7552 35.9427 14.7552 34.1977C14.7552 32.4527 13.3182 31.0156 11.5732 31.0156C9.79395 31.0498 8.39111 32.4527 8.39111 34.1977ZM10.1703 34.1977C10.1703 33.4449 10.7862 32.7948 11.5732 32.7948C12.3259 32.7948 12.9418 33.4107 12.9418 34.1977C12.9418 34.9504 12.3259 35.5663 11.5732 35.5663C10.7862 35.6005 10.1703 34.9846 10.1703 34.1977Z" fill="#5B9849"/>
<path d="M30.1182 21.2298C30.1182 24.0013 32.3422 26.2253 35.1136 26.2253H40.1091V21.2298C40.1091 18.4584 37.8509 16.2344 35.1136 16.2344H30.1182V21.2298Z" fill="#F29B1B"/>
<path d="M26.9018 26.6356C28.149 26.6356 29.16 25.6246 29.16 24.3774C29.16 23.1302 28.149 22.1191 26.9018 22.1191C25.6546 22.1191 24.6436 23.1302 24.6436 24.3774C24.6436 25.6246 25.6546 26.6356 26.9018 26.6356Z" fill="#DC7B88"/>
<path d="M21.4614 17.6028C21.4614 19.8268 23.2406 21.606 25.4646 21.606H29.4679V17.6028C29.4679 15.3788 27.6544 13.5996 25.4646 13.5996C23.2406 13.5996 21.4614 15.413 21.4614 17.6028ZM23.2406 17.6028C23.2406 16.3711 24.2329 15.3788 25.4646 15.3788C26.6964 15.3788 27.6887 16.3711 27.6887 17.6028C27.6887 17.6028 27.6887 18.9372 27.6887 19.8268C26.7648 19.8268 25.4646 19.8268 25.4646 19.8268C24.2329 19.8611 23.2406 18.8346 23.2406 17.6028Z" fill="#E57025"/>
</svg>
