<svg width="100" height="100" viewBox="0 0 100 100" fill="none" xmlns="http://www.w3.org/2000/svg">
<path d="M70.7071 12.927C63.369 15.4126 53.7058 19.5059 43.7422 23.279C49.2673 25.8348 54.7085 28.2345 59.0377 30.1818C73.0776 24.4465 83.8422 21.2273 83.8422 21.2273C83.8422 21.2273 82.0917 25.7596 74.5207 37.1684C78.173 38.7918 82.7025 40.7057 85.6262 41.6232C96.3092 26.937 103.128 13.5214 98.5561 8.93441C97.7671 8.13903 96.7623 7.27051 93.7838 7.27051C90.1336 7.27051 83.5192 8.57585 70.7071 12.927" fill="url(#paint0_linear_2099_1084)"/>
<path d="M54.4307 69.5269C58.1761 72.4102 60.967 70.8948 63.9035 68.7075C63.6219 68.9758 63.3362 69.2398 63.0464 69.4993C66.9424 66.2027 71.7729 61.1265 78.6601 52.6365C75.0241 50.4492 71.3944 48.2817 68.4337 46.5205L54.4307 69.5269Z" fill="url(#paint1_linear_2099_1084)"/>
<path d="M4.14684 10.3979C3.88124 10.4121 3.65327 10.4333 3.41821 10.4191C3.11994 10.4049 2.571 10.8545 2.571 10.8545C-10.1729 18.3432 27.7342 79.0542 44.5601 90.2904C46.8952 91.8485 51.1518 93.5372 54.9001 92.3072C55.3354 92.1638 56.2849 91.448 56.3275 91.3975C60.0595 87.0708 63.7848 82.7383 67.5034 78.4001C67.3635 77.3725 66.3259 77.9839 66.2009 78.0734C61.8668 81.2258 58.071 79.4619 46.3866 67.5894C33.9424 54.9606 21.8789 32.8589 21.8789 32.8589L77.9357 58.1073C81.6534 59.7804 83.7405 58.8288 84.8228 58.1286C85.1211 57.9354 95.2722 45.7092 95.2722 45.7092C95.3397 44.8599 94.3951 45.3307 94.3951 45.3307C91.1262 47.3802 88.6357 45.852 83.3493 43.7279C79.7821 42.2948 42.2052 25.6848 28.8193 19.3338C11.6405 11.1861 6.9179 10.3715 4.8286 10.3715C4.601 10.3689 4.37342 10.3783 4.14684 10.3999" fill="url(#paint2_linear_2099_1084)"/>
<defs>
<linearGradient id="paint0_linear_2099_1084" x1="14.2066" y1="68.4715" x2="87.6252" y2="16.0792" gradientUnits="userSpaceOnUse">
<stop stop-color="#20294E"/>
<stop offset="0.5001" stop-color="#005695"/>
<stop offset="1" stop-color="#26B5E3"/>
</linearGradient>
<linearGradient id="paint1_linear_2099_1084" x1="35.2235" y1="77.1918" x2="109.006" y2="30.8453" gradientUnits="userSpaceOnUse">
<stop stop-color="#20294E"/>
<stop offset="1" stop-color="#005F9B"/>
</linearGradient>
<linearGradient id="paint2_linear_2099_1084" x1="74.9349" y1="73.7413" x2="9.16623" y2="4.43549" gradientUnits="userSpaceOnUse">
<stop stop-color="#20294E"/>
<stop offset="0.2951" stop-color="#005695"/>
<stop offset="0.9039" stop-color="#26B5E3"/>
<stop offset="1" stop-color="#26B5E3"/>
</linearGradient>
</defs>
</svg>
