<svg width="100" height="100" viewBox="0 0 100 100" fill="none" xmlns="http://www.w3.org/2000/svg">
<path d="M40.043 66.6707C38.5651 57.1514 41.1726 47.3538 43.4559 40.496C48.1484 28.9492 45.8874 17.4983 32.9089 23.1761C29.2153 24.8761 23.5699 30.7369 20.9676 35.6347C12.9412 50.7408 15.6398 73.5754 25.4685 73.7194C29.4689 73.5661 34.8346 69.7015 40.043 66.6707V66.6707ZM12.1803 84.1898C8.60549 83.0507 3.92918 78.0399 2.12523 73.4156C-0.758148 65.03 -0.747171 53.4827 2.40096 44.1354C6.83108 31.385 16.4812 20.1634 25.8516 16.5571C34.4549 13.2618 47.7522 13.0742 56.4623 22.5079C63.2314 16.0685 73.2818 13.9639 78.8663 14.0456C92.7507 13.4325 100 19.0242 100 29.4831C100 33.2317 97.1706 38.6532 93.7814 41.3987C89.7923 44.6302 64.9913 60.2189 63.8016 60.2189L63.7324 52.8628L71.0525 47.696C80.4876 41.0362 83.689 37.5752 84.7341 32.9051C87.4055 20.9681 75.0267 17.6306 65.8671 27.8184C56.6595 38.0594 53.219 59.4287 59.1424 69.5855C63.6962 77.3939 72.7288 74.973 87.0093 66.4955L92.5072 62.9689L96.3916 68.3869C90.8671 73.1487 85.1577 77.2642 79.3707 80.9251C74.2104 83.787 69.2903 85.0612 63.3997 85.0612C52.4426 84.8866 45.5188 82.0266 42.2878 74.4544C42.0353 74.4318 39.4726 76.528 36.2481 78.6969C28.8737 83.6407 19.8055 86.7454 12.1803 84.1898V84.1898Z" fill="#0970CB"/>
</svg>
