<svg width="100" height="100" viewBox="0 0 100 100" fill="none" xmlns="http://www.w3.org/2000/svg">
<path d="M33.3326 83.3411L50.0051 66.6619L66.6672 83.3411L50.0051 100L33.3326 83.3411Z" fill="#ED164A"/>
<path d="M33.3326 16.6692L50.0051 0L66.6672 16.6692L50.0051 33.3383L33.3326 16.6692Z" fill="#ED164A"/>
<path d="M66.6652 50.0004L83.3377 33.3364L100 50.0004L83.3377 66.6644L66.6652 50.0004Z" fill="#ED164A"/>
<path d="M0 50.0004L16.6724 33.3364L33.3346 50.0004L16.6724 66.6644L0 50.0004Z" fill="#ED164A"/>
<path d="M20.3702 70.3705V62.9643L16.6724 66.6644L20.3702 70.3705ZM24.0779 74.0737L27.7856 77.7769V55.5583L24.0779 59.2664V74.0737ZM31.4884 51.86V81.4899L33.3326 83.3411L35.1809 81.4899V51.86L33.3346 50.0004L31.4884 51.86ZM46.2891 62.9643V70.3705L50.0051 66.6619L46.2891 62.9643ZM38.8886 77.7767L42.5964 74.0735V59.2662L38.8886 55.5581V77.7767Z" fill="#ED164A"/>
<path d="M53.7026 37.0296V29.6337L49.9949 33.3418L53.7026 37.0296ZM57.4052 40.738L61.1129 44.4412V22.2174L57.4052 25.9307V40.738ZM64.8106 18.5243V48.1493L66.6652 50.0004L68.5134 48.1493V18.5243L66.6672 16.6692L64.8106 18.5243ZM79.6216 29.6337V37.0296L83.3293 33.3418L79.6216 29.6337ZM72.2162 44.441L75.9291 40.7377V25.9305L72.2162 22.2172V44.441Z" fill="#ED164A"/>
<path d="M53.7026 70.3705V62.9643L49.9949 66.6624L53.7026 70.3705ZM57.4052 74.0737L61.1129 77.7769V55.5583L57.4052 59.2664V74.0737ZM64.8106 51.86V81.4899L66.6672 83.3411L68.5134 81.4899V51.86L66.6671 49.9981L64.8106 51.86ZM79.6216 62.9643V70.3705L83.3293 66.6624L79.6216 62.9643ZM72.2162 77.7767L75.9291 74.0735V59.2662L72.2162 55.5581V77.7767Z" fill="#ED164A"/>
<path d="M20.3702 37.0296V29.6337L16.6725 33.3418L20.3702 37.0296ZM24.0779 40.738L27.7856 44.4412V22.2174L24.0779 25.9307V40.738ZM31.4884 18.5243V48.1493L33.3346 50.0004L35.1809 48.1493V18.5243L33.3347 16.6675L31.4884 18.5243ZM46.2891 29.6337V37.0296L50.0071 33.3418L46.2891 29.6337ZM38.8886 44.441L42.5964 40.7377V25.9305L38.8886 22.2172V44.441Z" fill="#ED164A"/>
</svg>
