<svg width="100" height="100" viewBox="0 0 100 100" fill="none" xmlns="http://www.w3.org/2000/svg">
<path d="M100 50C100 77.6142 77.6142 100 50 100C22.3858 100 0 77.6142 0 50C0 22.3858 22.3858 0 50 0C77.6142 0 100 22.3858 100 50Z" fill="#73C900"/>
<path d="M57.0112 82C46.5258 82 38.0199 73.5052 38.0199 63.0329V62.0077H36.9932C31.9338 62.0077 27.1678 60.0304 23.5749 56.442C19.982 52.8536 18.002 48.0935 18.002 43.0404C18.002 37.9874 19.982 33.2273 23.5749 29.6389C27.1678 25.9773 31.9338 24 36.9932 24H57.0112C62.0706 24 66.8366 25.9773 70.4295 29.5657C74.0225 33.1541 76.002 37.9142 76.002 42.9672V62.9597C76.002 73.432 67.4966 82 57.0112 82ZM36.9932 32.8611C34.2805 32.8611 31.7137 33.8864 29.8074 35.7905C27.9011 37.6945 26.8745 40.2576 26.8745 42.9672C26.8745 45.6768 27.9011 48.2399 29.8074 50.144C31.7137 52.0481 34.2805 53.0733 36.9932 53.0733H46.8924V62.9597C46.8924 68.5254 51.4382 73.0658 57.0112 73.0658C62.5836 73.0658 67.13 68.5254 67.13 62.9597V42.9672C67.13 40.2576 66.1033 37.6945 64.197 35.7905C62.2902 33.8864 59.7239 32.8611 57.0112 32.8611H36.9932Z" fill="white"/>
</svg>
