<svg width="100" height="100" viewBox="0 0 100 100" fill="none" xmlns="http://www.w3.org/2000/svg">
<path d="M100 50C100 77.6142 77.6142 100 50 100C22.3858 100 0 77.6142 0 50C0 22.3858 22.3858 0 50 0C77.6142 0 100 22.3858 100 50Z" fill="#E40046"/>
<path d="M44.4773 24.1202C45.8961 24.1556 46.6576 24.6783 47.6384 25.6856C49.3897 27.6007 50.3364 29.5332 50.2956 32.1651C50.1914 33.5121 49.8452 34.7929 49.5144 36.0977C48.7982 39.0648 48.2071 42.0417 47.6823 45.0499C47.6477 45.2464 47.6135 45.4431 47.5778 45.6456C46.42 52.2395 45.9388 58.76 45.9392 65.4532C45.9364 68.4814 46.202 71.4703 46.2976 74.4923C46.1986 75.1874 46.0017 76.0001 45.5017 76.0001C45.0015 76 43.6613 75.9169 42.821 75.4405C40.7235 73.8896 39.5383 71.7889 38.8933 69.2598C38.4043 66.1106 38.3339 62.9627 38.3464 59.7803C38.3469 59.5451 38.3468 59.3098 38.3474 59.0675C38.3803 49.4959 39.6751 40.0442 41.198 30.6124C41.2561 30.2516 41.3127 29.8905 41.3689 29.5294C42.2039 24.2065 42.2046 24.2062 44.4773 24.1202Z" fill="white"/>
<path d="M16.49 50.8087C19.433 47.3678 29.0364 38.0924 34.0017 41.5001C35.0016 42.5 35.3335 43.6989 35.3474 44.9444C35.0135 46.7671 34.2509 48.2198 32.7478 49.2784C31.6781 49.8854 30.5853 50.4281 29.4773 50.9581C24.8378 53.1834 18.3298 56.3088 16.4382 61.5557C16.1522 62.6637 16.1156 63.4548 16.4675 64.5499C17.0006 65.292 17.2116 65.4576 18.0925 65.6485C19.9242 65.7658 21.6832 65.4313 23.4489 64.9913C26.1811 64.283 28.8946 63.362 31.3728 61.9796C32.1383 61.6534 32.7363 61.7403 33.5017 62.0001C34.5016 62.5001 34.4034 63.099 34.5017 64.0001C34.5017 66.4999 32.5968 67.8875 30.9157 69.3643C26.881 72.4133 21.4547 74.2197 16.4382 73.5928C15.0181 73.2616 13.576 72.6178 12.656 71.4259C10.6737 67.9625 10.4193 64.0385 11.3562 60.1417C12.4386 56.664 14.1816 53.6068 16.49 50.8087Z" fill="white"/>
<path d="M55.9109 37.0001C56.9417 36.445 57.728 36.4133 58.7478 37.0001C60.65 38.6608 61.7963 41.0183 62.2927 43.5001C62.4529 45.7814 61.8316 48.0124 61.3366 50.2188C61.0018 51.7164 60.6803 53.2168 60.3571 54.7169C59.4719 58.8521 58.8918 62.9387 58.6931 67.171C58.667 67.6517 58.6423 68.138 58.6198 68.6485C58.4953 69.3467 58.2015 69.7779 58.0017 70.0001C57.8014 70.2222 55.8257 69.9116 54.9099 69.0313C51.3673 64.8404 52.0418 59.7347 52.403 54.5997C52.7171 50.3268 53.2682 46.0713 54.1237 41.8751C54.1665 41.659 54.2096 41.4424 54.2536 41.2198C54.5762 39.7424 55.0198 38.2304 55.9109 37.0001Z" fill="white"/>
<path d="M72.4567 39.4073C75.4737 36.6799 83.5332 30.0417 87.8005 32.4405C88.3149 32.8599 88.7057 33.2674 89.0017 33.8702C89.5017 35.9998 89.1131 37.1802 88.0564 38.6856C86.7114 40.2776 85.0966 41.2069 83.2253 41.9952C78.1947 44.2074 72.6577 47.3748 70.2409 52.6329C70.0429 53.621 70.0573 54.5627 70.3288 55.5372C70.8935 56.2574 71.4207 56.4632 72.323 56.5665C76.8983 56.7239 81.628 54.8169 85.6941 52.8194C86.1654 52.6482 86.5018 52.5001 87.0017 52.5001C87.5017 52.5001 87.8451 53.2225 87.9235 53.6114C88.0019 54.0007 88.0532 56.5048 87.2439 57.8546C84.3979 61.7444 78.8264 63.9318 74.2312 64.6261C71.6354 64.8855 69.2997 64.6856 67.2136 62.9522C65.0743 60.7966 64.6868 58.2621 64.6569 55.297C65.0055 49.0457 68.1328 43.7127 72.4567 39.4073Z" fill="white"/>
<path d="M61.0017 24.5001C62.5294 24.0061 64.0248 23.6622 65.5134 24.8311C67.002 26.0001 67.1891 28.0647 67.1091 30.0479C66.8607 32.0423 66.1432 33.2929 64.6101 34.545C63.586 35.2831 62.5669 35.2253 61.3474 35.0929C60.0734 34.6579 59.2616 33.7771 58.5114 32.6856C57.7837 31.1291 57.5275 28.9603 58.0388 27.2989C58.581 26.083 59.8465 25.0854 61.0017 24.5001Z" fill="white"/>
</svg>
