<svg width="100" height="100" viewBox="0 0 100 100" fill="none" xmlns="http://www.w3.org/2000/svg">
<path d="M0 25C0 11.1929 11.1929 0 25 0H75C88.8072 0 100 11.1929 100 25V75C100 88.8072 88.8072 100 75 100H25C11.1929 100 0 88.8072 0 75V25Z" fill="#008CFF"/>
<path d="M52.4863 59.9619C54.3113 59.9784 60.2272 60.309 63.9521 64.0352L81.9102 82C81.9102 82 75.7824 81.9772 73.957 81.9609C72.1322 81.9445 66.2152 81.6141 62.4902 77.8877L44.5332 59.9229C44.5842 59.923 50.669 59.9457 52.4863 59.9619ZM67.2168 24.71C67.2003 26.5357 66.8704 32.4543 63.1455 36.1807L17.4023 81.9385C17.4024 81.9295 17.4251 75.8058 17.4414 73.9814C17.4578 72.1558 17.7888 66.2371 21.5137 62.5107L67.2559 16.7529C67.2559 16.7529 67.233 22.8843 67.2168 24.71ZM71.0762 13C71.0762 13 75.3959 17.3476 76.6748 18.6533C77.9536 19.9555 81.9043 24.3728 81.9043 29.6436V76.582C81.8861 76.5638 77.5816 72.2313 76.3057 70.9287C75.0269 69.6264 71.0763 65.21 71.0762 59.9395V13Z" fill="white"/>
</svg>
