<svg width="100" height="100" viewBox="0 0 100 100" fill="none" xmlns="http://www.w3.org/2000/svg">
<circle cx="50" cy="50" r="50" fill="#046C84"/>
<path d="M50.0016 69.4631C49.3021 69.8591 44.2991 74.0922 34.343 74.0922C25.9552 74.0963 16.9984 69.807 14.1851 69.8904C13.1959 69.8487 12.4025 70.0492 11.7789 70.3228C10.6045 70.8151 9.46393 70.0961 10.1007 68.8925C12.3086 64.7272 16.051 62.1638 19.5978 61.0958C22.1839 60.3168 24.5459 60.0538 25.7725 61.4136C28.4658 64.399 33.3356 68.085 38.0697 68.5695C38.4507 68.6087 40.1705 68.7519 40.1888 68.2673C40.2076 67.9704 39.6224 67.7776 39.0301 67.7334C34.1941 67.3843 25.4802 62.2184 20.6912 52.2151C18.8931 48.4614 17.4655 44.822 14.3365 43.2382C13.6423 42.9047 13.6214 41.6258 15.0776 41.2792C16.098 41.037 22.5311 40.4195 29.888 44.2854C33.265 46.0595 33.7375 47.6511 33.7479 49.0397C33.7191 59.5223 39.0326 63.6825 41.0866 64.912C42.2297 65.5946 43.2997 65.8863 43.4145 65.5295C43.5058 65.2299 43.2057 65.0267 42.942 64.8679C36.5717 61.0072 34.8883 55.0677 34.8388 49.0214C34.7918 43.0402 37.0101 37.8641 38.5837 33.6231C38.8161 33.024 39.5625 30.4971 38.9282 28.1578C38.4532 26.4124 38.8395 25.9043 39.7581 25.9043C40.7682 25.9043 42.1121 27.535 42.5637 28.0952C42.9264 28.5145 44.0983 29.9421 45.8729 33.4408C49.3829 40.3674 49.4065 47.6042 49.4065 48.4899C49.4065 53.463 48.1225 54.0386 46.0295 55.0702C43.939 56.1018 42.9448 57.4304 42.942 58.9726C42.9379 60.5564 44.0434 62.2055 46.0295 62.7863C47.5666 63.2344 48.5426 63.0652 48.4618 62.6665C48.3992 62.3514 47.7179 62.2733 47.5196 62.2184C45.424 61.6505 44.0356 60.58 44.0356 58.9726C44.0356 56.9667 46.5122 55.495 49.9963 55.495C53.483 55.495 55.9596 56.9667 55.9596 58.9726C55.9596 60.58 54.5739 61.6533 52.4781 62.2184C52.2798 62.2733 51.5987 62.3512 51.5361 62.6665C51.4553 63.0677 52.4312 63.2371 53.9709 62.7863C55.9543 62.208 57.0584 60.5591 57.0557 58.9726C57.0536 57.4331 56.0587 56.1018 53.9709 55.0702C51.8779 54.0386 50.5914 53.463 50.5914 48.4926C50.5914 47.6069 50.6175 40.3674 54.125 33.4408C55.8996 29.9448 57.0713 28.5145 57.4342 28.0952C57.8856 27.535 59.2297 25.9043 60.2396 25.9043C61.1582 25.9043 61.5445 26.4124 61.0695 28.1578C60.4406 30.4971 61.1818 33.024 61.4115 33.6231C62.9878 37.8693 65.2086 43.0402 65.1616 49.0214C65.1094 55.0702 63.4287 61.0097 57.0584 64.8704C56.7974 65.0267 56.4895 65.2299 56.5859 65.5295C56.698 65.889 57.7682 65.5998 58.9113 64.9148C60.9678 63.6852 66.2786 59.5223 66.2525 49.0397C66.2608 47.6511 66.7327 46.0595 70.1124 44.2854C77.4693 40.4195 83.9025 41.0395 84.9203 41.2792C86.3765 41.6258 86.3581 42.9074 85.6639 43.2382C82.5322 44.822 81.1048 48.4639 79.3093 52.2151C74.5202 62.2184 65.8036 67.3868 60.9678 67.7359C60.3753 67.7776 59.7882 67.9731 59.8091 68.27C59.8279 68.7519 61.5472 68.6087 61.9282 68.5695C66.6623 68.0877 71.5322 64.4015 74.2254 61.4136C75.4545 60.0563 77.8138 60.3168 80.4026 61.0983C83.9467 62.1638 87.6891 64.7272 89.897 68.8952C90.5365 70.0988 89.3959 70.8151 88.219 70.3253C87.5952 70.0519 86.8018 69.8512 85.8128 69.8904C83.002 69.8095 74.0453 74.0974 65.6522 74.0949C55.6986 74.0949 50.6983 69.8591 50.0016 69.4631" fill="#DBA413"/>
</svg>
