<svg width="100" height="100" viewBox="0 0 100 100" fill="none" xmlns="http://www.w3.org/2000/svg">
<path d="M58.6201 18.7687C56.17 16.6913 54.2151 16.125 50.9563 16.125H1.24707L33.8156 80.1154C35.0691 82.5772 36.7098 83.6093 39.0319 83.6093H81.4684C83.4392 83.6093 84.6146 82.5866 85.4134 80.797L91.2304 67.7632L98.1438 52.2736L58.6201 18.7687Z" fill="#DF173B"/>
<path d="M44.3813 35.856C44.3813 35.856 46.0155 32.2619 47.4195 31.0235C47.8568 30.7055 48.2165 30.2927 48.4717 29.816C48.7268 29.3392 48.8707 28.811 48.8927 28.2707C48.8954 27.9376 48.8176 27.6087 48.6659 27.3121C48.5142 27.0155 48.2932 26.7598 48.0215 26.567C48.0215 26.567 45.6063 24.8756 43.9779 28.178C43.9779 28.178 36.3676 45.3405 34.5649 62.2411C34.5649 62.2411 34.3746 62.7931 34.2059 61.2867C34.2059 61.2867 31.9304 47.3766 31.8415 46.8709C31.7527 46.3652 31.7169 45.1142 30.5237 45.0929C30.5237 45.0929 29.1354 44.9354 28.4662 47.075L25.2617 56.9069C25.2617 56.9069 24.7052 58.147 25.7735 58.5214C25.7735 58.5214 26.9708 59.0986 27.6116 57.4288L29.096 53.4658C29.3913 52.6503 29.6629 52.7458 29.6629 52.7458C29.8768 52.7748 30.0239 53.603 30.0239 53.603C30.0239 53.603 32.9891 72.2576 33.0191 72.432C33.0491 72.6065 33.2949 74.0809 34.5598 73.9912C35.4381 73.9289 35.6896 72.8694 35.8143 72.0131C35.9389 71.1568 37.0074 62.0766 39.1692 52.2304C40.5821 45.7654 42.532 39.2799 44.3813 35.856ZM42.9615 52.4293C42.4319 52.6334 41.9734 52.9877 41.6423 53.4487C41.3111 53.9097 41.1218 54.4574 41.0976 55.0244L40.5722 63.298C40.5118 64.9354 42.5363 63.6089 42.5363 63.6089C42.7935 63.4141 43.0088 63.1694 43.1695 62.8896C43.3301 62.6097 43.4327 62.3004 43.4713 61.9801L43.6593 59.901L44.285 54.2863C44.4531 51.9262 42.9879 52.4274 42.9879 52.4274L42.9615 52.4293ZM46.6139 52.8941C46.6139 52.8941 46.3282 57.2046 46.2983 58.1513C46.2983 58.1513 45.7632 61.8087 47.6494 61.0216C48.1638 60.7751 48.5924 60.3802 48.8801 59.8877C49.1677 59.3953 49.3012 58.8279 49.2632 58.2588L49.3619 55.1709C49.3538 54.5033 49.5044 53.8433 49.8011 53.2452C50.0979 52.6471 50.5323 52.128 51.0688 51.7306C51.0688 51.7306 52.9389 50.7152 52.2745 49.5617C52.2745 49.5617 51.8376 48.6305 50.7237 49.2304C50.3094 49.4676 49.8649 49.6476 49.4022 49.7655L48.079 50.0271C48.079 50.0271 46.6541 50.2252 46.6427 52.9274L46.6139 52.8941ZM44.7743 48.1163C45.8928 47.0836 45.4841 46.3004 45.4841 46.3004C44.9546 45.058 43.4344 46.5253 43.4344 46.5253C42.1414 47.588 42.6925 48.5112 42.6925 48.5112C43.3814 49.5128 44.8006 48.1145 44.8006 48.1145L44.7743 48.1163ZM64.9949 52.6672C65.4591 52.5041 65.8646 52.2071 66.1604 51.8138C66.4561 51.4205 66.6288 50.9485 66.6566 50.4572C66.6566 50.4572 67.116 43.8656 67.1355 43.6435C67.1551 43.4214 67.437 41.6712 66.2436 42.0207C65.8179 42.1413 65.4367 42.3835 65.1467 42.7177C64.8568 43.0519 64.6708 43.4635 64.6115 43.902L63.952 50.4107L63.797 51.7105C63.797 51.7105 63.5981 53.1371 64.9949 52.6672ZM67.7145 38.7383C67.7145 38.7383 68.9297 37.5751 68.2857 36.8352C68.2857 36.8352 67.6744 36.0575 66.2233 37.2551C66.2233 37.2551 64.9329 38.4766 65.8315 39.1985C65.8058 39.2092 66.675 39.8891 67.7057 38.739L67.7145 38.7383ZM84.4244 45.5686C84.0878 45.054 83.2729 44.7675 81.9181 45.4551C80.5633 46.1427 79.8855 46.5439 79.8334 46.5564C79.7813 46.5689 78.0819 47.6252 78.0956 45.2054L78.2547 39.4826C78.2547 39.4826 78.3278 37.4029 76.7117 37.5175C76.7117 37.5175 75.8271 37.492 74.551 38.7919C74.2274 39.1459 73.841 39.4367 73.4113 39.6496C73.0399 39.7716 72.6403 39.7784 72.265 39.6691C71.8273 39.5574 71.3651 39.5902 70.9475 39.7625C70.4533 39.9893 70.0437 40.3668 69.7776 40.8409C69.5114 41.315 69.4024 41.8612 69.4662 42.4012L69.209 47.4866C69.1062 48.2659 69.1059 49.0554 69.2078 49.8348C69.2078 49.8348 69.4308 50.6135 70.8201 50.0383C70.8201 50.0383 72.006 49.5834 72.0001 47.5093C72.0001 47.5093 72.0567 43.4533 72.5371 42.6336C72.8839 41.867 73.412 41.1964 74.0758 40.6794C74.0758 40.6794 75.4162 39.9134 75.479 41.0478L75.3067 45.7122C75.3067 45.7122 74.9755 48.0133 76.0294 48.3093C76.0294 48.3093 76.1436 48.3012 75.8932 48.5043C75.8932 48.5043 69.4446 51.8043 61.2108 57.1906C61.4547 52.2916 61.9763 45.4572 61.9763 45.4572C62.0478 44.3487 60.7039 44.444 60.7039 44.444C59.3864 44.5375 59.3078 46.0437 59.2423 46.737C59.1767 47.4302 58.5804 52.9633 58.5804 52.9633C58.3088 55.4809 56.8157 55.4632 56.8157 55.4632C55.3694 55.7335 55.9686 51.7362 55.9686 51.7362C56.2548 50.2946 56.3 49.0643 57.3501 48.0629C58.4002 47.0615 58.3945 45.8614 57.5663 45.8848C56.1911 45.9117 54.8992 47.4864 54.8992 47.4864C52.6362 50.0569 53.0574 55.871 53.0574 55.871C53.0324 56.348 53.1485 56.8218 53.3912 57.2332C53.634 57.6446 53.9925 57.9754 54.4221 58.1842C56.0179 58.7772 58.0557 57.388 58.0557 57.388C58.532 57.0099 58.496 57.498 58.496 57.498L58.4953 58.9811C51.9546 63.3194 45.8039 68.2188 40.1129 73.6238C40.1129 73.6238 37.49 75.849 38.596 77.13C39.7021 78.4111 41.2398 77.0661 41.8048 76.4434C41.8048 76.4434 47.504 69.6743 58.4199 61.776L58.3974 66.5622C58.392 68.7254 58.1421 75.4081 58.1421 75.4081C58.0128 78.0656 58.4693 78.5276 58.623 78.7021C58.926 79.0351 59.341 79.2448 59.7889 79.2912C60.2367 79.3376 60.6859 79.2174 61.0508 78.9536C62.4026 77.9749 61.5442 75.8289 61.2429 74.8174C61.0251 73.9322 60.893 73.0281 60.8484 72.1176C60.8478 70.7405 60.9734 61.436 60.9734 61.436C60.9479 61.0758 60.9726 60.5533 60.9905 59.934C65.6147 56.7368 70.4473 53.8519 75.4558 51.2984C75.4558 51.2984 77.8121 50.1691 79.8302 49.3727C79.8302 49.3727 80.496 49.0518 81.3469 48.7266C82.4914 48.3099 83.9196 47.6613 84.3585 47.0034C84.5073 46.7962 84.5921 46.5499 84.6022 46.2949C84.6124 46.04 84.5475 45.7877 84.4156 45.5693L84.4244 45.5686Z" fill="white"/>
</svg>
