<svg width="100" height="100" viewBox="0 0 100 100" fill="none" xmlns="http://www.w3.org/2000/svg">
<path d="M41.826 31.8893C38.668 31.8752 35.35 32.0973 32.0208 32.4136C31.185 32.493 30.4603 32.9721 29.6168 33.5346C28.6125 34.2044 27.5623 34.9356 27.2515 36.2019C27.0021 37.218 27.738 37.3852 28.3372 37.2456C28.706 37.1596 29.3812 37.0522 29.8712 37.0305C34.8511 36.8105 39.639 37.6696 43.7696 39.1784C45.3012 39.7378 45.7885 40.8257 45.3593 42.0002C42.8672 48.8201 38.7398 54.0103 33.8263 60.4076C33.3995 60.9633 32.6433 61.4912 32.0596 61.5601C27.5156 62.0966 22.7517 61.7755 18.3721 59.4727C17.1665 58.8387 17.0232 57.238 17.7517 55.8004C19.1004 53.1385 20.3565 50.5882 22.6373 48.2238C24.1074 46.6998 25.4921 46.6446 27.0964 47.0255C29.516 47.6 31.9487 48.3393 31.7106 50.3112C31.5917 51.2957 31.2983 51.5247 31.0902 51.9348C30.8762 52.3566 30.5762 52.7917 30.1209 53.365C29.7538 53.8272 30.1698 54.3183 30.8188 54.4861C31.8473 54.7519 32.3986 54.5362 32.9514 54.4861C33.7869 54.4102 34.2197 53.8523 34.6575 53.0171C35.9176 50.6136 37.2587 48.4073 37.6044 46.2524C37.7816 45.1474 38.2987 43.399 35.433 43.3145L21.0088 42.8893C19.4116 42.8422 17.984 43.7782 16.8599 44.7061C10.1311 50.2604 5.78725 57.186 1.85405 64.3433C0.888279 66.1007 1.86073 66.6748 3.48259 66.8946C7.95962 67.5013 12.4761 68.2408 16.8599 68.0929C21.7221 67.9289 22.6567 68.5492 32.9902 67.0106C35.3679 66.6565 37.1527 65.2312 38.4962 63.5315C45.3594 54.8486 53.1055 46.5617 56.4877 37.1296C56.8441 36.1356 57.1275 35.4034 55.5959 34.5783C51.9083 32.5917 47.0893 31.9128 41.826 31.8893ZM75.3444 33.2688C73.3356 33.2928 71.0619 33.4377 68.8181 35.0712C55.8009 44.5474 53.8873 52.7 49.0236 61.4224C47.8042 63.6091 47.8121 65.7853 51.9826 65.904C61.8484 66.185 71.4132 65.5137 80.7171 64.4834C81.7299 64.3713 82.358 64.0507 82.966 63.5001C84.0765 62.4945 85.4529 61.4616 85.5421 59.9462C85.5789 59.3208 85.7949 58.529 84.1171 58.6343C77.5496 59.0464 70.6556 59.6128 64.3759 57.4867C59.8207 55.9444 61.6733 54.0403 62.127 52.5654C63.4785 48.1717 67.2595 41.4127 71.5057 37.4219C72.32 36.6566 72.9562 35.7289 74.4113 35.7283C79.0262 35.7266 83.0831 36.4632 86.3661 38.1322C86.9993 38.4541 88.3347 38.4552 87.1876 41.5219L85.9808 44.7472C85.0624 47.2025 83.8592 50.2033 80.9909 49.7217C78.4942 49.3026 75.5477 48.3459 76.9341 45.3488C77.2184 44.7342 77.834 44.0467 77.7023 43.2179C77.6119 42.6485 77.421 42.5797 77.2637 42.3433C77.0719 42.055 76.5227 41.8715 75.9478 42.0703C75.4 42.2597 75.1403 42.5592 74.5204 43.3266C73.0425 45.1563 71.5552 46.939 70.6817 49.067C69.9128 50.94 71.4508 52.1689 73.0397 52.4566C78.6228 53.4674 82.7596 53.3892 86.9695 52.9471C88.459 52.7906 89.5871 51.748 90.973 49.9416C94.0215 45.9681 96.1429 42.0377 98.1003 38.0791C99.2308 35.7928 97.9436 35.4268 96.4015 35.0712C89.3884 33.4539 82.3677 33.185 75.3444 33.2688Z" fill="#E20025"/>
</svg>
