<svg width="100" height="100" viewBox="0 0 100 100" fill="none" xmlns="http://www.w3.org/2000/svg">
<path d="M100 50C100 77.6142 77.6142 100 50 100C22.3858 100 0 77.6142 0 50C0 22.3858 22.3858 0 50 0C77.6142 0 100 22.3858 100 50Z" fill="#FFCC00"/>
<path d="M25.7859 29.8991C27.4187 26.7347 31.4453 25.5017 34.7735 26.1808C37.4178 26.6721 39.301 29.0177 39.9609 31.5175C43.0049 41.7911 46.0586 52.06 49.0834 62.3432C49.2471 62.9453 49.5313 63.5136 49.8588 64.0435C53.0474 53.5194 56.1396 42.9664 59.2607 32.4182C59.8483 30.1592 60.9368 27.7847 63.1524 26.7251C66.7118 25.1019 71.6102 26.253 73.6284 29.7306C74.9144 32.0377 74.5869 34.8602 73.6573 37.2299C69.3272 49.2856 65.079 61.3703 60.7634 73.4308C59.8579 75.7524 58.991 78.2233 57.1848 80.0247C55.316 81.802 52.5802 81.9802 50.1334 81.9994C47.4169 82.0139 44.3921 81.7634 42.3065 79.8079C40.3944 77.9728 39.3926 75.4345 38.487 73.0022C34.2052 60.9031 29.957 48.7944 25.6558 36.7097C24.8563 34.5326 24.6636 31.9991 25.7859 29.8991Z" fill="#504F4E"/>
</svg>
