<svg width="100" height="100" viewBox="0 0 100 100" fill="none" xmlns="http://www.w3.org/2000/svg">
<path d="M0 25C0 11.1929 11.1929 0 25 0H75C88.8072 0 100 11.1929 100 25V75C100 88.8072 88.8072 100 75 100H25C11.1929 100 0 88.8072 0 75V25Z" fill="#E30613"/>
<path d="M100 75C100 88.8072 88.8072 100 75 100H28.0322C42.8822 98.8533 58.8825 93.6227 73.8301 84.1865C84.2849 77.5865 93.1034 69.6361 100 61.0352V75Z" fill="#FEF102"/>
<path d="M46.1768 48.3325C46.0774 49.8872 45.6546 51.2616 44.9658 52.3628L48.1914 51.8589L51.1953 67.104L47.7881 67.6372L47.2881 64.2143L42.585 64.9497L41.2217 68.6645L37.8574 69.1909L44.3643 53.1762C43.4815 54.1906 42.3114 54.866 40.916 55.0844C37.8674 55.5615 35.8897 53.8341 35.8076 51.7212C37.5918 53.2309 40.3999 52.797 41.8457 51.0708C42.3772 50.4414 42.7468 49.5036 42.8428 47.3794C43.0139 43.7562 43.3682 37.2632 43.3682 37.2632L46.7812 36.7299L46.1768 48.3325ZM54.543 63.0796L51.1338 63.6137L51.7734 51.2983L55.1826 50.7651L54.543 63.0796ZM62.3213 51.9604C61.4535 51.779 60.5622 51.895 60.0273 52.2251L59.54 62.3012L56.1465 62.8325L56.7285 51.2055C58.0381 50.2049 60.6199 49.3305 62.7529 49.3706L62.3213 51.9604ZM43.4785 62.5434L46.9473 62.0014L46.0303 55.6899L43.4785 62.5434ZM62.4492 59.6137C63.0163 59.525 63.4875 59.8555 63.5703 60.3842C63.6794 61.0812 63.0989 61.8622 62.3594 61.978C61.7976 62.0659 61.3357 61.7196 61.2549 61.2036C61.1458 60.5066 61.7119 59.7292 62.4492 59.6137ZM68.1279 51.6382C69.128 51.4817 70.031 51.7116 70.3711 51.9614L69.7578 53.4419C69.5697 53.334 69.2008 53.223 68.7881 53.2876C68.1116 53.3936 67.5658 53.8691 67.2314 54.7485C66.9141 55.5558 66.8175 56.7534 66.9512 57.6079C67.1219 58.6981 67.6547 59.2032 68.3652 59.0923C68.827 59.02 69.2958 58.7792 69.5137 58.562L69.9766 60.1069C69.6035 60.537 68.8908 60.9506 67.8672 61.1108C66.1393 61.3812 64.6992 60.257 64.3721 58.1674C64.1681 56.8639 64.4175 55.2194 64.9922 54.0503C65.6861 52.661 66.8438 51.8391 68.1279 51.6382ZM74.1494 50.6958C76.2584 50.3658 77.5731 51.5263 77.875 53.4555C78.0787 54.7579 77.8334 56.4499 77.293 57.6147C76.6601 58.9618 75.5255 59.9124 73.8467 60.1753C71.7387 60.5051 70.4374 59.327 70.1357 57.3989C69.9322 56.0976 70.1588 54.4074 70.7188 53.2417C71.3622 51.8712 72.5184 50.9511 74.1494 50.6958ZM88.3271 48.477C90.1435 48.1928 91.1872 48.9828 91.3955 50.3139C91.4288 50.5267 91.4458 50.7475 91.4307 50.9712L91.123 57.3891L88.5303 57.7944L88.8584 51.2876C88.8553 51.1704 88.8584 51.0697 88.8398 50.9507C88.7593 50.4357 88.385 50.1191 87.6191 50.2387C87.1554 50.3113 86.7202 50.5829 86.4443 50.9028L86.0859 58.1772L83.4941 58.5825L83.8174 52.0591C83.8175 51.9413 83.8203 51.8378 83.8047 51.7378C83.7186 51.1889 83.263 50.9198 82.4854 51.0415C82.0662 51.1071 81.725 51.2272 81.415 51.3989L81.0479 58.9653L78.457 59.3706L78.8984 50.6323C79.891 50.0366 81.0665 49.6133 82.5615 49.3794C83.7456 49.1942 84.7676 49.4443 85.2646 49.8755C85.7908 49.3157 86.8535 48.7077 88.3271 48.477ZM75.3438 53.4799C75.2249 52.7203 74.89 52.2152 74.1836 52.3257C73.4941 52.4335 73.0827 53.0408 72.8613 53.8833C72.6141 54.7832 72.5207 56.3495 72.6631 57.2592C72.7812 58.0135 73.0918 58.5066 73.8174 58.393C74.5301 58.2813 74.9117 57.7157 75.1318 56.8725C75.3679 55.9712 75.4852 54.3844 75.3438 53.4799ZM14.4404 57.5053L11.3242 57.9936L7.4541 42.8833L10.8643 42.3501L13.1221 52.6821L16.2822 41.5014L19.8037 40.9507L14.4404 57.5053ZM23.1836 52.6372L19.7783 53.1704L20.4141 40.8549L23.8232 40.3217L23.1836 52.6372ZM30.2998 38.9692C32.9364 38.5566 34.6587 39.8713 35.0742 42.5258C35.1784 43.192 35.221 44.6937 35.0449 45.77L28.002 46.8716C28.1773 48.4314 28.9725 49.4484 30.7432 49.1714C32.0061 48.9737 33.208 48.3984 33.8184 47.9868L34.4902 50.0815C33.5915 50.7193 32.1015 51.3624 30.333 51.6391C27.3239 52.1099 25.2861 50.6814 24.8359 47.8042C24.5626 46.0571 24.8468 43.9709 25.6455 42.395C26.542 40.5999 28.1302 39.3087 30.2998 38.9692ZM40.0918 37.7758L41.9355 37.4829L41.8184 39.7739L39.9736 40.062L39.6504 46.5063C39.6351 46.694 39.5968 47.8112 40.7002 47.7007C41.0128 47.6713 41.4563 47.5177 41.6436 47.3979C41.6436 47.3979 41.489 49.8939 39.0674 50.2729C37.1893 50.5668 36.1149 49.2891 36.2275 47.1108L36.7803 36.4087C36.7864 36.3992 37.8052 34.8245 40.25 34.8559C40.1424 36.852 40.093 37.7541 40.0918 37.7758ZM53.2178 35.3833C55.8546 34.9707 57.5797 36.285 57.9951 38.9399C58.0993 39.6061 58.1418 41.1069 57.9658 42.1831L50.9199 43.2856C51.0932 44.8457 51.8917 45.862 53.6592 45.5854C54.921 45.3879 56.1237 44.8131 56.7383 44.4008L57.4102 46.4956C56.5113 47.1332 55.0236 47.7757 53.25 48.0532C50.242 48.5238 48.209 47.0945 47.7588 44.2173C47.4855 42.4701 47.7661 40.3841 48.5596 38.8091C49.4624 37.0131 51.0494 35.7226 53.2178 35.3833ZM63.0068 34.1909L64.8604 33.895L64.7363 36.188L62.8906 36.476L62.5703 42.9204C62.555 43.1084 62.515 44.2252 63.6182 44.1147C63.9276 44.0859 64.3733 43.9318 64.5605 43.812C64.5605 43.812 64.4071 46.3078 61.9844 46.687C60.1107 46.9802 59.0339 45.703 59.1475 43.5249L59.7002 32.8217C59.7147 32.7993 60.7345 31.239 63.1699 31.27C63.0599 33.2907 63.0068 34.1909 63.0068 34.1909ZM31.9648 42.6518C31.7778 41.457 31.1445 40.9006 30.1943 41.0493C29.1996 41.2051 28.4685 42.0239 28.0713 43.2817C27.913 43.8308 27.8934 43.9771 27.8301 44.6313L31.9854 43.9809C32.0265 43.6169 32.024 43.0296 31.9648 42.6518ZM54.8857 39.0659C54.6988 37.8711 54.0654 37.3146 53.1133 37.4633C52.1205 37.6187 51.3841 38.4387 50.9932 39.6958C50.8276 40.2457 50.811 40.3911 50.752 41.0444L54.9004 40.395C54.9447 40.0306 54.9448 39.4435 54.8857 39.0659Z" fill="white"/>
</svg>
