<svg width="100" height="100" viewBox="0 0 100 100" fill="none" xmlns="http://www.w3.org/2000/svg">
<path d="M21.764 78.9603C21.764 78.9603 21.5408 75.3902 23.772 70.9629C23.772 70.9629 30.6932 62.5173 13.0583 48.0086C13.0583 48.0086 2.8284 39.9929 1.78783 34.8773L9.57939 41.4821L9.3944 40.3648C9.3944 40.3648 0.652126 32.2727 0.652126 31.9027L0.56062 29.6702L9.02307 38.3179C9.02307 38.3179 8.52106 36.7553 7.7208 35.9567L0 27.2519L0.22517 24.8324L8.37062 34.8773L8.27877 33.8535C8.27877 33.8535 1.56299 25.4648 0.225496 22.3398L0.745618 20.1836C0.745618 20.1836 10.7905 40.905 28.5538 45.0156C28.5538 45.0156 35.8075 47.0796 38.8759 47.6755C38.8759 47.6755 44.7368 49.2375 41.3886 54.2599" fill="#949599"/>
<path d="M22.8379 79.8179L45.1385 53.4986C45.1385 53.4986 47.1679 50.0309 53.4818 49.8749C59.7956 49.7172 72.0717 47.6469 74.9929 46.8434C77.9158 46.0385 96.8728 40.1697 99.9994 36.6504C99.9994 36.6504 95.8154 40.707 94.0665 41.3956C94.0665 41.3956 82.4073 46.3967 79.2809 47.1114L78.1439 48.2711C78.1439 48.2711 90.3661 44.6105 90.8009 44.0752L87.6361 46.4471C87.6361 46.4471 78.5018 49.203 76.3317 49.7004L74.8142 51.1298C74.8142 51.1298 84.2556 48.539 84.8037 48.2711C84.8037 48.2711 82.5603 50.0204 82.1255 50.3509C82.1255 50.3509 73.8836 52.4182 73.2973 52.648L72.047 53.7205L80.4407 51.5768C80.4407 51.5768 67.4272 59.6136 62.4907 60.5962C62.4907 60.5962 51.2765 63.8496 45.841 64.5258C40.407 65.2023 38.3657 68.5445 36.2721 70.2415C34.1801 71.9368 27.3155 78.9933 22.8379 79.8179" fill="#949599"/>
</svg>
