<svg width="100" height="100" viewBox="0 0 100 100" fill="none" xmlns="http://www.w3.org/2000/svg">
<path d="M0 25C0 11.1929 11.1929 0 25 0H75C88.8072 0 100 11.1929 100 25V75C100 88.8072 88.8072 100 75 100H25C11.1929 100 0 88.8072 0 75V25Z" fill="#1F8226"/>
<path d="M5 43.7949C27.0429 44.332 44.4244 45.6723 47.4971 47.8926C50.6224 50.1618 55.651 54.7449 61.5225 62.6084L45.1602 62.2852C39.4127 55.6574 36.0419 52.0115 32.9473 50.0713C29.0594 47.6272 15.5499 45.3693 5 43.7949ZM94.999 43C82.372 45.126 75.2024 47.2236 72.9873 48.8457C70.7749 50.4654 67.7117 54.8357 63.0391 61.0918C60.0745 57.1209 57.3261 53.99 54.9248 51.5654C56.829 49.4334 58.4768 47.8883 59.5137 47.3193C62.3445 45.7731 76.0141 44.7151 94.999 43Z" fill="white"/>
</svg>
