<svg width="100" height="100" viewBox="0 0 100 100" fill="none" xmlns="http://www.w3.org/2000/svg">
<path d="M100 50C100 77.6142 77.6142 100 50 100C22.3858 100 0 77.6142 0 50C0 22.3858 22.3858 0 50 0C77.6142 0 100 22.3858 100 50Z" fill="#F35C17"/>
<path d="M61.168 63.6982L61.0811 66.5156L63.9854 72.2354L65.335 76.0107L65.7275 77.3613L65.8145 82.501L64.4639 82.6895L62.4316 79.9746L61.0811 80.4678L60.1084 79.7852L60.0068 75.9092L59.4258 75.3281L59.2373 66.9072L60.2969 63.0303L61.168 63.6982Z" fill="white"/>
<path d="M45.3857 63.2197L44.0215 67.3867L41.0303 73.5859L38.7939 75.8076L37.3428 76.1992L36.7617 75.7197L37.2559 69.8984L42.3809 63.6982L44.123 63.1182L45.3857 63.2197Z" fill="white"/>
<path d="M26.3955 60.6064L22.8242 62.5518L14.8672 65.7461L10.1348 67.0957L8 65.543L8.10156 62.9287L13.4297 60.7949L21.2705 59.6328L25.5391 59.3428L26.3955 58.4717V60.6064Z" fill="white"/>
<path fill-rule="evenodd" clip-rule="evenodd" d="M51.7744 37.5498L56.333 39.9746L60.6895 45.0127L61.6475 50.3408L62.1406 53.332L61.5605 55.2773L61.2695 56.541L59.1357 58.2832L51.7744 59.1543L47.0264 59.0527L43.0635 56.8311L42.4824 55.4668L41.5098 54.6973L38.0254 47.3359L37.4443 44.6211L37.8359 40.6426L40.5371 37.7393L44.9072 36.6787L51.7744 37.5498ZM42.7725 42.6748L41.9014 45.8838L43.4551 48.875L45.8652 52.4609L51.6729 55.5684L55.8545 54.4932L56.2314 51.4883L55.0703 46.9434L52.7471 43.2559L51.0049 42.2979L42.7725 42.6748Z" fill="white"/>
<path d="M86.5615 49.165L87.999 49.7461L87.8975 51.4014L86.8379 52.4609L80.8418 52.5625L74.54 52.1709L70.6631 51.5898L68.9209 49.3682L78.5186 48.4971L84.0352 48.3955L86.5615 49.165Z" fill="white"/>
<path d="M78.998 34.6318L76.3701 36.5771L70.5625 40.8457L68.7188 41.1357L65.8291 42.1963L63.1143 42.6748L68.0508 36.7656L71.5352 35.125L74.9326 32.8896L78.127 32.1201L78.998 34.6318Z" fill="white"/>
<path d="M29.2129 37.9424L34.3525 40.4541L35.6006 41.4268L35.1221 42.0947L28.9219 42.1963L23.1006 41.2236L18.3672 39.4814L16.0439 37.8408L23.0127 35.8945L29.2129 37.9424Z" fill="white"/>
<path d="M51.5859 14.7695L51.3975 16.5264L51.0928 30.2764L50.3223 30.3779L48.1885 25.1367L47.4189 20.2002L47.709 15.2637L50.9033 14L51.5859 14.7695Z" fill="white"/>
</svg>
