<svg width="100" height="100" viewBox="0 0 100 100" fill="none" xmlns="http://www.w3.org/2000/svg">
<path d="M0 25C0 11.1929 11.1929 0 25 0H75C88.8072 0 100 11.1929 100 25V75C100 88.8072 88.8072 100 75 100H25C11.1929 100 0 88.8072 0 75V25Z" fill="#CD2026"/>
<path d="M40.4901 25.0528V72.5472C40.4901 73.6038 39.4335 75.717 37.3203 75.717C35.2071 75.717 34.1505 73.6038 34.1505 72.5472V34.5094C34.1505 32.3962 34.1505 25 27.8109 25H9.84863V26.0566C9.84863 26.0566 15.1317 25.3698 15.1317 30.283V68.3208C15.1317 70.434 17.2449 81 26.7543 81H49.9996H73.2449C82.7543 81 84.8675 70.434 84.8675 68.3208V30.283C84.8675 25.3698 90.1505 26.0566 90.1505 26.0566V25H72.1883C65.8486 25 65.8486 32.3962 65.8486 34.5094V72.5472C65.8486 73.6038 64.792 75.717 62.6788 75.717C60.5656 75.717 59.509 73.6038 59.509 72.5472V25.0528H49.9996H40.4901Z" fill="white"/>
</svg>
