<svg width="100" height="100" viewBox="0 0 100 100" fill="none" xmlns="http://www.w3.org/2000/svg">
<path d="M71.3675 2C62.8205 2 55.5556 4.99145 50 7.98291C44.4444 4.99145 37.6068 2 28.6325 2C11.1111 2 0 13.1111 0 32.7692C0 56.2735 22.6496 79.3505 50 98.1539C77.3504 79.7778 100 56.7009 100 32.7692C100 13.1111 88.4615 2 71.3675 2Z" fill="#CCCCCC"/>
<path d="M2.56396 33.1964C2.56396 57.128 28.205 79.7776 49.5725 94.7349C55.9828 90.4614 62.3931 85.3332 68.376 80.205C39.7435 56.2733 12.3931 34.4784 2.99134 26.7861C2.99134 28.4955 2.56396 30.6323 2.56396 33.1964Z" fill="url(#paint0_linear_2099_911)"/>
<path d="M95.2992 44.3081C74.3591 27.214 61.9659 18.2397 48.2907 10.12C44.4445 7.98326 37.1796 4.56445 29.0599 4.56445C21.3676 4.56445 14.53 7.12856 9.82914 11.8294C6.83768 14.8209 4.70089 18.667 3.84619 23.3679C14.53 31.0602 44.0172 52.0004 73.5043 75.5046C83.3334 66.1029 91.4531 55.4192 95.2992 44.3081Z" fill="url(#paint1_linear_2099_911)"/>
<path d="M89.7436 11.8294C85.0427 7.12856 78.6324 4.56445 70.9401 4.56445C62.8205 4.56445 56.8376 7.12856 52.1367 9.69266C60.2564 14.3935 77.7778 24.2226 96.1538 37.8978C96.5812 36.1884 96.5812 34.0516 96.5812 32.3422C97.0085 23.7952 94.4444 16.5303 89.7436 11.8294Z" fill="url(#paint2_linear_2099_911)"/>
<defs>
<linearGradient id="paint0_linear_2099_911" x1="2.752" y1="60.4635" x2="68.8076" y2="60.4635" gradientUnits="userSpaceOnUse">
<stop stop-color="#3656CC"/>
<stop offset="0.35" stop-color="#304CB2"/>
<stop offset="0.72" stop-color="#283B80"/>
</linearGradient>
<linearGradient id="paint1_linear_2099_911" x1="12.1342" y1="8.28283" x2="86.7565" y2="60.5342" gradientUnits="userSpaceOnUse">
<stop offset="0.3" stop-color="#E61C23"/>
<stop offset="0.8" stop-color="#C3161C"/>
</linearGradient>
<linearGradient id="paint2_linear_2099_911" x1="58.3953" y1="1.52813" x2="101.061" y2="31.4029" gradientUnits="userSpaceOnUse">
<stop stop-color="#FDBC11"/>
<stop offset="0.25" stop-color="#FCB415"/>
<stop offset="0.8" stop-color="#F89E1C"/>
</linearGradient>
</defs>
</svg>
