<svg width="100" height="100" viewBox="0 0 100 100" fill="none" xmlns="http://www.w3.org/2000/svg">
<path d="M0 35.4609C0 58.228 22.9309 61.2766 22.9309 92.9947C22.9309 92.9947 45.8734 93.7354 45.8734 77.7634C45.8734 61.2767 -2.06619 33.309 7.78917 16.1089C0.261203 23.8162 0 35.4609 0 35.4609Z" fill="#A7A9AC"/>
<path d="M8.95449 14.8536C-1.27123 32.9348 46.9959 61.6354 46.9959 76.8629C46.9959 82.0947 46.4579 85.7203 42.6529 87.9775C42.6529 87.9775 60.933 79.6114 63.5021 68.3526V62.7155C59.9817 44.6733 26.5016 30.7283 26.1624 16.647C25.9675 8.75651 33.6357 6.57722 33.6357 6.57722C32.4857 6.49925 31.3824 6.4642 30.3259 6.4642C14.272 6.4603 8.95449 14.8536 8.95449 14.8536" fill="#A7A9AC"/>
<path d="M74.371 11.6298C62.3676 11.6298 40.3217 6.91645 36.1893 6.96323C27.9401 7.06849 23.5115 17.1305 30.5404 24.7988C30.5404 24.7988 34.0724 20.8496 37.4524 19.6956C42.1462 18.0817 47.5885 18.4792 54.3601 18.8769C61.4203 19.2862 69.9385 19.7035 80.5657 17.8361C93.5204 15.5633 97.875 10.5109 99.9997 5.52866C94.803 9.83258 86.3784 11.6298 74.371 11.6298" fill="#B5985A"/>
<path d="M81.0455 18.713C70.4144 20.5804 61.904 20.1673 54.8399 19.754C48.0644 19.3564 42.6221 18.9626 37.9283 20.5766C34.5445 21.7267 31.1216 25.4069 31.1216 25.4069C31.1216 25.4069 39.6904 34.3654 44.8247 37.8818C48.1307 27.2585 69.0577 31.4416 77.6109 28.3852C88.3902 24.5374 92.9164 18.0621 94.6278 13.7738L94.5771 13.7543C91.6104 15.8478 87.3455 17.6059 81.0455 18.713" fill="#B5985A"/>
<path d="M78.1761 29.0949C68.964 32.046 56.2238 29.7966 49.2572 33.8783C46.3528 35.5741 45.5303 38.5213 45.5303 38.5213C45.5303 38.5213 52.0758 43.7921 58.1263 50.6924C58.1263 49.0706 58.6837 46.4705 60.7928 44.3614C64.5353 40.6189 84.9283 38.0223 88.7332 22.9664C85.8406 26.2762 79.8018 28.5725 78.1761 29.0949" fill="#B5985A"/>
</svg>
