<svg width="100" height="100" viewBox="0 0 100 100" fill="none" xmlns="http://www.w3.org/2000/svg">
<path d="M24.2388 41.1906C22.6862 43.6887 19.2067 47.0531 22.1367 48.8624C24.5604 48.9224 26.269 49.4816 26.2186 51.2717C26.1562 53.3571 23.8549 53.4579 23.5357 54.7753C23.0966 56.5847 25.8274 56.8174 26.5065 58.1229C26.3554 59.3275 24.2532 59.7067 24.5988 61.66C25.2923 62.4183 26.0722 62.2168 26.6049 62.7231C28.3975 64.4293 25.6931 66.6634 25.4675 68.24C25.0523 71.146 29.9309 74.1145 33.5425 74.0953C41.7998 74.0497 51.7586 69.0823 60.3087 74.2512C57.1483 74.9448 49.4765 73.8553 49.1837 78.7555C49.0997 80.1833 50.8779 81.9111 51.6674 83.1901C54.715 88.0735 57.1483 94.0224 57.7506 100C62.8044 81.4095 67.3302 60.5322 72.1272 40.9914C62.6724 36.8688 55.7925 30.572 44.6099 27.3492C39.8633 25.9765 34.4303 25.5422 30.3557 26.1061C30.3941 28.1027 29.091 28.6306 29.0262 30.0176C28.947 31.7022 31.7331 32.6333 33.1225 33.6076C34.9079 34.8578 35.887 36.2184 36.1629 37.8958C34.8095 37.3703 35.1023 36.1368 33.0097 36.0673C32.4434 36.0433 31.4643 36.6168 30.3941 36.7032C29.6382 36.7704 28.2535 35.4073 27.8528 35.4985C26.5281 35.8009 25.0115 39.962 24.2388 41.1906Z" fill="#258ACF"/>
<path d="M37.543 7.71333C36.7726 8.7956 36.1607 10.1082 35.4912 11.3465C37.6845 11.632 40.485 11.8624 42.9855 12.3711C57.1509 15.2532 62.6582 25.9654 74.6255 30.1289C76.3845 24.3504 78.0091 16.1483 79.5377 10.0938C79.9552 8.43324 80.2864 7.36538 79.4369 6.14873C77.6803 4.67051 74.4335 5.30404 72.9961 3.77543C72.1562 2.88274 72.8737 1.92046 71.8802 1.58451C68.511 0.459047 65.1107 2.4316 62.9222 0.000705164C61.5903 1.08777 58.7059 0.502241 56.5174 0.643823C55.0583 0.735012 53.7025 2.71476 52.6011 0.622226C49.7478 1.02298 48.3848 4.24577 45.45 4.24577C44.862 4.24577 44.2405 3.71544 43.595 3.73463C41.3057 3.78743 40.7178 7.59335 38.7212 8.34685C37.9365 8.41404 38.1669 7.40617 37.543 7.71333Z" fill="#258ACF"/>
<path d="M44.8164 72.5068C44.8164 72.5068 45.7427 71.9021 50.6741 71.8229C57.2252 71.7125 60.3113 74.2418 60.3113 74.2418C59.9945 74.4098 58.7658 74.5274 56.2774 74.6978C53.7169 74.8777 51.7275 75.5401 51.7275 75.5401C48.4711 76.8815 49.3998 79.8115 49.3998 79.8115C46.645 75.9816 44.8164 72.5068 44.8164 72.5068Z" fill="#2C59A6"/>
</svg>
