<svg width="100" height="100" viewBox="0 0 100 100" fill="none" xmlns="http://www.w3.org/2000/svg">
<circle cx="50" cy="50" r="50" fill="#4C12A1"/>
<mask id="mask0_2099_807" style="mask-type:alpha" maskUnits="userSpaceOnUse" x="0" y="0" width="100" height="100">
<circle cx="50" cy="50" r="50" fill="#4C12A1"/>
</mask>
<g mask="url(#mask0_2099_807)">
<path d="M78.5535 49.5516C75.6411 50.2482 72.7122 51.2398 69.4064 51.7782L47.05 55.4189C28.9044 58.9348 11.6148 63.2706 0.983214 73.984L8.44539 81.4461C14.6668 75.2248 28.8587 68.8914 45.4227 66.201L72.7162 61.7678L68.2831 89.0614C65.5927 105.625 59.2593 119.817 53.0379 126.039L60.5001 133.501C71.2135 122.869 75.5492 105.58 79.0651 87.4341L82.7059 65.0777C83.2443 61.7718 84.2358 58.8429 84.9325 55.9305L78.5535 49.5516Z" fill="#FFCD00"/>
<path d="M62.1707 33.1688C59.2583 33.8654 56.3294 34.857 53.0235 35.3954L30.6672 39.0361C12.5216 42.552 -4.76798 46.8878 -15.3996 57.6012L-7.93742 65.0633C-1.71602 58.8419 12.4759 52.5086 29.0399 49.8182L56.3334 45.385L51.9003 72.6785C49.2099 89.2425 42.8765 103.434 36.6551 109.656L44.1173 117.118C54.8307 106.486 59.1664 89.1968 62.6823 71.0513L66.3231 48.6949C66.8614 45.389 67.853 42.4601 68.5497 39.5477L62.1707 33.1688Z" fill="white"/>
<path d="M45.5711 16.5691C42.6587 17.2658 39.7298 18.2574 36.4239 18.7958L14.0676 22.4365C-4.078 25.9524 -21.3676 30.2881 -31.9992 41.0015L-24.537 48.4637C-18.3156 42.2423 -4.12369 35.9089 12.4403 33.2185L39.7338 28.7854L35.3007 56.0789C32.6103 72.6429 26.2769 86.8348 20.0555 93.0562L27.5177 100.518C38.2311 89.8868 42.5668 72.5972 46.0827 54.4516L49.7234 32.0953C50.2618 28.7894 51.2534 25.8605 51.9501 22.9481L45.5711 16.5691Z" fill="#00C1D4"/>
</g>
</svg>
