<svg width="100" height="100" viewBox="0 0 100 100" fill="none" xmlns="http://www.w3.org/2000/svg">
<path d="M62.9574 67.7912C45.7922 69.0469 22.0384 72.8273 4.97559 71.902C6.77637 75.5502 9.02321 78.9835 11.6798 82.1294C13.1667 83.8741 14.7725 85.5396 16.5072 87.0894C25.7721 95.4167 37.6969 100 50.081 100C62.5411 100 74.4527 95.4927 83.6284 87.3075C87.4216 83.927 90.4912 80.2954 92.933 76.3102C94.5851 73.6104 95.9431 70.752 97.0335 67.6888C89.685 66.2282 77.106 66.7536 62.9574 67.7912Z" fill="#1A428A"/>
<path d="M22.4477 8.52881C22.1338 8.45942 21.81 8.52221 21.5489 8.70726C20.6403 9.3318 19.7283 10.0092 18.8527 10.7065C18.4067 11.0567 18.2844 11.6813 18.5653 12.1704L27.0735 26.9083L27.513 27.4998L27.4932 27.5296L26.9017 27.0868L12.1518 18.5711C11.6694 18.2902 11.0383 18.4059 10.6914 18.852C9.9942 19.731 9.32675 20.6397 8.69896 21.5518C8.52053 21.8161 8.45775 22.1433 8.52714 22.4473C8.59983 22.7579 8.79478 23.0256 9.06903 23.1875L34.2304 37.7074L34.7987 37.8594C35.1159 37.8594 35.4331 37.7272 35.6578 37.4694C36.2228 36.8251 36.8308 36.2104 37.4685 35.652C37.8815 35.2918 37.9807 34.6937 37.7064 34.2244L23.1878 9.07405C23.0259 8.79317 22.7616 8.59821 22.4477 8.52881Z" fill="#1A428A"/>
<path d="M91.472 22.4407C91.5414 22.1367 91.4819 21.8096 91.3002 21.5452C90.6691 20.6332 89.995 19.7245 89.2945 18.8455C88.9476 18.3994 88.3231 18.2837 87.8374 18.5646L73.0941 27.0736L72.5027 27.5098L72.4828 27.4933L72.9223 26.9018L81.4339 12.1506C81.7147 11.6615 81.5958 11.0304 81.1497 10.6867C80.2741 9.99276 79.3622 9.32195 78.4502 8.6941C78.1925 8.51235 77.8687 8.44627 77.5548 8.52227C77.2442 8.59166 76.9798 8.78663 76.8179 9.0609L62.296 34.2245L62.144 34.7929C62.144 35.1134 62.2828 35.4273 62.5372 35.652C63.1816 36.2138 63.7994 36.8251 64.3512 37.4662C64.7114 37.876 65.3128 37.9784 65.7853 37.7041L90.9334 23.1809C91.2077 23.019 91.4026 22.758 91.472 22.4407Z" fill="#1A428A"/>
<path d="M72.1431 5.39976C72.044 5.09575 71.8292 4.84792 71.5417 4.70913C70.5406 4.23328 69.5031 3.78718 68.4556 3.37412C67.9303 3.16594 67.3388 3.37412 67.0513 3.85988L58.5398 18.6012L58.2457 19.2786L58.216 19.2654L58.3019 18.5384V1.50708C58.3019 0.938714 57.8855 0.45626 57.3205 0.376953C56.2136 0.215033 55.0935 0.092768 53.9932 0.00354701C53.676 -0.0195844 53.3588 0.0894635 53.1308 0.307559C52.8929 0.519046 52.7607 0.823057 52.7607 1.14029L52.7674 30.1933L52.9193 30.7616C53.0746 31.0359 53.3522 31.2441 53.6859 31.3135C54.5252 31.4787 55.3644 31.6968 56.1641 31.9744C56.6828 32.1462 57.2544 31.9314 57.5221 31.4622L72.0407 6.3085C72.1993 6.03092 72.2389 5.70378 72.1431 5.39976Z" fill="#1A428A"/>
<path d="M99.6994 46.8812C99.9175 46.6466 100.02 46.3294 99.9968 46.0155C99.9076 44.9118 99.7787 43.785 99.6135 42.6713C99.5342 42.1162 99.0551 41.7031 98.4901 41.7031L81.4669 41.6965L80.7367 41.7824L80.7301 41.7527L81.4041 41.4619L96.1474 32.9463C96.6364 32.6588 96.8512 32.0607 96.6364 31.5319C96.2234 30.4943 95.7707 29.46 95.2949 28.4621C95.1595 28.1746 94.9083 27.9565 94.6043 27.864C94.3004 27.7714 93.9733 27.8078 93.7023 27.9631L68.5409 42.4929L68.1279 42.9093C67.9693 43.1835 67.923 43.5272 68.0321 43.851C68.3129 44.6606 68.5409 45.4967 68.6995 46.3294C68.8086 46.8647 69.2778 47.248 69.8163 47.248H98.8601C99.1773 47.248 99.4813 47.1126 99.6994 46.8812Z" fill="#1A428A"/>
<path d="M5.39809 27.8571C5.09411 27.9563 4.84299 28.1744 4.70752 28.4585C4.23171 29.4598 3.78565 30.4974 3.37263 31.5449C3.15785 32.067 3.37263 32.6618 3.85834 32.9493L18.5983 41.4584L19.2724 41.7525L19.2592 41.7855L18.5355 41.6996H1.50576C0.940745 41.6996 0.458333 42.1127 0.379033 42.6777C0.217128 43.7847 0.0915689 44.9049 0.00235591 46.0119C-0.0174692 46.3292 0.0882646 46.6431 0.303037 46.8744C0.517809 47.1024 0.821794 47.2412 1.139 47.2412L30.1861 47.2346L30.7577 47.0859C31.032 46.9207 31.2401 46.6497 31.3095 46.316C31.4681 45.4733 31.6895 44.6406 31.9671 43.8376C32.1455 43.3188 31.9274 42.7504 31.4615 42.4762L6.30674 27.9563C6.0325 27.801 5.70208 27.7646 5.39809 27.8571Z" fill="#1A428A"/>
<path d="M46.8657 0.307976C46.6344 0.0964895 46.3172 -0.0125589 46 0.0105725C44.8964 0.0997934 43.773 0.228669 42.6628 0.393893C42.101 0.479809 41.688 0.955656 41.688 1.52072L41.6847 18.5454L41.7706 19.2724L41.7409 19.279L41.4468 18.6082L32.9352 3.85699C32.6544 3.36793 32.0497 3.15644 31.521 3.37453C30.4835 3.78759 29.4493 4.2337 28.4514 4.71285C28.1673 4.84833 27.9426 5.09617 27.8501 5.40679C27.7543 5.70419 27.7972 6.03133 27.9525 6.30891L42.4777 31.4692L42.8973 31.8889C43.1782 32.0442 43.5119 32.0905 43.8357 31.9814C44.6486 31.7038 45.4812 31.4758 46.3172 31.3139C46.8525 31.2049 47.239 30.7356 47.239 30.1937L47.2324 1.14732C47.2324 0.823477 47.1003 0.519463 46.8657 0.307976Z" fill="#1A428A"/>
<path d="M96.8252 53.5231C86.3377 53.5231 78.3053 56.0742 57.4823 60.4956C28.0222 66.7543 7.09675 61.586 2.29907 60.9681C1.58536 60.8789 1.11617 61.2424 1.35737 62.0454C1.87613 64.4411 3.65048 69.573 4.98537 71.9026C22.0515 72.8279 45.8053 69.0476 62.9672 67.7919C77.1191 66.7543 89.6948 66.2288 97.0466 67.6894C98.2361 64.3453 99.1117 60.7731 99.69 56.9135C100.024 54.7061 99.756 53.5231 96.8252 53.5231Z" fill="#EE5F2A"/>
<path d="M1.03625 57.1016C2.0209 57.4882 15.6408 62.1277 36.7842 62.4284C42.7846 62.5176 50.4404 61.6254 55.0134 60.6275C52.6113 61.0075 47.5063 61.7741 41.1755 61.751C28.993 61.708 10.5127 57.4353 1.74335 53.5228C1.38319 53.3576 0.956954 53.4204 0.633144 53.655C0.309334 53.8929 0.130908 54.2763 0.167254 54.6794C0.213512 55.2412 0.269684 55.8029 0.329159 56.3647C0.382026 56.639 0.464631 56.8736 1.03625 57.1016Z" fill="#EE5F2A"/>
</svg>
