<svg width="100" height="100" viewBox="0 0 100 100" fill="none" xmlns="http://www.w3.org/2000/svg">
<path d="M0 25C0 11.1929 11.1929 0 25 0H75C88.8072 0 100 11.1929 100 25V75C100 88.8072 88.8072 100 75 100H25C11.1929 100 0 88.8072 0 75V25Z" fill="#00B7AC"/>
<path d="M86.4385 58.9209C86.7613 58.9213 87.0476 59.2055 87.0498 59.5283V62.3428C88.1301 61.3534 89.3977 60.6919 90.8779 60.6924L91.1719 60.7012C93.3902 60.7826 94.5137 61.8519 94.5137 63.8818V66.5166C94.5146 66.8427 94.2274 67.1322 93.9014 67.1338H79.8506C79.7228 67.7313 79.477 68.2882 79.0859 68.7617C78.7194 69.2055 78.2517 69.5555 77.7227 69.7822C77.4177 69.8939 77.0491 69.7294 76.9287 69.4277C76.8154 69.1233 76.9825 68.7533 77.2861 68.6377C78.0809 68.2711 78.6312 67.4534 78.6719 66.5791V62.3418C78.6725 62.0178 78.9592 61.7312 79.2832 61.7305C79.6073 61.7308 79.8942 62.0177 79.8945 62.3418V65.9043H81.1445C82.2366 65.9042 82.251 64.5009 82.251 64.4395V62.3418C82.2519 62.0175 82.5389 61.7308 82.8633 61.7305C83.1949 61.7302 83.4753 62.0135 83.4756 62.3418V64.4414C83.4719 64.957 83.335 65.4383 83.1299 65.9062H93.2705V63.8818C93.2705 62.7335 92.9121 62.0084 91.127 61.9434C90.1313 61.8755 89.1469 62.1889 88.374 62.8203C87.8221 63.3163 87.2653 63.8742 87.0615 64.6123C86.9671 64.92 86.795 65.176 86.4385 65.1826C86.0512 65.178 85.8262 64.8466 85.8262 64.4854V59.5283C85.8291 59.2052 86.1154 58.9212 86.4385 58.9209Z" fill="white"/>
<path d="M83.209 68.1592C83.5411 68.1628 83.8207 68.4458 83.8203 68.7754C83.8202 69.1004 83.5339 69.3873 83.209 69.3916C82.8839 69.3902 82.5982 69.1024 82.5947 68.7773C82.5948 68.4893 82.8115 68.2351 83.0879 68.1748L83.209 68.1592Z" fill="white"/>
<path d="M81.4092 68.1582C81.7421 68.16 82.0241 68.4443 82.0254 68.7744C82.0229 69.1002 81.735 69.3868 81.4092 69.3896C81.0844 69.3859 80.7999 69.1002 80.7949 68.7754C80.7969 68.4908 81.0179 68.2369 81.291 68.1748L81.4092 68.1582Z" fill="white"/>
<path d="M74.7686 61.7578C75.0926 61.7585 75.3792 62.0451 75.3799 62.3691V68.377C75.3799 68.7463 75.1894 69.1014 74.7783 69.1055H71.7959C69.5346 69.1053 68.2363 67.6849 68.2363 65.2061V62.3711C68.2363 62.0469 68.5234 61.7598 68.8477 61.7598C69.1724 61.7595 69.46 62.0464 69.4609 62.3711V65.2061C69.4609 67.879 71.219 67.8799 71.7959 67.8799H74.1533V62.3691C74.1543 62.0366 74.4394 61.7565 74.7686 61.7578Z" fill="white"/>
<path d="M48.9131 61.7441C49.2363 61.7438 49.5241 62.0283 49.5264 62.3516V65.8936H51.0225C52.1149 65.8936 52.1289 64.4895 52.1289 64.4287V62.3574C52.1291 62.277 52.1449 62.1973 52.1758 62.123C52.2067 62.0488 52.2525 61.9816 52.3096 61.9248C52.3666 61.868 52.4344 61.8227 52.5088 61.792C52.5831 61.7614 52.6628 61.7459 52.7432 61.7461C52.9052 61.7464 53.0602 61.8112 53.1748 61.9258C53.2893 62.0404 53.3542 62.1954 53.3545 62.3574V64.4287C53.3512 64.945 53.2123 65.4243 53.0098 65.8936H54.874C55.9701 65.8936 55.9824 64.4895 55.9824 64.4287V62.3574C55.9823 62.0363 56.2726 61.7461 56.5938 61.7461C56.9183 61.7462 57.2048 62.0338 57.2051 62.3584V64.4297C57.2051 65.6989 56.3748 67.1185 54.9678 67.1201H49.5264V68.4746C49.526 68.8649 49.1944 69.0889 48.832 69.0889H45.9951C43.7324 69.0889 42.4336 67.6674 42.4336 65.1885V62.3525C42.4355 62.029 42.7233 61.7441 43.0469 61.7451C43.3701 61.7449 43.6569 62.0293 43.6592 62.3525V65.1885C43.6592 67.8619 45.4185 67.8623 45.9951 67.8623H48.3008V62.3516C48.3028 62.0282 48.5897 61.7434 48.9131 61.7441Z" fill="white"/>
<path d="M77.0176 58.9209C77.3393 58.9228 77.6231 59.2066 77.625 59.5283V66.5156C77.6266 66.8402 77.3421 67.1293 77.0176 67.1328C76.691 67.1318 76.4027 66.8422 76.4033 66.5156V59.5283C76.4062 59.2046 76.6939 58.9203 77.0176 58.9209Z" fill="white"/>
<path d="M59.0908 58.9023C59.4144 58.9046 59.6989 59.1921 59.6982 59.5156V63.2168C59.6982 65.8902 61.4577 65.8906 62.0361 65.8906H64.2354V62.3662C64.2373 62.0818 64.4585 61.8267 64.7314 61.7676L64.8535 61.751C65.1841 61.751 65.4627 62.0352 65.4609 62.3623V66.5029C65.463 66.9407 65.0801 67.1117 64.6982 67.1133H62.0381C59.7742 67.1133 58.4756 65.6913 58.4756 63.2129V59.5156C58.4765 59.19 58.7651 58.9022 59.0908 58.9023Z" fill="white"/>
<path d="M65.2441 59.0352C65.4744 59.2649 65.4757 59.6709 65.2471 59.9023C65.0109 60.1351 64.6156 60.1383 64.3799 59.9062C64.1491 59.6762 64.1476 59.2696 64.377 59.0381C64.6068 58.8082 65.0116 58.8079 65.2441 59.0352Z" fill="white"/>
<path d="M72.457 59.0342C72.6847 59.2659 72.6864 59.6704 72.459 59.9023C72.2247 60.1294 71.8266 60.1336 71.5908 59.9033C71.362 59.6721 71.3629 59.2672 71.5908 59.0352C71.8215 58.8073 72.2251 58.8075 72.457 59.0342Z" fill="white"/>
<path d="M25.752 35.9941C26.6946 35.5279 27.8721 35.9258 28.3389 36.8682L33.4023 47.1045L38.4512 36.8701C38.9273 35.9057 40.0883 35.582 41.0371 35.9932C41.9787 36.4579 42.3743 37.6467 41.9141 38.5791L32.0059 58.6582C31.545 59.5937 30.3648 60.0014 29.4219 59.5361C28.479 59.0704 28.0796 57.8938 28.5439 56.9502L31.25 51.4658L24.876 38.5811C24.4148 37.6488 24.8102 36.4591 25.752 35.9941Z" fill="white"/>
<path d="M87.7725 35.8604C89.7958 35.8308 91.7854 36.3859 93.501 37.459C94.4635 38.0435 94.6348 39.4553 93.8232 40.2559C93.2313 40.8393 92.2736 40.9267 91.5693 40.4873C90.4202 39.7404 89.0911 39.3166 87.7217 39.2598C86.2635 39.2598 85.3224 39.9066 85.3223 40.9072V40.958C85.3223 42.2145 86.1676 42.6099 89.2881 43.4082C92.7161 44.3032 95 45.5605 95 48.7959L94.999 48.8457C94.999 52.2798 92.4678 54.4131 88.3945 54.4131C85.9621 54.4119 83.5904 53.6548 81.6074 52.2461C80.9551 51.7615 80.7051 50.8599 81.0186 50.1064C81.4601 49.0452 82.8601 48.6941 83.79 49.3662C85.127 50.416 86.7729 50.9955 88.4727 51.0137C90.1532 51.0137 91.1572 50.3494 91.1572 49.2363V49.1836C91.157 48.069 90.3598 47.5592 87.4512 46.8145C84.0676 45.9499 81.4796 44.9983 81.4795 41.3232V41.2715C81.4795 38.0854 84.067 35.8605 87.7725 35.8604Z" fill="white"/>
<path d="M70.1621 35.9053C75.2653 35.9229 79.1035 39.9147 79.1035 45.1904V52.4375C79.1038 53.4773 78.2228 54.3682 77.1729 54.3682C76.1327 54.3688 75.2409 53.4879 75.2412 52.4375V45.1904C75.241 42.0093 73.1519 39.7799 70.1621 39.7695C67.2028 39.7801 65.1227 41.9857 65.0996 45.1377C65.1228 48.3012 67.2011 50.5057 70.1689 50.5059C71.2972 50.5154 72.4678 50.15 73.209 51.2822C73.6313 51.9275 73.623 52.7907 73.1875 53.4297C72.5288 54.3956 71.2197 54.3804 70.1699 54.3682C65.1366 54.3682 61.3282 50.4703 61.2383 45.2705V45.0029C61.3277 39.8217 65.134 35.9231 70.1621 35.9053Z" fill="white"/>
<path d="M50.9014 35.9053C55.7564 35.9231 59.4072 39.9155 59.4072 45.1904V52.4365C59.4062 53.4884 58.5265 54.3671 57.4746 54.3672C56.4228 54.3672 55.5434 53.4883 55.543 52.4365V45.1904C55.543 42.0086 53.6352 39.7791 50.9043 39.7686C48.1878 39.7789 46.2773 42.0085 46.2773 45.1904V52.4365C46.277 53.4881 45.3982 54.3669 44.3467 54.3672C43.2949 54.3669 42.4151 53.4883 42.4141 52.4365V45.1904C42.4141 40.08 45.8395 36.1725 50.4541 35.918L50.9014 35.9053Z" fill="white"/>
<path d="M13.4951 31C13.9561 31 14.4177 31.0358 14.8779 31.0586C15.9283 31.0895 16.7825 31.9965 16.751 33.0469C16.7207 34.0967 15.8042 34.9511 14.7646 34.9199C14.3281 34.9052 13.8875 34.8633 13.4951 34.8633C11.5071 34.8633 8.86239 35.4214 8.8623 40.2461V51.9824C8.86264 53.0325 7.9715 53.9133 6.93164 53.9131C5.88124 53.9137 4.99967 53.0226 5 51.9824V39.7744C4.99998 39.6872 5.00567 39.6002 5.0166 39.5137C5.27665 34.1663 8.40349 31 13.4951 31Z" fill="white"/>
<path d="M20.585 31.1074C21.6366 31.1078 22.5154 31.9865 22.5156 33.0381V51.9805C22.5158 53.0305 21.6247 53.9114 20.585 53.9111C19.5342 53.9118 18.6532 53.0312 18.6533 51.9805V33.0381C18.6535 31.9862 19.533 31.1074 20.585 31.1074Z" fill="white"/>
<path d="M11.9678 39.7988C13.0167 39.7983 13.8972 40.6879 13.8975 41.7266C13.8971 42.7754 13.0064 43.6558 11.9678 43.6553C10.919 43.6559 10.0387 42.7651 10.0391 41.7266C10.0386 40.6773 10.9185 39.7982 11.9678 39.7988Z" fill="white"/>
</svg>
