<svg width="100" height="100" viewBox="0 0 100 100" fill="none" xmlns="http://www.w3.org/2000/svg">
<path d="M0 25C0 11.1929 11.1929 0 25 0H75C88.8072 0 100 11.1929 100 25V75C100 88.8072 88.8072 100 75 100H25C11.1929 100 0 88.8072 0 75V25Z" fill="#328040"/>
<path d="M74.494 75.4483H63.3376L45.0688 25H56.2252L74.494 75.4483Z" fill="white"/>
<path d="M29.1564 75.4483H18L45.0683 25H56.2247L29.1564 75.4483Z" fill="white"/>
<path d="M42.0536 51.5617C42.017 51.5788 41.9804 51.5971 41.9437 51.6154C36.5042 54.2377 31.2124 57.1569 26.0946 60.3626L18 75.4479H29.1564L29.8718 74.1152C31.5551 70.9775 33.7066 68.1158 36.2544 65.6282L36.3093 65.5746C40.9798 61.0205 45.275 56.8326 52.4619 52.0862C59.331 47.5491 65.1341 44.949 68.9715 43.2513C77.1158 39.6468 82.0583 38.4671 81.9995 38.2722C81.8857 37.8916 62.9957 41.487 42.0536 51.5617Z" fill="white"/>
</svg>
