<svg width="100" height="100" viewBox="0 0 100 100" fill="none" xmlns="http://www.w3.org/2000/svg">
<path d="M48.0336 90.1528C48.0336 90.634 46.8305 91.6767 46.3492 91.6767C46.1086 91.6767 45.2263 91.5965 45.2263 91.1954C45.2263 90.3132 45.6274 89.3507 45.7878 88.7892V88.709C44.1836 87.2653 42.9003 85.2601 42.9003 85.2601C42.3389 85.0195 42.2587 85.0195 42.0983 85.0195C41.8576 85.0195 41.6972 85.2601 39.291 85.2601V85.7414L45.1461 91.5965C45.1461 91.6767 46.1086 92.1579 46.5096 92.1579C46.5096 92.1579 46.4294 92.559 52.1241 93.2808C53.8887 92.7996 53.648 93.4412 54.3699 92.7194C54.3699 92.7194 56.6157 92.3985 59.1021 89.9121C57.3375 90.3934 56.4553 91.3559 54.6105 91.2757L54.0468 91.3475L53.7259 92.5506C53.6416 92.5506 53.4655 92.5506 52.904 92.5506C52.8313 92.4903 51.8835 92.9058 51.8033 92.2381C51.8033 92.0376 51.8233 91.9374 51.8434 91.8371C51.8634 91.7369 51.8835 91.6366 51.8835 91.4361L51.5627 91.5163C50.6002 91.5163 49.3169 91.1152 48.194 90.3934L48.0336 90.1528Z" fill="#005CA3"/>
<path fill-rule="evenodd" clip-rule="evenodd" d="M38.9711 84.6182C37.1263 79.8058 35.6826 76.5173 34.3993 74.5923C31.2712 69.8601 29.5067 71.8653 26.9401 68.1758C26.2182 67.1331 25.9776 65.529 25.0151 63.6842V62.3207C28.0629 64.3258 29.8275 65.4487 31.7525 65.1279C24.6141 60.3957 24.1328 57.9093 24.1328 54.701V51.0917C27.8223 54.0594 29.9077 56.8666 32.0733 57.3479C32.0733 57.3479 24.9349 50.6105 24.9349 47.4022C24.9349 45.0762 24.6943 44.3544 25.4963 43.2315L33.9982 51.0115C32.3139 48.5251 27.1807 40.745 27.1807 38.7399C27.1807 37.9378 28.3838 35.9326 29.1056 35.3712C29.5869 36.3337 34.2389 42.7502 36.9659 43.3919C36.8857 43.3117 30.2285 32.8848 30.2285 30.8796C30.2285 30.8796 31.4316 27.7515 32.4743 26.7089C35.6826 32.0827 37.768 36.6545 40.6554 37.1357C38.4898 34.4087 34.3993 25.1849 34.3993 22.7787C34.3993 22.7787 35.0409 19.7309 37.768 18.608C37.8482 19.4902 42.1793 30.2379 44.5053 30.9598C44.1845 30.0775 39.7731 18.2871 39.7731 15.4799C39.7731 15.4799 41.1367 12.9133 43.9439 10.9883C44.5053 11.8706 47.072 25.4255 49.6386 26.5484C49.3177 25.4255 48.4355 18.7684 48.4355 17.9663C48.1948 11.3894 48.4355 10.106 48.4355 6.17591L53.4885 2.80724C53.8093 4.65199 52.4458 15.3195 54.1302 23.26C55.4135 21.4954 54.6114 12.3518 56.4562 6.97798C57.8197 2.88743 58.3811 0 61.9102 0C63.2737 0 62.5519 0.24062 64.3966 0V1.12289C62.5519 4.7322 59.103 24.3026 59.103 28.2328V38.3388L61.0279 55.4229V60.7165C61.0279 63.2831 59.7446 66.0904 57.0978 67.1331C56.6166 65.6091 56.2957 62.4811 56.8572 61.8394H55.7343C55.4937 63.2029 55.0926 66.8925 55.7343 67.6945C54.2906 67.6945 53.6489 68.1758 52.2052 68.1758C49.7188 68.1758 51.0021 62.4009 48.7563 60.9572L48.4355 64.0852C48.5959 64.5665 49.2375 67.1331 49.2375 68.0154C49.2375 69.6195 46.9917 68.4164 46.4303 71.0632H45.3074C44.5053 70.2611 43.3824 68.7372 42.0189 68.5768C43.0616 69.8601 44.4251 71.6247 44.4251 72.5069C44.4251 73.0684 42.5002 74.7527 41.9387 74.7527C41.3773 74.7527 40.4148 74.1111 39.6127 74.2715C41.4575 74.9933 41.4575 75.3142 42.2595 76.1965V77.56C36.6451 77.961 37.5601 77.9666 36.1314 77.8085L36.5282 78.6829H41.6981C42.0991 79.3245 42.821 82.0515 42.821 82.0515C42.821 83.014 40.9762 83.2547 39.6127 84.6182H38.9711Z" fill="#005CA3"/>
<path d="M44.7461 79.886C44.7461 75.3944 48.3554 71.7852 52.847 71.7852C57.3386 71.7852 60.9479 75.3944 60.9479 79.886C60.9479 84.3776 57.3386 87.9869 52.847 87.9869C48.3554 87.9067 44.7461 84.2974 44.7461 79.886Z" fill="#E84422"/>
<path d="M61.429 73.3888L61.8301 73.1482C62.2311 72.5867 62.4717 72.1857 62.6321 71.544C62.7123 71.143 63.0332 71.143 63.1936 70.8222C63.354 70.5816 63.5946 70.4211 63.755 70.2607L63.9956 69.4587C64.1561 69.218 64.7977 68.416 64.9581 68.2555C65.5998 67.6139 65.68 67.2931 66.1612 66.4108C66.8831 65.0473 67.5247 64.4858 68.2466 62.9619C67.6852 63.3629 67.4445 63.5233 66.8831 63.9244C66.3216 64.2452 66.3216 64.7265 66.0008 65.1275C65.7602 65.5285 65.4394 65.6889 64.8779 65.8493C64.1561 66.09 63.0332 67.6941 62.5519 68.1754C61.5894 69.1378 60.627 69.5389 59.7447 70.5816C59.5041 70.8222 59.103 70.9024 59.103 71.2232C59.103 71.4638 59.5041 71.7045 59.6645 71.7847C60.2259 72.1055 60.3863 73.3888 61.429 73.3888Z" fill="#E84422"/>
<path d="M62.7127 75.1537C62.7127 75.5547 62.5522 75.7152 62.5522 76.036L63.6751 76.9985C64.798 76.9985 65.8407 76.1162 66.723 75.635C66.9636 75.5547 67.5251 75.4745 67.9261 75.3943C68.7282 75.3141 69.049 74.8329 69.6907 74.5923C70.8938 74.0308 72.9791 73.5496 74.0218 72.5871C74.4229 72.1861 74.9041 72.3465 75.1447 71.8652H74.6635C74.102 71.8652 73.3802 72.1059 72.7385 72.1861H71.9364C71.375 72.3465 70.8135 72.4267 70.2521 72.4267C69.049 72.5871 68.5678 73.1485 67.3647 73.6298C66.322 74.0308 65.9209 74.1912 64.798 74.5121C63.996 74.7527 63.2741 74.5121 62.8731 74.9131L62.7127 75.1537Z" fill="#E84422"/>
<path d="M63.194 80.6083C63.194 81.7312 62.4722 82.2124 62.4722 83.0947L63.2742 83.4155L64.1565 83.2551H66.3221L67.846 83.5759L70.2522 83.3353C71.0543 83.5759 71.6157 83.3353 72.4178 83.4957H73.3001L74.9042 83.6561L75.8667 83.4155C74.9042 82.8541 74.0219 83.0947 73.0595 82.6134C72.498 82.3728 72.498 81.8916 72.0168 81.5707C71.696 81.3301 71.3751 81.4905 70.8939 81.4905C69.771 81.4905 68.8887 81.2499 68.0064 81.0895C66.0013 80.528 64.6377 80.127 63.1138 79.4854C62.9534 79.8062 63.194 80.127 63.194 80.6083Z" fill="#E84422"/>
<path fill-rule="evenodd" clip-rule="evenodd" d="M61.1886 85.0997C60.7074 85.9018 60.3866 86.2226 59.8251 86.8643C59.6647 87.1049 59.2637 87.2653 59.2637 87.6663L59.8251 87.907C60.4668 88.2278 61.0282 88.5486 61.5897 88.9497C62.3917 89.5913 62.7928 90.1528 63.5948 90.5538C64.5573 91.1152 64.5573 91.8371 65.5198 92.1579C66.1614 92.3985 67.2041 92.7996 67.3646 93.2808C68.327 94.0829 69.2895 94.8048 70.4124 95.3662H70.7332L70.3322 94.8047C69.6103 93.8423 69.1291 93.762 68.5677 92.7194C68.0062 91.5163 66.9635 91.1955 66.1614 90.233C65.4396 89.2705 64.5573 88.709 63.675 87.8268C62.7928 86.9445 62.6324 85.3404 61.2688 85.0195V85.2601L61.1886 85.0997Z" fill="#E84422"/>
<path d="M45.2218 91.0029C44.6604 92.6873 43.8583 94.131 43.6177 95.9757C44.1791 95.8955 44.3395 95.8153 44.6604 95.5747C45.1416 95.1737 45.0614 94.6122 45.302 94.131C45.6228 93.2487 46.2645 92.7675 46.6655 92.1258L46.7457 91.5644L45.2218 91.0029Z" fill="#E84422"/>
<path d="M51.9639 92.541C51.9639 95.5087 53.0066 97.1128 53.0066 100C53.8086 99.5992 53.7284 98.0753 53.7284 97.1128V92.541H52.2045H51.9639Z" fill="#E84422"/>
</svg>
