<svg width="100" height="100" viewBox="0 0 100 100" fill="none" xmlns="http://www.w3.org/2000/svg">
<path d="M100 50C100 77.6 77.6286 100 50 100C22.4 100 0 77.6 0 50C0 22.4 22.4 0 50 0C77.6286 0 100 22.4 100 50Z" fill="#E32526"/>
<path d="M35.9143 39.9995C37.0572 39.7995 37.8857 40.4852 37.8 41.5138C37.7143 42.5709 36.7143 43.571 35.6 43.771C34.4857 43.971 33.6286 43.2852 33.7143 42.2281C33.8286 41.2281 34.8 40.1995 35.9143 39.9995ZM23.7714 47.4852C24.7429 43.8281 25.9429 40.1138 27.1143 37.3424C24.7429 40.4281 22.2286 44.371 19.9429 48.3138C21.2572 47.9995 22.5429 47.7424 23.7714 47.4852ZM43.8857 44.6567C44.7714 44.4852 46.7429 45.6852 45.8 46.7995C44.8286 47.9424 43.7143 47.7138 41.9714 48.4281C40.9714 48.8281 40.2286 49.7138 39.1429 51.2852C37.7714 53.3138 37.1429 55.2852 37.0286 56.771C37.0286 57.1995 36.9714 57.4281 36.7429 57.571C34.4286 59.0852 33.7429 57.9424 33.8 56.571C33.8286 56.2567 33.9429 55.7424 34.1429 55.0852C32.3714 57.7424 30.8 59.0852 29.7714 59.2852C28.4 59.5424 27.6286 58.5709 27.7714 56.7995C27.8286 55.9995 28.0857 55.0567 28.5429 53.8567C29.0286 52.6567 29.7714 50.9995 30.4572 49.6281C30.6286 49.2852 30.8 48.9424 30.9429 48.6281C29.8857 48.8281 28.4286 49.1424 26.6857 49.5424C26.6572 49.5995 26.6286 49.6281 26.6286 49.6281C25.8857 53.0852 25.8286 54.3995 25.4286 57.3995C25.2572 58.7138 25.5143 60.1424 23.9429 60.3424C22.3714 60.571 21.8572 58.9424 21.8286 57.571C21.8 56.171 22.0572 54.4852 23.0572 50.371C21.4286 50.7995 19.6857 51.2567 18 51.7995C17.9714 51.8281 17.9714 51.8567 17.9714 51.8567C15.1429 57.0567 12.3429 63.4852 11.8572 65.5424C11.4857 67.1995 10.7429 67.7138 9.62858 67.2281C8.51429 66.7424 7.88572 65.6281 8.28572 64.3995C9.02858 62.171 11.2286 57.171 13.2 53.571C13.1714 53.571 13.2 53.5138 13.2572 53.4281C11.8 53.9995 10.4572 54.5995 9.28572 55.2567C8.51429 55.6852 7.54287 55.2852 7.34287 54.4281C7.20001 53.7995 6.91429 52.5995 8.42858 51.9424C10.7143 50.9424 13.1714 50.1138 15.6 49.3995C20.8 40.6281 27.2857 31.5995 29.1429 31.771C29.9429 31.8281 29.8286 32.7138 30.5429 33.5138C31.2572 34.3138 31.3429 34.771 30.5143 36.8567C28.8 41.1424 28.9143 40.1424 27.2857 46.8281C30.3143 46.3138 32.9429 46.0281 33.2 45.9995C34.0286 45.8852 35.4857 46.4567 34.7143 48.0852C34.7143 48.0852 33.9143 49.4852 33.6 50.0852C33.0286 51.0852 32.2857 52.5709 31.8572 53.5995C31.5714 54.1995 31.4572 54.6567 31.4286 54.9995C31.4 55.2281 31.4857 55.3424 31.6572 55.3138C31.8857 55.2852 32.2286 55.0281 32.6286 54.5995C33.0286 54.1424 34.3714 53.0281 36.7714 48.971L37.4 47.6567C37.6 47.2567 37.8857 46.571 37.9429 46.2567C38 45.7995 38.0286 45.6567 38.4286 45.4281C39.0572 45.0281 40.2 44.6852 40.8857 45.1138C41.5143 45.5138 41.3429 46.2852 40.8286 47.171C42.8857 44.8281 43.4 44.7424 43.8857 44.6567ZM84.9429 51.4852C86.1143 50.0281 87.9429 46.7138 88.0572 45.7995C88.1143 45.371 88 45.2281 87.6572 45.2567C87.2572 45.3138 86.3429 46.0567 85.4857 47.1138C84.2286 48.6281 82.5143 51.7138 82.3714 52.7138C82.3143 53.1138 82.4857 53.3995 82.7714 53.371C83.2572 53.3138 84.0572 52.5995 84.9429 51.4852ZM92 49.0852C92.5143 48.2852 93.6 48.5424 93.3143 49.2852C93.0572 49.9424 92.6 50.971 91.3714 52.3995C89.8857 54.2281 88.5143 55.1138 87.2857 55.2852C86.2857 55.4281 85.5714 54.9995 85.4 54.1138L85.3429 53.9424C85.3429 53.7709 85.2572 53.7138 85.1714 53.7138C85.0857 53.7138 85 53.7995 84.8572 53.9424C83.6 55.2567 82.6572 56.0852 81.4857 56.2567C79.7429 56.4852 78.7429 55.1424 79 53.1709C78.5429 53.8567 78.0572 54.5138 77.6286 54.9995C76.2857 56.5138 75.1714 57.4567 74.1429 57.5995C72.7429 57.7709 72.0286 56.7995 72.2572 55.0567C72.3714 54.2567 72.6572 53.3138 73.1714 52.1424C73.6857 50.971 74.5143 49.3424 75.2857 48.0281C75.8857 46.9424 76.4857 45.7138 76.5714 45.3138C76.6286 44.9995 76.6857 44.9138 76.9429 44.7424C77.2572 44.5138 77.9143 44.2281 78.2857 44.1995C79.2572 44.1138 80.5714 44.8281 79.7143 46.3138L79.4 46.8852C79.3429 46.9995 78.7714 48.0567 78.4286 48.6567C77.8 49.6281 77 51.0852 76.5143 52.0852C76.2 52.6852 76.0572 53.1138 76 53.4567C75.9714 53.6852 76.0286 53.7995 76.2 53.771C76.4286 53.7424 76.8 53.5138 77.2286 53.0852C77.6572 52.6281 77.9429 52.3138 78.9143 51.0281L79.2572 50.571C79.5429 50.1995 81.7714 47.2852 82.4572 46.571C84.2572 44.4281 86.2857 42.8852 87.6 42.7424C88.4572 42.6281 89.1429 43.0281 89.4857 43.7995C89.7143 44.4567 89.7714 44.4852 90.3429 44.7424C91.2572 45.1138 91.5714 45.4281 91.4857 45.8852C91.4572 46.2281 91.3143 46.4852 90.7429 47.3995C90.3429 48.1138 89.8857 48.9138 89.5429 49.5424C88.8572 50.8852 88.4857 51.7995 89.1429 52.0567C89.4 52.1424 89.8572 51.9138 90.4286 51.2852C91.0572 50.5424 91.5143 49.8567 92 49.0852ZM80.1714 42.3138C81.2857 42.1138 82.2857 41.0852 82.3714 40.0567C82.4572 38.9995 81.6 38.3424 80.4857 38.5424C79.3429 38.7424 78.3714 39.7709 78.2857 40.7995C78.2 41.8281 79.0572 42.5138 80.1714 42.3138ZM63.0572 37.3424C60.7143 40.4281 58.2 44.3424 55.9143 48.2567C57.2572 47.9424 58.5429 47.6852 59.7429 47.4567C60.7143 43.8281 61.8857 40.1138 63.0572 37.3424ZM63.6286 46.8281C64.3143 46.7424 66.4857 46.4567 66.4 47.3995C66.2572 48.8852 65.7143 48.8567 63.7429 49.2852C63.3714 49.371 62.9714 49.4567 62.5714 49.5424C62.5429 49.6281 62.5143 49.7138 62.4857 49.7138C61.7429 53.171 61.6857 54.4852 61.2857 57.4852C61.1143 58.7995 61.3714 60.2281 59.8 60.4281C58.2286 60.6567 57.6857 59.0281 57.6857 57.6567C57.6857 55.1995 58.9143 50.4281 58.9429 50.3995C57.3429 50.7995 55.6286 51.2567 53.9143 51.7995C51.8857 55.2567 48.1714 63.571 47.7143 65.6567C47.3429 67.3138 46.6 67.8281 45.4857 67.3424C44.3714 66.8567 43.7714 65.7709 44.1429 64.5138C45.1714 61.0852 49.0857 53.6281 49.1429 53.4852C47.6857 54.0567 46.3429 54.6852 45.2 55.3424C44.4857 55.7424 43.5714 55.371 43.3714 54.4852C43.2286 53.8567 42.9429 52.6567 44.3714 51.9995C46.6286 50.971 49.0857 50.1138 51.5429 49.3995C56.7429 40.6567 63.2 31.6567 65.0572 31.8281C65.8572 31.8852 65.7429 32.771 66.4572 33.571C67.1714 34.3424 67.2572 34.8281 66.4286 36.9138C64.7143 41.1995 64.8572 40.1995 63.2 46.8852C63.3143 46.8567 63.4857 46.8281 63.6286 46.8281ZM66.1143 58.9424C67.4 58.7995 71.1714 57.9995 71.2 53.8567C71.2 52.2567 69.6857 51.4281 69.3143 50.3138C69.0857 49.6281 69.1429 48.1995 70.2286 47.771C71.5714 47.2567 71.8572 48.1138 72.3143 48.771C72.5143 49.0281 73.1143 48.971 73.3429 48.771C73.6286 48.4567 74.0572 47.9995 74.2572 47.2281C74.4286 46.5138 73.6572 45.3424 71.4857 45.3995C70.7143 45.4281 69.6286 45.5424 68.1143 46.9995C67.4 47.6567 65.1714 50.7424 66.8286 53.371C67.2857 54.0852 68.3429 54.971 67.6572 55.6281C66.5714 56.6852 64.7143 55.0567 64.3714 54.571C64.2 54.3424 63.7429 54.0852 63.4572 54.5424C63.2857 54.7995 62.4572 56.2852 62.5714 56.8281C62.8857 58.571 65.1143 59.0567 66.1143 58.9424Z" fill="white"/>
</svg>
