<svg width="100" height="100" viewBox="0 0 100 100" fill="none" xmlns="http://www.w3.org/2000/svg">
<path fill-rule="evenodd" clip-rule="evenodd" d="M76.2374 10.3927C74.0501 11.561 69.5432 12.1133 67.6915 10.1515C65.6817 13.328 69.5549 16.3301 74.0211 14.6474C76.6357 13.6796 79.3764 12.4329 82.2461 12.0318C85.2448 11.6018 88.8397 12.0318 90.1299 13.3513C78.9838 14.0342 64.7015 20.207 54.0627 27.8097C45.7948 33.7267 40.6433 39.0625 34.4253 47.4731C33.5882 48.6617 33.7143 49.5568 35.2109 48.7664C42.5067 44.997 51.9096 41.8816 60.017 39.8269C66.496 38.1966 73.4193 36.662 80.0129 38.4813C83.3441 39.4112 86.4344 41.6055 87.6299 44.9824C89.1837 49.3331 87.9941 54.483 82.8569 55.288C80.3053 55.6774 78.6254 54.6834 77.6821 53.3262C77.2292 52.6752 77.0027 52.6521 76.6474 52.7653L70.0508 54.8084C69.6781 54.9275 69.188 55.4506 69.4602 56.1162C70.068 57.6595 71.4841 59.6676 73.0409 60.8417C77.2378 64.0123 82.7334 64.3611 87.5154 62.4663C94.1147 59.8594 97.6062 52.8641 96.6259 45.4445C95.72 38.6528 90.8408 33.0322 84.5423 30.8525C78.2069 28.6496 69.5289 29.6261 62.5684 32.2038C60.731 32.8897 60.3007 33.1716 61.3558 32.2765C66.2982 28.2049 76.2001 23.4823 84.505 21.0731C90.1899 19.4282 95.4418 19.0416 96.9757 20.3146C98.5236 10.6921 90.643 4.41472 81.0076 6.91105C84.3962 4.73142 81.7215 -0.0172472 76.8538 4.7111e-05C68.8151 0.0466426 61.1466 3.75501 53.604 4.5891C49.3698 5.06563 44.3788 4.19673 41.0389 2.44427C40.388 9.18377 48.4753 14.133 56.1813 12.5026C61.5851 11.3605 66.6019 8.69259 71.6188 7.56791C76.0511 6.5536 78.3301 9.28555 76.2374 10.3927V10.3927ZM33.8375 88.7907C29.5257 95.3297 27.1808 95.0391 23.3019 94.6061C22.4132 94.5073 22.4248 94.6584 22.0265 95.3094L21.0028 96.9805C20.5556 97.7042 20.5872 97.7971 21.6164 98.2418C28.9811 101.369 35.6837 100.82 41.1191 92.5223L66.0486 54.4567C68.5314 50.67 69.6207 48.6326 73.1068 48.4698C75.2653 48.3653 76.8021 49.8038 77.2234 51.5999C77.4183 52.4747 77.9287 52.5271 78.4389 52.3875L84.9264 50.4171C85.2876 50.3154 85.5484 49.7806 85.5686 49.1587C85.6575 47.197 84.5049 44.3576 82.7534 42.9685C77.7996 39.0625 70.2828 40.411 64.7013 41.4979C55.7396 43.2591 44.7484 46.8628 35.3024 51.6086C32.8398 52.8641 30.0762 54.1458 28.5597 56.4503C25.9508 60.3971 18.6607 71.8185 15.8569 75.6721C11.1439 82.089 9.18606 81.8768 5.22984 81.4612C4.63927 81.3943 4.56756 81.4729 4.26939 81.9728L3.09412 83.9054C2.69838 84.5622 2.73272 84.6754 3.28602 84.9167C10.7828 88.2328 17.3218 88.2065 22.9694 79.6188L34.7978 61.6117C36.5494 58.9381 39.4477 57.3454 41.6408 56.5841L24.8299 82.1791C20.5328 88.721 18.2708 88.4158 14.4092 88.0031C13.5263 87.9014 13.5147 88.0583 13.1392 88.6803L12.0872 90.3891C11.7575 90.9238 11.5769 91.1272 12.5142 91.5284C20.5328 94.9403 26.8683 93.9551 32.1144 85.9164L52.8212 54.1544C53.9078 52.4746 56.5108 51.1436 58.9848 50.6118L33.8375 88.7907V88.7907Z" fill="#CC0327"/>
</svg>
