<svg width="100" height="100" viewBox="0 0 100 100" fill="none" xmlns="http://www.w3.org/2000/svg">
<path d="M100 56.3578C100.011 57.8031 98.6215 58.9853 97.1097 58.9995C95.5987 59.0129 94.3614 57.8529 94.3487 56.4123C94.3375 54.9654 95.5519 53.7833 97.0653 53.7706C98.5779 53.7572 99.9882 54.9157 100 56.3578Z" fill="#FF5A00"/>
<path d="M89.4731 63.3111C89.4747 63.2999 89.4731 63.2886 89.4731 63.2835C89.4686 63.2203 89.4619 63.1625 89.4529 63.1018C89.4507 63.0928 89.4462 63.0839 89.4462 63.0743C89.3558 62.529 89.1186 62.0549 88.9599 61.7965C84.5031 54.4918 77.7008 48.7319 77.7008 48.7319C77.7008 48.7319 77.4765 48.494 77.597 48.385C77.7143 48.2743 79.0691 47.364 79.3808 47.1862C79.6925 47.0028 81.5113 45.9203 82.1125 45.6224C83.9233 44.7223 86.049 44.6386 85.9586 43.1616C85.9181 42.4283 85.1027 41.8712 84.7062 41.7124C81.4589 40.4141 76.9061 43.356 76.2803 43.7156C75.6458 44.083 74.2688 45.0653 74.1149 45.1759C73.9578 45.2841 73.8548 45.3726 73.6398 45.1804C72.7451 44.3918 69.1235 41.9705 64.5746 39.573C60.0226 37.1771 54.5442 34.8088 50.5355 34.0826C49.4782 33.8929 47.9854 33.9435 47.4556 35.1802C47.0907 36.0297 47.3621 37.1171 48.785 37.7658C49.8597 38.255 54.3023 39.1866 61.2505 42.711C64.2582 44.2353 69.0553 47.5574 69.0553 47.5574C69.3575 47.7596 69.8374 48.1184 69.8596 48.2251C69.8825 48.3532 69.2861 48.6731 68.9688 48.9695C68.6532 49.2626 65.6954 51.239 65.0117 51.7163C64.2439 52.2489 60.8333 54.5026 60.1765 54.8123C59.1446 55.3046 58.1135 55.9139 58.0722 57.1087C58.0632 57.4082 58.1111 57.6911 58.2015 57.9589C58.2082 57.9769 58.2127 57.9961 58.2195 58.0127C58.2285 58.0443 58.2375 58.0727 58.2537 58.1021C58.4369 58.5659 58.7446 58.9223 59.0524 59.1222C59.4315 59.398 59.8908 59.5663 60.3944 59.5869C60.9893 59.6048 61.4192 59.394 61.9847 59.1373C62.9627 58.5422 64.0232 57.8729 64.5348 57.526C65.3502 56.9736 73.2208 51.2786 73.2208 51.2786C73.2208 51.2786 73.3398 51.1426 73.5619 51.3402C73.7879 51.5393 80.5767 57.7851 83.9501 62.5422C84.6005 63.4573 84.9011 63.873 85.1565 64.2625C85.4055 64.6434 85.6181 64.8457 85.9441 65.1128C86.259 65.3704 86.6564 65.5458 87.0895 65.5893C87.2331 65.6117 87.3806 65.6178 87.5249 65.605C88.1031 65.5456 88.487 65.4027 88.9296 64.927C89.4 64.4197 89.5176 63.8429 89.4731 63.3111Z" fill="#FF5A00"/>
<path d="M37.5783 42.9334C37.8892 42.9342 39.0679 42.9155 39.2369 43.4375C39.3511 43.79 39.1091 44.1037 38.8649 44.2886C37.986 44.9524 36.0396 45.4652 34.5603 45.4494C34.1082 45.4427 33.6093 45.4266 33.6156 45.3253C33.6583 44.5201 35.8317 42.9223 37.5783 42.9334ZM53.3514 53.6044C52.8937 53.606 52.4646 53.7466 52.1037 53.9789C51.2931 54.2856 50.3397 54.7059 49.959 54.8103C49.4973 54.9312 40.9541 58.4626 35.3281 53.3223C33.3213 51.4874 33.2444 49.6225 33.2444 49.6225C33.2444 49.6225 33.6585 49.7387 34.8054 49.6919C45.6171 49.2518 45.4847 41.4247 42.2184 39.4587C40.1617 38.2228 38.151 38.5942 37.5767 38.5989C37.0048 38.6034 35.6144 38.9837 35.6144 38.9837C29.603 40.7941 28.46 45.8112 28.345 46.8076C28.2514 47.5749 28.0547 47.8705 28.2452 49.8713C28.6267 53.8058 32.1928 57.6723 36.5901 59.376C40.9835 61.0845 46.0694 60.8008 50.6706 59.3939C51.8492 59.0344 52.7003 58.7704 53.3475 58.4496C53.352 58.4474 53.3587 58.4474 53.3655 58.4474C53.6574 58.332 53.973 58.1937 54.234 58.0538C55.093 57.7148 55.6998 56.8693 55.6934 55.8886C55.6799 54.6148 54.6339 53.5909 53.3514 53.6044Z" fill="#233D79"/>
<path d="M8.33707 45.2993C8.43542 45.1911 18.3168 34.3928 29.3942 34.0017C30.6316 33.9622 31.6706 34.6275 32.0125 35.6579C32.4479 36.9657 31.6008 38.4284 30.1295 38.912C29.4236 39.1436 28.6788 39.1206 28.0292 38.8426L27.9943 38.8269L27.9595 38.8247C27.2313 38.7512 26.2883 38.9748 25.6251 39.1755C17.4134 41.6402 10.5033 47.9983 5.08119 58.0719C4.79485 58.6085 4.54103 58.9333 4.0445 59.5046C3.63047 59.9827 2.22021 61.036 1.19067 60.8013C0.271381 60.5966 0.111958 60.0585 0.0294677 59.5275C-0.0895158 58.7823 0.169057 57.9589 0.495841 56.9143C0.718722 56.2015 0.974126 55.3868 1.17163 54.4085C1.87993 50.9118 2.19324 48.2045 2.10202 46.3633C2.06475 45.6071 2.10202 44.643 2.7429 43.9255C3.38141 43.208 4.23804 43.125 4.98996 43.0562C6.02664 42.959 6.53824 43.302 6.91104 43.5541C7.25765 43.7872 7.45753 44.1333 7.46942 44.5008C7.46863 44.5008 7.4575 44.6177 7.4575 44.6177C7.44154 44.7593 7.42419 44.9093 7.42419 45.0523C7.42419 45.2965 7.47415 45.517 7.66849 45.6023C7.94928 45.7264 8.22206 45.4273 8.33707 45.2993Z" fill="#233D79"/>
</svg>
